<svg width="27" height="34" viewBox="0 0 27 34" fill="none" xmlns="http://www.w3.org/2000/svg">
<path d="M24.2125 12.8055L25.7368 11.2521C26.5274 10.4465 26.5274 9.13809 25.7368 8.33242C24.9462 7.52676 23.6623 7.52676 22.8717 8.33242L21.5056 9.72461C19.7283 8.24219 17.5716 7.22383 15.1998 6.85V4.63281H16.2118C17.3313 4.63281 18.2357 3.71113 18.2357 2.57031C18.2357 1.42949 17.3313 0.507812 16.2118 0.507812H10.1401C9.02058 0.507812 8.11614 1.42949 8.11614 2.57031C8.11614 3.71113 9.02058 4.63281 10.1401 4.63281H11.152V6.85C4.84627 7.84258 0.0205078 13.3984 0.0205078 20.1016C0.0205078 27.5072 5.90882 33.5078 13.1759 33.5078C20.443 33.5078 26.3313 27.5072 26.3313 20.1016C26.3313 17.4074 25.5534 14.9002 24.2125 12.8055ZM13.1759 30.3741C7.60827 30.3741 3.09432 25.7747 3.09432 20.1003C3.09432 14.4258 7.60764 9.82645 13.1759 9.82645C18.7442 9.82645 23.2575 14.4258 23.2575 20.1003C23.2575 25.7747 18.7442 30.3741 13.1759 30.3741Z" fill="#9E9EA3"/>
</svg>
