<svg xmlns="http://www.w3.org/2000/svg" width="19.777" height="22.986" viewBox="0 0 19.777 22.986">
  <path id="Path_12791" data-name="Path 12791" d="M947.949,29.576c-.852-.931-2.448-2.334-2.448-6.926a7.059,7.059,0,0,0-5.648-6.966v-.935a1.412,1.412,0,1,0-2.824,0v.935a7.059,7.059,0,0,0-5.648,6.966c0,4.592-1.6,6-2.448,6.926a1.437,1.437,0,0,0,1.036,2.412h16.943a1.437,1.437,0,0,0,1.036-2.412M938.441,36.3a2.849,2.849,0,0,0,2.824-2.873h-5.648a2.849,2.849,0,0,0,2.824,2.873" transform="translate(-928.553 -13.312)" fill="#9e9ea3"/>
</svg>
