<svg width="701" height="1485" viewBox="0 0 701 1485" fill="none" xmlns="http://www.w3.org/2000/svg">
<g filter="url(#filter0_d_79_4165)">
<g filter="url(#filter1_d_79_4165)">
<path d="M68.0811 1168.78C68.0813 1156.08 71.8475 1143.67 78.9035 1133.11C85.9595 1122.55 95.9883 1114.32 107.722 1109.46C119.455 1104.6 132.367 1103.33 144.823 1105.8C157.279 1108.28 168.721 1114.4 177.701 1123.38C186.682 1132.36 192.797 1143.8 195.275 1156.26C197.753 1168.71 196.481 1181.62 191.621 1193.36C186.761 1205.09 178.531 1215.12 167.971 1222.18C157.411 1229.23 144.996 1233 132.296 1233C115.265 1233 98.9318 1226.23 86.8892 1214.19C74.8465 1202.15 68.0811 1185.81 68.0811 1168.78Z" fill="white"/>
</g>
<path d="M144.437 1166.25C144.439 1168.83 143.421 1171.29 141.606 1173.11C139.79 1174.93 137.326 1175.96 134.755 1175.96H134.737C133.211 1175.97 131.706 1175.61 130.344 1174.92C128.983 1174.23 127.803 1173.23 126.901 1172C125.999 1170.77 125.4 1169.34 125.153 1167.83C124.906 1166.33 125.018 1164.78 125.479 1163.33C125.941 1161.88 126.739 1160.55 127.809 1159.46C128.88 1158.37 130.192 1157.55 131.638 1157.07C133.085 1156.58 134.626 1156.45 136.136 1156.67C137.646 1156.89 139.082 1157.46 140.328 1158.35" stroke="#9E9EA3" stroke-width="3" stroke-miterlimit="10"/>
<path d="M154.823 1161.58C153.645 1163.48 153.158 1165.72 153.443 1167.94C153.785 1170.31 154.975 1172.47 156.793 1174.02C158.611 1175.58 160.933 1176.42 163.325 1176.39C165.19 1176.4 167.015 1175.85 168.563 1174.82C170.112 1173.78 171.312 1172.3 172.007 1170.57C172.637 1169.08 172.89 1167.47 172.744 1165.87C172.598 1164.26 172.057 1162.72 171.17 1161.38C170.282 1160.04 169.076 1158.93 167.659 1158.17C166.242 1157.41 164.658 1157 163.048 1157H149.838C149.129 1157 148.427 1157.14 147.772 1157.41C147.116 1157.68 146.521 1158.08 146.02 1158.58C145.518 1159.09 145.121 1159.68 144.849 1160.34C144.578 1160.99 144.438 1161.69 144.438 1162.4V1180.2C144.363 1182.72 143.31 1185.12 141.501 1186.87C139.693 1188.63 137.271 1189.61 134.749 1189.61C132.228 1189.62 129.805 1188.64 127.994 1186.88C126.183 1185.13 125.126 1182.74 125.047 1180.22" stroke="#9E9EA3" stroke-width="3" stroke-miterlimit="10"/>
<path d="M105.645 1171.17C104.438 1168.96 104.14 1166.36 104.814 1163.93C105.487 1161.51 107.079 1159.43 109.253 1158.16C111.427 1156.88 114.012 1156.51 116.461 1157.1C118.909 1157.7 121.029 1159.23 122.371 1161.36L122.377 1161.37C123.248 1162.86 123.705 1164.56 123.7 1166.29C123.695 1168.02 123.229 1169.71 122.349 1171.2C121.47 1172.69 120.209 1173.91 118.697 1174.75C117.186 1175.59 115.478 1176 113.751 1175.96H100.868C98.4713 1175.96 96.174 1175 94.4803 1173.31C92.7865 1171.61 91.8348 1169.31 91.834 1166.92V1146.48" stroke="#9E9EA3" stroke-width="3" stroke-miterlimit="10"/>
<g filter="url(#filter2_d_79_4165)">
<path d="M513.777 415.7C513.777 400.135 518.393 384.919 527.04 371.977C535.688 359.035 547.979 348.947 562.36 342.991C576.74 337.034 592.564 335.476 607.831 338.512C623.097 341.549 637.12 349.044 648.126 360.051C659.133 371.057 666.628 385.08 669.665 400.346C672.702 415.613 671.143 431.437 665.186 445.817C659.23 460.198 649.143 472.489 636.2 481.137C623.258 489.784 608.042 494.4 592.477 494.4C571.605 494.4 551.587 486.108 536.828 471.349C522.069 456.59 513.777 436.573 513.777 415.7Z" fill="white"/>
</g>
<path d="M614.476 418.133V435.656L633.299 426.238V402.376C633.299 402.37 610.713 411.548 610.713 411.548L588.124 402.371L610.718 393.771L625.19 399.117" stroke="#9E9EA3" stroke-width="2.441" stroke-linecap="round" stroke-linejoin="round"/>
<path d="M570.616 421.546V439.273C570.616 439.627 570.475 439.967 570.225 440.218C569.974 440.469 569.635 440.61 569.28 440.61H553.424C553.249 440.61 553.075 440.575 552.913 440.508C552.75 440.441 552.603 440.343 552.479 440.218C552.355 440.094 552.257 439.947 552.19 439.785C552.122 439.622 552.088 439.449 552.088 439.273V415.994C552.088 415.819 552.122 415.645 552.19 415.483C552.257 415.32 552.355 415.173 552.479 415.049C552.603 414.925 552.751 414.827 552.913 414.759C553.075 414.692 553.249 414.658 553.424 414.658H578.55C578.446 412.359 577.865 410.106 576.842 408.044C575.819 405.982 574.379 404.155 572.611 402.681C571.438 401.661 570.499 400.401 569.855 398.986C569.212 397.572 568.881 396.035 568.883 394.481V394.033C568.87 392.497 569.174 390.976 569.778 389.564C570.382 388.151 571.271 386.88 572.39 385.828C572.616 385.655 572.803 385.437 572.941 385.189C573.079 384.94 573.163 384.665 573.19 384.382C573.166 383.545 572.814 382.75 572.211 382.169C571.607 381.588 570.8 381.267 569.962 381.275H552.623C552.206 381.277 551.793 381.363 551.409 381.528C551.025 381.692 550.678 381.932 550.389 382.233C550.099 382.534 549.873 382.889 549.723 383.279C549.573 383.669 549.503 384.085 549.516 384.502C549.545 384.77 549.629 385.029 549.764 385.263C549.898 385.497 550.08 385.7 550.297 385.859C551.415 386.871 552.307 388.109 552.915 389.49C553.522 390.871 553.83 392.364 553.82 393.873V394.484C553.823 396.038 553.492 397.575 552.849 398.99C552.205 400.405 551.265 401.665 550.091 402.684C548.222 404.299 546.722 406.297 545.696 408.544C544.669 410.791 544.139 413.233 544.142 415.703V441.528C544.145 443.808 545.052 445.994 546.664 447.606C548.276 449.218 550.462 450.125 552.742 450.128H569.959C572.242 450.128 574.431 449.221 576.045 447.607C577.659 445.993 578.566 443.804 578.566 441.521L578.939 430.041L608.186 444.7C608.968 445.095 609.832 445.3 610.708 445.3C611.584 445.3 612.448 445.095 613.23 444.7L637.702 432.46C638.64 431.993 639.43 431.273 639.981 430.382C640.533 429.491 640.825 428.463 640.824 427.415V400.935C640.824 399.787 640.474 398.666 639.82 397.722C639.167 396.778 638.241 396.055 637.166 395.651L612.688 386.473C611.415 385.982 610.005 385.978 608.728 386.46L581.028 396.947" stroke="#9E9EA3" stroke-width="2.441" stroke-linejoin="round"/>
<g filter="url(#filter3_d_79_4165)">
<path d="M196.101 940.213C196.101 928.106 199.691 916.271 206.417 906.205C213.143 896.138 222.704 888.293 233.889 883.66C245.074 879.027 257.382 877.814 269.256 880.176C281.13 882.538 292.037 888.368 300.598 896.929C309.159 905.49 314.989 916.397 317.351 928.271C319.713 940.145 318.501 952.453 313.868 963.638C309.234 974.823 301.389 984.384 291.322 991.11C281.256 997.836 269.421 1001.43 257.314 1001.43C241.079 1001.43 225.51 994.977 214.03 983.497C202.55 972.017 196.101 956.448 196.101 940.213Z" fill="white"/>
</g>
<path d="M274.425 942.104V955.733L289.065 948.408V929.849L271.499 936.982L253.926 929.844L271.499 923.152L282.755 927.312" stroke="#9E9EA3" stroke-width="2.441" stroke-linecap="round" stroke-linejoin="round"/>
<path d="M240.308 944.758V958.545C240.309 958.682 240.283 958.818 240.231 958.945C240.179 959.071 240.102 959.187 240.006 959.284C239.909 959.381 239.794 959.458 239.668 959.51C239.542 959.563 239.406 959.59 239.269 959.59H226.937C226.8 959.59 226.665 959.563 226.539 959.511C226.413 959.459 226.298 959.382 226.202 959.285C226.105 959.189 226.029 959.074 225.977 958.948C225.925 958.822 225.898 958.687 225.898 958.55V940.44C225.898 940.304 225.925 940.168 225.977 940.042C226.029 939.916 226.106 939.802 226.202 939.705C226.299 939.609 226.413 939.532 226.539 939.48C226.665 939.428 226.801 939.401 226.937 939.401H246.48C246.398 937.613 245.946 935.862 245.15 934.259C244.355 932.656 243.234 931.236 241.86 930.09C240.948 929.297 240.217 928.318 239.717 927.218C239.217 926.118 238.958 924.923 238.96 923.715V923.366C238.949 922.171 239.185 920.987 239.655 919.888C240.124 918.788 240.816 917.798 241.687 916.98C241.862 916.845 242.008 916.676 242.114 916.482C242.221 916.289 242.287 916.075 242.307 915.855C242.288 915.204 242.014 914.586 241.545 914.135C241.076 913.683 240.448 913.433 239.797 913.439H226.319C225.994 913.441 225.673 913.508 225.375 913.636C225.076 913.764 224.806 913.95 224.581 914.184C224.356 914.418 224.18 914.695 224.064 914.998C223.947 915.301 223.892 915.624 223.903 915.949C223.925 916.158 223.991 916.359 224.095 916.541C224.2 916.723 224.341 916.881 224.51 917.005C225.38 917.793 226.074 918.755 226.546 919.829C227.018 920.903 227.258 922.065 227.25 923.238V923.713C227.252 924.922 226.995 926.117 226.494 927.217C225.994 928.317 225.263 929.297 224.35 930.089C222.895 931.344 221.729 932.898 220.929 934.646C220.13 936.393 219.717 938.292 219.719 940.213V960.297C219.721 962.071 220.426 963.772 221.68 965.027C222.934 966.281 224.635 966.987 226.409 966.99H239.798C241.573 966.989 243.275 966.283 244.531 965.028C245.786 963.772 246.492 962.07 246.493 960.295L246.783 951.366L269.529 962.77C270.137 963.077 270.809 963.237 271.49 963.237C272.172 963.237 272.844 963.077 273.452 962.77L292.486 953.251C293.216 952.888 293.83 952.328 294.258 951.635C294.687 950.941 294.914 950.142 294.914 949.327V928.727C294.914 927.834 294.642 926.962 294.133 926.228C293.625 925.493 292.905 924.932 292.069 924.617L273.031 917.479C272.04 917.097 270.944 917.094 269.951 917.469L248.405 925.626" stroke="#9E9EA3" stroke-width="2.441" stroke-linejoin="round"/>
<g filter="url(#filter4_d_79_4165)">
<path d="M41.2939 656.991C41.2941 637.63 47.0357 618.703 57.7925 602.605C68.5493 586.506 83.8382 573.959 101.726 566.55C119.614 559.14 139.297 557.202 158.286 560.979C177.276 564.757 194.719 574.08 208.409 587.771C222.1 601.461 231.424 618.904 235.201 637.894C238.978 656.883 237.04 676.566 229.63 694.454C222.221 712.342 209.674 727.631 193.576 738.388C177.477 749.144 158.55 754.886 139.189 754.886C113.226 754.886 88.3256 744.572 69.9667 726.213C51.6079 707.855 41.2939 682.955 41.2939 656.991Z" fill="white"/>
</g>
<path d="M117.691 618.848H167.929C168.251 618.819 168.576 618.857 168.883 618.961C169.189 619.064 169.471 619.23 169.71 619.448C169.949 619.667 170.14 619.932 170.27 620.228C170.401 620.524 170.468 620.844 170.468 621.168C170.468 621.491 170.401 621.811 170.27 622.108C170.14 622.404 169.949 622.669 169.71 622.887C169.471 623.106 169.189 623.272 168.883 623.375C168.576 623.478 168.251 623.517 167.929 623.487H117.691C117.369 623.517 117.044 623.478 116.737 623.375C116.431 623.272 116.149 623.106 115.91 622.887C115.671 622.669 115.48 622.404 115.35 622.108C115.219 621.811 115.152 621.491 115.152 621.168C115.152 620.844 115.219 620.524 115.35 620.228C115.48 619.932 115.671 619.667 115.91 619.448C116.149 619.23 116.431 619.064 116.737 618.961C117.044 618.857 117.369 618.819 117.691 618.848Z" fill="#9E9EA3"/>
<path d="M185.326 621.286V613.906C185.326 612.9 185.128 611.903 184.743 610.973C184.357 610.043 183.793 609.198 183.081 608.487C182.369 607.775 181.524 607.21 180.594 606.825C179.664 606.44 178.668 606.242 177.661 606.242H100.715C98.6823 606.242 96.7329 607.05 95.2954 608.487C93.858 609.924 93.0503 611.873 93.05 613.906V700.079C93.0506 702.112 93.8583 704.061 95.2957 705.498C96.7331 706.935 98.6824 707.743 100.715 707.743H177.66C179.693 707.743 181.642 706.936 183.08 705.499C184.517 704.061 185.325 702.112 185.325 700.079V634.022H108.467C108.035 633.986 107.607 634.121 107.273 634.398C106.94 634.674 106.729 635.071 106.685 635.502V687.114C106.729 687.545 106.94 687.942 107.274 688.218C107.607 688.495 108.035 688.629 108.467 688.593H169.338C169.77 688.629 170.198 688.495 170.532 688.218C170.865 687.942 171.076 687.545 171.12 687.114V644.252" stroke="#9E9EA3" stroke-width="2.705" stroke-linejoin="round"/>
<path d="M101.735 614.276C101.735 613.866 101.857 613.466 102.086 613.126C102.314 612.785 102.637 612.52 103.016 612.364C103.395 612.208 103.811 612.167 104.213 612.247C104.615 612.327 104.984 612.525 105.273 612.815C105.563 613.105 105.76 613.474 105.839 613.876C105.919 614.278 105.878 614.694 105.721 615.073C105.564 615.451 105.298 615.775 104.958 616.002C104.617 616.23 104.217 616.351 103.807 616.351C103.534 616.351 103.265 616.298 103.013 616.193C102.761 616.089 102.533 615.936 102.34 615.743C102.148 615.551 101.995 615.322 101.891 615.07C101.788 614.818 101.734 614.548 101.735 614.276Z" fill="#9E9EA3"/>
<path d="M106.963 614.276C106.963 613.866 107.086 613.466 107.314 613.126C107.542 612.785 107.865 612.52 108.244 612.364C108.623 612.208 109.039 612.167 109.441 612.247C109.843 612.327 110.212 612.525 110.501 612.815C110.791 613.105 110.988 613.474 111.067 613.876C111.147 614.278 111.106 614.694 110.949 615.073C110.792 615.451 110.526 615.775 110.186 616.002C109.845 616.23 109.445 616.351 109.035 616.351C108.763 616.351 108.493 616.298 108.241 616.193C107.989 616.089 107.761 615.936 107.568 615.743C107.376 615.551 107.223 615.322 107.119 615.07C107.016 614.818 106.962 614.548 106.963 614.276Z" fill="#9E9EA3"/>
<path d="M112.187 614.276C112.188 613.866 112.31 613.466 112.537 613.126C112.765 612.786 113.089 612.521 113.467 612.364C113.846 612.208 114.262 612.167 114.664 612.247C115.066 612.327 115.435 612.524 115.724 612.814C116.014 613.103 116.211 613.472 116.291 613.874C116.371 614.276 116.33 614.692 116.174 615.071C116.017 615.449 115.752 615.773 115.412 616.001C115.072 616.228 114.672 616.35 114.262 616.351C113.989 616.352 113.719 616.298 113.467 616.194C113.215 616.09 112.986 615.937 112.794 615.744C112.601 615.552 112.448 615.323 112.344 615.071C112.24 614.819 112.186 614.549 112.187 614.276Z" fill="#9E9EA3"/>
<g filter="url(#filter5_d_79_4165)">
<path d="M370.641 1147.97C370.641 1131.15 375.628 1114.71 384.972 1100.73C394.315 1086.75 407.594 1075.85 423.131 1069.41C438.668 1062.98 455.765 1061.29 472.259 1064.57C488.753 1067.85 503.903 1075.95 515.795 1087.84C527.686 1099.74 535.784 1114.89 539.065 1131.38C542.346 1147.87 540.662 1164.97 534.227 1180.51C527.791 1196.04 516.893 1209.32 502.91 1218.67C488.928 1228.01 472.488 1233 455.671 1233C433.12 1233 411.492 1224.04 395.546 1208.09C379.6 1192.15 370.641 1170.52 370.641 1147.97Z" fill="white"/>
</g>
<path d="M446.296 1138.33L464.758 1120.7M446.513 1128.83L427.873 1112.39C426.607 1111.5 425.064 1111.07 423.517 1111.2C421.97 1111.33 420.517 1111.99 419.413 1113.09C418.31 1114.18 417.627 1115.62 417.484 1117.17C417.342 1118.72 417.748 1120.26 418.633 1121.54L438.39 1144.85C438.39 1144.85 438.569 1145.07 438.865 1145.42C435.3 1148.82 425.665 1157.98 425.665 1157.98C424.076 1159.5 422.89 1161.4 422.216 1163.49C422.216 1163.49 416.416 1183.96 417.322 1184.78C418.222 1185.86 438.946 1181.04 438.946 1181.04C441.072 1180.47 443.021 1179.38 444.61 1177.86L457.446 1165.62C457.446 1165.79 457.446 1165.97 457.453 1166.12C457.681 1173.88 463.207 1178.26 471.994 1179.74C480.781 1181.22 492.394 1179.41 493.326 1176.91C494.079 1174.9 491.838 1173.83 489.249 1172C488.178 1171.23 487.301 1170.23 486.686 1169.06C486.072 1167.9 485.737 1166.61 485.709 1165.29C485.576 1161.72 484.1 1158.34 481.577 1155.81C479.053 1153.29 475.668 1151.81 472.101 1151.68L480.288 1143.88L491.142 1133.53C492.053 1132.66 492.783 1131.63 493.293 1130.48C493.802 1129.33 494.08 1128.09 494.11 1126.83C494.14 1125.58 493.923 1124.33 493.47 1123.16C493.017 1121.98 492.337 1120.91 491.469 1120L485.731 1113.97C484.864 1113.06 483.826 1112.33 482.677 1111.82C481.528 1111.31 480.289 1111.03 479.032 1111C477.776 1110.97 476.525 1111.19 475.353 1111.64C474.18 1112.1 473.108 1112.78 472.198 1113.64L464.798 1120.7L477.435 1133.96" stroke="#9E9EA3" stroke-width="3" stroke-linejoin="round"/>
<g filter="url(#filter6_d_79_4165)">
<path d="M328 644.111C328 631.827 331.643 619.818 338.468 609.604C345.293 599.39 354.994 591.429 366.343 586.728C377.693 582.027 390.181 580.797 402.23 583.194C414.278 585.59 425.345 591.506 434.032 600.192C442.718 608.879 448.634 619.946 451.03 631.994C453.427 644.043 452.197 656.531 447.496 667.881C442.795 679.23 434.834 688.931 424.62 695.756C414.406 702.581 402.398 706.224 390.113 706.224C373.64 706.224 357.841 699.68 346.192 688.032C334.544 676.383 328 660.584 328 644.111Z" fill="white"/>
</g>
<path d="M383.163 637.169L396.648 624.288M383.32 630.227L369.705 618.227C368.779 617.575 367.654 617.27 366.526 617.364C365.398 617.458 364.338 617.946 363.534 618.743C362.729 619.539 362.23 620.593 362.124 621.72C362.019 622.847 362.313 623.976 362.955 624.908L377.387 641.931C377.387 641.931 377.518 642.093 377.734 642.347C375.134 644.828 368.095 651.524 368.095 651.524C366.934 652.634 366.067 654.017 365.575 655.546C365.575 655.546 361.337 670.502 362 671.095C362.655 671.889 377.8 668.367 377.8 668.367C379.351 667.952 380.773 667.152 381.933 666.042L391.31 657.105C391.31 657.227 391.31 657.358 391.315 657.469C391.481 663.135 395.515 666.335 401.937 667.418C408.359 668.501 416.837 667.175 417.519 665.351C418.069 663.884 416.432 663.1 414.541 661.764C413.759 661.204 413.119 660.469 412.67 659.619C412.221 658.768 411.976 657.825 411.955 656.864C411.858 654.258 410.779 651.785 408.935 649.941C407.091 648.097 404.618 647.018 402.012 646.921L407.992 641.226L415.921 633.667C416.586 633.035 417.12 632.277 417.492 631.438C417.864 630.599 418.067 629.695 418.089 628.778C418.111 627.86 417.952 626.947 417.621 626.091C417.29 625.235 416.794 624.453 416.16 623.789L411.968 619.382C411.335 618.717 410.576 618.183 409.737 617.811C408.897 617.439 407.992 617.236 407.074 617.214C406.156 617.192 405.243 617.351 404.386 617.682C403.53 618.013 402.747 618.509 402.082 619.143L396.673 624.294L405.904 633.98" stroke="#9E9EA3" stroke-width="3" stroke-linejoin="round"/>
<g filter="url(#filter7_d_79_4165)">
<path d="M228.499 344.845C228.499 327.471 233.651 310.487 243.304 296.041C252.956 281.595 266.676 270.336 282.727 263.687C298.779 257.038 316.441 255.298 333.482 258.688C350.522 262.077 366.174 270.444 378.46 282.729C390.745 295.015 399.112 310.667 402.501 327.707C405.891 344.748 404.151 362.41 397.502 378.462C390.853 394.513 379.594 408.233 365.148 417.885C350.702 427.538 333.718 432.69 316.344 432.69C293.046 432.69 270.702 423.435 254.228 406.961C237.754 390.487 228.499 368.143 228.499 344.845Z" fill="white"/>
</g>
<path d="M319.861 333.538H298.036V357.277H319.861V333.538Z" stroke="#9E9EA3" stroke-width="2.654" stroke-linecap="round" stroke-linejoin="round"/>
<path d="M327.634 337.083L330.309 332.045L335.661 342.121H324.961L327.634 337.083Z" stroke="#9E9EA3" stroke-width="2.654" stroke-linecap="round" stroke-linejoin="round"/>
<path d="M330.313 357.043C329.432 357.035 328.573 356.767 327.844 356.273C327.116 355.778 326.55 355.078 326.218 354.262C325.886 353.446 325.803 352.55 325.979 351.687C326.156 350.824 326.584 350.033 327.21 349.412C327.835 348.792 328.63 348.371 329.495 348.202C330.359 348.033 331.255 348.124 332.068 348.463C332.881 348.802 333.575 349.374 334.064 350.107C334.552 350.84 334.813 351.701 334.813 352.582C334.807 353.77 334.33 354.908 333.486 355.744C332.643 356.581 331.501 357.048 330.313 357.043Z" stroke="#9E9EA3" stroke-width="2.654" stroke-linecap="round" stroke-linejoin="round"/>
<path d="M336.272 301.246C332.834 306.004 325.225 309.322 316.345 309.322C307.465 309.322 299.857 306.004 296.419 301.246L263.114 317.761C262.465 318.087 261.971 318.657 261.739 319.345C261.508 320.034 261.559 320.786 261.88 321.438L271.664 341.021C271.99 341.67 272.56 342.164 273.249 342.395C273.937 342.626 274.689 342.576 275.341 342.255L285.025 337.516C285.443 337.314 285.905 337.222 286.369 337.247C286.832 337.273 287.281 337.415 287.675 337.662C288.068 337.908 288.393 338.25 288.618 338.656C288.843 339.062 288.962 339.518 288.963 339.982V383.363C288.962 384.081 289.102 384.793 289.376 385.457C289.65 386.121 290.053 386.724 290.56 387.232C291.068 387.74 291.67 388.144 292.334 388.419C292.997 388.694 293.709 388.835 294.427 388.835H338.225C339.675 388.835 341.067 388.26 342.094 387.236C343.121 386.211 343.7 384.822 343.704 383.371V339.959C343.704 339.234 343.992 338.538 344.505 338.025C345.018 337.513 345.714 337.224 346.439 337.224C346.855 337.225 347.265 337.32 347.639 337.501L357.318 342.239C357.965 342.565 358.715 342.62 359.404 342.393C360.092 342.166 360.662 341.675 360.988 341.028L360.996 341.006L370.803 321.437C371.13 320.79 371.187 320.04 370.962 319.351C370.737 318.662 370.248 318.09 369.603 317.76H369.589L345.189 305.66L344.189 306.877C339.37 313.524 328.725 318.165 316.313 318.165C307.438 318.165 299.48 315.798 293.904 312.024" stroke="#9E9EA3" stroke-width="2.654" stroke-miterlimit="10"/>
<g filter="url(#filter8_d_79_4165)">
<path d="M483.295 841.708C483.295 829.402 486.944 817.372 493.781 807.139C500.618 796.907 510.336 788.932 521.706 784.222C533.075 779.513 545.586 778.281 557.656 780.681C569.726 783.082 580.813 789.008 589.515 797.71C598.216 806.412 604.142 817.499 606.543 829.569C608.944 841.639 607.712 854.15 603.003 865.519C598.293 876.889 590.318 886.607 580.086 893.444C569.853 900.281 557.823 903.93 545.517 903.93C529.015 903.93 513.188 897.374 501.519 885.705C489.85 874.037 483.295 858.21 483.295 841.708Z" fill="white"/>
</g>
<path d="M548.008 833.699H532.549V850.514H548.008V833.699Z" stroke="#9E9EA3" stroke-width="2.654" stroke-linecap="round" stroke-linejoin="round"/>
<path d="M553.514 836.209L555.404 832.64L559.204 839.78H551.619L553.514 836.209Z" stroke="#9E9EA3" stroke-width="2.654" stroke-linecap="round" stroke-linejoin="round"/>
<path d="M555.409 850.348C554.785 850.343 554.177 850.153 553.661 849.802C553.145 849.452 552.744 848.956 552.509 848.378C552.275 847.8 552.216 847.166 552.341 846.555C552.466 845.944 552.769 845.383 553.212 844.944C553.655 844.505 554.218 844.207 554.831 844.087C555.443 843.967 556.077 844.032 556.653 844.272C557.228 844.511 557.72 844.916 558.066 845.436C558.412 845.955 558.597 846.564 558.597 847.188C558.595 847.605 558.511 848.017 558.35 848.402C558.189 848.786 557.953 849.135 557.657 849.428C557.361 849.722 557.01 849.954 556.625 850.112C556.239 850.27 555.826 850.35 555.409 850.348Z" stroke="#9E9EA3" stroke-width="2.654" stroke-linecap="round" stroke-linejoin="round"/>
<path d="M559.633 810.826C557.198 814.193 551.808 816.543 545.518 816.543C539.228 816.543 533.839 814.197 531.404 810.826L507.813 822.526C507.354 822.757 507.005 823.16 506.841 823.647C506.678 824.133 506.713 824.665 506.939 825.126L513.867 839C514.098 839.459 514.501 839.808 514.987 839.971C515.474 840.135 516.006 840.1 516.467 839.874L523.324 836.518C523.62 836.375 523.947 836.309 524.276 836.327C524.604 836.345 524.923 836.446 525.202 836.621C525.48 836.795 525.71 837.038 525.87 837.325C526.029 837.613 526.113 837.936 526.114 838.265V868.992C526.113 869.501 526.213 870.005 526.407 870.475C526.601 870.945 526.886 871.373 527.245 871.733C527.605 872.093 528.032 872.378 528.501 872.573C528.971 872.768 529.475 872.868 529.984 872.868H561.014C562.041 872.868 563.027 872.461 563.754 871.735C564.482 871.01 564.892 870.026 564.895 868.998V838.248C564.895 837.735 565.099 837.242 565.462 836.879C565.826 836.516 566.318 836.311 566.832 836.311C567.126 836.314 567.415 836.382 567.679 836.511L574.535 839.867C574.993 840.098 575.525 840.138 576.013 839.977C576.5 839.816 576.904 839.468 577.135 839.009L577.14 838.994L584.087 825.126C584.317 824.668 584.356 824.137 584.196 823.65C584.036 823.163 583.69 822.759 583.234 822.526H583.224L565.942 813.953L565.232 814.815C561.826 819.524 554.29 822.815 545.495 822.815C539.893 822.945 534.376 821.433 529.623 818.465" stroke="#9E9EA3" stroke-width="2.654" stroke-miterlimit="10"/>
<path d="M101.5 470.5C137.951 470.5 167.5 440.951 167.5 404.5C167.5 368.049 137.951 338.5 101.5 338.5C65.0492 338.5 35.5 368.049 35.5 404.5C35.5 440.951 65.0492 470.5 101.5 470.5Z" stroke="#9E9EA3" stroke-width="3"/>
<path d="M60 989.5C90.0995 989.5 114.5 965.1 114.5 935C114.5 904.9 90.0995 880.5 60 880.5C29.9005 880.5 5.5 904.9 5.5 935C5.5 965.1 29.9005 989.5 60 989.5Z" stroke="#9E9EA3" stroke-width="3"/>
<path d="M419 999.5C444.681 999.5 465.5 978.681 465.5 953C465.5 927.319 444.681 906.5 419 906.5C393.319 906.5 372.5 927.319 372.5 953C372.5 978.681 393.319 999.5 419 999.5Z" stroke="#9E9EA3" stroke-width="3"/>
<path d="M342 1475.5C367.681 1475.5 388.5 1454.68 388.5 1429C388.5 1403.32 367.681 1382.5 342 1382.5C316.319 1382.5 295.5 1403.32 295.5 1429C295.5 1454.68 316.319 1475.5 342 1475.5Z" stroke="#9E9EA3" stroke-width="3"/>
<path d="M560 673.5C584.577 673.5 604.5 653.577 604.5 629C604.5 604.423 584.577 584.5 560 584.5C535.423 584.5 515.5 604.423 515.5 629C515.5 653.577 535.423 673.5 560 673.5Z" stroke="#9E9EA3" stroke-width="3"/>
<g filter="url(#filter9_d_79_4165)">
<path d="M404.221 107.251C404.221 87.1251 410.189 67.4516 421.371 50.7179C432.552 33.9842 448.444 20.9419 467.038 13.2403C485.631 5.53865 506.091 3.52361 525.83 7.44996C545.569 11.3763 563.7 21.0677 577.931 35.2986C592.162 49.5295 601.853 67.6608 605.78 87.3996C609.706 107.138 607.691 127.598 599.989 146.192C592.288 164.786 579.245 180.678 562.512 191.859C545.778 203.04 526.104 209.008 505.979 209.009C478.991 209.009 453.109 198.288 434.025 179.204C414.942 160.121 404.221 134.239 404.221 107.251Z" fill="white"/>
</g>
<path d="M525.217 103.234C525.222 107.309 523.609 111.218 520.732 114.104C517.855 116.989 513.949 118.613 509.875 118.619H509.854C507.438 118.619 505.057 118.049 502.903 116.956C500.749 115.862 498.883 114.277 497.457 112.327C496.031 110.378 495.084 108.12 494.694 105.736C494.304 103.352 494.482 100.91 495.212 98.6077C495.943 96.3054 497.206 94.2078 498.9 92.4851C500.593 90.7625 502.668 89.4633 504.958 88.6931C507.247 87.9229 509.686 87.7033 512.076 88.0522C514.466 88.4011 516.74 89.3086 518.714 90.7011" stroke="#9E9EA3" stroke-width="3" stroke-miterlimit="10"/>
<path d="M541.68 95.8371C539.813 98.8421 539.041 102.399 539.494 105.908C540.034 109.661 541.921 113.09 544.802 115.555C547.683 118.02 551.362 119.354 555.153 119.308C558.108 119.327 561 118.457 563.454 116.81C565.907 115.164 567.809 112.817 568.911 110.075C569.909 107.727 570.31 105.169 570.078 102.628C569.846 100.087 568.989 97.6437 567.582 95.5151C566.176 93.3866 564.265 91.6393 562.019 90.4293C559.773 89.2194 557.262 88.5844 554.711 88.5811H533.78C531.509 88.5811 529.332 89.483 527.726 91.0885C526.121 92.694 525.219 94.8715 525.219 97.1421L525.21 125.342C525.212 129.417 523.594 133.326 520.714 136.209C517.834 139.091 513.926 140.711 509.851 140.713C505.776 140.715 501.867 139.097 498.985 136.217C496.102 133.337 494.482 129.429 494.48 125.354" stroke="#9E9EA3" stroke-width="3" stroke-miterlimit="10"/>
<path d="M463.744 111.03C461.683 107.515 461.102 103.325 462.13 99.3817C463.158 95.4386 465.711 92.0654 469.226 90.0041C472.741 87.9428 476.931 87.3624 480.874 88.3905C484.817 89.4185 488.191 91.9709 490.252 95.4861L490.262 95.5051C491.643 97.8694 492.368 100.56 492.361 103.298C492.354 106.037 491.615 108.724 490.221 111.081C488.827 113.438 486.829 115.38 484.433 116.705C482.036 118.031 479.329 118.692 476.592 118.62L456.177 118.625C452.379 118.62 448.738 117.107 446.054 114.42C443.37 111.733 441.862 108.09 441.861 104.292V71.8921" stroke="#9E9EA3" stroke-width="3" stroke-miterlimit="10"/>
<g filter="url(#filter10_d_79_4165)">
<path d="M76.886 140.6C76.886 128.812 80.3815 117.289 86.9304 107.488C93.4793 97.6869 102.788 90.0478 113.678 85.5368C124.569 81.0258 136.552 79.8455 148.113 82.1452C159.675 84.4449 170.294 90.1213 178.63 98.4565C186.965 106.792 192.641 117.411 194.941 128.973C197.24 140.534 196.06 152.517 191.549 163.408C187.038 174.298 179.399 183.607 169.598 190.156C159.797 196.705 148.274 200.2 136.486 200.2C120.679 200.2 105.52 193.921 94.3424 182.744C83.1653 171.566 76.886 156.407 76.886 140.6Z" fill="white"/>
</g>
<path d="M123.397 117.376H153.982C154.178 117.358 154.376 117.381 154.563 117.444C154.75 117.506 154.922 117.608 155.068 117.74C155.213 117.873 155.33 118.035 155.409 118.215C155.489 118.396 155.53 118.591 155.53 118.788C155.53 118.985 155.489 119.18 155.409 119.361C155.33 119.541 155.213 119.703 155.068 119.836C154.922 119.969 154.75 120.07 154.563 120.132C154.376 120.195 154.178 120.218 153.982 120.2H123.397C123.201 120.218 123.003 120.195 122.816 120.132C122.629 120.07 122.457 119.969 122.311 119.836C122.165 119.703 122.049 119.541 121.969 119.361C121.89 119.18 121.849 118.985 121.849 118.788C121.849 118.591 121.89 118.396 121.969 118.215C122.049 118.035 122.165 117.873 122.311 117.74C122.457 117.608 122.629 117.506 122.816 117.444C123.003 117.381 123.201 117.358 123.397 117.376Z" fill="#9E9EA3"/>
<path d="M164.577 118.861V114.368C164.577 113.755 164.456 113.148 164.222 112.582C163.987 112.016 163.643 111.502 163.21 111.068C162.777 110.635 162.262 110.291 161.696 110.057C161.13 109.823 160.523 109.702 159.91 109.702H113.062C111.824 109.702 110.638 110.194 109.762 111.069C108.887 111.944 108.395 113.131 108.395 114.368V166.83C108.395 168.068 108.887 169.255 109.762 170.13C110.638 171.005 111.824 171.496 113.062 171.496H159.906C160.519 171.497 161.126 171.376 161.693 171.142C162.26 170.908 162.775 170.564 163.208 170.131C163.642 169.698 163.986 169.183 164.221 168.617C164.456 168.05 164.577 167.443 164.577 166.83V126.615H117.777C117.514 126.593 117.253 126.675 117.051 126.843C116.848 127.012 116.719 127.253 116.692 127.515V158.938C116.717 159.201 116.846 159.443 117.049 159.612C117.252 159.78 117.514 159.862 117.777 159.838H154.839C155.102 159.862 155.364 159.78 155.567 159.612C155.77 159.443 155.899 159.201 155.924 158.938V132.843" stroke="#9E9EA3" stroke-width="2.705" stroke-linejoin="round"/>
<path d="M113.682 114.594C113.682 114.345 113.757 114.101 113.896 113.894C114.035 113.687 114.232 113.526 114.462 113.431C114.693 113.336 114.946 113.312 115.191 113.361C115.435 113.41 115.66 113.53 115.836 113.706C116.012 113.883 116.131 114.108 116.18 114.352C116.228 114.597 116.203 114.85 116.108 115.08C116.012 115.31 115.85 115.507 115.643 115.646C115.436 115.784 115.192 115.858 114.943 115.858C114.777 115.858 114.613 115.825 114.46 115.762C114.306 115.698 114.167 115.605 114.05 115.488C113.933 115.37 113.84 115.231 113.777 115.077C113.714 114.924 113.681 114.76 113.682 114.594Z" fill="#9E9EA3"/>
<path d="M116.865 114.594C116.866 114.345 116.94 114.101 117.079 113.894C117.218 113.687 117.415 113.526 117.646 113.431C117.876 113.336 118.129 113.312 118.374 113.361C118.618 113.41 118.843 113.53 119.019 113.706C119.195 113.883 119.315 114.108 119.363 114.352C119.411 114.597 119.386 114.85 119.291 115.08C119.195 115.31 119.034 115.507 118.826 115.646C118.619 115.784 118.375 115.858 118.126 115.858C117.96 115.858 117.796 115.825 117.643 115.762C117.49 115.698 117.35 115.605 117.233 115.488C117.116 115.37 117.023 115.231 116.96 115.077C116.897 114.924 116.865 114.76 116.865 114.594Z" fill="#9E9EA3"/>
<path d="M120.046 114.594C120.046 114.345 120.121 114.101 120.26 113.894C120.398 113.688 120.595 113.526 120.826 113.431C121.056 113.336 121.309 113.312 121.554 113.36C121.798 113.409 122.022 113.529 122.199 113.705C122.375 113.881 122.495 114.106 122.544 114.35C122.592 114.595 122.568 114.848 122.472 115.078C122.377 115.308 122.216 115.505 122.009 115.644C121.802 115.783 121.559 115.857 121.31 115.858C121.144 115.858 120.979 115.826 120.826 115.763C120.672 115.699 120.533 115.606 120.415 115.489C120.298 115.371 120.205 115.232 120.141 115.078C120.078 114.925 120.046 114.76 120.046 114.594Z" fill="#9E9EA3"/>
</g>
<defs>
<filter id="filter0_d_79_4165" x="0" y="5.49463" width="675.177" height="1479.51" filterUnits="userSpaceOnUse" color-interpolation-filters="sRGB">
<feFlood flood-opacity="0" result="BackgroundImageFix"/>
<feColorMatrix in="SourceAlpha" type="matrix" values="0 0 0 0 0 0 0 0 0 0 0 0 0 0 0 0 0 0 127 0" result="hardAlpha"/>
<feOffset dy="4"/>
<feGaussianBlur stdDeviation="2"/>
<feComposite in2="hardAlpha" operator="out"/>
<feColorMatrix type="matrix" values="0 0 0 0 0 0 0 0 0 0 0 0 0 0 0 0 0 0 0.25 0"/>
<feBlend mode="normal" in2="BackgroundImageFix" result="effect1_dropShadow_79_4165"/>
<feBlend mode="normal" in="SourceGraphic" in2="effect1_dropShadow_79_4165" result="shape"/>
</filter>
<filter id="filter1_d_79_4165" x="63.0811" y="1099.57" width="162.428" height="162.428" filterUnits="userSpaceOnUse" color-interpolation-filters="sRGB">
<feFlood flood-opacity="0" result="BackgroundImageFix"/>
<feColorMatrix in="SourceAlpha" type="matrix" values="0 0 0 0 0 0 0 0 0 0 0 0 0 0 0 0 0 0 127 0" result="hardAlpha"/>
<feOffset dx="12" dy="12"/>
<feGaussianBlur stdDeviation="8.5"/>
<feColorMatrix type="matrix" values="0 0 0 0 1 0 0 0 0 0.372549 0 0 0 0 0.419608 0 0 0 0.169 0"/>
<feBlend mode="normal" in2="BackgroundImageFix" result="effect1_dropShadow_79_4165"/>
<feBlend mode="normal" in="SourceGraphic" in2="effect1_dropShadow_79_4165" result="shape"/>
</filter>
<filter id="filter2_d_79_4165" x="508.777" y="332" width="191.4" height="191.4" filterUnits="userSpaceOnUse" color-interpolation-filters="sRGB">
<feFlood flood-opacity="0" result="BackgroundImageFix"/>
<feColorMatrix in="SourceAlpha" type="matrix" values="0 0 0 0 0 0 0 0 0 0 0 0 0 0 0 0 0 0 127 0" result="hardAlpha"/>
<feOffset dx="12" dy="12"/>
<feGaussianBlur stdDeviation="8.5"/>
<feColorMatrix type="matrix" values="0 0 0 0 0.278431 0 0 0 0 0.278431 0 0 0 0 0.780392 0 0 0 0.149 0"/>
<feBlend mode="normal" in2="BackgroundImageFix" result="effect1_dropShadow_79_4165"/>
<feBlend mode="normal" in="SourceGraphic" in2="effect1_dropShadow_79_4165" result="shape"/>
</filter>
<filter id="filter3_d_79_4165" x="191.101" y="874" width="156.426" height="156.426" filterUnits="userSpaceOnUse" color-interpolation-filters="sRGB">
<feFlood flood-opacity="0" result="BackgroundImageFix"/>
<feColorMatrix in="SourceAlpha" type="matrix" values="0 0 0 0 0 0 0 0 0 0 0 0 0 0 0 0 0 0 127 0" result="hardAlpha"/>
<feOffset dx="12" dy="12"/>
<feGaussianBlur stdDeviation="8.5"/>
<feColorMatrix type="matrix" values="0 0 0 0 0.278431 0 0 0 0 0.278431 0 0 0 0 0.780392 0 0 0 0.149 0"/>
<feBlend mode="normal" in2="BackgroundImageFix" result="effect1_dropShadow_79_4165"/>
<feBlend mode="normal" in="SourceGraphic" in2="effect1_dropShadow_79_4165" result="shape"/>
</filter>
<filter id="filter4_d_79_4165" x="36.2939" y="554.098" width="229.788" height="229.788" filterUnits="userSpaceOnUse" color-interpolation-filters="sRGB">
<feFlood flood-opacity="0" result="BackgroundImageFix"/>
<feColorMatrix in="SourceAlpha" type="matrix" values="0 0 0 0 0 0 0 0 0 0 0 0 0 0 0 0 0 0 127 0" result="hardAlpha"/>
<feOffset dx="12" dy="12"/>
<feGaussianBlur stdDeviation="8.5"/>
<feColorMatrix type="matrix" values="0 0 0 0 0 0 0 0 0 0.784314 0 0 0 0 0.784314 0 0 0 0.149 0"/>
<feBlend mode="normal" in2="BackgroundImageFix" result="effect1_dropShadow_79_4165"/>
<feBlend mode="normal" in="SourceGraphic" in2="effect1_dropShadow_79_4165" result="shape"/>
</filter>
<filter id="filter5_d_79_4165" x="365.641" y="1057.94" width="204.058" height="204.058" filterUnits="userSpaceOnUse" color-interpolation-filters="sRGB">
<feFlood flood-opacity="0" result="BackgroundImageFix"/>
<feColorMatrix in="SourceAlpha" type="matrix" values="0 0 0 0 0 0 0 0 0 0 0 0 0 0 0 0 0 0 127 0" result="hardAlpha"/>
<feOffset dx="12" dy="12"/>
<feGaussianBlur stdDeviation="8.5"/>
<feColorMatrix type="matrix" values="0 0 0 0 0 0 0 0 0 0 0 0 0 0 0 0 0 0 0.161 0"/>
<feBlend mode="normal" in2="BackgroundImageFix" result="effect1_dropShadow_79_4165"/>
<feBlend mode="normal" in="SourceGraphic" in2="effect1_dropShadow_79_4165" result="shape"/>
</filter>
<filter id="filter6_d_79_4165" x="323" y="577" width="158.224" height="158.224" filterUnits="userSpaceOnUse" color-interpolation-filters="sRGB">
<feFlood flood-opacity="0" result="BackgroundImageFix"/>
<feColorMatrix in="SourceAlpha" type="matrix" values="0 0 0 0 0 0 0 0 0 0 0 0 0 0 0 0 0 0 127 0" result="hardAlpha"/>
<feOffset dx="12" dy="12"/>
<feGaussianBlur stdDeviation="8.5"/>
<feColorMatrix type="matrix" values="0 0 0 0 0 0 0 0 0 0 0 0 0 0 0 0 0 0 0.161 0"/>
<feBlend mode="normal" in2="BackgroundImageFix" result="effect1_dropShadow_79_4165"/>
<feBlend mode="normal" in="SourceGraphic" in2="effect1_dropShadow_79_4165" result="shape"/>
</filter>
<filter id="filter7_d_79_4165" x="223.499" y="252" width="209.69" height="209.69" filterUnits="userSpaceOnUse" color-interpolation-filters="sRGB">
<feFlood flood-opacity="0" result="BackgroundImageFix"/>
<feColorMatrix in="SourceAlpha" type="matrix" values="0 0 0 0 0 0 0 0 0 0 0 0 0 0 0 0 0 0 127 0" result="hardAlpha"/>
<feOffset dx="12" dy="12"/>
<feGaussianBlur stdDeviation="8.5"/>
<feColorMatrix type="matrix" values="0 0 0 0 0 0 0 0 0 0 0 0 0 0 0 0 0 0 0.161 0"/>
<feBlend mode="normal" in2="BackgroundImageFix" result="effect1_dropShadow_79_4165"/>
<feBlend mode="normal" in="SourceGraphic" in2="effect1_dropShadow_79_4165" result="shape"/>
</filter>
<filter id="filter8_d_79_4165" x="478.295" y="774.486" width="158.444" height="158.444" filterUnits="userSpaceOnUse" color-interpolation-filters="sRGB">
<feFlood flood-opacity="0" result="BackgroundImageFix"/>
<feColorMatrix in="SourceAlpha" type="matrix" values="0 0 0 0 0 0 0 0 0 0 0 0 0 0 0 0 0 0 127 0" result="hardAlpha"/>
<feOffset dx="12" dy="12"/>
<feGaussianBlur stdDeviation="8.5"/>
<feColorMatrix type="matrix" values="0 0 0 0 0 0 0 0 0 0 0 0 0 0 0 0 0 0 0.161 0"/>
<feBlend mode="normal" in2="BackgroundImageFix" result="effect1_dropShadow_79_4165"/>
<feBlend mode="normal" in="SourceGraphic" in2="effect1_dropShadow_79_4165" result="shape"/>
</filter>
<filter id="filter9_d_79_4165" x="399.221" y="0.494629" width="237.514" height="237.514" filterUnits="userSpaceOnUse" color-interpolation-filters="sRGB">
<feFlood flood-opacity="0" result="BackgroundImageFix"/>
<feColorMatrix in="SourceAlpha" type="matrix" values="0 0 0 0 0 0 0 0 0 0 0 0 0 0 0 0 0 0 127 0" result="hardAlpha"/>
<feOffset dx="12" dy="12"/>
<feGaussianBlur stdDeviation="8.5"/>
<feColorMatrix type="matrix" values="0 0 0 0 1 0 0 0 0 0.372549 0 0 0 0 0.419608 0 0 0 0.271 0"/>
<feBlend mode="normal" in2="BackgroundImageFix" result="effect1_dropShadow_79_4165"/>
<feBlend mode="normal" in="SourceGraphic" in2="effect1_dropShadow_79_4165" result="shape"/>
</filter>
<filter id="filter10_d_79_4165" x="71.886" y="76" width="153.2" height="153.2" filterUnits="userSpaceOnUse" color-interpolation-filters="sRGB">
<feFlood flood-opacity="0" result="BackgroundImageFix"/>
<feColorMatrix in="SourceAlpha" type="matrix" values="0 0 0 0 0 0 0 0 0 0 0 0 0 0 0 0 0 0 127 0" result="hardAlpha"/>
<feOffset dx="12" dy="12"/>
<feGaussianBlur stdDeviation="8.5"/>
<feColorMatrix type="matrix" values="0 0 0 0 0 0 0 0 0 0.784314 0 0 0 0 0.784314 0 0 0 0.149 0"/>
<feBlend mode="normal" in2="BackgroundImageFix" result="effect1_dropShadow_79_4165"/>
<feBlend mode="normal" in="SourceGraphic" in2="effect1_dropShadow_79_4165" result="shape"/>
</filter>
</defs>
</svg>
