<svg xmlns="http://www.w3.org/2000/svg" width="77.759" height="77.759" viewBox="0 0 77.759 77.759">
  <g id="Group_1029" data-name="Group 1029" transform="translate(0.5 0.5)">
    <ellipse id="Ellipse_22" data-name="Ellipse 22" cx="38.38" cy="38.38" rx="38.38" ry="38.38" fill="#ff5f6b" stroke="#fff" stroke-width="1"/>
    <g id="Group_1028" data-name="Group 1028" transform="translate(14.197 25.047)">
      <path id="Path_377-4" data-name="Path 377-4" d="M1047.185,380.841a5.8,5.8,0,0,1-5.787,5.8h-.008a5.795,5.795,0,1,1,3.342-10.53" transform="translate(-1015.746 -369.021)" fill="none" stroke="#fff" stroke-width="1.464"/>
      <path id="Path_378-4" data-name="Path 378-4" d="M1053.393,378.059a5.786,5.786,0,0,0-.824,3.8,5.894,5.894,0,0,0,5.906,5.053h0a5.554,5.554,0,0,0,5.188-3.482,5.827,5.827,0,0,0-5.354-8.107h-7.893a3.229,3.229,0,0,0-3.229,3.229l0,10.635a5.795,5.795,0,0,1-11.589.008" transform="translate(-1015.746 -369.027)" fill="none" stroke="#fff" stroke-width="1.464"/>
      <g id="Group_1027" data-name="Group 1027">
        <path id="Path_12170" data-name="Path 12170" d="M1023.5,383.631a5.794,5.794,0,1,1,10-5.863l.005.007a5.8,5.8,0,0,1-5.156,8.718l-7.7,0a5.408,5.408,0,0,1-5.4-5.406V368.87" transform="translate(-1015.25 -368.87)" fill="none" stroke="#fff" stroke-width="1.464"/>
      </g>
    </g>
  </g>
</svg>
