<svg xmlns="http://www.w3.org/2000/svg" width="79.404" height="79.404" viewBox="0 0 79.404 79.404">
  <g id="Group_1039" data-name="Group 1039" transform="translate(0.5 0.5)">
    <ellipse id="Ellipse_24" data-name="Ellipse 24" cx="39.202" cy="39.202" rx="39.202" ry="39.202" transform="translate(0)" fill="#4747c7" stroke="#fff" stroke-width="1"/>
    <g id="Group_1038" data-name="Group 1038" transform="translate(15.122 22.053)">
      <g id="Group_1036" data-name="Group 1036" transform="translate(21.911 6.222)">
        <path id="Path_12177" data-name="Path 12177" d="M959.857,277.566V286.3l9.376-4.691V269.718l-11.25,4.568-11.253-4.571,11.253-4.287,7.209,2.664" transform="translate(-946.729 -265.429)" fill="none" stroke="#fff" stroke-linecap="round" stroke-linejoin="round" stroke-width="1.211"/>
      </g>
      <g id="Group_1037" data-name="Group 1037">
        <path id="Path_12178" data-name="Path 12178" d="M937.56,279.14v8.83a.665.665,0,0,1-.665.665H929a.665.665,0,0,1-.665-.665v-11.6a.665.665,0,0,1,.665-.665h12.516a8.254,8.254,0,0,0-2.958-5.965,5.4,5.4,0,0,1-1.857-4.083v-.223a5.544,5.544,0,0,1,1.746-4.091,1.027,1.027,0,0,0,.4-.719,1.593,1.593,0,0,0-1.607-1.547H928.6a1.557,1.557,0,0,0-1.547,1.607.967.967,0,0,0,.389.676,5.335,5.335,0,0,1,1.755,3.992v.3a5.394,5.394,0,0,1-1.857,4.083,8.557,8.557,0,0,0-2.966,6.487v12.862a4.289,4.289,0,0,0,4.287,4.287h8.575a4.288,4.288,0,0,0,4.288-4.287l.185-5.718,14.568,7.3a2.788,2.788,0,0,0,2.513,0l12.189-6.1a2.805,2.805,0,0,0,1.555-2.513V268.873a2.813,2.813,0,0,0-1.822-2.632l-12.192-4.571a2.766,2.766,0,0,0-1.973-.007l-13.8,5.223" transform="translate(-924.371 -259.08)" fill="none" stroke="#fff" stroke-linejoin="round" stroke-width="1.211"/>
      </g>
    </g>
  </g>
</svg>
