<svg xmlns="http://www.w3.org/2000/svg" width="80.436" height="80.436" viewBox="0 0 80.436 80.436">
  <g id="Group_1026" data-name="Group 1026" transform="translate(0.5 0.5)">
    <ellipse id="Ellipse_21" data-name="Ellipse 21" cx="39.718" cy="39.718" rx="39.718" ry="39.718" fill="#3d3d3f" stroke="#fff" stroke-width="1"/>
    <g id="Group_1025" data-name="Group 1025" transform="translate(21.762 22.451)">
      <path id="Path_12169" data-name="Path 12169" d="M805.752,504.787l8.623-8.237m-8.523,3.8-8.706-7.677a3.084,3.084,0,0,0-4.315,4.271l9.228,10.889s.084.1.221.266c-1.665,1.586-6.164,5.868-6.164,5.868a6.184,6.184,0,0,0-1.612,2.572s-2.709,9.564-2.285,9.944c.418.507,10.1-1.745,10.1-1.745a6.092,6.092,0,0,0,2.645-1.488l6-5.715c0,.077,0,.161,0,.233.106,3.623,2.688,5.668,6.792,6.361s9.528-.155,9.965-1.321c.352-.938-.7-1.438-1.9-2.293a3.961,3.961,0,0,1-1.654-3.135,6.609,6.609,0,0,0-6.358-6.358l3.824-3.641,5.07-4.833a4.464,4.464,0,0,0,.153-6.317l-2.681-2.818a4.469,4.469,0,0,0-6.321-.153l-3.459,3.3,5.9,6.193" transform="translate(-792.174 -492.023)" fill="none" stroke="#fff" stroke-linejoin="round" stroke-width="1.11"/>
    </g>
  </g>
</svg>
