<svg xmlns="http://www.w3.org/2000/svg" width="21.654" height="16.517" viewBox="0 0 21.654 16.517">
  <path id="Path_12790" data-name="Path 12790" d="M873.4,27.417c.981.017,2.394-1.256,3.1-1.781,5.612-4.143,6.039-4.5,7.333-5.537a1.033,1.033,0,0,0,.389-.813v-.817a2.047,2.047,0,0,0-2.03-2.064H864.6a2.048,2.048,0,0,0-2.03,2.064v.817a1.042,1.042,0,0,0,.39.813c1.294,1.028,1.721,1.394,7.333,5.537.711.524,2.123,1.8,3.1,1.781m10.417-5.558a.254.254,0,0,1,.41.2v8.8a2.048,2.048,0,0,1-2.03,2.064H864.6a2.049,2.049,0,0,1-2.03-2.064V22.066a.253.253,0,0,1,.411-.2c.947.748,2.2,1.7,6.517,4.885.892.663,2.4,2.056,3.9,2.048,1.51.013,3.045-1.411,3.9-2.048,4.314-3.186,5.566-4.142,6.513-4.89" transform="translate(-862.572 -16.405)" fill="#9e9ea3"/>
</svg>
