<svg xmlns="http://www.w3.org/2000/svg" width="577.912" height="490.385" viewBox="0 0 577.912 490.385">
  <g id="Component_14_1" data-name="Component 14 – 1" transform="translate(0.504 0.509)">
    <g id="Group_1072" data-name="Group 1072" transform="translate(23.159 83.741)">
      <path id="Path_12361" data-name="Path 12361" d="M1191.372,1677.1l-4.573,3.808.54,5.923-5.032-3.169-5.473,2.34,1.467-5.761-3.925-4.483,5.941-.387,3.042-5.113,2.205,5.527Z" transform="translate(-650.089 -1611.599)" fill="#231f20"/>
      <path id="Path_12362" data-name="Path 12362" d="M1167.008,1941.316c1.764-3.34,3.718-7.966,3.339-11.639l.009-.036v-.009a68.615,68.615,0,0,0,7.273,2.259c.5.126,1.017.243,1.53.36a2.881,2.881,0,0,1,2.205,3.43,2.73,2.73,0,0,1-.36.891l-5.86,9.361-14.15,22.576c-2.736-5.473-1.647-15.77,3.385-22.818a45.375,45.375,0,0,0,2.448-4.051C1166.891,1941.532,1166.945,1941.424,1167.008,1941.316Z" transform="translate(-648.607 -1637.499)" fill="#231f20"/>
      <path id="Path_12363" data-name="Path 12363" d="M1169.372,1676.093l-4.582,3.808.54,5.923-5.032-3.168-5.464,2.34,1.467-5.761-3.925-4.483,5.941-.387,3.042-5.113,2.205,5.527Z" transform="translate(-647.893 -1611.498)" fill="#231f20"/>
      <path id="Path_12364" data-name="Path 12364" d="M1144.675,1797.434l-3.5-1.89c.513-.621,1.026-1.233,1.548-1.845,2.079-2.448,4.24-4.852,6.436-7.2q2.471-2.646,5.014-5.185c1.593,1.26,3.24,2.448,4.933,3.547v.009c.8.531,1.611,1.044,2.43,1.53,10.919,6.589,4.573,18.633-8.488,23.791a36.348,36.348,0,0,1-20.739,1.656,35.646,35.646,0,0,1,7.066-10.235c.324-.324.648-.63.954-.918.468-.432.909-.81,1.323-1.152.144-.117.27-.225.405-.324l.738-.558c.234-.171.45-.315.648-.45s.369-.243.522-.342c.459-.288.72-.423.72-.423Z" transform="translate(-645.888 -1622.688)" fill="#231f20"/>
      <path id="Path_12365" data-name="Path 12365" d="M1147.363,1675.083l-4.573,3.808.54,5.923-5.032-3.168-5.464,2.34,1.467-5.761-3.925-4.483,5.941-.387,3.043-5.113,2.205,5.527Z" transform="translate(-645.696 -1611.397)" fill="#231f20"/>
      <path id="Path_12366" data-name="Path 12366" d="M1139.835,1757.9v.009h-.009c-.918.873-1.827,1.746-2.709,2.61a24.519,24.519,0,0,0,.513-9.505C1138.269,1753.271,1138.962,1755.576,1139.835,1757.9Z" transform="translate(-646.369 -1619.662)" fill="#231f20"/>
      <path id="Path_12367" data-name="Path 12367" d="M1133.035,1749.169a24.517,24.517,0,0,1-.513,9.505c-.369.369-.747.729-1.107,1.089-.738.72-1.449,1.44-2.151,2.142-.36.36-.711.711-1.053,1.062h-.009c-6.85-.54-11.513-2.907-14.69-5.905-7.12-6.76-6.778-16.761-6.778-16.761h-.009a21.064,21.064,0,0,0-6.949,2.322,18.5,18.5,0,0,0-3.25,2.205c0,.009-.009,0-.009,0a15.172,15.172,0,0,0-1.251,1.17,17.434,17.434,0,0,0-4.078,6.6c2.529-13.178,15.122-23.4,28.832-19a18.267,18.267,0,0,1,11.4,10.028v.009c.558,1.809,1.062,3.654,1.6,5.518Z" transform="translate(-641.782 -1617.82)" fill="#231f20"/>
      <path id="Path_12368" data-name="Path 12368" d="M1125.363,1674.073l-4.573,3.808.54,5.923-5.032-3.169-5.464,2.34,1.458-5.761-3.916-4.474,5.932-.4,3.052-5.113,2.205,5.527Z" transform="translate(-643.499 -1611.296)" fill="#231f20"/>
      <path id="Path_12369" data-name="Path 12369" d="M1103.363,1673.072l-4.573,3.8.54,5.923-5.032-3.169-5.464,2.34,1.458-5.761-3.916-4.474,5.932-.4,3.042-5.113,2.205,5.527Z" transform="translate(-641.302 -1611.195)" fill="#231f20"/>
      <path id="Path_12370" data-name="Path 12370" d="M1066.57,1971.976c.621,1.773-.63,3.043-2.349,3.97l-30.974,15.068c0-9.092,16.761-18.462,16.761-18.462s13.736-3.007,14.006-8.2C1064.941,1967.412,1065.859,1969.987,1066.57,1971.976Z" transform="translate(-635.996 -1640.966)" fill="#231f20"/>
      <path id="Path_12371" data-name="Path 12371" d="M876.633,1801.431v.009a239.483,239.483,0,0,1-.558,31.721q-.2,2.147-.459,4.213l.063.036c-.045,0-.09.009-.144.009l-.3.027-.432.027-.441.027h-.027l-.513.027H873.8c-1.071.045-2.466.072-4.042.018-1.116-.036-2.331-.117-3.574-.252h-.018c-.576-.072-1.152-.144-1.746-.234-.4-.063-.8-.135-1.2-.207s-.783-.162-1.17-.252c-.207-.045-.405-.1-.6-.144q-.878-.23-1.728-.513a15.978,15.978,0,0,1-5.6-3.042,147.241,147.241,0,0,0-3.3-32.279c-.243-1.161-.5-2.349-.783-3.556a198.856,198.856,0,0,0-11.477-34.565v-.009c7.129-13.925,13.484-28.607,17.238-42.262.909-.1,1.8-.243,2.691-.423a30.7,30.7,0,0,0,5.212-1.548c.846-.342,1.683-.711,2.493-1.116,1.161,6.058,3.3,17.814,5.365,32.252.945,6.607,1.872,13.772,2.691,21.216C875.337,1780.629,876.21,1791.134,876.633,1801.431Z" transform="translate(-616.555 -1616.28)" fill="#231f20"/>
      <path id="Path_12372" data-name="Path 12372" d="M849.872,1720.562c-3.754,13.655-10.109,28.336-17.238,42.262v.009c-16.6,32.468-37.338,60.895-38.913,63.046-2.169-2.5-15.392-18.228-14.429-25.753,26.14-38.625,18.84-70.976,18.84-70.976.216-.225.441-.45.657-.666C812.183,1715.477,832.886,1722.786,849.872,1720.562Z" transform="translate(-610.632 -1616.613)" fill="#231f20"/>
      <path id="Path_12373" data-name="Path 12373" d="M818.967,1625.111a17.987,17.987,0,0,0-9.461-10.406,6.865,6.865,0,0,0-7.8,1.323,5.729,5.729,0,0,0-.54.594,20.928,20.928,0,0,1-1.719,1.908c-3.646,3.556-10.352,7.651-22.333,8.6l-.162.009c-.747-9.01,3.466-17.895,13.178-21.009,10.046-3.222,19.488,1.4,24.808,9.29A25.966,25.966,0,0,1,818.967,1625.111Z" transform="translate(-610.395 -1605.091)" fill="#231f20"/>
      <path id="Path_12374" data-name="Path 12374" d="M770.246,2005.767v.009l-37.149-6.031a3,3,0,0,1-2.484-3.438,2.613,2.613,0,0,1,.135-.522c.72-2.016,1.647-4.87,2.574-8.363a10.364,10.364,0,0,0,5,2.358c.252.063.522.117.783.171.621.126,1.269.234,1.917.324q.581.081,1.161.135a63.43,63.43,0,0,0,9.181.2l.5-.027h.009l.432-.027c.135,0,.252-.009.36-.018C754.125,1991.05,770.246,1997.089,770.246,2005.767Z" transform="translate(-605.772 -1643.27)" fill="#231f20"/>
      <path id="Path_12375" data-name="Path 12375" d="M703.74,1652.588c4.24,4.438-5.815,14.987-5.815,14.987s-13.5-5.761-11.315-11.5c2.286-6,7.8-2.754,8.425-2.367C695.3,1653.326,699.194,1647.826,703.74,1652.588Z" transform="translate(-601.358 -1609.641)" fill="#231f20"/>
      <path id="Path_12376" data-name="Path 12376" d="M699.969,1767.616a17.827,17.827,0,0,0-2.862-5.185c0-.009,0-.009-.009-.009a17.423,17.423,0,0,0-2.439-2.5,20.339,20.339,0,0,0-5.752-3.348,20.905,20.905,0,0,0-2.133-.7q-.473-.122-.864-.216c-.387-.09-.711-.144-.963-.189-.324-.054-.5-.072-.5-.072s.711,20.91-21.468,22.666c-.351-.351-.7-.711-1.053-1.062q-1.593-1.607-3.276-3.25c-.063-.243-.126-.495-.18-.738a24.18,24.18,0,0,1-.477-7.462c.072-.738.18-1.467.315-2.205.486-1.458.945-2.961,1.44-4.627v-.009a18.319,18.319,0,0,1,11.4-10.028C684.837,1744.294,697.4,1754.465,699.969,1767.616Z" transform="translate(-598.514 -1619.326)" fill="#231f20"/>
      <path id="Path_12377" data-name="Path 12377" d="M673.756,1663.332c-.261.1-1.422.513-3.276,1.179-2.133.729-5.158,1.827-8.821,3.042s-7.93,2.682-12.521,4.15-9.5,3.042-14.4,4.618c-2.971.909-5.932,1.809-8.83,2.7-.162-.423-.315-.846-.477-1.269,2.916-.936,5.887-1.881,8.866-2.835,4.924-1.512,9.848-3.016,14.456-4.429s8.956-2.628,12.656-3.727,6.823-1.908,8.983-2.529C672.3,1663.719,673.486,1663.4,673.756,1663.332Z" transform="translate(-595.272 -1610.907)" fill="#231f20"/>
      <path id="Path_12378" data-name="Path 12378" d="M622.109,1822.276c-3.033-6.409.009-14.474,7.948-20.865l.261-.207a82.129,82.129,0,0,0,6.409-5.572c4.744,4.726,9.4,9.74,13.691,14.924l-3.5,1.89A31.182,31.182,0,0,1,664.352,1825l-.288.135c-8.29,7.021-20.424,8.56-28.219,6.58a28.2,28.2,0,0,1-7.921-3.232A15.009,15.009,0,0,1,622.109,1822.276Z" transform="translate(-594.826 -1624.118)" fill="#231f20"/>
      <path id="Path_12379" data-name="Path 12379" d="M658.181,1774.75c.054.243.108.495.171.738q-1.607-1.566-3.285-3.159l.126-.135a61.79,61.79,0,0,0,2.817-7.111c-.135.729-.234,1.467-.306,2.205A24.181,24.181,0,0,0,658.181,1774.75Z" transform="translate(-598.232 -1621.067)" fill="#231f20"/>
      <path id="Path_12380" data-name="Path 12380" d="M638.974,1684.6c-.144.054-.747.3-1.719.666-1.125.4-2.709,1.017-4.627,1.683-1.17.414-2.466.855-3.844,1.314-.126-.369-.261-.729-.387-1.089,1.431-.378,2.772-.729,3.988-1.035,1.971-.5,3.628-.864,4.789-1.152C638.182,1684.764,638.821,1684.629,638.974,1684.6Z" transform="translate(-595.569 -1613.031)" fill="#231f20"/>
      <path id="Path_12381" data-name="Path 12381" d="M626.786,1687.462c.126.36.261.72.387,1.089-3.15,1.044-6.751,2.187-10.361,3.286-1.323.4-2.655.783-3.961,1.161-.2-.441-.387-.882-.585-1.305,1.35-.423,2.736-.855,4.123-1.269C619.99,1689.343,623.6,1688.317,626.786,1687.462Z" transform="translate(-593.958 -1613.316)" fill="#231f20"/>
      <path id="Path_12382" data-name="Path 12382" d="M622.385,1956.388c5.041,7.048,5.05,17.706,2.313,23.179l-19.65-32.108a3.526,3.526,0,0,1,1.161-4.861,4.481,4.481,0,0,1,.549-.279c2.106-.819,4.942-2,8.254-3.547a11.846,11.846,0,0,0,.144,1.188,17.531,17.531,0,0,0,.621,2.556c.063.216.135.441.216.666.3.891.657,1.8,1.044,2.709a69.708,69.708,0,0,0,3.493,6.841c.207.351.4.675.585.99s.36.6.531.873c.5.81.882,1.4,1.089,1.728Z" transform="translate(-593.185 -1638.412)" fill="#231f20"/>
      <path id="Path_12383" data-name="Path 12383" d="M623.759,1679.352c.162.423.315.846.477,1.269l-5.626,1.719c-3.34,1.026-6.535,1.944-9.443,2.79-.153-.3-.3-.585-.441-.864,2.916-.981,6.112-2.07,9.5-3.141Q620.937,1680.261,623.759,1679.352Z" transform="translate(-593.605 -1612.506)" fill="#231f20"/>
      <path id="Path_12384" data-name="Path 12384" d="M610.446,1692.162c.2.423.387.864.585,1.305-3.817,1.107-7.471,2.088-10.415,2.835-1.971.5-3.637.864-4.789,1.143-1.017.234-1.656.369-1.8.4.135-.063.747-.306,1.719-.666,1.116-.405,2.7-1.026,4.627-1.683C603.19,1694.493,606.719,1693.332,610.446,1692.162Z" transform="translate(-592.137 -1613.786)" fill="#231f20"/>
      <path id="Path_12385" data-name="Path 12385" d="M607.456,1684.812c.144.279.288.567.441.864-1.116.324-2.187.63-3.214.936-3.538,1.044-6.535,1.836-8.686,2.448.045-.126.09-.252.126-.378,2.088-.72,4.924-1.737,8.317-2.862C605.4,1685.505,606.412,1685.163,607.456,1684.812Z" transform="translate(-592.333 -1613.052)" fill="#231f20"/>
      <path id="Path_12386" data-name="Path 12386" d="M595.717,1689.112c-.036.126-.081.252-.126.378l-.3.081c-1.908.513-3.1.828-3.367.9.261-.1,1.422-.513,3.276-1.179C595.366,1689.238,595.537,1689.175,595.717,1689.112Z" transform="translate(-591.927 -1613.481)" fill="#231f20"/>
    </g>
    <g id="Group_1073" data-name="Group 1073">
      <path id="Path_12387" data-name="Path 12387" d="M593.021,1689.532c-.846,2.331-1.755,4.933-2.7,7.759-1.674,5-3.493,10.685-5.338,16.851-15.1,50.327-32.81,132.024-1.179,121.924,15.626-5,26.131-13.628,32.837-24.385.072-.108.135-.225.207-.333" transform="translate(-566.198 -1529.782)" fill="none" stroke="#231f20" stroke-width="1"/>
      <path id="Path_12388" data-name="Path 12388" d="M607.47,1683.841c-3.042-5.95-5.32-9.218-5.842-8.7-.927.927-2.925,5.509-5.491,12.566" transform="translate(-569.188 -1528.34)" fill="none" stroke="#231f20" stroke-width="1"/>
      <path id="Path_12389" data-name="Path 12389" d="M611.962,1691.524c-.954-2.106-1.881-4.024-2.745-5.752" transform="translate(-570.494 -1529.407)" fill="none" stroke="#231f20" stroke-width="1"/>
      <path id="Path_12390" data-name="Path 12390" d="M629.21,1746.486a222.987,222.987,0,0,0-10.793-39.363c-1.845-4.987-3.727-9.541-5.5-13.511" transform="translate(-570.864 -1530.19)" fill="none" stroke="#231f20" stroke-width="1"/>
      <path id="Path_12391" data-name="Path 12391" d="M632.861,1790.392a89.61,89.61,0,0,1-1.512,10.289c-.027.117-.045.234-.072.351" transform="translate(-572.697 -1539.854)" fill="none" stroke="#231f20" stroke-width="1"/>
      <path id="Path_12392" data-name="Path 12392" d="M623.334,1662.646c-2.268-6.022-4.645-11.972-7.075-17.814-1.44-3.484-2.908-6.931-4.375-10.334-9.253-22.368-12.611-54.954,6.544-82.084,59.247-67.429,140.971-33.872,172.368-16.454,21.018,11.666,48.554,38.9,79.366,54.116" transform="translate(-570.02 -1512.061)" fill="none" stroke="#231f20" stroke-width="1"/>
      <path id="Path_12393" data-name="Path 12393" d="M628.153,1686.793c-.72-2.016-1.449-4.033-2.2-6.031" transform="translate(-572.166 -1528.907)" fill="none" stroke="#231f20" stroke-width="1"/>
      <path id="Path_12394" data-name="Path 12394" d="M643.31,1756.372c-.594-17.868-4.447-36.087-9.947-53.963q-2.12-6.913-4.537-13.736" transform="translate(-572.452 -1529.697)" fill="none" stroke="#231f20" stroke-width="1"/>
      <path id="Path_12395" data-name="Path 12395" d="M1166.146,1771.772c-1.4,3.988-2.745,7.966-4.006,11.936v.009c-.018.072-.045.126-.063.189" transform="translate(-625.702 -1537.995)" fill="none" stroke="#231f20" stroke-width="1"/>
      <path id="Path_12396" data-name="Path 12396" d="M623.239,1831.932c-.036.063-.072.117-.108.18a108.821,108.821,0,0,1-14.222,18.921,157.129,157.129,0,0,1-12.7,15.15,146.2,146.2,0,0,0-15.815,29.272,82.187,82.187,0,0,0-6.337,20.784c-.063.387-.126.792-.18,1.188-.009.063-.018.117-.027.18a83.053,83.053,0,0,0-.891,11.549v.261c-.171,28.012,13.448,55.7,36.69,73.776A139.545,139.545,0,0,0,656.4,2027.38a158.038,158.038,0,0,0,24.772,5.212,155.34,155.34,0,0,0,22.071.657,186.336,186.336,0,0,0,21.621-2.151c7.642-1.314,15.158-2.988,22.567-4.915,7.453-1.971,14.807-4.186,22.152-6.589q8.25-2.741,16.356-5.806c.3-.117.585-.234.882-.351a355.255,355.255,0,0,1,187.689-20.361c15.392,2.52,29.6,4.6,40.146,5.563,19.119,1.368,37.2-3.925,53.693-12.242a174.177,174.177,0,0,0,15.941-9.208c17.3-9.559,27.355-23.773,31.991-39.975.1-.342.189-.693.288-1.035" transform="translate(-566.873 -1544.002)" fill="none" stroke="#231f20" stroke-width="1"/>
      <path id="Path_12397" data-name="Path 12397" d="M1177.133,1920.284c0-.027.009-.063.009-.1,2.169-24.1-5.23-50.489-17.031-71.75-4.555-9.1-5.923-18.651-5.464-28.21.108-2.232.315-4.456.6-6.688v-.009c.009-.045.009-.09.018-.135" transform="translate(-624.951 -1542.151)" fill="none" stroke="#231f20" stroke-width="1"/>
      <path id="Path_12398" data-name="Path 12398" d="M967.937,1604.738c20.262-3.772,40.263-11.927,60.22-19.137,6.427-2.322,12.854-4.555,19.29-6.508,25.744-7.831,51.506-11.243,77.745,1.188a84.4,84.4,0,0,1,17.859,11.225,73.985,73.985,0,0,1,23.908,35.331A99.178,99.178,0,0,1,1171,1646.36c1.719,16.427-.612,32.567-4.807,48.5-1.368,5.2-2.925,10.379-4.618,15.536" transform="translate(-606.315 -1518.052)" fill="none" stroke="#231f20" stroke-width="1"/>
      <path id="Path_12399" data-name="Path 12399" d="M1063,1935.622c25.051.972,50.066,2.466,73.208,4.375" transform="translate(-615.808 -1554.357)" fill="none" stroke="#231f20" stroke-width="1"/>
      <path id="Path_12400" data-name="Path 12400" d="M638.359,1921.312c-20.649,2.277-61.84,4.879-64.4,5.041-.081.009-.126.009-.126.009" transform="translate(-566.961 -1552.928)" fill="none" stroke="#231f20" stroke-width="1"/>
      <path id="Path_12401" data-name="Path 12401" d="M1168.179,1942.648c-.108-.009-.225-.027-.342-.036" transform="translate(-626.277 -1555.055)" fill="none" stroke="#231f20" stroke-width="1"/>
      <path id="Path_12402" data-name="Path 12402" d="M1035.388,1934.79c-12.053-.324-23.989-.513-35.6-.558" transform="translate(-609.496 -1554.218)" fill="none" stroke="#231f20" stroke-width="1"/>
      <path id="Path_12403" data-name="Path 12403" d="M770.227,1916.612c9.911,1.584,15.753,4.654,15.753,9.9,0,9.118.243,15.077,5.2,18.183" transform="translate(-586.572 -1552.458)" fill="none" stroke="#231f20" stroke-width="1"/>
      <path id="Path_12404" data-name="Path 12404" d="M702.267,1916.691c7.939-.54,15.554-.99,22.72-1.269" transform="translate(-579.786 -1552.339)" fill="none" stroke="#231f20" stroke-width="1"/>
      <path id="Path_12405" data-name="Path 12405" d="M1093.342,1614.81a1.423,1.423,0,0,1,1.458-.315l8.263,2.926,7.111-5.149a1.406,1.406,0,0,1,1.485-.108c.009,0,.009.009.018.009a1.418,1.418,0,0,1,.738,1.278l-.234,8.776,7.093,5.158a1.407,1.407,0,0,1-.423,2.493l-8.416,2.493-2.718,8.344a1.43,1.43,0,0,1-1.143.963,1.391,1.391,0,0,1-.873-.162,1.321,1.321,0,0,1-.486-.432l-4.969-7.237-8.785-.009a1.473,1.473,0,0,1-.675-.171,1.375,1.375,0,0,1-.585-.612,1.41,1.41,0,0,1,.144-1.485l5.347-6.958-2.709-8.353A1.421,1.421,0,0,1,1093.342,1614.81Z" transform="translate(-618.51 -1522.041)" fill="none" stroke="#231f20" stroke-width="1"/>
      <path id="Path_12406" data-name="Path 12406" d="M631.993,1600.939a1.034,1.034,0,0,1,.765.765l1.44,6.22,5.95,2.34a1.011,1.011,0,0,1,.639.864.028.028,0,0,1,.009.018,1.041,1.041,0,0,1-.5.954l-5.473,3.294-.387,6.373a1,1,0,0,1-.63.882,1.018,1.018,0,0,1-1.071-.171l-4.816-4.177-6.184,1.6a1.036,1.036,0,0,1-1.287-.927,1.073,1.073,0,0,1,.081-.468l2.484-5.878-3.439-5.392a1.042,1.042,0,0,1-.009-1.08,1.052,1.052,0,0,1,.972-.495l6.364.549,4.06-4.933A1.022,1.022,0,0,1,631.993,1600.939Z" transform="translate(-571.513 -1520.933)" fill="none" stroke="#231f20" stroke-width="1"/>
      <path id="Path_12407" data-name="Path 12407" d="M718.408,1547.56a1.615,1.615,0,0,1,1.692-.1l8.776,4.717,8.857-4.564a1.6,1.6,0,0,1,1.692.144c.009,0,.009.009.018.009a1.608,1.608,0,0,1,.6,1.557l-1.773,9.812,7.075,7.012a1.6,1.6,0,0,1,.387,1.647,1.577,1.577,0,0,1-1.305,1.08l-9.875,1.341-4.483,8.9a1.631,1.631,0,0,1-1.449.882,1.683,1.683,0,0,1-.963-.333,1.738,1.738,0,0,1-.468-.576l-4.321-8.974-9.857-1.521a1.635,1.635,0,0,1-1.287-1.1,1.622,1.622,0,0,1,.423-1.647l7.2-6.886-1.593-9.838A1.613,1.613,0,0,1,718.408,1547.56Z" transform="translate(-580.724 -1515.576)" fill="none" stroke="#231f20" stroke-width="1"/>
      <path id="Path_12408" data-name="Path 12408" d="M1034.678,1585.315l-1.152,1.44a1.287,1.287,0,0,0,.405,1.944,1.24,1.24,0,0,0,.576.144l8.029.153,4.42,6.706a1.46,1.46,0,0,0,.477.432,1.3,1.3,0,0,0,1.827-.72l2.62-7.588,7.741-2.133a1.3,1.3,0,0,0,.441-2.278l-6.094-4.609-.306-.234.36-8.02a1.294,1.294,0,0,0-.675-1.188c0-.009-.009-.009-.018-.009a1.287,1.287,0,0,0-1.341.081l-6.589,4.591-7.516-2.818a1.285,1.285,0,0,0-1.683,1.584l2.331,7.678Z" transform="translate(-612.837 -1517.767)" fill="none" stroke="#231f20" stroke-width="1"/>
      <path id="Path_12409" data-name="Path 12409" d="M1181.149,1654.06l-102.859-4.879a6.734,6.734,0,0,0-7.048,6.409l-1.665,35.168a6.726,6.726,0,0,0,6.409,7.039l27.166,1.287-3.339,15.735,18.309-15.023,58.221,2.764,8.308.4a6.734,6.734,0,0,0,7.048-6.409l1.665-35.16a6.735,6.735,0,0,0-6.409-7.048Z" transform="translate(-616.464 -1525.752)" fill="none" stroke="#231f20" stroke-width="1"/>
      <path id="Path_12410" data-name="Path 12410" d="M1097.557,1671.749l5.806,1.323-4.573,3.8.54,5.923-5.032-3.169-5.464,2.34,1.458-5.761-3.916-4.474,5.932-.4,3.042-5.113Z" transform="translate(-618.143 -1527.455)" fill="none" stroke="#231f20" stroke-width="1"/>
      <path id="Path_12411" data-name="Path 12411" d="M1119.566,1672.759l5.8,1.314-4.573,3.808.54,5.923-5.032-3.169-5.464,2.34,1.458-5.761-3.916-4.474,5.932-.4,3.052-5.113Z" transform="translate(-620.339 -1527.556)" fill="none" stroke="#231f20" stroke-width="1"/>
      <path id="Path_12412" data-name="Path 12412" d="M1141.566,1673.769l5.8,1.314-4.573,3.808.54,5.923-5.032-3.168-5.464,2.34,1.467-5.761-3.925-4.483,5.941-.387,3.043-5.113Z" transform="translate(-622.536 -1527.657)" fill="none" stroke="#231f20" stroke-width="1"/>
      <path id="Path_12413" data-name="Path 12413" d="M1163.566,1674.779l5.806,1.314-4.582,3.808.54,5.923-5.032-3.168-5.464,2.34,1.467-5.761-3.925-4.483,5.941-.387,3.042-5.113Z" transform="translate(-624.733 -1527.757)" fill="none" stroke="#231f20" stroke-width="1"/>
      <path id="Path_12414" data-name="Path 12414" d="M1185.566,1675.789l5.806,1.314-4.573,3.808.54,5.923-5.032-3.169-5.473,2.34,1.467-5.761-3.925-4.483,5.941-.387,3.042-5.113Z" transform="translate(-626.93 -1527.858)" fill="none" stroke="#231f20" stroke-width="1"/>
      <path id="Path_12415" data-name="Path 12415" d="M613.123,1656.46l87.458-27.688a5.884,5.884,0,0,1,7.381,3.826l9.28,29.309a5.889,5.889,0,0,1-3.835,7.381l-22.638,7.165-9.19,13.565L678.3,1680.4l-50.507,16-13.358,4.222L590,1708.362a5.891,5.891,0,0,1-7.381-3.835l-9.28-29.3a5.889,5.889,0,0,1,3.835-7.381Z" transform="translate(-566.884 -1523.688)" fill="none" stroke="#231f20" stroke-width="1"/>
      <path id="Path_12416" data-name="Path 12416" d="M683,1665.542a13.958,13.958,0,1,0,5.014-19.092A13.954,13.954,0,0,0,683,1665.542Z" transform="translate(-577.671 -1525.29)" fill="none" stroke="#231f20" stroke-width="1"/>
      <path id="Path_12417" data-name="Path 12417" d="M703.74,1652.588c-4.546-4.762-8.443.738-8.7,1.116-.621-.387-6.139-3.637-8.425,2.367-2.187,5.743,11.315,11.5,11.315,11.5S707.98,1657.026,703.74,1652.588Z" transform="translate(-578.199 -1525.901)" fill="none" stroke="#231f20" stroke-width="1"/>
      <path id="Path_12418" data-name="Path 12418" d="M1140.137,1754.989a302.553,302.553,0,0,1,35.934-29.408,2.627,2.627,0,0,1,2.25-.351c.153.045.3.09.45.126a16.005,16.005,0,0,0,14.213-2.9,2.643,2.643,0,0,1,1.647-.576,2.555,2.555,0,0,1,1.8.729,12.106,12.106,0,0,1,3.592,8.605" transform="translate(-623.511 -1533.013)" fill="none" stroke="#231f20" stroke-width="1"/>
      <line id="Line_243" data-name="Line 243" x2="0.009" transform="translate(516.617 221.985)" fill="none" stroke="#231f20" stroke-width="1"/>
      <line id="Line_244" data-name="Line 244" x2="0.009" transform="translate(513.899 224.596)" fill="none" stroke="#231f20" stroke-width="1"/>
      <path id="Path_12419" data-name="Path 12419" d="M1133.487,1764.924c.7-.7,1.413-1.413,2.151-2.142" transform="translate(-622.847 -1537.097)" fill="none" stroke="#231f20" stroke-width="1"/>
      <line id="Line_245" data-name="Line 245" y1="0.009" transform="translate(509.587 228.89)" fill="none" stroke="#231f20" stroke-width="1"/>
      <path id="Path_12420" data-name="Path 12420" d="M1130.277,1768.215c.594-.612,1.206-1.233,1.827-1.863" transform="translate(-622.526 -1537.454)" fill="none" stroke="#231f20" stroke-width="1"/>
      <path id="Path_12421" data-name="Path 12421" d="M1116.6,1783.253c.2-.234.405-.468.612-.711" transform="translate(-621.16 -1539.07)" fill="none" stroke="#231f20" stroke-width="1"/>
      <line id="Line_246" data-name="Line 246" x1="22.999" y1="12.413" transform="translate(495.446 244.183)" fill="none" stroke="#231f20" stroke-width="1"/>
      <path id="Path_12422" data-name="Path 12422" d="M1150.313,1787.072c-2.205,2.349-4.357,4.762-6.436,7.2" transform="translate(-623.884 -1539.523)" fill="none" stroke="#231f20" stroke-width="1"/>
      <path id="Path_12423" data-name="Path 12423" d="M1201.667,1732.262a11.84,11.84,0,0,1-.252,2.448,13.361,13.361,0,0,1-5.221,8.092,339.674,339.674,0,0,0-30.6,25.015v.009q-4.577,4.213-9,8.587" transform="translate(-625.155 -1534.049)" fill="none" stroke="#231f20" stroke-width="1"/>
      <path id="Path_12424" data-name="Path 12424" d="M1171.557,1929.641v-.009a68.615,68.615,0,0,0,7.273,2.259c.5.126,1.017.243,1.53.36" transform="translate(-626.648 -1553.758)" fill="none" stroke="#231f20" stroke-width="1"/>
      <path id="Path_12425" data-name="Path 12425" d="M1167.637,1942.936c.063-.108.117-.216.18-.324" transform="translate(-626.257 -1555.055)" fill="none" stroke="#231f20" stroke-width="1"/>
      <path id="Path_12426" data-name="Path 12426" d="M1179.16,1932.542a2.881,2.881,0,0,1,2.205,3.429,2.729,2.729,0,0,1-.36.891l-5.86,9.362-14.15,22.575c-2.736-5.473-1.647-15.77,3.385-22.818" transform="translate(-625.448 -1554.049)" fill="none" stroke="#231f20" stroke-width="1"/>
      <path id="Path_12427" data-name="Path 12427" d="M1120.651,1890.462c13.862,21.315,31.316,30.956,42.982,35.268l-.009.036c.378,3.672-1.575,8.3-3.339,11.639h-.009c-.054.108-.117.216-.171.324a45.36,45.36,0,0,1-2.448,4.051,152.748,152.748,0,0,1-18.525-6.292h-.009c-16.977-6.922-40.416-19.8-46.915-39.813" transform="translate(-618.725 -1549.847)" fill="none" stroke="#231f20" stroke-width="1"/>
      <path id="Path_12428" data-name="Path 12428" d="M1142.157,1795.543c.513-.621,1.026-1.233,1.548-1.845,2.079-2.448,4.24-4.852,6.436-7.2q2.471-2.646,5.014-5.185c1.593,1.26,3.24,2.448,4.933,3.547v.009c.8.531,1.611,1.044,2.43,1.53" transform="translate(-623.713 -1538.948)" fill="none" stroke="#231f20" stroke-width="1"/>
      <path id="Path_12429" data-name="Path 12429" d="M1143.137,1801l.738-.558c.234-.171.45-.315.648-.45s.369-.243.522-.342c.459-.288.72-.423.72-.423l-.009-.009" transform="translate(-623.811 -1540.736)" fill="none" stroke="#231f20" stroke-width="1"/>
      <path id="Path_12430" data-name="Path 12430" d="M1140.157,1803.632c.324-.324.648-.63.954-.918.468-.432.909-.81,1.323-1.152" transform="translate(-623.513 -1540.97)" fill="none" stroke="#231f20" stroke-width="1"/>
      <path id="Path_12431" data-name="Path 12431" d="M1161.535,1786.962c10.919,6.589,4.573,18.633-8.488,23.791a36.347,36.347,0,0,1-20.739,1.656" transform="translate(-622.729 -1539.512)" fill="none" stroke="#231f20" stroke-width="1"/>
      <path id="Path_12432" data-name="Path 12432" d="M1116.6,1783.342l23.007,12.4,3.5,1.89" transform="translate(-621.16 -1539.15)" fill="none" stroke="#231f20" stroke-width="1"/>
      <path id="Path_12433" data-name="Path 12433" d="M1109.217,1792.047c.486-.612,1-1.26,1.539-1.935" transform="translate(-620.423 -1539.826)" fill="none" stroke="#231f20" stroke-width="1"/>
      <path id="Path_12434" data-name="Path 12434" d="M1095.4,1789.862q.7.675,1.458,1.269" transform="translate(-619.043 -1539.801)" fill="none" stroke="#231f20" stroke-width="1"/>
      <path id="Path_12435" data-name="Path 12435" d="M1083.167,1769.192h.36a51.227,51.227,0,0,0,8.011,15.725" transform="translate(-617.822 -1537.737)" fill="none" stroke="#231f20" stroke-width="1"/>
      <path id="Path_12436" data-name="Path 12436" d="M1034.466,1890.749c-10.181-.891-19.479-4.294-26.959-12.026,33.6-13.781,49.085-48.806,56.475-69.446,1.494-14.5-8.317-33.017-13.934-39.7l.747-.009" transform="translate(-610.267 -1537.775)" fill="none" stroke="#231f20" stroke-width="1"/>
      <path id="Path_12437" data-name="Path 12437" d="M1138.637,1799.222h-.009c-.036.027-.3.162-.711.432-.153.09-.333.207-.522.342s-.414.279-.648.45-.477.351-.738.558c-.135.1-.261.207-.405.324-.684.567-1.467,1.251-2.277,2.07a35.649,35.649,0,0,0-7.066,10.235c-6.04,12.98-8.173,36.069,12.377,74.5-4.474-5.527-11.477-7.183-20.028-6.787-8.308.378-18.093,2.673-28.444,5.212-6,1.476-12.2,3.016-18.408,4.312" transform="translate(-616.683 -1540.736)" fill="none" stroke="#231f20" stroke-width="1"/>
      <path id="Path_12438" data-name="Path 12438" d="M1139.826,1757.907c-.918.873-1.827,1.746-2.709,2.61a24.519,24.519,0,0,0,.513-9.505c.639,2.259,1.332,4.564,2.205,6.886v.009" transform="translate(-623.209 -1535.922)" fill="none" stroke="#231f20" stroke-width="1"/>
      <path id="Path_12439" data-name="Path 12439" d="M1096.516,1744.831a15.172,15.172,0,0,0-1.251,1.17,17.434,17.434,0,0,0-4.078,6.6c2.529-13.178,15.122-23.4,28.832-19a18.267,18.267,0,0,1,11.4,10.028v.009c.558,1.809,1.062,3.654,1.6,5.518l.009.018a24.517,24.517,0,0,1-.513,9.505c-.369.369-.747.729-1.107,1.089-.738.72-1.449,1.44-2.151,2.142-.36.36-.711.711-1.053,1.062h-.009" transform="translate(-618.623 -1534.079)" fill="none" stroke="#231f20" stroke-width="1"/>
      <path id="Path_12440" data-name="Path 12440" d="M1100.367,1743.742a18.5,18.5,0,0,0-3.25,2.205" transform="translate(-619.215 -1535.196)" fill="none" stroke="#231f20" stroke-width="1"/>
      <path id="Path_12441" data-name="Path 12441" d="M1115.234,1757.922c-7.129-6.751-6.787-16.761-6.787-16.761" transform="translate(-620.346 -1534.938)" fill="none" stroke="#231f20" stroke-width="1"/>
      <path id="Path_12442" data-name="Path 12442" d="M1096.411,1772.811a20.486,20.486,0,0,1-5.734-14.6,25.561,25.561,0,0,1,.468-4.753,17.679,17.679,0,0,1,4.069-6.6c.405-.414.828-.8,1.251-1.17,0,0,.009.009.009,0a19.541,19.541,0,0,1,3.25-2.205,21.064,21.064,0,0,1,6.949-2.322h.009s-.342,10,6.778,16.761c3.177,3,7.84,5.365,14.69,5.905" transform="translate(-618.572 -1534.938)" fill="none" stroke="#231f20" stroke-width="1"/>
      <path id="Path_12443" data-name="Path 12443" d="M1130.878,1766.342v.009h.009l-1.836,1.863c-4.213,4.33-7.912,8.38-11.054,11.981" transform="translate(-621.3 -1537.453)" fill="none" stroke="#231f20" stroke-width="1"/>
      <path id="Path_12444" data-name="Path 12444" d="M1113.611,1781.57l1.836-.378c-.216.243-.432.5-.648.729-.2.243-.405.477-.6.711h-.009v.009c-1.935,2.232-3.637,4.285-5.1,6.094-.549.675-1.062,1.323-1.539,1.935-.8,1.017-1.512,1.935-2.124,2.745a15.919,15.919,0,0,1-8.857-3.637q-.756-.594-1.458-1.269a27.568,27.568,0,0,1-2.637-2.88,8.281,8.281,0,0,0,4.123-9.3v-.009a18.6,18.6,0,0,0,10.676,5.446,19.5,19.5,0,0,0,6.346-.2" transform="translate(-618.751 -1538.449)" fill="none" stroke="#231f20" stroke-width="1"/>
      <path id="Path_12445" data-name="Path 12445" d="M1078.337,1762.3l-24.817.342v-.27c-5.5-11.837-15.159-33.476-17.958-45.115-3.484-14.51,5.779-17.7,11.594-16.959a2.591,2.591,0,0,1,2.232,2.565v.072a11.269,11.269,0,0,0,7.543,10.055,2.642,2.642,0,0,1,1.638,1.665c.693,2.124,2.25,6.751,4.663,13.106,3.367,8.848,8.4,21.072,15.1,34.538" transform="translate(-612.992 -1530.848)" fill="none" stroke="#231f20" stroke-width="1"/>
      <path id="Path_12446" data-name="Path 12446" d="M1067.427,1964.352c.927,3.06,1.845,5.635,2.556,7.624" transform="translate(-616.25 -1557.225)" fill="none" stroke="#231f20" stroke-width="1"/>
      <path id="Path_12447" data-name="Path 12447" d="M1066.57,1972.822c.621,1.773-.63,3.043-2.349,3.97l-30.974,15.068c0-9.092,16.761-18.462,16.761-18.462" transform="translate(-612.837 -1558.071)" fill="none" stroke="#231f20" stroke-width="1"/>
      <path id="Path_12448" data-name="Path 12448" d="M1068.313,1901.042a67.227,67.227,0,0,0-7.885,31.127,85.483,85.483,0,0,0,3.988,25.861c-.27,5.194-14.006,8.2-14.006,8.2s-7.651-13.862-11.279-34.755a122.894,122.894,0,0,1-1.692-27.6c9.766.846,20.343-.63,30.875-2.835" transform="translate(-613.239 -1550.903)" fill="none" stroke="#231f20" stroke-width="1"/>
      <path id="Path_12449" data-name="Path 12449" d="M754.237,1990.927l.432-.027c.135,0,.252-.009.36-.018,1.458.513,17.58,6.553,17.58,15.23" transform="translate(-584.976 -1559.875)" fill="none" stroke="#231f20" stroke-width="1"/>
      <path id="Path_12450" data-name="Path 12450" d="M753.667,1990.959l.5-.027" transform="translate(-584.919 -1559.88)" fill="none" stroke="#231f20" stroke-width="1"/>
      <path id="Path_12451" data-name="Path 12451" d="M742.177,1990.592q.581.081,1.161.135" transform="translate(-583.771 -1559.846)" fill="none" stroke="#231f20" stroke-width="1"/>
      <path id="Path_12452" data-name="Path 12452" d="M739.177,1990.042c.252.063.513.117.783.171" transform="translate(-583.472 -1559.791)" fill="none" stroke="#231f20" stroke-width="1"/>
      <path id="Path_12453" data-name="Path 12453" d="M770.246,2005.776l-37.149-6.031a3,3,0,0,1-2.484-3.438,2.613,2.613,0,0,1,.135-.522c.72-2.016,1.647-4.87,2.574-8.363" transform="translate(-582.613 -1559.529)" fill="none" stroke="#231f20" stroke-width="1"/>
      <path id="Path_12454" data-name="Path 12454" d="M712.687,1777.383c6.7-13.448,11.738-25.672,15.1-34.538,2.394-6.31,3.943-10.919,4.645-13.061a2.717,2.717,0,0,1,1.683-1.71,11.25,11.25,0,0,0,7.507-10.046,2.72,2.72,0,0,1,2.43-2.664c5.824-.639,14.843,2.637,11.4,16.986-2.808,11.639-12.458,33.278-17.949,45.115l-.009.27" transform="translate(-580.827 -1532.355)" fill="none" stroke="#231f20" stroke-width="1"/>
      <path id="Path_12455" data-name="Path 12455" d="M704.577,1799.033a47.05,47.05,0,0,0,6.931-14.771l.369.009,24.808.351.747.009c-5.626,6.679-14.042,27.274-13.709,36.195,6.022,9.38,15.843,17.607,30.074,24.529" transform="translate(-580.017 -1539.242)" fill="none" stroke="#231f20" stroke-width="1"/>
      <path id="Path_12456" data-name="Path 12456" d="M689,1809.773a16.052,16.052,0,0,0,4.33-.945,19.42,19.42,0,0,0,6.985-4.636" transform="translate(-578.461 -1541.232)" fill="none" stroke="#231f20" stroke-width="1"/>
      <path id="Path_12457" data-name="Path 12457" d="M656.152,1816.868a30.759,30.759,0,0,0-6.355-2.556" transform="translate(-574.547 -1542.243)" fill="none" stroke="#231f20" stroke-width="1"/>
      <path id="Path_12458" data-name="Path 12458" d="M676.872,1868.1a34.147,34.147,0,0,0-5.4,5.356c6.877-22.711,3.475-36.69-2.3-45.2" transform="translate(-576.481 -1543.636)" fill="none" stroke="#231f20" stroke-width="1"/>
      <path id="Path_12459" data-name="Path 12459" d="M733.77,1860.832c-1.5.153-3.024.279-4.564.387-1.008.072-2.025.126-3.042.189-1.53.081-3.078.144-4.627.216" transform="translate(-581.71 -1546.888)" fill="none" stroke="#231f20" stroke-width="1"/>
      <path id="Path_12460" data-name="Path 12460" d="M757.808,1852.132a28.135,28.135,0,0,1-9.037,5.158c-.648.234-1.314.45-1.98.657s-1.35.387-2.043.558" transform="translate(-584.028 -1546.019)" fill="none" stroke="#231f20" stroke-width="1"/>
      <path id="Path_12461" data-name="Path 12461" d="M730.057,1860.932c1.539-.1,3.06-.234,4.564-.4a63.625,63.625,0,0,0,8.659-1.458c.693-.171,1.368-.351,2.043-.558s1.332-.414,1.98-.648c13.124,16.464,18.111,35.2,18.912,52.875,1.593,35.538-13.709,66.809-13.709,66.809" transform="translate(-582.561 -1546.593)" fill="none" stroke="#231f20" stroke-width="1"/>
      <path id="Path_12462" data-name="Path 12462" d="M750.977,1981.732l.108.036c-.108.009-.225.018-.36.027l-.432.027h-.009l-.5.027a63.451,63.451,0,0,1-9.181-.2q-.594-.054-1.161-.135c-.648-.09-1.3-.2-1.917-.324-.261-.054-.531-.108-.783-.171a10.364,10.364,0,0,1-5-2.358c3.988-15.014,7.939-41.83-5.5-64.81h-.009a63.472,63.472,0,0,0-10.892-13.8l-.6-.351" transform="translate(-581.031 -1550.77)" fill="none" stroke="#231f20" stroke-width="1"/>
      <path id="Path_12463" data-name="Path 12463" d="M616.943,1934.778a20.223,20.223,0,0,1-.621-2.556q-.094-.621-.135-1.188a145.053,145.053,0,0,0,26.4-15.716c13.691-10.433,26.392-24.934,29.1-43.783l-.108-.135c10.919-8.659,25.474-9.136,39.435-9.73,1.548-.063,3.1-.135,4.627-.216,1.017-.054,2.034-.108,3.042-.18" transform="translate(-571.19 -1546.932)" fill="none" stroke="#231f20" stroke-width="1"/>
      <path id="Path_12464" data-name="Path 12464" d="M618.311,1946.381c-.387-.909-.738-1.818-1.044-2.709" transform="translate(-571.298 -1555.16)" fill="none" stroke="#231f20" stroke-width="1"/>
      <path id="Path_12465" data-name="Path 12465" d="M719.3,1861.272l-.072.342a112.927,112.927,0,0,1-13.718,34.241v.009a109.843,109.843,0,0,1-11.225,15.419h-.009a110.3,110.3,0,0,1-63.991,36.294c-.72.117-1.44.243-2.169.351l-3.592.657c-.207-.324-.594-.918-1.1-1.728-.162-.27-.342-.558-.531-.873s-.378-.639-.585-.99" transform="translate(-571.801 -1546.932)" fill="none" stroke="#231f20" stroke-width="1"/>
      <path id="Path_12466" data-name="Path 12466" d="M701.457,1764.072a17.955,17.955,0,0,1,2.871,5.239v.009a25.56,25.56,0,0,1,.468,4.762" transform="translate(-579.705 -1537.226)" fill="none" stroke="#231f20" stroke-width="1"/>
      <path id="Path_12467" data-name="Path 12467" d="M698.737,1761.282a18.427,18.427,0,0,1,2.439,2.5" transform="translate(-579.433 -1536.947)" fill="none" stroke="#231f20" stroke-width="1"/>
      <path id="Path_12468" data-name="Path 12468" d="M689.977,1756.782a20.872,20.872,0,0,1,2.133.7" transform="translate(-578.559 -1536.498)" fill="none" stroke="#231f20" stroke-width="1"/>
      <path id="Path_12469" data-name="Path 12469" d="M687.947,1756.332c.252.045.576.1.963.189" transform="translate(-578.356 -1536.453)" fill="none" stroke="#231f20" stroke-width="1"/>
      <path id="Path_12470" data-name="Path 12470" d="M673.8,1792.3c-.99-1.1-2.016-2.232-3.1-3.394q-2.417-2.606-5.122-5.392" transform="translate(-576.122 -1539.167)" fill="none" stroke="#231f20" stroke-width="1"/>
      <path id="Path_12471" data-name="Path 12471" d="M677.7,1796.647c-.45-.513-.909-1.044-1.386-1.575" transform="translate(-577.195 -1540.322)" fill="none" stroke="#231f20" stroke-width="1"/>
      <path id="Path_12472" data-name="Path 12472" d="M704.7,1775.192v.009a20.656,20.656,0,0,1-4.231,12.863" transform="translate(-579.606 -1538.336)" fill="none" stroke="#231f20" stroke-width="1"/>
      <path id="Path_12473" data-name="Path 12473" d="M679.108,1797.53c-.414-.477-.819-.945-1.251-1.44l1.818.369a19.375,19.375,0,0,0,6.364.2,18.681,18.681,0,0,0,12.17-7.165" transform="translate(-577.349 -1539.764)" fill="none" stroke="#231f20" stroke-width="1"/>
      <path id="Path_12474" data-name="Path 12474" d="M698.349,1789.492l.1.081c-1.71,3.375.513,6.661,3.6,9.983a27.254,27.254,0,0,1-2.709,3.168,19.229,19.229,0,0,1-6.985,4.636,16.058,16.058,0,0,1-4.33.954v-.009c-.99-1.3-2.214-2.871-3.673-4.681s-3.169-3.853-5.095-6.085v-.009" transform="translate(-577.488 -1539.764)" fill="none" stroke="#231f20" stroke-width="1"/>
      <path id="Path_12475" data-name="Path 12475" d="M658,1765.546c.072-.738.18-1.467.315-2.205.486-1.458.945-2.961,1.44-4.627v-.009a18.319,18.319,0,0,1,11.4-10.028c13.691-4.384,26.257,5.788,28.823,18.939,0,.018.009.036.009.054" transform="translate(-575.365 -1535.585)" fill="none" stroke="#231f20" stroke-width="1"/>
      <path id="Path_12476" data-name="Path 12476" d="M661.984,1779.81q-1.593-1.607-3.276-3.25c-.063-.243-.126-.5-.18-.738" transform="translate(-575.418 -1538.399)" fill="none" stroke="#231f20" stroke-width="1"/>
      <path id="Path_12477" data-name="Path 12477" d="M700.551,1768.53c-.009-.018-.009-.036-.018-.054a17.827,17.827,0,0,0-2.862-5.185c0-.009,0-.009-.009-.009a17.423,17.423,0,0,0-2.439-2.5,20.339,20.339,0,0,0-5.752-3.348c-.783-.3-1.5-.531-2.133-.7q-.473-.122-.864-.216c-.387-.081-.711-.144-.963-.189-.324-.054-.5-.072-.5-.072s.711,20.91-21.468,22.666" transform="translate(-575.918 -1536.445)" fill="none" stroke="#231f20" stroke-width="1"/>
      <path id="Path_12478" data-name="Path 12478" d="M633.554,1789.774c-1.62-1.593-3.249-3.16-4.9-4.717a340.918,340.918,0,0,0-34.007-28.21,13.237,13.237,0,0,1-5.221-8.083,12.108,12.108,0,0,1,3.349-11.072,2.6,2.6,0,0,1,3.439-.144,15.981,15.981,0,0,0,14.663,2.763,2.6,2.6,0,0,1,2.25.36q6.994,4.888,13.709,10.145,6.4,5.023,12.512,10.379,4.658,4.064,9.136,8.326,1.674,1.607,3.285,3.168,1.674,1.634,3.286,3.24c.351.351.7.711,1.053,1.062.621.63,1.233,1.251,1.836,1.872q2.7,2.782,5.122,5.392,1.607,1.742,3.1,3.394c.5.549.972,1.089,1.449,1.62s.927,1.062,1.377,1.575c.441.495.846.963,1.26,1.44" transform="translate(-568.493 -1534.519)" fill="none" stroke="#231f20" stroke-width="1"/>
      <path id="Path_12479" data-name="Path 12479" d="M676.7,1798.422h-.009v.009l-23.008,12.4" transform="translate(-574.935 -1540.656)" fill="none" stroke="#231f20" stroke-width="1"/>
      <path id="Path_12480" data-name="Path 12480" d="M664.352,1825l-.288.135c-8.29,7.021-20.424,8.56-28.219,6.58a28.2,28.2,0,0,1-7.921-3.232,15.009,15.009,0,0,1-5.815-6.211c-3.033-6.409.009-14.474,7.948-20.865l.261-.207a82.129,82.129,0,0,0,6.409-5.572c4.744,4.726,9.4,9.74,13.691,14.924l-3.5,1.89A31.182,31.182,0,0,1,664.352,1825" transform="translate(-571.666 -1540.377)" fill="none" stroke="#231f20" stroke-width="1"/>
      <path id="Path_12481" data-name="Path 12481" d="M658.01,1765.082c-.135.729-.234,1.467-.306,2.205a24.181,24.181,0,0,0,.477,7.462c.054.243.108.495.171.738q-1.607-1.566-3.285-3.159l.126-.135a61.79,61.79,0,0,0,2.817-7.111" transform="translate(-575.073 -1537.327)" fill="none" stroke="#231f20" stroke-width="1"/>
      <path id="Path_12482" data-name="Path 12482" d="M621.647,1954.6c.5.81.882,1.4,1.089,1.728l-.351.063c5.041,7.048,5.05,17.706,2.313,23.179l-19.65-32.108a3.526,3.526,0,0,1,1.161-4.861,4.481,4.481,0,0,1,.549-.279c2.106-.819,4.942-2,8.254-3.547a11.846,11.846,0,0,0,.144,1.188,17.531,17.531,0,0,0,.621,2.556c.063.216.135.441.216.666.3.891.657,1.8,1.044,2.709a69.708,69.708,0,0,0,3.493,6.841c.207.351.4.675.585.99S621.476,1954.326,621.647,1954.6Z" transform="translate(-570.025 -1554.671)" fill="none" stroke="#231f20" stroke-width="1"/>
      <path id="Path_12483" data-name="Path 12483" d="M875.166,1810.628l.225.009,54.684,1.746,13.34.423,5.86,61.66.054.54H826.117l.072-.54,8.317-65.134,13.448.441" transform="translate(-592.153 -1541.746)" fill="none" stroke="#231f20" stroke-width="1"/>
      <line id="Line_247" data-name="Line 247" y1="0.009" transform="translate(289.097 212.822)" fill="none" stroke="#231f20" stroke-width="1"/>
      <path id="Path_12484" data-name="Path 12484" d="M965.418,1634.093l12.215-6.391h20.55c-.459,17.535-10.289,62.6-49.526,80.923C957.415,1689.749,963.527,1664.527,965.418,1634.093Z" transform="translate(-604.39 -1523.608)" fill="none" stroke="#231f20" stroke-width="1"/>
      <path id="Path_12485" data-name="Path 12485" d="M875.217,1752.972a43.725,43.725,0,0,0,6.3,3.718,61.233,61.233,0,0,1-3.61,17.5" transform="translate(-597.056 -1536.117)" fill="none" stroke="#231f20" stroke-width="1"/>
      <line id="Line_248" data-name="Line 248" x1="7.138" y1="4.168" transform="translate(228.518 93.508)" fill="none" stroke="#231f20" stroke-width="1"/>
      <path id="Path_12486" data-name="Path 12486" d="M852,1809.488l-1.62-.054.837-3.5" transform="translate(-594.576 -1541.406)" fill="none" stroke="#231f20" stroke-width="1"/>
      <path id="Path_12487" data-name="Path 12487" d="M853.077,1598.732h103.2q.148,4.388.189,8.668.068,5.671-.063,11.153l7.426-4.33h35.583s2.493,82.048-68.492,106.235c-7.282,10.847-15.689,18.264-24.637,21.838a51.119,51.119,0,0,0,3.285,19.11l18.327.171.648,3.9h.009l4.213,25.879v.009l-8.722-.279-11.63-.369-34.331-1.1" transform="translate(-594.846 -1520.715)" fill="none" stroke="#231f20" stroke-width="1"/>
      <path id="Path_12488" data-name="Path 12488" d="M880.237,1846.023a8.543,8.543,0,0,1,1.449-.072l18.732.594a.832.832,0,0,1,.153.009,8.531,8.531,0,1,1-.693,17.049l-2.349-.072" transform="translate(-597.558 -1545.402)" fill="none" stroke="#231f20" stroke-width="1"/>
      <path id="Path_12489" data-name="Path 12489" d="M873.216,1850.9a.009.009,0,0,0-.009.009" transform="translate(-596.856 -1545.897)" fill="none" stroke="#231f20" stroke-width="1"/>
      <path id="Path_12490" data-name="Path 12490" d="M899.447,1865.482a14.324,14.324,0,0,1,.675,2.241v.009" transform="translate(-599.476 -1547.353)" fill="none" stroke="#231f20" stroke-width="1"/>
      <path id="Path_12491" data-name="Path 12491" d="M879.307,1850.789l.3-.027" transform="translate(-597.465 -1545.883)" fill="none" stroke="#231f20" stroke-width="1"/>
      <path id="Path_12492" data-name="Path 12492" d="M878.337,1850.849l.441-.027" transform="translate(-597.368 -1545.889)" fill="none" stroke="#231f20" stroke-width="1"/>
      <path id="Path_12493" data-name="Path 12493" d="M877.737,1850.879l.513-.027" transform="translate(-597.308 -1545.892)" fill="none" stroke="#231f20" stroke-width="1"/>
      <path id="Path_12494" data-name="Path 12494" d="M869.247,1850.622c1.242.144,2.448.225,3.565.261,1.575.045,2.971.018,4.051-.027" transform="translate(-596.46 -1545.869)" fill="none" stroke="#231f20" stroke-width="1"/>
      <path id="Path_12495" data-name="Path 12495" d="M867.287,1850.362c.585.1,1.17.171,1.746.234" transform="translate(-596.265 -1545.843)" fill="none" stroke="#231f20" stroke-width="1"/>
      <path id="Path_12496" data-name="Path 12496" d="M864.657,1849.852c.387.1.783.18,1.17.252" transform="translate(-596.002 -1545.792)" fill="none" stroke="#231f20" stroke-width="1"/>
      <path id="Path_12497" data-name="Path 12497" d="M862.067,1849.122c.567.2,1.143.36,1.728.513" transform="translate(-595.743 -1545.719)" fill="none" stroke="#231f20" stroke-width="1"/>
      <path id="Path_12498" data-name="Path 12498" d="M895.62,1865.752l-41.253-5.527a76.673,76.673,0,0,0,1.332-14.483" transform="translate(-594.974 -1545.381)" fill="none" stroke="#231f20" stroke-width="1"/>
      <path id="Path_12499" data-name="Path 12499" d="M860.7,1719.93a30.7,30.7,0,0,0,5.212-1.548" transform="translate(-595.607 -1532.663)" fill="none" stroke="#231f20" stroke-width="1"/>
      <path id="Path_12500" data-name="Path 12500" d="M875.679,1842.442c-.045,0-.09.009-.144.009l-.3.027-.432.027-.441.027h-.027l-.513.027H873.8c-1.071.045-2.466.072-4.042.018-1.116-.036-2.331-.117-3.574-.252h-.018c-.576-.072-1.152-.144-1.746-.234-.4-.063-.8-.135-1.2-.207s-.783-.162-1.17-.252c-.207-.045-.405-.1-.6-.144q-.878-.23-1.728-.513a15.978,15.978,0,0,1-5.6-3.042,147.241,147.241,0,0,0-3.3-32.279c-.243-1.161-.5-2.349-.783-3.556a198.856,198.856,0,0,0-11.477-34.565" transform="translate(-593.396 -1537.571)" fill="none" stroke="#231f20" stroke-width="1"/>
      <path id="Path_12501" data-name="Path 12501" d="M869.257,1717.142c1.161,6.058,3.3,17.814,5.365,32.252.945,6.607,1.872,13.772,2.691,21.216,1.089,10.019,1.962,20.523,2.385,30.821v.009a239.483,239.483,0,0,1-.558,31.721q-.2,2.147-.459,4.213l.063.036h.009l9.55,4.51a15.719,15.719,0,0,1,8.128,8.75" transform="translate(-596.461 -1532.54)" fill="none" stroke="#231f20" stroke-width="1"/>
      <path id="Path_12502" data-name="Path 12502" d="M856.677,1642.1a59.2,59.2,0,0,1,8.092-.009c-4.285,12.7-7.165,27.535-3.069,41.965" transform="translate(-595.205 -1525.031)" fill="none" stroke="#231f20" stroke-width="1"/>
      <path id="Path_12503" data-name="Path 12503" d="M824.567,1651.914a5.321,5.321,0,0,0,4.285-5.221v-4.672h.009" transform="translate(-591.999 -1525.038)" fill="none" stroke="#231f20" stroke-width="1"/>
      <path id="Path_12504" data-name="Path 12504" d="M823.857,1656.463c.162-.531.306-1.071.414-1.611" transform="translate(-591.928 -1526.319)" fill="none" stroke="#231f20" stroke-width="1"/>
      <path id="Path_12505" data-name="Path 12505" d="M820.327,1662.157a13.769,13.769,0,0,0,1.8-2.394c.144-.243.279-.486.414-.729a15.373,15.373,0,0,0,.684-1.521" transform="translate(-591.575 -1526.585)" fill="none" stroke="#231f20" stroke-width="1"/>
      <path id="Path_12506" data-name="Path 12506" d="M811.487,1667.332c.387-.081.765-.171,1.125-.27" transform="translate(-590.693 -1527.539)" fill="none" stroke="#231f20" stroke-width="1"/>
      <path id="Path_12507" data-name="Path 12507" d="M807.977,1667.809c.684-.045,1.332-.117,1.953-.207" transform="translate(-590.342 -1527.593)" fill="none" stroke="#231f20" stroke-width="1"/>
      <path id="Path_12508" data-name="Path 12508" d="M799.387,1657.2c.585.693,1.143,1.359,1.683,2" transform="translate(-589.484 -1526.554)" fill="none" stroke="#231f20" stroke-width="1"/>
      <path id="Path_12509" data-name="Path 12509" d="M792.427,1661.228a14.488,14.488,0,0,0,4.411-3.916" transform="translate(-588.789 -1526.565)" fill="none" stroke="#231f20" stroke-width="1"/>
      <path id="Path_12510" data-name="Path 12510" d="M797.511,1723.4c-.225.207-.441.432-.666.666,1.611-38.4-30.4-51.407-30.4-51.407a36.51,36.51,0,0,1,5.509-3.132" transform="translate(-586.195 -1527.784)" fill="none" stroke="#231f20" stroke-width="1"/>
      <path id="Path_12511" data-name="Path 12511" d="M861.812,1688.722l14.384,18.759a24.543,24.543,0,0,1-8.092,6.823c-.81.405-1.647.774-2.493,1.116a30.7,30.7,0,0,1-5.212,1.548c-.891.18-1.782.324-2.691.423" transform="translate(-595.308 -1529.702)" fill="none" stroke="#231f20" stroke-width="1"/>
      <path id="Path_12512" data-name="Path 12512" d="M853.31,1634.173v.009l.009.072c-9.659.648-17.193,3.087-24.61-.081q-.338-9.667-1.206-19.308-.824-9.263-2.133-18.48c-.945-6.688-1.836-11.522-2.277-13.8a2.518,2.518,0,0,1,.81-2.34,9.9,9.9,0,0,0,1.962-12.017,2.46,2.46,0,0,1-.306-1.188,2.5,2.5,0,0,1,1.386-2.232c5.338-2.665,15.68-2.8,19.767,11.72a138.211,138.211,0,0,1,3.367,18.678c2.25,17.8,3.2,38.364,3.232,38.967" transform="translate(-591.847 -1517.189)" fill="none" stroke="#231f20" stroke-width="1"/>
      <path id="Path_12513" data-name="Path 12513" d="M779.3,1800.126c26.14-38.625,18.84-70.976,18.84-70.976.216-.225.441-.45.657-.666,13.394-13.007,34.1-5.7,51.083-7.921" transform="translate(-587.478 -1532.872)" fill="none" stroke="#231f20" stroke-width="1"/>
      <path id="Path_12514" data-name="Path 12514" d="M851.478,1720.572c-3.754,13.655-10.109,28.336-17.238,42.262v.009c-16.6,32.468-37.338,60.895-38.913,63.046" transform="translate(-589.079 -1532.882)" fill="none" stroke="#231f20" stroke-width="1"/>
      <path id="Path_12515" data-name="Path 12515" d="M815.574,1648.822c.234-.234.468-.468.693-.711a18.694,18.694,0,0,0,1.836-2.349l.387.261,3.448,6.265a14.653,14.653,0,0,1-.225,1.656,14.083,14.083,0,0,1-.414,1.611c-.081.261-.18.531-.279.783a13.541,13.541,0,0,1-.684,1.521q-.189.365-.405.729a13.082,13.082,0,0,1-1.809,2.394,14.469,14.469,0,0,1-6.832,3.952c-.36.1-.738.189-1.125.27s-.792.153-1.206.216c-.621.1-1.269.171-1.953.216v-.009c-.99-1.3-2.214-2.871-3.664-4.672-.729-.909-1.53-1.872-2.385-2.9-.531-.648-1.1-1.314-1.683-2-.342-.387-.684-.792-1.035-1.2" transform="translate(-589.369 -1525.412)" fill="none" stroke="#231f20" stroke-width="1"/>
      <path id="Path_12516" data-name="Path 12516" d="M801.137,1654.873a19.2,19.2,0,0,0,4.312-.09,18.464,18.464,0,0,0,3.835-.981" transform="translate(-589.659 -1526.215)" fill="none" stroke="#231f20" stroke-width="1"/>
      <path id="Path_12517" data-name="Path 12517" d="M823.637,1627.332v.018a25.55,25.55,0,0,1,.468,4.753" transform="translate(-591.906 -1523.571)" fill="none" stroke="#231f20" stroke-width="1"/>
      <path id="Path_12518" data-name="Path 12518" d="M801.957,1619.744a19.967,19.967,0,0,0,1.728-1.908,6.606,6.606,0,0,1,.531-.594" transform="translate(-589.741 -1522.564)" fill="none" stroke="#231f20" stroke-width="1"/>
      <path id="Path_12519" data-name="Path 12519" d="M777.642,1633.651a26.1,26.1,0,0,1-.675-4.069" transform="translate(-587.245 -1523.796)" fill="none" stroke="#231f20" stroke-width="1"/>
      <path id="Path_12520" data-name="Path 12520" d="M784.09,1640.47c-.765-.783-1.548-1.584-2.358-2.394-.4-.405-.81-.81-1.224-1.224" transform="translate(-587.599 -1524.522)" fill="none" stroke="#231f20" stroke-width="1"/>
      <path id="Path_12521" data-name="Path 12521" d="M794.857,1652.057c-.594-.675-1.206-1.359-1.836-2.061-2.2-2.458-4.618-5.068-7.264-7.8" transform="translate(-588.123 -1525.055)" fill="none" stroke="#231f20" stroke-width="1"/>
      <path id="Path_12522" data-name="Path 12522" d="M821.429,1632.632v.009a20.911,20.911,0,0,1-3.466,11.81,17.9,17.9,0,0,1-1.836,2.349c-.225.243-.45.486-.693.711a18.8,18.8,0,0,1-6.58,4.177,17.726,17.726,0,0,1-8.146,1.071,17.247,17.247,0,0,1-2.034-.288l-1.836-.369" transform="translate(-589.23 -1524.101)" fill="none" stroke="#231f20" stroke-width="1"/>
      <path id="Path_12523" data-name="Path 12523" d="M818.967,1625.111a17.987,17.987,0,0,0-9.461-10.406,6.865,6.865,0,0,0-7.8,1.323,5.729,5.729,0,0,0-.54.594,20.928,20.928,0,0,1-1.719,1.908c-3.646,3.556-10.352,7.651-22.333,8.6l-.162.009c-.747-9.01,3.466-17.895,13.178-21.009,10.046-3.222,19.488,1.4,24.808,9.29a25.966,25.966,0,0,1,4.024,9.695" transform="translate(-587.236 -1521.35)" fill="none" stroke="#231f20" stroke-width="1"/>
      <path id="Path_12524" data-name="Path 12524" d="M787.983,1648.281c.441.5.855.972,1.26,1.449a11.716,11.716,0,0,1-.819,1.3,14.055,14.055,0,0,1-4.411,3.916c-4.789,2.844-11.378,4.033-17.877,7.075-18.165-21.9-42.793-40.7-52.5-47.726a13.32,13.32,0,0,1-5.221-8.092,11.712,11.712,0,0,1-.252-2.448,12.143,12.143,0,0,1,3.673-8.7,2.494,2.494,0,0,1,3.276-.144l.09.072a16.025,16.025,0,0,0,14.726,2.755,2.437,2.437,0,0,1,2.133.342,304.631,304.631,0,0,1,38.706,32.054c.855.828,1.692,1.656,2.511,2.475l1.224,1.224c.8.8,1.584,1.6,2.358,2.394.378.4.765.792,1.143,1.188,2.637,2.736,5.059,5.356,7.264,7.8.63.7,1.242,1.386,1.836,2.061.3.342.585.675.873,1" transform="translate(-580.375 -1520.279)" fill="none" stroke="#231f20" stroke-width="1"/>
      <path id="Path_12525" data-name="Path 12525" d="M792.7,1834.715a.968.968,0,0,0-.1.126l.342,3.042a26.968,26.968,0,0,1,.3,4c0,6.913-1.89,13.628-6.661,18.759l-17.571-39.489a144.714,144.714,0,0,0,9.262-12.188C777.306,1816.487,790.529,1832.213,792.7,1834.715Z" transform="translate(-586.451 -1541.708)" fill="none" stroke="#231f20" stroke-width="1"/>
      <path id="Path_12526" data-name="Path 12526" d="M793.507,1941.209v-59.517H979.189v84.118H793.507Z" transform="translate(-588.897 -1548.971)" fill="none" stroke="#231f20" stroke-width="1"/>
      <path id="Path_12527" data-name="Path 12527" d="M865.577,1662.881a27.859,27.859,0,1,1,27.859,27.868A27.863,27.863,0,0,1,865.577,1662.881Z" transform="translate(-596.094 -1524.339)" fill="none" stroke="#231f20" stroke-width="1"/>
      <path id="Path_12528" data-name="Path 12528" d="M936.214,1925.995a12.775,12.775,0,0,1-12.773,12.773H870.36a12.773,12.773,0,1,1,0-25.546h53.081A12.775,12.775,0,0,1,936.214,1925.995Z" transform="translate(-595.296 -1552.12)" fill="none" stroke="#231f20" stroke-width="1"/>
      <line id="Line_249" data-name="Line 249" x2="10.073" y2="5.752" transform="translate(130.465 76.892)" fill="none" stroke="#231f20" stroke-linecap="round" stroke-width="1"/>
      <line id="Line_250" data-name="Line 250" x2="7.624" y2="4.366" transform="translate(128.557 82.644)" fill="none" stroke="#231f20" stroke-linecap="round" stroke-width="1"/>
      <line id="Line_251" data-name="Line 251" x2="1.818" y2="11.936" transform="translate(239.068 46.962)" fill="none" stroke="#231f20" stroke-linecap="round" stroke-width="1"/>
      <line id="Line_252" data-name="Line 252" x2="1.71" y2="9.632" transform="translate(245.18 47.565)" fill="none" stroke="#231f20" stroke-linecap="round" stroke-width="1"/>
      <line id="Line_253" data-name="Line 253" x2="9.343" y2="5.338" transform="translate(23.574 205.756)" fill="none" stroke="#231f20" stroke-linecap="round" stroke-width="1"/>
      <line id="Line_316" data-name="Line 316" x2="9.343" y2="5.338" transform="translate(21.574 210.756)" fill="none" stroke="#231f20" stroke-linecap="round" stroke-width="1"/>
      <line id="Line_254" data-name="Line 254" x1="3.646" y2="10.127" transform="translate(168.757 186.583)" fill="none" stroke="#231f20" stroke-linecap="round" stroke-width="1"/>
      <line id="Line_255" data-name="Line 255" x1="4.483" y2="11.99" transform="translate(163.141 183.9)" fill="none" stroke="#231f20" stroke-linecap="round" stroke-width="1"/>
      <line id="Line_256" data-name="Line 256" x2="5.185" y2="11.018" transform="translate(429.565 170.524)" fill="none" stroke="#231f20" stroke-linecap="round" stroke-width="1"/>
      <line id="Line_257" data-name="Line 257" x2="4.177" y2="9.145" transform="translate(424.704 173.675)" fill="none" stroke="#231f20" stroke-linecap="round" stroke-width="1"/>
      <line id="Line_258" data-name="Line 258" x1="8.443" y2="6.679" transform="translate(567.484 197.15)" fill="none" stroke="#231f20" stroke-linecap="round" stroke-width="1"/>
      <line id="Line_259" data-name="Line 259" x1="8.515" y2="6.58" transform="translate(565.468 191.624)" fill="none" stroke="#231f20" stroke-linecap="round" stroke-width="1"/>
    </g>
  </g>
</svg>
