<svg xmlns="http://www.w3.org/2000/svg" xmlns:xlink="http://www.w3.org/1999/xlink" width="469.724" height="428.748" viewBox="0 0 469.724 428.748">
  <defs>
    <linearGradient id="linear-gradient" x1="0.277" y1="0.395" x2="1.173" y2="0.808" gradientUnits="objectBoundingBox">
      <stop offset="0" stop-color="#00c8c8"/>
      <stop offset="0.128" stop-color="#02c3c7"/>
      <stop offset="0.266" stop-color="#09b6c7"/>
      <stop offset="0.41" stop-color="#15a0c7"/>
      <stop offset="0.557" stop-color="#2682c7"/>
      <stop offset="0.705" stop-color="#3b5bc7"/>
      <stop offset="0.775" stop-color="#4747c7"/>
    </linearGradient>
    <linearGradient id="linear-gradient-2" y1="0.5" x2="1" y2="0.5" gradientUnits="objectBoundingBox">
      <stop offset="0" stop-color="#8effff"/>
      <stop offset="0.042" stop-color="#93f9f3"/>
      <stop offset="0.247" stop-color="#ade0be"/>
      <stop offset="0.44" stop-color="#c2cc94"/>
      <stop offset="0.613" stop-color="#d0be76"/>
      <stop offset="0.761" stop-color="#d9b664"/>
      <stop offset="0.867" stop-color="#ddb35e"/>
    </linearGradient>
    <linearGradient id="linear-gradient-3" x1="2.606" y1="21.644" x2="3.187" y2="21.644" gradientUnits="objectBoundingBox">
      <stop offset="0" stop-color="#85b8e3"/>
      <stop offset="1" stop-color="#333a8d"/>
    </linearGradient>
    <linearGradient id="linear-gradient-4" x1="18.906" y1="-10.542" x2="20.182" y2="-10.542" gradientUnits="objectBoundingBox">
      <stop offset="0" stop-color="#97cbee"/>
      <stop offset="1" stop-color="#7b2d8b"/>
    </linearGradient>
    <linearGradient id="linear-gradient-5" x1="-2.749" y1="0.5" x2="-1.749" y2="0.5" gradientUnits="objectBoundingBox">
      <stop offset="0" stop-color="#f15e5d"/>
      <stop offset="1" stop-color="#f5895d"/>
    </linearGradient>
    <linearGradient id="linear-gradient-6" x1="6.877" y1="-7.074" x2="8.54" y2="-7.074" xlink:href="#linear-gradient-5"/>
    <linearGradient id="linear-gradient-7" x1="0.069" y1="-28.352" x2="0.65" y2="-28.352" xlink:href="#linear-gradient-3"/>
    <linearGradient id="linear-gradient-8" x1="27.826" y1="-30.648" x2="29.102" y2="-30.648" xlink:href="#linear-gradient-4"/>
    <linearGradient id="linear-gradient-9" x1="-35.182" y1="0.5" x2="-34.182" y2="0.5" xlink:href="#linear-gradient-5"/>
    <linearGradient id="linear-gradient-10" x1="-66.223" y1="11.505" x2="-64.561" y2="11.505" xlink:href="#linear-gradient-5"/>
    <linearGradient id="linear-gradient-11" y1="0.5" x2="1" y2="0.5" gradientUnits="objectBoundingBox">
      <stop offset="0" stop-color="#8effff"/>
      <stop offset="0.028" stop-color="#93f9f3"/>
      <stop offset="0.164" stop-color="#ade0be"/>
      <stop offset="0.291" stop-color="#c2cc94"/>
      <stop offset="0.405" stop-color="#d0be76"/>
      <stop offset="0.503" stop-color="#d9b664"/>
      <stop offset="0.573" stop-color="#ddb35e"/>
    </linearGradient>
    <linearGradient id="linear-gradient-13" x1="0.035" y1="0.644" x2="1.012" y2="0.422" gradientUnits="objectBoundingBox">
      <stop offset="0" stop-color="#8effff"/>
      <stop offset="0.024" stop-color="#93f9f3"/>
      <stop offset="0.145" stop-color="#ade0be"/>
      <stop offset="0.257" stop-color="#c2cc94"/>
      <stop offset="0.358" stop-color="#d0be76"/>
      <stop offset="0.445" stop-color="#d9b664"/>
      <stop offset="0.507" stop-color="#ddb35e"/>
    </linearGradient>
    <linearGradient id="linear-gradient-14" x1="-0.019" y1="0.305" x2="0.764" y2="0.547" gradientUnits="objectBoundingBox">
      <stop offset="0" stop-color="#00c8c8"/>
      <stop offset="0.045" stop-color="#05bec7"/>
      <stop offset="0.259" stop-color="#1c93c7"/>
      <stop offset="0.466" stop-color="#2f72c7"/>
      <stop offset="0.663" stop-color="#3c5ac7"/>
      <stop offset="0.846" stop-color="#444bc7"/>
      <stop offset="1" stop-color="#4747c7"/>
    </linearGradient>
    <linearGradient id="linear-gradient-15" x1="-2.34" y1="0.73" x2="0.709" y2="0.476" gradientUnits="objectBoundingBox">
      <stop offset="0" stop-color="#ddb35e"/>
      <stop offset="0.458" stop-color="#ddb15e"/>
      <stop offset="0.623" stop-color="#e0aa5f"/>
      <stop offset="0.741" stop-color="#e59e61"/>
      <stop offset="0.836" stop-color="#ec8d63"/>
      <stop offset="0.917" stop-color="#f47767"/>
      <stop offset="0.984" stop-color="#ff5f6b"/>
    </linearGradient>
    <linearGradient id="linear-gradient-16" x1="-1.04" y1="0.851" x2="0.449" y2="0.503" xlink:href="#linear-gradient-15"/>
    <linearGradient id="linear-gradient-17" y1="0.5" x2="1" y2="0.5" gradientUnits="objectBoundingBox">
      <stop offset="0" stop-color="#00c8c8"/>
      <stop offset="0.128" stop-color="#03c8c8"/>
      <stop offset="0.251" stop-color="#0fcbcb"/>
      <stop offset="0.373" stop-color="#22cfcf"/>
      <stop offset="0.494" stop-color="#3ed5d5"/>
      <stop offset="0.614" stop-color="#61dddd"/>
      <stop offset="0.733" stop-color="#8ce6e6"/>
      <stop offset="0.852" stop-color="#bff1f1"/>
      <stop offset="0.968" stop-color="#f9fdfd"/>
      <stop offset="0.978" stop-color="#fff"/>
    </linearGradient>
    <linearGradient id="linear-gradient-18" y1="0.5" x2="1" y2="0.5" gradientUnits="objectBoundingBox">
      <stop offset="0" stop-color="#f15e5d"/>
      <stop offset="1" stop-color="#ddb35e"/>
    </linearGradient>
  </defs>
  <g id="Component_15_1" data-name="Component 15 – 1" transform="translate(0.519 0.521)">
    <g id="Group_1094" data-name="Group 1094">
      <g id="Group_1092" data-name="Group 1092" transform="translate(58.04 79.111)">
        <path id="Path_12598" data-name="Path 12598" d="M572.956,2255.516l-4.609,3.837c.353-1.6.688-3.14,1.008-4.652Z" transform="translate(-177.1 -2243.09)"/>
        <path id="Path_12599" data-name="Path 12599" d="M563.1,2252.559l3.283.747c-.319,1.511-.655,3.056-1.008,4.652l-.814.68.193,2.107c-.294,1.318-.6,2.678-.9,4.072l-4.626-2.914-6.49,2.779,1.738-6.843-4.651-5.306,7.044-.462,3.61-6.071Z" transform="translate(-174.129 -2241.695)"/>
        <path id="Path_12600" data-name="Path 12600" d="M567.435,2263.562l.445,4.92-1.343-.848C566.839,2266.24,567.141,2264.88,567.435,2263.562Z" transform="translate(-176.809 -2244.511)"/>
        <path id="Path_12601" data-name="Path 12601" d="M542,2252.841l-5.424,4.517.638,7.028-5.97-3.77-6.49,2.787,1.738-6.843-4.651-5.315,7.044-.462,3.619-6.062,2.611,6.558Z" transform="translate(-169.64 -2241.49)"/>
        <path id="Path_12602" data-name="Path 12602" d="M514.006,2251.561l-5.424,4.509.646,7.036-5.978-3.77-6.482,2.779,1.738-6.843-4.66-5.306,7.044-.462,3.619-6.062,2.611,6.557Z" transform="translate(-165.15 -2241.285)"/>
        <path id="Path_12603" data-name="Path 12603" d="M486.026,2250.271l-5.432,4.517.647,7.027-5.97-3.761-6.49,2.779,1.738-6.843-4.651-5.307,7.044-.462,3.61-6.07,2.62,6.557Z" transform="translate(-160.662 -2241.077)"/>
        <path id="Path_12604" data-name="Path 12604" d="M458.036,2248.991,452.6,2253.5l.646,7.036-5.97-3.77-6.49,2.787,1.738-6.843-4.651-5.315,7.044-.462,3.61-6.062,2.62,6.557Z" transform="translate(-156.173 -2240.872)"/>
        <path id="Path_12605" data-name="Path 12605" d="M548.367,2530.183a3.289,3.289,0,0,1,1.083,4.534l-18.328,29.957c-2.552-5.113-2.544-15.054,2.158-21.628l-.336-.058c1-1.528,6.4-9.967,7.137-15.676.705.151,1.52.269,2.418.37,2.1.932,3.913,1.679,5.357,2.242A4.231,4.231,0,0,1,548.367,2530.183Z" transform="translate(-170.856 -2286.816)"/>
        <path id="Path_12606" data-name="Path 12606" d="M509.9,2389.562c15.088,20.243,2.762,33.962-20.419,22.3l-.277-.126a29.687,29.687,0,0,1,3.241-3.979,30.451,30.451,0,0,1,2.838-2.561c.672-.52,1.36-1.024,2.074-1.494s1.436-.89,2.183-1.293a29.451,29.451,0,0,1,5.936-2.385l-3.266-1.763c.126-.151.243-.294.361-.437C504.924,2395.011,507.384,2392.249,509.9,2389.562Z" transform="translate(-164.406 -2264.721)"/>
        <path id="Path_12607" data-name="Path 12607" d="M492.609,2349.995a22.494,22.494,0,0,1-.151,9.018c-.05.227-.109.462-.168.688-.344.336-.688.68-1.033,1.024-1.033,1.008-2.04,2.007-3.006,3-20.688-1.637-20.024-21.141-20.024-21.141s-10.865,1.134-14.5,11.452c2.368-12.292,14.114-21.813,26.9-17.716a17.094,17.094,0,0,1,10.629,9.354v.008C491.727,2347.241,492.156,2348.635,492.609,2349.995Z" transform="translate(-158.715 -2256.026)"/>
        <path id="Path_12608" data-name="Path 12608" d="M420.7,2583.419a2.8,2.8,0,0,1-2.326,3.208l-34.642,5.625v-.009c0-8.094,15.037-13.719,16.4-14.206.1.008.21.017.336.017l.4.025h.008l.47.025a59.173,59.173,0,0,0,8.564-.185q.542-.05,1.083-.126c.6-.084,1.209-.185,1.788-.3.244-.05.5-.1.73-.16a9.665,9.665,0,0,0,4.66-2.2c.865,3.258,1.73,5.919,2.4,7.8A4.544,4.544,0,0,1,420.7,2583.419Z" transform="translate(-147.489 -2294.486)"/>
        <path id="Path_12609" data-name="Path 12609" d="M387.951,2539.7c.655,3.358,1.4,6.541,2.191,9.5-4.71,1.813-11.125,2.015-18.345-3.887l.008-.269A21.8,21.8,0,0,1,387.951,2539.7Z" transform="translate(-145.574 -2288.788)"/>
        <path id="Path_12610" data-name="Path 12610" d="M368.666,2531a13.865,13.865,0,0,1,8.035.058s-3.761,12.821-16.507,9.446a1.75,1.75,0,0,0-.21.126c-.395.235-.856.479-1.36.714l-.428.2c-.269.1-.756.294-.957.378-.017,0-.025.009-.034.009a.254.254,0,0,0-.067.017c-.386.277-.16.394.243.445.025,0,.05.008.076.008q-.718.642-1.436,1.259c-.269-.025-.537-.059-.814-.092v-1.822a5.044,5.044,0,0,0,.621-.143c.369-.092.722-.2,1.075-.327.353-.109.68-.26,1.008-.386a15.223,15.223,0,0,0,1.7-.873,3.717,3.717,0,0,1,.344-.21c.118-.042.235-.093.344-.135h.025C361.059,2537.7,363.4,2532.675,368.666,2531Z" transform="translate(-142.913 -2287.318)"/>
        <path id="Path_12611" data-name="Path 12611" d="M361.395,2525.225c.218.084.428.167.646.26a35.326,35.326,0,0,1-6.834,7.027v-6.859c.134-.638.243-1.276.336-1.931a22.318,22.318,0,0,1,5.81,1.5Z" transform="translate(-142.913 -2286.24)"/>
        <path id="Path_12612" data-name="Path 12612" d="M359.069,2549.841c20.5-1.1,22.569,13.82,22.569,13.82-21.477-1.545-22.862-10.344-22.77-13.039-.235-.21-.479-.428-.739-.663-.428-.369-.882-.764-1.335-1.15-.546-.462-1.091-.932-1.587-1.352v-.479c.092-.075.176-.151.269-.227.546.47,1.167.991,1.788,1.528.453.386.924.781,1.352,1.15C358.767,2549.573,358.918,2549.707,359.069,2549.841Z" transform="translate(-142.913 -2289.934)"/>
        <path id="Path_12613" data-name="Path 12613" d="M360.32,2567.1a20.531,20.531,0,0,1-5.113-.831v-11.5A23.16,23.16,0,0,1,360.32,2567.1Z" transform="translate(-142.913 -2291.219)"/>
        <path id="Path_12614" data-name="Path 12614" d="M309.269,2485.581v.009a24.481,24.481,0,0,0-4.181-.353H200.3v-18.765H309.269v19.109Z" transform="translate(-118.066 -2277.058)"/>
        <path id="Path_12615" data-name="Path 12615" d="M164.113,2538.882v.9c-.361.269-.7.521-1,.756a2.381,2.381,0,0,1-.285.218c-.034.017-.067.025-.1.042a22.011,22.011,0,0,1-1.755,9.227c-4.559,10.176-16.456,10.184-16.456,10.184,1.041-8.153,4.928-12.955,8.849-15.759a22.6,22.6,0,0,1,8.64-3.77c.05-.068.092-.135.151-.21.076-.084.143-.168.218-.26s.2-.143.294-.227c.411-.319.89-.68,1.411-1.074C164.088,2538.9,164.1,2538.89,164.113,2538.882Z" transform="translate(-109.119 -2288.672)"/>
        <path id="Path_12616" data-name="Path 12616" d="M160.984,2534.079v1.47c-.89.235-1.772.453-2.662.68-1.259.268-2.494.537-3.7.8l-1.8.378c-.588.118-1.184.2-1.763.3-1.058.168-2.074.336-3.073.5-.042.067-.084.127-.143.21s-.109.159-.168.244c-.059.1-.16.134-.244.219-.2.167-.411.352-.646.554-.185-.151-.369-.311-.554-.47.26-.218.512-.429.73-.622-.428.059-.856.109-1.276.151l-1.2.151a28.917,28.917,0,0,1-2.939.286c-.94.017-1.83.034-2.662.042-1.679-.017-3.132-.05-4.332-.134-.772-.05-1.436-.109-1.981-.159l-.008-.269c.554-.033,1.209-.075,1.99-.135.6-.025,1.251-.1,1.965-.168s1.486-.126,2.3-.235,1.7-.227,2.611-.344c.9-.109,1.839-.167,2.821-.294.025,0,.05-.009.076-.009.4-.051.814-.092,1.234-.142-.336-.085-.663-.185-.991-.294-.369-.117-.705-.277-1.05-.411-.151-.067-.3-.134-.453-.21a11.6,11.6,0,0,1-1.335-.7,1.72,1.72,0,0,0-.218-.118c-12.737,3.366-16.507-9.454-16.507-9.454a13.921,13.921,0,0,1,8.027-.067c5.273,1.679,7.624,6.708,8.354,8.681.008,0,.008.009.017.009.109.033.227.084.353.134s.21.143.336.2a14.055,14.055,0,0,0,1.7.873c.327.126.663.286,1.008.395s.705.226,1.075.319c.353.1.722.167,1.083.235a7.7,7.7,0,0,0,.848.117c.982-.16,1.981-.319,3.006-.487.571-.1,1.159-.185,1.746-.294.579-.126,1.175-.252,1.772-.387,1.192-.251,2.418-.512,3.652-.781C158.952,2534.591,159.977,2534.348,160.984,2534.079Z" transform="translate(-105.99 -2286.489)"/>
        <path id="Path_12617" data-name="Path 12617" d="M163.785,2526.841v3.35c-11,4.954-21.318-9.9-21.318-9.9,10.453-4.408,17.4-.2,21.133,3.576h.185Z" transform="translate(-108.79 -2285.388)"/>
        <path id="Path_12618" data-name="Path 12618" d="M145.289,2541.582c.185.159.369.319.554.47-.563.487-1.209,1.041-1.864,1.6-.462.378-.915.772-1.343,1.142-.26.235-.5.462-.739.671.092,2.687-1.293,11.495-22.77,13.031,0,0,2.065-14.92,22.577-13.82.143-.135.294-.269.453-.411.428-.37.89-.764,1.352-1.15C144.13,2542.581,144.743,2542.052,145.289,2541.582Z" transform="translate(-105.047 -2289.105)"/>
        <path id="Path_12619" data-name="Path 12619" d="M128.93,2539.884l.008.268c-15.046,12.309-26.582-1.914-26.582-1.914C116.63,2529.414,127.52,2538.6,128.93,2539.884Z" transform="translate(-102.357 -2287.961)"/>
      </g>
      <g id="Group_1093" data-name="Group 1093">
        <path id="Path_12620" data-name="Path 12620" d="M463.622,2176.912a1.327,1.327,0,0,1,1.36-.294l7.708,2.729,6.633-4.8a1.311,1.311,0,0,1,1.385-.1c.008,0,.008.008.017.008a1.323,1.323,0,0,1,.688,1.193l-.218,8.186,6.616,4.811a1.313,1.313,0,0,1-.395,2.326l-7.85,2.326-2.536,7.783a1.322,1.322,0,0,1-1.066.9,1.338,1.338,0,0,1-1.268-.554l-4.635-6.75-8.195-.009a1.3,1.3,0,0,1-1.175-.73,1.333,1.333,0,0,1,.134-1.385l4.987-6.49-2.527-7.791A1.325,1.325,0,0,1,463.622,2176.912Z" transform="translate(-101.77 -2151.082)" fill="none" stroke="#000" stroke-width="1"/>
        <path id="Path_12621" data-name="Path 12621" d="M110.687,2293.787a.963.963,0,0,1,.714.722l1.343,5.8,5.55,2.175a.955.955,0,0,1,.6.814c.008.009.008.009.008.017a.965.965,0,0,1-.462.881l-5.1,3.073-.361,5.953a.958.958,0,0,1-1.587.663l-4.492-3.9-5.768,1.495a.966.966,0,0,1-.966-.294.982.982,0,0,1-.235-.562,1.016,1.016,0,0,1,.076-.445l2.317-5.483-3.207-5.021a.99.99,0,0,1-.143-.453.925.925,0,0,1,.134-.554.949.949,0,0,1,.907-.461l5.936.512,3.787-4.6A.941.941,0,0,1,110.687,2293.787Z" transform="translate(-43.772 -2170.244)" fill="none" stroke="#000" stroke-width="1"/>
        <path id="Path_12622" data-name="Path 12622" d="M357.618,2159.086l-3.132,3.929a1.2,1.2,0,0,0,.378,1.813,1.317,1.317,0,0,0,.537.143l7.489.143,4.131,6.246a1.119,1.119,0,0,0,.437.4,1.2,1.2,0,0,0,1.7-.672l2.452-7.078,7.221-1.99a1.2,1.2,0,0,0,.856-.932,1.177,1.177,0,0,0-.453-1.184l-5.466-4.139-.5-.378.336-7.489a1.225,1.225,0,0,0-.63-1.108.026.026,0,0,1-.017-.009,1.219,1.219,0,0,0-1.251.076l-6.138,4.282-7.011-2.628a1.206,1.206,0,0,0-1.578,1.478l2.175,7.162Z" transform="translate(-84.715 -2146.648)" fill="none" stroke="#000" stroke-width="1"/>
        <path id="Path_12623" data-name="Path 12623" d="M469.251,2524.3c-15.852-.454-31.519-.672-46.464-.613" transform="translate(-95.712 -2207.123)" fill="none" stroke="#000" stroke-width="1"/>
        <path id="Path_12624" data-name="Path 12624" d="M36.637,2526.994c26.582,0,51.241-4.4,77.42-8.992" transform="translate(-33.776 -2206.211)" fill="none" stroke="#000" stroke-width="1"/>
        <path id="Path_12625" data-name="Path 12625" d="M375.917,2524.693q5.264-.239,10.772-.411" transform="translate(-88.195 -2207.219)" fill="none" stroke="#000" stroke-width="1"/>
        <path id="Path_12626" data-name="Path 12626" d="M564.593,2527.992s-12.7.537-20.058-.311c-.9-.1-1.713-.218-2.418-.37" transform="translate(-114.852 -2207.705)" fill="none" stroke="#000" stroke-width="1"/>
        <path id="Path_12627" data-name="Path 12627" d="M355.207,2554.761a23.16,23.16,0,0,1,5.113,12.334,20.531,20.531,0,0,1-5.113-.831" transform="translate(-84.873 -2212.107)" fill="none" stroke="#000" stroke-width="1"/>
        <path id="Path_12628" data-name="Path 12628" d="M355.207,2525.653c.134-.638.243-1.276.336-1.931a22.318,22.318,0,0,1,5.81,1.5h.042c.218.084.428.167.646.26a35.326,35.326,0,0,1-6.834,7.027" transform="translate(-84.873 -2207.129)" fill="none" stroke="#000" stroke-width="1"/>
        <path id="Path_12629" data-name="Path 12629" d="M355.207,2547.414c.5.42,1.041.89,1.587,1.352.453.386.907.781,1.335,1.15.26.235.5.453.739.663-.092,2.7,1.293,11.494,22.77,13.039,0,0-2.065-14.92-22.569-13.82-.151-.134-.3-.269-.453-.411-.428-.369-.9-.764-1.352-1.15-.621-.538-1.243-1.058-1.788-1.528-.092-.076-.185-.151-.269-.227" transform="translate(-84.873 -2210.779)" fill="none" stroke="#000" stroke-width="1"/>
        <path id="Path_12630" data-name="Path 12630" d="M357.627,2544.119a.275.275,0,0,0,.05-.017" transform="translate(-85.261 -2210.398)" fill="none" stroke="#000" stroke-width="1"/>
        <path id="Path_12631" data-name="Path 12631" d="M385.72,2539.7a21.8,21.8,0,0,0-16.146,5.348c-.554-.034-1.209-.076-1.99-.135-.588-.025-1.251-.1-1.956-.168-.714-.084-1.486-.134-2.309-.244s-1.688-.227-2.611-.344c-.9-.109-1.839-.159-2.821-.286" transform="translate(-85.303 -2209.677)" fill="none" stroke="#000" stroke-width="1"/>
        <path id="Path_12632" data-name="Path 12632" d="M355.207,2546.082c.277.034.546.068.814.093l1.2.151c1.024.092,2,.294,2.939.285.94.017,1.83.025,2.67.042,1.671-.025,3.132-.05,4.324-.143.781-.042,1.436-.1,1.981-.151,7.221,5.9,13.635,5.7,18.345,3.887" transform="translate(-84.873 -2210.715)" fill="none" stroke="#000" stroke-width="1"/>
        <path id="Path_12633" data-name="Path 12633" d="M357.457,2542.406c-.025,0-.05-.008-.076-.008-.4-.051-.63-.168-.243-.445a.254.254,0,0,1,.067-.017c.008,0,.017-.009.034-.009.2-.084.688-.277.957-.378l.428-.2c.5-.235.966-.479,1.36-.714a1.75,1.75,0,0,1,.21-.126c12.745,3.375,16.507-9.446,16.507-9.446a13.865,13.865,0,0,0-8.035-.058c-5.264,1.671-7.607,6.7-8.337,8.673H360.3c-.109.042-.227.093-.344.135a3.717,3.717,0,0,0-.344.21,15.223,15.223,0,0,1-1.7.873c-.327.126-.655.277-1.008.386-.353.126-.705.235-1.075.327a5.044,5.044,0,0,1-.621.143" transform="translate(-84.873 -2208.207)" fill="none" stroke="#000" stroke-width="1"/>
        <path id="Path_12634" data-name="Path 12634" d="M364.872,2462.516c14.307-34.273,9.085-70.821,8.388-69.679-1.2,2-34.155,11.846-57.463,39.461" transform="translate(-78.552 -2186.131)" fill="none" stroke="#000" stroke-width="1"/>
        <path id="Path_12635" data-name="Path 12635" d="M298.649,2465.912c-.084.159-.168.31-.252.47" transform="translate(-75.761 -2197.856)" fill="none" stroke="#000" stroke-width="1"/>
        <line id="Line_295" data-name="Line 295" x1="34.911" y2="57.74" transform="translate(249.244 224.195)" fill="none" stroke="#000" stroke-linecap="round" stroke-linejoin="round" stroke-width="0.687"/>
        <line id="Line_296" data-name="Line 296" x1="26.397" y2="13.677" transform="translate(256.985 255.722)" fill="none" stroke="#000" stroke-linecap="round" stroke-linejoin="round" stroke-width="0.687"/>
        <line id="Line_297" data-name="Line 297" x1="16.439" y2="5.986" transform="translate(251.72 271.876)" fill="none" stroke="#000" stroke-linecap="round" stroke-linejoin="round" stroke-width="0.687"/>
        <line id="Line_298" data-name="Line 298" x1="1.839" y2="21.813" transform="translate(264.356 234.169)" fill="none" stroke="#000" stroke-linecap="round" stroke-linejoin="round" stroke-width="0.687"/>
        <path id="Path_12636" data-name="Path 12636" d="M355.207,2546.446c.092-.076.176-.151.269-.227.185-.151.361-.311.546-.47q.718-.617,1.436-1.26c.386-.344.781-.7,1.167-1.058" transform="translate(-84.873 -2210.291)" fill="none" stroke="#000" stroke-width="1"/>
        <path id="Path_12637" data-name="Path 12637" d="M371.237,2525.833c1.411-1.738,2.72-3.518,3.921-5.315a.008.008,0,0,1,.008-.008A89.472,89.472,0,0,0,385.8,2498.2" transform="translate(-87.444 -2203.036)" fill="none" stroke="#000" stroke-width="1"/>
        <path id="Path_12638" data-name="Path 12638" d="M352.469,2505.462c-.16-.613-.344-1.226-.546-1.822a25.94,25.94,0,0,0-12.216-14.466,97.863,97.863,0,0,1,29-14c8.631-2.6,15.264-3.442,16.977-3.426" transform="translate(-82.387 -2198.793)" fill="none" stroke="#000" stroke-width="1"/>
        <path id="Path_12639" data-name="Path 12639" d="M355.159,2523.759c.134-.638.277-9.781-.252-11.847" transform="translate(-84.825 -2205.234)" fill="none" stroke="#000" stroke-width="1"/>
        <path id="Path_12640" data-name="Path 12640" d="M354.907,2507.461v-.008l23.282-23.291" transform="translate(-84.825 -2200.783)" fill="none" stroke="#000" stroke-linecap="round" stroke-linejoin="round" stroke-width="0.687"/>
        <line id="Line_299" data-name="Line 299" x1="3.107" y2="12.913" transform="translate(268.487 289.323)" fill="none" stroke="#000" stroke-linecap="round" stroke-linejoin="round" stroke-width="0.687"/>
        <path id="Path_12641" data-name="Path 12641" d="M295.187,2422.157c6.389-7.3,12.535-11.343,12.418-10.94-.269.874,4.45,10.991,4.887,24.03a53.04,53.04,0,0,1-.722,10.9" transform="translate(-75.246 -2189.079)" fill="none" stroke="#000" stroke-width="1"/>
        <path id="Path_12642" data-name="Path 12642" d="M311.173,2465.912c-.059.159-.118.31-.176.47" transform="translate(-77.782 -2197.856)" fill="none" stroke="#000" stroke-width="1"/>
        <path id="Path_12643" data-name="Path 12643" d="M277.074,2465.912c-.025.159-.05.319-.067.47" transform="translate(-72.33 -2197.856)" fill="none" stroke="#000" stroke-width="1"/>
        <line id="Line_300" data-name="Line 300" x1="0.05" y2="0.176" transform="translate(218.556 268.056)" fill="none" stroke="#000" stroke-linecap="round" stroke-linejoin="round" stroke-width="0.687"/>
        <line id="Line_301" data-name="Line 301" x1="3.526" y2="11.788" transform="translate(226.02 231.491)" fill="none" stroke="#000" stroke-linecap="round" stroke-linejoin="round" stroke-width="0.687"/>
        <path id="Path_12644" data-name="Path 12644" d="M163.6,2523.868c-3.736-3.778-10.68-7.985-21.133-3.576,0,0,10.319,14.852,21.318,9.9" transform="translate(-50.75 -2206.276)" fill="none" stroke="#000" stroke-width="1"/>
        <path id="Path_12645" data-name="Path 12645" d="M157.351,2535.549c-.89.235-1.772.453-2.662.68-1.259.268-2.494.537-3.7.8l-1.8.378c-.588.118-1.184.2-1.763.3-1.058.168-2.074.336-3.073.5-.042.067-.084.127-.143.21s-.109.159-.168.244c-.059.1-.16.134-.244.219-.2.167-.411.352-.646.554-.563.487-1.209,1.041-1.864,1.6-.462.377-.915.772-1.343,1.142-.26.235-.5.462-.739.672.092,2.687-1.293,11.494-22.77,13.031,0,0,2.065-14.92,22.577-13.82.143-.134.294-.269.453-.411.428-.37.89-.764,1.352-1.15.621-.529,1.234-1.058,1.78-1.528.26-.218.512-.429.73-.622-.428.059-.856.109-1.276.151l-1.2.151a28.916,28.916,0,0,1-2.939.286c-.94.017-1.83.034-2.662.042-1.679-.017-3.132-.05-4.332-.134-.772-.05-1.436-.109-1.981-.159-15.046,12.309-26.582-1.915-26.582-1.915,14.273-8.824,25.163.362,26.573,1.646.554-.033,1.209-.075,1.99-.135.6-.025,1.251-.1,1.965-.168s1.486-.126,2.3-.235,1.7-.227,2.611-.344c.9-.109,1.839-.167,2.821-.294.025,0,.05-.009.076-.009.4-.051.814-.092,1.234-.142-.336-.085-.663-.185-.991-.294-.369-.117-.705-.277-1.05-.411-.151-.067-.3-.134-.453-.21a11.6,11.6,0,0,1-1.335-.7,1.723,1.723,0,0,0-.218-.118c-12.737,3.366-16.507-9.454-16.507-9.454a13.921,13.921,0,0,1,8.027-.067c5.273,1.679,7.624,6.708,8.354,8.681.008,0,.008.009.017.009.109.033.227.084.353.134s.21.143.336.2a14.054,14.054,0,0,0,1.7.873c.327.126.663.286,1.008.395s.705.226,1.075.319c.353.1.722.167,1.083.235a7.7,7.7,0,0,0,.848.117c.982-.16,1.981-.319,3.006-.487.571-.1,1.159-.185,1.746-.294.579-.126,1.175-.252,1.772-.387,1.192-.251,2.418-.512,3.652-.781.966-.252,1.99-.5,3-.764" transform="translate(-44.317 -2207.377)" fill="none" stroke="#000" stroke-width="1"/>
        <path id="Path_12646" data-name="Path 12646" d="M164.113,2539.78c-.361.269-.7.521-1,.756a2.381,2.381,0,0,1-.285.218c-.034.017-.067.025-.1.042a22.011,22.011,0,0,1-1.755,9.227c-4.559,10.176-16.456,10.184-16.456,10.184,1.041-8.153,4.928-12.955,8.849-15.759a22.6,22.6,0,0,1,8.64-3.77c.05-.068.092-.135.151-.21.076-.084.143-.168.218-.26s.2-.143.294-.227c.411-.319.89-.68,1.411-1.074.008-.008.025-.017.034-.025" transform="translate(-51.079 -2209.561)" fill="none" stroke="#000" stroke-width="1"/>
        <path id="Path_12647" data-name="Path 12647" d="M129.687,2457.347c-14.307-34.273-9.093-70.821-8.4-69.671,1.209,2,34.172,11.847,57.471,39.47" transform="translate(-47.114 -2185.303)" fill="none" stroke="#000" stroke-width="1"/>
        <path id="Path_12648" data-name="Path 12648" d="M176.472,2478.51l-9.882-16.339-32.442-53.659" transform="translate(-49.416 -2188.65)" fill="none" stroke="#000" stroke-linecap="round" stroke-linejoin="round" stroke-width="0.687"/>
        <line id="Line_302" data-name="Line 302" x2="26.397" y2="13.677" transform="translate(85.504 251.381)" fill="none" stroke="#000" stroke-linecap="round" stroke-linejoin="round" stroke-width="0.687"/>
        <line id="Line_303" data-name="Line 303" x2="16.448" y2="5.978" transform="translate(100.726 267.544)" fill="none" stroke="#000" stroke-linecap="round" stroke-linejoin="round" stroke-width="0.687"/>
        <line id="Line_304" data-name="Line 304" x1="1.133" y2="19.051" transform="translate(128.231 270.281)" fill="none" stroke="#000" stroke-linecap="round" stroke-linejoin="round" stroke-width="0.687"/>
        <line id="Line_305" data-name="Line 305" x2="1.83" y2="21.813" transform="translate(102.699 229.837)" fill="none" stroke="#000" stroke-linecap="round" stroke-linejoin="round" stroke-width="0.687"/>
        <path id="Path_12649" data-name="Path 12649" d="M167.257,2554.192s-2.082-1.327-3.14-2.041" transform="translate(-54.223 -2211.689)" fill="none" stroke="#000" stroke-width="1"/>
        <path id="Path_12650" data-name="Path 12650" d="M130.76,2516.411a71.839,71.839,0,0,1-4.685-6.473c-.042-.058-.076-.126-.118-.184-12.863-20.042-13.988-41.964-15.113-43.08-.361-.369,7.1.227,17.405,3.333,11.368,3.417,26.2,9.882,37.782,21.469.176.176.529.537.529.537" transform="translate(-45.676 -2197.963)" fill="none" stroke="#000" stroke-width="1"/>
        <path id="Path_12651" data-name="Path 12651" d="M150.737,2541.962c-.185-.151-.369-.311-.554-.47s-.369-.311-.546-.47" transform="translate(-51.9 -2209.904)" fill="none" stroke="#000" stroke-width="1"/>
        <path id="Path_12652" data-name="Path 12652" d="M147.7,2539.318c-.395-.344-.789-.705-1.184-1.066" transform="translate(-51.4 -2209.459)" fill="none" stroke="#000" stroke-width="1"/>
        <path id="Path_12653" data-name="Path 12653" d="M123.177,2479l31.737,31.737,5.449,5.457" transform="translate(-47.656 -2199.956)" fill="none" stroke="#000" stroke-linecap="round" stroke-linejoin="round" stroke-width="0.687"/>
        <line id="Line_306" data-name="Line 306" x2="4.987" y2="20.688" transform="translate(97.292 284.982)" fill="none" stroke="#000" stroke-linecap="round" stroke-linejoin="round" stroke-width="0.687"/>
        <line id="Line_307" data-name="Line 307" x2="1.343" y2="12.46" transform="translate(105.915 298.323)" fill="none" stroke="#000" stroke-linecap="round" stroke-linejoin="round" stroke-width="0.687"/>
        <line id="Line_308" data-name="Line 308" x2="10.117" y2="1.864" transform="translate(102.917 318.701)" fill="none" stroke="#000" stroke-linecap="round" stroke-linejoin="round" stroke-width="0.687"/>
        <path id="Path_12654" data-name="Path 12654" d="M229.351,2466.382c-.008-.151-.025-.311-.034-.47" transform="translate(-64.681 -2197.856)" fill="none" stroke="#000" stroke-width="1"/>
        <path id="Path_12655" data-name="Path 12655" d="M218.944,2436.5c-6.465-19.051-24.239-31.125-24.038-30.444.26.873-4.45,10.991-4.887,24.038a50.173,50.173,0,0,0,1.973,16.238,90.3,90.3,0,0,0,6.65,16.423" transform="translate(-58.372 -2188.251)" fill="none" stroke="#000" stroke-width="1"/>
        <path id="Path_12656" data-name="Path 12656" d="M211.571,2458.568l-3.8-12.67-8.589-28.706" transform="translate(-59.848 -2190.042)" fill="none" stroke="#000" stroke-linecap="round" stroke-linejoin="round" stroke-width="0.687"/>
        <line id="Line_309" data-name="Line 309" x1="3.635" y2="13.736" transform="translate(146.619 237.536)" fill="none" stroke="#000" stroke-linecap="round" stroke-linejoin="round" stroke-width="0.687"/>
        <line id="Line_310" data-name="Line 310" x1="3.157" y2="7.741" transform="translate(147.928 248.115)" fill="none" stroke="#000" stroke-linecap="round" stroke-linejoin="round" stroke-width="0.687"/>
        <line id="Line_311" data-name="Line 311" x2="7.699" y2="6.188" transform="translate(142.874 259.131)" fill="none" stroke="#000" stroke-linecap="round" stroke-linejoin="round" stroke-width="0.687"/>
        <path id="Path_12657" data-name="Path 12657" d="M200.3,2485.237v-18.765H309.27v19.109" transform="translate(-60.026 -2197.946)" fill="none" stroke="#000" stroke-width="1"/>
        <path id="Path_12658" data-name="Path 12658" d="M300.8,2546.486a15.989,15.989,0,0,1-15.994,15.986H218.343a15.99,15.99,0,0,1,0-31.981h66.463A16,16,0,0,1,300.8,2546.486Z" transform="translate(-60.356 -2208.215)" fill="none" stroke="#000" stroke-width="1"/>
        <path id="Path_12659" data-name="Path 12659" d="M217.521,2164.775a208.855,208.855,0,0,1-24.592-4.786c-45.07-11.594-98.175-21.023-131.121,15.927-52.542,58.923,5.189,113.75.949,181.917-4.693,75.573-21.737,76.144-27.892,109.854-.05.269-.1.546-.151.823-14.466,82.911,79.259,121,174.184,101.147,95.127-19.789,274.979,36.875,274.081-101.374,0-.286-.008-.579-.008-.865a227.032,227.032,0,0,0-5.407-44.247c-7.3-34.374-8.06-68.906-5.6-103.431" transform="translate(-33.229 -2147.132)" fill="none" stroke="#000" stroke-width="1"/>
        <path id="Path_12660" data-name="Path 12660" d="M513.251,2299.093c.966-9.261,2.124-18.522,3.4-27.766.218-1.6,4.391-24.55,4.685-25.868.21-.948,1.31-5.927,1.629-7.439,1.847-8.833,2.88-16.347,1.234-24.155-1.788-8.514-6.75-17.38-17.3-28.681-10.344-11.083-23.954-18.664-38.084-24.164-36.833-14.34-70.779-11.612-107.092-4.6-5.331,1.024-10.7,2.149-16.154,3.316-.462.1-.932.2-1.4.3-21.905,4.727-43.34,7.279-64.859,6.675h-.185" transform="translate(-72.67 -2147.298)" fill="none" stroke="#000" stroke-width="1"/>
        <path id="Path_12661" data-name="Path 12661" d="M546.233,2224.847l-119.392-5.667a7.994,7.994,0,0,0-8.354,7.607l-1.981,41.728a7.989,7.989,0,0,0,7.6,8.363l32.249,1.528-3.971,18.665,21.721-17.825,64.582,3.064,14.366.68a7.981,7.981,0,0,0,8.354-7.6l1.982-41.729a8,8,0,0,0-7.607-8.362Z" transform="translate(-94.703 -2158.281)" fill="none" stroke="#000" stroke-width="0.821"/>
        <path id="Path_12662" data-name="Path 12662" d="M400.873,2578.634l-.4-.025c-.126,0-.235-.008-.336-.017-1.36.487-16.4,6.112-16.4,14.206" transform="translate(-89.449 -2215.93)" fill="none" stroke="#000" stroke-width="1"/>
        <path id="Path_12663" data-name="Path 12663" d="M404.627,2578.667l-.47-.025" transform="translate(-92.724 -2215.938)" fill="none" stroke="#000" stroke-width="1"/>
        <path id="Path_12664" data-name="Path 12664" d="M416,2578.3q-.541.076-1.083.126" transform="translate(-94.45 -2215.883)" fill="none" stroke="#000" stroke-width="1"/>
        <path id="Path_12665" data-name="Path 12665" d="M419.067,2577.752c-.235.059-.479.109-.73.159" transform="translate(-94.999 -2215.795)" fill="none" stroke="#000" stroke-width="1"/>
        <path id="Path_12666" data-name="Path 12666" d="M383.737,2592.251l34.642-5.625a2.8,2.8,0,0,0,2.326-3.208,4.544,4.544,0,0,0-.126-.487c-.672-1.881-1.536-4.542-2.4-7.8" transform="translate(-89.449 -2215.375)" fill="none" stroke="#000" stroke-width="1"/>
        <path id="Path_12667" data-name="Path 12667" d="M437.94,2360.918c-6.247-12.544-10.948-23.946-14.089-32.216-2.25-5.919-3.694-10.235-4.341-12.216a2.478,2.478,0,0,0-1.536-1.553,10.5,10.5,0,0,1-7.027-9.378v-.059a2.432,2.432,0,0,0-2.091-2.4c-5.424-.688-14.063,2.284-10.806,15.818,2.611,10.856,11.62,31.04,16.742,42.081l.008.252" transform="translate(-91.63 -2171.726)" fill="none" stroke="#000" stroke-width="1"/>
        <path id="Path_12668" data-name="Path 12668" d="M445.037,2385.75a43.9,43.9,0,0,1-6.473-13.778l-.336.008-23.139.327-.705.009c5.256,6.23,13.106,25.44,12.787,33.76-5.609,8.749-14.769,16.423-28.043,22.879" transform="translate(-91.917 -2182.789)" fill="none" stroke="#000" stroke-width="1"/>
        <path id="Path_12669" data-name="Path 12669" d="M467.645,2397.361a16.033,16.033,0,0,1-9.118-3.879" transform="translate(-101.445 -2186.239)" fill="none" stroke="#000" stroke-width="1"/>
        <path id="Path_12670" data-name="Path 12670" d="M477.22,2387.962c-.63.748-1.234,1.469-1.814,2.158" transform="translate(-104.152 -2185.354)" fill="none" stroke="#000" stroke-width="1"/>
        <path id="Path_12671" data-name="Path 12671" d="M498.917,2406.155c.705-.462,1.436-.89,2.183-1.293" transform="translate(-107.923 -2188.064)" fill="none" stroke="#000" stroke-width="1"/>
        <path id="Path_12672" data-name="Path 12672" d="M493.067,2410.742a27.5,27.5,0,0,1,2.838-2.561" transform="translate(-106.985 -2188.597)" fill="none" stroke="#000" stroke-width="1"/>
        <path id="Path_12673" data-name="Path 12673" d="M480.657,2453.133a32.217,32.217,0,0,1,5.038,5c-6.415-21.183-3.241-34.222,2.141-42.157" transform="translate(-104.994 -2189.846)" fill="none" stroke="#000" stroke-width="1"/>
        <path id="Path_12674" data-name="Path 12674" d="M438.637,2449.492c1.889.084,3.787.168,5.676.277" transform="translate(-98.255 -2195.223)" fill="none" stroke="#000" stroke-width="1"/>
        <path id="Path_12675" data-name="Path 12675" d="M418.337,2447.882q2.028.327,4.131.554c.7.076,1.4.143,2.107.2s1.419.109,2.141.159c2.8.193,5.659.311,8.539.437" transform="translate(-94.999 -2194.965)" fill="none" stroke="#000" stroke-width="1"/>
        <path id="Path_12676" data-name="Path 12676" d="M399.127,2439.842a26.152,26.152,0,0,0,8.43,4.811c.6.219,1.226.428,1.847.613s1.259.361,1.906.521" transform="translate(-91.917 -2193.675)" fill="none" stroke="#000" stroke-width="1"/>
        <path id="Path_12677" data-name="Path 12677" d="M421.855,2448.436c-.722-.05-1.427-.1-2.141-.168s-1.411-.126-2.107-.2c-1.4-.151-2.779-.327-4.131-.554s-2.67-.487-3.946-.806c-.646-.16-1.276-.328-1.906-.521s-1.243-.386-1.847-.6a78.045,78.045,0,0,0-12.342,21.972,88.563,88.563,0,0,0-4.928,22.191.029.029,0,0,0-.008.017,112.6,112.6,0,0,0,.134,21.9c.445,4.526,1.117,8.875,1.923,12.963.655,3.358,1.4,6.541,2.191,9.5a137.817,137.817,0,0,0,8.169,23.089" transform="translate(-90.137 -2194.595)" fill="none" stroke="#000" stroke-width="1"/>
        <path id="Path_12678" data-name="Path 12678" d="M403.359,2563.925l-.092.034.336.025.4.025h.008l.47.025a59.2,59.2,0,0,0,8.564-.185q.554-.051,1.083-.126c.6-.084,1.209-.185,1.788-.3.243-.05.5-.1.73-.16a9.663,9.663,0,0,0,4.66-2.2c-2.754-10.344-5.483-26.708-1.654-43.189a59.8,59.8,0,0,1,16.952-30.125l.563-.335" transform="translate(-92.581 -2201.305)" fill="none" stroke="#000" stroke-width="1"/>
        <path id="Path_12679" data-name="Path 12679" d="M523.933,2514.051c-17.019-7.9-47.53-25.977-51.77-55.5l.1-.126c-8.329-6.6-18.908-8.1-29.6-8.74-1.889-.109-3.787-.193-5.676-.277a.62.62,0,0,1-.126,0c-2.88-.126-5.734-.235-8.53-.428" transform="translate(-96.601 -2195.141)" fill="none" stroke="#000" stroke-width="1"/>
        <path id="Path_12680" data-name="Path 12680" d="M428.317,2448.982l.076.319a105.332,105.332,0,0,0,12.8,31.939v.009a102.818,102.818,0,0,0,28.95,31.074s0,.008.008,0a102.652,102.652,0,0,0,41.208,17.161c.672.109,1.335.227,2.015.328l3.358.613" transform="translate(-96.599 -2195.141)" fill="none" stroke="#000" stroke-width="1"/>
        <path id="Path_12681" data-name="Path 12681" d="M453.645,2357.6v.009a23.908,23.908,0,0,0-.428,4.442" transform="translate(-100.593 -2180.484)" fill="none" stroke="#000" stroke-width="1"/>
        <path id="Path_12682" data-name="Path 12682" d="M480.527,2384.251c.42-.479.848-.966,1.293-1.469" transform="translate(-104.974 -2184.523)" fill="none" stroke="#000" stroke-width="1"/>
        <path id="Path_12683" data-name="Path 12683" d="M453.216,2362.9v.008a19.216,19.216,0,0,0,3.946,12" transform="translate(-100.593 -2181.334)" fill="none" stroke="#000" stroke-width="1"/>
        <path id="Path_12684" data-name="Path 12684" d="M476.3,2384.036c.193-.218.395-.453.6-.68l-1.7.344a18.008,18.008,0,0,1-5.928.185,17.426,17.426,0,0,1-11.351-6.683" transform="translate(-101.347 -2183.628)" fill="none" stroke="#000" stroke-width="1"/>
        <path id="Path_12685" data-name="Path 12685" d="M457.258,2377.2l-.092.075c1.6,3.149-.479,6.213-3.358,9.311a25.157,25.157,0,0,0,3.963,4.282,15.986,15.986,0,0,0,9.118,3.887v-.008c.924-1.209,2.065-2.678,3.426-4.366.512-.63,1.05-1.3,1.629-1.99s1.175-1.411,1.814-2.158c.42-.5.865-1.008,1.31-1.528v-.008" transform="translate(-100.688 -2183.628)" fill="none" stroke="#000" stroke-width="1"/>
        <path id="Path_12686" data-name="Path 12686" d="M492.609,2349.995c-.453-1.36-.882-2.754-1.352-4.315v-.008a17.094,17.094,0,0,0-10.629-9.354c-12.787-4.1-24.533,5.424-26.9,17.716" transform="translate(-100.675 -2176.915)" fill="none" stroke="#000" stroke-width="1"/>
        <path id="Path_12687" data-name="Path 12687" d="M498.427,2365.245c.344-.344.689-.689,1.033-1.024.059-.227.118-.462.168-.688" transform="translate(-107.845 -2181.435)" fill="none" stroke="#000" stroke-width="1"/>
        <path id="Path_12688" data-name="Path 12688" d="M453.727,2355.414c3.635-10.319,14.5-11.452,14.5-11.452s-.663,19.5,20.024,21.141" transform="translate(-100.675 -2178.296)" fill="none" stroke="#000" stroke-width="1"/>
        <path id="Path_12689" data-name="Path 12689" d="M497.146,2363.472c-.26.252-.521.5-.772.747l-1.041,1.016c-1.033,1.007-2.04,2.007-3.006,3-4.064,4.105-7.649,7.976-10.73,11.452-.437.5-.865.99-1.285,1.469-.2.227-.4.462-.6.68-.185.227-.378.445-.571.663" transform="translate(-104.751 -2181.426)" fill="none" stroke="#000" stroke-width="1"/>
        <path id="Path_12690" data-name="Path 12690" d="M504.686,2387.417c2.351-2.813,4.811-5.575,7.33-8.262q2.506-2.658,5.08-5.222a318.136,318.136,0,0,1,30.117-26.12q3.048-2.33,6.163-4.593a12.322,12.322,0,0,0,4.878-7.54,11.277,11.277,0,0,0-3.132-10.327,2.43,2.43,0,0,0-3.207-.134,14.077,14.077,0,0,1-2.855,1.78v.009a15,15,0,0,1-6.431,1.452,14.8,14.8,0,0,1-4.383-.663,2.426,2.426,0,0,0-2.1.336,283.205,283.205,0,0,0-32.98,26.918c-.269.252-.529.5-.789.756" transform="translate(-108.478 -2175.203)" fill="none" stroke="#000" stroke-width="1"/>
        <path id="Path_12691" data-name="Path 12691" d="M479.127,2386.132h.008v.008l21.46,11.57" transform="translate(-104.749 -2185.06)" fill="none" stroke="#000" stroke-width="1"/>
        <path id="Path_12692" data-name="Path 12692" d="M489.207,2411.736l.277.126c23.181,11.662,35.507-2.057,20.419-22.3a69.955,69.955,0,0,0-7.33,8.262c-.118.143-.235.285-.361.437l3.266,1.763a29.451,29.451,0,0,0-5.936,2.385c-.747.4-1.478.831-2.183,1.293s-1.4.974-2.074,1.494a30.451,30.451,0,0,0-2.838,2.561,29.687,29.687,0,0,0-3.241,3.979" transform="translate(-106.366 -2185.61)" fill="none" stroke="#000" stroke-width="1"/>
        <path id="Path_12693" data-name="Path 12693" d="M499.978,2352.792a22.494,22.494,0,0,1-.151,9.018c-.05.235-.1.462-.16.688.252-.243.512-.5.772-.739.5-.487,1-.965,1.5-1.444.26-.26.529-.512.789-.764l-.118-.126a57.611,57.611,0,0,1-2.628-6.633" transform="translate(-108.044 -2179.712)" fill="none" stroke="#000" stroke-width="1"/>
        <path id="Path_12694" data-name="Path 12694" d="M532.944,2542.854l.336.059c-4.7,6.574-4.71,16.515-2.158,21.628l18.328-29.957a3.289,3.289,0,0,0-1.083-4.534,4.2,4.2,0,0,0-.512-.26c-1.444-.562-3.258-1.31-5.357-2.242-.747-.327-1.536-.688-2.351-1.066-.017.227-.034.462-.067.7C539.341,2532.888,533.943,2541.326,532.944,2542.854Z" transform="translate(-112.816 -2207.572)" fill="none" stroke="#000" stroke-width="1"/>
        <path id="Path_12695" data-name="Path 12695" d="M138.264,2177.008a1.49,1.49,0,0,1,1.578-.1l8.186,4.4,8.262-4.249a1.476,1.476,0,0,1,1.578.126c.008,0,.008.008.017.017a1.487,1.487,0,0,1,.563,1.453l-1.654,9.143,6.6,6.549a1.5,1.5,0,0,1-.848,2.544l-9.219,1.251-4.181,8.3a1.49,1.49,0,0,1-1.352.822,1.469,1.469,0,0,1-.89-.31,1.514,1.514,0,0,1-.445-.529l-4.03-8.38-9.194-1.418a1.637,1.637,0,0,1-.68-.286,1.61,1.61,0,0,1-.521-.739,1.5,1.5,0,0,1,.395-1.528l6.717-6.432-1.486-9.177A1.484,1.484,0,0,1,138.264,2177.008Z" transform="translate(-49.066 -2151.472)" fill="none" stroke="#000" stroke-width="1"/>
        <line id="Line_312" data-name="Line 312" x2="4.215" y2="9.11" transform="translate(312.583 132.216)" fill="none" stroke="#000" stroke-linecap="round" stroke-width="1"/>
        <line id="Line_313" data-name="Line 313" x2="3.434" y2="7.439" transform="translate(308.318 135.071)" fill="none" stroke="#000" stroke-linecap="round" stroke-width="1"/>
        <line id="Line_314" data-name="Line 314" x1="7.212" y2="5.693" transform="translate(442.235 156.858)" fill="none" stroke="#000" stroke-linecap="round" stroke-width="1"/>
        <line id="Line_315" data-name="Line 315" x1="8.959" y2="7.086" transform="translate(438.558 151.913)" fill="none" stroke="#000" stroke-linecap="round" stroke-width="1"/>
        <path id="Path_12696" data-name="Path 12696" d="M270.165,2381.375A120.447,120.447,0,0,1,256,2335.491l44,23.2a9.726,9.726,0,0,0,4.458,1.15,9.991,9.991,0,0,0,9.991-11.629l-10.428-61.039L348.408,2244a9.957,9.957,0,0,0-5.5-17l-61.266-8.95-24.777-50.334L254.3,2162.5a9.952,9.952,0,0,0-8.774-5.567.777.777,0,0,1-.143.008,9.921,9.921,0,0,0-8.933,5.542l-1.755,3.543-25.7,51.955-61.283,8.841a9.951,9.951,0,0,0-5.525,16.968l44.3,43.265-10.537,61.023a9.976,9.976,0,0,0,3.955,9.739,9.787,9.787,0,0,0,5.693,1.9,10.077,10.077,0,0,0,4.786-1.125l44.1-23.131c-2.5,27.7-15.222,49.427-23.677,61.09a93.748,93.748,0,0,1-7.666,9.454v10.353h84.2V2406s-.21-.218-.588-.638a111.325,111.325,0,0,1-10.5-13.786C274.271,2388.587,272.206,2385.178,270.165,2381.375Z" transform="translate(-50.224 -2148.298)" fill="none" stroke="#000" stroke-width="1"/>
        <path id="Path_12697" data-name="Path 12697" d="M325.157,2555.688v17.565h-157.3v-59.159a25.3,25.3,0,0,1,25.272-25.272H299.885a24.53,24.53,0,0,1,4.181.353,25.27,25.27,0,0,1,21.091,24.92v41.594Z" transform="translate(-54.823 -2201.531)" fill="none" stroke="#000" stroke-width="1"/>
      </g>
    </g>
    <g id="Group_1137" data-name="Group 1137" transform="translate(-815.756 -2054.367)">
      <g id="Group_1154" data-name="Group 1154" transform="translate(815.756 2054.372)">
        <g id="Group_1153" data-name="Group 1153" transform="translate(0)">
          <g id="Group_1137-2" data-name="Group 1137" transform="translate(0.016 2.531)">
            <path id="Path_12719" data-name="Path 12719" d="M477.563,2423.172c3.6,16.96,5.331,31.93,5.415,45.112.9,138.249-178.953,81.584-274.08,101.374-94.926,19.856-188.65-18.238-174.181-101.146,6.025-34.525,23.3-34.5,28.039-110.681,4.237-68.163-53.491-122.993-.949-181.916,32.946-36.951,86.051-27.523,131.122-15.927,37.726,9.7,74.09,8.037,111.8-.115,43.131-9.324,81.952-15.638,124.648.984,14.131,5.5,27.742,13.077,38.089,24.162,29.015,31.085,15.769,43.751,10.419,81.349C470.449,2318.624,466.5,2371.071,477.563,2423.172Z" transform="translate(-33.232 -2149.662)" opacity="0.2" fill="url(#linear-gradient)"/>
          </g>
          <path id="Path_12720" data-name="Path 12720" d="M463.622,2176.913a1.312,1.312,0,0,1,1.357-.3l7.714,2.734,6.626-4.808a1.322,1.322,0,0,1,1.389-.1.073.073,0,0,1,.018.009,1.317,1.317,0,0,1,.684,1.19l-.213,8.183,6.618,4.816a1.318,1.318,0,0,1-.4,2.328l-7.848,2.322-2.536,7.786a1.314,1.314,0,0,1-2.335.337l-4.636-6.747-8.189-.005a1.352,1.352,0,0,1-.629-.162,1.316,1.316,0,0,1-.416-1.956l4.988-6.5-2.526-7.789A1.314,1.314,0,0,1,463.622,2176.913Z" transform="translate(-101.757 -2151.082)" fill="url(#linear-gradient-2)"/>
          <path id="Path_12721" data-name="Path 12721" d="M110.686,2293.792a.952.952,0,0,1,.714.715l1.347,5.8,5.545,2.179a.961.961,0,0,1,.6.811.054.054,0,0,1,0,.017.96.96,0,0,1-.461.884l-5.1,3.075-.36,5.946a.957.957,0,0,1-1.584.665l-4.5-3.9-5.767,1.5a.962.962,0,0,1-.964-.3.972.972,0,0,1-.232-.562.933.933,0,0,1,.074-.437l2.321-5.487-3.206-5.023a.945.945,0,0,1-.145-.45.926.926,0,0,1,.134-.559.961.961,0,0,1,.9-.461l5.938.514,3.785-4.6A.951.951,0,0,1,110.686,2293.792Z" transform="translate(-43.759 -2170.245)" fill="#ffd579"/>
          <path id="Path_12722" data-name="Path 12722" d="M482.976,2525.721c.9,138.249-178.953,81.584-274.08,101.374-94.926,19.857-188.74-18.361-174.181-101.146,69.947-1.444,157.406-32.242,157.406-10.362,0,22.745,1.629,24.374,84.489,10.562C319.866,2518.937,409.855,2520.137,482.976,2525.721Z" transform="translate(-33.213 -2204.569)" fill="#00c8c8" opacity="0.2" style="mix-blend-mode: multiply;isolation: isolate"/>
          <g id="Group_1139" data-name="Group 1139" transform="translate(58.054 8.639)">
            <path id="Path_12723" data-name="Path 12723" d="M346.92,2538.231c.922.12,1.79.238,2.612.345s1.594.159,2.306.237,1.368.145,1.963.174c.781.055,1.436.1,1.987.132,1.411-1.29,12.3-10.477,26.573-1.65,0,0-11.536,14.228-26.582,1.916-.545.055-1.2.112-1.979.158-1.2.085-2.657.117-4.331.136-.836-.01-1.727-.024-2.664-.038-.944.006-1.914-.192-2.941-.29-.8-.1-1.628-.191-2.478-.3.692.589,1.6,1.364,2.517,2.148.459.39.923.784,1.351,1.154.155.142.306.278.454.412,20.507-1.1,22.573,13.818,22.573,13.818-21.475-1.542-22.861-10.346-22.773-13.036-.233-.209-.474-.431-.735-.67-.427-.367-.886-.759-1.34-1.144-.915-.781-1.828-1.56-2.518-2.145-.076-.085-.181-.123-.237-.215s-.119-.171-.173-.249-.1-.143-.144-.212c-1-.163-2.015-.334-3.068-.5-.583-.1-1.174-.181-1.767-.3s-1.19-.253-1.793-.38c-1.21-.261-2.447-.529-3.7-.8-1.263-.319-2.5-.623-3.781-.983-.605-.171-1.217-.35-1.828-.527a4.866,4.866,0,0,1,.463.3c.28.189.563.381.848.577l1.673,1.132c.515.392.993.757,1.406,1.07a2.675,2.675,0,0,1,.29.226c.079.092.147.184.218.266s.1.14.156.211c3.145.608,15.5,3.966,17.487,19.528,0,0-18.293-.013-18.214-19.413a.8.8,0,0,0-.094-.04,2.912,2.912,0,0,1-.29-.219c-.4-.312-.877-.667-1.379-1.052-.526-.355-1.085-.738-1.651-1.119-.28-.189-.559-.38-.836-.569a8.144,8.144,0,0,0-.831-.507c-.555-.315-1.072-.6-1.512-.855a1.585,1.585,0,0,1-.313-.185c-.055-.048-.1-.094-.154-.141-2.342-.692-4.7-1.4-7.088-1.948-1.308-.337-2.635-.566-3.95-.821-.658-.122-1.326-.188-1.982-.286s-1.317-.194-1.978-.227c-.152-.01-.295-.021-.446-.031.086.049.175.1.264.155a12.948,12.948,0,0,1,1.176.772c.413.263.788.6,1.2.918.38.342.772.688,1.135,1.068.314.364.657.708.937,1.1.036-.09.06-.174.095-.264,0,0,14.783,5.858,11.079,22.013,0,0-17.013-4.777-11.461-20.942-.071-.094-.137-.187-.206-.28a11.808,11.808,0,0,0-.961-1.131c-.342-.361-.719-.691-1.081-1.021-.39-.3-.75-.626-1.146-.88a13.226,13.226,0,0,0-1.133-.74c-.365-.233-.727-.417-1.056-.6-.162-.1-.343-.144-.484-.245a.692.692,0,0,0-.063-.042c-.593-.036-1.187-.065-1.776-.056-.648-.006-1.29-.02-1.93-.026-.643.021-1.28.062-1.908.091s-1.255.06-1.876.091q-.928.095-1.835.193c-1.211.134-2.4.236-3.54.447-1.147.192-2.261.372-3.342.548-.252.055-.5.106-.751.162.237.071.474.148.708.24a10.657,10.657,0,0,1,2.643,1.471c.074.064.176.1.231.178s.109.159.157.23c.066.1.11.179.156.261,1.662.238,13.817,2.443,14.466,16.053,0,0-16.084-.011-14.68-15.768-.091-.039-.184-.077-.293-.122-.077-.033-.162-.065-.249-.1s-.136-.12-.22-.169a10.022,10.022,0,0,0-2.467-1.371,8.076,8.076,0,0,0-1.442-.417,5.693,5.693,0,0,0-.68-.108.625.625,0,0,0-.1,0q-.293.06-.582.121c-.493.106-.982.212-1.458.317s-.927.245-1.385.324q-1.368.262-2.59.5c-1.635.289-3.038.629-4.2.9-2.326.531-3.667.813-3.667.813s1.271-.492,3.515-1.323c1.125-.411,2.487-.928,4.081-1.42.546-.181,1.127-.367,1.72-.564.029-.049.052-.092.082-.148.044-.075.091-.16.14-.248s.144-.135.214-.219a4.048,4.048,0,0,0,.461-.494c.149-.191.3-.4.461-.605s.338-.422.494-.653c.134-.24.278-.483.42-.726a5.1,5.1,0,0,0,.394-.739c.114-.254.222-.5.327-.74a5.7,5.7,0,0,0,.255-.718c.067-.23.158-.442.2-.647a1.592,1.592,0,0,1,.069-.295c.027-.045.047-.083.071-.13-.589-2.829-2.439-15.875,11.491-23.7,0,0,6.786,16.782-10.881,24.064-.018.077-.047.156-.06.24-.045.219-.136.444-.206.69a6.607,6.607,0,0,1-.272.758c-.111.255-.228.52-.348.789a6.213,6.213,0,0,1-.414.781c-.15.26-.3.512-.451.767s-.344.465-.512.688-.332.435-.49.64a1.711,1.711,0,0,1-.232.266c.78-.223,1.62-.354,2.47-.551q1.51-.32,3.139-.67c1.1-.173,2.229-.363,3.392-.552,1.161-.217,2.372-.32,3.609-.457.614-.063,1.238-.129,1.867-.2.325-.018.656-.033.986-.048.016-.039.032-.069.047-.108.034-.067.112-.087.159-.146.438-.394,1.022-.918,1.606-1.438s1.168-1.046,1.61-1.438c.041-.031.071-.071.1-.1.711-3.52,4.2-15.33,19.346-17.372,0,0,.123,18.359-19.376,18.357-.367.33-.792.7-1.208,1.082-.433.39-.867.778-1.242,1.115.607-.03,1.218-.069,1.84-.086l1.983.025c1.332-.021,2.674.114,4.033.209.678.036,1.352.15,2.033.234.675.1,1.361.169,2.038.294,1,.194,2.013.388,3.016.608a3.057,3.057,0,0,1,.338-.02c.638-.041,1.382-.03,2.188-.126s1.657-.155,2.512-.28c1.709-.212,3.41-.5,4.688-.721a4.589,4.589,0,0,1,.457-.079h.24c.978-1.725,8.76-14.32,24.352-7.742,0,0-12.068,17.376-24.021,8.269a.258.258,0,0,0-.045.019c-.126.05-.258.1-.4.155s-.3.041-.46.079c-1.283.227-2.992.514-4.718.728-.859.126-1.73.2-2.543.281-.057.005-.115.006-.175.01,2.2.561,4.358,1.207,6.484,1.831,1.285.388,2.56.747,3.808,1.1s2.541.667,3.752.978l3.656.782c.6.128,1.188.253,1.771.381s1.17.194,1.742.291c1.031.169,2.028.33,3,.49a6.561,6.561,0,0,0,.851-.12,10.229,10.229,0,0,0,1.086-.233,10.488,10.488,0,0,0,1.07-.321c.351-.107.679-.262,1.007-.387a15.329,15.329,0,0,0,1.706-.874c.125-.063.221-.158.341-.207s.242-.094.349-.134c.007,0,.012-.006.02-.008,1.033-2.777,5.269-11.635,16.375-8.613,0,0-3.764,12.821-16.507,9.452a1.52,1.52,0,0,0-.212.121,16.023,16.023,0,0,1-1.787.918c-.347.132-.688.291-1.056.4-.324.114-.654.211-.99.3.418.049.83.092,1.233.143C345.031,2538.066,346,2538.124,346.92,2538.231Z" transform="translate(-129.557 -2212.383)" fill="url(#linear-gradient-3)"/>
            <path id="Path_12724" data-name="Path 12724" d="M300.654,2444.933c22.572-37.344,65.179-49.817,66.556-52.093.787-1.3,7.383,45.8-15.194,83.141s-52.374,60.667-66.558,52.095S278.078,2482.278,300.654,2444.933Z" transform="translate(-130.539 -2194.77)" fill="url(#linear-gradient-4)"/>
            <line id="Line_317" data-name="Line 317" x1="71.195" y2="117.747" transform="translate(154.92 215.56)" fill="none" stroke="#fff" stroke-linecap="round" stroke-linejoin="round" stroke-width="0.687"/>
            <line id="Line_318" data-name="Line 318" x1="26.399" y2="13.674" transform="translate(198.941 247.083)" fill="none" stroke="#fff" stroke-linecap="round" stroke-linejoin="round" stroke-width="0.687"/>
            <line id="Line_319" data-name="Line 319" x1="16.444" y2="5.982" transform="translate(193.676 263.238)" fill="none" stroke="#fff" stroke-linecap="round" stroke-linejoin="round" stroke-width="0.687"/>
            <line id="Line_320" data-name="Line 320" x2="1.229" y2="20.647" transform="translate(181.486 265.978)" fill="none" stroke="#fff" stroke-linecap="round" stroke-linejoin="round" stroke-width="0.687"/>
            <path id="Path_12725" data-name="Path 12725" d="M307.726,2485.907c.515,2.079,3.766,19.744,3.766,19.744l.448,1.82" transform="translate(-135.298 -2209.703)" fill="none" stroke="#fff" stroke-linecap="round" stroke-linejoin="round" stroke-width="0.687"/>
            <line id="Line_321" data-name="Line 321" x1="1.837" y2="21.813" transform="translate(206.314 225.533)" fill="none" stroke="#fff" stroke-linecap="round" stroke-linejoin="round" stroke-width="0.687"/>
            <path id="Path_12726" data-name="Path 12726" d="M354.349,2527.021c22.087-22.087,23.457-53.834,24.8-55.181.768-.77-33.095,2.715-55.181,24.8s-33.19,46.793-24.8,55.181S332.262,2549.108,354.349,2527.021Z" transform="translate(-133.477 -2207.431)" fill="url(#linear-gradient-5)"/>
            <line id="Line_322" data-name="Line 322" x1="69.636" y2="69.651" transform="translate(165.692 274.742)" fill="none" stroke="#fff" stroke-linecap="round" stroke-linejoin="round" stroke-width="0.687"/>
            <line id="Line_323" data-name="Line 323" x1="4.98" y2="20.69" transform="translate(208.572 280.68)" fill="none" stroke="#fff" stroke-linecap="round" stroke-linejoin="round" stroke-width="0.687"/>
            <line id="Line_324" data-name="Line 324" x1="1.34" y2="12.453" transform="translate(203.591 294.026)" fill="none" stroke="#fff" stroke-linecap="round" stroke-linejoin="round" stroke-width="0.687"/>
            <line id="Line_325" data-name="Line 325" x1="14.56" y2="2.683" transform="translate(193.374 314.396)" fill="none" stroke="#fff" stroke-linecap="round" stroke-linejoin="round" stroke-width="0.687"/>
            <path id="Path_12727" data-name="Path 12727" d="M340.4,2540.98c-1.532,0-14.369.765-14.369.765h-1.341" transform="translate(-138.018 -2218.535)" fill="none" stroke="#fff" stroke-linecap="round" stroke-linejoin="round" stroke-width="0.687"/>
            <path id="Path_12728" data-name="Path 12728" d="M307.473,2451.5c5.981-19.976-3.274-39.063-2.91-40.281.207-.7-18.585,12.081-24.564,32.057s-4.676,38.01,2.911,40.28S301.494,2471.475,307.473,2451.5Z" transform="translate(-130.249 -2197.719)" fill="url(#linear-gradient-6)"/>
            <line id="Line_326" data-name="Line 326" x1="18.847" y2="62.988" transform="translate(152.661 222.85)" fill="none" stroke="#fff" stroke-linecap="round" stroke-linejoin="round" stroke-width="0.687"/>
            <line id="Line_327" data-name="Line 327" x2="3.628" y2="13.734" transform="translate(160.596 233.238)" fill="none" stroke="#fff" stroke-linecap="round" stroke-linejoin="round" stroke-width="0.687"/>
            <line id="Line_328" data-name="Line 328" x2="3.159" y2="7.741" transform="translate(159.758 243.813)" fill="none" stroke="#fff" stroke-linecap="round" stroke-linejoin="round" stroke-width="0.687"/>
            <line id="Line_329" data-name="Line 329" x1="7.706" y2="6.187" transform="translate(160.271 254.831)" fill="none" stroke="#fff" stroke-linecap="round" stroke-linejoin="round" stroke-width="0.687"/>
            <path id="Path_12729" data-name="Path 12729" d="M299.857,2468.176c-.9.487-8.2,5-8.2,5l-.789.426" transform="translate(-132.594 -2206.858)" fill="none" stroke="#fff" stroke-linecap="round" stroke-linejoin="round" stroke-width="0.687"/>
            <path id="Path_12730" data-name="Path 12730" d="M137.8,2533.064c-.921.12-1.789.238-2.611.345s-1.594.159-2.306.238-1.368.146-1.963.174c-.78.055-1.437.1-1.986.131-1.411-1.289-12.3-10.476-26.574-1.649,0,0,11.537,14.229,26.583,1.917.544.054,1.2.11,1.98.157,1.2.084,2.656.116,4.33.135.837-.01,1.727-.023,2.664-.037.944.006,1.915-.192,2.94-.291.8-.1,1.629-.19,2.479-.3l-2.517,2.148c-.459.39-.923.784-1.351,1.155-.154.141-.307.278-.454.411-20.507-1.1-22.573,13.819-22.573,13.819,21.475-1.543,22.86-10.346,22.773-13.037.233-.208.475-.432.735-.67.427-.367.885-.758,1.339-1.145.916-.78,1.829-1.559,2.518-2.144.077-.084.182-.122.238-.215s.119-.17.174-.248.095-.143.144-.213c1-.163,2.015-.334,3.069-.5.582-.1,1.172-.181,1.766-.3s1.189-.254,1.794-.382c1.209-.261,2.447-.529,3.7-.8,1.264-.319,2.5-.622,3.782-.982.606-.173,1.217-.351,1.827-.528a4.809,4.809,0,0,0-.462.3c-.28.189-.564.382-.849.576-.565.384-1.138.77-1.673,1.133l-1.405,1.07a2.629,2.629,0,0,0-.29.226c-.078.091-.147.184-.219.265s-.1.139-.155.212c-3.145.607-15.5,3.966-17.487,19.528,0,0,18.292-.012,18.214-19.412a.828.828,0,0,1,.094-.042,2.964,2.964,0,0,0,.29-.219c.4-.312.876-.666,1.379-1.052.526-.354,1.084-.738,1.652-1.118.28-.189.56-.38.835-.569a8.236,8.236,0,0,1,.832-.507c.555-.316,1.071-.6,1.512-.856a1.551,1.551,0,0,0,.313-.186c.055-.048.1-.094.153-.141,2.342-.692,4.7-1.393,7.089-1.948,1.308-.338,2.635-.566,3.95-.821.658-.121,1.327-.188,1.981-.287s1.32-.193,1.98-.226c.152-.01.294-.021.447-.031-.087.049-.175.1-.264.155a12.611,12.611,0,0,0-1.175.771c-.414.263-.788.6-1.2.918-.38.342-.772.689-1.135,1.069-.313.364-.657.708-.937,1.1-.035-.089-.059-.173-.095-.264,0,0-14.783,5.859-11.08,22.013,0,0,17.014-4.777,11.461-20.942.071-.094.136-.187.206-.28a11.878,11.878,0,0,1,.961-1.13c.342-.361.719-.691,1.081-1.021.39-.3.75-.627,1.146-.881a13.3,13.3,0,0,1,1.133-.741c.365-.232.727-.416,1.057-.6.161-.1.343-.144.482-.245.022-.015.042-.027.064-.042.593-.036,1.186-.064,1.777-.056.646-.006,1.29-.019,1.929-.026.644.021,1.28.062,1.908.091s1.255.061,1.877.091c.619.063,1.232.127,1.835.193,1.212.135,2.4.235,3.54.446,1.147.193,2.26.372,3.342.548.252.055.5.106.751.163-.237.069-.474.147-.707.24a10.686,10.686,0,0,0-2.644,1.47c-.074.064-.176.1-.23.179s-.11.159-.158.23c-.065.1-.109.178-.156.26-1.662.238-13.817,2.443-14.467,16.053,0,0,16.086-.011,14.681-15.768.091-.039.184-.077.294-.122.076-.033.161-.065.248-.1s.136-.12.219-.169a10.062,10.062,0,0,1,2.467-1.371,8.259,8.259,0,0,1,1.443-.417,5.749,5.749,0,0,1,.679-.107.515.515,0,0,1,.1,0l.582.12c.493.106.981.213,1.457.318s.927.244,1.385.323l2.59.495c1.636.29,3.039.629,4.2.9,2.327.533,3.667.813,3.667.813s-1.271-.491-3.515-1.322c-1.125-.411-2.486-.928-4.081-1.42-.547-.182-1.126-.368-1.721-.564l-.081-.147c-.044-.076-.092-.161-.14-.248s-.145-.136-.214-.221a4.011,4.011,0,0,1-.462-.494c-.148-.191-.3-.4-.46-.606s-.337-.421-.494-.653c-.133-.24-.277-.482-.419-.725a5.17,5.17,0,0,1-.395-.739c-.114-.254-.222-.5-.327-.74a5.76,5.76,0,0,1-.256-.718c-.067-.231-.157-.444-.2-.648a1.745,1.745,0,0,0-.068-.294c-.028-.045-.048-.083-.071-.13.588-2.829,2.44-15.875-11.491-23.7,0,0-6.786,16.783,10.88,24.065.018.075.048.156.061.24.045.219.134.444.206.69a6.523,6.523,0,0,0,.272.758c.112.255.228.521.348.79a6.205,6.205,0,0,0,.414.781c.15.259.3.512.452.766s.343.465.511.688.332.436.49.641a1.781,1.781,0,0,0,.233.266c-.779-.223-1.62-.355-2.471-.552q-1.509-.319-3.139-.669c-1.1-.174-2.228-.364-3.391-.552-1.161-.216-2.373-.32-3.609-.457-.615-.064-1.24-.129-1.868-.2-.325-.019-.657-.034-.986-.048-.016-.039-.033-.069-.048-.107-.033-.067-.112-.088-.158-.147-.437-.394-1.023-.918-1.605-1.438s-1.17-1.046-1.611-1.438c-.04-.029-.071-.071-.1-.1-.709-3.519-4.2-15.329-19.345-17.371,0,0-.124,18.359,19.376,18.358.368.33.791.7,1.208,1.081l1.241,1.114c-.607-.03-1.217-.069-1.839-.086-.657.007-1.32.017-1.983.025-1.332-.022-2.674.114-4.033.209-.677.035-1.351.149-2.032.233-.675.1-1.36.169-2.038.294-1,.194-2.013.389-3.016.608a3.18,3.18,0,0,0-.338-.02c-.638-.04-1.382-.029-2.188-.125s-1.658-.155-2.513-.28c-1.709-.212-3.409-.5-4.687-.721-.16-.019-.306-.077-.457-.079-.081,0-.161,0-.24,0-.978-1.724-8.76-14.319-24.351-7.741,0,0,12.068,17.376,24.02,8.269a.21.21,0,0,1,.045.018c.126.05.258.1.4.154s.3.042.462.08c1.282.225,2.991.513,4.718.727.857.127,1.73.2,2.542.281.059,0,.115.006.175.011-2.2.56-4.358,1.207-6.484,1.831-1.285.388-2.56.745-3.808,1.1s-2.54.667-3.752.977c-1.236.264-2.461.529-3.656.783-.6.129-1.188.253-1.771.381s-1.17.194-1.742.292l-3,.489a6.686,6.686,0,0,1-.851-.119,14.158,14.158,0,0,1-2.157-.555c-.348-.107-.678-.261-1.005-.387a14.991,14.991,0,0,1-1.706-.874c-.125-.063-.222-.158-.341-.207s-.241-.094-.349-.134c-.007,0-.013-.006-.02-.007-1.034-2.776-5.268-11.636-16.375-8.613,0,0,3.764,12.821,16.507,9.452a1.5,1.5,0,0,1,.211.12,15.919,15.919,0,0,0,1.788.919c.346.132.687.291,1.056.406.323.113.652.21.989.294-.418.05-.83.093-1.233.143C139.688,2532.9,138.719,2532.957,137.8,2533.064Z" transform="translate(-102.358 -2211.554)" fill="url(#linear-gradient-7)"/>
            <path id="Path_12731" data-name="Path 12731" d="M187.846,2439.766c-22.573-37.343-65.18-49.816-66.556-52.092-.787-1.3-7.382,45.8,15.194,83.141s52.374,60.667,66.556,52.094S210.421,2477.111,187.846,2439.766Z" transform="translate(-105.155 -2193.942)" fill="url(#linear-gradient-8)"/>
            <line id="Line_330" data-name="Line 330" x2="71.195" y2="117.746" transform="translate(26.691 211.222)" fill="none" stroke="#fff" stroke-linecap="round" stroke-linejoin="round" stroke-width="0.687"/>
            <line id="Line_331" data-name="Line 331" x2="26.399" y2="13.674" transform="translate(27.465 242.745)" fill="none" stroke="#fff" stroke-linecap="round" stroke-linejoin="round" stroke-width="0.687"/>
            <line id="Line_332" data-name="Line 332" x2="16.443" y2="5.982" transform="translate(42.686 258.901)" fill="none" stroke="#fff" stroke-linecap="round" stroke-linejoin="round" stroke-width="0.687"/>
            <line id="Line_333" data-name="Line 333" x1="1.229" y2="20.647" transform="translate(70.092 261.641)" fill="none" stroke="#fff" stroke-linecap="round" stroke-linejoin="round" stroke-width="0.687"/>
            <line id="Line_334" data-name="Line 334" x2="1.836" y2="21.813" transform="translate(44.655 221.195)" fill="none" stroke="#fff" stroke-linecap="round" stroke-linejoin="round" stroke-width="0.687"/>
            <path id="Path_12732" data-name="Path 12732" d="M135.651,2521.853c-22.087-22.086-23.457-53.833-24.8-55.181-.768-.769,33.095,2.716,55.181,24.8s33.19,46.793,24.8,55.181S157.738,2543.941,135.651,2521.853Z" transform="translate(-103.718 -2206.602)" fill="url(#linear-gradient-9)"/>
            <line id="Line_335" data-name="Line 335" x2="69.635" y2="69.651" transform="translate(17.478 270.404)" fill="none" stroke="#fff" stroke-linecap="round" stroke-linejoin="round" stroke-width="0.687"/>
            <line id="Line_336" data-name="Line 336" x2="4.981" y2="20.69" transform="translate(39.254 276.342)" fill="none" stroke="#fff" stroke-linecap="round" stroke-linejoin="round" stroke-width="0.687"/>
            <line id="Line_337" data-name="Line 337" x2="1.341" y2="12.453" transform="translate(47.875 289.688)" fill="none" stroke="#fff" stroke-linecap="round" stroke-linejoin="round" stroke-width="0.687"/>
            <line id="Line_338" data-name="Line 338" x2="14.56" y2="2.682" transform="translate(44.872 310.058)" fill="none" stroke="#fff" stroke-linecap="round" stroke-linejoin="round" stroke-width="0.687"/>
            <path id="Path_12733" data-name="Path 12733" d="M191.993,2446.334c-5.981-19.976,3.274-39.063,2.91-40.282-.208-.694,18.585,12.082,24.564,32.058s4.675,38.009-2.912,40.28S197.971,2466.308,191.993,2446.334Z" transform="translate(-116.411 -2196.89)" fill="url(#linear-gradient-10)"/>
            <line id="Line_339" data-name="Line 339" x2="18.846" y2="62.988" transform="translate(81.297 218.512)" fill="none" stroke="#fff" stroke-linecap="round" stroke-linejoin="round" stroke-width="0.687"/>
            <line id="Line_340" data-name="Line 340" x1="3.629" y2="13.734" transform="translate(88.581 228.901)" fill="none" stroke="#fff" stroke-linecap="round" stroke-linejoin="round" stroke-width="0.687"/>
            <line id="Line_341" data-name="Line 341" x1="3.159" y2="7.742" transform="translate(89.889 239.475)" fill="none" stroke="#fff" stroke-linecap="round" stroke-linejoin="round" stroke-width="0.687"/>
            <line id="Line_342" data-name="Line 342" x2="7.705" y2="6.188" transform="translate(84.83 250.493)" fill="none" stroke="#fff" stroke-linecap="round" stroke-linejoin="round" stroke-width="0.687"/>
            <path id="Path_12734" data-name="Path 12734" d="M267.8,2354.542l-10.346-5.5-10.345,5.5c.96,48.594-31.754,82.269-31.754,82.269v15.4h84.2v-15.4S266.835,2403.136,267.8,2354.542Z" transform="translate(-120.482 -2187.75)" fill="url(#linear-gradient-11)"/>
            <rect id="Rectangle_882" data-name="Rectangle 882" width="108.971" height="19.112" transform="translate(82.231 259.885)" fill="url(#linear-gradient-11)"/>
            <path id="Path_12735" data-name="Path 12735" d="M325.158,2573.253h-157.3V2514.1a25.273,25.273,0,0,1,25.274-25.274H299.884a25.273,25.273,0,0,1,25.274,25.274Z" transform="translate(-112.863 -2210.17)" fill="#5b513d"/>
            <g id="Group_1138" data-name="Group 1138" transform="translate(30.921 0)">
              <path id="Path_12736" data-name="Path 12736" d="M139.675,2233.587a9.946,9.946,0,0,1,8.037-6.763l61.279-8.841,27.452-55.5a9.932,9.932,0,0,1,8.935-5.54l.143,0a9.937,9.937,0,0,1,8.774,5.559l27.345,55.549L342.907,2227a9.955,9.955,0,0,1,5.5,17l-44.383,43.167,10.435,61.04a10,10,0,0,1-10,11.632,9.819,9.819,0,0,1-4.46-1.15l-54.779-28.876-54.845,28.774a10.082,10.082,0,0,1-4.789,1.129,9.86,9.86,0,0,1-5.689-1.9,9.97,9.97,0,0,1-3.955-9.738l10.534-61.024-44.291-43.265A9.937,9.937,0,0,1,139.675,2233.587Z" transform="translate(-139.186 -2156.937)" fill="url(#linear-gradient-13)"/>
            </g>
            <path id="Path_12737" data-name="Path 12737" d="M300.8,2546.484a15.993,15.993,0,0,1-15.993,15.992H218.347a15.993,15.993,0,0,1-15.993-15.992h0a15.993,15.993,0,0,1,15.993-15.993h66.461a15.993,15.993,0,0,1,15.993,15.993Z" transform="translate(-118.397 -2216.854)" fill="#ffd579"/>
          </g>
          <g id="Group_1141" data-name="Group 1141" transform="translate(321.806 60.894)">
            <path id="Path_12738" data-name="Path 12738" d="M424.108,2276.875l32.242,1.529-3.968,18.666,21.723-17.825,78.942,3.749a7.99,7.99,0,0,0,8.36-7.6l1.978-41.729a7.989,7.989,0,0,0-7.6-8.359l-128.939-6.12a7.988,7.988,0,0,0-8.359,7.6l-1.979,41.729A7.991,7.991,0,0,0,424.108,2276.875Z" transform="translate(-416.496 -2219.175)" fill="#ff5f6b" stroke="#fff" stroke-width="0.821" opacity="0.7"/>
            <g id="Group_1140" data-name="Group 1140" transform="translate(17.95 18.215)">
              <path id="Path_12739" data-name="Path 12739" d="M451.149,2247.426l6.885,1.562-5.427,4.514.642,7.031-5.971-3.767-6.488,2.784,1.737-6.843-4.652-5.31,7.045-.462,3.613-6.065Z" transform="translate(-437.875 -2240.869)" fill="#fff"/>
              <path id="Path_12740" data-name="Path 12740" d="M479.137,2248.71l6.885,1.563-5.428,4.515.642,7.03-5.971-3.767-6.488,2.783,1.737-6.842-4.652-5.311,7.044-.462,3.613-6.065Z" transform="translate(-442.364 -2241.075)" fill="#fff"/>
              <path id="Path_12741" data-name="Path 12741" d="M507.126,2249.995l6.885,1.562-5.427,4.515.642,7.03-5.971-3.766-6.488,2.783,1.737-6.843-4.652-5.31,7.044-.462,3.613-6.065Z" transform="translate(-446.854 -2241.281)" fill="#fff"/>
              <path id="Path_12742" data-name="Path 12742" d="M535.114,2251.279,542,2252.84l-5.427,4.515.642,7.03-5.971-3.766-6.488,2.783,1.737-6.843-4.652-5.31,7.044-.462,3.613-6.065Z" transform="translate(-451.343 -2241.487)" fill="#fff"/>
              <path id="Path_12743" data-name="Path 12743" d="M563.1,2252.563l6.885,1.562-5.427,4.515.642,7.03-5.971-3.766-6.488,2.783,1.737-6.843-4.652-5.31,7.044-.462,3.613-6.066Z" transform="translate(-455.832 -2241.693)" fill="#fff"/>
            </g>
          </g>
          <g id="Group_1142" data-name="Group 1142" transform="translate(294.299 131.276)">
            <path id="Path_234" data-name="Path 234" d="M383.734,2592.248l34.648-5.623a2.8,2.8,0,0,0,2.319-3.207,2.849,2.849,0,0,0-.124-.488c-.667-1.881-1.535-4.542-2.4-7.8-3.582,3.662-15.416,3.082-18.044,2.9-1.354.487-16.4,6.114-16.4,14.213" transform="translate(-383.734 -2346.651)" fill="#855400"/>
            <path id="Path_235" data-name="Path 235" d="M410.944,2305.494a2.425,2.425,0,0,0-2.084-2.4c-5.425-.687-14.065,2.284-10.81,15.815,2.615,10.859,11.621,31.045,16.743,42.082l.007.254,23.14-.327c-6.25-12.546-10.946-23.948-14.088-32.213-2.248-5.919-3.7-10.235-4.342-12.219a2.473,2.473,0,0,0-1.535-1.555,10.5,10.5,0,0,1-7.031-9.38Z" transform="translate(-385.916 -2303.002)" fill="#ffd296"/>
            <path id="Path_236" data-name="Path 236" d="M399.123,2428.957a26.355,26.355,0,0,0,8.431,4.81,59.5,59.5,0,0,0,16.083,2.859c15.029,1.027,31.86-.121,43.94,9.448a32.118,32.118,0,0,1,5.037,5c-6.411-21.187-3.242-34.227,2.148-42.166a29.083,29.083,0,0,1,16.27-11.7l-3.269-1.761L466.3,2383.863c-1.8,2.088-3.389,4-4.757,5.684s-2.507,3.162-3.421,4.367c-5.757-.454-10.027-4.03-13.081-8.166a43.719,43.719,0,0,1-6.471-13.775l-.34.007-23.141.328-.7.006c5.25,6.23,13.1,25.442,12.788,33.767-5.61,8.745-14.775,16.424-28.05,22.874" transform="translate(-386.202 -2314.065)" fill="url(#linear-gradient-14)"/>
            <path id="Path_237" data-name="Path 237" d="M400.918,2557.213l-.1.04c2.628.18,14.462.76,18.045-2.9-4.5-16.936-8.939-49.983,15.3-73.316l.561-.334a105.335,105.335,0,0,1-12.795-31.946l-.073-.318c-5.75-.4-11.233-1.108-16.083-2.859-36.869,46.221-4.856,111.637-4.856,111.637" transform="translate(-384.423 -2325.871)" fill="url(#linear-gradient-15)"/>
            <path id="Path_238" data-name="Path 238" d="M428.321,2448.98l.073.317a105.354,105.354,0,0,0,12.795,31.946,102.943,102.943,0,0,0,70.163,48.239c.673.112,1.341.225,2.021.326l3.356.614c1.04-1.589,6.85-10.673,7.2-16.371-17.017-7.9-47.529-25.981-51.769-55.5l.1-.12c-12.081-9.572-28.911-8.424-43.94-9.448" transform="translate(-390.886 -2326.417)" fill="url(#linear-gradient-16)"/>
            <path id="Path_239" data-name="Path 239" d="M453.213,2359.865a19.3,19.3,0,0,0,3.949,12.007,17.455,17.455,0,0,0,11.355,6.685,18.121,18.121,0,0,0,5.93-.187l1.7-.348c3.355-3.842,7.378-8.224,12.02-12.92-20.685-1.634-20.025-21.14-20.025-21.14s-10.859,1.128-14.495,11.454v.007a23.969,23.969,0,0,0-.434,4.447" transform="translate(-394.878 -2309.573)" fill="#ffd296"/>
            <path id="Path_240" data-name="Path 240" d="M457.257,2377.205l-.093.073c1.594,3.15-.477,6.21-3.356,9.313,3.055,4.136,7.325,7.711,13.082,8.164.914-1.208,2.065-2.681,3.421-4.367s2.955-3.595,4.757-5.683c.379-.44.767-.887,1.174-1.35l-1.7.347a18.142,18.142,0,0,1-5.93.187,17.458,17.458,0,0,1-11.355-6.684" transform="translate(-394.974 -2314.905)" fill="#ffc896"/>
            <path id="Path_241" data-name="Path 241" d="M453.73,2354.035c3.635-10.322,14.495-11.454,14.495-11.454s-.661,19.506,20.025,21.14c1.295-1.314,2.648-2.654,4.043-4.016a22.583,22.583,0,0,0,.317-9.712c-.453-1.354-.88-2.754-1.35-4.309v-.01a17.07,17.07,0,0,0-10.633-9.354c-12.784-4.1-24.528,5.424-26.9,17.712" transform="translate(-394.961 -2308.192)" fill="#855400"/>
            <path id="Path_242" data-name="Path 242" d="M479.13,2376.276,500.6,2387.85c4-4.836,8.345-9.512,12.767-13.914a318.309,318.309,0,0,1,36.286-30.712,12.361,12.361,0,0,0,4.876-7.543,11.3,11.3,0,0,0-3.129-10.331,2.433,2.433,0,0,0-3.207-.135h0a14.933,14.933,0,0,1-13.673,2.584,2.433,2.433,0,0,0-2.1.335,283.1,283.1,0,0,0-32.975,26.911q-1.572,1.492-3.069,2.95c-1.395,1.361-2.748,2.7-4.043,4.016-4.642,4.7-8.665,9.079-12.021,12.921-.407.461-.793.907-1.174,1.35" transform="translate(-399.035 -2306.479)" fill="#ffc896"/>
            <path id="Path_243" data-name="Path 243" d="M489.212,2411.734l.273.127c23.181,11.666,35.509-2.051,20.418-22.295-4.423,4.4-3.687,3.856-7.689,8.693l3.269,1.766a29.083,29.083,0,0,0-16.27,11.713" transform="translate(-400.652 -2316.887)" fill="#855400"/>
            <path id="Path_244" data-name="Path 244" d="M499.98,2352.789a22.578,22.578,0,0,1-.317,9.712q1.5-1.46,3.068-2.948l-.12-.127a57.579,57.579,0,0,1-2.628-6.637" transform="translate(-402.329 -2310.988)" fill="#855400"/>
            <path id="Path_245" data-name="Path 245" d="M533.277,2542.912c-4.7,6.577-4.709,16.515-2.155,21.625l18.331-29.955a3.295,3.295,0,0,0-1.6-4.789c-1.961-.768-4.61-1.869-7.7-3.31-.354,5.7-6.164,14.783-7.2,16.37Z" transform="translate(-407.101 -2338.848)" fill="#855400"/>
          </g>
          <path id="Path_12744" data-name="Path 12744" d="M138.267,2177.008a1.487,1.487,0,0,1,1.574-.1l8.186,4.4,8.266-4.251a1.5,1.5,0,0,1,1.576.129c.006,0,.01.009.018.013a1.5,1.5,0,0,1,.562,1.454L156.8,2187.8l6.6,6.547a1.5,1.5,0,0,1-.851,2.545l-9.21,1.25-4.189,8.3a1.493,1.493,0,0,1-2.243.512,1.468,1.468,0,0,1-.437-.535l-4.035-8.372-9.192-1.42a1.531,1.531,0,0,1-.679-.29,1.493,1.493,0,0,1-.126-2.268l6.718-6.428-1.489-9.176A1.493,1.493,0,0,1,138.267,2177.008Z" transform="translate(-49.053 -2151.473)" fill="url(#linear-gradient-17)"/>
          <g id="Group_1143" data-name="Group 1143" transform="translate(308.329 132.215)" opacity="0.7">
            <line id="Line_343" data-name="Line 343" x2="4.213" y2="9.112" transform="translate(4.265 0)" fill="none" stroke="#855400" stroke-linecap="round" stroke-width="1" opacity="0.4"/>
            <line id="Line_344" data-name="Line 344" x2="3.438" y2="7.436" transform="translate(0 2.857)" fill="none" stroke="#855400" stroke-linecap="round" stroke-width="1" opacity="0.4"/>
          </g>
          <g id="Group_1144" data-name="Group 1144" transform="translate(438.571 151.913)" opacity="0.7">
            <line id="Line_345" data-name="Line 345" x1="7.205" y2="5.696" transform="translate(3.681 4.942)" fill="none" stroke="#855400" stroke-linecap="round" stroke-width="1" opacity="0.4"/>
            <line id="Line_346" data-name="Line 346" x1="8.962" y2="7.085" fill="none" stroke="#855400" stroke-linecap="round" stroke-width="1" opacity="0.4"/>
          </g>
          <path id="Path_12745" data-name="Path 12745" d="M379.694,2161.091a1.2,1.2,0,0,0-.457-1.186l-5.971-4.517.336-7.482a1.21,1.21,0,0,0-.624-1.11.036.036,0,0,0-.016-.008,1.2,1.2,0,0,0-1.254.077l-6.143,4.282-7.01-2.63a1.2,1.2,0,0,0-1.575,1.478l2.176,7.164-4.67,5.857a1.2,1.2,0,0,0,.918,1.953l7.487.144,4.127,6.253a1.213,1.213,0,0,0,.441.4,1.2,1.2,0,0,0,1.7-.667l2.451-7.081,7.221-1.99A1.2,1.2,0,0,0,379.694,2161.091Z" transform="translate(-84.702 -2146.648)" fill="url(#linear-gradient-18)"/>
          <g id="Group_1152" data-name="Group 1152" transform="translate(0.013)" opacity="0.35" style="mix-blend-mode: multiply;isolation: isolate">
            <path id="Path_12746" data-name="Path 12746" d="M463.622,2176.913a1.312,1.312,0,0,1,1.357-.3l7.714,2.734,6.626-4.808a1.322,1.322,0,0,1,1.389-.1.073.073,0,0,1,.018.009,1.317,1.317,0,0,1,.684,1.19l-.213,8.183,6.618,4.816a1.318,1.318,0,0,1-.4,2.328l-7.848,2.322-2.536,7.786a1.314,1.314,0,0,1-2.335.337l-4.636-6.747-8.189-.005a1.352,1.352,0,0,1-.629-.162,1.316,1.316,0,0,1-.416-1.956l4.988-6.5-2.526-7.789A1.314,1.314,0,0,1,463.622,2176.913Z" transform="translate(-101.77 -2151.081)" fill="none" stroke="#4747c7" stroke-width="1"/>
            <path id="Path_12747" data-name="Path 12747" d="M110.686,2293.792a.952.952,0,0,1,.714.715l1.347,5.8,5.545,2.179a.961.961,0,0,1,.6.811.054.054,0,0,1,0,.017.96.96,0,0,1-.461.884l-5.1,3.075-.36,5.946a.957.957,0,0,1-1.584.665l-4.5-3.9-5.767,1.5a.962.962,0,0,1-.964-.3.972.972,0,0,1-.232-.562.933.933,0,0,1,.074-.437l2.321-5.487-3.206-5.023a.945.945,0,0,1-.145-.45.926.926,0,0,1,.134-.559.961.961,0,0,1,.9-.461l5.938.514,3.785-4.6A.951.951,0,0,1,110.686,2293.792Z" transform="translate(-43.773 -2170.245)" fill="none" stroke="#4747c7" stroke-width="1"/>
            <path id="Path_12748" data-name="Path 12748" d="M379.694,2161.091a1.2,1.2,0,0,0-.457-1.186l-5.971-4.517.336-7.482a1.21,1.21,0,0,0-.624-1.11.036.036,0,0,0-.016-.008,1.2,1.2,0,0,0-1.254.077l-6.143,4.282-7.01-2.63a1.2,1.2,0,0,0-1.575,1.478l2.176,7.164-4.67,5.857a1.2,1.2,0,0,0,.918,1.953l7.487.144,4.127,6.253a1.213,1.213,0,0,0,.441.4,1.2,1.2,0,0,0,1.7-.667l2.451-7.081,7.221-1.99A1.2,1.2,0,0,0,379.694,2161.091Z" transform="translate(-84.715 -2146.648)" fill="none" stroke="#4747c7" stroke-width="1"/>
            <path id="Path_12749" data-name="Path 12749" d="M469.259,2524.3c-.008.009-.008,0-.008,0-15.852-.453-31.519-.671-46.464-.613" transform="translate(-95.712 -2207.122)" fill="none" stroke="#4747c7" stroke-width="1" style="mix-blend-mode: multiply;isolation: isolate"/>
            <path id="Path_12750" data-name="Path 12750" d="M36.636,2526.995c26.582,0,51.242-4.4,77.421-8.993" transform="translate(-33.775 -2206.211)" fill="none" stroke="#4747c7" stroke-width="1" style="mix-blend-mode: multiply;isolation: isolate"/>
            <path id="Path_12751" data-name="Path 12751" d="M375.907,2524.7v-.009q5.264-.239,10.781-.411" transform="translate(-88.193 -2207.218)" fill="none" stroke="#4747c7" stroke-width="1" style="mix-blend-mode: multiply;isolation: isolate"/>
            <path id="Path_12752" data-name="Path 12752" d="M564.594,2527.988s-16,.676-22.477-.676" transform="translate(-114.852 -2207.705)" fill="none" stroke="#4747c7" stroke-width="1" style="mix-blend-mode: multiply;isolation: isolate"/>
            <g id="Group_1145" data-name="Group 1145" transform="translate(58.04 202.347)">
              <path id="Path_12753" data-name="Path 12753" d="M360.32,2567.1a20.531,20.531,0,0,1-5.113-.831v-11.5A23.158,23.158,0,0,1,360.32,2567.1Z" transform="translate(-142.913 -2414.454)" fill="none" stroke="#4747c7" stroke-width="1"/>
              <path id="Path_12754" data-name="Path 12754" d="M362.041,2525.485a35.328,35.328,0,0,1-6.834,7.028v-6.859c.134-.638.244-1.276.336-1.931a22.358,22.358,0,0,1,5.81,1.5h.042C361.613,2525.309,361.823,2525.393,362.041,2525.485Z" transform="translate(-142.913 -2409.475)" fill="none" stroke="#4747c7" stroke-width="1"/>
              <path id="Path_12755" data-name="Path 12755" d="M355.207,2547.414c.5.42,1.041.89,1.587,1.352.453.386.907.781,1.335,1.15.26.235.5.453.739.663-.092,2.695,1.293,11.494,22.77,13.039,0,0-2.065-14.919-22.569-13.82-.151-.135-.3-.269-.453-.412-.428-.369-.9-.764-1.352-1.15-.621-.537-1.243-1.058-1.788-1.528-.092-.076-.185-.152-.269-.227v.454" transform="translate(-142.913 -2413.126)" fill="none" stroke="#4747c7" stroke-width="1"/>
              <path id="Path_12756" data-name="Path 12756" d="M385.621,2539.7a21.8,21.8,0,0,0-16.146,5.348c-.554-.034-1.209-.076-1.99-.135-.588-.025-1.251-.1-1.956-.168-.714-.084-1.486-.135-2.309-.244s-1.688-.227-2.611-.344c-.9-.109-1.839-.159-2.821-.285-.025,0-.05-.008-.076-.008-.4-.05-.63-.168-.244-.445a.262.262,0,0,1,.067-.017.062.062,0,0,1,.034-.009.273.273,0,0,0,.05-.017" transform="translate(-143.244 -2412.024)" fill="none" stroke="#4747c7" stroke-width="1"/>
              <path id="Path_12757" data-name="Path 12757" d="M357.457,2542.406c-.025,0-.05-.008-.076-.008-.4-.05-.63-.168-.243-.445a.273.273,0,0,1,.067-.017c.185-.075.705-.277.991-.386l.428-.2c.5-.236.966-.479,1.36-.714a1.786,1.786,0,0,1,.21-.127c12.745,3.375,16.507-9.445,16.507-9.445a13.862,13.862,0,0,0-8.035-.059c-5.264,1.671-7.607,6.7-8.337,8.673H360.3c-.109.042-.227.093-.344.135a3.774,3.774,0,0,0-.344.21,15.314,15.314,0,0,1-1.7.873c-.327.126-.655.277-1.008.386-.353.126-.705.235-1.075.327a5.14,5.14,0,0,1-.621.143v1.822c.277.033.546.067.814.092l1.2.151c1.024.092,2,.294,2.939.286.94.017,1.83.024,2.67.042,1.671-.025,3.132-.051,4.324-.143.781-.042,1.436-.1,1.981-.152,7.221,5.9,13.635,5.7,18.345,3.887" transform="translate(-142.913 -2410.553)" fill="none" stroke="#4747c7" stroke-width="1"/>
              <path id="Path_12758" data-name="Path 12758" d="M364.872,2462.516c14.307-34.273,9.084-70.821,8.388-69.679-1.2,2-34.155,11.847-57.463,39.461" transform="translate(-136.592 -2388.478)" fill="none" stroke="#4747c7" stroke-width="1"/>
              <path id="Path_12759" data-name="Path 12759" d="M298.649,2465.912c-.084.159-.168.311-.252.47" transform="translate(-133.801 -2400.203)" fill="none" stroke="#4747c7" stroke-width="1"/>
              <path id="Path_12760" data-name="Path 12760" d="M355.207,2545.993v.453c.092-.075.176-.151.269-.227.185-.151.361-.311.546-.47q.718-.617,1.436-1.26c.386-.344.781-.7,1.167-1.058" transform="translate(-142.913 -2412.637)" fill="none" stroke="#4747c7" stroke-width="1"/>
              <path id="Path_12761" data-name="Path 12761" d="M371.237,2525.83c1.411-1.738,2.72-3.518,3.921-5.314A89.273,89.273,0,0,0,385.8,2498.2a.03.03,0,0,1,.008-.017" transform="translate(-145.484 -2405.379)" fill="none" stroke="#4747c7" stroke-width="1"/>
              <path id="Path_12762" data-name="Path 12762" d="M352.721,2534.159v-16.842c.134-.638.277-9.782-.252-11.847v-.009c-.159-.613-.344-1.226-.546-1.822a25.941,25.941,0,0,0-12.216-14.467,97.881,97.881,0,0,1,29-14c8.631-2.6,15.264-3.442,16.977-3.425" transform="translate(-140.427 -2401.14)" fill="none" stroke="#4747c7" stroke-width="1"/>
              <path id="Path_12763" data-name="Path 12763" d="M295.187,2422.157c6.389-7.3,12.535-11.343,12.418-10.94-.269.873,4.45,10.991,4.887,24.03a53.038,53.038,0,0,1-.722,10.9" transform="translate(-133.286 -2391.426)" fill="none" stroke="#4747c7" stroke-width="1"/>
              <path id="Path_12764" data-name="Path 12764" d="M311.173,2465.912c-.059.159-.118.311-.176.47" transform="translate(-135.822 -2400.203)" fill="none" stroke="#4747c7" stroke-width="1"/>
              <path id="Path_12765" data-name="Path 12765" d="M277.074,2465.912c-.025.159-.05.319-.067.47" transform="translate(-130.37 -2400.203)" fill="none" stroke="#4747c7" stroke-width="1"/>
              <line id="Line_347" data-name="Line 347" x1="0.05" y2="0.176" transform="translate(160.516 65.709)" fill="none" stroke="#4747c7" stroke-linecap="round" stroke-linejoin="round" stroke-width="1"/>
              <path id="Path_12766" data-name="Path 12766" d="M157.351,2534.079v1.47c-.89.235-1.772.453-2.662.68-1.259.269-2.494.537-3.7.8l-1.8.378c-.588.117-1.184.2-1.763.3-1.058.168-2.074.335-3.073.5-.042.067-.084.126-.143.21s-.109.159-.168.243c-.059.1-.16.134-.243.218-.2.168-.411.353-.646.554-.563.487-1.209,1.042-1.864,1.6-.462.378-.915.772-1.343,1.142-.26.235-.5.462-.739.672.092,2.687-1.293,11.494-22.77,13.03,0,0,2.065-14.92,22.577-13.82.143-.134.294-.268.453-.411.428-.369.89-.764,1.352-1.15.621-.529,1.234-1.059,1.78-1.529.26-.218.512-.428.73-.621-.428.059-.856.109-1.276.151l-1.2.151a28.912,28.912,0,0,1-2.939.285c-.94.017-1.83.033-2.662.042-1.679-.017-3.132-.05-4.332-.134-.772-.051-1.436-.109-1.981-.16-15.046,12.309-26.582-1.914-26.582-1.914,14.273-8.824,25.163.361,26.573,1.646.554-.034,1.209-.076,1.99-.135.6-.025,1.251-.1,1.965-.168s1.486-.125,2.3-.235,1.7-.227,2.611-.344c.9-.109,1.839-.168,2.821-.294.025,0,.05-.008.076-.008.4-.051.814-.093,1.234-.143-.336-.084-.663-.184-.991-.294-.369-.117-.705-.277-1.05-.411-.151-.067-.3-.134-.453-.21a11.523,11.523,0,0,1-1.335-.705,1.819,1.819,0,0,0-.218-.117c-12.737,3.367-16.507-9.454-16.507-9.454a13.913,13.913,0,0,1,8.027-.067c5.273,1.679,7.624,6.709,8.354,8.682.008,0,.008.008.017.008.109.034.227.084.353.135s.21.143.336.2a13.912,13.912,0,0,0,1.7.874c.327.126.663.286,1.008.395s.705.227,1.075.319c.353.1.722.168,1.083.235a7.645,7.645,0,0,0,.848.117c.982-.159,1.981-.319,3.006-.487.571-.1,1.159-.185,1.746-.294.579-.126,1.175-.252,1.772-.386,1.192-.252,2.418-.512,3.652-.781C155.319,2534.591,156.344,2534.348,157.351,2534.079Z" transform="translate(-102.357 -2409.724)" fill="none" stroke="#4747c7" stroke-width="1"/>
              <path id="Path_12767" data-name="Path 12767" d="M164.08,2538.907c.008-.008.025-.017.034-.025v.9c-.361.268-.7.521-1,.755a2.335,2.335,0,0,1-.286.219c-.034.017-.067.025-.1.042a22.011,22.011,0,0,1-1.755,9.227c-4.559,10.176-16.456,10.184-16.456,10.184,1.041-8.152,4.928-12.955,8.849-15.759a22.611,22.611,0,0,1,8.64-3.77c.05-.067.092-.134.151-.21.076-.083.143-.168.218-.26s.2-.143.294-.227C163.081,2539.663,163.559,2539.3,164.08,2538.907Z" transform="translate(-109.119 -2411.907)" fill="none" stroke="#4747c7" stroke-width="1"/>
              <path id="Path_12768" data-name="Path 12768" d="M129.687,2457.347c-14.307-34.272-9.093-70.82-8.4-69.67,1.209,2,34.172,11.847,57.471,39.47" transform="translate(-105.154 -2387.651)" fill="none" stroke="#4747c7" stroke-width="1"/>
              <path id="Path_12769" data-name="Path 12769" d="M167.257,2554.192s-2.082-1.327-3.14-2.04" transform="translate(-112.263 -2414.036)" fill="none" stroke="#4747c7" stroke-width="1"/>
              <path id="Path_12770" data-name="Path 12770" d="M130.76,2516.412a71.914,71.914,0,0,1-4.685-6.473c-12.972-20.092-14.105-42.148-15.23-43.265-.361-.369,7.1.227,17.4,3.333,11.368,3.417,26.2,9.882,37.782,21.469.176.177.529.537.529.537" transform="translate(-103.716 -2400.31)" fill="none" stroke="#4747c7" stroke-width="1"/>
              <path id="Path_12771" data-name="Path 12771" d="M150.737,2541.962c-.185-.151-.369-.31-.554-.47s-.369-.311-.546-.47" transform="translate(-109.94 -2412.25)" fill="none" stroke="#4747c7" stroke-width="1"/>
              <path id="Path_12772" data-name="Path 12772" d="M147.7,2539.318c-.395-.344-.789-.705-1.184-1.066" transform="translate(-109.44 -2411.807)" fill="none" stroke="#4747c7" stroke-width="1"/>
              <path id="Path_12773" data-name="Path 12773" d="M229.351,2466.382c-.008-.151-.025-.311-.034-.47" transform="translate(-122.721 -2400.203)" fill="none" stroke="#4747c7" stroke-width="1"/>
              <path id="Path_12774" data-name="Path 12774" d="M218.944,2436.5c-6.465-19.051-24.239-31.124-24.038-30.444.26.873-4.45,10.99-4.887,24.038a50.176,50.176,0,0,0,1.973,16.238,90.293,90.293,0,0,0,6.65,16.422" transform="translate(-116.412 -2390.598)" fill="none" stroke="#4747c7" stroke-width="1"/>
              <path id="Path_12775" data-name="Path 12775" d="M200.3,2485.238v-18.766H309.27v19.109" transform="translate(-118.066 -2400.293)" fill="none" stroke="#4747c7" stroke-width="1"/>
              <path id="Path_12776" data-name="Path 12776" d="M300.8,2546.484a15.993,15.993,0,0,1-15.993,15.992H218.347a15.993,15.993,0,0,1-15.993-15.992h0a15.993,15.993,0,0,1,15.993-15.993h66.461a15.993,15.993,0,0,1,15.993,15.993Z" transform="translate(-118.396 -2410.562)" fill="none" stroke="#4747c7" stroke-width="1"/>
            </g>
            <g id="Group_1146" data-name="Group 1146" transform="translate(0 2.534)" style="mix-blend-mode: multiply;isolation: isolate">
              <path id="Path_12777" data-name="Path 12777" d="M217.743,2164.8a209.857,209.857,0,0,1-24.814-4.814c-45.07-11.595-98.175-21.023-131.121,15.927-52.542,58.924,5.189,113.75.949,181.917-4.735,76.186-22.014,76.153-28.043,110.677-14.466,82.911,79.259,121,174.184,101.147,95.127-19.789,274.979,36.875,274.08-101.374-.084-13.182-1.814-28.152-5.415-45.112-7.3-34.374-8.06-68.907-5.6-103.431" transform="translate(-33.229 -2149.666)" fill="none" stroke="#4747c7" stroke-width="1"/>
              <path id="Path_12778" data-name="Path 12778" d="M513.273,2299.1c1.133-10.865,2.527-21.721,4.072-32.569,5.348-37.6,18.6-50.267-10.42-81.349-10.344-11.083-23.954-18.664-38.084-24.164-42.7-16.624-81.517-10.311-124.648-.982-21.921,4.739-43.386,7.284-64.927,6.681" transform="translate(-72.692 -2149.831)" fill="none" stroke="#4747c7" stroke-width="1"/>
            </g>
            <g id="Group_1148" data-name="Group 1148" transform="translate(321.793 60.894)">
              <path id="Path_12779" data-name="Path 12779" d="M424.108,2276.875l32.242,1.529-3.968,18.666,21.723-17.825,78.942,3.749a7.99,7.99,0,0,0,8.36-7.6l1.978-41.729a7.989,7.989,0,0,0-7.6-8.359l-128.939-6.12a7.988,7.988,0,0,0-8.359,7.6l-1.979,41.729A7.991,7.991,0,0,0,424.108,2276.875Z" transform="translate(-416.496 -2219.175)" fill="none" stroke="#4747c7" stroke-width="1" opacity="0.7"/>
              <g id="Group_1147" data-name="Group 1147" transform="translate(17.95 18.215)">
                <path id="Path_12780" data-name="Path 12780" d="M451.149,2247.426l6.885,1.562-5.427,4.514.642,7.031-5.971-3.767-6.488,2.784,1.737-6.843-4.652-5.31,7.045-.462,3.613-6.065Z" transform="translate(-437.875 -2240.869)" fill="none" stroke="#4747c7" stroke-width="1"/>
                <path id="Path_12781" data-name="Path 12781" d="M479.137,2248.71l6.885,1.563-5.428,4.515.642,7.03-5.971-3.767-6.488,2.783,1.737-6.842-4.652-5.311,7.044-.462,3.613-6.065Z" transform="translate(-442.364 -2241.075)" fill="none" stroke="#4747c7" stroke-width="1"/>
                <path id="Path_12782" data-name="Path 12782" d="M507.126,2249.995l6.885,1.562-5.427,4.515.642,7.03-5.971-3.766-6.488,2.783,1.737-6.843-4.652-5.31,7.044-.462,3.613-6.065Z" transform="translate(-446.854 -2241.281)" fill="none" stroke="#4747c7" stroke-width="1"/>
                <path id="Path_12783" data-name="Path 12783" d="M535.114,2251.279,542,2252.84l-5.427,4.515.642,7.03-5.971-3.766-6.488,2.783,1.737-6.843-4.652-5.31,7.044-.462,3.613-6.065Z" transform="translate(-451.343 -2241.487)" fill="none" stroke="#4747c7" stroke-width="1"/>
                <path id="Path_12784" data-name="Path 12784" d="M563.1,2252.563l6.885,1.562-5.427,4.515.642,7.03-5.971-3.766-6.488,2.783,1.737-6.843-4.652-5.31,7.044-.462,3.613-6.066Z" transform="translate(-455.832 -2241.693)" fill="none" stroke="#4747c7" stroke-width="1"/>
              </g>
            </g>
            <g id="Group_1149" data-name="Group 1149" transform="translate(294.286 131.276)">
              <path id="Path_234-2" data-name="Path 234" d="M383.734,2592.248l34.648-5.623a2.8,2.8,0,0,0,2.319-3.207,2.849,2.849,0,0,0-.124-.488c-.667-1.881-1.535-4.542-2.4-7.8-3.582,3.662-15.416,3.082-18.044,2.9-1.354.487-16.4,6.114-16.4,14.213" transform="translate(-383.734 -2346.651)" fill="none" stroke="#4747c7" stroke-width="1"/>
              <path id="Path_235-2" data-name="Path 235" d="M410.944,2305.494a2.425,2.425,0,0,0-2.084-2.4c-5.425-.687-14.065,2.284-10.81,15.815,2.615,10.859,11.621,31.045,16.743,42.082l.007.254,23.14-.327c-6.25-12.546-10.946-23.948-14.088-32.213-2.248-5.919-3.7-10.235-4.342-12.219a2.473,2.473,0,0,0-1.535-1.555,10.5,10.5,0,0,1-7.031-9.38Z" transform="translate(-385.916 -2303.002)" fill="none" stroke="#4747c7" stroke-width="1"/>
              <path id="Path_236-2" data-name="Path 236" d="M399.123,2428.957a26.355,26.355,0,0,0,8.431,4.81,59.5,59.5,0,0,0,16.083,2.859c15.029,1.027,31.86-.121,43.94,9.448a32.118,32.118,0,0,1,5.037,5c-6.411-21.187-3.242-34.227,2.148-42.166a29.083,29.083,0,0,1,16.27-11.7l-3.269-1.761L466.3,2383.863c-1.8,2.088-3.389,4-4.757,5.684s-2.507,3.162-3.421,4.367c-5.757-.454-10.027-4.03-13.081-8.166a43.719,43.719,0,0,1-6.471-13.775l-.34.007-23.141.328-.7.006c5.25,6.23,13.1,25.442,12.788,33.767-5.61,8.745-14.775,16.424-28.05,22.874" transform="translate(-386.202 -2314.065)" fill="none" stroke="#4747c7" stroke-width="1"/>
              <path id="Path_237-2" data-name="Path 237" d="M400.918,2557.213l-.1.04c2.628.18,14.462.76,18.045-2.9-4.5-16.936-8.939-49.983,15.3-73.316l.561-.334a105.335,105.335,0,0,1-12.795-31.946l-.073-.318c-5.75-.4-11.233-1.108-16.083-2.859-36.869,46.221-4.856,111.637-4.856,111.637" transform="translate(-384.423 -2325.871)" fill="none" stroke="#4747c7" stroke-width="1"/>
              <path id="Path_238-2" data-name="Path 238" d="M428.321,2448.98l.073.317a105.354,105.354,0,0,0,12.795,31.946,102.943,102.943,0,0,0,70.163,48.239c.673.112,1.341.225,2.021.326l3.356.614c1.04-1.589,6.85-10.673,7.2-16.371-17.017-7.9-47.529-25.981-51.769-55.5l.1-.12c-12.081-9.572-28.911-8.424-43.94-9.448" transform="translate(-390.886 -2326.417)" fill="none" stroke="#4747c7" stroke-width="1"/>
              <path id="Path_239-2" data-name="Path 239" d="M453.213,2359.865a19.3,19.3,0,0,0,3.949,12.007,17.455,17.455,0,0,0,11.355,6.685,18.121,18.121,0,0,0,5.93-.187l1.7-.348c3.355-3.842,7.378-8.224,12.02-12.92-20.685-1.634-20.025-21.14-20.025-21.14s-10.859,1.128-14.495,11.454v.007a23.969,23.969,0,0,0-.434,4.447" transform="translate(-394.878 -2309.573)" fill="none" stroke="#4747c7" stroke-width="1"/>
              <path id="Path_240-2" data-name="Path 240" d="M457.257,2377.205l-.093.073c1.594,3.15-.477,6.21-3.356,9.313,3.055,4.136,7.325,7.711,13.082,8.164.914-1.208,2.065-2.681,3.421-4.367s2.955-3.595,4.757-5.683c.379-.44.767-.887,1.174-1.35l-1.7.347a18.142,18.142,0,0,1-5.93.187,17.458,17.458,0,0,1-11.355-6.684" transform="translate(-394.974 -2314.905)" fill="none" stroke="#4747c7" stroke-width="1"/>
              <path id="Path_241-2" data-name="Path 241" d="M453.73,2354.035c3.635-10.322,14.495-11.454,14.495-11.454s-.661,19.506,20.025,21.14c1.295-1.314,2.648-2.654,4.043-4.016a22.583,22.583,0,0,0,.317-9.712c-.453-1.354-.88-2.754-1.35-4.309v-.01a17.07,17.07,0,0,0-10.633-9.354c-12.784-4.1-24.528,5.424-26.9,17.712" transform="translate(-394.961 -2308.192)" fill="none" stroke="#4747c7" stroke-width="1"/>
              <path id="Path_242-2" data-name="Path 242" d="M479.13,2376.276,500.6,2387.85c4-4.836,8.345-9.512,12.767-13.914a318.309,318.309,0,0,1,36.286-30.712,12.361,12.361,0,0,0,4.876-7.543,11.3,11.3,0,0,0-3.129-10.331,2.433,2.433,0,0,0-3.207-.135h0a14.933,14.933,0,0,1-13.673,2.584,2.433,2.433,0,0,0-2.1.335,283.1,283.1,0,0,0-32.975,26.911q-1.572,1.492-3.069,2.95c-1.395,1.361-2.748,2.7-4.043,4.016-4.642,4.7-8.665,9.079-12.021,12.921-.407.461-.793.907-1.174,1.35" transform="translate(-399.035 -2306.479)" fill="none" stroke="#4747c7" stroke-width="1"/>
              <path id="Path_243-2" data-name="Path 243" d="M489.212,2411.734l.273.127c23.181,11.666,35.509-2.051,20.418-22.295-4.423,4.4-3.687,3.856-7.689,8.693l3.269,1.766a29.083,29.083,0,0,0-16.27,11.713" transform="translate(-400.652 -2316.887)" fill="none" stroke="#4747c7" stroke-width="1"/>
              <path id="Path_244-2" data-name="Path 244" d="M499.98,2352.789a22.578,22.578,0,0,1-.317,9.712q1.5-1.46,3.068-2.948l-.12-.127a57.579,57.579,0,0,1-2.628-6.637" transform="translate(-402.329 -2310.988)" fill="none" stroke="#4747c7" stroke-width="1"/>
              <path id="Path_245-2" data-name="Path 245" d="M533.277,2542.912c-4.7,6.577-4.709,16.515-2.155,21.625l18.331-29.955a3.295,3.295,0,0,0-1.6-4.789c-1.961-.768-4.61-1.869-7.7-3.31-.354,5.7-6.164,14.783-7.2,16.37Z" transform="translate(-407.101 -2338.848)" fill="none" stroke="#4747c7" stroke-width="1"/>
            </g>
            <path id="Path_12785" data-name="Path 12785" d="M138.267,2177.008a1.487,1.487,0,0,1,1.574-.1l8.186,4.4,8.266-4.251a1.5,1.5,0,0,1,1.576.129c.006,0,.01.009.018.013a1.5,1.5,0,0,1,.562,1.454L156.8,2187.8l6.6,6.547a1.5,1.5,0,0,1-.851,2.545l-9.21,1.25-4.189,8.3a1.493,1.493,0,0,1-2.243.512,1.468,1.468,0,0,1-.437-.535l-4.035-8.372-9.192-1.42a1.531,1.531,0,0,1-.679-.29,1.493,1.493,0,0,1-.126-2.268l6.718-6.428-1.489-9.176A1.493,1.493,0,0,1,138.267,2177.008Z" transform="translate(-49.067 -2151.473)" fill="none" stroke="#4747c7" stroke-width="1"/>
            <g id="Group_1150" data-name="Group 1150" transform="translate(308.315 132.215)" opacity="0.7">
              <line id="Line_348" data-name="Line 348" x2="4.213" y2="9.112" transform="translate(4.265)" fill="none" stroke="#4747c7" stroke-linecap="round" stroke-width="1"/>
              <line id="Line_349" data-name="Line 349" x2="3.438" y2="7.436" transform="translate(0 2.857)" fill="none" stroke="#4747c7" stroke-linecap="round" stroke-width="1"/>
            </g>
            <g id="Group_1151" data-name="Group 1151" transform="translate(438.557 151.913)" opacity="0.7">
              <line id="Line_350" data-name="Line 350" x1="7.205" y2="5.696" transform="translate(3.681 4.942)" fill="none" stroke="#4747c7" stroke-linecap="round" stroke-width="1"/>
              <line id="Line_351" data-name="Line 351" x1="8.962" y2="7.085" fill="none" stroke="#4747c7" stroke-linecap="round" stroke-width="1"/>
            </g>
            <path id="Path_12786" data-name="Path 12786" d="M350.95,2233.793a10,10,0,0,0-8.043-6.791l-61.268-8.957L254.294,2162.5a9.937,9.937,0,0,0-8.774-5.559l-.143,0a9.93,9.93,0,0,0-8.934,5.54l-27.452,55.5-61.279,8.841a9.948,9.948,0,0,0-5.525,16.968l44.291,43.265-10.534,61.024a9.97,9.97,0,0,0,3.955,9.738,9.86,9.86,0,0,0,5.689,1.9,10.082,10.082,0,0,0,4.789-1.129l44.092-23.133c-3.808,42.2-31.336,70.542-31.336,70.542v10.358h84.2V2406s-27.51-28.325-31.332-70.5l44,23.194a9.819,9.819,0,0,0,4.46,1.15,10,10,0,0,0,10-11.632l-10.435-61.04L348.406,2244A9.961,9.961,0,0,0,350.95,2233.793Z" transform="translate(-50.224 -2148.298)" fill="none" stroke="#4747c7" stroke-width="1"/>
            <path id="Path_12787" data-name="Path 12787" d="M167.855,2573.253V2514.1a25.273,25.273,0,0,1,25.274-25.274H299.884a25.273,25.273,0,0,1,25.274,25.274v59.157Z" transform="translate(-54.822 -2201.531)" fill="none" stroke="#4747c7" stroke-width="1"/>
          </g>
        </g>
      </g>
    </g>
  </g>
</svg>
