<svg id="Component_21_8" data-name="Component 21 – 8" xmlns="http://www.w3.org/2000/svg" width="29.557" height="30.06" viewBox="0 0 29.557 30.06">
  <path id="Path_839" data-name="Path 839" d="M999.421,36.112a11.341,11.341,0,0,1-8.73-4.134,6.632,6.632,0,0,1,5.87-3.624,1.441,1.441,0,0,1,.423.067,7.311,7.311,0,0,0,4.874,0,1.437,1.437,0,0,1,.423-.067,6.632,6.632,0,0,1,5.87,3.624,11.341,11.341,0,0,1-8.73,4.134m0-20.847a5.334,5.334,0,1,1-5.244,5.333,5.288,5.288,0,0,1,5.244-5.333m0-5.818a14.9,14.9,0,0,0-14.779,15.03,14.781,14.781,0,1,0,29.557,0,14.9,14.9,0,0,0-14.779-15.03" transform="translate(-984.642 -9.446)" fill="#9e9ea3"/>
</svg>
