<svg width="132" height="19" viewBox="0 0 132 19" fill="none" xmlns="http://www.w3.org/2000/svg">
<path d="M37.959 0.129883L40.959 6.21188L47.671 7.18688L42.814 11.9209L43.961 18.6049L37.961 15.4489L31.961 18.6049L33.108 11.9209L28.251 7.18688L34.963 6.21188L37.959 0.129883Z" fill="#00C8C8"/>
<path d="M65.8176 0.129883L68.8176 6.21188L75.5296 7.18688L70.6726 11.9209L71.8196 18.6049L65.8196 15.4489L59.8196 18.6049L60.9666 11.9209L56.1016 7.18688L62.8136 6.21188L65.8176 0.129883Z" fill="#00C8C8"/>
<path d="M93.6728 0.129883L96.6729 6.21188L103.385 7.18688L98.5278 11.9209L99.6749 18.6049L93.6748 15.4489L87.6748 18.6049L88.8218 11.9209L83.9648 7.18688L90.6768 6.21188L93.6728 0.129883Z" fill="#00C8C8"/>
<path d="M121.529 0.129883L124.529 6.21188L131.241 7.18688L126.384 11.9209L127.531 18.6049L121.531 15.4489L115.531 18.6049L116.678 11.9209L111.821 7.18688L118.533 6.21188L121.529 0.129883Z" fill="#CACAD1"/>
<path d="M10.1055 0.129883L13.1055 6.21188L19.8175 7.18688L14.9605 11.9209L16.1075 18.6049L10.1075 15.4489L4.10746 18.6049L5.25446 11.9209L0.397461 7.18688L7.10946 6.21188L10.1055 0.129883Z" fill="#00C8C8"/>
</svg>
