<svg width="24" height="28" viewBox="0 0 24 28" fill="none" xmlns="http://www.w3.org/2000/svg">
<path d="M8.79318 27.3469C6.44623 27.3469 4.23879 26.4316 2.57678 24.7701C0.915337 23.1087 0 20.9012 0 18.5537C0 16.2062 0.915337 13.9993 2.57678 12.3373L13.0966 1.8181C14.2686 0.645481 15.8266 0 17.4834 0C19.1403 0 20.6983 0.645481 21.8703 1.8181C24.2893 4.23708 24.2893 8.17285 21.8703 10.5918L11.8079 20.6542C11.1253 21.3369 10.2168 21.7131 9.25056 21.7131C8.28434 21.7131 7.37586 21.3369 6.69322 20.6542C6.01058 19.9716 5.63438 19.0631 5.63438 18.0969C5.63438 17.1307 6.01058 16.2222 6.69322 15.5396L14.9261 7.30668C15.1193 7.11344 15.3778 7.00653 15.6539 7.00653C15.9301 7.00653 16.1885 7.11287 16.3817 7.30668C16.575 7.49993 16.6819 7.75835 16.6819 8.03449C16.6819 8.31064 16.5755 8.56906 16.3817 8.7623L8.14884 16.9952C7.54109 17.6029 7.54109 18.5915 8.14884 19.1986C8.44214 19.4919 8.8332 19.6537 9.25056 19.6537C9.66792 19.6537 10.059 19.4919 10.3523 19.1986L20.4147 9.13621C22.031 7.51994 22.031 4.88999 20.4147 3.27371C19.632 2.49102 18.5909 2.05994 17.4834 2.05994C16.376 2.05994 15.3349 2.49102 14.5522 3.27371L4.0324 13.7929C1.40702 16.4183 1.40702 20.6897 4.0324 23.3145C5.30449 24.5866 6.99509 25.287 8.79318 25.287C10.5913 25.287 12.2819 24.5866 13.554 23.3145L22.2442 14.6242C22.4375 14.431 22.6959 14.3241 22.972 14.3241C23.2482 14.3241 23.5066 14.4304 23.6998 14.6242C23.8931 14.8175 24 15.0759 24 15.352C24 15.6282 23.8937 15.8866 23.6998 16.0799L15.0096 24.7701C13.3481 26.4316 11.1401 27.3469 8.79318 27.3469Z" fill="#545457"/>
</svg>
