<svg width="22" height="14" viewBox="0 0 22 14" fill="none" xmlns="http://www.w3.org/2000/svg">
<path d="M10.8489 10.0099C10.864 10.5115 10.755 11.009 10.5317 11.4584C10.3085 11.9077 9.9777 12.295 9.56885 12.5859C9.15003 12.8865 8.68157 13.1109 8.18488 13.2489C7.6387 13.4033 7.07343 13.4798 6.50586 13.4759H0.00585938V0.0279339H7.21185C7.65354 0.0208053 8.09006 0.123914 8.48187 0.327933C8.85278 0.523755 9.18113 0.791261 9.44788 1.11494C9.71649 1.44239 9.925 1.8148 10.0638 2.21493C10.2456 2.71842 10.3153 3.25551 10.268 3.78871C10.2207 4.32191 10.0575 4.83834 9.78986 5.30194C9.46322 5.87511 8.95677 6.32464 8.34888 6.58094C9.0753 6.77834 9.71745 7.20738 10.1779 7.80294C10.6434 8.44194 10.8808 9.21884 10.8519 10.0089M2.62189 2.26193V5.65293H6.1109C6.31986 5.6569 6.52743 5.61864 6.72125 5.54046C6.91508 5.46228 7.09116 5.34578 7.23889 5.19794C7.39822 5.03278 7.52173 4.83652 7.60175 4.62143C7.68176 4.40635 7.71651 4.17707 7.70386 3.94794C7.72831 3.49768 7.57541 3.05577 7.27789 2.71693C7.14498 2.57038 6.98222 2.45395 6.8006 2.37548C6.61898 2.297 6.42267 2.25829 6.22485 2.26193H2.62189ZM8.21588 9.51594C8.2163 9.28003 8.17427 9.04597 8.09186 8.82493C8.01567 8.61463 7.90369 8.41908 7.76086 8.24694C7.62427 8.08512 7.45618 7.95278 7.26685 7.85794C7.0722 7.76216 6.85778 7.71352 6.64087 7.71593H2.61987V11.2569H6.5069C6.73827 11.2589 6.96757 11.2137 7.18085 11.1239C7.38417 11.0391 7.56799 10.9135 7.72089 10.7549C8.03826 10.4198 8.21473 9.97551 8.21387 9.51394" fill="#F5F7FA"/>
<path d="M16.5149 13.4759C15.7973 13.4864 15.0848 13.3524 14.42 13.0819C13.8265 12.8406 13.2884 12.481 12.8384 12.0251C12.3883 11.5691 12.0356 11.0264 11.8019 10.4299C11.563 9.82859 11.4415 9.18702 11.444 8.53994C11.4397 7.87891 11.558 7.22281 11.793 6.60493C12.0217 6.0012 12.3721 5.45094 12.8225 4.98836C13.2729 4.52577 13.8135 4.16074 14.4109 3.91593C15.0839 3.64029 15.8058 3.50421 16.5329 3.51593C17.253 3.50337 17.968 3.63955 18.633 3.91593C19.5757 4.34284 20.3617 5.05321 20.8815 5.94803C21.4014 6.84285 21.6291 7.87755 21.533 8.90793C21.5299 9.03144 21.5149 9.15436 21.488 9.27494H14.047C14.0756 9.62548 14.1692 9.96764 14.323 10.2839C14.6022 10.8522 15.0885 11.292 15.6819 11.5129C15.9758 11.6231 16.2872 11.679 16.6009 11.6779C17.0877 11.6803 17.5668 11.5569 17.9919 11.3199C18.3915 11.1204 18.7072 10.7855 18.883 10.3749L20.996 10.9629C20.6198 11.7199 20.0284 12.3489 19.296 12.7709C18.4515 13.2592 17.488 13.5036 16.5129 13.4769M19.0129 7.67693C18.9806 7.01721 18.6939 6.39568 18.2129 5.94293C17.7481 5.51509 17.139 5.27836 16.5072 5.28002C15.8754 5.28169 15.2676 5.52164 14.805 5.95193C14.5797 6.16717 14.3959 6.4221 14.2629 6.70393C14.1197 7.0097 14.036 7.33988 14.016 7.67693H19.0129Z" fill="#F5F7FA"/>
<path d="M19.7179 0.666992H13.2759V2.26399H19.7179V0.666992Z" fill="#F5F7FA"/>
</svg>
