<svg width="21" height="24" viewBox="0 0 21 24" fill="none" xmlns="http://www.w3.org/2000/svg">
<path d="M20.396 16.7092C19.544 15.7782 17.948 14.3752 17.948 9.78321C17.9594 8.14753 17.4025 6.55864 16.3724 5.28807C15.3422 4.01751 13.9028 3.14413 12.3 2.81721V1.88221C12.3 1.50773 12.1513 1.14858 11.8865 0.88378C11.6217 0.618979 11.2625 0.470215 10.888 0.470215C10.5135 0.470215 10.1544 0.618979 9.88957 0.88378C9.62477 1.14858 9.476 1.50773 9.476 1.88221V2.81721C7.87328 3.14413 6.43384 4.01751 5.40367 5.28807C4.3735 6.55864 3.81654 8.14753 3.82799 9.78321C3.82799 14.3752 2.22799 15.7832 1.37999 16.7092C1.19154 16.9132 1.06628 17.1674 1.01927 17.4411C0.972269 17.7148 1.00556 17.9963 1.11516 18.2515C1.22476 18.5066 1.40596 18.7246 1.63683 18.8789C1.86769 19.0333 2.13831 19.1174 2.416 19.1212H19.359C19.6367 19.1174 19.9074 19.0333 20.1382 18.8789C20.3691 18.7246 20.5502 18.5066 20.6598 18.2515C20.7694 17.9963 20.8028 17.7148 20.7558 17.4411C20.7088 17.1674 20.5844 16.9132 20.396 16.7092ZM10.888 23.4332C11.6434 23.4266 12.3653 23.1202 12.8949 22.5815C13.4245 22.0427 13.7184 21.3157 13.712 20.5602H8.06401C8.05762 21.3157 8.35151 22.0427 8.88109 22.5815C9.41067 23.1202 10.1326 23.4266 10.888 23.4332Z" fill="#545457"/>
</svg>
