<svg width="23" height="20" viewBox="0 0 23 20" fill="none" xmlns="http://www.w3.org/2000/svg">
<path d="M11.6236 15.0531C10.3401 15.0516 9.10476 14.5646 8.1656 13.6898C7.22644 12.815 6.65305 11.6173 6.56062 10.3371L2.84662 7.46511C2.3489 8.07623 1.91341 8.7355 1.54662 9.43311C1.46573 9.59363 1.4236 9.77087 1.4236 9.95061C1.4236 10.1304 1.46573 10.3076 1.54662 10.4681C2.48327 12.3433 3.92043 13.9228 5.69909 15.0319C7.47776 16.1409 9.52857 16.7363 11.6246 16.7521C12.5563 16.7465 13.4834 16.6222 14.3836 16.3821L12.5466 14.9601C12.243 15.0185 11.9348 15.0493 11.6256 15.0521L11.6236 15.0531ZM22.7466 17.1111L18.8276 14.0841C20.0169 13.0835 20.9952 11.8564 21.7056 10.4741C21.787 10.3139 21.8293 10.1368 21.8293 9.95711C21.8293 9.77745 21.787 9.60032 21.7056 9.44012C20.7688 7.56495 19.3317 5.98542 17.5531 4.87621C15.7744 3.76701 13.7237 3.17135 11.6276 3.15511C9.80164 3.1561 8.00499 3.61438 6.40162 4.48811L1.90162 1.00611C1.84268 0.959754 1.77514 0.925548 1.7029 0.905471C1.63066 0.885394 1.55515 0.879844 1.48075 0.889144C1.40635 0.898444 1.33453 0.922412 1.26945 0.959655C1.20437 0.996897 1.14733 1.04668 1.10162 1.10612L0.401618 2.00111C0.355262 2.06005 0.321056 2.12759 0.300979 2.19983C0.280901 2.27207 0.275352 2.34758 0.284652 2.42198C0.293952 2.49638 0.317918 2.5682 0.355161 2.63328C0.392403 2.69835 0.442182 2.75541 0.501618 2.80112L21.3466 18.9021C21.4056 18.9485 21.4731 18.9827 21.5453 19.0028C21.6176 19.0228 21.6931 19.0284 21.7675 19.0191C21.8419 19.0098 21.9137 18.9858 21.9788 18.9486C22.0439 18.9113 22.1009 18.8616 22.1466 18.8021L22.8466 17.9021C22.8931 17.8432 22.9274 17.7757 22.9476 17.7034C22.9677 17.6312 22.9733 17.5556 22.964 17.4812C22.9547 17.4068 22.9307 17.3349 22.8934 17.2698C22.8561 17.2048 22.8062 17.1477 22.7466 17.1021V17.1111ZM16.2376 12.0801L14.8466 11.0041C15.0478 10.422 15.085 9.79583 14.9541 9.19404C14.8232 8.59224 14.5293 8.03805 14.1045 7.59211C13.6798 7.14617 13.1405 6.82568 12.5458 6.66571C11.9511 6.50574 11.3238 6.51245 10.7326 6.68511C10.9456 6.975 11.0601 7.32542 11.0596 7.68511C11.0545 7.80472 11.0364 7.92342 11.0056 8.03911L8.39662 6.02312C9.30262 5.26567 10.4457 4.85019 11.6266 4.84911C12.9792 4.84911 14.2764 5.38644 15.2329 6.34287C16.1893 7.29931 16.7266 8.59651 16.7266 9.94911V9.95512C16.722 10.6927 16.554 11.4202 16.2346 12.0851L16.2376 12.0801Z" fill="#CACAD1"/>
</svg>
