<svg width="28" height="23" viewBox="0 0 28 23" fill="none" xmlns="http://www.w3.org/2000/svg">
<path d="M13.9993 17.1928C12.4136 17.1923 10.8871 16.602 9.7269 15.5405C8.56672 14.4791 7.85907 13.0254 7.74649 11.4722L3.15667 7.98932C2.54094 8.73194 2.00234 9.53315 1.54895 10.381C1.44915 10.5757 1.39716 10.7905 1.39716 11.0085C1.39716 11.2264 1.44915 11.4413 1.54895 11.636C2.70571 13.9104 4.48064 15.8262 6.67732 17.1714C8.874 18.5166 11.4068 19.2388 13.9955 19.2581C15.1461 19.251 16.2911 19.0999 17.4028 18.8086L15.1329 17.0844C14.758 17.1554 14.3773 17.1929 13.9955 17.1965L13.9993 17.1928ZM27.7337 19.6891L22.8956 16.0179C24.3651 14.803 25.5737 13.313 26.4508 11.6347C26.5512 11.4405 26.6035 11.2257 26.6035 11.0079C26.6035 10.79 26.5512 10.5753 26.4508 10.381C25.2939 8.10664 23.519 6.19082 21.3224 4.84542C19.1257 3.50002 16.593 2.77746 14.0043 2.75765C11.7494 2.75908 9.53081 3.31501 7.55089 4.37469L1.98787 0.151676C1.84085 0.0400126 1.65467 -0.00974693 1.4703 0.0133476C1.28593 0.036442 1.11847 0.130489 1.0047 0.274821L0.145667 1.35982C0.0323573 1.50413 -0.018103 1.68667 0.00540439 1.86743C0.0289118 2.04819 0.124438 2.21243 0.271043 2.32414L26.0131 21.8641C26.0858 21.9193 26.1689 21.96 26.2576 21.9837C26.3463 22.0074 26.4389 22.0137 26.5301 22.0023C26.6213 21.9908 26.7093 21.9619 26.7891 21.917C26.8689 21.8722 26.9388 21.8123 26.9951 21.7409L27.8529 20.6547C27.9093 20.5833 27.9508 20.5018 27.9751 20.4146C27.9993 20.3275 28.0058 20.2365 27.9941 20.1469C27.9825 20.0573 27.9529 19.9709 27.9071 19.8925C27.8614 19.8142 27.8003 19.7455 27.7275 19.6904L27.7337 19.6891ZM19.6952 13.5868L17.9784 12.2813C18.227 11.5754 18.273 10.8158 18.1115 10.0859C17.9499 9.35596 17.587 8.68375 17.0625 8.14281C16.538 7.60187 15.872 7.21306 15.1375 7.01895C14.403 6.82484 13.6283 6.8329 12.8982 7.04225C13.1614 7.39382 13.3029 7.81896 13.302 8.25532C13.2958 8.40053 13.2735 8.54467 13.2355 8.68515L10.0139 6.24051C11.1328 5.32186 12.5446 4.81801 14.003 4.81682C14.8299 4.81633 15.6488 4.9758 16.4129 5.28611C17.1771 5.59642 17.8715 6.05149 18.4565 6.62535C19.0416 7.19921 19.5058 7.88062 19.8227 8.63067C20.1396 9.38072 20.3029 10.1847 20.3034 10.9968V11.0042C20.298 11.8998 20.0902 12.7831 19.6952 13.5904V13.5868Z" fill="#9E9EA3"/>
</svg>
