<svg width="27" height="28" viewBox="0 0 27 28" fill="none" xmlns="http://www.w3.org/2000/svg">
<path d="M1.0459 14.014C1.0459 11.5476 1.77724 9.13667 3.14746 7.08599C4.51768 5.03531 6.46524 3.437 8.74384 2.49317C11.0224 1.54935 13.5297 1.3024 15.9487 1.78356C18.3676 2.26472 20.5895 3.45237 22.3335 5.19633C24.0775 6.94029 25.2651 9.16223 25.7463 11.5812C26.2274 14.0001 25.9805 16.5074 25.0367 18.786C24.0928 21.0646 22.4945 23.0122 20.4438 24.3824C18.3932 25.7526 15.9822 26.484 13.5159 26.484C10.2087 26.4837 7.03707 25.1698 4.69855 22.8313C2.36003 20.4928 1.04616 17.3211 1.0459 14.014Z" fill="#3D3D3F" stroke="#B4B4BE" stroke-width="1.915" stroke-miterlimit="10"/>
<path d="M13.5168 8.12305V19.904" stroke="white" stroke-width="3.5" stroke-miterlimit="10" stroke-linecap="round"/>
<path d="M7.62622 14.0142H19.4072" stroke="white" stroke-width="3.5" stroke-miterlimit="10" stroke-linecap="round"/>
</svg>
