<svg width="715" height="127" viewBox="0 0 715 127" fill="none" xmlns="http://www.w3.org/2000/svg">
<path d="M446.079 79.65L451.389 76.05C454.809 82.11 460.059 85.14 467.139 85.14C471.159 85.14 474.399 84.15 476.859 82.17C479.379 80.13 480.639 77.55 480.639 74.43C480.639 72.63 480.279 71.04 479.559 69.66C478.899 68.28 477.849 67.08 476.409 66.06C474.969 65.04 473.499 64.14 471.999 63.36C470.499 62.58 468.609 61.71 466.329 60.75C465.909 60.63 465.609 60.51 465.429 60.39C459.609 57.87 455.679 55.83 453.639 54.27C449.679 51.21 447.699 47.19 447.699 42.21C447.699 37.59 449.499 33.69 453.099 30.51C456.699 27.27 461.439 25.65 467.319 25.65C471.159 25.65 474.729 26.49 478.029 28.17C481.329 29.85 483.909 32.37 485.769 35.73L480.999 39.06C477.879 34.02 473.289 31.5 467.229 31.5C463.329 31.5 460.149 32.52 457.689 34.56C455.289 36.54 454.089 39.06 454.089 42.12C454.089 45.84 456.189 48.9 460.389 51.3C461.709 52.08 464.499 53.4 468.759 55.26C470.979 56.22 472.569 56.94 473.529 57.42C474.489 57.84 475.869 58.53 477.669 59.49C479.469 60.45 480.759 61.35 481.539 62.19C482.379 62.97 483.309 63.96 484.329 65.16C485.349 66.36 486.039 67.71 486.399 69.21C486.819 70.71 487.029 72.36 487.029 74.16C487.029 78.9 485.199 82.92 481.539 86.22C477.879 89.46 472.899 91.08 466.599 91.08C462.099 91.08 458.019 90.06 454.359 88.02C450.759 85.92 447.999 83.13 446.079 79.65ZM494.312 44.73H501.422V32.22H507.452V44.73H519.242V50.04H507.452V76.77C507.452 79.59 508.172 81.72 509.612 83.16C511.112 84.6 513.152 85.32 515.732 85.32C517.592 85.32 519.362 84.9 521.042 84.06V89.82C519.062 90.66 516.872 91.08 514.472 91.08C510.512 91.08 507.332 89.88 504.932 87.48C502.532 85.02 501.332 81.63 501.332 77.31V50.04H494.312V44.73ZM548.425 91.08C543.385 91.08 539.245 89.4 536.005 86.04C532.825 82.62 531.235 78.15 531.235 72.63V44.73H537.265V72.36C537.265 76.32 538.405 79.5 540.685 81.9C543.025 84.24 545.995 85.41 549.595 85.41C554.035 85.41 557.575 83.73 560.215 80.37C562.915 76.95 564.265 72.96 564.265 68.4V44.73H570.295V90H564.445V81.45C561.325 87.87 555.985 91.08 548.425 91.08ZM604.981 91.08C598.921 91.08 593.791 88.83 589.591 84.33C585.391 79.77 583.291 74.13 583.291 67.41C583.291 60.69 585.391 55.05 589.591 50.49C593.791 45.93 598.921 43.65 604.981 43.65C608.461 43.65 611.701 44.46 614.701 46.08C617.761 47.7 620.041 49.83 621.541 52.47V26.73H627.571V90H621.811V82.08C620.251 84.78 617.941 86.97 614.881 88.65C611.821 90.27 608.521 91.08 604.981 91.08ZM605.971 49.32C601.411 49.32 597.511 51.06 594.271 54.54C591.091 57.96 589.501 62.25 589.501 67.41C589.501 72.51 591.091 76.8 594.271 80.28C597.511 83.7 601.411 85.41 605.971 85.41C610.411 85.41 614.191 83.82 617.311 80.64C620.431 77.46 621.991 73.05 621.991 67.41C621.991 61.77 620.431 57.36 617.311 54.18C614.191 50.94 610.411 49.32 605.971 49.32ZM643.928 44.73H649.958V90H643.928V44.73ZM643.748 33.57C642.908 32.67 642.488 31.62 642.488 30.42C642.488 29.22 642.908 28.2 643.748 27.36C644.648 26.46 645.698 26.01 646.898 26.01C648.098 26.01 649.118 26.46 649.958 27.36C650.858 28.2 651.308 29.22 651.308 30.42C651.308 31.62 650.858 32.67 649.958 33.57C649.118 34.41 648.098 34.83 646.898 34.83C645.698 34.83 644.648 34.41 643.748 33.57ZM702.61 84.24C698.17 88.8 692.65 91.08 686.05 91.08C679.45 91.08 673.93 88.8 669.49 84.24C665.05 79.62 662.83 74.01 662.83 67.41C662.83 60.81 665.05 55.2 669.49 50.58C673.93 45.96 679.45 43.65 686.05 43.65C692.65 43.65 698.17 45.96 702.61 50.58C707.05 55.2 709.27 60.81 709.27 67.41C709.27 74.01 707.05 79.62 702.61 84.24ZM673.81 54.72C670.63 58.2 669.04 62.43 669.04 67.41C669.04 72.39 670.63 76.62 673.81 80.1C677.05 83.58 681.13 85.32 686.05 85.32C690.97 85.32 695.02 83.58 698.2 80.1C701.44 76.62 703.06 72.39 703.06 67.41C703.06 62.43 701.44 58.2 698.2 54.72C695.02 51.24 690.97 49.5 686.05 49.5C681.13 49.5 677.05 51.24 673.81 54.72Z" fill="#3D3D3F"/>
<path d="M157.963 91.7545C154.734 91.8061 151.534 91.1538 148.583 89.843C145.632 88.5323 143.002 86.5945 140.876 84.1645C136.255 79.1091 133.944 72.6945 133.942 64.9205C133.942 57.2138 136.237 50.8138 140.827 45.7205C142.981 43.2549 145.65 41.2928 148.646 39.9731C151.642 38.6534 154.892 38.0083 158.165 38.0835C161.286 38.0778 164.366 38.8006 167.159 40.1945C169.82 41.4415 172.095 43.386 173.74 45.8215V19.1885H186.809V90.5495H174.547V83.2125C172.894 85.9908 170.417 88.1856 167.46 89.4925C164.502 90.9481 161.256 91.7212 157.96 91.7545M160.674 49.7425C158.865 49.7208 157.073 50.0865 155.417 50.8148C153.761 51.5432 152.28 52.6175 151.074 53.9655C148.372 56.9186 146.944 60.8187 147.101 64.8185C146.94 68.8659 148.368 72.8158 151.08 75.8245C152.297 77.1654 153.78 78.2377 155.435 78.9732C157.09 79.7086 158.88 80.0909 160.691 80.0957C162.501 80.1005 164.293 79.7277 165.952 79.001C167.611 78.2744 169.1 77.2099 170.324 75.8755C172.939 73.0595 174.246 69.3738 174.246 64.8185C174.421 60.8091 173.013 56.8916 170.325 53.9115C169.106 52.5697 167.615 51.5036 165.951 50.7846C164.287 50.0656 162.489 49.7103 160.677 49.7425" fill="#3D3D3F"/>
<path d="M201.558 84.1574C199.008 81.6833 196.999 78.7071 195.658 75.4169C194.318 72.1267 193.674 68.594 193.769 65.0424C193.672 61.5061 194.28 57.986 195.557 54.687C196.835 51.3881 198.756 48.3764 201.209 45.8274C203.622 43.2896 206.542 41.2881 209.78 39.9532C213.018 38.6183 216.5 37.9799 220.001 38.0794C227.171 38.0794 232.984 40.3101 237.441 44.7714C241.897 49.2328 244.124 54.9174 244.121 61.8254C244.08 63.9606 243.81 66.0853 243.314 68.1624H207.338C207.454 69.9326 207.949 71.6572 208.79 73.2192C209.631 74.7812 210.798 76.1441 212.212 77.2154C215.158 79.3944 218.748 80.5276 222.412 80.4354C224.937 80.5025 227.446 80.025 229.77 79.0356C232.094 78.0462 234.177 76.5679 235.879 74.7014L243.121 83.3494C240.304 86.0978 236.971 88.2601 233.313 89.7109C229.655 91.1617 225.745 91.8723 221.811 91.8014C213.501 91.8014 206.75 89.2541 201.558 84.1574ZM219.901 49.0494C216.866 48.9653 213.898 49.944 211.509 51.8164C209.19 53.6702 207.692 56.3602 207.337 59.3074H231.358V59.2074C231.281 57.7955 230.921 56.4134 230.299 55.1434C229.677 53.8735 228.806 52.7417 227.738 51.8154C225.557 49.9571 222.765 48.9719 219.901 49.0494Z" fill="#3D3D3F"/>
<path d="M246.693 80.2318L255.536 73.6958C258.753 78.7212 262.84 81.2355 267.798 81.2388C269.763 81.3387 271.721 80.923 273.476 80.0328C274.085 79.741 274.601 79.2851 274.965 78.7162C275.33 78.1474 275.528 77.4883 275.539 76.8128C275.536 76.0511 275.329 75.304 274.94 74.6493C274.55 73.9945 273.993 73.4561 273.325 73.0898C270.508 71.5839 267.545 70.3699 264.482 69.4668C258.986 67.6582 254.932 65.5295 252.32 63.0808C251.013 61.8352 249.987 60.3248 249.312 58.6508C248.636 56.9767 248.325 55.1776 248.401 53.3738C248.386 51.2227 248.895 49.1003 249.884 47.1902C250.873 45.28 252.313 43.6396 254.079 42.4108C258.136 39.438 263.073 37.9132 268.1 38.0808C272.012 38.0197 275.874 38.973 279.308 40.8478C282.465 42.5359 285.065 45.1036 286.793 48.2398L278.051 54.5808C275.638 50.5562 272.254 48.5445 267.901 48.5458C266.085 48.479 264.289 48.9328 262.723 49.8538C262.105 50.1873 261.588 50.6805 261.226 51.2818C260.863 51.8832 260.669 52.5708 260.663 53.2728C260.663 54.5502 261.417 55.6575 262.925 56.5948C265.606 58.0552 268.415 59.2673 271.317 60.2158C277.012 62.3632 281.182 64.5428 283.829 66.7548C286.476 68.9668 287.799 72.2185 287.799 76.5098C287.808 78.6422 287.307 80.7457 286.337 82.6447C285.367 84.5437 283.957 86.1831 282.224 87.4258C278.504 90.3412 273.696 91.8002 267.799 91.8028C263.403 91.8586 259.065 90.8029 255.187 88.7338C251.55 86.8395 248.585 83.8718 246.693 80.2338" fill="#3D3D3F"/>
<path d="M295.577 29.6907C294.875 29.0066 294.32 28.1855 293.948 27.2783C293.576 26.3711 293.394 25.3971 293.414 24.4167C293.391 23.4427 293.572 22.4746 293.944 21.5742C294.317 20.6739 294.873 19.8611 295.577 19.1877C297.029 17.8333 298.941 17.0801 300.927 17.0801C302.913 17.0801 304.825 17.8333 306.277 19.1877C306.994 19.854 307.561 20.6644 307.942 21.5656C308.323 22.4668 308.509 23.4385 308.488 24.4167C308.506 25.4012 308.319 26.3787 307.938 27.2867C307.558 28.1948 306.992 29.0136 306.277 29.6907C304.841 31.0777 302.923 31.8529 300.927 31.8529C298.931 31.8529 297.013 31.0777 295.577 29.6907ZM294.52 39.2907H307.586V90.5457H294.517L294.52 39.2907Z" fill="#3D3D3F"/>
<path d="M313.509 97.8241C313.509 93.2688 316.257 89.7848 321.753 87.3721C320.57 86.5565 319.61 85.4579 318.96 84.1764C318.311 82.8949 317.992 81.4713 318.033 80.0351C318.034 78.2462 318.407 76.4772 319.129 74.8403C319.851 73.2035 320.905 71.7346 322.225 70.5271C319.985 68.9512 318.167 66.8497 316.929 64.407C315.691 61.9643 315.071 59.2551 315.125 56.5171C315.101 54.0189 315.64 51.5473 316.701 49.2855C317.762 47.0237 319.318 45.0296 321.255 43.4511C325.409 39.8746 330.746 37.9753 336.226 38.1241C338.656 38.1167 341.069 38.5253 343.362 39.3321H368.886V49.3831H355.623C356.821 51.5706 357.443 54.027 357.43 56.5211C357.459 59.0396 356.919 61.5322 355.848 63.8122C354.778 66.0922 353.206 68.1006 351.25 69.6871C347.039 73.2719 341.65 75.1701 336.123 75.0151C334.811 75.0183 333.5 74.918 332.204 74.7151C330.527 75.5878 329.69 76.6611 329.692 77.9351C329.681 78.3764 329.786 78.8127 329.997 79.2007C330.207 79.5886 330.516 79.9146 330.892 80.1461C331.728 80.6908 332.71 80.9697 333.708 80.9461H346.573C351.799 80.9461 356.019 82.3194 359.233 85.0661C360.794 86.36 362.04 87.9919 362.877 89.8383C363.714 91.6848 364.121 93.6974 364.066 95.7241C364.066 100.345 361.636 104.197 356.777 107.281C351.917 110.365 345.569 111.906 337.732 111.904C330.36 111.904 324.481 110.63 320.093 108.082C315.705 105.534 313.51 102.115 313.509 97.8241ZM326.274 96.1241C326.274 97.7981 327.345 99.1214 329.488 100.094C332.17 101.165 335.047 101.662 337.934 101.552C342.222 101.552 345.522 101.049 347.834 100.043C350.146 99.0371 351.301 97.6638 351.301 95.9231C351.317 95.2279 351.149 94.5408 350.814 93.9317C350.478 93.3227 349.987 92.8135 349.391 92.4561C347.976 91.5786 346.332 91.1414 344.668 91.2001H330.395C327.647 92.3394 326.273 93.9801 326.274 96.1241ZM329.644 50.5951C328.793 51.3288 328.113 52.2401 327.652 53.2648C327.191 54.2894 326.96 55.4026 326.976 56.5261C326.964 57.656 327.196 58.7753 327.656 59.8072C328.117 60.8391 328.795 61.7594 329.644 62.5051C331.432 64.1541 333.794 65.0384 336.225 64.9691C338.671 65.0325 341.047 64.1499 342.858 62.5051C343.718 61.7662 344.406 60.8482 344.875 59.8154C345.343 58.7826 345.58 57.66 345.569 56.5261C345.583 55.3986 345.348 54.2819 344.879 53.2564C344.41 52.2308 343.72 51.322 342.858 50.5951C341.032 48.9806 338.661 48.1184 336.225 48.1821C333.803 48.1121 331.447 48.9761 329.644 50.5951Z" fill="#3D3D3F"/>
<path d="M367.756 90.5941V39.2941H373.283C375.15 39.2954 376.939 40.0379 378.259 41.3585C379.578 42.679 380.319 44.4694 380.319 46.3361C383.67 40.8354 388.93 38.0851 396.099 38.0851C402.129 38.0851 406.953 39.9974 410.572 43.8221C414.191 47.6467 416 52.8771 416 59.5131V90.5941H402.934V61.0171C402.934 57.4644 401.979 54.6978 400.07 52.7171C398.95 51.6707 397.624 50.8695 396.177 50.3648C394.729 49.8601 393.193 49.663 391.665 49.7861C390.137 49.9092 388.652 50.3498 387.304 51.0798C385.956 51.8097 384.776 52.8128 383.838 54.0251C381.793 56.9936 380.738 60.5323 380.823 64.1361V90.5941H367.756Z" fill="#3D3D3F"/>
<path d="M0 19.1299V33.1389H34.63L6.23 90.6389H21.857L47.22 39.2779C48.2716 37.1492 48.763 34.7875 48.6477 32.4161C48.5325 30.0446 47.8144 27.7417 46.5613 25.7251C45.3082 23.7084 43.5616 22.0446 41.4864 20.891C39.4113 19.7373 37.0763 19.1318 34.702 19.1319L0 19.1299Z" fill="#FF5F6B"/>
<path d="M105.256 47.8749H90.4451C88.4915 47.8749 86.6179 47.0989 85.2365 45.7175C83.8551 44.3361 83.0791 42.4625 83.0791 40.5089C83.0791 38.5553 83.8551 36.6818 85.2365 35.3004C86.6179 33.919 88.4915 33.1429 90.4451 33.1429H127.879V19.1289H90.4451C87.7177 19.1276 85.0156 19.6511 82.4861 20.6709L69.8561 46.2539C71.1157 50.748 73.809 54.7076 77.5262 57.5301C81.2433 60.3526 85.7808 61.8835 90.4481 61.8899H105.256C107.21 61.8899 109.083 62.666 110.465 64.0474C111.846 65.4288 112.622 67.3023 112.622 69.2559C112.622 71.2095 111.846 73.0831 110.465 74.4645C109.083 75.8459 107.21 76.6219 105.256 76.6219L54.8921 76.5509L47.9351 90.6379H105.256C108.064 90.6379 110.844 90.0849 113.438 89.0104C116.032 87.9359 118.389 86.3611 120.374 84.3757C122.36 82.3903 123.935 80.0334 125.009 77.4394C126.084 74.8454 126.637 72.0651 126.637 69.2574C126.637 66.4497 126.084 63.6694 125.009 61.0754C123.935 58.4814 122.36 56.1245 120.374 54.1391C118.389 52.1538 116.032 50.5789 113.438 49.5044C110.844 48.4299 108.064 47.8769 105.256 47.8769V47.8749Z" fill="#FF5F6B"/>
<path d="M18.46 0.410156V14.4192H64.698L27.086 90.6372H42.717L77.307 20.5872C78.36 18.4552 78.8521 16.09 78.7366 13.7149C78.6211 11.3399 77.9019 9.03355 76.6469 7.01384C75.392 4.99414 73.6427 3.32779 71.5645 2.17229C69.4863 1.0168 67.1478 0.41031 64.77 0.410156H18.46Z" fill="#FF5F6B"/>
</svg>
