<svg width="40" height="36" viewBox="0 0 40 36" fill="none" xmlns="http://www.w3.org/2000/svg">
<path d="M17.715 28.2936C16.9817 27.0438 16.5019 25.6617 16.3029 24.2264C16.1038 22.7912 16.1894 21.3308 16.5548 19.9286C16.9202 18.5264 17.5583 17.2099 18.4325 16.0543C19.3067 14.8987 20.4001 13.9266 21.65 13.1936C22.8998 12.4602 24.2817 11.9803 25.717 11.7811C27.1524 11.582 28.6129 11.6677 30.0151 12.0331C31.4174 12.3985 32.7338 13.0366 33.8894 13.9109C35.045 14.7852 36.0171 15.8785 36.75 17.1285L36.7579 17.1416C38.2333 19.6654 38.6468 22.6715 37.9075 25.4999C37.1682 28.3282 35.3366 30.7476 32.8149 32.2266C31.0383 33.2727 29.003 33.7971 26.942 33.7396H12.282C9.5551 33.7343 6.9416 32.6479 5.01453 30.7186C3.08745 28.7893 2.00407 26.1745 2.00195 23.4476V0.183594" stroke="#00C8C8" stroke-width="3" stroke-miterlimit="10"/>
</svg>
