<svg width="226" height="226" viewBox="0 0 226 226" fill="none" xmlns="http://www.w3.org/2000/svg">
<g filter="url(#filter0_d_664_328)">
<circle cx="106" cy="106" r="96" fill="#252C47"/>
<path d="M108.875 63.3589H89.8801V84.019H108.875V63.3589Z" stroke="white" stroke-width="1.9615" stroke-linecap="round" stroke-linejoin="round"/>
<path d="M115.64 66.4417L117.969 62.0566L122.626 70.8259H113.314L115.64 66.4417Z" stroke="white" stroke-width="1.9615" stroke-linecap="round" stroke-linejoin="round"/>
<path d="M117.969 83.8154C117.202 83.8095 116.454 83.5766 115.82 83.1463C115.185 82.7159 114.692 82.1073 114.403 81.3972C114.113 80.687 114.041 79.9071 114.194 79.1558C114.347 78.4045 114.72 77.7154 115.264 77.1753C115.808 76.6353 116.501 76.2685 117.253 76.1212C118.006 75.9739 118.785 76.0526 119.493 76.3475C120.2 76.6425 120.805 77.1403 121.23 77.7784C121.656 78.4164 121.883 79.1661 121.882 79.9329C121.878 80.9666 121.463 81.9561 120.729 82.6841C119.995 83.4121 119.003 83.819 117.969 83.8154Z" stroke="white" stroke-width="1.9615" stroke-linecap="round" stroke-linejoin="round"/>
<path d="M123.159 35.2583C120.166 39.3959 113.544 42.2834 105.816 42.2834C98.0874 42.2834 91.4658 39.3959 88.4734 35.2583L59.4861 49.6282C58.9215 49.9125 58.4919 50.4082 58.2908 51.0075C58.0897 51.6068 58.1334 52.2613 58.4123 52.8287L66.9282 69.8722C67.2125 70.4368 67.7082 70.8664 68.3076 71.0673C68.907 71.2682 69.5615 71.2243 70.1287 70.9451L78.5531 66.8218C78.917 66.6462 79.3194 66.5657 79.7229 66.5879C80.1263 66.6101 80.5175 66.7342 80.8599 66.9486C81.2023 67.1631 81.4847 67.4609 81.6808 67.8141C81.8769 68.1674 81.9801 68.5646 81.981 68.9686V106.724C81.9799 107.349 82.1021 107.968 82.3405 108.546C82.579 109.124 82.9291 109.649 83.3708 110.091C83.8125 110.534 84.3371 110.885 84.9145 111.124C85.4919 111.363 86.1109 111.486 86.736 111.486H124.857C126.119 111.486 127.33 110.985 128.224 110.094C129.117 109.203 129.621 107.993 129.625 106.731V68.9485C129.625 68.3171 129.876 67.7117 130.323 67.2652C130.769 66.8188 131.374 66.5679 132.006 66.5677C132.366 66.5693 132.722 66.6516 133.047 66.8084L141.471 70.9326C142.034 71.216 142.687 71.2643 143.285 71.0667C143.884 70.8692 144.38 70.4419 144.664 69.8789L144.671 69.8587L153.206 52.8287C153.49 52.265 153.539 51.6119 153.343 51.0122C153.146 50.4125 152.721 49.9149 152.158 49.6282H152.146L130.911 39.0955L130.039 40.1559C125.854 45.9445 116.593 49.9797 105.786 49.9797C98.0622 49.9797 91.1369 47.9201 86.2838 44.6349" stroke="white" stroke-width="1.9615" stroke-miterlimit="10"/>
<path d="M69.6386 134.084C68.5297 132.985 67.9752 131.625 67.9752 130.004C67.9752 128.382 68.5192 127.022 69.6072 125.924C70.7056 124.825 72.0395 124.276 73.6087 124.276C74.6339 124.276 75.5335 124.491 76.3077 124.919C77.0818 125.338 77.7043 125.877 78.175 126.536L77.0295 127.587C76.1822 126.395 75.0419 125.798 73.6087 125.798C72.4579 125.798 71.4955 126.201 70.7213 127.007C69.9577 127.802 69.5758 128.801 69.5758 130.004C69.5758 131.207 69.9681 132.211 70.7527 133.017C71.5373 133.812 72.5155 134.209 73.6871 134.209C75.1308 134.209 76.2868 133.587 77.1551 132.342L78.2849 133.315C77.7723 134.047 77.1184 134.633 76.3234 135.072C75.5388 135.512 74.66 135.731 73.6871 135.731C72.097 135.731 70.7475 135.182 69.6386 134.084ZM79.9235 124.464H81.4456V133.299C81.4456 133.989 81.6914 134.335 82.1831 134.335C82.361 134.335 82.5336 134.303 82.7009 134.241V135.606C82.4917 135.689 82.2563 135.731 81.9948 135.731C81.3985 135.731 80.9016 135.564 80.5041 135.229C80.117 134.894 79.9235 134.34 79.9235 133.566V124.464ZM90.7728 134.539C89.9882 135.334 89.01 135.731 87.8384 135.731C86.6667 135.731 85.6886 135.334 84.904 134.539C84.1194 133.733 83.7271 132.745 83.7271 131.573C83.7271 130.401 84.1194 129.418 84.904 128.623C85.6886 127.817 86.6667 127.415 87.8384 127.415C89.01 127.415 89.9882 127.817 90.7728 128.623C91.5574 129.418 91.9497 130.401 91.9497 131.573C91.9497 132.745 91.5574 133.733 90.7728 134.539ZM86.0024 129.658C85.5212 130.182 85.2806 130.82 85.2806 131.573C85.2806 132.326 85.5212 132.969 86.0024 133.503C86.4836 134.026 87.0956 134.288 87.8384 134.288C88.5811 134.288 89.1931 134.026 89.6743 133.503C90.1555 132.969 90.3962 132.326 90.3962 131.573C90.3962 130.82 90.1555 130.182 89.6743 129.658C89.1931 129.125 88.5811 128.858 87.8384 128.858C87.0956 128.858 86.4836 129.125 86.0024 129.658ZM92.9774 127.603H94.217V125.422H95.6921V127.603H97.732V128.874H95.6921V133.017C95.6921 133.885 96.121 134.319 96.9788 134.319C97.324 134.319 97.6379 134.235 97.9203 134.068V135.465C97.617 135.642 97.1933 135.731 96.6493 135.731C95.8752 135.731 95.2684 135.512 94.829 135.072C94.3896 134.622 94.17 134 94.17 133.205V128.874H92.9774V127.603ZM99.6326 124.464H101.155V128.701C101.709 127.843 102.557 127.415 103.697 127.415C104.597 127.415 105.334 127.713 105.909 128.309C106.485 128.905 106.772 129.716 106.772 130.741V135.543H105.25V130.804C105.25 130.176 105.072 129.69 104.717 129.345C104.361 128.989 103.917 128.811 103.383 128.811C102.63 128.811 102.07 129.067 101.704 129.58C101.338 130.082 101.155 130.673 101.155 131.353V135.543H99.6326V124.464ZM109.256 127.603H110.778V135.543H109.256V127.603ZM109.35 125.924C109.162 125.725 109.068 125.495 109.068 125.233C109.068 124.972 109.162 124.747 109.35 124.559C109.539 124.37 109.764 124.276 110.025 124.276C110.287 124.276 110.512 124.37 110.7 124.559C110.888 124.747 110.982 124.972 110.982 125.233C110.982 125.495 110.888 125.725 110.7 125.924C110.512 126.112 110.287 126.206 110.025 126.206C109.764 126.206 109.539 126.112 109.35 125.924ZM113.378 135.543V127.603H114.869V128.795C115.371 127.875 116.229 127.415 117.443 127.415C118.363 127.415 119.106 127.713 119.671 128.309C120.236 128.895 120.518 129.706 120.518 130.741V135.543H118.996V130.804C118.996 130.176 118.818 129.69 118.463 129.345C118.107 128.989 117.662 128.811 117.129 128.811C116.742 128.811 116.397 128.895 116.093 129.062C115.79 129.23 115.554 129.449 115.387 129.721C115.22 129.993 115.094 130.281 115.01 130.584C114.937 130.888 114.901 131.196 114.901 131.51V135.543H113.378ZM122.233 136.657C122.233 135.946 122.678 135.37 123.567 134.931C123.222 134.68 123.049 134.324 123.049 133.864C123.049 133.414 123.284 133.017 123.755 132.671C123.358 132.41 123.039 132.075 122.798 131.667C122.568 131.249 122.453 130.799 122.453 130.318C122.453 129.512 122.756 128.827 123.363 128.262C123.98 127.697 124.733 127.415 125.623 127.415C126.02 127.415 126.402 127.477 126.768 127.603H129.687V128.874H128.384C128.656 129.303 128.792 129.784 128.792 130.318C128.792 131.123 128.484 131.808 127.867 132.373C127.26 132.938 126.512 133.221 125.623 133.221C125.351 133.221 125.079 133.189 124.807 133.126C124.597 133.283 124.493 133.461 124.493 133.66C124.493 133.827 124.556 133.963 124.681 134.068C124.807 134.173 124.953 134.225 125.12 134.225H127.129C127.924 134.225 128.562 134.434 129.043 134.853C129.525 135.261 129.765 135.789 129.765 136.437C129.765 137.138 129.399 137.719 128.667 138.179C127.945 138.64 126.993 138.87 125.811 138.87C124.702 138.87 123.828 138.671 123.19 138.273C122.552 137.886 122.233 137.348 122.233 136.657ZM126.815 129.219C126.491 128.905 126.093 128.748 125.623 128.748C125.152 128.748 124.749 128.905 124.414 129.219C124.09 129.522 123.928 129.889 123.928 130.318C123.928 130.746 124.09 131.118 124.414 131.432C124.749 131.735 125.152 131.887 125.623 131.887C126.093 131.887 126.491 131.735 126.815 131.432C127.15 131.118 127.317 130.746 127.317 130.318C127.317 129.889 127.15 129.522 126.815 129.219ZM123.755 136.516C123.755 136.819 123.949 137.06 124.336 137.238C124.723 137.416 125.225 137.504 125.842 137.504C126.616 137.504 127.213 137.41 127.631 137.222C128.06 137.034 128.275 136.783 128.275 136.469C128.275 136.186 128.154 135.967 127.914 135.81C127.673 135.653 127.37 135.574 127.003 135.574H124.681C124.451 135.637 124.236 135.747 124.038 135.904C123.849 136.061 123.755 136.265 123.755 136.516ZM138.649 135.731C137.572 135.731 136.646 135.454 135.872 134.9C135.097 134.335 134.71 133.592 134.71 132.671C134.71 132.044 134.909 131.489 135.307 131.008C135.715 130.516 136.321 130.03 137.127 129.549C136.677 129.057 136.348 128.618 136.138 128.23C135.929 127.843 135.824 127.42 135.824 126.959C135.824 126.248 136.096 125.626 136.64 125.092C137.195 124.548 137.906 124.276 138.775 124.276C139.632 124.276 140.333 124.543 140.877 125.076C141.432 125.599 141.709 126.211 141.709 126.912C141.709 127.467 141.526 127.959 141.16 128.387C140.794 128.806 140.182 129.277 139.324 129.8L141.772 132.42C142.253 131.552 142.436 130.6 142.321 129.564H143.827C143.984 131.06 143.66 132.394 142.854 133.566L144.706 135.543H142.745L141.882 134.617C140.951 135.36 139.873 135.731 138.649 135.731ZM136.311 132.609C136.3 133.132 136.536 133.54 137.017 133.833C137.509 134.115 138.063 134.256 138.68 134.256C139.496 134.256 140.218 134.01 140.846 133.519L138.084 130.584C137.498 130.93 137.059 131.254 136.766 131.557C136.473 131.861 136.321 132.211 136.311 132.609ZM138.775 125.657C138.346 125.657 137.99 125.783 137.708 126.034C137.436 126.285 137.3 126.588 137.3 126.944C137.3 127.268 137.378 127.556 137.535 127.807C137.702 128.058 137.98 128.382 138.367 128.78C139.047 128.382 139.528 128.053 139.81 127.791C140.093 127.53 140.234 127.242 140.234 126.928C140.234 126.583 140.093 126.285 139.81 126.034C139.538 125.783 139.193 125.657 138.775 125.657ZM59.8868 155.543V144.464H61.3147L65.426 151.039L69.5373 144.464H70.9653V155.543H69.4118V147.415L65.9125 152.86H64.9396L61.4403 147.415V155.543H59.8868ZM74.223 154.554C73.4384 153.759 73.0461 152.771 73.0461 151.589C73.0461 150.406 73.4175 149.418 74.1602 148.623C74.9134 147.817 75.8811 147.415 77.0632 147.415C78.1721 147.415 79.0613 147.77 79.7309 148.482C80.4004 149.182 80.7352 150.056 80.7352 151.102C80.7352 151.395 80.709 151.683 80.6567 151.965H74.6467C74.7199 152.697 75.0076 153.278 75.5097 153.707C76.0119 154.125 76.6186 154.335 77.33 154.335C78.2087 154.335 78.9567 154 79.5739 153.33L80.4998 154.397C79.621 155.287 78.554 155.731 77.2986 155.731C76.0433 155.731 75.018 155.339 74.223 154.554ZM77.0789 148.78C76.4617 148.78 75.9386 148.952 75.5097 149.298C75.0808 149.643 74.8088 150.119 74.6937 150.726H79.2444V150.71C79.1921 150.124 78.962 149.658 78.554 149.313C78.1564 148.958 77.6648 148.78 77.0789 148.78ZM82.7147 147.603H84.2054V148.999C84.4042 148.508 84.7023 148.121 85.0999 147.838C85.4974 147.556 85.9577 147.415 86.4808 147.415C86.6795 147.415 86.8417 147.435 86.9672 147.477V148.968C86.8835 148.947 86.7789 148.937 86.6534 148.937C85.9211 148.937 85.3352 149.182 84.8959 149.674C84.4565 150.155 84.2368 150.799 84.2368 151.604V155.543H82.7147V147.603ZM87.7416 151.557C87.7416 150.396 88.1444 149.418 88.9499 148.623C89.7554 147.817 90.7336 147.415 91.8843 147.415C93.2338 147.415 94.2904 147.969 95.0541 149.078L94.0498 150.051C93.4849 149.235 92.7578 148.827 91.8686 148.827C91.1259 148.827 90.5087 149.094 90.017 149.627C89.5357 150.15 89.2951 150.799 89.2951 151.573C89.2951 152.347 89.5357 153.001 90.017 153.534C90.5087 154.057 91.1206 154.319 91.8529 154.319C92.8468 154.319 93.6157 153.916 94.1597 153.111L95.1796 154.068C94.824 154.591 94.3584 154.999 93.783 155.292C93.2077 155.585 92.5748 155.731 91.8843 155.731C90.7231 155.731 89.7397 155.329 88.9342 154.523C88.1392 153.717 87.7416 152.729 87.7416 151.557ZM96.9049 144.464H98.427V148.701C98.9815 147.843 99.8288 147.415 100.969 147.415C101.869 147.415 102.606 147.713 103.182 148.309C103.757 148.905 104.045 149.716 104.045 150.741V155.543H102.523V150.804C102.523 150.176 102.345 149.69 101.989 149.345C101.633 148.989 101.189 148.811 100.655 148.811C99.9021 148.811 99.3424 149.067 98.9762 149.58C98.6101 150.082 98.427 150.673 98.427 151.353V155.543H96.9049V144.464ZM105.885 153.44C105.885 152.185 106.743 151.39 108.459 151.055L110.938 150.569V150.412C110.938 149.899 110.776 149.496 110.452 149.203C110.127 148.91 109.672 148.764 109.086 148.764C108.208 148.764 107.47 149.104 106.874 149.784L106.089 148.78C106.874 147.87 107.92 147.415 109.228 147.415C110.221 147.415 111.006 147.692 111.581 148.246C112.167 148.79 112.46 149.533 112.46 150.474V155.543H111.048V154.319C110.483 155.261 109.62 155.731 108.459 155.731C107.716 155.731 107.099 155.517 106.607 155.088C106.126 154.649 105.885 154.099 105.885 153.44ZM107.376 153.346C107.376 153.67 107.501 153.937 107.752 154.146C108.004 154.345 108.323 154.445 108.71 154.445C109.337 154.445 109.876 154.225 110.326 153.785C110.776 153.336 111.001 152.828 111.001 152.263V151.761L108.725 152.201C108.244 152.295 107.899 152.436 107.69 152.624C107.48 152.802 107.376 153.043 107.376 153.346ZM114.911 155.543V147.603H116.402V148.795C116.904 147.875 117.762 147.415 118.975 147.415C119.896 147.415 120.638 147.713 121.203 148.309C121.768 148.895 122.051 149.706 122.051 150.741V155.543H120.529V150.804C120.529 150.176 120.351 149.69 119.995 149.345C119.639 148.989 119.195 148.811 118.661 148.811C118.274 148.811 117.929 148.895 117.626 149.062C117.322 149.23 117.087 149.449 116.919 149.721C116.752 149.993 116.627 150.281 116.543 150.584C116.47 150.888 116.433 151.196 116.433 151.51V155.543H114.911ZM127.704 155.731C126.637 155.731 125.743 155.339 125.021 154.554C124.299 153.77 123.938 152.776 123.938 151.573C123.938 150.37 124.299 149.376 125.021 148.591C125.743 147.807 126.637 147.415 127.704 147.415C128.238 147.415 128.75 147.54 129.242 147.791C129.734 148.032 130.095 148.335 130.325 148.701V144.464H131.847V155.543H130.388V154.366C130.168 154.753 129.802 155.077 129.289 155.339C128.777 155.601 128.248 155.731 127.704 155.731ZM129.697 149.596C129.216 149.073 128.635 148.811 127.955 148.811C127.275 148.811 126.689 149.073 126.198 149.596C125.717 150.108 125.476 150.767 125.476 151.573C125.476 152.378 125.717 153.043 126.198 153.566C126.689 154.078 127.275 154.335 127.955 154.335C128.635 154.335 129.216 154.078 129.697 153.566C130.178 153.043 130.419 152.378 130.419 151.573C130.419 150.767 130.178 150.108 129.697 149.596ZM134.449 147.603H135.971V155.543H134.449V147.603ZM134.543 145.924C134.355 145.725 134.261 145.495 134.261 145.233C134.261 144.972 134.355 144.747 134.543 144.559C134.732 144.37 134.957 144.276 135.218 144.276C135.48 144.276 135.705 144.37 135.893 144.559C136.081 144.747 136.175 144.972 136.175 145.233C136.175 145.495 136.081 145.725 135.893 145.924C135.705 146.112 135.48 146.206 135.218 146.206C134.957 146.206 134.732 146.112 134.543 145.924ZM137.834 153.974L138.948 153.173C139.482 153.979 140.146 154.382 140.941 154.382C141.391 154.382 141.746 154.303 142.008 154.146C142.27 153.979 142.4 153.759 142.4 153.487C142.4 153.194 142.28 152.959 142.039 152.781C141.809 152.603 141.338 152.399 140.627 152.169C139.769 151.897 139.142 151.578 138.744 151.212C138.347 150.835 138.148 150.333 138.148 149.706C138.148 149.088 138.42 148.555 138.964 148.105C139.508 147.645 140.182 147.415 140.988 147.415C142.243 147.415 143.159 147.927 143.734 148.952L142.636 149.768C142.196 149.088 141.626 148.748 140.925 148.748C140.538 148.748 140.224 148.837 139.984 149.015C139.754 149.182 139.638 149.402 139.638 149.674C139.638 149.925 139.754 150.14 139.984 150.318C140.214 150.485 140.643 150.673 141.27 150.882C142.202 151.196 142.871 151.542 143.279 151.918C143.687 152.295 143.891 152.807 143.891 153.456C143.891 154.115 143.614 154.659 143.059 155.088C142.505 155.517 141.804 155.731 140.957 155.731C140.277 155.731 139.654 155.574 139.089 155.261C138.524 154.947 138.106 154.518 137.834 153.974ZM146.446 154.554C145.661 153.759 145.269 152.771 145.269 151.589C145.269 150.406 145.64 149.418 146.383 148.623C147.136 147.817 148.104 147.415 149.286 147.415C150.395 147.415 151.284 147.77 151.954 148.482C152.623 149.182 152.958 150.056 152.958 151.102C152.958 151.395 152.932 151.683 152.88 151.965H146.87C146.943 152.697 147.231 153.278 147.733 153.707C148.235 154.125 148.842 154.335 149.553 154.335C150.432 154.335 151.18 154 151.797 153.33L152.723 154.397C151.844 155.287 150.777 155.731 149.522 155.731C148.266 155.731 147.241 155.339 146.446 154.554ZM149.302 148.78C148.685 148.78 148.162 148.952 147.733 149.298C147.304 149.643 147.032 150.119 146.917 150.726H151.467V150.71C151.415 150.124 151.185 149.658 150.777 149.313C150.379 148.958 149.888 148.78 149.302 148.78Z" fill="white"/>
</g>
<defs>
<filter id="filter0_d_664_328" x="0" y="0" width="226" height="226" filterUnits="userSpaceOnUse" color-interpolation-filters="sRGB">
<feFlood flood-opacity="0" result="BackgroundImageFix"/>
<feColorMatrix in="SourceAlpha" type="matrix" values="0 0 0 0 0 0 0 0 0 0 0 0 0 0 0 0 0 0 127 0" result="hardAlpha"/>
<feOffset dx="7" dy="7"/>
<feGaussianBlur stdDeviation="8.5"/>
<feComposite in2="hardAlpha" operator="out"/>
<feColorMatrix type="matrix" values="0 0 0 0 0.278431 0 0 0 0 0.278431 0 0 0 0 0.780392 0 0 0 0.22 0"/>
<feBlend mode="normal" in2="BackgroundImageFix" result="effect1_dropShadow_664_328"/>
<feBlend mode="normal" in="SourceGraphic" in2="effect1_dropShadow_664_328" result="shape"/>
</filter>
</defs>
</svg>
