<svg width="226" height="226" viewBox="0 0 226 226" fill="none" xmlns="http://www.w3.org/2000/svg">
<g filter="url(#filter0_d_664_347)">
<circle cx="106" cy="106" r="96" fill="#00C7C7"/>
<path d="M89.2044 49.8244H127.669C127.916 49.8016 128.165 49.8306 128.4 49.9095C128.636 49.9884 128.852 50.1155 129.035 50.2827C129.218 50.4499 129.365 50.6534 129.465 50.8804C129.565 51.1073 129.617 51.3527 129.617 51.6008C129.617 51.8488 129.565 52.0942 129.465 52.3212C129.365 52.5481 129.218 52.7517 129.035 52.9188C128.852 53.086 128.636 53.2131 128.4 53.292C128.165 53.3709 127.916 53.3999 127.669 53.3771H89.2044C88.9573 53.3999 88.7083 53.3709 88.4731 53.292C88.2379 53.2131 88.0217 53.086 87.8384 52.9188C87.6551 52.7517 87.5087 52.5481 87.4085 52.3212C87.3083 52.0942 87.2566 51.8488 87.2566 51.6008C87.2566 51.3527 87.3083 51.1073 87.4085 50.8804C87.5087 50.6534 87.6551 50.4499 87.8384 50.2827C88.0217 50.1155 88.2379 49.9884 88.4731 49.9095C88.7083 49.8306 88.9573 49.8016 89.2044 49.8244Z" fill="white"/>
<path d="M140.99 51.6903V46.0394C140.99 44.4831 140.372 42.9906 139.272 41.8901C138.171 40.7896 136.679 40.1714 135.122 40.1714H76.2108C74.6545 40.1714 73.1619 40.7896 72.0615 41.8901C70.961 42.9906 70.3428 44.4831 70.3428 46.0394V112.018C70.3428 113.574 70.961 115.067 72.0615 116.167C73.1619 117.267 74.6545 117.886 76.2108 117.886H135.125C136.681 117.886 138.174 117.267 139.274 116.167C140.375 115.067 140.993 113.574 140.993 112.018V61.4429H82.145C81.8146 61.4153 81.4866 61.5185 81.2315 61.7303C80.9764 61.9421 80.8147 62.2456 80.7811 62.5755V102.092C80.8147 102.422 80.9764 102.726 81.2314 102.938C81.4865 103.15 81.8145 103.253 82.145 103.226H128.754C129.084 103.253 129.412 103.15 129.668 102.938C129.923 102.726 130.084 102.422 130.118 102.092V69.2742" stroke="white" stroke-width="1.9615" stroke-linejoin="round"/>
<path d="M76.9898 46.3247C76.9909 46.0111 77.085 45.7048 77.26 45.4446C77.4351 45.1845 77.6834 44.982 77.9734 44.8628C78.2635 44.7436 78.5824 44.713 78.8898 44.7749C79.1972 44.8368 79.4794 44.9883 79.7008 45.2105C79.9221 45.4327 80.0727 45.7154 80.1334 46.0231C80.1942 46.3308 80.1624 46.6495 80.0422 46.9392C79.9219 47.2288 79.7185 47.4763 79.4576 47.6504C79.1968 47.8245 78.8902 47.9174 78.5766 47.9174C78.3678 47.9174 78.1609 47.8762 77.968 47.7961C77.7751 47.7159 77.5999 47.5985 77.4525 47.4505C77.305 47.3026 77.1883 47.1269 77.1089 46.9337C77.0295 46.7405 76.989 46.5335 76.9898 46.3247Z" fill="white"/>
<path d="M80.989 46.3247C80.9902 46.0111 81.0842 45.7048 81.2593 45.4446C81.4344 45.1845 81.6826 44.982 81.9727 44.8628C82.2627 44.7436 82.5816 44.713 82.8891 44.7749C83.1965 44.8368 83.4787 44.9883 83.7001 45.2105C83.9214 45.4327 84.0719 45.7154 84.1327 46.0231C84.1935 46.3308 84.1617 46.6495 84.0414 46.9392C83.9211 47.2288 83.7177 47.4763 83.4569 47.6504C83.1961 47.8245 82.8895 47.9174 82.5759 47.9174C82.367 47.9174 82.1602 47.8762 81.9673 47.7961C81.7744 47.7159 81.5992 47.5985 81.4517 47.4505C81.3043 47.3026 81.1875 47.1269 81.1081 46.9337C81.0287 46.7405 80.9883 46.5335 80.989 46.3247Z" fill="white"/>
<path d="M84.9929 46.3247C84.9941 46.0113 85.088 45.7053 85.2628 45.4452C85.4376 45.1852 85.6855 44.9827 85.9752 44.8633C86.265 44.7439 86.5835 44.713 86.8908 44.7744C87.1981 44.8358 87.4803 44.9869 87.7019 45.2084C87.9235 45.43 88.0745 45.7122 88.1359 46.0195C88.1973 46.3268 88.1664 46.6454 88.047 46.9351C87.9276 47.2248 87.7251 47.4727 87.4651 47.6475C87.205 47.8223 86.899 47.9162 86.5857 47.9174C86.3763 47.9182 86.1688 47.8775 85.9752 47.7977C85.7817 47.718 85.6058 47.6007 85.4577 47.4526C85.3097 47.3046 85.1924 47.1287 85.1126 46.9351C85.0328 46.7415 84.9922 46.534 84.9929 46.3247Z" fill="white"/>
<path d="M85.5226 141.029L82.1802 129.95H83.7965L86.3543 138.785L89.1004 129.95H90.7324L93.4785 138.785L96.0363 129.95H97.6525L94.3102 141.029H92.7096L89.9164 132.273L87.1232 141.029H85.5226ZM99.2141 140.04C98.4295 139.245 98.0372 138.257 98.0372 137.074C98.0372 135.892 98.4086 134.904 99.1514 134.109C99.9046 133.303 100.872 132.9 102.054 132.9C103.163 132.9 104.053 133.256 104.722 133.967C105.392 134.668 105.726 135.542 105.726 136.588C105.726 136.881 105.7 137.169 105.648 137.451H99.6378C99.7111 138.183 99.9987 138.764 100.501 139.193C101.003 139.611 101.61 139.821 102.321 139.821C103.2 139.821 103.948 139.486 104.565 138.816L105.491 139.883C104.612 140.773 103.545 141.217 102.29 141.217C101.034 141.217 100.009 140.825 99.2141 140.04ZM102.07 134.266C101.453 134.266 100.93 134.438 100.501 134.783C100.072 135.129 99.8 135.605 99.6849 136.211H104.236V136.196C104.183 135.61 103.953 135.144 103.545 134.799C103.148 134.443 102.656 134.266 102.07 134.266ZM107.706 129.95H109.228V134.187C109.458 133.821 109.819 133.518 110.311 133.277C110.802 133.026 111.315 132.9 111.849 132.9C112.916 132.9 113.81 133.293 114.532 134.077C115.254 134.862 115.615 135.856 115.615 137.059C115.615 138.262 115.254 139.256 114.532 140.04C113.81 140.825 112.916 141.217 111.849 141.217C111.305 141.217 110.776 141.086 110.264 140.825C109.751 140.563 109.385 140.239 109.165 139.852V141.029H107.706V129.95ZM113.339 135.082C112.858 134.558 112.277 134.297 111.597 134.297C110.917 134.297 110.337 134.558 109.856 135.082C109.374 135.594 109.134 136.253 109.134 137.059C109.134 137.864 109.374 138.529 109.856 139.052C110.337 139.564 110.917 139.821 111.597 139.821C112.277 139.821 112.858 139.564 113.339 139.052C113.831 138.529 114.077 137.864 114.077 137.059C114.077 136.253 113.831 135.594 113.339 135.082ZM124.793 141.217C123.716 141.217 122.79 140.94 122.016 140.385C121.242 139.821 120.855 139.078 120.855 138.157C120.855 137.529 121.053 136.975 121.451 136.494C121.859 136.002 122.466 135.516 123.271 135.034C122.821 134.543 122.492 134.103 122.283 133.716C122.073 133.329 121.969 132.906 121.969 132.445C121.969 131.734 122.241 131.111 122.785 130.578C123.339 130.034 124.051 129.762 124.919 129.762C125.777 129.762 126.478 130.029 127.022 130.562C127.576 131.085 127.853 131.697 127.853 132.398C127.853 132.953 127.67 133.444 127.304 133.873C126.938 134.292 126.326 134.762 125.468 135.286L127.916 137.906C128.397 137.038 128.58 136.086 128.465 135.05H129.972C130.129 136.546 129.804 137.88 128.999 139.052L130.85 141.029H128.889L128.026 140.103C127.095 140.846 126.017 141.217 124.793 141.217ZM122.455 138.094C122.445 138.617 122.68 139.025 123.161 139.318C123.653 139.601 124.207 139.742 124.825 139.742C125.641 139.742 126.363 139.496 126.99 139.005L124.228 136.07C123.643 136.415 123.203 136.74 122.91 137.043C122.617 137.346 122.466 137.697 122.455 138.094ZM124.919 131.143C124.49 131.143 124.134 131.268 123.852 131.519C123.58 131.771 123.444 132.074 123.444 132.43C123.444 132.754 123.522 133.042 123.679 133.293C123.847 133.544 124.124 133.868 124.511 134.266C125.191 133.868 125.672 133.538 125.955 133.277C126.237 133.015 126.378 132.728 126.378 132.414C126.378 132.069 126.237 131.771 125.955 131.519C125.683 131.268 125.337 131.143 124.919 131.143ZM65.2448 161.029L69.5444 149.95H71.1764L75.476 161.029H73.8754L72.7142 158.016H68.0066L66.8454 161.029H65.2448ZM68.5087 156.557H72.212L70.3604 151.645L68.5087 156.557ZM76.8735 153.089H78.3329V154.25C78.584 153.863 78.9553 153.544 79.447 153.293C79.9492 153.031 80.4722 152.9 81.0162 152.9C82.0833 152.9 82.9777 153.293 83.6995 154.077C84.4214 154.862 84.7823 155.856 84.7823 157.059C84.7823 158.262 84.4214 159.256 83.6995 160.04C82.9777 160.825 82.0833 161.217 81.0162 161.217C80.4931 161.217 79.9858 161.097 79.4941 160.856C79.0024 160.616 78.6363 160.312 78.3957 159.946V164.167H76.8735V153.089ZM79.0233 155.082C78.5421 155.594 78.3015 156.253 78.3015 157.059C78.3015 157.864 78.5421 158.529 79.0233 159.052C79.5046 159.564 80.0852 159.821 80.7651 159.821C81.4451 159.821 82.0257 159.564 82.507 159.052C82.9986 158.529 83.2445 157.864 83.2445 157.059C83.2445 156.253 82.9986 155.594 82.507 155.082C82.0257 154.558 81.4451 154.297 80.7651 154.297C80.0852 154.297 79.5046 154.558 79.0233 155.082ZM86.7883 153.089H88.2476V154.25C88.4987 153.863 88.8701 153.544 89.3618 153.293C89.8639 153.031 90.387 152.9 90.931 152.9C91.998 152.9 92.8925 153.293 93.6143 154.077C94.3361 154.862 94.6971 155.856 94.6971 157.059C94.6971 158.262 94.3361 159.256 93.6143 160.04C92.8925 160.825 91.998 161.217 90.931 161.217C90.4079 161.217 89.9005 161.097 89.4089 160.856C88.9172 160.616 88.551 160.312 88.3104 159.946V164.167H86.7883V153.089ZM88.9381 155.082C88.4569 155.594 88.2163 156.253 88.2163 157.059C88.2163 157.864 88.4569 158.529 88.9381 159.052C89.4193 159.564 89.9999 159.821 90.6799 159.821C91.3599 159.821 91.9405 159.564 92.4217 159.052C92.9134 158.529 93.1592 157.864 93.1592 157.059C93.1592 156.253 92.9134 155.594 92.4217 155.082C91.9405 154.558 91.3599 154.297 90.6799 154.297C89.9999 154.297 89.4193 154.558 88.9381 155.082ZM103.735 161.217C102.667 161.217 101.773 160.825 101.051 160.04C100.329 159.256 99.9685 158.262 99.9685 157.059C99.9685 155.856 100.329 154.862 101.051 154.077C101.773 153.293 102.667 152.9 103.735 152.9C104.268 152.9 104.781 153.026 105.272 153.277C105.764 153.518 106.125 153.821 106.355 154.187V149.95H107.877V161.029H106.418V159.852C106.198 160.239 105.832 160.563 105.319 160.825C104.807 161.086 104.279 161.217 103.735 161.217ZM105.727 155.082C105.246 154.558 104.666 154.297 103.986 154.297C103.306 154.297 102.72 154.558 102.228 155.082C101.747 155.594 101.506 156.253 101.506 157.059C101.506 157.864 101.747 158.529 102.228 159.052C102.72 159.564 103.306 159.821 103.986 159.821C104.666 159.821 105.246 159.564 105.727 159.052C106.209 158.529 106.449 157.864 106.449 157.059C106.449 156.253 106.209 155.594 105.727 155.082ZM111.044 160.04C110.26 159.245 109.868 158.257 109.868 157.074C109.868 155.892 110.239 154.904 110.982 154.109C111.735 153.303 112.703 152.9 113.885 152.9C114.994 152.9 115.883 153.256 116.552 153.967C117.222 154.668 117.557 155.542 117.557 156.588C117.557 156.881 117.53 157.169 117.478 157.451H111.468C111.541 158.183 111.829 158.764 112.331 159.193C112.833 159.611 113.44 159.821 114.151 159.821C115.03 159.821 115.778 159.486 116.395 158.816L117.321 159.883C116.442 160.773 115.375 161.217 114.12 161.217C112.865 161.217 111.84 160.825 111.044 160.04ZM113.9 154.266C113.283 154.266 112.76 154.438 112.331 154.783C111.902 155.129 111.63 155.605 111.515 156.211H116.066V156.196C116.014 155.61 115.783 155.144 115.375 154.799C114.978 154.443 114.486 154.266 113.9 154.266ZM118.799 159.46L119.913 158.659C120.446 159.465 121.111 159.868 121.906 159.868C122.355 159.868 122.711 159.789 122.973 159.632C123.234 159.465 123.365 159.245 123.365 158.973C123.365 158.68 123.245 158.445 123.004 158.267C122.774 158.089 122.303 157.885 121.592 157.655C120.734 157.383 120.106 157.064 119.709 156.698C119.311 156.321 119.112 155.819 119.112 155.191C119.112 154.574 119.384 154.041 119.928 153.591C120.472 153.131 121.147 152.9 121.953 152.9C123.208 152.9 124.123 153.413 124.699 154.438L123.6 155.254C123.161 154.574 122.591 154.234 121.89 154.234C121.503 154.234 121.189 154.323 120.948 154.501C120.718 154.668 120.603 154.888 120.603 155.16C120.603 155.411 120.718 155.626 120.948 155.803C121.179 155.971 121.607 156.159 122.235 156.368C123.166 156.682 123.836 157.027 124.244 157.404C124.652 157.781 124.856 158.293 124.856 158.942C124.856 159.601 124.578 160.145 124.024 160.574C123.47 161.003 122.769 161.217 121.921 161.217C121.241 161.217 120.619 161.06 120.054 160.746C119.489 160.433 119.071 160.004 118.799 159.46ZM126.846 153.089H128.368V161.029H126.846V153.089ZM126.94 151.41C126.752 151.211 126.657 150.981 126.657 150.719C126.657 150.458 126.752 150.233 126.94 150.044C127.128 149.856 127.353 149.762 127.615 149.762C127.876 149.762 128.101 149.856 128.289 150.044C128.478 150.233 128.572 150.458 128.572 150.719C128.572 150.981 128.478 151.211 128.289 151.41C128.101 151.598 127.876 151.692 127.615 151.692C127.353 151.692 127.128 151.598 126.94 151.41ZM130.199 162.143C130.199 161.432 130.644 160.856 131.533 160.417C131.188 160.166 131.015 159.81 131.015 159.35C131.015 158.9 131.25 158.502 131.721 158.157C131.324 157.896 131.005 157.561 130.764 157.153C130.534 156.734 130.419 156.285 130.419 155.803C130.419 154.998 130.722 154.313 131.329 153.748C131.946 153.183 132.699 152.9 133.589 152.9C133.986 152.9 134.368 152.963 134.734 153.089H137.653V154.36H136.35C136.622 154.789 136.758 155.27 136.758 155.803C136.758 156.609 136.45 157.294 135.833 157.859C135.226 158.424 134.478 158.706 133.589 158.706C133.317 158.706 133.045 158.675 132.773 158.612C132.563 158.769 132.459 158.947 132.459 159.146C132.459 159.313 132.522 159.449 132.647 159.554C132.773 159.658 132.919 159.711 133.086 159.711H135.095C135.89 159.711 136.528 159.92 137.009 160.338C137.491 160.746 137.731 161.275 137.731 161.923C137.731 162.624 137.365 163.205 136.633 163.665C135.911 164.125 134.959 164.356 133.777 164.356C132.668 164.356 131.794 164.157 131.156 163.759C130.518 163.372 130.199 162.833 130.199 162.143ZM134.781 154.705C134.457 154.391 134.059 154.234 133.589 154.234C133.118 154.234 132.715 154.391 132.38 154.705C132.056 155.008 131.894 155.374 131.894 155.803C131.894 156.232 132.056 156.604 132.38 156.918C132.715 157.221 133.118 157.373 133.589 157.373C134.059 157.373 134.457 157.221 134.781 156.918C135.116 156.604 135.283 156.232 135.283 155.803C135.283 155.374 135.116 155.008 134.781 154.705ZM131.721 162.002C131.721 162.305 131.915 162.546 132.302 162.724C132.689 162.901 133.191 162.99 133.808 162.99C134.582 162.99 135.179 162.896 135.597 162.708C136.026 162.52 136.241 162.268 136.241 161.955C136.241 161.672 136.12 161.452 135.88 161.296C135.639 161.139 135.336 161.06 134.969 161.06H132.647C132.417 161.123 132.202 161.233 132.004 161.39C131.815 161.547 131.721 161.751 131.721 162.002ZM139.442 161.029V153.089H140.933V154.281C141.435 153.361 142.293 152.9 143.507 152.9C144.427 152.9 145.17 153.199 145.735 153.795C146.3 154.381 146.582 155.191 146.582 156.227V161.029H145.06V156.29C145.06 155.662 144.882 155.176 144.526 154.83C144.171 154.475 143.726 154.297 143.193 154.297C142.806 154.297 142.46 154.381 142.157 154.548C141.854 154.715 141.618 154.935 141.451 155.207C141.283 155.479 141.158 155.767 141.074 156.07C141.001 156.374 140.964 156.682 140.964 156.996V161.029H139.442Z" fill="white"/>
</g>
<defs>
<filter id="filter0_d_664_347" x="0" y="0" width="226" height="226" filterUnits="userSpaceOnUse" color-interpolation-filters="sRGB">
<feFlood flood-opacity="0" result="BackgroundImageFix"/>
<feColorMatrix in="SourceAlpha" type="matrix" values="0 0 0 0 0 0 0 0 0 0 0 0 0 0 0 0 0 0 127 0" result="hardAlpha"/>
<feOffset dx="7" dy="7"/>
<feGaussianBlur stdDeviation="8.5"/>
<feComposite in2="hardAlpha" operator="out"/>
<feColorMatrix type="matrix" values="0 0 0 0 0 0 0 0 0 0.780392 0 0 0 0 0.780392 0 0 0 0.22 0"/>
<feBlend mode="normal" in2="BackgroundImageFix" result="effect1_dropShadow_664_347"/>
<feBlend mode="normal" in="SourceGraphic" in2="effect1_dropShadow_664_347" result="shape"/>
</filter>
</defs>
</svg>
