<svg width="114" height="82" viewBox="0 0 114 82" fill="none" xmlns="http://www.w3.org/2000/svg">
<path d="M32.2864 47.6613V67.8893C32.2865 68.0896 32.2471 68.288 32.1705 68.4731C32.094 68.6581 31.9816 68.8263 31.84 68.9679C31.6983 69.1096 31.5302 69.2219 31.3451 69.2985C31.16 69.3751 30.9617 69.4145 30.7614 69.4143H12.6683C12.4681 69.4143 12.2697 69.3749 12.0847 69.2982C11.8997 69.2216 11.7317 69.1093 11.5901 68.9677C11.4485 68.8261 11.336 68.658 11.2594 68.4729C11.1828 68.2879 11.1433 68.0896 11.1433 67.8893V41.3242C11.1432 41.1239 11.1826 40.9256 11.2592 40.7405C11.3358 40.5554 11.4481 40.3873 11.5897 40.2456C11.7314 40.104 11.8995 39.9917 12.0846 39.9151C12.2697 39.8385 12.468 39.7992 12.6683 39.7993H41.3404C41.2218 37.1757 40.5579 34.6055 39.3911 32.2526C38.2243 29.8997 36.5801 27.8157 34.5634 26.1333C33.2256 24.9699 32.1535 23.5326 31.4196 21.9187C30.6856 20.3049 30.307 18.5522 30.3093 16.7793V16.2683C30.2925 14.5149 30.6393 12.7769 31.3278 11.1642C32.0162 9.5515 33.0314 8.09906 34.3093 6.89835C34.5662 6.70057 34.7796 6.45201 34.9362 6.16812C35.0927 5.88424 35.1892 5.57111 35.2194 5.24832C35.1914 4.29286 34.79 3.38645 34.1012 2.72367C33.4124 2.06088 32.4912 1.69449 31.5354 1.70328H11.7523C11.2759 1.7061 10.8048 1.80439 10.367 1.99222C9.92908 2.18005 9.53331 2.45363 9.20289 2.79691C8.87248 3.14019 8.6141 3.54615 8.44313 3.99088C8.27215 4.43561 8.19204 4.91005 8.20741 5.38626C8.24032 5.69226 8.33667 5.98809 8.49025 6.25479C8.64383 6.52149 8.85124 6.75328 9.09938 6.93534C10.3753 8.09059 11.3929 9.50227 12.0855 11.078C12.778 12.6538 13.1301 14.358 13.1184 16.0793V16.7793C13.1216 18.5525 12.7432 20.3055 12.009 21.9195C11.2749 23.5335 10.2021 24.9706 8.86341 26.1333C6.72848 27.9756 5.0162 30.2569 3.84352 32.8214C2.67084 35.386 2.06533 38.1734 2.06837 40.9933V70.4604C2.06943 73.065 3.10455 75.5626 4.9463 77.4043C6.78805 79.2461 9.28576 80.2812 11.8904 80.2823H31.5344C32.8243 80.2824 34.1015 80.0285 35.2932 79.5349C36.4849 79.0414 37.5678 78.3179 38.4799 77.4058C39.392 76.4937 40.1154 75.4109 40.609 74.2191C41.1025 73.0274 41.3565 71.7502 41.3564 70.4604L41.7814 57.3603L75.1554 74.0873C76.048 74.5379 77.034 74.7726 78.0339 74.7726C79.0338 74.7726 80.0197 74.5379 80.9124 74.0873L108.837 60.1212C109.908 59.5878 110.808 58.7665 111.438 57.7495C112.067 56.7326 112.4 55.5603 112.4 54.3643V24.1413C112.4 22.8307 112.001 21.5512 111.255 20.4737C110.509 19.3961 109.452 18.5716 108.225 18.1103L80.2933 7.63736C78.8395 7.07791 77.2307 7.07289 75.7734 7.62332L44.1604 19.5913" stroke="white" stroke-width="3" stroke-linejoin="round"/>
</svg>
