<svg width="226" height="226" viewBox="0 0 226 226" fill="none" xmlns="http://www.w3.org/2000/svg">
<g filter="url(#filter0_d_664_341)">
<circle cx="106" cy="106" r="96" fill="#4747C7"/>
<path d="M128.835 79.005V97.2919L148.482 87.4637V62.5616C148.482 62.5558 124.91 72.1337 124.91 72.1337L101.33 62.5558L124.908 53.5757L140.015 59.1554" stroke="white" stroke-width="1.9615" stroke-linecap="round" stroke-linejoin="round"/>
<path d="M83.0576 82.5675V101.067C83.0576 101.436 82.9107 101.791 82.6492 102.053C82.3877 102.314 82.0331 102.461 81.6633 102.461H65.1164C64.7466 102.461 64.3919 102.314 64.1304 102.053C63.869 101.791 63.7221 101.436 63.7221 101.067V76.773C63.7221 76.4032 63.869 76.0486 64.1304 75.7871C64.3919 75.5256 64.7466 75.3787 65.1164 75.3787H91.3381C91.2294 72.979 90.6218 70.6283 89.5542 68.4765C88.4866 66.3246 86.9824 64.4187 85.1375 62.8804C83.9148 61.8161 82.935 60.5016 82.2642 59.0258C81.5935 57.55 81.2475 55.9474 81.2496 54.3264V53.858C81.2345 52.2543 81.5519 50.6649 82.1818 49.1901C82.8118 47.7152 83.7405 46.3869 84.9095 45.289C85.1439 45.108 85.3385 44.8806 85.4812 44.621C85.6238 44.3614 85.7114 44.0752 85.7385 43.7803C85.7129 42.9067 85.3459 42.0779 84.7162 41.4717C84.0866 40.8656 83.2444 40.5305 82.3704 40.5382H64.2808C63.845 40.5406 63.4141 40.6304 63.0136 40.8021C62.6131 40.9738 62.251 41.224 61.9488 41.538C61.6466 41.8519 61.4104 42.2232 61.2541 42.63C61.0977 43.0368 61.0245 43.4708 61.0387 43.9063C61.0686 44.1861 61.1566 44.4565 61.2971 44.7003C61.4375 44.9442 61.6274 45.1559 61.8544 45.3222C63.0214 46.3788 63.9521 47.67 64.5856 49.1113C65.219 50.5525 65.5408 52.1113 65.53 53.6856V54.3239C65.5331 55.9455 65.1872 57.5488 64.5158 59.0249C63.8444 60.501 62.8632 61.8154 61.6389 62.8788C59.6856 64.5632 58.119 66.6493 57.046 68.9948C55.973 71.3402 55.4189 73.8896 55.4216 76.4688V103.417C55.4227 105.799 56.3696 108.083 58.0541 109.768C59.7385 111.452 62.0229 112.399 64.4051 112.4H82.3729C84.7551 112.4 87.0396 111.453 88.724 109.769C90.4084 108.084 91.3547 105.8 91.3547 103.418L91.7435 91.4365L122.265 106.735C123.081 107.147 123.983 107.362 124.897 107.362C125.812 107.362 126.713 107.147 127.53 106.735L153.069 93.9599C154.048 93.4724 154.872 92.7214 155.447 91.7914C156.023 90.8613 156.328 89.789 156.328 88.6952V61.0575C156.328 59.859 155.962 58.689 155.28 57.7036C154.598 56.7182 153.632 55.9643 152.51 55.5424L126.964 45.963C125.636 45.4505 124.164 45.4458 122.832 45.9497L93.9245 56.8961" stroke="white" stroke-width="1.9615" stroke-linejoin="round"/>
<path d="M66.7124 125.379H70.5569C71.603 125.379 72.4399 125.646 73.0676 126.179C73.6953 126.702 74.0091 127.414 74.0091 128.313C74.0091 128.899 73.8627 129.422 73.5698 129.883C73.2769 130.332 72.9316 130.646 72.5341 130.824C73.0049 130.971 73.4233 131.269 73.7895 131.719C74.1556 132.168 74.3387 132.728 74.3387 133.398C74.3387 134.329 74.0039 135.071 73.3344 135.626C72.6753 136.18 71.807 136.458 70.7295 136.458H66.7124V125.379ZM70.5726 131.53H68.2659V135.03H70.7609C71.3363 135.03 71.8018 134.862 72.1575 134.527C72.5236 134.182 72.7067 133.758 72.7067 133.256C72.7067 132.765 72.5027 132.357 72.0947 132.032C71.6972 131.698 71.1898 131.53 70.5726 131.53ZM68.2659 130.228H70.5726C71.1584 130.228 71.6083 130.06 71.9221 129.726C72.2359 129.38 72.3929 128.952 72.3929 128.439C72.3929 127.968 72.2255 127.576 71.8907 127.262C71.556 126.948 71.1009 126.791 70.5255 126.791H68.2659V130.228ZM79.4342 136.646C78.5136 136.646 77.7708 136.353 77.2059 135.767C76.641 135.171 76.3585 134.355 76.3585 133.319V128.517H77.8807V133.256C77.8807 133.884 78.0585 134.376 78.4142 134.731C78.7699 135.077 79.2145 135.249 79.748 135.249C80.1351 135.249 80.4803 135.166 80.7837 134.998C81.087 134.831 81.3224 134.611 81.4898 134.339C81.6572 134.067 81.7775 133.779 81.8507 133.476C81.9344 133.173 81.9763 132.864 81.9763 132.55V128.517H83.4984V136.458H82.0076V135.265C81.5055 136.186 80.6477 136.646 79.4342 136.646ZM85.3701 134.888L86.4843 134.088C87.0178 134.894 87.6821 135.296 88.4772 135.296C88.927 135.296 89.2827 135.218 89.5442 135.061C89.8057 134.894 89.9365 134.674 89.9365 134.402C89.9365 134.109 89.8162 133.874 89.5756 133.696C89.3454 133.518 88.8747 133.314 88.1633 133.084C87.3055 132.812 86.6778 132.493 86.2803 132.127C85.8827 131.75 85.684 131.248 85.684 130.62C85.684 130.003 85.956 129.469 86.5 129.02C87.044 128.559 87.7187 128.329 88.5242 128.329C89.7796 128.329 90.695 128.842 91.2703 129.867L90.1719 130.683C89.7325 130.003 89.1624 129.663 88.4615 129.663C88.0744 129.663 87.7606 129.752 87.5199 129.93C87.2898 130.097 87.1747 130.317 87.1747 130.589C87.1747 130.84 87.2898 131.054 87.5199 131.232C87.7501 131.399 88.179 131.588 88.8067 131.797C89.7377 132.111 90.4073 132.456 90.8153 132.833C91.2233 133.209 91.4273 133.722 91.4273 134.37C91.4273 135.03 91.15 135.574 90.5956 136.002C90.0411 136.431 89.3402 136.646 88.4929 136.646C87.8129 136.646 87.1904 136.489 86.6255 136.175C86.0606 135.861 85.6421 135.432 85.3701 134.888ZM93.4173 128.517H94.9394V136.458H93.4173V128.517ZM93.5115 126.838C93.3232 126.64 93.229 126.409 93.229 126.148C93.229 125.886 93.3232 125.661 93.5115 125.473C93.6998 125.285 93.9247 125.191 94.1862 125.191C94.4478 125.191 94.6727 125.285 94.861 125.473C95.0493 125.661 95.1434 125.886 95.1434 126.148C95.1434 126.409 95.0493 126.64 94.861 126.838C94.6727 127.027 94.4478 127.121 94.1862 127.121C93.9247 127.121 93.6998 127.027 93.5115 126.838ZM97.5395 136.458V128.517H99.0303V129.71C99.5324 128.789 100.39 128.329 101.604 128.329C102.524 128.329 103.267 128.627 103.832 129.224C104.397 129.809 104.679 130.62 104.679 131.656V136.458H103.157V131.719C103.157 131.091 102.979 130.604 102.624 130.259C102.268 129.903 101.823 129.726 101.29 129.726C100.903 129.726 100.558 129.809 100.254 129.977C99.9509 130.144 99.7155 130.364 99.5481 130.636C99.3807 130.908 99.2552 131.195 99.1715 131.499C99.0983 131.802 99.0617 132.111 99.0617 132.425V136.458H97.5395ZM107.728 135.469C106.943 134.674 106.551 133.685 106.551 132.503C106.551 131.321 106.923 130.332 107.665 129.537C108.418 128.732 109.386 128.329 110.568 128.329C111.677 128.329 112.566 128.685 113.236 129.396C113.905 130.097 114.24 130.971 114.24 132.017C114.24 132.31 114.214 132.597 114.162 132.88H108.152C108.225 133.612 108.513 134.193 109.015 134.622C109.517 135.04 110.124 135.249 110.835 135.249C111.714 135.249 112.462 134.914 113.079 134.245L114.005 135.312C113.126 136.201 112.059 136.646 110.804 136.646C109.548 136.646 108.523 136.254 107.728 135.469ZM110.584 129.694C109.967 129.694 109.444 129.867 109.015 130.212C108.586 130.557 108.314 131.033 108.199 131.64H112.749V131.624C112.697 131.039 112.467 130.573 112.059 130.228C111.662 129.872 111.17 129.694 110.584 129.694ZM115.482 134.888L116.596 134.088C117.13 134.894 117.794 135.296 118.589 135.296C119.039 135.296 119.395 135.218 119.656 135.061C119.918 134.894 120.049 134.674 120.049 134.402C120.049 134.109 119.928 133.874 119.688 133.696C119.458 133.518 118.987 133.314 118.275 133.084C117.418 132.812 116.79 132.493 116.392 132.127C115.995 131.75 115.796 131.248 115.796 130.62C115.796 130.003 116.068 129.469 116.612 129.02C117.156 128.559 117.831 128.329 118.636 128.329C119.892 128.329 120.807 128.842 121.382 129.867L120.284 130.683C119.845 130.003 119.274 129.663 118.574 129.663C118.186 129.663 117.873 129.752 117.632 129.93C117.402 130.097 117.287 130.317 117.287 130.589C117.287 130.84 117.402 131.054 117.632 131.232C117.862 131.399 118.291 131.588 118.919 131.797C119.85 132.111 120.519 132.456 120.927 132.833C121.335 133.209 121.539 133.722 121.539 134.37C121.539 135.03 121.262 135.574 120.708 136.002C120.153 136.431 119.452 136.646 118.605 136.646C117.925 136.646 117.302 136.489 116.738 136.175C116.173 135.861 115.754 135.432 115.482 134.888ZM122.792 134.888L123.906 134.088C124.44 134.894 125.104 135.296 125.899 135.296C126.349 135.296 126.704 135.218 126.966 135.061C127.227 134.894 127.358 134.674 127.358 134.402C127.358 134.109 127.238 133.874 126.997 133.696C126.767 133.518 126.296 133.314 125.585 133.084C124.727 132.812 124.1 132.493 123.702 132.127C123.304 131.75 123.106 131.248 123.106 130.62C123.106 130.003 123.378 129.469 123.922 129.02C124.466 128.559 125.14 128.329 125.946 128.329C127.201 128.329 128.117 128.842 128.692 129.867L127.594 130.683C127.154 130.003 126.584 129.663 125.883 129.663C125.496 129.663 125.182 129.752 124.942 129.93C124.712 130.097 124.596 130.317 124.596 130.589C124.596 130.84 124.712 131.054 124.942 131.232C125.172 131.399 125.601 131.588 126.228 131.797C127.159 132.111 127.829 132.456 128.237 132.833C128.645 133.209 128.849 133.722 128.849 134.37C128.849 135.03 128.572 135.574 128.017 136.002C127.463 136.431 126.762 136.646 125.915 136.646C125.235 136.646 124.612 136.489 124.047 136.175C123.482 135.861 123.064 135.432 122.792 134.888ZM138.012 136.646C136.934 136.646 136.008 136.369 135.234 135.814C134.46 135.249 134.073 134.506 134.073 133.586C134.073 132.958 134.272 132.404 134.669 131.923C135.077 131.431 135.684 130.944 136.49 130.463C136.04 129.971 135.71 129.532 135.501 129.145C135.292 128.758 135.187 128.334 135.187 127.874C135.187 127.163 135.459 126.54 136.003 126.007C136.558 125.463 137.269 125.191 138.137 125.191C138.995 125.191 139.696 125.457 140.24 125.991C140.794 126.514 141.072 127.126 141.072 127.827C141.072 128.381 140.889 128.873 140.522 129.302C140.156 129.72 139.544 130.191 138.687 130.714L141.134 133.335C141.616 132.467 141.799 131.515 141.684 130.479H143.19C143.347 131.975 143.023 133.309 142.217 134.48L144.069 136.458H142.107L141.244 135.532C140.313 136.274 139.236 136.646 138.012 136.646ZM135.674 133.523C135.663 134.046 135.899 134.454 136.38 134.747C136.871 135.03 137.426 135.171 138.043 135.171C138.859 135.171 139.581 134.925 140.209 134.433L137.447 131.499C136.861 131.844 136.422 132.168 136.129 132.472C135.836 132.775 135.684 133.126 135.674 133.523ZM138.137 126.572C137.708 126.572 137.353 126.697 137.07 126.948C136.798 127.199 136.662 127.503 136.662 127.858C136.662 128.183 136.741 128.47 136.898 128.721C137.065 128.972 137.342 129.297 137.729 129.694C138.409 129.297 138.891 128.967 139.173 128.706C139.455 128.444 139.597 128.156 139.597 127.843C139.597 127.497 139.455 127.199 139.173 126.948C138.901 126.697 138.556 126.572 138.137 126.572ZM65.1312 156.458L69.4308 145.379H71.0627L75.3623 156.458H73.7618L72.6005 153.445H67.8929L66.7317 156.458H65.1312ZM68.3951 151.985H72.0984L70.2467 147.074L68.3951 151.985ZM79.9297 156.646C78.8626 156.646 77.9682 156.254 77.2464 155.469C76.5245 154.684 76.1636 153.69 76.1636 152.487C76.1636 151.284 76.5245 150.291 77.2464 149.506C77.9682 148.721 78.8626 148.329 79.9297 148.329C80.4632 148.329 80.9758 148.455 81.4675 148.706C81.9592 148.946 82.3201 149.25 82.5502 149.616V145.379H84.0724V156.458H82.613V155.281C82.3933 155.668 82.0272 155.992 81.5146 156.254C81.002 156.515 80.4737 156.646 79.9297 156.646ZM81.9226 150.51C81.4413 149.987 80.8607 149.726 80.1808 149.726C79.5008 149.726 78.9149 149.987 78.4233 150.51C77.942 151.023 77.7014 151.682 77.7014 152.487C77.7014 153.293 77.942 153.957 78.4233 154.48C78.9149 154.993 79.5008 155.249 80.1808 155.249C80.8607 155.249 81.4413 154.993 81.9226 154.48C82.4038 153.957 82.6444 153.293 82.6444 152.487C82.6444 151.682 82.4038 151.023 81.9226 150.51ZM85.5292 148.517H87.1611L89.4678 154.418L91.7746 148.517H93.4065L90.1583 156.458H88.7774L85.5292 148.517ZM95.3154 155.469C94.5308 154.674 94.1385 153.685 94.1385 152.503C94.1385 151.321 94.5099 150.332 95.2527 149.537C96.0059 148.732 96.9736 148.329 98.1557 148.329C99.2646 148.329 100.154 148.685 100.823 149.396C101.493 150.097 101.828 150.971 101.828 152.017C101.828 152.31 101.801 152.597 101.749 152.88H95.7391C95.8124 153.612 96.1 154.193 96.6022 154.622C97.1043 155.04 97.7111 155.249 98.4225 155.249C99.3012 155.249 100.049 154.914 100.666 154.245L101.592 155.312C100.713 156.201 99.6464 156.646 98.3911 156.646C97.1357 156.646 96.1105 156.254 95.3154 155.469ZM98.1714 149.694C97.5542 149.694 97.0311 149.867 96.6022 150.212C96.1733 150.557 95.9013 151.033 95.7862 151.64H100.337V151.624C100.285 151.039 100.054 150.573 99.6464 150.228C99.2489 149.872 98.7572 149.694 98.1714 149.694ZM103.807 148.517H105.298V149.914C105.497 149.422 105.795 149.035 106.192 148.753C106.59 148.47 107.05 148.329 107.573 148.329C107.772 148.329 107.934 148.35 108.06 148.392V149.883C107.976 149.862 107.871 149.851 107.746 149.851C107.014 149.851 106.428 150.097 105.988 150.589C105.549 151.07 105.329 151.713 105.329 152.519V156.458H103.807V148.517ZM108.89 148.517H110.13V146.336H111.605V148.517H113.645V149.788H111.605V153.931C111.605 154.799 112.034 155.234 112.892 155.234C113.237 155.234 113.551 155.15 113.833 154.982V156.379C113.53 156.557 113.106 156.646 112.562 156.646C111.788 156.646 111.181 156.426 110.742 155.987C110.303 155.537 110.083 154.914 110.083 154.119V149.788H108.89V148.517ZM115.545 148.517H117.068V156.458H115.545V148.517ZM115.64 146.838C115.451 146.64 115.357 146.409 115.357 146.148C115.357 145.886 115.451 145.661 115.64 145.473C115.828 145.285 116.053 145.191 116.314 145.191C116.576 145.191 116.801 145.285 116.989 145.473C117.177 145.661 117.272 145.886 117.272 146.148C117.272 146.409 117.177 146.64 116.989 146.838C116.801 147.027 116.576 147.121 116.314 147.121C116.053 147.121 115.828 147.027 115.64 146.838ZM118.93 154.888L120.044 154.088C120.578 154.894 121.242 155.296 122.037 155.296C122.487 155.296 122.843 155.218 123.104 155.061C123.366 154.894 123.497 154.674 123.497 154.402C123.497 154.109 123.376 153.874 123.136 153.696C122.905 153.518 122.435 153.314 121.723 153.084C120.866 152.812 120.238 152.493 119.84 152.127C119.443 151.75 119.244 151.248 119.244 150.62C119.244 150.003 119.516 149.469 120.06 149.02C120.604 148.559 121.279 148.329 122.084 148.329C123.34 148.329 124.255 148.842 124.83 149.867L123.732 150.683C123.293 150.003 122.722 149.663 122.021 149.663C121.634 149.663 121.321 149.752 121.08 149.93C120.85 150.097 120.735 150.317 120.735 150.589C120.735 150.84 120.85 151.054 121.08 151.232C121.31 151.399 121.739 151.588 122.367 151.797C123.298 152.111 123.967 152.456 124.375 152.833C124.783 153.209 124.987 153.722 124.987 154.37C124.987 155.03 124.71 155.574 124.156 156.002C123.601 156.431 122.9 156.646 122.053 156.646C121.373 156.646 120.75 156.489 120.186 156.175C119.621 155.861 119.202 155.432 118.93 154.888ZM126.977 148.517H128.499V156.458H126.977V148.517ZM127.071 146.838C126.883 146.64 126.789 146.409 126.789 146.148C126.789 145.886 126.883 145.661 127.071 145.473C127.26 145.285 127.485 145.191 127.746 145.191C128.008 145.191 128.233 145.285 128.421 145.473C128.609 145.661 128.703 145.886 128.703 146.148C128.703 146.409 128.609 146.64 128.421 146.838C128.233 147.027 128.008 147.121 127.746 147.121C127.485 147.121 127.26 147.027 127.071 146.838ZM131.1 156.458V148.517H132.59V149.71C133.092 148.789 133.95 148.329 135.164 148.329C136.084 148.329 136.827 148.627 137.392 149.224C137.957 149.809 138.239 150.62 138.239 151.656V156.458H136.717V151.719C136.717 151.091 136.539 150.604 136.184 150.259C135.828 149.903 135.383 149.726 134.85 149.726C134.463 149.726 134.118 149.809 133.814 149.977C133.511 150.144 133.276 150.364 133.108 150.636C132.941 150.908 132.815 151.195 132.732 151.499C132.658 151.802 132.622 152.111 132.622 152.425V156.458H131.1ZM139.954 157.572C139.954 156.86 140.399 156.285 141.288 155.846C140.943 155.594 140.77 155.239 140.77 154.778C140.77 154.329 141.006 153.931 141.476 153.586C141.079 153.324 140.76 152.99 140.519 152.582C140.289 152.163 140.174 151.713 140.174 151.232C140.174 150.427 140.477 149.741 141.084 149.176C141.701 148.612 142.455 148.329 143.344 148.329C143.741 148.329 144.123 148.392 144.489 148.517H147.408V149.788H146.106C146.378 150.217 146.514 150.699 146.514 151.232C146.514 152.038 146.205 152.723 145.588 153.288C144.981 153.853 144.233 154.135 143.344 154.135C143.072 154.135 142.8 154.104 142.528 154.041C142.319 154.198 142.214 154.376 142.214 154.574C142.214 154.742 142.277 154.878 142.402 154.982C142.528 155.087 142.674 155.139 142.842 155.139H144.85C145.645 155.139 146.283 155.349 146.765 155.767C147.246 156.175 147.486 156.703 147.486 157.352C147.486 158.053 147.12 158.633 146.388 159.094C145.666 159.554 144.714 159.784 143.532 159.784C142.423 159.784 141.55 159.585 140.911 159.188C140.273 158.801 139.954 158.262 139.954 157.572ZM144.536 150.134C144.212 149.82 143.814 149.663 143.344 149.663C142.873 149.663 142.47 149.82 142.135 150.134C141.811 150.437 141.649 150.803 141.649 151.232C141.649 151.661 141.811 152.032 142.135 152.346C142.47 152.65 142.873 152.801 143.344 152.801C143.814 152.801 144.212 152.65 144.536 152.346C144.871 152.032 145.038 151.661 145.038 151.232C145.038 150.803 144.871 150.437 144.536 150.134ZM141.476 157.43C141.476 157.734 141.67 157.974 142.057 158.152C142.444 158.33 142.946 158.419 143.563 158.419C144.338 158.419 144.934 158.325 145.352 158.137C145.781 157.948 145.996 157.697 145.996 157.383C145.996 157.101 145.875 156.881 145.635 156.724C145.394 156.567 145.091 156.489 144.725 156.489H142.402C142.172 156.552 141.958 156.662 141.759 156.818C141.571 156.975 141.476 157.179 141.476 157.43Z" fill="white"/>
</g>
<defs>
<filter id="filter0_d_664_341" x="0" y="0" width="226" height="226" filterUnits="userSpaceOnUse" color-interpolation-filters="sRGB">
<feFlood flood-opacity="0" result="BackgroundImageFix"/>
<feColorMatrix in="SourceAlpha" type="matrix" values="0 0 0 0 0 0 0 0 0 0 0 0 0 0 0 0 0 0 127 0" result="hardAlpha"/>
<feOffset dx="7" dy="7"/>
<feGaussianBlur stdDeviation="8.5"/>
<feComposite in2="hardAlpha" operator="out"/>
<feColorMatrix type="matrix" values="0 0 0 0 0.278431 0 0 0 0 0.278431 0 0 0 0 0.780392 0 0 0 0.22 0"/>
<feBlend mode="normal" in2="BackgroundImageFix" result="effect1_dropShadow_664_341"/>
<feBlend mode="normal" in="SourceGraphic" in2="effect1_dropShadow_664_341" result="shape"/>
</filter>
</defs>
</svg>
