<svg width="226" height="226" viewBox="0 0 226 226" fill="none" xmlns="http://www.w3.org/2000/svg">
<g filter="url(#filter0_d_664_320)">
<circle cx="106" cy="106" r="96" fill="#FF5F6B"/>
<path d="M119.77 78.9134C119.772 80.3759 119.485 81.8244 118.927 83.1761C118.369 84.5278 117.551 85.7562 116.518 86.7913C115.485 87.8263 114.259 88.6476 112.909 89.2083C111.559 89.769 110.111 90.0581 108.65 90.059H108.634C106.886 90.0579 105.162 89.6444 103.603 88.852C102.044 88.0597 100.694 86.9107 99.6617 85.4985C98.6296 84.0862 97.9449 82.4505 97.663 80.7239C97.3812 78.9973 97.5101 77.2285 98.0394 75.5611C98.5687 73.8937 99.4834 72.3747 100.709 71.1272C101.935 69.8797 103.438 68.939 105.095 68.3813C106.753 67.8237 108.518 67.6648 110.248 67.9176C111.979 68.1704 113.625 68.8277 115.054 69.8362" stroke="white" stroke-width="1.9615" stroke-miterlimit="10"/>
<path d="M131.693 73.5551C130.34 75.7315 129.781 78.3085 130.109 80.8501C130.502 83.5693 131.87 86.0527 133.957 87.8379C136.045 89.6231 138.71 90.5883 141.456 90.5537C143.596 90.568 145.691 89.9378 147.469 88.7451C149.246 87.5524 150.624 85.8524 151.424 83.8658C152.146 82.1645 152.437 80.3106 152.268 78.4696C152.1 76.6287 151.479 74.8582 150.46 73.3161C149.441 71.7741 148.056 70.5086 146.429 69.6326C144.802 68.7567 142.983 68.2976 141.136 68.2964H125.974C124.329 68.2959 122.752 68.949 121.589 70.1119C120.425 71.2749 119.771 72.8525 119.771 74.4978L119.764 94.9236C119.766 97.8776 118.595 100.711 116.509 102.802C114.423 104.892 111.592 106.067 108.64 106.069C105.687 106.071 102.855 104.9 100.766 102.813C98.6769 100.725 97.5021 97.8931 97.5 94.9392" stroke="white" stroke-width="1.9615" stroke-miterlimit="10"/>
<path d="M75.2329 84.5608C73.7543 82.0136 73.3447 78.9839 74.0939 76.1352C74.843 73.2865 76.6898 70.8508 79.2299 69.3614C81.7699 67.872 84.7964 67.4502 87.6466 68.1884C90.4968 68.9266 92.9386 70.7646 94.4373 73.3L94.4446 73.3138C95.4451 75.0274 95.9696 76.9775 95.9638 78.9621C95.958 80.9468 95.4221 82.8937 94.4115 84.6015C93.401 86.3093 91.9525 87.7158 90.2162 88.6753C88.4798 89.6349 86.5187 90.1126 84.5358 90.0591H69.7447C66.9939 90.0564 64.3566 88.9618 62.4118 87.0154C60.4669 85.0691 59.3735 82.4301 59.3716 79.678V56.21" stroke="white" stroke-width="1.9615" stroke-miterlimit="10"/>
<path d="M59.2559 139.2V128.122H60.8094V137.788H65.6896V139.2H59.2559ZM73.5458 138.196C72.7612 138.991 71.783 139.388 70.6114 139.388C69.4397 139.388 68.4616 138.991 67.677 138.196C66.8924 137.39 66.5001 136.402 66.5001 135.23C66.5001 134.058 66.8924 133.075 67.677 132.28C68.4616 131.475 69.4397 131.072 70.6114 131.072C71.783 131.072 72.7612 131.475 73.5458 132.28C74.3304 133.075 74.7227 134.058 74.7227 135.23C74.7227 136.402 74.3304 137.39 73.5458 138.196ZM68.7754 133.316C68.2942 133.839 68.0536 134.477 68.0536 135.23C68.0536 135.983 68.2942 136.627 68.7754 137.16C69.2566 137.683 69.8686 137.945 70.6114 137.945C71.3541 137.945 71.9661 137.683 72.4473 137.16C72.9286 136.627 73.1692 135.983 73.1692 135.23C73.1692 134.477 72.9286 133.839 72.4473 133.316C71.9661 132.782 71.3541 132.515 70.6114 132.515C69.8686 132.515 69.2566 132.782 68.7754 133.316ZM75.9514 140.314C75.9514 139.603 76.396 139.028 77.2852 138.588C76.94 138.337 76.7674 137.981 76.7674 137.521C76.7674 137.071 77.0028 136.674 77.4736 136.329C77.076 136.067 76.757 135.732 76.5163 135.324C76.2862 134.906 76.1711 134.456 76.1711 133.975C76.1711 133.169 76.4745 132.484 77.0813 131.919C77.6985 131.354 78.4517 131.072 79.3409 131.072C79.7384 131.072 80.1203 131.135 80.4864 131.26H83.4051V132.531H82.1027C82.3747 132.96 82.5107 133.441 82.5107 133.975C82.5107 134.78 82.2021 135.466 81.5849 136.03C80.9781 136.595 80.2301 136.878 79.3409 136.878C79.0689 136.878 78.7969 136.846 78.5249 136.784C78.3157 136.941 78.2111 137.118 78.2111 137.317C78.2111 137.485 78.2738 137.621 78.3994 137.725C78.5249 137.83 78.6714 137.882 78.8388 137.882H80.8473C81.6424 137.882 82.2805 138.091 82.7618 138.51C83.243 138.918 83.4836 139.446 83.4836 140.095C83.4836 140.796 83.1174 141.376 82.3851 141.836C81.6633 142.297 80.7113 142.527 79.5292 142.527C78.4203 142.527 77.5468 142.328 76.9086 141.931C76.2705 141.544 75.9514 141.005 75.9514 140.314ZM80.5335 132.876C80.2092 132.562 79.8117 132.406 79.3409 132.406C78.8701 132.406 78.4674 132.562 78.1326 132.876C77.8083 133.18 77.6462 133.546 77.6462 133.975C77.6462 134.404 77.8083 134.775 78.1326 135.089C78.4674 135.392 78.8701 135.544 79.3409 135.544C79.8117 135.544 80.2092 135.392 80.5335 135.089C80.8683 134.775 81.0356 134.404 81.0356 133.975C81.0356 133.546 80.8683 133.18 80.5335 132.876ZM77.4736 140.173C77.4736 140.476 77.6671 140.717 78.0542 140.895C78.4412 141.073 78.9434 141.162 79.5606 141.162C80.3347 141.162 80.931 141.068 81.3495 140.879C81.7784 140.691 81.9928 140.44 81.9928 140.126C81.9928 139.844 81.8725 139.624 81.6319 139.467C81.3913 139.31 81.0879 139.232 80.7218 139.232H78.3994C78.1692 139.294 77.9548 139.404 77.756 139.561C77.5677 139.718 77.4736 139.922 77.4736 140.173ZM91.4904 138.196C90.7058 138.991 89.7277 139.388 88.556 139.388C87.3844 139.388 86.4062 138.991 85.6216 138.196C84.837 137.39 84.4447 136.402 84.4447 135.23C84.4447 134.058 84.837 133.075 85.6216 132.28C86.4062 131.475 87.3844 131.072 88.556 131.072C89.7277 131.072 90.7058 131.475 91.4904 132.28C92.275 133.075 92.6673 134.058 92.6673 135.23C92.6673 136.402 92.275 137.39 91.4904 138.196ZM86.7201 133.316C86.2388 133.839 85.9982 134.477 85.9982 135.23C85.9982 135.983 86.2388 136.627 86.7201 137.16C87.2013 137.683 87.8133 137.945 88.556 137.945C89.2988 137.945 89.9108 137.683 90.392 137.16C90.8732 136.627 91.1138 135.983 91.1138 135.23C91.1138 134.477 90.8732 133.839 90.392 133.316C89.9108 132.782 89.2988 132.515 88.556 132.515C87.8133 132.515 87.2013 132.782 86.7201 133.316ZM101.838 139.388C100.76 139.388 99.8344 139.111 99.0602 138.557C98.2861 137.992 97.899 137.249 97.899 136.329C97.899 135.701 98.0978 135.146 98.4953 134.665C98.9033 134.174 99.5101 133.687 100.316 133.206C99.8657 132.714 99.5362 132.275 99.327 131.888C99.1178 131.501 99.0131 131.077 99.0131 130.617C99.0131 129.905 99.2851 129.283 99.8291 128.749C100.384 128.205 101.095 127.933 101.963 127.933C102.821 127.933 103.522 128.2 104.066 128.734C104.62 129.257 104.898 129.869 104.898 130.57C104.898 131.124 104.715 131.616 104.348 132.045C103.982 132.463 103.37 132.934 102.512 133.457L104.96 136.077C105.442 135.209 105.625 134.257 105.51 133.222H107.016C107.173 134.718 106.849 136.051 106.043 137.223L107.895 139.2H105.933L105.07 138.274C104.139 139.017 103.062 139.388 101.838 139.388ZM99.4996 136.266C99.4891 136.789 99.7245 137.197 100.206 137.49C100.697 137.772 101.252 137.913 101.869 137.913C102.685 137.913 103.407 137.668 104.035 137.176L101.273 134.242C100.687 134.587 100.248 134.911 99.9547 135.214C99.6617 135.518 99.5101 135.868 99.4996 136.266ZM101.963 129.314C101.534 129.314 101.179 129.44 100.896 129.691C100.624 129.942 100.488 130.245 100.488 130.601C100.488 130.925 100.567 131.213 100.724 131.464C100.891 131.715 101.168 132.039 101.555 132.437C102.235 132.039 102.716 131.71 102.999 131.448C103.281 131.187 103.423 130.899 103.423 130.585C103.423 130.24 103.281 129.942 102.999 129.691C102.727 129.44 102.382 129.314 101.963 129.314ZM113.09 128.122H116.934C117.981 128.122 118.817 128.388 119.445 128.922C120.073 129.445 120.387 130.156 120.387 131.056C120.387 131.642 120.24 132.165 119.947 132.625C119.654 133.075 119.309 133.389 118.912 133.567C119.382 133.713 119.801 134.011 120.167 134.461C120.533 134.911 120.716 135.471 120.716 136.14C120.716 137.071 120.381 137.814 119.712 138.369C119.053 138.923 118.185 139.2 117.107 139.2H113.09V128.122ZM116.95 134.273H114.643V137.772H117.138C117.714 137.772 118.179 137.605 118.535 137.27C118.901 136.925 119.084 136.501 119.084 135.999C119.084 135.507 118.88 135.099 118.472 134.775C118.075 134.44 117.567 134.273 116.95 134.273ZM114.643 132.97H116.95C117.536 132.97 117.986 132.803 118.3 132.468C118.613 132.123 118.77 131.694 118.77 131.182C118.77 130.711 118.603 130.319 118.268 130.005C117.933 129.691 117.478 129.534 116.903 129.534H114.643V132.97ZM122.785 131.26H124.276V132.657C124.474 132.165 124.773 131.778 125.17 131.495C125.568 131.213 126.028 131.072 126.551 131.072C126.75 131.072 126.912 131.093 127.037 131.135V132.625C126.954 132.604 126.849 132.594 126.724 132.594C125.991 132.594 125.405 132.84 124.966 133.331C124.527 133.813 124.307 134.456 124.307 135.262V139.2H122.785V131.26ZM127.919 137.097C127.919 135.842 128.777 135.047 130.492 134.712L132.972 134.226V134.069C132.972 133.556 132.809 133.154 132.485 132.861C132.161 132.568 131.706 132.421 131.12 132.421C130.241 132.421 129.504 132.761 128.907 133.441L128.123 132.437C128.907 131.527 129.953 131.072 131.261 131.072C132.255 131.072 133.04 131.349 133.615 131.903C134.201 132.447 134.494 133.19 134.494 134.132V139.2H133.081V137.976C132.517 138.918 131.653 139.388 130.492 139.388C129.75 139.388 129.132 139.174 128.641 138.745C128.159 138.306 127.919 137.757 127.919 137.097ZM129.41 137.003C129.41 137.328 129.535 137.594 129.786 137.804C130.037 138.002 130.356 138.102 130.743 138.102C131.371 138.102 131.91 137.882 132.36 137.443C132.809 136.993 133.034 136.485 133.034 135.921V135.418L130.759 135.858C130.278 135.952 129.933 136.093 129.723 136.281C129.514 136.459 129.41 136.7 129.41 137.003ZM136.944 139.2V131.26H138.435V132.453C138.937 131.532 139.795 131.072 141.009 131.072C141.929 131.072 142.672 131.37 143.237 131.966C143.802 132.552 144.084 133.363 144.084 134.398V139.2H142.562V134.461C142.562 133.834 142.384 133.347 142.029 133.002C141.673 132.646 141.228 132.468 140.695 132.468C140.308 132.468 139.963 132.552 139.659 132.719C139.356 132.887 139.12 133.106 138.953 133.378C138.786 133.65 138.66 133.938 138.576 134.242C138.503 134.545 138.467 134.854 138.467 135.167V139.2H136.944ZM149.738 139.388C148.671 139.388 147.776 138.996 147.055 138.212C146.333 137.427 145.972 136.433 145.972 135.23C145.972 134.027 146.333 133.033 147.055 132.249C147.776 131.464 148.671 131.072 149.738 131.072C150.271 131.072 150.784 131.197 151.276 131.448C151.767 131.689 152.128 131.992 152.358 132.358V128.122H153.881V139.2H152.421V138.023C152.202 138.41 151.835 138.735 151.323 138.996C150.81 139.258 150.282 139.388 149.738 139.388ZM151.731 133.253C151.25 132.73 150.669 132.468 149.989 132.468C149.309 132.468 148.723 132.73 148.231 133.253C147.75 133.766 147.51 134.425 147.51 135.23C147.51 136.036 147.75 136.7 148.231 137.223C148.723 137.736 149.309 137.992 149.989 137.992C150.669 137.992 151.25 137.736 151.731 137.223C152.212 136.7 152.453 136.036 152.453 135.23C152.453 134.425 152.212 133.766 151.731 133.253ZM79.4864 151.26H81.0085V159.2H79.4864V151.26ZM79.5805 149.581C79.3922 149.382 79.2981 149.152 79.2981 148.891C79.2981 148.629 79.3922 148.404 79.5805 148.216C79.7688 148.027 79.9937 147.933 80.2553 147.933C80.5168 147.933 80.7417 148.027 80.93 148.216C81.1183 148.404 81.2125 148.629 81.2125 148.891C81.2125 149.152 81.1183 149.382 80.93 149.581C80.7417 149.769 80.5168 149.863 80.2553 149.863C79.9937 149.863 79.7688 149.769 79.5805 149.581ZM86.7784 159.388C85.7113 159.388 84.8169 158.996 84.095 158.212C83.3732 157.427 83.0123 156.433 83.0123 155.23C83.0123 154.027 83.3732 153.033 84.095 152.249C84.8169 151.464 85.7113 151.072 86.7784 151.072C87.3119 151.072 87.8245 151.197 88.3162 151.448C88.8078 151.689 89.1688 151.992 89.3989 152.358V148.122H90.921V159.2H89.4617V158.023C89.242 158.41 88.8758 158.735 88.3632 158.996C87.8506 159.258 87.3223 159.388 86.7784 159.388ZM88.7712 153.253C88.29 152.73 87.7094 152.468 87.0294 152.468C86.3494 152.468 85.7636 152.73 85.2719 153.253C84.7907 153.766 84.5501 154.425 84.5501 155.23C84.5501 156.036 84.7907 156.7 85.2719 157.223C85.7636 157.736 86.3494 157.992 87.0294 157.992C87.7094 157.992 88.29 157.736 88.7712 157.223C89.2525 156.7 89.4931 156.036 89.4931 155.23C89.4931 154.425 89.2525 153.766 88.7712 153.253ZM94.0882 158.212C93.3036 157.417 92.9113 156.428 92.9113 155.246C92.9113 154.064 93.2827 153.075 94.0255 152.28C94.7787 151.475 95.7464 151.072 96.9285 151.072C98.0374 151.072 98.9266 151.427 99.5961 152.139C100.266 152.84 100.6 153.713 100.6 154.759C100.6 155.052 100.574 155.34 100.522 155.622H94.5119C94.5852 156.355 94.8728 156.935 95.375 157.364C95.8771 157.783 96.4839 157.992 97.1953 157.992C98.074 157.992 98.822 157.657 99.4392 156.988L100.365 158.055C99.4863 158.944 98.4192 159.388 97.1639 159.388C95.9085 159.388 94.8833 158.996 94.0882 158.212ZM96.9442 152.437C96.327 152.437 95.8039 152.61 95.375 152.955C94.9461 153.3 94.6741 153.776 94.559 154.383H99.1097V154.367C99.0574 153.781 98.8272 153.316 98.4192 152.97C98.0217 152.615 97.53 152.437 96.9442 152.437ZM102.58 159.2V151.26H104.071V152.453C104.573 151.532 105.431 151.072 106.644 151.072C107.565 151.072 108.308 151.37 108.872 151.966C109.437 152.552 109.72 153.363 109.72 154.398V159.2H108.198V154.461C108.198 153.834 108.02 153.347 107.664 153.002C107.308 152.646 106.864 152.468 106.33 152.468C105.943 152.468 105.598 152.552 105.295 152.719C104.991 152.887 104.756 153.106 104.589 153.378C104.421 153.65 104.296 153.938 104.212 154.242C104.139 154.545 104.102 154.854 104.102 155.167V159.2H102.58ZM111.234 151.26H112.473V149.079H113.948V151.26H115.988V152.531H113.948V156.674C113.948 157.542 114.377 157.976 115.235 157.976C115.58 157.976 115.894 157.893 116.177 157.725V159.122C115.873 159.3 115.45 159.388 114.906 159.388C114.131 159.388 113.525 159.169 113.085 158.729C112.646 158.28 112.426 157.657 112.426 156.862V152.531H111.234V151.26ZM117.889 151.26H119.411V159.2H117.889V151.26ZM117.983 149.581C117.795 149.382 117.701 149.152 117.701 148.891C117.701 148.629 117.795 148.404 117.983 148.216C118.171 148.027 118.396 147.933 118.658 147.933C118.919 147.933 119.144 148.027 119.332 148.216C119.521 148.404 119.615 148.629 119.615 148.891C119.615 149.152 119.521 149.382 119.332 149.581C119.144 149.769 118.919 149.863 118.658 149.863C118.396 149.863 118.171 149.769 117.983 149.581ZM121.164 151.26H122.403V149.079H123.878V151.26H125.918V152.531H123.878V156.674C123.878 157.542 124.307 157.976 125.165 157.976C125.51 157.976 125.824 157.893 126.107 157.725V159.122C125.803 159.3 125.38 159.388 124.836 159.388C124.061 159.388 123.455 159.169 123.015 158.729C122.576 158.28 122.356 157.657 122.356 156.862V152.531H121.164V151.26ZM129.953 159.09L126.658 151.26H128.368L130.675 157.27L132.919 151.26H134.566L130.879 160.503C130.617 161.172 130.298 161.674 129.922 162.009C129.545 162.354 129.017 162.527 128.337 162.527C127.887 162.527 127.505 162.459 127.191 162.323V160.958C127.474 161.136 127.808 161.224 128.196 161.224C128.541 161.224 128.823 161.125 129.043 160.926C129.263 160.728 129.456 160.408 129.624 159.969L129.953 159.09Z" fill="white"/>
</g>
<defs>
<filter id="filter0_d_664_320" x="0" y="0" width="226" height="226" filterUnits="userSpaceOnUse" color-interpolation-filters="sRGB">
<feFlood flood-opacity="0" result="BackgroundImageFix"/>
<feColorMatrix in="SourceAlpha" type="matrix" values="0 0 0 0 0 0 0 0 0 0 0 0 0 0 0 0 0 0 127 0" result="hardAlpha"/>
<feOffset dx="7" dy="7"/>
<feGaussianBlur stdDeviation="8.5"/>
<feComposite in2="hardAlpha" operator="out"/>
<feColorMatrix type="matrix" values="0 0 0 0 1 0 0 0 0 0.372549 0 0 0 0 0.419608 0 0 0 0.22 0"/>
<feBlend mode="normal" in2="BackgroundImageFix" result="effect1_dropShadow_664_320"/>
<feBlend mode="normal" in="SourceGraphic" in2="effect1_dropShadow_664_320" result="shape"/>
</filter>
</defs>
</svg>
