<svg width="701" height="636" viewBox="0 0 701 636" fill="none" xmlns="http://www.w3.org/2000/svg">
<path d="M78.9543 633.781C56.6534 604.508 43.3616 567.964 43.1624 528.206C42.9179 479.222 62.7198 434.865 94.8539 402.875C117.698 380.131 119.889 343.85 99.6617 318.742C74.9795 288.084 60.0488 249.241 59.5961 206.929C58.5276 106.561 140.796 23.3696 241.164 23.3696C276.766 23.3696 309.968 33.6192 337.991 51.3205C365.164 68.4786 397.542 75.3147 429.45 71.4847C437.037 70.5702 444.779 70.1446 452.638 70.2352C549.085 71.3126 626.89 150.602 626.238 247.058C626.084 269.296 621.801 290.547 614.114 310.086C602.244 340.264 610.963 374.662 635.555 395.795C675.557 430.165 700.919 481.087 701 537.94C701.054 572.908 691.466 605.694 674.76 633.799H78.9543V633.781Z" fill="#4747C7" fill-opacity="0.22"/>
<path d="M315.111 461.801H510.478V633.617H315.111V461.801Z" fill="#474BC0" fill-opacity="0.2"/>
<path d="M237.822 168.629C238.057 146.518 256.718 125.774 279.164 121.546C285.674 120.324 291.143 115.778 293.226 109.486C297.635 96.1393 308.935 85.8354 323.558 82.2227C331.806 80.1855 339.05 75.2509 344.22 68.5053L356.86 52.0082L450.926 48.1782L459.012 65.7981C463.512 73.4853 472.095 77.9128 480.941 76.8897C483.205 76.6271 485.695 76.5637 488.33 76.8263C509.689 78.9903 526.802 95.8224 527.236 117.281C527.254 118.042 527.245 118.793 527.218 119.545C527.037 124.869 531.121 129.251 536.445 129.324C536.626 129.324 536.816 129.324 536.997 129.333C564.875 129.994 587.484 152.802 587.892 180.689C588.281 206.784 569.502 228.56 544.739 232.87C522.157 237.587 393.711 264.46 393.096 265.384C392.507 266.262 296.467 225.916 270.707 215.078C251.422 208.531 237.595 190.178 237.831 168.629H237.822Z" fill="#4747C7"/>
<path d="M589.957 256.429L520.02 149.315C502.518 122.514 472.675 106.361 440.668 106.361H358.164C330.249 106.361 303.802 118.829 286.037 140.361L226.151 212.959L282.053 280.45L320.172 211.021L304.417 349.11L499.032 384.132L487.642 266.506L589.957 256.429Z" fill="#F5F7FA" fill-opacity="0.9" stroke="#4747C7" stroke-width="0.327811" stroke-miterlimit="10"/>
<path d="M323.323 157.347L320.172 211.021" stroke="#4747C7" stroke-width="0.327811" stroke-miterlimit="10"/>
<path d="M481.105 160.941L487.642 266.506" stroke="#4747C7" stroke-width="0.327811" stroke-miterlimit="10"/>
<path d="M510.676 137.255L482.979 191.264" stroke="#4747C7" stroke-width="0.327811" stroke-miterlimit="10"/>
<path d="M321.575 187.081L291.071 134.747" stroke="#4747C7" stroke-width="0.327811" stroke-miterlimit="10"/>
<path d="M121.148 157.945C109.601 157.945 100.241 148.584 100.241 137.038C100.241 125.492 109.601 116.131 121.148 116.131C132.694 116.131 142.054 125.492 142.054 137.038C142.054 148.584 132.694 157.945 121.148 157.945Z" fill="#FF5F6B"/>
<path d="M125.575 144.96C114.029 144.96 104.669 135.6 104.669 124.054C104.669 112.507 114.029 103.147 125.575 103.147C137.122 103.147 146.482 112.507 146.482 124.054C146.482 135.6 137.122 144.96 125.575 144.96Z" fill="#FF5F6B" stroke="#4747C7" stroke-width="0.327811" stroke-miterlimit="10"/>
<path d="M135.2 136.141C123.653 136.141 114.293 126.781 114.293 115.235C114.293 103.688 123.653 94.3281 135.2 94.3281C146.746 94.3281 156.106 103.688 156.106 115.235C156.106 126.781 146.746 136.141 135.2 136.141Z" fill="#FF5F6B" stroke="#4747C7" stroke-width="0.327811" stroke-miterlimit="10"/>
<path d="M120.378 185.569C122.976 186.194 125.584 184.601 126.209 182.011L157.075 54.3895C157.7 51.7909 156.106 49.1832 153.517 48.5584C150.918 47.9337 148.31 49.5273 147.686 52.1168L116.819 179.738C116.194 182.337 117.788 184.945 120.378 185.569Z" fill="#4747C7"/>
<path d="M139.645 41.4418C137.527 50.2064 142.914 59.0254 151.679 61.1441C160.443 63.2629 169.262 57.8755 171.381 49.1109C173.02 42.3382 168.058 21.341 165.722 12.1689C165.242 10.2856 162.852 9.70614 161.566 11.1639C155.3 18.2535 141.284 34.651 139.645 41.4327V41.4418Z" fill="#00C8C8"/>
<path d="M119.545 165.994L125.249 134.158H125.258L127.06 123.701C128.246 116.828 134.629 112.156 141.484 113.034L132.972 86.7315C130.79 79.995 134.494 72.7606 141.23 70.5785C147.967 68.3964 155.201 72.0996 157.383 78.8361L168.556 113.379C170.829 120.405 172.115 127.703 172.386 135.082L173.645 169.163L256.945 218.056C258.656 218.935 260.313 219.903 261.898 220.963L261.934 220.981C275.742 230.171 284.851 245.871 284.851 263.709C284.851 292.031 261.889 314.993 233.567 314.993C213.04 314.993 195.33 302.932 187.136 285.503L133.126 202.582L124.878 190.613C119.925 183.423 118.006 174.577 119.545 165.985V165.994Z" fill="#FF5F6B"/>
<path d="M192.886 260.821L86.6234 382.051C78.3206 391.521 66.1424 396.664 53.5659 396.003L5.40555 393.486C1.31297 393.269 -0.606567 398.457 2.6349 400.965L126.372 496.652L241.191 362.23L192.886 260.821Z" fill="#4747C7"/>
<path d="M126.372 496.651L2.63506 400.965C-0.606415 398.457 1.32217 393.277 5.4057 393.486L53.566 396.003C66.1425 396.664 78.3298 391.521 86.6236 382.05L100.504 366.214L182.184 431.315L126.372 496.651Z" fill="#FF5F6B"/>
<path d="M139.374 627.922L185.805 597.617C194.86 591.713 200.31 581.636 200.31 570.825V407.185C200.31 379.777 222.53 357.558 249.938 357.558C277.345 357.558 299.565 379.777 299.565 407.185V633.617H141.059C137.98 633.617 136.785 629.606 139.365 627.922H139.374Z" fill="#4747C7"/>
<path d="M299.574 526.929V633.617H141.068C137.989 633.617 136.794 629.605 139.374 627.921L185.805 597.616C194.86 591.713 200.31 581.635 200.31 570.824V526.929H299.574Z" fill="#FF5F6B"/>
<path d="M428.435 272.474L460.289 216.762L546.061 226.903C547.998 227.03 549.9 227.256 551.774 227.582H551.819C576.638 231.928 595.498 253.577 595.498 279.636C595.498 308.827 571.839 332.486 542.647 332.486C532.769 332.486 523.524 329.77 515.62 325.053L515.548 325.252L428.444 272.456L428.435 272.474Z" fill="#FF5F6B"/>
<path d="M179.585 296.957C179.585 266.172 204.539 241.218 235.323 241.218C244.224 241.218 252.635 243.309 260.096 247.013L451.633 320.48C479.394 330.793 499.177 357.521 499.177 388.868C499.177 429.151 466.527 461.801 426.244 461.801C411.775 461.801 398.284 457.591 386.948 450.32L209.12 346.167C207.798 345.461 206.494 344.7 205.236 343.895C189.798 333.98 179.576 316.659 179.576 296.957H179.585Z" fill="#4747C7"/>
<path d="M139.374 627.922L185.805 597.617C194.86 591.713 200.31 581.636 200.31 570.825V570.272C210.795 572.138 218.763 581.292 218.763 592.32C218.763 594.801 218.356 597.182 217.613 599.409H299.574V633.626H141.068C137.989 633.626 136.794 629.615 139.374 627.931V627.922Z" fill="#4747C7"/>
<path d="M299.574 608.157V633.618H274.756C276.204 620.444 286.499 609.931 299.574 608.157Z" fill="#F5F7FA" fill-opacity="0.9" stroke="#4747C7" stroke-width="0.327811" stroke-miterlimit="10"/>
<path d="M126.372 496.651L2.63457 400.965C-0.606918 398.457 1.32167 393.277 5.4052 393.486L53.5655 396.003C65.2276 396.609 76.5456 392.236 84.7488 384.042C84.9752 384.205 85.2015 384.359 85.4188 384.531C95.2429 392.055 97.099 406.108 89.5838 415.932C88.0808 417.896 86.3062 419.544 84.3595 420.857L148.899 470.285L126.381 496.651H126.372Z" fill="#4747C7"/>
<path d="M126.372 496.651L108.698 482.988C117.58 473.499 131.696 471.19 143.077 477.094L126.372 496.651Z" fill="#F5F7FA" fill-opacity="0.9" stroke="#4747C7" stroke-width="0.327811" stroke-miterlimit="10"/>
<path d="M139.374 627.922L167.108 609.822C172.921 615.11 176.57 622.734 176.57 631.218C176.57 632.024 176.525 632.829 176.461 633.617H141.068C137.989 633.617 136.794 629.606 139.374 627.922Z" fill="#F5F7FA" fill-opacity="0.9" stroke="#4747C7" stroke-width="0.327811" stroke-miterlimit="10"/>
<path d="M355.874 106.398C356.635 106.379 357.405 106.361 358.174 106.361H440.678C443.702 106.361 446.717 106.506 449.696 106.796C446.726 130.048 426.87 148.021 402.812 148.021C378.755 148.021 358.672 129.839 355.884 106.398H355.874Z" fill="#FF5F6B"/>
<path d="M420.404 82.8379L429.802 125.828L424.578 129.088C409.593 138.441 390.47 137.925 376.01 127.793L373.529 126.054L382.53 82.8379H420.395H420.404Z" fill="#FF5F6B"/>
<path d="M357.539 55.0499C357.096 52.4513 356.86 49.7803 356.86 47.0459C356.86 21.0688 377.921 0.00830078 403.898 0.00830078C429.875 0.00830078 450.935 21.0688 450.935 47.0459C450.935 73.0229 429.875 94.0834 403.898 94.0834C383.408 94.0834 365.987 80.9817 359.531 62.71C359.377 62.2935 357.639 55.72 357.539 55.0499Z" fill="#FF5F6B"/>
<path d="M371.149 62.0498L363.063 70.4161" stroke="#4747C7" stroke-width="0.327811" stroke-miterlimit="10"/>
<path d="M403.898 0.00830078C429.875 0.00830078 450.935 21.0688 450.935 47.0459C450.935 66.6033 439.002 83.3721 422.016 90.4707C418.068 86.8037 415.614 81.6698 415.614 75.9927C415.614 68.6315 419.734 62.1939 425.882 58.6626C424.451 57.1958 423.256 55.5298 422.332 53.7008C418.575 56.9966 413.559 59.0158 408.054 59.0158C396.383 59.0158 386.93 49.9704 386.93 38.8154C386.93 36.1896 387.464 33.6816 388.415 31.3727C387.926 31.4089 387.428 31.427 386.93 31.427C377.703 31.427 369.862 25.768 366.983 17.8907C375.603 6.99829 388.931 0.00830078 403.898 0.00830078Z" fill="#4747C7"/>
<path d="M406.451 64.3669C405.03 62.1939 404.288 59.5228 404.55 56.6707C405.075 51.0841 409.53 46.5388 415.117 45.9322C422.333 45.1445 428.436 50.7672 428.436 57.8206C428.436 62.4746 425.783 66.5128 421.898 68.4867C419.852 69.5279 418.195 71.2573 417.507 73.4485C416.52 76.5813 413.351 78.2564 410.272 78.2564C406.144 78.2564 402.803 74.9153 402.803 70.7865C402.803 68.0611 404.269 65.6798 406.451 64.376V64.3669Z" fill="#FF5F6B"/>
<path d="M404.55 56.6707C405.075 51.0841 409.53 46.5388 415.117 45.9322C422.333 45.1445 428.436 50.7672 428.436 57.8206C428.436 62.4746 425.783 66.5128 421.898 68.4867C419.852 69.5279 418.195 71.2573 417.507 73.4485C416.52 76.5813 413.351 78.2564 410.272 78.2564C406.144 78.2564 402.803 74.9153 402.803 70.7865" stroke="#4747C7" stroke-width="0.327811" stroke-miterlimit="10"/>
<path d="M403.898 0.00906323C429.875 0.00906323 450.935 21.0696 450.935 47.0466C450.935 47.4269 450.935 47.7981 450.917 48.1694L360.183 29.6079C367.11 12.2597 384.069 0 403.889 0L403.898 0.00906323Z" fill="#00C7C7"/>
<path d="M405.7 279.998L410.761 277.807C408.95 272.374 411.087 266.299 416.058 263.229C414.582 259.173 413.776 254.799 413.776 250.236C413.776 229.203 430.826 212.153 451.859 212.153C472.892 212.153 489.942 229.203 489.942 250.236C489.942 267.34 478.669 281.809 463.141 286.626L416.61 305.187C410.272 307.931 402.911 305.024 400.168 298.686L399.199 296.45C396.455 290.112 399.362 282.75 405.7 280.007V279.998Z" fill="#FF5F6B"/>
<path d="M410.761 277.807L405.7 279.998C399.361 282.742 396.455 290.103 399.198 296.441L400.167 298.677C402.911 305.016 410.272 307.922 416.61 305.179L463.141 286.617" stroke="#4747C7" stroke-width="0.327811" stroke-miterlimit="10"/>
<path d="M428.671 256.457L416.728 262.84C410.634 266.1 408.344 273.669 411.594 279.763L412.744 281.918C416.004 288.012 423.573 290.302 429.667 287.052L455.897 274.403" stroke="#4747C7" stroke-width="0.327811" stroke-miterlimit="10"/>
<path d="M449.831 224.883L431.405 246.613C426.996 251.928 427.738 259.815 433.053 264.215L434.936 265.772C440.251 270.182 448.138 269.439 452.538 264.125L471.136 241.688" stroke="#4747C7" stroke-width="0.327811" stroke-miterlimit="10"/>
<path d="M350.75 304.89C333.616 290.69 343.794 250.14 373.481 214.317C403.169 178.494 441.126 160.965 458.259 175.164C475.393 189.364 465.215 229.915 435.528 265.737C405.84 301.56 367.884 319.089 350.75 304.89Z" fill="#C6C6EE"/>
<path d="M433.352 201.587C434.584 202.818 434.403 205.245 433.108 208.215L429.912 200.835C431.406 200.609 432.601 200.835 433.352 201.578V201.587Z" fill="#4747C7"/>
<path d="M413.532 212.154L418.874 224.477C413.885 227.918 409.394 229.221 407.556 227.383C405.247 225.074 407.9 218.573 413.532 212.154Z" fill="#4747C7"/>
<path d="M413.061 186.511C418.005 184.365 423.754 186.638 425.9 191.591L429.911 200.844L433.108 208.224C431.677 211.51 428.897 215.458 425.158 219.197C423.075 221.28 420.93 223.064 418.874 224.485L413.532 212.162L407.982 199.359C405.836 194.416 408.109 188.666 413.061 186.52V186.511Z" fill="#FF5F6B"/>
<path d="M146.581 163.269L152.639 128.102C153.852 121.039 149.117 114.33 142.054 113.108C134.992 111.894 128.282 116.63 127.06 123.692L121.012 158.859" stroke="#4747C7" stroke-width="0.327811" stroke-miterlimit="10"/>
<path d="M126.372 496.652L2.63479 400.965C0.543228 399.344 0.606598 396.61 2.01003 394.935L129.713 492.74L126.372 496.652Z" fill="#F5F7FA" fill-opacity="0.9" stroke="#4747C7" stroke-width="0.327811" stroke-miterlimit="10"/>
<path d="M299.574 633.617H141.068C138.478 633.617 137.238 630.792 138.424 628.891H299.574V633.617Z" fill="#F5F7FA" fill-opacity="0.9" stroke="#4747C7" stroke-width="0.327811" stroke-miterlimit="10"/>
<path d="M257.28 633.78H341.939C345.008 627.523 346.738 620.488 346.738 613.055C346.738 607.903 345.905 602.941 344.374 598.296C342.02 591.17 344.157 583.356 349.925 578.548C358.653 571.287 364.204 560.349 364.204 548.107C364.204 544.295 363.66 540.61 362.655 537.124C361.306 532.461 363.09 527.527 366.965 524.602C373.068 519.993 376.934 512.587 376.635 504.284C376.182 491.644 365.87 481.793 353.257 480.851C343.713 480.136 330.802 486.04 328.258 499.132C327.253 504.32 323.078 508.368 317.881 509.318C298.46 512.868 284.996 529.41 284.996 548.116C284.996 551.385 285.394 554.563 286.137 557.596C287.413 562.794 284.751 568.109 279.889 570.363C261.128 579.073 249.068 599.772 253.568 622.634C254.338 626.546 255.596 630.285 257.289 633.789L257.28 633.78Z" stroke="#F5F7FA" stroke-opacity="0.9" stroke-width="0.648931" stroke-miterlimit="10"/>
<path d="M229.728 585.638C229.728 590.101 231.24 594.203 233.784 597.472C236.265 600.659 237.098 604.869 235.812 608.699C234.889 611.461 234.427 614.44 234.517 617.545C234.708 623.775 237.179 629.452 241.109 633.78H278.73C282.804 629.271 285.294 623.304 285.294 616.749C285.294 607.522 280.369 599.446 272.999 595C269.938 593.153 268.191 589.803 268.299 586.235C268.299 586.036 268.299 585.837 268.299 585.647C268.299 578.503 264.415 572.264 258.629 568.932C255.596 567.185 253.713 563.898 253.812 560.403C253.821 560.059 253.812 559.706 253.803 559.353C253.486 552.526 248.017 546.93 241.2 546.468C233.277 545.925 226.676 552.2 226.676 560.005C226.676 563.201 227.781 566.144 229.637 568.471C231.892 571.296 232.426 575.162 231.086 578.512C230.208 580.721 229.719 583.13 229.719 585.656L229.728 585.638Z" stroke="#F5F7FA" stroke-opacity="0.9" stroke-width="0.648931" stroke-miterlimit="10"/>
<path d="M490.93 39.848C490.93 39.848 470.929 66.2325 450.918 48.178C458.062 27.5431 490.93 39.848 490.93 39.848Z" fill="#00C7C7"/>
<path d="M490.168 59.2612C490.168 59.2612 460.125 73.1778 450.926 47.8526C473.119 34.2167 490.168 59.2612 490.168 59.2612Z" fill="#00C7C7" stroke="#4747C7" stroke-width="0.327811" stroke-miterlimit="10"/>
<path d="M657.403 633.781H580.187L542.702 471.345H694.888L657.403 633.781Z" fill="#4747C7"/>
<path d="M581.128 412.056L597.263 471.344" stroke="#4747C7" stroke-width="0.582031" stroke-miterlimit="10"/>
<path d="M644.845 356.49L621.05 471.345" stroke="#4747C7" stroke-width="0.582031" stroke-miterlimit="10"/>
<path d="M635.41 424.579L627.207 471.345" stroke="#4747C7" stroke-width="0.294361" stroke-miterlimit="10"/>
<path d="M590 344.479L605 471.479" stroke="#4747C7" stroke-width="0.582031" stroke-miterlimit="10"/>
<path d="M601.673 403.02C599.283 399.652 594.901 398.103 589.486 398.221C589.151 392.816 587.241 388.578 583.682 386.477C575.126 381.425 560.331 390.652 550.625 407.085C543.263 419.553 540.954 432.592 544.015 440.36C544.323 441.311 544.757 442.207 545.337 443.022C545.762 443.629 546.26 444.172 546.813 444.652C547.347 445.159 547.926 445.603 548.56 445.983C549.42 446.49 550.344 446.852 551.322 447.079C559.317 449.469 572.111 446.073 583.918 437.689C599.473 426.643 607.423 411.124 601.673 403.02Z" fill="#00C7C7"/>
<path d="M624.707 409.902C621.91 412.093 620.742 415.923 621.059 420.577C616.414 421.075 612.846 422.895 611.18 426.037C607.169 433.597 615.698 445.974 630.222 453.68C641.25 459.52 652.559 460.996 659.123 458.062C659.929 457.763 660.681 457.347 661.36 456.822C661.858 456.432 662.31 455.979 662.709 455.49C663.125 455.011 663.487 454.495 663.786 453.933C664.194 453.173 664.456 452.358 664.619 451.516C666.358 444.535 662.935 433.66 655.248 423.827C645.125 410.87 631.444 404.641 624.698 409.92L624.707 409.902Z" fill="#00C7C7"/>
<path d="M603.466 356.516C602.089 350.405 596.874 345.669 589.214 342.663C591.921 334.894 591.713 327.85 587.974 322.834C578.955 310.755 552.834 314.993 529.636 332.314C512.025 345.452 501.16 362.347 500.889 375.014C500.762 376.526 500.843 378.03 501.178 379.514C501.423 380.61 501.794 381.66 502.283 382.665C502.727 383.689 503.288 384.648 503.958 385.554C504.863 386.767 505.95 387.808 507.19 388.705C516.987 396.736 536.88 399.479 558.321 394.662C586.57 388.315 606.789 371.239 603.484 356.534L603.466 356.516Z" fill="#00C7C7"/>
<path d="M632.503 335.602C629.262 339.232 628.619 344.674 630.176 350.867C624.046 352.66 619.682 355.974 618.197 360.61C614.63 371.765 629.108 386.369 650.54 393.233C666.801 398.439 682.393 397.678 690.524 392.137C691.538 391.531 692.452 390.806 693.24 389.919C693.82 389.267 694.318 388.561 694.734 387.8C695.178 387.058 695.54 386.27 695.802 385.437C696.165 384.314 696.328 383.155 696.337 381.978C696.989 372.154 689.745 358.337 677.015 346.956C660.246 331.953 640.317 326.873 632.503 335.611V335.602Z" fill="#00C7C7"/>
<path d="M589.214 342.663L501.169 379.505" stroke="#F5F7FA" stroke-opacity="0.9" stroke-width="0.582031" stroke-miterlimit="10"/>
<path d="M630.177 350.867L694.725 387.79" stroke="#F5F7FA" stroke-opacity="0.9" stroke-width="0.582031" stroke-miterlimit="10"/>
<path d="M589.486 398.221L546.803 444.661" stroke="#F5F7FA" stroke-opacity="0.9" stroke-width="0.582031" stroke-miterlimit="10"/>
<path d="M621.059 420.585L662.718 455.49" stroke="#F5F7FA" stroke-opacity="0.9" stroke-width="0.582031" stroke-miterlimit="10"/>
<path d="M603.213 633.781H483.323C478.968 624.926 476.524 614.966 476.524 604.426C476.524 597.12 477.701 590.102 479.874 583.529C483.215 573.433 480.191 562.369 472.015 555.569C459.655 545.283 451.796 529.791 451.796 512.461C451.796 507.065 452.566 501.84 453.987 496.906C455.898 490.305 453.372 483.315 447.885 479.168C439.247 472.64 433.769 462.146 434.194 450.393C434.837 432.493 449.442 418.54 467.297 417.2C480.815 416.186 499.105 424.552 502.7 443.086C504.13 450.438 510.034 456.17 517.404 457.519C544.902 462.544 563.971 485.977 563.971 512.47C563.971 517.097 563.41 521.597 562.35 525.898C560.539 533.259 564.315 540.783 571.196 543.979C597.762 556.311 614.848 585.63 608.473 617.999C607.378 623.54 605.594 628.837 603.213 633.799V633.781Z" stroke="#F5F7FA" stroke-opacity="0.9" stroke-width="0.648931" stroke-miterlimit="10"/>
<path d="M642.237 565.609C642.237 571.929 640.091 577.742 636.487 582.369C632.974 586.878 631.797 592.845 633.608 598.268C634.921 602.189 635.573 606.399 635.446 610.791C635.174 619.61 631.679 627.659 626.111 633.789H572.826C567.049 627.405 563.527 618.958 563.527 609.677C563.527 596.602 570.508 585.167 580.939 578.874C585.267 576.266 587.757 571.504 587.603 566.451C587.603 566.171 587.594 565.89 587.594 565.609C587.594 555.486 593.099 546.649 601.284 541.932C605.576 539.451 608.247 534.806 608.102 529.853C608.084 529.364 608.093 528.866 608.111 528.368C608.563 518.707 616.314 510.776 625.957 510.115C637.184 509.345 646.529 518.228 646.529 529.292C646.529 533.828 644.962 537.993 642.336 541.28C639.14 545.273 638.389 550.751 640.29 555.505C641.54 558.628 642.228 562.042 642.228 565.618L642.237 565.609Z" stroke="#F5F7FA" stroke-opacity="0.9" stroke-width="0.648931" stroke-miterlimit="10"/>
<path d="M699.886 633.617H29.3628" stroke="#4747C7" stroke-width="0.648931" stroke-miterlimit="10"/>
</svg>
