<svg width="697" height="1477" viewBox="0 0 697 1477" fill="none" xmlns="http://www.w3.org/2000/svg">
<g filter="url(#filter0_d_79_4165)">
<path d="M64.0811 1168.78C64.0813 1156.08 67.8475 1143.67 74.9035 1133.11C81.9595 1122.55 91.9883 1114.32 103.722 1109.46C115.455 1104.6 128.367 1103.33 140.823 1105.8C153.279 1108.28 164.721 1114.4 173.701 1123.38C182.682 1132.36 188.797 1143.8 191.275 1156.26C193.753 1168.71 192.481 1181.62 187.621 1193.36C182.761 1205.09 174.531 1215.12 163.971 1222.18C153.411 1229.23 140.996 1233 128.296 1233C111.265 1233 94.9318 1226.23 82.8892 1214.19C70.8465 1202.15 64.0811 1185.81 64.0811 1168.78Z" fill="white"/>
</g>
<path d="M140.437 1166.25C140.439 1168.83 139.421 1171.29 137.606 1173.11C135.79 1174.93 133.326 1175.96 130.755 1175.96H130.737C129.211 1175.97 127.706 1175.61 126.344 1174.92C124.983 1174.23 123.803 1173.23 122.901 1172C121.999 1170.77 121.4 1169.34 121.153 1167.83C120.906 1166.33 121.018 1164.78 121.479 1163.33C121.941 1161.88 122.739 1160.55 123.809 1159.46C124.88 1158.37 126.192 1157.55 127.638 1157.07C129.085 1156.58 130.626 1156.45 132.136 1156.67C133.646 1156.89 135.082 1157.46 136.328 1158.35" stroke="#9E9EA3" stroke-width="3" stroke-miterlimit="10"/>
<path d="M150.823 1161.58C149.645 1163.48 149.158 1165.72 149.443 1167.94C149.785 1170.31 150.975 1172.47 152.793 1174.02C154.611 1175.58 156.933 1176.42 159.325 1176.39C161.19 1176.4 163.015 1175.85 164.563 1174.82C166.112 1173.78 167.312 1172.3 168.007 1170.57C168.637 1169.08 168.89 1167.47 168.744 1165.87C168.598 1164.26 168.057 1162.72 167.17 1161.38C166.282 1160.04 165.076 1158.93 163.659 1158.17C162.242 1157.41 160.658 1157 159.048 1157H145.838C145.129 1157 144.427 1157.14 143.772 1157.41C143.116 1157.68 142.521 1158.08 142.02 1158.58C141.518 1159.09 141.121 1159.68 140.849 1160.34C140.578 1160.99 140.438 1161.69 140.438 1162.4V1180.2C140.363 1182.72 139.31 1185.12 137.501 1186.87C135.693 1188.63 133.271 1189.61 130.749 1189.61C128.228 1189.62 125.805 1188.64 123.994 1186.88C122.183 1185.13 121.126 1182.74 121.047 1180.22" stroke="#9E9EA3" stroke-width="3" stroke-miterlimit="10"/>
<path d="M101.645 1171.17C100.438 1168.96 100.14 1166.36 100.814 1163.93C101.487 1161.51 103.079 1159.43 105.253 1158.16C107.427 1156.88 110.012 1156.51 112.461 1157.1C114.909 1157.7 117.029 1159.23 118.371 1161.36L118.377 1161.37C119.248 1162.86 119.705 1164.56 119.7 1166.29C119.695 1168.02 119.229 1169.71 118.349 1171.2C117.47 1172.69 116.209 1173.91 114.697 1174.75C113.186 1175.59 111.478 1176 109.751 1175.96H96.868C94.4713 1175.96 92.174 1175 90.4803 1173.31C88.7865 1171.61 87.8348 1169.31 87.834 1166.92V1146.48" stroke="#9E9EA3" stroke-width="3" stroke-miterlimit="10"/>
<g filter="url(#filter1_d_79_4165)">
<path d="M509.777 415.7C509.777 400.135 514.393 384.919 523.04 371.977C531.688 359.035 543.979 348.947 558.36 342.991C572.74 337.034 588.564 335.476 603.831 338.512C619.097 341.549 633.12 349.044 644.126 360.051C655.133 371.057 662.628 385.08 665.665 400.346C668.702 415.613 667.143 431.437 661.186 445.817C655.23 460.198 645.143 472.489 632.2 481.137C619.258 489.784 604.042 494.4 588.477 494.4C567.605 494.4 547.587 486.108 532.828 471.349C518.069 456.59 509.777 436.573 509.777 415.7Z" fill="white"/>
</g>
<path d="M610.476 418.133V435.656L629.299 426.238V402.376C629.299 402.37 606.713 411.548 606.713 411.548L584.124 402.371L606.718 393.771L621.19 399.117" stroke="#9E9EA3" stroke-width="2.441" stroke-linecap="round" stroke-linejoin="round"/>
<path d="M566.616 421.546V439.273C566.616 439.627 566.475 439.967 566.225 440.218C565.974 440.469 565.635 440.61 565.28 440.61H549.424C549.249 440.61 549.075 440.575 548.913 440.508C548.75 440.441 548.603 440.343 548.479 440.218C548.355 440.094 548.257 439.947 548.19 439.785C548.122 439.622 548.088 439.449 548.088 439.273V415.994C548.088 415.819 548.122 415.645 548.19 415.483C548.257 415.32 548.355 415.173 548.479 415.049C548.603 414.925 548.751 414.827 548.913 414.759C549.075 414.692 549.249 414.658 549.424 414.658H574.55C574.446 412.359 573.865 410.106 572.842 408.044C571.819 405.982 570.379 404.155 568.611 402.681C567.438 401.661 566.499 400.401 565.855 398.986C565.212 397.572 564.881 396.035 564.883 394.481V394.033C564.87 392.497 565.174 390.976 565.778 389.564C566.382 388.151 567.271 386.88 568.39 385.828C568.616 385.655 568.803 385.437 568.941 385.189C569.079 384.94 569.163 384.665 569.19 384.382C569.166 383.545 568.814 382.75 568.211 382.169C567.607 381.588 566.8 381.267 565.962 381.275H548.623C548.206 381.277 547.793 381.363 547.409 381.528C547.025 381.692 546.678 381.932 546.389 382.233C546.099 382.534 545.873 382.889 545.723 383.279C545.573 383.669 545.503 384.085 545.516 384.502C545.545 384.77 545.629 385.029 545.764 385.263C545.898 385.497 546.08 385.7 546.297 385.859C547.415 386.871 548.307 388.109 548.915 389.49C549.522 390.871 549.83 392.364 549.82 393.873V394.484C549.823 396.038 549.492 397.575 548.849 398.99C548.205 400.405 547.265 401.665 546.091 402.684C544.222 404.299 542.722 406.297 541.696 408.544C540.669 410.791 540.139 413.233 540.142 415.703V441.528C540.145 443.808 541.052 445.994 542.664 447.606C544.276 449.218 546.462 450.125 548.742 450.128H565.959C568.242 450.128 570.431 449.221 572.045 447.607C573.659 445.993 574.566 443.804 574.566 441.521L574.939 430.041L604.186 444.7C604.968 445.095 605.832 445.3 606.708 445.3C607.584 445.3 608.448 445.095 609.23 444.7L633.702 432.46C634.64 431.993 635.43 431.273 635.981 430.382C636.533 429.491 636.825 428.463 636.824 427.415V400.935C636.824 399.787 636.474 398.666 635.82 397.722C635.167 396.778 634.241 396.055 633.166 395.651L608.688 386.473C607.415 385.982 606.005 385.978 604.728 386.46L577.028 396.947" stroke="#9E9EA3" stroke-width="2.441" stroke-linejoin="round"/>
<g filter="url(#filter2_d_79_4165)">
<path d="M192.101 940.213C192.101 928.106 195.691 916.271 202.417 906.205C209.143 896.138 218.704 888.293 229.889 883.66C241.074 879.027 253.382 877.814 265.256 880.176C277.13 882.538 288.037 888.368 296.598 896.929C305.159 905.49 310.989 916.397 313.351 928.271C315.713 940.145 314.501 952.453 309.868 963.638C305.234 974.823 297.389 984.384 287.322 991.11C277.256 997.836 265.421 1001.43 253.314 1001.43C237.079 1001.43 221.51 994.977 210.03 983.497C198.55 972.017 192.101 956.448 192.101 940.213Z" fill="white"/>
</g>
<path d="M270.425 942.104V955.733L285.065 948.408V929.849L267.499 936.982L249.926 929.844L267.499 923.152L278.755 927.312" stroke="#9E9EA3" stroke-width="2.441" stroke-linecap="round" stroke-linejoin="round"/>
<path d="M236.308 944.758V958.545C236.309 958.682 236.283 958.818 236.231 958.945C236.179 959.071 236.102 959.187 236.006 959.284C235.909 959.381 235.794 959.458 235.668 959.51C235.542 959.563 235.406 959.59 235.269 959.59H222.937C222.8 959.59 222.665 959.563 222.539 959.511C222.413 959.459 222.298 959.382 222.202 959.285C222.105 959.189 222.029 959.074 221.977 958.948C221.925 958.822 221.898 958.687 221.898 958.55V940.44C221.898 940.304 221.925 940.168 221.977 940.042C222.029 939.916 222.106 939.802 222.202 939.705C222.299 939.609 222.413 939.532 222.539 939.48C222.665 939.428 222.801 939.401 222.937 939.401H242.48C242.398 937.613 241.946 935.862 241.15 934.259C240.355 932.656 239.234 931.236 237.86 930.09C236.948 929.297 236.217 928.318 235.717 927.218C235.217 926.118 234.958 924.923 234.96 923.715V923.366C234.949 922.171 235.185 920.987 235.655 919.888C236.124 918.788 236.816 917.798 237.687 916.98C237.862 916.845 238.008 916.676 238.114 916.482C238.221 916.289 238.287 916.075 238.307 915.855C238.288 915.204 238.014 914.586 237.545 914.135C237.076 913.683 236.448 913.433 235.797 913.439H222.319C221.994 913.441 221.673 913.508 221.375 913.636C221.076 913.764 220.806 913.95 220.581 914.184C220.356 914.418 220.18 914.695 220.064 914.998C219.947 915.301 219.892 915.624 219.903 915.949C219.925 916.158 219.991 916.359 220.095 916.541C220.2 916.723 220.341 916.881 220.51 917.005C221.38 917.793 222.074 918.755 222.546 919.829C223.018 920.903 223.258 922.065 223.25 923.238V923.713C223.252 924.922 222.995 926.117 222.494 927.217C221.994 928.317 221.263 929.297 220.35 930.089C218.895 931.344 217.729 932.898 216.929 934.646C216.13 936.393 215.717 938.292 215.719 940.213V960.297C215.721 962.071 216.426 963.772 217.68 965.027C218.934 966.281 220.635 966.987 222.409 966.99H235.798C237.573 966.989 239.275 966.283 240.531 965.028C241.786 963.772 242.492 962.07 242.493 960.295L242.783 951.366L265.529 962.77C266.137 963.077 266.809 963.237 267.49 963.237C268.172 963.237 268.844 963.077 269.452 962.77L288.486 953.251C289.216 952.888 289.83 952.328 290.258 951.635C290.687 950.941 290.914 950.142 290.914 949.327V928.727C290.914 927.834 290.642 926.962 290.133 926.228C289.625 925.493 288.905 924.932 288.069 924.617L269.031 917.479C268.04 917.097 266.944 917.094 265.951 917.469L244.405 925.626" stroke="#9E9EA3" stroke-width="2.441" stroke-linejoin="round"/>
<g filter="url(#filter3_d_79_4165)">
<path d="M37.2939 656.991C37.2941 637.63 43.0357 618.703 53.7925 602.605C64.5493 586.506 79.8382 573.959 97.726 566.55C115.614 559.14 135.297 557.202 154.286 560.979C173.276 564.757 190.719 574.08 204.409 587.771C218.1 601.461 227.424 618.904 231.201 637.894C234.978 656.883 233.04 676.566 225.63 694.454C218.221 712.342 205.674 727.631 189.576 738.388C173.477 749.144 154.55 754.886 135.189 754.886C109.226 754.886 84.3256 744.572 65.9667 726.213C47.6079 707.855 37.2939 682.955 37.2939 656.991Z" fill="white"/>
</g>
<path d="M113.691 618.848H163.929C164.251 618.819 164.576 618.857 164.883 618.961C165.189 619.064 165.471 619.23 165.71 619.448C165.949 619.667 166.14 619.932 166.27 620.228C166.401 620.524 166.468 620.844 166.468 621.168C166.468 621.491 166.401 621.811 166.27 622.108C166.14 622.404 165.949 622.669 165.71 622.887C165.471 623.106 165.189 623.272 164.883 623.375C164.576 623.478 164.251 623.517 163.929 623.487H113.691C113.369 623.517 113.044 623.478 112.737 623.375C112.431 623.272 112.149 623.106 111.91 622.887C111.671 622.669 111.48 622.404 111.35 622.108C111.219 621.811 111.152 621.491 111.152 621.168C111.152 620.844 111.219 620.524 111.35 620.228C111.48 619.932 111.671 619.667 111.91 619.448C112.149 619.23 112.431 619.064 112.737 618.961C113.044 618.857 113.369 618.819 113.691 618.848Z" fill="#9E9EA3"/>
<path d="M181.326 621.286V613.906C181.326 612.9 181.128 611.903 180.743 610.973C180.357 610.043 179.793 609.198 179.081 608.487C178.369 607.775 177.524 607.21 176.594 606.825C175.664 606.44 174.668 606.242 173.661 606.242H96.715C94.6823 606.242 92.7329 607.05 91.2954 608.487C89.858 609.924 89.0503 611.873 89.05 613.906V700.079C89.0506 702.112 89.8583 704.061 91.2957 705.498C92.7331 706.935 94.6824 707.743 96.715 707.743H173.66C175.693 707.743 177.642 706.936 179.08 705.499C180.517 704.061 181.325 702.112 181.325 700.079V634.022H104.467C104.035 633.986 103.607 634.121 103.273 634.398C102.94 634.674 102.729 635.071 102.685 635.502V687.114C102.729 687.545 102.94 687.942 103.274 688.218C103.607 688.495 104.035 688.629 104.467 688.593H165.338C165.77 688.629 166.198 688.495 166.532 688.218C166.865 687.942 167.076 687.545 167.12 687.114V644.252" stroke="#9E9EA3" stroke-width="2.705" stroke-linejoin="round"/>
<path d="M97.7349 614.276C97.7355 613.866 97.8575 613.466 98.0855 613.126C98.3136 612.785 98.6374 612.52 99.016 612.364C99.3947 612.208 99.8112 612.167 100.213 612.247C100.615 612.327 100.984 612.525 101.273 612.815C101.563 613.105 101.76 613.474 101.839 613.876C101.919 614.278 101.878 614.694 101.721 615.073C101.564 615.451 101.298 615.775 100.958 616.002C100.617 616.23 100.217 616.351 99.8069 616.351C99.5345 616.351 99.2647 616.298 99.0131 616.193C98.7615 616.089 98.5329 615.936 98.3404 615.743C98.1479 615.551 97.9954 615.322 97.8915 615.07C97.7876 614.818 97.7343 614.548 97.7349 614.276Z" fill="#9E9EA3"/>
<path d="M102.963 614.276C102.963 613.866 103.086 613.466 103.314 613.126C103.542 612.785 103.865 612.52 104.244 612.364C104.623 612.208 105.039 612.167 105.441 612.247C105.843 612.327 106.212 612.525 106.501 612.815C106.791 613.105 106.988 613.474 107.067 613.876C107.147 614.278 107.106 614.694 106.949 615.073C106.792 615.451 106.526 615.775 106.186 616.002C105.845 616.23 105.445 616.351 105.035 616.351C104.763 616.351 104.493 616.298 104.241 616.193C103.989 616.089 103.761 615.936 103.568 615.743C103.376 615.551 103.223 615.322 103.119 615.07C103.016 614.818 102.962 614.548 102.963 614.276Z" fill="#9E9EA3"/>
<path d="M108.187 614.276C108.188 613.866 108.31 613.466 108.537 613.126C108.765 612.786 109.089 612.521 109.467 612.364C109.846 612.208 110.262 612.167 110.664 612.247C111.066 612.327 111.435 612.524 111.724 612.814C112.014 613.103 112.211 613.472 112.291 613.874C112.371 614.276 112.33 614.692 112.174 615.071C112.017 615.449 111.752 615.773 111.412 616.001C111.072 616.228 110.672 616.35 110.262 616.351C109.989 616.352 109.719 616.298 109.467 616.194C109.215 616.09 108.986 615.937 108.794 615.744C108.601 615.552 108.448 615.323 108.344 615.071C108.24 614.819 108.186 614.549 108.187 614.276Z" fill="#9E9EA3"/>
<g filter="url(#filter4_d_79_4165)">
<path d="M366.641 1147.97C366.641 1131.15 371.628 1114.71 380.972 1100.73C390.315 1086.75 403.594 1075.85 419.131 1069.41C434.668 1062.98 451.765 1061.29 468.259 1064.57C484.753 1067.85 499.903 1075.95 511.795 1087.84C523.686 1099.74 531.784 1114.89 535.065 1131.38C538.346 1147.87 536.662 1164.97 530.227 1180.51C523.791 1196.04 512.893 1209.32 498.91 1218.67C484.928 1228.01 468.488 1233 451.671 1233C429.12 1233 407.492 1224.04 391.546 1208.09C375.6 1192.15 366.641 1170.52 366.641 1147.97Z" fill="white"/>
</g>
<path d="M442.296 1138.33L460.758 1120.7M442.513 1128.83L423.873 1112.39C422.607 1111.5 421.064 1111.07 419.517 1111.2C417.97 1111.33 416.517 1111.99 415.413 1113.09C414.31 1114.18 413.627 1115.62 413.484 1117.17C413.342 1118.72 413.748 1120.26 414.633 1121.54L434.39 1144.85C434.39 1144.85 434.569 1145.07 434.865 1145.42C431.3 1148.82 421.665 1157.98 421.665 1157.98C420.076 1159.5 418.89 1161.4 418.216 1163.49C418.216 1163.49 412.416 1183.96 413.322 1184.78C414.222 1185.86 434.946 1181.04 434.946 1181.04C437.072 1180.47 439.021 1179.38 440.61 1177.86L453.446 1165.62C453.446 1165.79 453.446 1165.97 453.453 1166.12C453.681 1173.88 459.207 1178.26 467.994 1179.74C476.781 1181.22 488.394 1179.41 489.326 1176.91C490.079 1174.9 487.838 1173.83 485.249 1172C484.178 1171.23 483.301 1170.23 482.686 1169.06C482.072 1167.9 481.737 1166.61 481.709 1165.29C481.576 1161.72 480.1 1158.34 477.577 1155.81C475.053 1153.29 471.668 1151.81 468.101 1151.68L476.288 1143.88L487.142 1133.53C488.053 1132.66 488.783 1131.63 489.293 1130.48C489.802 1129.33 490.08 1128.09 490.11 1126.83C490.14 1125.58 489.923 1124.33 489.47 1123.16C489.017 1121.98 488.337 1120.91 487.469 1120L481.731 1113.97C480.864 1113.06 479.826 1112.33 478.677 1111.82C477.528 1111.31 476.289 1111.03 475.032 1111C473.776 1110.97 472.525 1111.19 471.353 1111.64C470.18 1112.1 469.108 1112.78 468.198 1113.64L460.798 1120.7L473.435 1133.96" stroke="#9E9EA3" stroke-width="3" stroke-linejoin="round"/>
<g filter="url(#filter5_d_79_4165)">
<path d="M323.898 644.209C323.898 631.925 327.541 619.916 334.366 609.702C341.191 599.488 350.892 591.527 362.241 586.826C373.591 582.125 386.079 580.895 398.128 583.292C410.176 585.688 421.243 591.604 429.93 600.29C438.616 608.977 444.532 620.044 446.928 632.092C449.325 644.141 448.095 656.63 443.394 667.979C438.693 679.328 430.732 689.029 420.518 695.854C410.304 702.679 398.295 706.322 386.011 706.322C369.538 706.322 353.739 699.778 342.09 688.13C330.442 676.481 323.898 660.683 323.898 644.209Z" fill="white"/>
</g>
<path d="M379.163 637.169L392.648 624.288M379.32 630.227L365.705 618.227C364.779 617.575 363.654 617.27 362.526 617.364C361.398 617.458 360.338 617.946 359.534 618.743C358.729 619.539 358.23 620.593 358.124 621.72C358.019 622.847 358.313 623.976 358.955 624.908L373.387 641.931C373.387 641.931 373.518 642.093 373.734 642.347C371.134 644.828 364.095 651.524 364.095 651.524C362.934 652.634 362.067 654.017 361.575 655.546C361.575 655.546 357.337 670.502 358 671.095C358.655 671.889 373.8 668.367 373.8 668.367C375.351 667.952 376.773 667.152 377.933 666.042L387.31 657.105C387.31 657.227 387.31 657.358 387.315 657.469C387.481 663.135 391.515 666.335 397.937 667.418C404.359 668.501 412.837 667.175 413.519 665.351C414.069 663.884 412.432 663.1 410.541 661.764C409.759 661.204 409.119 660.469 408.67 659.619C408.221 658.768 407.976 657.825 407.955 656.864C407.858 654.258 406.779 651.785 404.935 649.941C403.091 648.097 400.618 647.018 398.012 646.921L403.992 641.226L411.921 633.667C412.586 633.035 413.12 632.277 413.492 631.438C413.864 630.599 414.067 629.695 414.089 628.778C414.111 627.86 413.952 626.947 413.621 626.091C413.29 625.235 412.794 624.453 412.16 623.789L407.968 619.382C407.335 618.717 406.576 618.183 405.737 617.811C404.897 617.439 403.992 617.236 403.074 617.214C402.156 617.192 401.243 617.351 400.386 617.682C399.53 618.013 398.747 618.509 398.082 619.143L392.673 624.294L401.904 633.98" stroke="#9E9EA3" stroke-width="3" stroke-linejoin="round"/>
<g filter="url(#filter6_d_79_4165)">
<path d="M224.499 344.845C224.499 327.471 229.651 310.487 239.304 296.041C248.956 281.595 262.676 270.336 278.727 263.687C294.779 257.038 312.441 255.298 329.482 258.688C346.522 262.077 362.174 270.444 374.46 282.729C386.745 295.015 395.112 310.667 398.501 327.707C401.891 344.748 400.151 362.41 393.502 378.462C386.853 394.513 375.594 408.233 361.148 417.885C346.702 427.538 329.718 432.69 312.344 432.69C289.046 432.69 266.702 423.435 250.228 406.961C233.754 390.487 224.499 368.143 224.499 344.845Z" fill="white"/>
</g>
<path d="M315.861 333.538H294.036V357.277H315.861V333.538Z" stroke="#9E9EA3" stroke-width="2.654" stroke-linecap="round" stroke-linejoin="round"/>
<path d="M323.634 337.083L326.309 332.045L331.661 342.121H320.961L323.634 337.083Z" stroke="#9E9EA3" stroke-width="2.654" stroke-linecap="round" stroke-linejoin="round"/>
<path d="M326.313 357.043C325.432 357.035 324.573 356.767 323.844 356.273C323.116 355.778 322.55 355.078 322.218 354.262C321.886 353.446 321.803 352.55 321.979 351.687C322.156 350.824 322.584 350.033 323.21 349.412C323.835 348.792 324.63 348.371 325.495 348.202C326.359 348.033 327.255 348.124 328.068 348.463C328.881 348.802 329.575 349.374 330.064 350.107C330.552 350.84 330.813 351.701 330.813 352.582C330.807 353.77 330.33 354.908 329.486 355.744C328.643 356.581 327.501 357.048 326.313 357.043Z" stroke="#9E9EA3" stroke-width="2.654" stroke-linecap="round" stroke-linejoin="round"/>
<path d="M332.272 301.246C328.834 306.004 321.225 309.322 312.345 309.322C303.465 309.322 295.857 306.004 292.419 301.246L259.114 317.761C258.465 318.087 257.971 318.657 257.739 319.345C257.508 320.034 257.559 320.786 257.88 321.438L267.664 341.021C267.99 341.67 268.56 342.164 269.249 342.395C269.937 342.626 270.689 342.576 271.341 342.255L281.025 337.516C281.443 337.314 281.905 337.222 282.369 337.247C282.832 337.273 283.281 337.415 283.675 337.662C284.068 337.908 284.393 338.25 284.618 338.656C284.843 339.062 284.962 339.518 284.963 339.982V383.363C284.962 384.081 285.102 384.793 285.376 385.457C285.65 386.121 286.053 386.724 286.56 387.232C287.068 387.74 287.67 388.144 288.334 388.419C288.997 388.694 289.709 388.835 290.427 388.835H334.225C335.675 388.835 337.067 388.26 338.094 387.236C339.121 386.211 339.7 384.822 339.704 383.371V339.959C339.704 339.234 339.992 338.538 340.505 338.025C341.018 337.513 341.714 337.224 342.439 337.224C342.855 337.225 343.265 337.32 343.639 337.501L353.318 342.239C353.965 342.565 354.715 342.62 355.404 342.393C356.092 342.166 356.662 341.675 356.988 341.028L356.996 341.006L366.803 321.437C367.13 320.79 367.187 320.04 366.962 319.351C366.737 318.662 366.248 318.09 365.603 317.76H365.589L341.189 305.66L340.189 306.877C335.37 313.524 324.725 318.165 312.313 318.165C303.438 318.165 295.48 315.798 289.904 312.024" stroke="#9E9EA3" stroke-width="2.654" stroke-miterlimit="10"/>
<g filter="url(#filter7_d_79_4165)">
<path d="M479.295 841.708C479.295 829.402 482.944 817.372 489.781 807.139C496.618 796.907 506.336 788.932 517.706 784.222C529.075 779.513 541.586 778.281 553.656 780.681C565.726 783.082 576.813 789.008 585.515 797.71C594.216 806.412 600.142 817.499 602.543 829.569C604.944 841.639 603.712 854.15 599.003 865.519C594.293 876.889 586.318 886.607 576.086 893.444C565.853 900.281 553.823 903.93 541.517 903.93C525.015 903.93 509.188 897.374 497.519 885.705C485.85 874.037 479.295 858.21 479.295 841.708Z" fill="white"/>
</g>
<path d="M544.008 833.699H528.549V850.514H544.008V833.699Z" stroke="#9E9EA3" stroke-width="2.654" stroke-linecap="round" stroke-linejoin="round"/>
<path d="M549.514 836.209L551.404 832.64L555.204 839.78H547.619L549.514 836.209Z" stroke="#9E9EA3" stroke-width="2.654" stroke-linecap="round" stroke-linejoin="round"/>
<path d="M551.409 850.348C550.785 850.343 550.177 850.153 549.661 849.802C549.145 849.452 548.744 848.956 548.509 848.378C548.275 847.8 548.216 847.166 548.341 846.555C548.466 845.944 548.769 845.383 549.212 844.944C549.655 844.505 550.218 844.207 550.831 844.087C551.443 843.967 552.077 844.032 552.653 844.272C553.228 844.511 553.72 844.916 554.066 845.436C554.412 845.955 554.597 846.564 554.597 847.188C554.595 847.605 554.511 848.017 554.35 848.402C554.189 848.786 553.953 849.135 553.657 849.428C553.361 849.722 553.01 849.954 552.625 850.112C552.239 850.27 551.826 850.35 551.409 850.348Z" stroke="#9E9EA3" stroke-width="2.654" stroke-linecap="round" stroke-linejoin="round"/>
<path d="M555.633 810.826C553.198 814.193 547.808 816.543 541.518 816.543C535.228 816.543 529.839 814.197 527.404 810.826L503.813 822.526C503.354 822.757 503.005 823.16 502.841 823.647C502.678 824.133 502.713 824.665 502.939 825.126L509.867 839C510.098 839.459 510.501 839.808 510.987 839.971C511.474 840.135 512.006 840.1 512.467 839.874L519.324 836.518C519.62 836.375 519.947 836.309 520.276 836.327C520.604 836.345 520.923 836.446 521.202 836.621C521.48 836.795 521.71 837.038 521.87 837.325C522.029 837.613 522.113 837.936 522.114 838.265V868.992C522.113 869.501 522.213 870.005 522.407 870.475C522.601 870.945 522.886 871.373 523.245 871.733C523.605 872.093 524.032 872.378 524.501 872.573C524.971 872.768 525.475 872.868 525.984 872.868H557.014C558.041 872.868 559.027 872.461 559.754 871.735C560.482 871.01 560.892 870.026 560.895 868.998V838.248C560.895 837.735 561.099 837.242 561.462 836.879C561.826 836.516 562.318 836.311 562.832 836.311C563.126 836.314 563.415 836.382 563.679 836.511L570.535 839.867C570.993 840.098 571.525 840.138 572.013 839.977C572.5 839.816 572.904 839.468 573.135 839.009L573.14 838.994L580.087 825.126C580.317 824.668 580.356 824.137 580.196 823.65C580.036 823.163 579.69 822.759 579.234 822.526H579.224L561.942 813.953L561.232 814.815C557.826 819.524 550.29 822.815 541.495 822.815C535.893 822.945 530.376 821.433 525.623 818.465" stroke="#9E9EA3" stroke-width="2.654" stroke-miterlimit="10"/>
<path d="M97.5 470.5C133.951 470.5 163.5 440.951 163.5 404.5C163.5 368.049 133.951 338.5 97.5 338.5C61.0492 338.5 31.5 368.049 31.5 404.5C31.5 440.951 61.0492 470.5 97.5 470.5Z" stroke="#9E9EA3" stroke-width="3"/>
<path d="M56 989.5C86.0995 989.5 110.5 965.1 110.5 935C110.5 904.9 86.0995 880.5 56 880.5C25.9005 880.5 1.5 904.9 1.5 935C1.5 965.1 25.9005 989.5 56 989.5Z" stroke="#9E9EA3" stroke-width="3"/>
<path d="M415 999.5C440.681 999.5 461.5 978.681 461.5 953C461.5 927.319 440.681 906.5 415 906.5C389.319 906.5 368.5 927.319 368.5 953C368.5 978.681 389.319 999.5 415 999.5Z" stroke="#9E9EA3" stroke-width="3"/>
<path d="M338 1475.5C363.681 1475.5 384.5 1454.68 384.5 1429C384.5 1403.32 363.681 1382.5 338 1382.5C312.319 1382.5 291.5 1403.32 291.5 1429C291.5 1454.68 312.319 1475.5 338 1475.5Z" stroke="#9E9EA3" stroke-width="3"/>
<path d="M556 673.5C580.577 673.5 600.5 653.577 600.5 629C600.5 604.423 580.577 584.5 556 584.5C531.423 584.5 511.5 604.423 511.5 629C511.5 653.577 531.423 673.5 556 673.5Z" stroke="#9E9EA3" stroke-width="3"/>
<g filter="url(#filter8_d_79_4165)">
<path d="M400.221 107.251C400.221 87.1251 406.189 67.4516 417.371 50.7179C428.552 33.9842 444.444 20.9419 463.038 13.2403C481.631 5.53865 502.091 3.52361 521.83 7.44996C541.569 11.3763 559.7 21.0677 573.931 35.2986C588.162 49.5295 597.853 67.6608 601.78 87.3996C605.706 107.138 603.691 127.598 595.989 146.192C588.288 164.786 575.245 180.678 558.512 191.859C541.778 203.04 522.104 209.008 501.979 209.009C474.991 209.009 449.109 198.288 430.025 179.204C410.942 160.121 400.221 134.239 400.221 107.251Z" fill="white"/>
</g>
<path d="M521.217 103.234C521.222 107.309 519.609 111.218 516.732 114.104C513.855 116.989 509.949 118.613 505.875 118.619H505.854C503.438 118.619 501.057 118.049 498.903 116.956C496.749 115.862 494.883 114.277 493.457 112.327C492.031 110.378 491.084 108.12 490.694 105.736C490.304 103.352 490.482 100.91 491.212 98.6077C491.943 96.3054 493.206 94.2078 494.9 92.4851C496.593 90.7625 498.668 89.4633 500.958 88.6931C503.247 87.9229 505.686 87.7033 508.076 88.0522C510.466 88.4011 512.74 89.3086 514.714 90.7011" stroke="#9E9EA3" stroke-width="3" stroke-miterlimit="10"/>
<path d="M537.68 95.8371C535.813 98.8421 535.041 102.399 535.494 105.908C536.034 109.661 537.921 113.09 540.802 115.555C543.683 118.02 547.362 119.354 551.153 119.308C554.108 119.327 557 118.457 559.454 116.81C561.907 115.164 563.809 112.817 564.911 110.075C565.909 107.727 566.31 105.169 566.078 102.628C565.846 100.087 564.989 97.6437 563.582 95.5151C562.176 93.3866 560.265 91.6393 558.019 90.4293C555.773 89.2194 553.262 88.5844 550.711 88.5811H529.78C527.509 88.5811 525.332 89.483 523.726 91.0885C522.121 92.694 521.219 94.8715 521.219 97.1421L521.21 125.342C521.212 129.417 519.594 133.326 516.714 136.209C513.834 139.091 509.926 140.711 505.851 140.713C501.776 140.715 497.867 139.097 494.985 136.217C492.102 133.337 490.482 129.429 490.48 125.354" stroke="#9E9EA3" stroke-width="3" stroke-miterlimit="10"/>
<path d="M459.744 111.03C457.683 107.515 457.102 103.325 458.13 99.3817C459.158 95.4386 461.711 92.0654 465.226 90.0041C468.741 87.9428 472.931 87.3624 476.874 88.3905C480.817 89.4185 484.191 91.9709 486.252 95.4861L486.262 95.5051C487.643 97.8694 488.368 100.56 488.361 103.298C488.354 106.037 487.615 108.724 486.221 111.081C484.827 113.438 482.829 115.38 480.433 116.705C478.036 118.031 475.329 118.692 472.592 118.62L452.177 118.625C448.379 118.62 444.738 117.107 442.054 114.42C439.37 111.733 437.862 108.09 437.861 104.292V71.8921" stroke="#9E9EA3" stroke-width="3" stroke-miterlimit="10"/>
<g filter="url(#filter9_d_79_4165)">
<path d="M72.886 140.6C72.886 128.812 76.3815 117.289 82.9304 107.488C89.4793 97.6869 98.7876 90.0478 109.678 85.5368C120.569 81.0258 132.552 79.8455 144.113 82.1452C155.675 84.4449 166.294 90.1213 174.63 98.4565C182.965 106.792 188.641 117.411 190.941 128.973C193.24 140.534 192.06 152.517 187.549 163.408C183.038 174.298 175.399 183.607 165.598 190.156C155.797 196.705 144.274 200.2 132.486 200.2C116.679 200.2 101.52 193.921 90.3424 182.744C79.1653 171.566 72.886 156.407 72.886 140.6Z" fill="white"/>
</g>
<path d="M119.397 117.376H149.982C150.178 117.358 150.376 117.381 150.563 117.444C150.75 117.506 150.922 117.608 151.068 117.74C151.213 117.873 151.33 118.035 151.409 118.215C151.489 118.396 151.53 118.591 151.53 118.788C151.53 118.985 151.489 119.18 151.409 119.361C151.33 119.541 151.213 119.703 151.068 119.836C150.922 119.969 150.75 120.07 150.563 120.132C150.376 120.195 150.178 120.218 149.982 120.2H119.397C119.201 120.218 119.003 120.195 118.816 120.132C118.629 120.07 118.457 119.969 118.311 119.836C118.165 119.703 118.049 119.541 117.969 119.361C117.89 119.18 117.849 118.985 117.849 118.788C117.849 118.591 117.89 118.396 117.969 118.215C118.049 118.035 118.165 117.873 118.311 117.74C118.457 117.608 118.629 117.506 118.816 117.444C119.003 117.381 119.201 117.358 119.397 117.376Z" fill="#9E9EA3"/>
<path d="M160.577 118.861V114.368C160.577 113.755 160.456 113.148 160.222 112.582C159.987 112.016 159.643 111.502 159.21 111.068C158.777 110.635 158.262 110.291 157.696 110.057C157.13 109.823 156.523 109.702 155.91 109.702H109.062C107.824 109.702 106.638 110.194 105.762 111.069C104.887 111.944 104.395 113.131 104.395 114.368V166.83C104.395 168.068 104.887 169.255 105.762 170.13C106.638 171.005 107.824 171.496 109.062 171.496H155.906C156.519 171.497 157.126 171.376 157.693 171.142C158.26 170.908 158.775 170.564 159.208 170.131C159.642 169.698 159.986 169.183 160.221 168.617C160.456 168.05 160.577 167.443 160.577 166.83V126.615H113.777C113.514 126.593 113.253 126.675 113.051 126.843C112.848 127.012 112.719 127.253 112.692 127.515V158.938C112.717 159.201 112.846 159.443 113.049 159.612C113.252 159.78 113.514 159.862 113.777 159.838H150.839C151.102 159.862 151.364 159.78 151.567 159.612C151.77 159.443 151.899 159.201 151.924 158.938V132.843" stroke="#9E9EA3" stroke-width="2.705" stroke-linejoin="round"/>
<path d="M109.682 114.594C109.682 114.345 109.757 114.101 109.896 113.894C110.035 113.687 110.232 113.526 110.462 113.431C110.693 113.336 110.946 113.312 111.191 113.361C111.435 113.41 111.66 113.53 111.836 113.706C112.012 113.883 112.131 114.108 112.18 114.352C112.228 114.597 112.203 114.85 112.108 115.08C112.012 115.31 111.85 115.507 111.643 115.646C111.436 115.784 111.192 115.858 110.943 115.858C110.777 115.858 110.613 115.825 110.46 115.762C110.306 115.698 110.167 115.605 110.05 115.488C109.933 115.37 109.84 115.231 109.777 115.077C109.714 114.924 109.681 114.76 109.682 114.594Z" fill="#9E9EA3"/>
<path d="M112.865 114.594C112.866 114.345 112.94 114.101 113.079 113.894C113.218 113.687 113.415 113.526 113.646 113.431C113.876 113.336 114.129 113.312 114.374 113.361C114.618 113.41 114.843 113.53 115.019 113.706C115.195 113.883 115.315 114.108 115.363 114.352C115.411 114.597 115.386 114.85 115.291 115.08C115.195 115.31 115.034 115.507 114.826 115.646C114.619 115.784 114.375 115.858 114.126 115.858C113.96 115.858 113.796 115.825 113.643 115.762C113.49 115.698 113.35 115.605 113.233 115.488C113.116 115.37 113.023 115.231 112.96 115.077C112.897 114.924 112.865 114.76 112.865 114.594Z" fill="#9E9EA3"/>
<path d="M116.046 114.594C116.046 114.345 116.121 114.101 116.26 113.894C116.398 113.688 116.595 113.526 116.826 113.431C117.056 113.336 117.309 113.312 117.554 113.36C117.798 113.409 118.022 113.529 118.199 113.705C118.375 113.881 118.495 114.106 118.544 114.35C118.592 114.595 118.568 114.848 118.472 115.078C118.377 115.308 118.216 115.505 118.009 115.644C117.802 115.783 117.559 115.857 117.31 115.858C117.144 115.858 116.979 115.826 116.826 115.763C116.672 115.699 116.533 115.606 116.415 115.489C116.298 115.371 116.205 115.232 116.141 115.078C116.078 114.925 116.046 114.76 116.046 114.594Z" fill="#9E9EA3"/>
<defs>
<filter id="filter0_d_79_4165" x="59.0811" y="1099.57" width="162.428" height="162.428" filterUnits="userSpaceOnUse" color-interpolation-filters="sRGB">
<feFlood flood-opacity="0" result="BackgroundImageFix"/>
<feColorMatrix in="SourceAlpha" type="matrix" values="0 0 0 0 0 0 0 0 0 0 0 0 0 0 0 0 0 0 127 0" result="hardAlpha"/>
<feOffset dx="12" dy="12"/>
<feGaussianBlur stdDeviation="8.5"/>
<feColorMatrix type="matrix" values="0 0 0 0 1 0 0 0 0 0.372549 0 0 0 0 0.419608 0 0 0 0.169 0"/>
<feBlend mode="normal" in2="BackgroundImageFix" result="effect1_dropShadow_79_4165"/>
<feBlend mode="normal" in="SourceGraphic" in2="effect1_dropShadow_79_4165" result="shape"/>
</filter>
<filter id="filter1_d_79_4165" x="504.777" y="332" width="191.4" height="191.4" filterUnits="userSpaceOnUse" color-interpolation-filters="sRGB">
<feFlood flood-opacity="0" result="BackgroundImageFix"/>
<feColorMatrix in="SourceAlpha" type="matrix" values="0 0 0 0 0 0 0 0 0 0 0 0 0 0 0 0 0 0 127 0" result="hardAlpha"/>
<feOffset dx="12" dy="12"/>
<feGaussianBlur stdDeviation="8.5"/>
<feColorMatrix type="matrix" values="0 0 0 0 0.278431 0 0 0 0 0.278431 0 0 0 0 0.780392 0 0 0 0.149 0"/>
<feBlend mode="normal" in2="BackgroundImageFix" result="effect1_dropShadow_79_4165"/>
<feBlend mode="normal" in="SourceGraphic" in2="effect1_dropShadow_79_4165" result="shape"/>
</filter>
<filter id="filter2_d_79_4165" x="187.101" y="874" width="156.426" height="156.426" filterUnits="userSpaceOnUse" color-interpolation-filters="sRGB">
<feFlood flood-opacity="0" result="BackgroundImageFix"/>
<feColorMatrix in="SourceAlpha" type="matrix" values="0 0 0 0 0 0 0 0 0 0 0 0 0 0 0 0 0 0 127 0" result="hardAlpha"/>
<feOffset dx="12" dy="12"/>
<feGaussianBlur stdDeviation="8.5"/>
<feColorMatrix type="matrix" values="0 0 0 0 0.278431 0 0 0 0 0.278431 0 0 0 0 0.780392 0 0 0 0.149 0"/>
<feBlend mode="normal" in2="BackgroundImageFix" result="effect1_dropShadow_79_4165"/>
<feBlend mode="normal" in="SourceGraphic" in2="effect1_dropShadow_79_4165" result="shape"/>
</filter>
<filter id="filter3_d_79_4165" x="32.2939" y="554.098" width="229.788" height="229.788" filterUnits="userSpaceOnUse" color-interpolation-filters="sRGB">
<feFlood flood-opacity="0" result="BackgroundImageFix"/>
<feColorMatrix in="SourceAlpha" type="matrix" values="0 0 0 0 0 0 0 0 0 0 0 0 0 0 0 0 0 0 127 0" result="hardAlpha"/>
<feOffset dx="12" dy="12"/>
<feGaussianBlur stdDeviation="8.5"/>
<feColorMatrix type="matrix" values="0 0 0 0 0 0 0 0 0 0.784314 0 0 0 0 0.784314 0 0 0 0.149 0"/>
<feBlend mode="normal" in2="BackgroundImageFix" result="effect1_dropShadow_79_4165"/>
<feBlend mode="normal" in="SourceGraphic" in2="effect1_dropShadow_79_4165" result="shape"/>
</filter>
<filter id="filter4_d_79_4165" x="361.641" y="1057.94" width="204.058" height="204.058" filterUnits="userSpaceOnUse" color-interpolation-filters="sRGB">
<feFlood flood-opacity="0" result="BackgroundImageFix"/>
<feColorMatrix in="SourceAlpha" type="matrix" values="0 0 0 0 0 0 0 0 0 0 0 0 0 0 0 0 0 0 127 0" result="hardAlpha"/>
<feOffset dx="12" dy="12"/>
<feGaussianBlur stdDeviation="8.5"/>
<feColorMatrix type="matrix" values="0 0 0 0 0 0 0 0 0 0 0 0 0 0 0 0 0 0 0.161 0"/>
<feBlend mode="normal" in2="BackgroundImageFix" result="effect1_dropShadow_79_4165"/>
<feBlend mode="normal" in="SourceGraphic" in2="effect1_dropShadow_79_4165" result="shape"/>
</filter>
<filter id="filter5_d_79_4165" x="318.898" y="577.098" width="158.224" height="158.224" filterUnits="userSpaceOnUse" color-interpolation-filters="sRGB">
<feFlood flood-opacity="0" result="BackgroundImageFix"/>
<feColorMatrix in="SourceAlpha" type="matrix" values="0 0 0 0 0 0 0 0 0 0 0 0 0 0 0 0 0 0 127 0" result="hardAlpha"/>
<feOffset dx="12" dy="12"/>
<feGaussianBlur stdDeviation="8.5"/>
<feColorMatrix type="matrix" values="0 0 0 0 0 0 0 0 0 0 0 0 0 0 0 0 0 0 0.161 0"/>
<feBlend mode="normal" in2="BackgroundImageFix" result="effect1_dropShadow_79_4165"/>
<feBlend mode="normal" in="SourceGraphic" in2="effect1_dropShadow_79_4165" result="shape"/>
</filter>
<filter id="filter6_d_79_4165" x="219.499" y="252" width="209.69" height="209.69" filterUnits="userSpaceOnUse" color-interpolation-filters="sRGB">
<feFlood flood-opacity="0" result="BackgroundImageFix"/>
<feColorMatrix in="SourceAlpha" type="matrix" values="0 0 0 0 0 0 0 0 0 0 0 0 0 0 0 0 0 0 127 0" result="hardAlpha"/>
<feOffset dx="12" dy="12"/>
<feGaussianBlur stdDeviation="8.5"/>
<feColorMatrix type="matrix" values="0 0 0 0 0 0 0 0 0 0 0 0 0 0 0 0 0 0 0.161 0"/>
<feBlend mode="normal" in2="BackgroundImageFix" result="effect1_dropShadow_79_4165"/>
<feBlend mode="normal" in="SourceGraphic" in2="effect1_dropShadow_79_4165" result="shape"/>
</filter>
<filter id="filter7_d_79_4165" x="474.295" y="774.486" width="158.444" height="158.444" filterUnits="userSpaceOnUse" color-interpolation-filters="sRGB">
<feFlood flood-opacity="0" result="BackgroundImageFix"/>
<feColorMatrix in="SourceAlpha" type="matrix" values="0 0 0 0 0 0 0 0 0 0 0 0 0 0 0 0 0 0 127 0" result="hardAlpha"/>
<feOffset dx="12" dy="12"/>
<feGaussianBlur stdDeviation="8.5"/>
<feColorMatrix type="matrix" values="0 0 0 0 0 0 0 0 0 0 0 0 0 0 0 0 0 0 0.161 0"/>
<feBlend mode="normal" in2="BackgroundImageFix" result="effect1_dropShadow_79_4165"/>
<feBlend mode="normal" in="SourceGraphic" in2="effect1_dropShadow_79_4165" result="shape"/>
</filter>
<filter id="filter8_d_79_4165" x="395.221" y="0.494629" width="237.514" height="237.514" filterUnits="userSpaceOnUse" color-interpolation-filters="sRGB">
<feFlood flood-opacity="0" result="BackgroundImageFix"/>
<feColorMatrix in="SourceAlpha" type="matrix" values="0 0 0 0 0 0 0 0 0 0 0 0 0 0 0 0 0 0 127 0" result="hardAlpha"/>
<feOffset dx="12" dy="12"/>
<feGaussianBlur stdDeviation="8.5"/>
<feColorMatrix type="matrix" values="0 0 0 0 1 0 0 0 0 0.372549 0 0 0 0 0.419608 0 0 0 0.271 0"/>
<feBlend mode="normal" in2="BackgroundImageFix" result="effect1_dropShadow_79_4165"/>
<feBlend mode="normal" in="SourceGraphic" in2="effect1_dropShadow_79_4165" result="shape"/>
</filter>
<filter id="filter9_d_79_4165" x="67.886" y="76" width="153.2" height="153.2" filterUnits="userSpaceOnUse" color-interpolation-filters="sRGB">
<feFlood flood-opacity="0" result="BackgroundImageFix"/>
<feColorMatrix in="SourceAlpha" type="matrix" values="0 0 0 0 0 0 0 0 0 0 0 0 0 0 0 0 0 0 127 0" result="hardAlpha"/>
<feOffset dx="12" dy="12"/>
<feGaussianBlur stdDeviation="8.5"/>
<feColorMatrix type="matrix" values="0 0 0 0 0 0 0 0 0 0.784314 0 0 0 0 0.784314 0 0 0 0.149 0"/>
<feBlend mode="normal" in2="BackgroundImageFix" result="effect1_dropShadow_79_4165"/>
<feBlend mode="normal" in="SourceGraphic" in2="effect1_dropShadow_79_4165" result="shape"/>
</filter>
</defs>
</svg>
