<svg width="670" height="1389" viewBox="0 0 670 1389" fill="none" xmlns="http://www.w3.org/2000/svg">
<g filter="url(#filter0_d_79_4165)">
<path d="M5 415.213C5.0002 402.513 8.76643 390.098 15.8224 379.538C22.8784 368.978 32.9073 360.748 44.6408 355.888C56.3744 351.028 69.2856 349.756 81.7418 352.234C94.198 354.712 105.64 360.827 114.62 369.808C123.601 378.788 129.716 390.23 132.194 402.686C134.672 415.142 133.4 428.054 128.54 439.787C123.68 451.521 115.45 461.55 104.89 468.606C94.3302 475.662 81.9152 479.428 69.215 479.428C52.1841 479.428 35.8508 472.663 23.8081 460.62C11.7655 448.577 5 432.244 5 415.213Z" fill="white"/>
</g>
<path d="M81.356 412.684C81.3584 415.255 80.3399 417.722 78.5245 419.543C76.709 421.363 74.245 422.388 71.674 422.393H71.656C70.1298 422.395 68.6248 422.037 67.2631 421.348C65.9014 420.658 64.7216 419.658 63.8196 418.426C62.9175 417.195 62.3187 415.769 62.0717 414.263C61.8247 412.757 61.9366 411.214 62.3982 409.759C62.8599 408.304 63.6582 406.979 64.7284 405.891C65.7986 404.803 67.1105 403.983 68.5573 403.497C70.0041 403.012 71.5451 402.874 73.0551 403.096C74.565 403.318 76.0012 403.894 77.247 404.775" stroke="#9E9EA3" stroke-width="3" stroke-miterlimit="10"/>
<path d="M91.7421 408.012C90.564 409.908 90.0765 412.153 90.3621 414.367C90.7037 416.735 91.8944 418.898 93.7124 420.454C95.5304 422.009 97.8517 422.85 100.244 422.821C102.109 422.833 103.934 422.284 105.482 421.245C107.031 420.206 108.231 418.725 108.926 416.995C109.556 415.514 109.809 413.899 109.663 412.296C109.517 410.693 108.976 409.151 108.089 407.808C107.201 406.464 105.995 405.362 104.578 404.598C103.161 403.834 101.577 403.433 99.9671 403.431H86.7571C86.0479 403.431 85.3457 403.571 84.6906 403.842C84.0354 404.114 83.4401 404.511 82.9387 405.013C82.4372 405.514 82.0395 406.11 81.7681 406.765C81.4967 407.42 81.3571 408.122 81.3571 408.831V426.632C81.2821 429.152 80.2287 431.545 78.4201 433.301C76.6115 435.058 74.1898 436.042 71.6684 436.044C69.1469 436.046 66.7238 435.066 64.9127 433.311C63.1015 431.557 62.0447 429.166 61.9661 426.646" stroke="#9E9EA3" stroke-width="3" stroke-miterlimit="10"/>
<path d="M42.5639 417.6C41.3572 415.387 41.059 412.792 41.7325 410.363C42.406 407.934 43.9984 405.863 46.1723 404.588C48.3463 403.313 50.9312 402.934 53.3796 403.532C55.8281 404.129 57.9478 405.657 59.2899 407.79L59.2959 407.802C60.167 409.294 60.6237 410.992 60.6188 412.719C60.6139 414.447 60.1476 416.142 59.2682 417.629C58.3888 419.117 57.128 420.342 55.6164 421.179C54.1048 422.015 52.3971 422.433 50.6699 422.389H37.7869C35.3903 422.385 33.0929 421.431 31.3992 419.735C29.7055 418.04 28.7537 415.741 28.7529 413.345V392.905" stroke="#9E9EA3" stroke-width="3" stroke-miterlimit="10"/>
<g filter="url(#filter1_d_79_4165)">
<path d="M353 724.2C353 710.909 356.941 697.917 364.325 686.866C371.709 675.815 382.204 667.202 394.484 662.115C406.763 657.029 420.275 655.698 433.31 658.291C446.346 660.884 458.319 667.284 467.718 676.682C477.116 686.081 483.516 698.054 486.109 711.09C488.702 724.125 487.371 737.637 482.285 749.916C477.199 762.196 468.585 772.691 457.534 780.075C446.483 787.459 433.491 791.4 420.2 791.4C402.377 791.4 385.285 784.32 372.682 771.718C360.08 759.115 353 742.023 353 724.2Z" fill="white"/>
</g>
<path d="M438.984 726.278V741.24L455.057 733.198V712.823C455.057 712.818 435.771 720.655 435.771 720.655L416.483 712.819L435.775 705.476L448.133 710.04" stroke="#9E9EA3" stroke-width="2.441" stroke-linecap="round" stroke-linejoin="round"/>
<path d="M401.533 729.192V744.328C401.533 744.631 401.413 744.921 401.199 745.135C400.986 745.349 400.695 745.47 400.393 745.47H386.854C386.704 745.47 386.555 745.44 386.417 745.383C386.278 745.326 386.153 745.242 386.047 745.136C385.941 745.03 385.857 744.904 385.799 744.765C385.742 744.627 385.713 744.478 385.713 744.328V724.451C385.713 724.301 385.742 724.153 385.799 724.014C385.857 723.876 385.941 723.75 386.047 723.644C386.153 723.538 386.279 723.454 386.417 723.397C386.555 723.34 386.704 723.31 386.854 723.31H408.308C408.219 721.347 407.723 719.423 406.85 717.663C405.977 715.902 404.746 714.342 403.237 713.083C402.236 712.213 401.433 711.137 400.884 709.929C400.335 708.721 400.052 707.409 400.054 706.082V705.699C400.042 704.388 400.302 703.088 400.818 701.883C401.333 700.677 402.093 699.591 403.048 698.693C403.241 698.545 403.401 698.359 403.519 698.147C403.636 697.934 403.709 697.7 403.731 697.458C403.711 696.743 403.41 696.065 402.895 695.569C402.38 695.073 401.69 694.799 400.975 694.805H386.17C385.813 694.807 385.461 694.881 385.133 695.021C384.805 695.162 384.509 695.366 384.262 695.623C384.014 695.88 383.821 696.184 383.693 696.517C383.565 696.849 383.505 697.204 383.517 697.561C383.541 697.79 383.613 698.011 383.728 698.21C383.843 698.41 383.998 698.583 384.184 698.719C385.139 699.584 385.9 700.64 386.419 701.82C386.937 702.999 387.2 704.274 387.192 705.562V706.084C387.195 707.411 386.912 708.724 386.362 709.932C385.813 711.14 385.01 712.216 384.008 713.086C382.411 714.465 381.131 716.171 380.255 718.09C379.378 720.008 378.925 722.093 378.928 724.203V746.254C378.93 748.201 379.705 750.067 381.082 751.444C382.458 752.82 384.325 753.595 386.271 753.597H400.972C402.922 753.597 404.791 752.823 406.169 751.445C407.547 750.066 408.322 748.197 408.322 746.248L408.64 736.445L433.614 748.962C434.281 749.299 435.019 749.475 435.767 749.475C436.515 749.475 437.253 749.299 437.921 748.962L458.817 738.511C459.618 738.112 460.292 737.497 460.763 736.736C461.234 735.975 461.483 735.098 461.482 734.203V711.592C461.482 710.612 461.183 709.655 460.625 708.849C460.067 708.043 459.277 707.426 458.359 707.081L437.458 699.244C436.37 698.825 435.167 698.821 434.076 699.233L410.424 708.187" stroke="#9E9EA3" stroke-width="2.441" stroke-linejoin="round"/>
<g filter="url(#filter2_d_79_4165)">
<path d="M75 1000.21C75 988.106 78.5901 976.271 85.3163 966.205C92.0424 956.138 101.603 948.293 112.788 943.66C123.973 939.027 136.281 937.814 148.155 940.176C160.029 942.538 170.936 948.368 179.497 956.929C188.058 965.49 193.888 976.397 196.25 988.271C198.612 1000.15 197.4 1012.45 192.766 1023.64C188.133 1034.82 180.288 1044.38 170.221 1051.11C160.155 1057.84 148.32 1061.43 136.213 1061.43C119.978 1061.43 104.409 1054.98 92.9289 1043.5C81.4492 1032.02 75 1016.45 75 1000.21Z" fill="white"/>
</g>
<path d="M153.324 1002.1V1015.73L167.964 1008.41V989.849L150.398 996.982L132.825 989.844L150.398 983.152L161.654 987.312" stroke="#9E9EA3" stroke-width="2.441" stroke-linecap="round" stroke-linejoin="round"/>
<path d="M119.207 1004.76V1018.55C119.208 1018.68 119.181 1018.82 119.13 1018.94C119.078 1019.07 119.001 1019.19 118.905 1019.28C118.808 1019.38 118.693 1019.46 118.567 1019.51C118.44 1019.56 118.305 1019.59 118.168 1019.59H105.836C105.699 1019.59 105.564 1019.56 105.438 1019.51C105.312 1019.46 105.197 1019.38 105.101 1019.29C105.004 1019.19 104.928 1019.07 104.876 1018.95C104.824 1018.82 104.797 1018.69 104.797 1018.55V1000.44C104.797 1000.3 104.824 1000.17 104.876 1000.04C104.928 999.916 105.004 999.802 105.101 999.705C105.197 999.609 105.312 999.532 105.438 999.48C105.564 999.428 105.699 999.401 105.836 999.401H125.379C125.297 997.613 124.845 995.862 124.049 994.259C123.254 992.656 122.133 991.236 120.759 990.09C119.847 989.297 119.116 988.318 118.616 987.218C118.116 986.118 117.857 984.923 117.859 983.715V983.366C117.848 982.171 118.084 980.987 118.554 979.888C119.023 978.788 119.715 977.798 120.586 976.98C120.761 976.845 120.907 976.676 121.013 976.482C121.12 976.289 121.186 976.075 121.206 975.855C121.187 975.204 120.913 974.586 120.444 974.135C119.975 973.683 119.347 973.433 118.696 973.439H105.218C104.893 973.441 104.572 973.508 104.274 973.636C103.975 973.764 103.705 973.95 103.48 974.184C103.255 974.418 103.079 974.695 102.962 974.998C102.846 975.301 102.791 975.624 102.802 975.949C102.824 976.158 102.89 976.359 102.994 976.541C103.099 976.723 103.24 976.881 103.409 977.005C104.279 977.793 104.972 978.755 105.445 979.829C105.917 980.903 106.157 982.065 106.149 983.238V983.713C106.151 984.922 105.894 986.117 105.393 987.217C104.893 988.317 104.162 989.297 103.249 990.089C101.794 991.344 100.628 992.898 99.8284 994.646C99.0292 996.393 98.6163 998.292 98.6179 1000.21V1020.3C98.6198 1022.07 99.3251 1023.77 100.579 1025.03C101.833 1026.28 103.534 1026.99 105.308 1026.99H118.697C120.472 1026.99 122.174 1026.28 123.43 1025.03C124.685 1023.77 125.391 1022.07 125.392 1020.3L125.682 1011.37L148.428 1022.77C149.036 1023.08 149.708 1023.24 150.389 1023.24C151.071 1023.24 151.743 1023.08 152.351 1022.77L171.385 1013.25C172.115 1012.89 172.728 1012.33 173.157 1011.63C173.586 1010.94 173.813 1010.14 173.813 1009.33V988.727C173.813 987.834 173.541 986.962 173.032 986.228C172.524 985.493 171.804 984.932 170.968 984.617L151.93 977.479C150.939 977.097 149.843 977.094 148.85 977.469L127.304 985.626" stroke="#9E9EA3" stroke-width="2.441" stroke-linejoin="round"/>
<g filter="url(#filter3_d_79_4165)">
<path d="M353 401.991C353 386.764 357.516 371.878 365.976 359.217C374.436 346.556 386.46 336.688 400.529 330.861C414.597 325.033 430.078 323.509 445.013 326.479C459.948 329.45 473.666 336.783 484.434 347.551C495.201 358.318 502.534 372.037 505.505 386.972C508.476 401.907 506.951 417.387 501.124 431.455C495.297 445.524 485.428 457.548 472.767 466.008C460.106 474.469 445.22 478.984 429.993 478.984C409.573 478.984 389.99 470.873 375.551 456.434C361.112 441.995 353 422.411 353 401.991Z" fill="white"/>
</g>
<path d="M413.085 371.993H452.597C452.85 371.97 453.105 372 453.347 372.081C453.588 372.162 453.809 372.293 453.997 372.465C454.185 372.636 454.335 372.845 454.438 373.078C454.541 373.311 454.594 373.563 454.594 373.817C454.594 374.072 454.541 374.323 454.438 374.556C454.335 374.789 454.185 374.998 453.997 375.169C453.809 375.341 453.588 375.472 453.347 375.553C453.105 375.634 452.85 375.664 452.597 375.641H413.085C412.832 375.664 412.576 375.634 412.335 375.553C412.094 375.472 411.872 375.341 411.684 375.169C411.497 374.998 411.347 374.789 411.244 374.556C411.141 374.323 411.088 374.072 411.088 373.817C411.088 373.563 411.141 373.311 411.244 373.078C411.347 372.845 411.497 372.636 411.684 372.465C411.872 372.293 412.094 372.162 412.335 372.081C412.576 372 412.832 371.97 413.085 371.993Z" fill="#9E9EA3"/>
<path d="M466.279 373.91V368.106C466.279 367.314 466.123 366.53 465.82 365.799C465.517 365.068 465.073 364.403 464.513 363.843C463.953 363.284 463.289 362.84 462.557 362.537C461.826 362.234 461.042 362.078 460.251 362.078H399.734C398.135 362.078 396.602 362.713 395.471 363.844C394.341 364.974 393.706 366.507 393.705 368.106V435.88C393.706 437.478 394.341 439.011 395.472 440.141C396.602 441.272 398.135 441.907 399.734 441.907H460.25C461.849 441.907 463.382 441.272 464.512 440.142C465.643 439.011 466.278 437.478 466.278 435.88V383.927H405.831C405.491 383.898 405.154 384.004 404.892 384.222C404.629 384.44 404.463 384.752 404.429 385.091V425.683C404.464 426.022 404.63 426.333 404.892 426.551C405.154 426.769 405.491 426.874 405.831 426.846H453.705C454.044 426.874 454.381 426.769 454.643 426.551C454.906 426.333 455.072 426.022 455.106 425.683V391.972" stroke="#9E9EA3" stroke-width="2.705" stroke-linejoin="round"/>
<path d="M400.536 368.397C400.536 368.075 400.632 367.76 400.812 367.492C400.991 367.224 401.246 367.016 401.544 366.893C401.841 366.77 402.169 366.738 402.485 366.801C402.801 366.864 403.091 367.02 403.319 367.248C403.546 367.476 403.701 367.766 403.764 368.082C403.827 368.398 403.794 368.726 403.671 369.023C403.547 369.321 403.339 369.575 403.071 369.754C402.803 369.933 402.488 370.029 402.165 370.029C401.951 370.029 401.739 369.987 401.541 369.905C401.343 369.823 401.163 369.702 401.012 369.551C400.861 369.399 400.741 369.219 400.659 369.021C400.577 368.823 400.535 368.611 400.536 368.397Z" fill="#9E9EA3"/>
<path d="M404.648 368.397C404.648 368.075 404.744 367.76 404.923 367.492C405.103 367.224 405.358 367.016 405.655 366.893C405.953 366.77 406.281 366.738 406.597 366.801C406.913 366.864 407.203 367.02 407.43 367.248C407.658 367.476 407.813 367.766 407.876 368.082C407.938 368.398 407.906 368.726 407.783 369.023C407.659 369.321 407.45 369.575 407.182 369.754C406.914 369.933 406.6 370.029 406.277 370.029C406.063 370.029 405.851 369.987 405.653 369.905C405.455 369.823 405.275 369.702 405.124 369.551C404.973 369.399 404.853 369.219 404.771 369.021C404.689 368.823 404.647 368.611 404.648 368.397Z" fill="#9E9EA3"/>
<path d="M408.756 368.397C408.757 368.075 408.853 367.76 409.032 367.492C409.211 367.225 409.466 367.016 409.763 366.893C410.061 366.77 410.389 366.738 410.704 366.801C411.02 366.864 411.31 367.019 411.538 367.247C411.766 367.475 411.921 367.765 411.984 368.081C412.047 368.397 412.015 368.724 411.892 369.022C411.769 369.319 411.56 369.574 411.293 369.753C411.025 369.932 410.71 370.028 410.388 370.029C410.174 370.029 409.961 369.987 409.763 369.905C409.565 369.823 409.385 369.703 409.233 369.552C409.082 369.4 408.962 369.22 408.88 369.022C408.798 368.824 408.756 368.611 408.756 368.397Z" fill="#9E9EA3"/>
<g filter="url(#filter4_d_79_4165)">
<path d="M403.058 1282.03C403.058 1266.61 407.631 1251.53 416.199 1238.71C424.767 1225.89 436.944 1215.89 451.191 1209.99C465.439 1204.09 481.116 1202.55 496.241 1205.56C511.365 1208.56 525.258 1215.99 536.163 1226.9C547.067 1237.8 554.493 1251.69 557.502 1266.82C560.51 1281.94 558.966 1297.62 553.065 1311.87C547.164 1326.11 537.17 1338.29 524.348 1346.86C511.526 1355.43 496.451 1360 481.03 1360C460.351 1360 440.518 1351.79 425.896 1337.16C411.273 1322.54 403.058 1302.71 403.058 1282.03Z" fill="white"/>
</g>
<path d="M472.433 1273.19L489.363 1257.02M472.632 1264.48L455.539 1249.41C454.378 1248.58 452.964 1248.2 451.545 1248.31C450.126 1248.43 448.794 1249.04 447.782 1250.04C446.77 1251.04 446.144 1252.37 446.013 1253.79C445.882 1255.2 446.255 1256.62 447.066 1257.79L465.183 1279.17C465.183 1279.17 465.348 1279.37 465.619 1279.69C462.35 1282.81 453.515 1291.21 453.515 1291.21C452.057 1292.61 450.97 1294.34 450.352 1296.26C450.352 1296.26 445.033 1315.04 445.864 1315.78C446.69 1316.78 465.693 1312.36 465.693 1312.36C467.643 1311.84 469.43 1310.83 470.887 1309.44L482.658 1298.22C482.658 1298.37 482.658 1298.53 482.664 1298.67C482.873 1305.79 487.94 1309.8 495.998 1311.16C504.056 1312.52 514.705 1310.86 515.559 1308.57C516.25 1306.73 514.195 1305.74 511.821 1304.07C510.839 1303.36 510.034 1302.44 509.471 1301.37C508.907 1300.3 508.601 1299.12 508.575 1297.91C508.453 1294.64 507.099 1291.54 504.785 1289.22C502.471 1286.91 499.367 1285.55 496.096 1285.43L503.604 1278.28L513.557 1268.79C514.392 1267.99 515.062 1267.04 515.529 1265.99C515.996 1264.94 516.25 1263.8 516.278 1262.65C516.306 1261.5 516.106 1260.35 515.691 1259.28C515.275 1258.2 514.652 1257.22 513.856 1256.39L508.595 1250.85C507.8 1250.02 506.848 1249.35 505.794 1248.88C504.74 1248.41 503.605 1248.16 502.452 1248.13C501.3 1248.1 500.153 1248.3 499.078 1248.72C498.002 1249.13 497.019 1249.76 496.185 1250.55L489.399 1257.02L500.987 1269.18" stroke="#9E9EA3" stroke-width="3" stroke-linejoin="round"/>
<g filter="url(#filter5_d_79_4165)">
<path d="M92 129.111C92.0002 115.244 96.1124 101.689 103.816 90.1592C111.521 78.6295 122.471 69.6432 135.282 64.3368C148.093 59.0303 162.19 57.6419 175.79 60.3473C189.391 63.0526 201.883 69.7301 211.689 79.5354C221.494 89.3406 228.171 101.833 230.877 115.434C233.582 129.034 232.194 143.131 226.887 155.942C221.581 168.753 212.595 179.703 201.065 187.408C189.535 195.112 175.98 199.224 162.113 199.224C143.518 199.224 125.684 191.837 112.536 178.688C99.3869 165.54 92 147.706 92 129.111Z" fill="white"/>
</g>
<path d="M154.383 121.164L169.605 106.624M154.56 113.328L139.191 99.7825C138.147 99.0467 136.876 98.7018 135.603 98.8082C134.329 98.9146 133.134 99.4655 132.226 100.365C131.317 101.263 130.754 102.453 130.635 103.726C130.515 104.998 130.847 106.272 131.572 107.324L147.863 126.54C147.863 126.54 148.011 126.722 148.255 127.009C145.32 129.81 137.374 137.368 137.374 137.368C136.063 138.622 135.086 140.182 134.529 141.908C134.529 141.908 129.746 158.79 130.494 159.46C131.233 160.356 148.329 156.38 148.329 156.38C150.08 155.912 151.685 155.01 152.994 153.756L163.579 143.668C163.579 143.806 163.579 143.954 163.585 144.079C163.772 150.475 168.326 154.087 175.575 155.309C182.824 156.532 192.394 155.035 193.164 152.976C193.785 151.32 191.937 150.435 189.802 148.927C188.92 148.295 188.197 147.466 187.691 146.506C187.184 145.546 186.908 144.481 186.883 143.396C186.773 140.454 185.556 137.663 183.474 135.581C181.393 133.5 178.601 132.282 175.66 132.172L182.41 125.744L191.36 117.211C192.111 116.497 192.713 115.642 193.133 114.695C193.553 113.748 193.782 112.728 193.807 111.692C193.832 110.656 193.653 109.626 193.279 108.66C192.906 107.693 192.345 106.81 191.63 106.061L186.898 101.086C186.183 100.335 185.327 99.7329 184.38 99.313C183.432 98.8931 182.41 98.6641 181.374 98.639C180.338 98.614 179.307 98.7934 178.34 99.167C177.373 99.5406 176.489 100.101 175.739 100.816L169.633 106.631L180.053 117.564" stroke="#9E9EA3" stroke-width="3" stroke-linejoin="round"/>
<g filter="url(#filter6_d_79_4165)">
<path d="M491 904.655C491 889.89 495.378 875.456 503.582 863.179C511.785 850.902 523.444 841.333 537.086 835.683C550.727 830.032 565.738 828.554 580.219 831.435C594.701 834.315 608.003 841.425 618.444 851.866C628.885 862.307 635.995 875.609 638.876 890.091C641.756 904.572 640.278 919.583 634.627 933.224C628.977 946.866 619.408 958.525 607.131 966.728C594.854 974.932 580.42 979.31 565.655 979.31C545.855 979.31 526.866 971.445 512.866 957.444C498.865 943.444 491 924.455 491 904.655Z" fill="white"/>
</g>
<path d="M568.644 895.046H550.096V915.22H568.644V895.046Z" stroke="#9E9EA3" stroke-width="2.654" stroke-linecap="round" stroke-linejoin="round"/>
<path d="M575.25 898.058L577.523 893.777L582.071 902.34H572.978L575.25 898.058Z" stroke="#9E9EA3" stroke-width="2.654" stroke-linecap="round" stroke-linejoin="round"/>
<path d="M577.526 915.021C576.778 915.015 576.048 914.787 575.428 914.367C574.809 913.946 574.328 913.352 574.046 912.658C573.764 911.965 573.693 911.203 573.844 910.47C573.994 909.736 574.357 909.064 574.889 908.537C575.421 908.009 576.096 907.652 576.831 907.508C577.566 907.364 578.327 907.441 579.018 907.729C579.709 908.018 580.299 908.504 580.714 909.127C581.129 909.75 581.351 910.482 581.351 911.23C581.346 912.24 580.94 913.207 580.223 913.918C579.506 914.628 578.536 915.025 577.526 915.021Z" stroke="#9E9EA3" stroke-width="2.654" stroke-linecap="round" stroke-linejoin="round"/>
<path d="M582.591 867.603C579.669 871.646 573.202 874.466 565.656 874.466C558.109 874.466 551.643 871.646 548.722 867.603L520.417 881.638C519.866 881.915 519.446 882.399 519.249 882.984C519.053 883.57 519.096 884.209 519.369 884.763L527.684 901.405C527.961 901.957 528.445 902.376 529.03 902.573C529.615 902.769 530.255 902.726 530.808 902.454L539.038 898.427C539.394 898.255 539.787 898.177 540.18 898.198C540.574 898.22 540.956 898.341 541.29 898.55C541.625 898.76 541.9 899.05 542.092 899.395C542.283 899.74 542.384 900.128 542.385 900.522V937.39C542.384 938 542.503 938.605 542.736 939.169C542.969 939.733 543.311 940.246 543.743 940.678C544.174 941.11 544.686 941.452 545.25 941.686C545.814 941.92 546.418 942.04 547.029 942.04H584.25C585.483 942.04 586.666 941.551 587.538 940.681C588.411 939.81 588.903 938.629 588.907 937.396V900.503C588.907 899.886 589.152 899.295 589.588 898.859C590.024 898.424 590.615 898.179 591.231 898.178C591.584 898.179 591.933 898.26 592.251 898.414L600.477 902.44C601.027 902.717 601.664 902.764 602.249 902.571C602.834 902.378 603.318 901.961 603.595 901.411L603.602 901.393L611.937 884.762C612.214 884.212 612.263 883.575 612.072 882.989C611.881 882.403 611.465 881.917 610.917 881.637H610.905L590.169 871.354L589.319 872.388C585.223 878.037 576.177 881.981 565.628 881.981C558.086 881.981 551.323 879.97 546.584 876.762" stroke="#9E9EA3" stroke-width="2.654" stroke-miterlimit="10"/>
<path d="M343 1039.5C368.681 1039.5 389.5 1018.68 389.5 993C389.5 967.319 368.681 946.5 343 946.5C317.319 946.5 296.5 967.319 296.5 993C296.5 1018.68 317.319 1039.5 343 1039.5Z" stroke="#9E9EA3" stroke-width="3"/>
<path d="M569 601.5C593.577 601.5 613.5 581.577 613.5 557C613.5 532.423 593.577 512.5 569 512.5C544.423 512.5 524.5 532.423 524.5 557C524.5 581.577 544.423 601.5 569 601.5Z" stroke="#9E9EA3" stroke-width="3"/>
<path d="M148 753.5C172.577 753.5 192.5 733.577 192.5 709C192.5 684.423 172.577 664.5 148 664.5C123.423 664.5 103.5 684.423 103.5 709C103.5 733.577 123.423 753.5 148 753.5Z" stroke="#9E9EA3" stroke-width="3"/>
<g filter="url(#filter7_d_79_4165)">
<path d="M405.221 107.251C405.221 87.1251 411.189 67.4516 422.371 50.7179C433.552 33.9842 449.444 20.9419 468.038 13.2403C486.631 5.53865 507.091 3.52361 526.83 7.44996C546.569 11.3763 564.7 21.0677 578.931 35.2986C593.162 49.5295 602.853 67.6608 606.78 87.3996C610.706 107.138 608.691 127.598 600.989 146.192C593.288 164.786 580.245 180.678 563.512 191.859C546.778 203.04 527.104 209.008 506.979 209.009C479.991 209.009 454.109 198.288 435.025 179.204C415.942 160.121 405.221 134.239 405.221 107.251Z" fill="white"/>
</g>
<path d="M526.217 103.234C526.222 107.309 524.609 111.218 521.732 114.104C518.855 116.989 514.949 118.613 510.875 118.619H510.854C508.438 118.619 506.057 118.049 503.903 116.956C501.749 115.862 499.883 114.277 498.457 112.327C497.031 110.378 496.084 108.12 495.694 105.736C495.304 103.352 495.482 100.91 496.212 98.6077C496.943 96.3054 498.206 94.2078 499.9 92.4851C501.593 90.7625 503.668 89.4633 505.958 88.6931C508.247 87.9229 510.686 87.7033 513.076 88.0522C515.466 88.4011 517.74 89.3086 519.714 90.7011" stroke="#9E9EA3" stroke-width="3" stroke-miterlimit="10"/>
<path d="M542.68 95.8371C540.813 98.8421 540.041 102.399 540.494 105.908C541.034 109.661 542.921 113.09 545.802 115.555C548.683 118.02 552.362 119.354 556.153 119.308C559.108 119.327 562 118.457 564.454 116.81C566.907 115.164 568.809 112.817 569.911 110.075C570.909 107.727 571.31 105.169 571.078 102.628C570.846 100.087 569.989 97.6437 568.582 95.5151C567.176 93.3866 565.265 91.6393 563.019 90.4293C560.773 89.2194 558.262 88.5844 555.711 88.5811H534.78C532.509 88.5811 530.332 89.483 528.726 91.0885C527.121 92.694 526.219 94.8715 526.219 97.1421L526.21 125.342C526.212 129.417 524.594 133.326 521.714 136.209C518.834 139.091 514.926 140.711 510.851 140.713C506.776 140.715 502.867 139.097 499.985 136.217C497.102 133.337 495.482 129.429 495.48 125.354" stroke="#9E9EA3" stroke-width="3" stroke-miterlimit="10"/>
<path d="M464.744 111.03C462.683 107.515 462.102 103.325 463.13 99.3817C464.158 95.4386 466.711 92.0654 470.226 90.0041C473.741 87.9428 477.931 87.3624 481.874 88.3905C485.817 89.4185 489.191 91.9709 491.252 95.4861L491.262 95.5051C492.643 97.8694 493.368 100.56 493.361 103.298C493.354 106.037 492.615 108.724 491.221 111.081C489.827 113.438 487.829 115.38 485.433 116.705C483.036 118.031 480.329 118.692 477.592 118.62L457.177 118.625C453.379 118.62 449.738 117.107 447.054 114.42C444.37 111.733 442.862 108.09 442.861 104.292V71.8921" stroke="#9E9EA3" stroke-width="3" stroke-miterlimit="10"/>
<defs>
<filter id="filter0_d_79_4165" x="0" y="346" width="162.428" height="162.428" filterUnits="userSpaceOnUse" color-interpolation-filters="sRGB">
<feFlood flood-opacity="0" result="BackgroundImageFix"/>
<feColorMatrix in="SourceAlpha" type="matrix" values="0 0 0 0 0 0 0 0 0 0 0 0 0 0 0 0 0 0 127 0" result="hardAlpha"/>
<feOffset dx="12" dy="12"/>
<feGaussianBlur stdDeviation="8.5"/>
<feColorMatrix type="matrix" values="0 0 0 0 1 0 0 0 0 0.372549 0 0 0 0 0.419608 0 0 0 0.169 0"/>
<feBlend mode="normal" in2="BackgroundImageFix" result="effect1_dropShadow_79_4165"/>
<feBlend mode="normal" in="SourceGraphic" in2="effect1_dropShadow_79_4165" result="shape"/>
</filter>
<filter id="filter1_d_79_4165" x="348" y="652" width="168.4" height="168.4" filterUnits="userSpaceOnUse" color-interpolation-filters="sRGB">
<feFlood flood-opacity="0" result="BackgroundImageFix"/>
<feColorMatrix in="SourceAlpha" type="matrix" values="0 0 0 0 0 0 0 0 0 0 0 0 0 0 0 0 0 0 127 0" result="hardAlpha"/>
<feOffset dx="12" dy="12"/>
<feGaussianBlur stdDeviation="8.5"/>
<feColorMatrix type="matrix" values="0 0 0 0 0.278431 0 0 0 0 0.278431 0 0 0 0 0.780392 0 0 0 0.149 0"/>
<feBlend mode="normal" in2="BackgroundImageFix" result="effect1_dropShadow_79_4165"/>
<feBlend mode="normal" in="SourceGraphic" in2="effect1_dropShadow_79_4165" result="shape"/>
</filter>
<filter id="filter2_d_79_4165" x="70" y="934" width="156.426" height="156.426" filterUnits="userSpaceOnUse" color-interpolation-filters="sRGB">
<feFlood flood-opacity="0" result="BackgroundImageFix"/>
<feColorMatrix in="SourceAlpha" type="matrix" values="0 0 0 0 0 0 0 0 0 0 0 0 0 0 0 0 0 0 127 0" result="hardAlpha"/>
<feOffset dx="12" dy="12"/>
<feGaussianBlur stdDeviation="8.5"/>
<feColorMatrix type="matrix" values="0 0 0 0 0.278431 0 0 0 0 0.278431 0 0 0 0 0.780392 0 0 0 0.149 0"/>
<feBlend mode="normal" in2="BackgroundImageFix" result="effect1_dropShadow_79_4165"/>
<feBlend mode="normal" in="SourceGraphic" in2="effect1_dropShadow_79_4165" result="shape"/>
</filter>
<filter id="filter3_d_79_4165" x="348" y="320" width="187.984" height="187.984" filterUnits="userSpaceOnUse" color-interpolation-filters="sRGB">
<feFlood flood-opacity="0" result="BackgroundImageFix"/>
<feColorMatrix in="SourceAlpha" type="matrix" values="0 0 0 0 0 0 0 0 0 0 0 0 0 0 0 0 0 0 127 0" result="hardAlpha"/>
<feOffset dx="12" dy="12"/>
<feGaussianBlur stdDeviation="8.5"/>
<feColorMatrix type="matrix" values="0 0 0 0 0 0 0 0 0 0.784314 0 0 0 0 0.784314 0 0 0 0.149 0"/>
<feBlend mode="normal" in2="BackgroundImageFix" result="effect1_dropShadow_79_4165"/>
<feBlend mode="normal" in="SourceGraphic" in2="effect1_dropShadow_79_4165" result="shape"/>
</filter>
<filter id="filter4_d_79_4165" x="398.058" y="1199.06" width="189.942" height="189.942" filterUnits="userSpaceOnUse" color-interpolation-filters="sRGB">
<feFlood flood-opacity="0" result="BackgroundImageFix"/>
<feColorMatrix in="SourceAlpha" type="matrix" values="0 0 0 0 0 0 0 0 0 0 0 0 0 0 0 0 0 0 127 0" result="hardAlpha"/>
<feOffset dx="12" dy="12"/>
<feGaussianBlur stdDeviation="8.5"/>
<feColorMatrix type="matrix" values="0 0 0 0 0 0 0 0 0 0 0 0 0 0 0 0 0 0 0.161 0"/>
<feBlend mode="normal" in2="BackgroundImageFix" result="effect1_dropShadow_79_4165"/>
<feBlend mode="normal" in="SourceGraphic" in2="effect1_dropShadow_79_4165" result="shape"/>
</filter>
<filter id="filter5_d_79_4165" x="87" y="54" width="174.224" height="174.224" filterUnits="userSpaceOnUse" color-interpolation-filters="sRGB">
<feFlood flood-opacity="0" result="BackgroundImageFix"/>
<feColorMatrix in="SourceAlpha" type="matrix" values="0 0 0 0 0 0 0 0 0 0 0 0 0 0 0 0 0 0 127 0" result="hardAlpha"/>
<feOffset dx="12" dy="12"/>
<feGaussianBlur stdDeviation="8.5"/>
<feColorMatrix type="matrix" values="0 0 0 0 0 0 0 0 0 0 0 0 0 0 0 0 0 0 0.161 0"/>
<feBlend mode="normal" in2="BackgroundImageFix" result="effect1_dropShadow_79_4165"/>
<feBlend mode="normal" in="SourceGraphic" in2="effect1_dropShadow_79_4165" result="shape"/>
</filter>
<filter id="filter6_d_79_4165" x="486" y="825" width="183.31" height="183.31" filterUnits="userSpaceOnUse" color-interpolation-filters="sRGB">
<feFlood flood-opacity="0" result="BackgroundImageFix"/>
<feColorMatrix in="SourceAlpha" type="matrix" values="0 0 0 0 0 0 0 0 0 0 0 0 0 0 0 0 0 0 127 0" result="hardAlpha"/>
<feOffset dx="12" dy="12"/>
<feGaussianBlur stdDeviation="8.5"/>
<feColorMatrix type="matrix" values="0 0 0 0 0 0 0 0 0 0 0 0 0 0 0 0 0 0 0.161 0"/>
<feBlend mode="normal" in2="BackgroundImageFix" result="effect1_dropShadow_79_4165"/>
<feBlend mode="normal" in="SourceGraphic" in2="effect1_dropShadow_79_4165" result="shape"/>
</filter>
<filter id="filter7_d_79_4165" x="400.221" y="0.494629" width="237.514" height="237.514" filterUnits="userSpaceOnUse" color-interpolation-filters="sRGB">
<feFlood flood-opacity="0" result="BackgroundImageFix"/>
<feColorMatrix in="SourceAlpha" type="matrix" values="0 0 0 0 0 0 0 0 0 0 0 0 0 0 0 0 0 0 127 0" result="hardAlpha"/>
<feOffset dx="12" dy="12"/>
<feGaussianBlur stdDeviation="8.5"/>
<feColorMatrix type="matrix" values="0 0 0 0 1 0 0 0 0 0.372549 0 0 0 0 0.419608 0 0 0 0.271 0"/>
<feBlend mode="normal" in2="BackgroundImageFix" result="effect1_dropShadow_79_4165"/>
<feBlend mode="normal" in="SourceGraphic" in2="effect1_dropShadow_79_4165" result="shape"/>
</filter>
</defs>
</svg>
