<svg width="226" height="226" viewBox="0 0 226 226" fill="none" xmlns="http://www.w3.org/2000/svg">
<g filter="url(#filter0_d_664_337)">
<path d="M202 106C202 159.019 159.019 202 106 202C52.9807 202 10 159.019 10 106C10 52.9807 52.9807 10 106 10C159.019 10 202 52.9807 202 106Z" fill="#13192E"/>
<path d="M59.1869 134.628V123.55H60.7404V134.628H59.1869ZM63.4704 123.55H64.9925V132.384C64.9925 133.075 65.2383 133.42 65.73 133.42C65.9078 133.42 66.0805 133.389 66.2478 133.326V134.691C66.0386 134.775 65.8032 134.817 65.5417 134.817C64.9454 134.817 64.4485 134.649 64.051 134.315C63.6639 133.98 63.4704 133.425 63.4704 132.651V123.55ZM67.9297 123.55H69.4518V132.384C69.4518 133.075 69.6977 133.42 70.1894 133.42C70.3672 133.42 70.5398 133.389 70.7072 133.326V134.691C70.498 134.775 70.2626 134.817 70.001 134.817C69.4048 134.817 68.9078 134.649 68.5103 134.315C68.1232 133.98 67.9297 133.425 67.9297 132.651V123.55ZM75.326 134.817C74.4054 134.817 73.6627 134.524 73.0978 133.938C72.5329 133.342 72.2504 132.526 72.2504 131.49V126.688H73.7725V131.427C73.7725 132.055 73.9504 132.547 74.306 132.902C74.6617 133.248 75.1063 133.42 75.6399 133.42C76.0269 133.42 76.3722 133.336 76.6755 133.169C76.9789 133.002 77.2143 132.782 77.3817 132.51C77.5491 132.238 77.6694 131.95 77.7426 131.647C77.8263 131.344 77.8681 131.035 77.8681 130.721V126.688H79.3903V134.628H77.8995V133.436C77.3974 134.356 76.5395 134.817 75.326 134.817ZM81.262 133.059L82.3761 132.259C82.9097 133.064 83.574 133.467 84.369 133.467C84.8189 133.467 85.1745 133.389 85.4361 133.232C85.6976 133.064 85.8284 132.845 85.8284 132.573C85.8284 132.28 85.7081 132.044 85.4675 131.867C85.2373 131.689 84.7666 131.485 84.0552 131.255C83.1974 130.983 82.5697 130.664 82.1721 130.297C81.7746 129.921 81.5758 129.419 81.5758 128.791C81.5758 128.174 81.8478 127.64 82.3918 127.19C82.9358 126.73 83.6106 126.5 84.4161 126.5C85.6715 126.5 86.5868 127.013 87.1622 128.038L86.0638 128.854C85.6244 128.174 85.0542 127.834 84.3533 127.834C83.9663 127.834 83.6524 127.923 83.4118 128.101C83.1817 128.268 83.0666 128.488 83.0666 128.76C83.0666 129.011 83.1817 129.225 83.4118 129.403C83.642 129.57 84.0709 129.759 84.6986 129.968C85.6296 130.282 86.2991 130.627 86.7071 131.004C87.1151 131.38 87.3191 131.893 87.3191 132.541C87.3191 133.2 87.0419 133.744 86.4874 134.173C85.933 134.602 85.2321 134.817 84.3847 134.817C83.7047 134.817 83.0823 134.66 82.5174 134.346C81.9525 134.032 81.534 133.603 81.262 133.059ZM88.4618 126.688H89.7015V124.507H91.1765V126.688H93.2165V127.959H91.1765V132.102C91.1765 132.97 91.6054 133.404 92.4633 133.404C92.8085 133.404 93.1223 133.321 93.4048 133.153V134.55C93.1014 134.728 92.6777 134.817 92.1337 134.817C91.3596 134.817 90.7528 134.597 90.3135 134.158C89.8741 133.708 89.6544 133.085 89.6544 132.29V127.959H88.4618V126.688ZM95.1171 126.688H96.6078V128.085C96.8066 127.593 97.1047 127.206 97.5022 126.924C97.8998 126.641 98.3601 126.5 98.8831 126.5C99.0819 126.5 99.2441 126.521 99.3696 126.563V128.053C99.2859 128.033 99.1813 128.022 99.0558 128.022C98.3235 128.022 97.7376 128.268 97.2982 128.76C96.8589 129.241 96.6392 129.884 96.6392 130.69V134.628H95.1171V126.688ZM100.251 132.526C100.251 131.27 101.109 130.475 102.824 130.141L105.304 129.654V129.497C105.304 128.985 105.142 128.582 104.817 128.289C104.493 127.996 104.038 127.849 103.452 127.849C102.573 127.849 101.836 128.189 101.24 128.869L100.455 127.865C101.24 126.955 102.286 126.5 103.593 126.5C104.587 126.5 105.372 126.777 105.947 127.332C106.533 127.876 106.826 128.618 106.826 129.56V134.628H105.414V133.404C104.849 134.346 103.986 134.817 102.824 134.817C102.082 134.817 101.464 134.602 100.973 134.173C100.492 133.734 100.251 133.185 100.251 132.526ZM101.742 132.432C101.742 132.756 101.867 133.023 102.118 133.232C102.369 133.431 102.688 133.53 103.075 133.53C103.703 133.53 104.242 133.31 104.692 132.871C105.142 132.421 105.367 131.914 105.367 131.349V130.847L103.091 131.286C102.61 131.38 102.265 131.521 102.055 131.71C101.846 131.888 101.742 132.128 101.742 132.432ZM108.337 126.688H109.577V124.507H111.052V126.688H113.092V127.959H111.052V132.102C111.052 132.97 111.481 133.404 112.339 133.404C112.684 133.404 112.998 133.321 113.28 133.153V134.55C112.977 134.728 112.553 134.817 112.009 134.817C111.235 134.817 110.628 134.597 110.189 134.158C109.75 133.708 109.53 133.085 109.53 132.29V127.959H108.337V126.688ZM114.993 126.688H116.515V134.628H114.993V126.688ZM115.087 125.009C114.898 124.81 114.804 124.58 114.804 124.319C114.804 124.057 114.898 123.832 115.087 123.644C115.275 123.456 115.5 123.362 115.761 123.362C116.023 123.362 116.248 123.456 116.436 123.644C116.625 123.832 116.719 124.057 116.719 124.319C116.719 124.58 116.625 124.81 116.436 125.009C116.248 125.198 116.023 125.292 115.761 125.292C115.5 125.292 115.275 125.198 115.087 125.009ZM125.548 133.624C124.764 134.419 123.786 134.817 122.614 134.817C121.442 134.817 120.464 134.419 119.68 133.624C118.895 132.819 118.503 131.83 118.503 130.658C118.503 129.487 118.895 128.503 119.68 127.708C120.464 126.903 121.442 126.5 122.614 126.5C123.786 126.5 124.764 126.903 125.548 127.708C126.333 128.503 126.725 129.487 126.725 130.658C126.725 131.83 126.333 132.819 125.548 133.624ZM120.778 128.744C120.297 129.267 120.056 129.905 120.056 130.658C120.056 131.412 120.297 132.055 120.778 132.588C121.259 133.112 121.871 133.373 122.614 133.373C123.357 133.373 123.969 133.112 124.45 132.588C124.931 132.055 125.172 131.412 125.172 130.658C125.172 129.905 124.931 129.267 124.45 128.744C123.969 128.21 123.357 127.944 122.614 127.944C121.871 127.944 121.259 128.21 120.778 128.744ZM128.723 134.628V126.688H130.214V127.881C130.716 126.96 131.574 126.5 132.787 126.5C133.708 126.5 134.451 126.798 135.016 127.394C135.58 127.98 135.863 128.791 135.863 129.827V134.628H134.341V129.889C134.341 129.262 134.163 128.775 133.807 128.43C133.452 128.074 133.007 127.897 132.473 127.897C132.086 127.897 131.741 127.98 131.438 128.148C131.134 128.315 130.899 128.535 130.732 128.807C130.564 129.079 130.439 129.366 130.355 129.67C130.282 129.973 130.245 130.282 130.245 130.596V134.628H128.723ZM145.519 134.817C144.442 134.817 143.516 134.539 142.742 133.985C141.968 133.42 141.581 132.677 141.581 131.757C141.581 131.129 141.779 130.575 142.177 130.093C142.585 129.602 143.192 129.115 143.997 128.634C143.547 128.142 143.218 127.703 143.009 127.316C142.799 126.929 142.695 126.505 142.695 126.045C142.695 125.334 142.967 124.711 143.511 124.178C144.065 123.634 144.777 123.362 145.645 123.362C146.503 123.362 147.204 123.628 147.748 124.162C148.302 124.685 148.579 125.297 148.579 125.998C148.579 126.552 148.396 127.044 148.03 127.473C147.664 127.891 147.052 128.362 146.194 128.885L148.642 131.506C149.123 130.637 149.306 129.685 149.191 128.65H150.698C150.855 130.146 150.53 131.48 149.725 132.651L151.576 134.628H149.615L148.752 133.703C147.821 134.445 146.743 134.817 145.519 134.817ZM143.181 131.694C143.171 132.217 143.406 132.625 143.887 132.918C144.379 133.2 144.934 133.342 145.551 133.342C146.367 133.342 147.089 133.096 147.716 132.604L144.954 129.67C144.369 130.015 143.929 130.339 143.636 130.643C143.343 130.946 143.192 131.296 143.181 131.694ZM145.645 124.742C145.216 124.742 144.86 124.868 144.578 125.119C144.306 125.37 144.17 125.674 144.17 126.029C144.17 126.354 144.248 126.641 144.405 126.892C144.573 127.143 144.85 127.468 145.237 127.865C145.917 127.468 146.398 127.138 146.681 126.877C146.963 126.615 147.104 126.327 147.104 126.014C147.104 125.668 146.963 125.37 146.681 125.119C146.409 124.868 146.063 124.742 145.645 124.742ZM75.9872 153.169C74.8992 152.071 74.3552 150.711 74.3552 149.089C74.3552 147.468 74.8992 146.108 75.9872 145.009C77.0856 143.911 78.4194 143.362 79.9886 143.362C81.8821 143.362 83.4043 144.115 84.555 145.621L83.4095 146.673C82.5621 145.48 81.4218 144.884 79.9886 144.884C78.8379 144.884 77.8754 145.286 77.1013 146.092C76.3376 146.887 75.9558 147.886 75.9558 149.089C75.9558 150.292 76.3376 151.296 77.1013 152.102C77.8754 152.897 78.8379 153.295 79.9886 153.295C81.3904 153.295 82.5098 152.74 83.3467 151.631V150.203H80.5535V148.854H84.8061V152.228C84.2621 153.012 83.5769 153.64 82.7504 154.111C81.924 154.581 81.0034 154.817 79.9886 154.817C78.4194 154.817 77.0856 154.268 75.9872 153.169ZM86.9493 146.688H88.44V148.085C88.6388 147.593 88.9369 147.206 89.3344 146.924C89.732 146.641 90.1923 146.5 90.7153 146.5C90.9141 146.5 91.0762 146.521 91.2018 146.563V148.053C91.1181 148.033 91.0135 148.022 90.8879 148.022C90.1557 148.022 89.5698 148.268 89.1304 148.76C88.6911 149.241 88.4714 149.884 88.4714 150.69V154.628H86.9493V146.688ZM92.0831 152.526C92.0831 151.27 92.9409 150.475 94.6566 150.141L97.1359 149.654V149.497C97.1359 148.985 96.9738 148.582 96.6495 148.289C96.3252 147.996 95.8701 147.849 95.2843 147.849C94.4055 147.849 93.668 148.189 93.0717 148.869L92.2871 147.865C93.0717 146.955 94.1178 146.5 95.4255 146.5C96.4193 146.5 97.2039 146.777 97.7793 147.332C98.3651 147.876 98.6581 148.618 98.6581 149.56V154.628H97.2458V153.404C96.6809 154.346 95.8178 154.817 94.6566 154.817C93.9138 154.817 93.2966 154.602 92.8049 154.173C92.3237 153.734 92.0831 153.185 92.0831 152.526ZM93.5739 152.432C93.5739 152.756 93.6994 153.023 93.9505 153.232C94.2015 153.431 94.5206 153.53 94.9077 153.53C95.5354 153.53 96.0741 153.31 96.5239 152.871C96.9738 152.421 97.1987 151.914 97.1987 151.349V150.847L94.9234 151.286C94.4421 151.38 94.0969 151.521 93.8877 151.71C93.6785 151.888 93.5739 152.128 93.5739 152.432ZM101.109 146.688H102.568V147.849C102.819 147.462 103.191 147.143 103.682 146.892C104.184 146.631 104.708 146.5 105.252 146.5C106.319 146.5 107.213 146.892 107.935 147.677C108.657 148.461 109.018 149.455 109.018 150.658C109.018 151.861 108.657 152.855 107.935 153.64C107.213 154.424 106.319 154.817 105.252 154.817C104.728 154.817 104.221 154.696 103.729 154.456C103.238 154.215 102.872 153.912 102.631 153.546V157.767H101.109V146.688ZM103.259 148.681C102.777 149.194 102.537 149.853 102.537 150.658C102.537 151.464 102.777 152.128 103.259 152.651C103.74 153.164 104.32 153.42 105 153.42C105.68 153.42 106.261 153.164 106.742 152.651C107.234 152.128 107.48 151.464 107.48 150.658C107.48 149.853 107.234 149.194 106.742 148.681C106.261 148.158 105.68 147.897 105 147.897C104.32 147.897 103.74 148.158 103.259 148.681ZM111.024 143.55H112.546V147.787C113.1 146.929 113.948 146.5 115.088 146.5C115.987 146.5 116.725 146.798 117.3 147.394C117.876 147.991 118.163 148.801 118.163 149.827V154.628H116.641V149.889C116.641 149.262 116.463 148.775 116.108 148.43C115.752 148.074 115.308 147.897 114.774 147.897C114.021 147.897 113.461 148.153 113.095 148.665C112.729 149.168 112.546 149.759 112.546 150.439V154.628H111.024V143.55ZM120.647 146.688H122.169V154.628H120.647V146.688ZM120.741 145.009C120.553 144.81 120.459 144.58 120.459 144.319C120.459 144.057 120.553 143.832 120.741 143.644C120.93 143.456 121.155 143.362 121.416 143.362C121.678 143.362 121.903 143.456 122.091 143.644C122.279 143.832 122.373 144.057 122.373 144.319C122.373 144.58 122.279 144.81 122.091 145.009C121.903 145.198 121.678 145.292 121.416 145.292C121.155 145.292 120.93 145.198 120.741 145.009ZM124.142 150.643C124.142 149.481 124.544 148.503 125.35 147.708C126.156 146.903 127.134 146.5 128.284 146.5C129.634 146.5 130.691 147.054 131.454 148.163L130.45 149.136C129.885 148.32 129.158 147.912 128.269 147.912C127.526 147.912 126.909 148.179 126.417 148.713C125.936 149.236 125.695 149.884 125.695 150.658C125.695 151.432 125.936 152.086 126.417 152.62C126.909 153.143 127.521 153.404 128.253 153.404C129.247 153.404 130.016 153.002 130.56 152.196L131.58 153.153C131.224 153.676 130.759 154.084 130.183 154.377C129.608 154.67 128.975 154.817 128.284 154.817C127.123 154.817 126.14 154.414 125.334 153.608C124.539 152.803 124.142 151.814 124.142 150.643ZM132.567 153.059L133.682 152.259C134.215 153.064 134.879 153.467 135.674 153.467C136.124 153.467 136.48 153.389 136.742 153.232C137.003 153.064 137.134 152.845 137.134 152.573C137.134 152.28 137.014 152.044 136.773 151.867C136.543 151.689 136.072 151.485 135.361 151.255C134.503 150.983 133.875 150.664 133.478 150.297C133.08 149.921 132.881 149.419 132.881 148.791C132.881 148.174 133.153 147.64 133.697 147.19C134.241 146.73 134.916 146.5 135.722 146.5C136.977 146.5 137.892 147.013 138.468 148.038L137.369 148.854C136.93 148.174 136.36 147.834 135.659 147.834C135.272 147.834 134.958 147.923 134.717 148.101C134.487 148.268 134.372 148.488 134.372 148.76C134.372 149.011 134.487 149.225 134.717 149.403C134.947 149.57 135.376 149.759 136.004 149.968C136.935 150.282 137.605 150.627 138.013 151.004C138.421 151.38 138.625 151.893 138.625 152.541C138.625 153.2 138.347 153.744 137.793 154.173C137.238 154.602 136.538 154.817 135.69 154.817C135.01 154.817 134.388 154.66 133.823 154.346C133.258 154.032 132.839 153.603 132.567 153.059Z" fill="white"/>
<path d="M98.2803 63.5152L114.28 48.231M98.4631 55.2765L82.3123 41.0329C81.214 40.2596 79.8788 39.8972 78.5404 40.0091C77.2019 40.121 75.9454 40.7001 74.9909 41.645C74.0363 42.5898 73.4444 43.8403 73.3188 45.1776C73.1933 46.5148 73.542 47.8537 74.304 48.9597L91.4277 69.1654C91.4277 69.1654 91.5831 69.3574 91.84 69.6592C88.7488 72.6032 80.4014 80.5474 80.4014 80.5474C79.0241 81.8658 77.9966 83.5062 77.4117 85.3209C77.4117 85.3209 72.3831 103.067 73.1694 103.771C73.9475 104.712 91.9123 100.534 91.9123 100.534C93.7553 100.042 95.4441 99.0925 96.822 97.7734L107.948 87.1677C107.948 87.3122 107.948 87.4667 107.955 87.5993C108.152 94.3229 112.942 98.119 120.558 99.4036C128.174 100.688 138.238 99.1156 139.047 96.9515C139.7 95.2144 137.757 94.2818 135.514 92.6964C134.586 92.0315 133.825 91.1597 133.293 90.1499C132.76 89.1401 132.47 88.0202 132.445 86.8788C132.329 83.7879 131.049 80.8551 128.862 78.668C126.675 76.4808 123.742 75.2009 120.651 75.0845L127.747 68.327L137.155 59.3579C137.944 58.6075 138.578 57.7088 139.019 56.7133C139.461 55.7177 139.701 54.6449 139.728 53.5561C139.754 52.4674 139.565 51.3841 139.173 50.3684C138.78 49.3527 138.19 48.4244 137.438 47.6368L132.464 42.407C131.713 41.6178 130.814 40.9844 129.817 40.5429C128.821 40.1015 127.747 39.8608 126.658 39.8345C125.569 39.8081 124.485 39.9968 123.468 40.3895C122.452 40.7823 121.523 41.3716 120.734 42.1236L114.316 48.2402L125.269 59.7328" stroke="white" stroke-width="1.9615" stroke-linejoin="round"/>
</g>
<defs>
<filter id="filter0_d_664_337" x="0" y="0" width="226" height="226" filterUnits="userSpaceOnUse" color-interpolation-filters="sRGB">
<feFlood flood-opacity="0" result="BackgroundImageFix"/>
<feColorMatrix in="SourceAlpha" type="matrix" values="0 0 0 0 0 0 0 0 0 0 0 0 0 0 0 0 0 0 127 0" result="hardAlpha"/>
<feOffset dx="7" dy="7"/>
<feGaussianBlur stdDeviation="8.5"/>
<feComposite in2="hardAlpha" operator="out"/>
<feColorMatrix type="matrix" values="0 0 0 0 0.278431 0 0 0 0 0.278431 0 0 0 0 0.780392 0 0 0 0.22 0"/>
<feBlend mode="normal" in2="BackgroundImageFix" result="effect1_dropShadow_664_337"/>
<feBlend mode="normal" in="SourceGraphic" in2="effect1_dropShadow_664_337" result="shape"/>
</filter>
</defs>
</svg>
