<svg width="70" height="67" viewBox="0 0 70 67" fill="none" xmlns="http://www.w3.org/2000/svg">
<path d="M27.089 25.1121L42.952 9.95919M27.274 16.9451L11.257 2.8232C10.1686 2.05417 8.84401 1.69338 7.51599 1.8044C6.18797 1.91542 4.94161 2.49107 3.99603 3.43013C3.05069 4.36734 2.46468 5.60697 2.34039 6.93233C2.2161 8.25769 2.56143 9.58449 3.31604 10.6811L20.293 30.7132C20.293 30.7132 20.447 30.9032 20.701 31.2032C17.637 34.1222 9.36102 42.0031 9.36102 42.0031C7.99509 43.3096 6.97639 44.936 6.39703 46.7352C6.39703 46.7352 1.41204 64.3292 2.19104 65.0272C2.96204 65.9612 20.7731 61.8182 20.7731 61.8182C22.6004 61.3306 24.2749 60.3891 25.641 59.0811L36.671 48.5672C36.671 48.7102 36.6711 48.8672 36.6771 48.9952C36.8771 55.6612 41.6211 59.4251 49.1771 60.6951C56.7331 61.9651 66.705 60.4091 67.508 58.2641C68.155 56.5381 66.2291 55.6171 64.0081 54.0451C63.088 53.3858 62.3342 52.5214 61.8061 51.5202C61.2781 50.5191 60.9905 49.4088 60.9661 48.2772C60.8523 45.2104 59.5831 42.3001 57.4131 40.1301C55.2431 37.9601 52.3328 36.6908 49.266 36.5771L56.301 29.8772L65.628 20.9852C66.4103 20.2411 67.0381 19.3502 67.4757 18.3632C67.9133 17.3763 68.1519 16.3128 68.178 15.2335C68.2041 14.1542 68.0171 13.0804 67.6278 12.0734C67.2385 11.0665 66.6544 10.1462 65.9091 9.36519L60.978 4.18013C60.2331 3.39757 59.3413 2.76956 58.3535 2.33187C57.3657 1.89418 56.3014 1.65545 55.2213 1.62935C54.1412 1.60326 53.0665 1.79029 52.0588 2.17977C51.051 2.56924 50.1298 3.15345 49.348 3.89913L42.985 9.96321L53.8441 21.3571" stroke="#00C8C8" stroke-width="3" stroke-linejoin="round"/>
</svg>
