<svg width="81" height="88" viewBox="0 0 81 88" fill="none" xmlns="http://www.w3.org/2000/svg">
<path d="M78.576 14.7177V8.60767C78.576 6.92487 77.9076 5.31101 76.7177 4.12109C75.5277 2.93118 73.9138 2.2627 72.231 2.2627H8.53107C7.69783 2.2627 6.87272 2.42686 6.10291 2.74573C5.33309 3.06459 4.63362 3.53191 4.04443 4.12109C3.45525 4.71028 2.98787 5.40975 2.66901 6.17957C2.35014 6.94938 2.18604 7.77443 2.18604 8.60767V79.9497C2.18604 80.7829 2.35014 81.608 2.66901 82.3778C2.98787 83.1476 3.45525 83.8471 4.04443 84.4363C4.63362 85.0255 5.33309 85.4929 6.10291 85.8118C6.87272 86.1306 7.69783 86.2947 8.53107 86.2947H72.231C73.9138 86.2947 75.5277 85.6262 76.7177 84.4363C77.9076 83.2464 78.576 81.6325 78.576 79.9497V25.2627H14.946C14.5885 25.2325 14.2335 25.344 13.9574 25.5731C13.6813 25.8023 13.5063 26.1307 13.4701 26.4877V69.2167C13.5063 69.5736 13.6813 69.9021 13.9574 70.1312C14.2335 70.3604 14.5885 70.4718 14.946 70.4417H65.3401C65.6976 70.4718 66.0526 70.3604 66.3287 70.1312C66.6048 69.9021 66.7798 69.5736 66.816 69.2167V33.7297" stroke="#00C8C8" stroke-width="3" stroke-linejoin="round"/>
</svg>
