<svg width="107" height="87" viewBox="0 0 107 87" fill="none" xmlns="http://www.w3.org/2000/svg">
<path d="M72.294 2.2627C69.061 6.7337 61.905 9.8537 53.555 9.8537C45.205 9.8537 38.055 6.7327 34.817 2.2627L3.4971 17.7887C2.88717 18.096 2.42305 18.6316 2.20584 19.2791C1.98863 19.9266 2.03584 20.6337 2.33707 21.2467L11.537 39.6617C11.8443 40.2716 12.38 40.7356 13.0275 40.9528C13.675 41.17 14.3821 41.1229 14.995 40.8217L24.095 36.3657C24.3979 36.2164 24.7274 36.1284 25.0644 36.1069C25.4014 36.0855 25.7393 36.1309 26.0586 36.2405C26.378 36.3502 26.6725 36.522 26.9252 36.746C27.1779 36.97 27.3838 37.2418 27.531 37.5457C27.7067 37.8993 27.7981 38.2889 27.798 38.6837V79.4787C27.797 80.1541 27.9292 80.823 28.1869 81.4472C28.4447 82.0714 28.823 82.6388 29.3002 83.1166C29.7774 83.5945 30.3442 83.9736 30.9681 84.2322C31.5919 84.4908 32.2607 84.6239 32.9361 84.6237H74.1241C75.4881 84.6235 76.7964 84.0823 77.7622 83.119C78.7279 82.1557 79.2723 80.8487 79.276 79.4847V38.6627C79.2763 37.9805 79.5475 37.3262 80.03 36.8439C80.5125 36.3616 81.1668 36.0907 81.849 36.0907C82.2384 36.0924 82.6225 36.1812 82.9731 36.3507L92.073 40.8067C92.6816 41.113 93.387 41.1652 94.034 40.9518C94.6811 40.7385 95.217 40.2769 95.524 39.6687L95.531 39.6477L104.753 21.2477C105.06 20.6387 105.113 19.9331 104.9 19.2852C104.688 18.6372 104.228 18.0995 103.621 17.7897H103.607L80.666 6.41071L79.7231 7.55566C75.2021 13.8067 65.196 18.1697 53.523 18.1697C45.177 18.1697 37.694 15.9447 32.451 12.3957" stroke="#00C8C8" stroke-width="3" stroke-miterlimit="10"/>
</svg>
