<svg width="75" height="84" viewBox="0 0 75 84" fill="none" xmlns="http://www.w3.org/2000/svg">
<path d="M61.9493 71.9308H17.1982C15.9414 72.0057 14.7062 71.5786 13.7642 70.7432C12.8221 69.9078 12.2502 68.7326 12.1742 67.4758C12.1625 67.285 12.1625 67.0936 12.1742 66.9028C12.1772 65.571 12.7073 64.2945 13.6488 63.3524C14.5903 62.4104 15.8664 61.8795 17.1982 61.8758H61.6692L68.8832 62.0118V73.8118C68.8832 73.8118 72.4253 74.2818 72.5023 75.4498V78.0778C72.4849 79.1295 72.0512 80.1315 71.2964 80.864C70.5415 81.5966 69.5271 82 68.4753 81.9858H16.6533C12.7252 81.9117 8.98726 80.2814 6.26043 77.4531C3.5336 74.6249 2.04089 70.8299 2.11022 66.9018V16.6188C2.11022 16.4368 2.11024 16.2608 2.11724 16.0778C2.18899 12.149 3.81853 8.40962 6.64733 5.68228C9.47613 2.95494 13.2724 1.46308 17.2012 1.53482H68.4813C69.0222 1.48549 69.5674 1.55589 70.0781 1.74099C70.5887 1.92609 71.0524 2.22132 71.4361 2.6058C71.8198 2.99028 72.1142 3.45455 72.2983 3.9656C72.4824 4.47665 72.5517 5.02192 72.5013 5.56277V54.7428" stroke="#00C8C8" stroke-width="3" stroke-miterlimit="10"/>
</svg>
