<svg width="560" height="510" viewBox="0 0 560 510" fill="none" xmlns="http://www.w3.org/2000/svg">
<path d="M63.0648 507.186C45.2492 483.801 34.6307 454.607 34.4716 422.846C34.2763 383.714 50.0955 348.278 75.7665 322.723C94.0161 304.552 95.7666 275.569 79.6074 255.511C59.8894 231.019 47.9617 199.988 47.6 166.187C46.7465 86.0055 112.468 19.5459 192.649 19.5459C221.091 19.5459 247.615 27.734 270.002 41.8751C291.709 55.5822 317.576 61.0433 343.066 57.9837C349.127 57.2531 355.312 56.9131 361.59 56.9855C438.639 57.8462 500.795 121.188 500.274 198.245C500.151 216.01 496.73 232.986 490.589 248.596C481.106 272.704 488.072 300.184 507.718 317.066C539.674 344.524 559.935 385.204 560 430.622C560.043 458.557 552.383 484.748 539.038 507.201H63.0648V507.186Z" fill="#4747C7" fill-opacity="0.22"/>
<path d="M251.724 369.797H407.797V507.056H251.724V369.797Z" fill="#474BC0" fill-opacity="0.2"/>
<path d="M189.98 135.591C190.168 117.927 205.076 101.356 223.007 97.9777C228.208 97.0012 232.577 93.37 234.24 88.3429C237.763 77.681 246.79 69.4495 258.472 66.5634C265.061 64.9359 270.848 60.9938 274.978 55.605L285.076 42.4259L360.223 39.3662L366.682 53.4422C370.277 59.5833 377.134 63.1204 384.201 62.303C386.009 62.0932 387.998 62.0426 390.103 62.2524C407.167 63.9811 420.838 77.4278 421.185 94.5708C421.199 95.1784 421.192 95.7787 421.17 96.3791C421.026 100.632 424.288 104.133 428.541 104.191C428.686 104.191 428.838 104.191 428.982 104.198C451.254 104.726 469.315 122.947 469.641 145.226C469.952 166.072 454.95 183.468 435.167 186.911C417.127 190.68 314.515 212.148 314.024 212.886C313.553 213.588 236.83 181.356 216.251 172.698C200.844 167.468 189.799 152.806 189.987 135.591H189.98Z" fill="#4747C7"/>
<path d="M471.29 205.729L415.42 120.16C401.438 98.7489 377.597 85.8447 352.028 85.8447H286.118C263.817 85.8447 242.689 95.805 228.497 113.006L180.656 171.002L225.315 224.919L255.767 169.454L243.181 279.77L398.653 307.748L389.554 213.78L471.29 205.729Z" fill="#F5F7FA" fill-opacity="0.9" stroke="#4747C7" stroke-width="0.294404" stroke-miterlimit="10"/>
<path d="M258.284 126.574L255.767 169.453" stroke="#4747C7" stroke-width="0.294404" stroke-miterlimit="10"/>
<path d="M384.332 129.446L389.554 213.779" stroke="#4747C7" stroke-width="0.294404" stroke-miterlimit="10"/>
<path d="M407.955 110.522L385.829 153.669" stroke="#4747C7" stroke-width="0.294404" stroke-miterlimit="10"/>
<path d="M256.888 150.33L232.519 108.521" stroke="#4747C7" stroke-width="0.294404" stroke-miterlimit="10"/>
<path d="M96.772 127.056C87.5479 127.056 80.0703 119.578 80.0703 110.354C80.0703 101.13 87.5479 93.6523 96.772 93.6523C105.996 93.6523 113.474 101.13 113.474 110.354C113.474 119.578 105.996 127.056 96.772 127.056Z" fill="#FF5F6B"/>
<path d="M100.309 116.681C91.0849 116.681 83.6074 109.203 83.6074 99.979C83.6074 90.7549 91.0849 83.2773 100.309 83.2773C109.533 83.2773 117.011 90.7549 117.011 99.979C117.011 109.203 109.533 116.681 100.309 116.681Z" fill="#FF5F6B" stroke="#4747C7" stroke-width="0.294404" stroke-miterlimit="10"/>
<path d="M107.998 109.637C98.7734 109.637 91.2958 102.159 91.2958 92.9351C91.2958 83.711 98.7734 76.2334 107.998 76.2334C117.222 76.2334 124.699 83.711 124.699 92.9351C124.699 102.159 117.222 109.637 107.998 109.637Z" fill="#FF5F6B" stroke="#4747C7" stroke-width="0.294404" stroke-miterlimit="10"/>
<path d="M96.1569 149.124C98.2328 149.623 100.316 148.35 100.815 146.281L125.473 44.3281C125.973 42.2521 124.7 40.1689 122.631 39.6698C120.555 39.1707 118.472 40.4438 117.973 42.5125L93.3142 144.466C92.8151 146.542 94.0881 148.625 96.1569 149.124Z" fill="#4747C7"/>
<path d="M111.549 33.9855C109.857 40.9874 114.16 48.0326 121.162 49.7252C128.164 51.4178 135.209 47.114 136.902 40.1121C138.211 34.7016 134.247 17.9276 132.381 10.6003C131.998 9.09575 130.088 8.63282 129.061 9.79738C124.056 15.4611 112.858 28.5606 111.549 33.9783V33.9855Z" fill="#00C8C8"/>
<path d="M95.4914 133.485L100.048 108.052H100.056L101.495 99.6979C102.443 94.2078 107.542 90.4754 113.018 91.1771L106.218 70.1643C104.475 64.7827 107.434 59.0033 112.815 57.2601C118.197 55.5169 123.976 58.4753 125.719 63.8569L134.645 91.4519C136.461 97.065 137.488 102.895 137.705 108.79L138.71 136.016L205.257 175.076C206.624 175.778 207.948 176.552 209.213 177.398L209.242 177.412C220.273 184.754 227.55 197.297 227.55 211.546C227.55 234.172 209.206 252.516 186.58 252.516C170.182 252.516 156.034 242.881 149.488 228.957L106.341 162.714L99.7519 153.152C95.7952 147.409 94.2618 140.342 95.4914 133.477V133.485Z" fill="#FF5F6B"/>
<path d="M154.082 209.239L69.1915 306.086C62.5586 313.652 52.8298 317.76 42.7827 317.232L4.30878 315.222C1.03932 315.048 -0.494141 319.193 2.09538 321.196L100.946 397.638L192.671 290.252L154.082 209.239Z" fill="#4747C7"/>
<path d="M100.946 397.639L2.09543 321.198C-0.494095 319.194 1.0466 315.057 4.30882 315.223L42.7827 317.234C52.8298 317.762 62.5658 313.654 69.1915 306.088L80.2802 293.437L145.532 345.444L100.946 397.639Z" fill="#FF5F6B"/>
<path d="M111.333 502.506L148.425 478.296C155.658 473.58 160.013 465.529 160.013 456.893V326.165C160.013 304.27 177.763 286.52 199.658 286.52C221.554 286.52 239.304 304.27 239.304 326.165V507.056H112.678C110.219 507.056 109.264 503.851 111.325 502.506H111.333Z" fill="#4747C7"/>
<path d="M239.312 421.826V507.056H112.685C110.226 507.056 109.271 503.852 111.333 502.506L148.425 478.297C155.658 473.58 160.013 465.53 160.013 456.893V421.826H239.312Z" fill="#FF5F6B"/>
<path d="M342.255 218.548L367.702 174.042L436.223 182.143C437.771 182.245 439.29 182.425 440.787 182.686H440.824C460.65 186.158 475.717 203.453 475.717 224.27C475.717 247.59 456.816 266.491 433.496 266.491C425.605 266.491 418.22 264.321 411.905 260.552L411.847 260.711L342.263 218.534L342.255 218.548Z" fill="#FF5F6B"/>
<path d="M143.455 238.105C143.455 213.512 163.39 193.577 187.983 193.577C195.093 193.577 201.813 195.248 207.773 198.206L360.787 256.897C382.964 265.136 398.769 286.489 398.769 311.531C398.769 343.712 372.686 369.795 340.505 369.795C328.946 369.795 318.168 366.431 309.112 360.623L167.05 277.418C165.994 276.854 164.952 276.247 163.947 275.603C151.614 267.682 143.448 253.845 143.448 238.105H143.455Z" fill="#4747C7"/>
<path d="M111.333 502.507L148.425 478.297C155.659 473.581 160.013 465.53 160.013 456.893V456.452C168.389 457.942 174.755 465.255 174.755 474.065C174.755 476.047 174.429 477.95 173.836 479.729H239.312V507.064H112.686C110.226 507.064 109.271 503.859 111.333 502.514V502.507Z" fill="#4747C7"/>
<path d="M239.312 486.715V507.055H219.485C220.643 496.53 228.867 488.133 239.312 486.715Z" fill="#F5F7FA" fill-opacity="0.9" stroke="#4747C7" stroke-width="0.294404" stroke-miterlimit="10"/>
<path d="M100.945 397.637L2.09515 321.196C-0.49437 319.192 1.04632 315.055 4.30854 315.221L42.7825 317.232C52.099 317.717 61.1406 314.223 67.694 307.677C67.8748 307.807 68.0556 307.93 68.2292 308.067C76.0774 314.078 77.5602 325.304 71.5565 333.152C70.3558 334.722 68.9381 336.039 67.3829 337.087L118.942 376.574L100.953 397.637H100.945Z" fill="#4747C7"/>
<path d="M100.946 397.639L86.8262 386.724C93.9221 379.143 105.199 377.299 114.291 382.015L100.946 397.639Z" fill="#F5F7FA" fill-opacity="0.9" stroke="#4747C7" stroke-width="0.294404" stroke-miterlimit="10"/>
<path d="M111.333 502.506L133.488 488.047C138.132 492.271 141.047 498.362 141.047 505.139C141.047 505.783 141.011 506.427 140.96 507.056H112.685C110.226 507.056 109.271 503.852 111.333 502.506Z" fill="#F5F7FA" fill-opacity="0.9" stroke="#4747C7" stroke-width="0.294404" stroke-miterlimit="10"/>
<path d="M284.289 85.8756C284.896 85.8612 285.511 85.8467 286.126 85.8467H352.036C354.452 85.8467 356.86 85.9624 359.24 86.1939C356.868 104.769 341.005 119.127 321.786 119.127C302.567 119.127 286.524 104.603 284.296 85.8756H284.289Z" fill="#FF5F6B"/>
<path d="M335.84 67.0537L343.348 101.397L339.174 104.001C327.203 111.473 311.926 111.061 300.375 102.967L298.393 101.578L305.583 67.0537H335.832H335.84Z" fill="#FF5F6B"/>
<path d="M285.618 44.856C285.264 42.78 285.076 40.6462 285.076 38.4618C285.076 17.7094 301.901 0.884766 322.653 0.884766C343.405 0.884766 360.23 17.7094 360.23 38.4618C360.23 59.2141 343.405 76.0388 322.653 76.0388C306.284 76.0388 292.367 65.5722 287.21 50.9754C287.087 50.6427 285.698 45.3913 285.618 44.856Z" fill="#FF5F6B"/>
<path d="M296.491 50.4473L290.032 57.1308" stroke="#4747C7" stroke-width="0.294404" stroke-miterlimit="10"/>
<path d="M322.653 0.884766C343.405 0.884766 360.23 17.7094 360.23 38.4618C360.23 54.0857 350.696 67.4818 337.127 73.1527C333.973 70.2232 332.013 66.1219 332.013 61.5866C332.013 55.7059 335.304 50.5631 340.215 47.7421C339.073 46.5703 338.118 45.2394 337.38 43.7782C334.378 46.4112 330.371 48.0242 325.973 48.0242C316.649 48.0242 309.098 40.7981 309.098 31.8867C309.098 29.789 309.525 27.7854 310.284 25.9409C309.893 25.9699 309.496 25.9843 309.098 25.9843C301.727 25.9843 295.463 21.4635 293.163 15.1705C300.049 6.46887 310.696 0.884766 322.653 0.884766Z" fill="#4747C7"/>
<path d="M324.694 52.2987C323.558 50.5627 322.965 48.4288 323.175 46.1503C323.594 41.6874 327.153 38.0563 331.616 37.5716C337.381 36.9424 342.256 41.4342 342.256 47.069C342.256 50.7869 340.137 54.0129 337.034 55.5898C335.399 56.4216 334.075 57.8032 333.526 59.5537C332.737 62.0564 330.205 63.3945 327.746 63.3945C324.448 63.3945 321.779 60.7254 321.779 57.4271C321.779 55.2498 322.95 53.3475 324.694 52.3059V52.2987Z" fill="#FF5F6B"/>
<path d="M323.175 46.1503C323.594 41.6874 327.153 38.0563 331.616 37.5716C337.381 36.9424 342.256 41.4342 342.256 47.069C342.256 50.7869 340.137 54.0129 337.034 55.5898C335.399 56.4216 334.075 57.8032 333.526 59.5537C332.737 62.0564 330.205 63.3945 327.746 63.3945C324.448 63.3945 321.779 60.7254 321.779 57.4271" stroke="#4747C7" stroke-width="0.294404" stroke-miterlimit="10"/>
<path d="M322.653 0.884193C343.405 0.884193 360.23 17.7088 360.23 38.4612C360.23 38.765 360.23 39.0616 360.216 39.3581L287.731 24.5299C293.264 10.6708 306.812 0.876953 322.646 0.876953L322.653 0.884193Z" fill="#00C7C7"/>
<path d="M324.093 224.559L328.136 222.809C326.69 218.469 328.397 213.615 332.368 211.163C331.189 207.923 330.545 204.429 330.545 200.784C330.545 183.981 344.165 170.36 360.968 170.36C377.771 170.36 391.392 183.981 391.392 200.784C391.392 214.447 382.386 226.006 369.981 229.854L332.809 244.683C327.746 246.874 321.865 244.552 319.673 239.489L318.899 237.702C316.708 232.639 319.03 226.758 324.093 224.567V224.559Z" fill="#FF5F6B"/>
<path d="M328.136 222.81L324.093 224.56C319.029 226.752 316.707 232.632 318.899 237.696L319.673 239.482C321.865 244.546 327.745 246.868 332.809 244.676L369.981 229.848" stroke="#4747C7" stroke-width="0.294404" stroke-miterlimit="10"/>
<path d="M342.444 205.754L332.903 210.853C328.035 213.457 326.205 219.504 328.802 224.372L329.72 226.094C332.324 230.962 338.371 232.792 343.239 230.195L364.194 220.09" stroke="#4747C7" stroke-width="0.294404" stroke-miterlimit="10"/>
<path d="M359.348 180.53L344.628 197.89C341.106 202.136 341.699 208.436 345.945 211.952L347.449 213.196C351.695 216.718 357.995 216.125 361.511 211.879L376.368 193.955" stroke="#4747C7" stroke-width="0.294404" stroke-miterlimit="10"/>
<path d="M280.195 244.445C266.508 233.101 274.638 200.706 298.355 172.088C322.072 143.471 352.394 129.467 366.081 140.81C379.769 152.154 371.639 184.549 347.922 213.167C324.205 241.784 293.883 255.788 280.195 244.445Z" fill="#C6C6EE"/>
<path d="M346.183 161.919C347.167 162.903 347.022 164.842 345.988 167.214L343.435 161.319C344.628 161.138 345.583 161.319 346.183 161.912V161.919Z" fill="#4747C7"/>
<path d="M330.35 170.361L334.617 180.206C330.632 182.955 327.044 183.996 325.576 182.528C323.731 180.683 325.85 175.49 330.35 170.361Z" fill="#4747C7"/>
<path d="M329.974 149.875C333.923 148.161 338.516 149.977 340.231 153.933L343.435 161.326L345.988 167.221C344.845 169.847 342.625 173 339.637 175.988C337.974 177.651 336.259 179.076 334.618 180.212L330.35 170.367L325.916 160.139C324.202 156.19 326.017 151.597 329.974 149.883V149.875Z" fill="#FF5F6B"/>
<path d="M117.09 131.308L121.929 103.214C122.898 97.5718 119.115 92.212 113.473 91.2355C107.831 90.2662 102.471 94.0492 101.495 99.6912L96.6632 127.785" stroke="#4747C7" stroke-width="0.294404" stroke-miterlimit="10"/>
<path d="M100.946 397.638L2.0954 321.196C0.4245 319.902 0.475136 317.717 1.5963 316.379L103.615 394.513L100.946 397.638Z" fill="#F5F7FA" fill-opacity="0.9" stroke="#4747C7" stroke-width="0.294404" stroke-miterlimit="10"/>
<path d="M239.312 507.056H112.686C110.617 507.056 109.626 504.799 110.573 503.28H239.312V507.056Z" fill="#F5F7FA" fill-opacity="0.9" stroke="#4747C7" stroke-width="0.294404" stroke-miterlimit="10"/>
<path d="M205.524 507.185H273.155C275.607 502.186 276.989 496.566 276.989 490.627C276.989 486.512 276.323 482.548 275.101 478.837C273.22 473.145 274.927 466.902 279.535 463.061C286.508 457.26 290.942 448.522 290.942 438.743C290.942 435.698 290.508 432.754 289.705 429.969C288.627 426.244 290.052 422.302 293.148 419.965C298.023 416.284 301.112 410.367 300.873 403.734C300.512 393.636 292.273 385.766 282.197 385.014C274.573 384.443 264.258 389.159 262.226 399.618C261.423 403.763 258.088 406.996 253.936 407.756C238.421 410.591 227.665 423.806 227.665 438.75C227.665 441.361 227.983 443.9 228.576 446.323C229.596 450.475 227.47 454.721 223.586 456.522C208.598 463.481 198.963 480.016 202.558 498.28C203.173 501.405 204.179 504.392 205.531 507.192L205.524 507.185Z" stroke="#F5F7FA" stroke-miterlimit="10"/>
<path d="M183.513 468.726C183.513 472.292 184.721 475.568 186.753 478.18C188.735 480.726 189.401 484.089 188.374 487.149C187.636 489.355 187.267 491.735 187.339 494.216C187.491 499.192 189.466 503.728 192.605 507.185H222.659C225.914 503.583 227.904 498.816 227.904 493.579C227.904 486.209 223.969 479.756 218.081 476.205C215.636 474.729 214.24 472.053 214.327 469.203C214.327 469.044 214.327 468.885 214.327 468.733C214.327 463.026 211.224 458.042 206.601 455.38C204.178 453.984 202.674 451.359 202.753 448.566C202.761 448.292 202.753 448.01 202.746 447.727C202.493 442.274 198.124 437.803 192.677 437.434C186.348 437 181.075 442.013 181.075 448.248C181.075 450.802 181.958 453.152 183.44 455.011C185.242 457.268 185.668 460.357 184.598 463.033C183.896 464.798 183.506 466.722 183.506 468.74L183.513 468.726Z" stroke="#F5F7FA" stroke-miterlimit="10"/>
<path d="M392.18 32.711C392.18 32.711 376.202 53.7889 360.216 39.3657C365.924 22.881 392.18 32.711 392.18 32.711Z" fill="#00C7C7"/>
<path d="M391.572 48.2194C391.572 48.2194 367.572 59.337 360.223 39.1055C377.951 28.2121 391.572 48.2194 391.572 48.2194Z" fill="#00C7C7" stroke="#4747C7" stroke-width="0.294404" stroke-miterlimit="10"/>
<path d="M525.171 507.189H463.485L433.54 377.424H555.117L525.171 507.189Z" fill="#4747C7"/>
<path d="M464.237 330.059L477.127 377.422" stroke="#4747C7" stroke-width="0.522717" stroke-miterlimit="10"/>
<path d="M515.138 285.668L496.129 377.422" stroke="#4747C7" stroke-width="0.522717" stroke-miterlimit="10"/>
<path d="M507.601 340.062L501.048 377.422" stroke="#4747C7" stroke-width="0.264362" stroke-miterlimit="10"/>
<path d="M471.325 276.073L483.308 377.53" stroke="#4747C7" stroke-width="0.522717" stroke-miterlimit="10"/>
<path d="M480.65 322.84C478.741 320.15 475.24 318.913 470.914 319.007C470.647 314.688 469.12 311.303 466.278 309.625C459.442 305.589 447.623 312.96 439.869 326.088C433.988 336.048 432.144 346.464 434.589 352.671C434.835 353.43 435.182 354.146 435.645 354.797C435.985 355.282 436.382 355.716 436.824 356.099C437.25 356.504 437.713 356.859 438.22 357.162C438.907 357.567 439.645 357.857 440.426 358.038C446.813 359.947 457.034 357.235 466.466 350.537C478.893 341.712 485.243 329.314 480.65 322.84Z" fill="#00C7C7"/>
<path d="M499.052 328.338C496.817 330.088 495.884 333.148 496.137 336.866C492.426 337.263 489.576 338.717 488.245 341.227C485.041 347.267 491.855 357.155 503.457 363.311C512.267 367.976 521.301 369.155 526.546 366.812C527.189 366.573 527.79 366.24 528.332 365.821C528.73 365.51 529.092 365.148 529.41 364.757C529.743 364.374 530.032 363.962 530.271 363.513C530.596 362.906 530.806 362.254 530.936 361.582C532.325 356.005 529.591 347.318 523.45 339.462C515.363 329.112 504.433 324.135 499.045 328.352L499.052 328.338Z" fill="#00C7C7"/>
<path d="M482.082 285.689C480.982 280.807 476.816 277.024 470.697 274.622C472.859 268.416 472.693 262.789 469.706 258.781C462.501 249.132 441.633 252.517 423.101 266.355C409.033 276.85 400.353 290.347 400.136 300.467C400.034 301.675 400.1 302.875 400.367 304.062C400.562 304.937 400.859 305.776 401.25 306.579C401.604 307.396 402.053 308.163 402.588 308.886C403.311 309.856 404.179 310.687 405.17 311.404C412.997 317.819 428.888 320.011 446.017 316.163C468.584 311.093 484.736 297.451 482.096 285.704L482.082 285.689Z" fill="#00C7C7"/>
<path d="M505.279 268.98C502.69 271.881 502.176 276.228 503.42 281.175C498.523 282.608 495.037 285.255 493.851 288.959C491.001 297.87 502.567 309.537 519.688 315.02C532.679 319.179 545.135 318.572 551.63 314.145C552.44 313.66 553.171 313.082 553.8 312.373C554.263 311.852 554.661 311.288 554.994 310.68C555.348 310.087 555.637 309.458 555.847 308.792C556.137 307.895 556.267 306.969 556.274 306.029C556.795 298.181 551.008 287.143 540.838 278.051C527.442 266.065 511.522 262.007 505.279 268.987V268.98Z" fill="#00C7C7"/>
<path d="M470.697 274.621L400.36 304.053" stroke="#F5F7FA" stroke-opacity="0.9" stroke-width="0.522717" stroke-miterlimit="10"/>
<path d="M503.421 281.175L554.987 310.672" stroke="#F5F7FA" stroke-opacity="0.9" stroke-width="0.522717" stroke-miterlimit="10"/>
<path d="M470.914 319.006L436.816 356.105" stroke="#F5F7FA" stroke-opacity="0.9" stroke-width="0.522717" stroke-miterlimit="10"/>
<path d="M496.136 336.873L529.417 364.757" stroke="#F5F7FA" stroke-opacity="0.9" stroke-width="0.522717" stroke-miterlimit="10"/>
<path d="M481.88 507.186H386.104C382.625 500.112 380.672 492.155 380.672 483.735C380.672 477.898 381.612 472.292 383.348 467.041C386.017 458.976 383.601 450.137 377.07 444.705C367.196 436.487 360.918 424.111 360.918 410.267C360.918 405.956 361.532 401.782 362.668 397.84C364.194 392.567 362.176 386.983 357.793 383.67C350.892 378.455 346.516 370.071 346.856 360.682C347.37 346.382 359.037 335.236 373.301 334.165C384.1 333.355 398.712 340.039 401.583 354.845C402.726 360.719 407.442 365.297 413.33 366.375C435.298 370.39 450.531 389.109 450.531 410.274C450.531 413.97 450.082 417.565 449.236 421.001C447.789 426.882 450.806 432.892 456.303 435.446C477.526 445.298 491.175 468.719 486.083 494.578C485.207 499.005 483.782 503.236 481.88 507.2V507.186Z" stroke="#F5F7FA" stroke-miterlimit="10"/>
<path d="M513.056 452.726C513.056 457.774 511.341 462.418 508.462 466.114C505.656 469.717 504.716 474.483 506.162 478.816C507.211 481.948 507.732 485.312 507.631 488.82C507.414 495.865 504.622 502.295 500.173 507.192H457.605C452.99 502.093 450.176 495.344 450.176 487.93C450.176 477.485 455.753 468.349 464.086 463.322C467.544 461.239 469.533 457.434 469.41 453.398C469.41 453.174 469.403 452.95 469.403 452.726C469.403 444.639 473.8 437.579 480.339 433.81C483.768 431.829 485.902 428.118 485.786 424.161C485.772 423.771 485.779 423.373 485.793 422.975C486.155 415.257 492.347 408.921 500.05 408.393C509.019 407.778 516.484 414.874 516.484 423.713C516.484 427.337 515.233 430.664 513.135 433.29C510.582 436.48 509.981 440.856 511.5 444.653C512.499 447.149 513.048 449.876 513.048 452.733L513.056 452.726Z" stroke="#F5F7FA" stroke-miterlimit="10"/>
<path d="M559.109 507.058H23.4472" stroke="#4747C7" stroke-width="0.582799" stroke-miterlimit="10"/>
</svg>
