<svg width="522" height="586" viewBox="0 0 522 586" fill="none" xmlns="http://www.w3.org/2000/svg">
<path d="M478.64 583.832C498.44 558.401 510.208 526.378 510.208 491.566C510.208 456.753 497.791 423.2 477.044 397.457C460.552 376.995 462.291 347.308 480.975 328.819C505.771 304.296 521.107 270.236 521.029 232.582C520.874 158.312 460.254 97.8612 385.984 97.9131C344.762 97.9391 307.861 116.455 283.117 145.61C268.053 163.373 245.113 172.598 221.978 170.016C217.333 169.497 212.61 169.211 207.823 169.186C132.748 168.654 71.9081 229.04 71.8951 304.114C71.8951 313.78 72.9072 323.213 74.8404 332.296C80.2641 357.818 72.3881 384.469 53.3666 402.323C27.1568 426.936 10.7822 461.917 10.7822 500.713C10.7822 532.1 21.4089 560.931 39.2886 583.819" fill="#4747C7" fill-opacity="0.22"/>
<path d="M460.76 181.823C454.739 180.525 450.081 175.698 448.823 169.678C446.526 158.662 436.522 153.044 427.206 151.007L415.529 147.257C401.892 142.884 391.083 132.374 386.335 118.854L384.791 114.482L338.301 111.03L318.63 184.807L395.248 209.914L402.073 197.328C407.017 202.194 413.803 205.191 421.29 205.191C423.43 205.191 425.519 204.931 427.518 204.477C427.271 206.125 427.167 207.812 427.219 209.55C427.673 223.706 439.014 235.293 453.157 236.033C468.96 236.85 482.039 224.277 482.039 208.655C482.039 196.874 473.852 184.664 460.747 181.849L460.76 181.823Z" fill="#4747C7"/>
<path d="M277.551 71.4822L349.576 89.1543L340.779 4.14125C340.455 1.05317 336.575 -0.11459 334.603 2.27283L277.551 71.4822Z" fill="#00C7C7" stroke="#4747C7" stroke-width="0.25" stroke-miterlimit="10"/>
<path d="M406.472 258.311H304.098L297.144 167.745L308.523 163.917C342.154 152.603 378.524 152.421 412.259 163.411L425.558 167.745L406.472 258.311Z" fill="white" stroke="#4747C7" stroke-width="0.25" stroke-miterlimit="10"/>
<path d="M437.599 174.374C432.954 170.248 426.856 167.744 420.161 167.744C405.655 167.744 393.886 179.513 393.886 194.019C393.886 200.649 396.339 206.695 400.387 211.315L443.373 268.237L485.698 213.222L437.612 174.374H437.599Z" fill="#FF5F6B"/>
<path d="M498.764 239.681C498.764 221.529 484.05 206.802 465.885 206.802C453.831 206.802 443.295 213.289 437.573 222.969L393.886 286.69L420.161 312.64L484.193 266.993C492.99 261.09 498.777 251.06 498.777 239.681H498.764Z" fill="#FF5F6B"/>
<path d="M425.662 336.022H406.329C401.891 336.022 398.31 332.428 398.31 328.003C398.31 323.566 401.904 319.984 406.329 319.984H425.662C430.099 319.984 433.68 323.578 433.68 328.003C433.68 332.44 430.086 336.022 425.662 336.022Z" fill="#FF5F6B"/>
<path d="M416.722 347.801L399.984 338.135C396.144 335.916 394.833 331.012 397.052 327.171C399.271 323.33 404.175 322.02 408.016 324.239L424.754 333.905C428.594 336.124 429.905 341.028 427.686 344.869C425.467 348.71 420.563 350.02 416.722 347.801Z" fill="#FF5F6B"/>
<path d="M425.532 310.511C425.13 304.024 419.94 298.73 413.465 298.198C411.052 298.003 408.768 298.457 406.757 299.404L393.873 286.676L385.517 300.001C379.393 309.759 381.43 322.539 390.266 329.922L397.571 336.02L414.049 324.433C420.796 323.564 425.96 317.596 425.519 310.511H425.532Z" fill="#FF5F6B"/>
<path d="M268.65 584.999H395.767L406.122 331.829L409.08 327.91C424.339 307.747 423.768 279.733 407.691 260.219L406.122 258.312H304.085L292.68 284.885L206.46 345.011C192.356 354.847 186.206 372.648 191.214 389.088L232.605 524.834C234.525 531.114 232.929 537.939 228.427 542.713L188.866 579.796C186.868 581.678 188.723 584.973 191.357 584.234L311.546 550.979L268.403 405.32L318.799 364.591L317.307 422.174C317.151 427.961 319.279 433.58 323.223 437.822L326.052 440.872V535.279C326.052 547.981 317.994 559.27 305.979 563.396L267.262 576.708C262.72 578.265 263.849 584.973 268.637 584.973L268.65 584.999Z" fill="#4747C7"/>
<path d="M287.295 469.067L221.888 489.645L232.618 524.847C234.539 531.127 232.943 537.952 228.44 542.727L188.879 579.809C186.881 581.691 188.736 584.987 191.37 584.247L311.559 550.992L287.282 469.054L287.295 469.067Z" fill="#FF5F6B"/>
<path d="M326.052 504.488V535.304C326.052 548.007 317.995 559.295 305.98 563.421L267.262 576.734C262.721 578.291 263.849 584.999 268.637 584.999H395.755L399.05 504.488H326.039H326.052Z" fill="#FF5F6B"/>
<path d="M345.372 142.456L339.922 168.51L344.788 171.663C353.417 177.541 365.016 176.477 372.425 169.12L375.241 166.318L369.545 142.443H345.359L345.372 142.456Z" fill="#FF5F6B"/>
<path d="M191.37 584.247L311.559 550.991L303.345 523.276L247.851 539.962C247.734 539.275 247.578 538.6 247.371 537.925C245.321 531.126 239.482 526.52 232.852 525.729C234.357 531.749 232.722 538.159 228.427 542.726L188.866 579.809C186.868 581.69 188.723 584.986 191.357 584.247H191.37Z" fill="#4747C7"/>
<path d="M324.754 543.998C322.017 552.938 315.153 560.269 305.992 563.422L267.275 576.734C262.733 578.291 263.862 584.999 268.65 584.999H395.767L396.701 562.137H335.42C335.498 561.45 335.55 560.749 335.55 560.048C335.55 552.782 331.073 546.58 324.741 544.011L324.754 543.998Z" fill="#4747C7"/>
<path d="M215.854 554.521L188.879 579.81C186.881 581.691 188.736 584.987 191.37 584.248L230.763 573.348C228.817 565.096 223.263 558.232 215.841 554.521H215.854Z" fill="white" stroke="#4747C7" stroke-width="0.25" stroke-miterlimit="10"/>
<path d="M303.164 582.417C303.164 576.176 300.322 570.596 295.872 566.898L267.275 576.734C262.733 578.291 263.862 584.999 268.65 584.999H302.982C303.086 584.155 303.151 583.299 303.151 582.43L303.164 582.417Z" fill="white" stroke="#4747C7" stroke-width="0.25" stroke-miterlimit="10"/>
<path d="M350.562 236.06C350.562 230.428 348.979 225.161 346.241 220.684L338.871 203.401C335.044 194.422 334.628 184.367 337.717 175.116L347.565 143.884L326.337 130.001L254.17 254.16L281.703 263.528C279.082 267.901 277.551 273.013 277.512 278.462C277.395 294.331 290.02 307.579 305.876 308.175C322.691 308.811 336.523 295.369 336.523 278.683C336.523 276.711 336.328 274.79 335.965 272.935C334.875 267.395 336.769 261.634 340.934 257.832C346.838 252.434 350.549 244.675 350.549 236.034L350.562 236.06Z" fill="#4747C7"/>
<path d="M154.586 566.731C131.659 559.141 119.216 534.384 126.819 511.457L266.834 88.7791C274.437 65.852 299.181 53.4089 322.108 61.0123C345.035 68.6157 357.478 93.3593 349.874 116.286L209.86 538.951C202.269 561.878 177.513 574.321 154.586 566.718V566.731Z" fill="#00C7C7" stroke="#4747C7" stroke-width="0.25" stroke-miterlimit="10"/>
<path d="M256.038 173.662C255.403 171.937 254.248 170.535 252.834 169.588C253.586 167.694 253.651 165.514 252.873 163.464C251.199 159.091 246.307 156.911 241.947 158.572L217.762 167.811C215.452 168.693 213.311 169.938 211.404 171.495C191.241 187.974 193.875 219.555 216.49 232.453L218.826 233.776L224.496 216.662L239.988 210.745C243.842 209.266 245.775 204.945 244.309 201.092C243.907 200.028 243.284 199.119 242.518 198.38L245.671 197.173C250.044 195.499 252.224 190.608 250.563 186.248C250.394 185.794 250.187 185.379 249.953 184.977L250.978 184.587C255.351 182.914 257.712 178.048 256.077 173.662H256.038Z" fill="#FF5F6B"/>
<path d="M217.943 202.83L234.629 196.784C238.483 195.304 242.804 197.251 244.283 201.104C245.762 204.958 243.816 209.279 239.962 210.758" stroke="#4747C7" stroke-width="0.26" stroke-miterlimit="10"/>
<path d="M214.168 191.076L239.599 181.37C243.972 179.697 248.863 181.889 250.524 186.262C252.198 190.635 250.005 195.526 245.632 197.187L242.479 198.394" stroke="#4747C7" stroke-width="0.26" stroke-miterlimit="10"/>
<path d="M211.56 181.486L245.075 168.693C249.447 167.019 254.339 169.212 256 173.584C257.673 177.957 255.481 182.849 251.108 184.509L249.901 184.977" stroke="#4747C7" stroke-width="0.26" stroke-miterlimit="10"/>
<path d="M355.402 151.837C372.106 151.837 385.647 138.296 385.647 121.592C385.647 104.888 372.106 91.3467 355.402 91.3467C338.698 91.3467 325.157 104.888 325.157 121.592C325.157 138.296 338.698 151.837 355.402 151.837Z" fill="#FF5F6B" stroke="#4747C7" stroke-width="0.25" stroke-miterlimit="10"/>
<path d="M384.803 114.468C381.598 101.195 369.648 91.3467 355.402 91.3467C341.155 91.3467 329.205 101.208 326 114.468C329.996 113.884 333.59 111.315 335.628 106.787C336.354 105.165 337.95 104.153 339.728 104.153C345.177 104.153 351.509 101.766 353.624 96.7573C355.739 101.766 362.071 104.153 367.52 104.153C369.298 104.153 370.894 105.178 371.621 106.787C374.242 112.626 379.483 115.208 384.816 114.468H384.803Z" fill="#4747C7"/>
<path d="M318.812 364.617V324.238" stroke="#4747C7" stroke-width="0.26" stroke-miterlimit="10"/>
<path d="M379.73 257.792V504.488" stroke="white" stroke-width="0.25" stroke-miterlimit="10"/>
<path d="M348.836 258.311V271.688C348.836 284.702 359.385 295.251 372.399 295.251H379.73" stroke="white" stroke-width="0.25" stroke-miterlimit="10"/>
<path d="M0 584.999H495.429" stroke="#4747C7" stroke-width="0.5" stroke-miterlimit="10"/>
<path d="M191.37 584.247L311.559 550.992L309.885 545.348L188.049 581.976C188.217 583.443 189.619 584.727 191.37 584.247Z" fill="white" stroke="#4747C7" stroke-width="0.25" stroke-miterlimit="10"/>
<path d="M264.472 579.899C264.044 582.274 265.601 584.986 268.65 584.986H395.768L395.975 579.899H264.472Z" fill="white" stroke="#4747C7" stroke-width="0.25" stroke-miterlimit="10"/>
<path d="M57.9988 584.375C55.3778 579.043 53.9116 573.048 53.9116 566.716C53.9116 562.318 54.6253 558.101 55.9228 554.143C57.9339 548.071 56.1174 541.415 51.1998 537.315C43.7651 531.126 39.0292 521.809 39.0292 511.377C39.0292 508.134 39.4963 504.994 40.3526 502.009C41.5074 498.039 39.9763 493.835 36.6807 491.344C31.4776 487.412 28.1949 481.106 28.4415 474.022C28.8307 463.253 37.6149 454.858 48.3583 454.053C56.4937 453.443 67.4966 458.478 69.6634 469.623C70.5198 474.048 74.075 477.499 78.5125 478.304C95.0558 481.327 106.526 495.431 106.526 511.364C106.526 514.154 106.188 516.853 105.553 519.448C104.463 523.872 106.733 528.401 110.872 530.321C126.858 537.743 137.134 555.389 133.306 574.852C132.645 578.186 131.581 581.378 130.141 584.363" stroke="white" stroke-width="0.5" stroke-miterlimit="10"/>
<path d="M114.726 584.376C111.249 580.535 109.134 575.449 109.134 569.87C109.134 562.007 113.338 555.117 119.605 551.341C122.213 549.771 123.705 546.904 123.614 543.868C123.614 543.699 123.614 543.53 123.614 543.362C123.614 537.276 126.923 531.957 131.853 529.115C134.435 527.623 136.044 524.833 135.953 521.849C135.953 521.551 135.953 521.252 135.953 520.954C136.226 515.141 140.884 510.366 146.697 509.977C153.457 509.51 159.075 514.855 159.075 521.512C159.075 524.236 158.128 526.741 156.558 528.726C154.638 531.126 154.183 534.422 155.325 537.276C156.078 539.158 156.493 541.208 156.493 543.362C156.493 547.163 155.208 550.667 153.029 553.443C150.914 556.155 150.2 559.749 151.303 563.006C152.094 565.368 152.484 567.898 152.406 570.545C152.25 575.851 150.135 580.691 146.788 584.376" stroke="white" stroke-width="0.5" stroke-miterlimit="10"/>
<path d="M455.064 584.375C457.594 579.237 459.008 573.45 459.008 567.339C459.008 563.096 458.321 559.022 457.062 555.207C455.129 549.356 456.88 542.933 461.616 538.988C468.792 533.02 473.346 524.028 473.346 513.972C473.346 510.845 472.905 507.809 472.074 504.942C470.971 501.114 472.438 497.053 475.617 494.652C480.625 490.864 483.804 484.778 483.557 477.953C483.181 467.573 474.708 459.477 464.354 458.698C456.504 458.114 445.903 462.967 443.814 473.724C442.984 477.992 439.559 481.314 435.29 482.092C419.33 485.012 408.276 498.61 408.276 513.972C408.276 516.658 408.6 519.266 409.21 521.757C410.261 526.026 408.068 530.399 404.085 532.241C388.67 539.404 378.757 556.414 382.455 575.189C383.091 578.407 384.129 581.482 385.504 584.349" stroke="white" stroke-width="0.5" stroke-miterlimit="10"/>
<path d="M386.049 584.376C389.682 580.366 391.888 575.059 391.888 569.221C391.888 561.007 387.502 553.819 380.95 549.862C378.225 548.227 376.668 545.23 376.759 542.064C376.759 541.895 376.759 541.713 376.759 541.532C376.759 535.174 373.294 529.621 368.156 526.662C365.457 525.105 363.784 522.186 363.874 519.072C363.874 518.76 363.874 518.449 363.874 518.138C363.589 512.065 358.723 507.083 352.664 506.667C345.605 506.187 339.741 511.767 339.741 518.708C339.741 521.55 340.727 524.171 342.375 526.234C344.386 528.751 344.853 532.19 343.659 535.174C342.881 537.133 342.44 539.287 342.44 541.532C342.44 545.502 343.789 549.161 346.047 552.067C348.252 554.909 348.992 558.646 347.85 562.058C347.02 564.524 346.618 567.171 346.695 569.921C346.864 575.462 349.057 580.522 352.56 584.376" stroke="white" stroke-width="0.5" stroke-miterlimit="10"/>
<path d="M420.913 238.498L465.989 197.301L437.599 174.374C432.954 170.248 426.856 167.744 420.161 167.744C405.655 167.744 393.886 179.513 393.886 194.019C393.886 200.649 396.339 206.695 400.387 211.315L420.913 238.498Z" fill="white" stroke="#4747C7" stroke-width="0.25" stroke-miterlimit="10"/>
<path d="M409.988 263.191L427.803 237.228" stroke="#4747C7" stroke-width="0.25" stroke-miterlimit="10"/>
<path d="M355.402 151.837C372.106 151.837 385.647 138.296 385.647 121.592C385.647 104.888 372.106 91.3467 355.402 91.3467C338.698 91.3467 325.157 104.888 325.157 121.592C325.157 138.296 338.698 151.837 355.402 151.837Z" stroke="#4747C7" stroke-width="0.25" stroke-miterlimit="10"/>
</svg>
