<svg width="649" height="404" viewBox="0 0 649 404" fill="none" xmlns="http://www.w3.org/2000/svg">
<path d="M24.3504 364.825C9.67841 347.175 -1.97205 324.397 0.279602 297.914C3.99841 254.087 77.5909 222.579 108.969 196.271C137.31 172.52 150.123 137.045 158.156 105.232C177.026 30.5497 254.309 -0.0145216 336.37 5.17562e-06C437.258 5.17562e-06 519.029 65.1379 519.029 145.471C519.029 154.013 518.1 162.365 516.342 170.5C512.1 189.995 524.535 209.418 546.906 218.017C600.205 238.5 636.987 281.935 636.987 332.227C636.987 343.499 635.142 354.423 631.67 364.825H24.3504Z" fill="#4747C7" fill-opacity="0.2"/>
<path d="M600.785 365.551H543.433L515.6 244.906H628.633L600.785 365.551Z" fill="#4747C7"/>
<path d="M544.131 200.861L556.116 244.906" stroke="#4747C7" stroke-width="0.661875" stroke-miterlimit="10"/>
<path d="M591.459 159.591L573.794 244.906" stroke="#4747C7" stroke-width="0.661875" stroke-miterlimit="10"/>
<path d="M584.456 210.158L578.355 244.906" stroke="#4747C7" stroke-width="0.330937" stroke-miterlimit="10"/>
<path d="M544.268 138.971L561.388 244.709" stroke="#4747C7" stroke-width="0.661875" stroke-miterlimit="10"/>
<path d="M559.399 194.149C557.626 191.651 554.372 190.503 550.349 190.59C550.102 186.567 548.678 183.429 546.034 181.874C539.686 178.127 528.689 184.969 521.484 197.186C516.022 206.454 514.308 216.128 516.574 221.896C516.806 222.607 517.126 223.261 517.547 223.871C517.867 224.322 518.23 224.728 518.637 225.091C519.029 225.469 519.465 225.803 519.944 226.079C520.583 226.457 521.266 226.718 521.992 226.893C527.934 228.665 537.434 226.152 546.208 219.92C557.757 211.712 563.67 200.178 559.399 194.164V194.149Z" fill="#00C7C7"/>
<path d="M576.51 199.263C574.433 200.89 573.561 203.737 573.808 207.195C570.365 207.572 567.707 208.909 566.472 211.248C563.494 216.869 569.828 226.065 580.621 231.774C588.814 236.117 597.211 237.207 602.092 235.028C602.687 234.81 603.254 234.505 603.762 234.113C604.14 233.822 604.474 233.488 604.765 233.125C605.07 232.776 605.346 232.384 605.564 231.963C605.869 231.396 606.058 230.801 606.174 230.161C607.467 224.975 604.924 216.899 599.215 209.592C591.691 199.975 581.536 195.341 576.525 199.263H576.51Z" fill="#00C7C7"/>
<path d="M560.736 159.605C559.719 155.073 555.84 151.543 550.146 149.32C552.15 143.553 552.005 138.324 549.216 134.59C542.519 125.613 523.111 128.765 505.883 141.636C492.809 151.398 484.732 163.949 484.528 173.348C484.427 174.466 484.499 175.585 484.746 176.689C484.935 177.502 485.211 178.287 485.56 179.028C485.894 179.783 486.301 180.509 486.809 181.178C487.477 182.078 488.291 182.848 489.206 183.516C496.484 189.487 511.258 191.521 527.179 187.933C548.156 183.211 563.176 170.53 560.721 159.605H560.736Z" fill="#00C7C7"/>
<path d="M582.293 144.076C579.882 146.764 579.402 150.817 580.564 155.422C576.003 156.758 572.763 159.213 571.659 162.656C569.001 170.951 579.765 181.788 595.672 186.887C607.758 190.751 619.336 190.184 625.379 186.073C626.135 185.623 626.817 185.085 627.399 184.431C627.834 183.952 628.197 183.415 628.503 182.863C628.837 182.311 629.098 181.73 629.302 181.105C629.563 180.277 629.694 179.405 629.694 178.534C630.188 171.241 624.798 160.971 615.341 152.516C602.877 141.374 588.089 137.597 582.278 144.091L582.293 144.076Z" fill="#00C7C7"/>
<path d="M550.146 149.32L484.746 176.689" stroke="white" stroke-width="0.661875" stroke-miterlimit="10"/>
<path d="M580.564 155.407L628.516 182.834" stroke="white" stroke-width="0.661875" stroke-miterlimit="10"/>
<path d="M550.348 190.591L518.651 225.077" stroke="white" stroke-width="0.661875" stroke-miterlimit="10"/>
<path d="M573.794 207.195L604.736 233.126" stroke="white" stroke-width="0.661875" stroke-miterlimit="10"/>
<path d="M555.738 365.377H499.447C481.274 355.411 468.825 336.12 468.752 313.995C468.723 305.12 470.655 296.709 474.156 289.155C471.135 289.634 468.026 289.896 464.859 289.896C443.665 289.896 425.099 278.681 414.756 261.873L389.828 237.672C383.785 244.761 374.968 249.41 365.06 249.962C370.973 256.31 374.546 264.851 374.445 274.236C374.241 293.179 358.799 308.679 339.842 308.94C320.231 309.216 304.251 293.397 304.251 273.844C304.251 261.467 310.658 250.586 320.333 244.34C327.422 239.764 330.937 231.324 328.976 223.116C328.322 220.356 327.974 217.48 328.017 214.516C328.177 199.743 337.59 187.075 350.722 182.078L384.061 107.236L409.28 144.163C415.584 153.402 425.027 160.041 435.864 162.845L474.723 173.333C477.352 173.856 479.996 174.568 482.64 175.468C506.188 183.531 528.835 206.454 524.39 236.742C523.024 246.083 529.169 254.886 538.408 256.818C567.04 262.774 586.346 287.179 586.346 313.792C586.346 336.032 573.984 355.397 555.767 365.377H555.738Z" fill="#4747C7"/>
<path d="M357.797 106.714C346.044 106.714 336.516 97.1856 336.516 85.4321C336.516 73.6785 346.044 64.1504 357.797 64.1504C369.551 64.1504 379.079 73.6785 379.079 85.4321C379.079 97.1856 369.551 106.714 357.797 106.714Z" fill="#4747C7"/>
<path d="M414.291 198.029L372.135 165.896L350.708 185.463L372.687 225.528L414.291 198.029Z" fill="#FF5F6B"/>
<path d="M571.485 364.882L446.308 214.908C446.308 214.908 357.854 299.468 358.218 299.454C358.595 299.425 386.777 364.897 386.777 364.897H571.485V364.882Z" fill="#F5F7FA"/>
<path d="M223.656 198.187L231.942 207.864L136.293 289.758L128.007 280.081L223.656 198.187Z" fill="#4747C7"/>
<path d="M136.306 289.751L124.612 287.499L124.147 292.816C123.77 297.072 120.806 299.353 116.419 298.758L107.587 297.566L128.011 280.076L136.292 289.751H136.306Z" fill="white" stroke="#4747C7" stroke-width="0.413672" stroke-miterlimit="10"/>
<path d="M145.848 264.801L154.134 274.479L136.291 289.756L128.005 280.078L145.848 264.801Z" fill="#4747C7"/>
<path d="M341.905 193.743C312.348 193.743 288.388 169.783 288.388 140.226C288.388 110.67 312.348 86.71 341.905 86.71C371.461 86.71 395.421 110.67 395.421 140.226C395.421 169.783 371.461 193.743 341.905 193.743Z" fill="#FF5F6B"/>
<path d="M341.905 86.71C371.452 86.71 395.421 110.665 395.421 140.226C395.421 153.155 390.845 165.009 383.219 174.248C374.329 171.125 367.966 162.67 367.966 152.719C367.966 150.846 368.198 149.03 368.62 147.286L361.066 142.623C357.318 145.325 352.713 146.923 347.745 146.923C339.363 146.923 332.041 142.405 328.075 135.665C325.446 131.191 320.071 129.128 315.089 130.552C312.575 131.263 309.902 131.612 307.142 131.525C300.823 131.322 295.056 128.823 290.64 124.843C297.25 102.791 317.703 86.71 341.905 86.71Z" fill="#4747C7"/>
<path d="M324.835 177.895L323.818 190.605" stroke="#4747C7" stroke-width="0.413672" stroke-miterlimit="10"/>
<path d="M349.865 141.36C349.865 133.821 356.097 127.719 363.694 127.952C370.667 128.155 376.405 133.821 376.681 140.793C376.826 144.469 375.504 147.839 373.238 150.352C371.437 152.342 370.449 154.928 370.289 157.615C370.289 157.644 370.289 157.688 370.289 157.717C369.999 162.075 366.44 165.605 362.082 165.881C356.983 166.201 352.741 162.148 352.741 157.107C352.741 155.03 353.453 153.127 354.659 151.63C351.739 149.175 349.879 145.486 349.879 141.36H349.865Z" fill="#FF5F6B"/>
<path d="M87.9617 364.882H97.0845L115.243 312.034H106.12L87.9617 364.882Z" fill="white" stroke="#4747C7" stroke-width="0.413672" stroke-miterlimit="10"/>
<path d="M136.132 364.824H147.928L46.2841 197.796H34.4884L136.132 364.824Z" fill="white" stroke="#4747C7" stroke-width="0.413672" stroke-miterlimit="10"/>
<path d="M104.101 363.91H48.4491C46.4299 359.799 45.2967 355.179 45.2967 350.284C45.2967 346.899 45.8487 343.63 46.8511 340.58C48.4054 335.902 46.9963 330.76 43.2049 327.593C37.4668 322.813 33.8206 315.623 33.8206 307.575C33.8206 305.062 34.1837 302.65 34.8374 300.355C35.7236 297.29 34.547 294.05 32.0048 292.118C27.9954 289.082 25.4532 284.216 25.6421 278.754C25.9326 270.445 32.7165 263.966 41.0113 263.341C47.2869 262.876 55.7705 266.755 57.441 275.355C58.1093 278.768 60.8403 281.427 64.2686 282.051C77.0376 284.39 85.8844 295.256 85.8844 307.56C85.8844 309.71 85.623 311.802 85.1291 313.792C84.2865 317.206 86.0442 320.707 89.2401 322.189C101.573 327.912 109.505 341.524 106.541 356.545C106.033 359.116 105.205 361.571 104.101 363.881V363.91Z" stroke="white" stroke-width="0.827343" stroke-miterlimit="10"/>
<path d="M136.031 328.595C136.031 331.864 134.913 334.885 133.053 337.282C131.238 339.621 130.627 342.701 131.557 345.519C132.24 347.552 132.574 349.731 132.501 352.012C132.356 356.588 130.555 360.743 127.664 363.924H100.063C97.0706 360.612 95.2548 356.239 95.2548 351.431C95.2548 344.662 98.872 338.735 104.276 335.466C106.513 334.115 107.806 331.646 107.733 329.031C107.733 328.886 107.733 328.74 107.733 328.595C107.733 323.351 110.58 318.775 114.822 316.334C117.045 315.056 118.425 312.645 118.352 310.073C118.352 309.827 118.352 309.565 118.352 309.304C118.585 304.292 122.594 300.195 127.606 299.847C133.417 299.454 138.268 304.045 138.268 309.783C138.268 312.136 137.455 314.286 136.089 315.986C134.433 318.063 134.041 320.896 135.029 323.351C135.683 324.978 136.031 326.736 136.031 328.595Z" stroke="white" stroke-width="0.827343" stroke-miterlimit="10"/>
<path d="M649 364.883H24.4078" stroke="#4747C7" stroke-width="0.827343" stroke-miterlimit="10"/>
<path d="M219.968 255.017L188.14 243.918C178.044 240.403 167.265 239.27 156.66 240.635L123.568 244.863C116.276 245.792 110.306 252.576 110.306 259.927C110.306 267.277 116.276 272.536 123.568 271.606L141.393 269.326C141.654 276.197 145.446 282.167 150.995 285.479C152.201 293.469 157.735 300.021 165.144 302.708C168.572 307.023 173.846 309.783 179.787 309.783C180.63 309.783 181.443 309.725 182.257 309.608C186.455 313.908 192.425 316.479 198.991 316.102C204.686 315.768 209.814 313.196 213.504 309.26L219.982 255.002L219.968 255.017Z" fill="#FF5F6B"/>
<path d="M176.112 294.529C176.112 297.42 176.678 300.18 177.71 302.693C180.935 310.581 188.677 316.131 197.713 316.131C203.088 316.131 207.998 314.169 211.775 310.93" stroke="#4747C7" stroke-width="0.413672" stroke-miterlimit="10"/>
<path d="M179.772 272.405C169.458 272.405 161.091 280.773 161.091 291.087C161.091 301.401 169.458 309.768 179.772 309.768C180.615 309.768 181.428 309.71 182.242 309.608" stroke="#4747C7" stroke-width="0.413672" stroke-miterlimit="10"/>
<path d="M172.567 260.377C160.525 260.377 150.748 270.139 150.748 282.196C150.748 291.638 156.748 299.672 165.13 302.708" stroke="#4747C7" stroke-width="0.413672" stroke-miterlimit="10"/>
<path d="M161.09 248.828C150.195 248.828 141.378 257.66 141.378 268.541" stroke="#4747C7" stroke-width="0.413672" stroke-miterlimit="10"/>
<path d="M367.544 222.535C369.055 219.818 370.812 217.276 372.803 214.908C381.62 204.449 394.811 197.796 409.555 197.796C436.081 197.796 457.581 219.295 457.581 245.821C457.581 258.794 452.438 270.56 444.085 279.204L349.051 384.363L290.712 333.911L367.544 222.52V222.535Z" fill="#FF5F6B"/>
<path d="M275.227 387.733L197.713 314.533L219.968 255.002L332.042 313.937C347.571 321.723 358.219 337.79 358.219 356.34C358.219 382.532 336.981 403.77 310.789 403.77C299.749 403.77 289.594 399.993 281.532 393.674C279.251 391.887 277.145 389.883 275.227 387.718V387.733Z" fill="#FF5F6B"/>
<path d="M332.942 272.71L367.559 222.535C369.07 219.818 370.828 217.276 372.818 214.908C381.636 204.449 394.826 197.796 409.571 197.796C436.096 197.796 457.596 219.295 457.596 245.821C457.596 258.794 452.454 270.56 444.101 279.204L403.339 324.934L332.942 272.696V272.71Z" fill="#F5F7FA"/>
<path d="M429.413 364.65C426.624 358.97 425.055 352.563 425.055 345.809C425.055 341.116 425.811 336.613 427.205 332.386C429.355 325.907 427.409 318.803 422.164 314.431C414.233 307.821 409.177 297.885 409.177 286.743C409.177 283.271 409.671 279.93 410.587 276.748C411.807 272.507 410.194 268.018 406.664 265.359C401.115 261.176 397.6 254.435 397.876 246.881C398.282 235.391 407.667 226.428 419.128 225.571C427.815 224.917 439.553 230.292 441.863 242.189C442.778 246.91 446.569 250.586 451.305 251.457C468.97 254.682 481.201 269.732 481.201 286.743C481.201 289.721 480.838 292.597 480.155 295.372C478.993 300.107 481.419 304.93 485.835 306.979C502.889 314.896 513.872 333.722 509.775 354.51C509.078 358.069 507.93 361.468 506.39 364.65" stroke="white" stroke-miterlimit="10"/>
<path d="M500.828 364.65C496.688 360.074 494.16 354.017 494.16 347.363C494.16 337.994 499.157 329.801 506.638 325.283C509.747 323.409 511.519 320.01 511.418 316.378C511.418 316.175 511.418 315.971 511.418 315.782C511.418 308.533 515.369 302.2 521.223 298.815C524.303 297.043 526.22 293.716 526.119 290.157C526.119 289.809 526.119 289.445 526.119 289.097C526.438 282.167 531.988 276.488 538.917 276.023C546.965 275.471 553.661 281.833 553.661 289.765C553.661 293.019 552.543 295.997 550.654 298.35C548.374 301.212 547.822 305.134 549.187 308.548C550.088 310.785 550.582 313.24 550.582 315.797C550.582 320.329 549.042 324.498 546.456 327.81C543.943 331.05 543.101 335.321 544.393 339.199C545.338 342.003 545.803 345.025 545.701 348.177C545.512 354.496 542.999 360.263 539.019 364.65" stroke="white" stroke-miterlimit="10"/>
</svg>
