<svg width="543" height="610" viewBox="0 0 543 610" fill="none" xmlns="http://www.w3.org/2000/svg">
<path d="M542.614 527.562C542.738 558.307 532.714 586.808 515.71 609.883H48.1486C18.2161 578.161 -0.109654 535.383 0.000493747 488.391C0.165715 420.127 39.0615 360.978 95.87 331.734C135.812 311.178 163.5 272.915 171.472 228.705C187.747 138.356 269.559 97.2715 346.235 97.2715C443.729 97.2715 522.773 176.316 522.773 273.81C522.773 302.999 515.683 330.536 503.14 354.796C488.614 382.884 492.084 416.795 511.965 441.399C531.021 464.971 542.462 494.931 542.6 527.562H542.614Z" fill="#4747C7" fill-opacity="0.22"/>
<path d="M173.069 603.731H78.0254C74.5695 596.709 72.642 588.806 72.642 580.463C72.642 574.68 73.5782 569.104 75.2993 563.886C77.9428 555.886 75.5471 547.116 69.0759 541.718C59.2866 533.567 53.0495 521.286 53.0495 507.531C53.0495 503.249 53.6553 499.105 54.7843 495.195C56.2989 489.963 54.3024 484.414 49.9516 481.137C43.0949 475.96 38.7579 467.644 39.1021 458.323C39.6115 444.128 51.1908 433.072 65.3447 432.012C76.0565 431.213 90.5547 437.836 93.4047 452.527C94.5337 458.351 99.215 462.894 105.067 463.968C126.876 467.961 141.993 486.535 141.993 507.531C141.993 511.194 141.553 514.76 140.713 518.174C139.281 524.012 142.269 529.974 147.721 532.507C168.787 542.283 182.335 565.524 177.268 591.188C176.401 595.58 174.983 599.78 173.096 603.718L173.069 603.731Z" stroke="white" stroke-miterlimit="10" stroke-linecap="round"/>
<path d="M201.115 543.411C201.115 549.001 199.215 554.15 196.035 558.24C192.923 562.232 191.89 567.506 193.487 572.297C194.644 575.767 195.222 579.498 195.112 583.381C194.878 591.187 191.78 598.306 186.851 603.73H139.708C134.6 598.085 131.488 590.609 131.488 582.389C131.488 570.824 137.656 560.704 146.895 555.142C150.723 552.829 152.926 548.629 152.788 544.155C152.788 543.907 152.788 543.659 152.788 543.411C152.788 534.448 157.662 526.641 164.904 522.469C168.704 520.28 171.072 516.163 170.935 511.785C170.935 511.358 170.935 510.918 170.935 510.477C171.334 501.927 178.191 494.905 186.727 494.327C196.654 493.652 204.929 501.5 204.929 511.289C204.929 515.296 203.538 518.986 201.225 521.891C198.403 525.429 197.742 530.276 199.408 534.475C200.509 537.243 201.115 540.258 201.115 543.425V543.411Z" stroke="white" stroke-miterlimit="10" stroke-linecap="round"/>
<path d="M421.466 603.73H494.48C497.124 598.333 498.624 592.275 498.624 585.859C498.624 581.412 497.909 577.13 496.587 573.123C494.549 566.982 496.394 560.236 501.378 556.091C508.909 549.827 513.701 540.395 513.701 529.835C513.701 526.544 513.233 523.364 512.365 520.362C511.209 516.342 512.737 512.088 516.083 509.554C521.342 505.575 524.674 499.187 524.427 492.027C524.041 481.122 515.147 472.627 504.27 471.815C496.036 471.195 484.897 476.29 482.708 487.58C481.841 492.055 478.247 495.552 473.759 496.364C457.016 499.421 445.396 513.698 445.396 529.835C445.396 532.658 445.74 535.398 446.387 538.014C447.489 542.502 445.189 547.073 441.004 549.028C424.826 556.546 414.417 574.39 418.3 594.106C418.96 597.479 420.048 600.701 421.508 603.73H421.466Z" stroke="white" stroke-miterlimit="10" stroke-linecap="round"/>
<path d="M391.588 556.34C391.588 560.732 393.075 564.78 395.581 567.988C398.018 571.127 398.844 575.272 397.577 579.044C396.668 581.77 396.214 584.703 396.297 587.746C396.489 593.873 398.913 599.463 402.782 603.731H439.819C443.825 599.298 446.276 593.418 446.276 586.961C446.276 577.874 441.43 569.93 434.174 565.551C431.158 563.734 429.437 560.429 429.547 556.918C429.547 556.726 429.547 556.533 429.547 556.34C429.547 549.305 425.72 543.164 420.033 539.887C417.046 538.166 415.187 534.93 415.297 531.488C415.297 531.144 415.297 530.8 415.297 530.456C414.98 523.737 409.597 518.229 402.892 517.761C395.085 517.224 388.6 523.406 388.6 531.089C388.6 534.242 389.688 537.133 391.519 539.419C393.736 542.2 394.259 546 392.937 549.304C392.07 551.48 391.588 553.848 391.588 556.34Z" stroke="white" stroke-miterlimit="10" stroke-linecap="round"/>
<path d="M217.652 604.776C218.299 604.776 218.946 604.763 219.593 604.735V604.776H264.547C265.47 604.776 266.406 604.776 267.356 604.707C283.148 603.702 296.518 590.76 296.518 574.94C296.518 562.067 290.556 554.122 285.338 549.634C280.629 545.572 277.435 540.037 276.099 533.965C272.299 516.686 259.494 484.729 216.798 484.729C184.456 484.729 158.076 511.564 157.622 543.906C157.154 577.446 184.209 604.79 217.652 604.79V604.776ZM259.15 572.572C259.15 566.004 264.465 560.69 271.032 560.69C277.6 560.69 282.914 566.004 282.914 572.572C282.914 579.139 277.6 584.454 271.032 584.454C264.465 584.454 259.15 579.139 259.15 572.572Z" fill="#CACAD1"/>
<path d="M239.255 540.698C244.598 537.738 251.385 539.859 254.056 545.462C256.37 550.336 254.593 556.284 249.995 559.107C248.425 560.071 246.718 560.566 245.011 560.663C242.422 560.8 239.875 561.365 237.562 562.521C237.465 562.576 237.355 562.618 237.259 562.673C233.294 564.476 228.488 563.003 226.217 559.286C223.614 555.018 225.101 549.496 229.438 547.101C229.907 546.839 230.375 546.633 230.87 546.467C233.128 545.71 235.111 544.361 236.763 542.64C237.479 541.896 238.319 541.235 239.283 540.712L239.255 540.698Z" fill="#FF5F6B"/>
<path d="M213.275 523.158C205.455 518.917 202.756 508.907 207.603 501.252C211.485 495.139 220.393 492.482 226.988 495.469C230.21 496.929 232.661 499.324 234.203 502.161C235.525 504.598 237.7 506.429 240.206 507.613C240.922 507.957 241.638 508.37 242.313 508.866C246.966 512.294 248.715 518.573 246.485 523.901C243.538 530.923 235.291 533.718 228.765 530.18C228.049 529.794 227.374 529.34 226.768 528.83C224.166 526.682 221.013 525.374 217.695 524.727C216.18 524.438 214.693 523.915 213.275 523.144V523.158Z" fill="#F5F7FA"/>
<path d="M237.561 577.833C237.561 581.564 240.59 584.593 244.321 584.593C248.053 584.593 251.082 581.564 251.082 577.833C251.082 574.101 248.053 571.072 244.321 571.072C240.59 571.072 237.561 574.101 237.561 577.833Z" fill="#4747C7"/>
<path d="M201.24 562.025C208.345 561.612 214.513 565.893 216.923 572.048C217.184 572.709 217.818 573.136 218.534 573.136C223.256 573.136 227.029 577.211 226.519 582.03C226.134 585.72 223.16 588.708 219.47 589.135C219.029 589.19 218.602 589.203 218.176 589.176C215.463 589.052 212.792 589.864 210.493 591.282C208.07 592.783 205.233 593.637 202.177 593.637C193.282 593.637 186.095 586.298 186.357 577.349C186.591 569.212 193.103 562.479 201.227 562.011L201.24 562.025Z" fill="#00C7C7"/>
<path d="M184.304 567.959H167.865V468.648L175.465 446.315L184.304 468.648V567.959Z" fill="#4747C7"/>
<path d="M173.867 451.038L168.112 467.918C168.016 468.207 167.947 468.524 167.906 468.826H184.249C184.194 468.482 184.111 468.152 183.987 467.821L177.296 450.914C176.607 449.179 174.46 449.248 173.854 451.024L173.867 451.038Z" fill="white"/>
<path d="M175.685 459.244C177.296 459.244 178.755 458.417 179.747 457.123L177.296 450.927C176.608 449.193 174.46 449.261 173.854 451.038L171.734 457.275C172.725 458.486 174.129 459.257 175.685 459.257V459.244Z" fill="#4747C7"/>
<path d="M191.436 567.96L176.084 565.716L188.076 483.422L198.403 462.356L203.428 485.666L191.436 567.96Z" fill="#FF5F6B"/>
<path d="M196.227 466.817L188.42 482.747C188.283 483.022 188.172 483.325 188.104 483.628L203.359 485.859C203.359 485.514 203.331 485.17 203.263 484.84L199.462 467.202C199.077 465.385 197.067 465.165 196.241 466.845L196.227 466.817Z" fill="white"/>
<path d="M196.736 475.188C198.251 475.409 199.724 474.789 200.839 473.633L199.449 467.175C199.063 465.358 197.053 465.137 196.227 466.817L193.349 472.696C194.093 474.032 195.291 474.982 196.75 475.188H196.736Z" fill="#FF5F6B"/>
<path d="M177.379 556.863L176.677 561.682C176.346 563.913 177.558 565.923 179.362 566.185L188.174 567.465C189.977 567.727 191.712 566.143 192.029 563.913L192.731 559.094L177.379 556.85V556.863Z" fill="white" stroke="#4747C7" stroke-width="0.197988" stroke-miterlimit="10"/>
<path d="M178.836 571.54L163.581 574.322L148.656 492.51L151.699 469.255L163.911 489.729L178.836 571.54Z" fill="#00C7C7"/>
<path d="M151.066 474.17L148.753 491.753C148.712 492.056 148.712 492.372 148.726 492.689L163.899 489.921C163.788 489.591 163.651 489.274 163.472 488.985L154.233 473.482C153.283 471.885 151.3 472.325 151.066 474.17Z" fill="white"/>
<path d="M154.232 481.949C155.733 481.674 156.931 480.614 157.619 479.168L154.232 473.496C153.282 471.898 151.3 472.339 151.066 474.184L150.212 480.669C151.355 481.702 152.787 482.211 154.232 481.949Z" fill="#00C7C7"/>
<path d="M161.971 565.524L162.852 570.316C163.251 572.533 165.041 574.061 166.831 573.73L175.588 572.133C177.391 571.803 178.52 569.751 178.107 567.535L177.226 562.743L161.957 565.524H161.971Z" fill="white" stroke="#00C7C7" stroke-width="0.197988" stroke-miterlimit="10"/>
<path d="M149.759 536.43V597.589L157.262 604.404H192.689L200.179 597.589V536.43H149.759Z" fill="#F5F7FA" fill-opacity="0.9"/>
<path d="M266.611 589.824V604.777H186.479L164.959 597.851L186.479 589.824H266.611Z" fill="#FF5F6B"/>
<path d="M169.503 599.323L185.777 604.555C186.066 604.651 186.355 604.706 186.658 604.748V589.892C186.328 589.933 185.997 590.015 185.695 590.126L169.407 596.211C167.727 596.831 167.796 598.786 169.517 599.337L169.503 599.323Z" fill="white"/>
<path d="M177.42 597.658C177.42 596.184 176.622 594.876 175.369 593.968L169.393 596.198C167.713 596.818 167.782 598.773 169.503 599.324L175.506 601.251C176.677 600.356 177.42 599.076 177.42 597.658Z" fill="#FF5F6B"/>
<path d="M342.733 89.9431C363.647 84.1471 375.902 62.4946 370.106 41.5808C364.31 20.667 342.658 8.41163 321.744 14.2076C300.83 20.0036 288.575 41.6561 294.371 62.5699C300.166 83.4837 321.819 95.7391 342.733 89.9431Z" fill="#FF5F6B"/>
<path d="M347.158 88.4066L354.538 114.429L313.219 123.31L317.404 83.2021L347.158 88.4066Z" fill="#FF5F6B"/>
<path d="M304.366 8.79802C311.911 3.27688 321.218 0 331.297 0C356.507 0 376.939 20.4323 376.939 45.6423C376.939 64.7116 365.25 81.0409 348.645 87.87C343.785 83.2989 340.742 76.8002 340.742 69.5993C340.742 66.2261 341.416 63.018 342.614 60.0854C330.553 55.3077 322.196 44.9263 322.196 32.8652C322.196 32.5072 322.21 32.163 322.223 31.805C312.2 28.7898 304.82 19.6888 304.379 8.79802H304.366Z" fill="#4747C7"/>
<path d="M330.113 67.5468C329.301 66.0461 328.874 64.2975 329.012 62.4387C329.315 58.1568 332.605 54.577 336.846 53.9299C342.56 53.0624 347.806 57.5096 347.558 63.0996C347.324 68.2765 344.68 70.5621 342.257 71.581C340.274 72.4071 338.553 73.8252 337.59 75.7528C336.557 77.8043 334.437 79.3326 332.192 79.3326C328.833 79.3326 326.107 76.6064 326.107 73.2469C326.107 70.6172 327.773 68.3867 330.113 67.533V67.5468Z" fill="#FF5F6B"/>
<path d="M329.012 62.426C329.314 58.1441 332.605 54.5643 336.846 53.9172C342.56 53.0497 347.805 57.4969 347.558 63.0869C347.324 68.2638 344.68 70.5494 342.257 71.5683C340.274 72.3944 338.553 73.8125 337.589 75.7401C336.557 77.7916 334.436 79.3199 332.192 79.3199C328.833 79.3199 326.106 76.5937 326.106 73.2342" stroke="#4747C7" stroke-width="0.449973" stroke-miterlimit="10" stroke-linecap="round"/>
<path d="M375.149 114.691L447.942 191.01C459.577 203.209 458.213 222.76 444.996 233.21L390.266 276.553L342.655 202.382L375.149 114.691Z" fill="#FF5F6B"/>
<path d="M404.847 188.132L379.899 220.515" stroke="#4747C7" stroke-width="0.449973" stroke-miterlimit="10"/>
<path d="M420.337 162.055L364.038 209.184L348.218 187.361L375.149 114.691L420.337 162.055Z" fill="#F5F7FA"/>
<path d="M400.551 306.953V465.469L463.679 553.559L376.883 609.473L381.633 550.048L325.058 476.263L322.043 306.953H400.551Z" fill="#FF5F6B"/>
<path d="M400.551 465.469L413.975 484.194L355.335 510.808L362.991 306.953H400.551V465.469Z" fill="#4747C7"/>
<path d="M463.679 553.56L376.883 609.473L379.637 574.97L448.19 531.943L463.679 553.56Z" fill="#4747C7"/>
<path d="M463.679 553.559L376.883 609.473L377.53 601.418L460.595 549.264L463.679 553.559Z" fill="white" stroke="#4747C7" stroke-width="0.449973" stroke-miterlimit="10"/>
<path d="M260.979 604.488L300.536 579.952C305.961 576.593 309.127 570.549 308.811 564.188L302.67 440.437C295.001 433.828 290.485 424.287 290.251 414.167L284.027 150.433L382.21 133.388L388.819 233.305C400.109 243.425 407.42 259.589 407.42 277.818C407.42 292.964 402.367 306.691 394.189 316.7C385.542 327.288 381.067 340.671 381.604 354.329L391.655 609.499H262.411C259.699 609.499 258.68 605.947 260.993 604.515L260.979 604.488Z" fill="#FF5F6B"/>
<path d="M393.721 238.331H286.121L284.042 150.419L382.224 133.374L388.833 233.291C390.554 234.833 392.192 236.527 393.707 238.344L393.721 238.331Z" fill="#F5F7FA"/>
<path d="M389.15 233.58C400.247 243.714 407.42 259.74 407.42 277.79C407.42 292.936 402.367 306.663 394.189 316.672C385.542 327.26 381.068 340.643 381.605 354.302L386.685 483.174H304.804L302.684 440.423C295.015 433.814 290.499 424.273 290.265 414.153L285.997 233.58H389.15Z" fill="#4747C7"/>
<path d="M260.98 604.488L300.536 579.953C305.961 576.593 309.128 570.549 308.811 564.188L308.66 561.214C319.303 562.15 327.66 571.072 327.66 581.963C327.66 583.574 327.467 585.143 327.123 586.658H390.747L391.642 609.486H262.398C259.685 609.486 258.666 605.934 260.98 604.502V604.488Z" fill="#4747C7"/>
<path d="M352.182 241.814C352.182 255.224 341.304 266.101 327.894 266.101C314.484 266.101 303.607 255.224 303.607 241.814C303.607 238.922 304.116 236.141 305.038 233.58H350.75C351.672 236.155 352.182 238.922 352.182 241.814Z" fill="#F5F7FA"/>
<path d="M391.655 609.472H262.411C259.961 609.472 258.9 606.567 260.429 604.956H391.477L391.655 609.472Z" fill="white" stroke="#4747C7" stroke-width="0.449973" stroke-miterlimit="10"/>
<path d="M400.55 465.469L389.288 448.837" stroke="#4747C7" stroke-width="0.557967" stroke-miterlimit="10"/>
<path d="M382.348 136.459L389.149 233.581" stroke="#4747C7" stroke-width="0.449973" stroke-miterlimit="10" stroke-linecap="round"/>
<path d="M388.833 233.278C400.123 243.398 407.434 259.562 407.434 277.792C407.434 292.937 402.381 306.664 394.203 316.674C385.556 327.262 381.082 340.644 381.618 354.303L391.669 609.473" stroke="white" stroke-width="0.449973" stroke-miterlimit="10" stroke-linecap="round"/>
<path d="M264.395 209.184L244.101 144.844L330.002 103.553C334.793 101.24 340.163 99.9453 345.835 99.9453C366.006 99.9453 382.349 116.288 382.349 136.459C382.349 151.109 373.716 163.734 361.256 169.558L361.118 169.613C360.127 170.068 359.108 170.495 358.076 170.853L264.381 209.17L264.395 209.184Z" fill="#FF5F6B"/>
<path d="M277.393 128.831L330.002 103.553C334.794 101.24 340.163 99.9453 345.836 99.9453C366.007 99.9453 382.35 116.288 382.35 136.459C382.35 151.109 373.717 163.734 361.257 169.558L361.119 169.614C360.128 170.068 359.109 170.495 358.076 170.853L306.417 191.987L277.393 128.831Z" fill="#F5F7FA"/>
<path d="M362.235 169.075L284.044 201.142" stroke="#4747C7" stroke-width="0.449973" stroke-miterlimit="10" stroke-linecap="round"/>
<path d="M230.801 203.331C230.126 202.767 229.479 202.189 228.845 201.569L152.018 129.67L184.277 99.9443L268.87 146.963C268.87 146.963 268.939 147.005 268.967 147.019L269.338 147.225C279.747 153.09 286.783 164.229 286.783 177.034C286.783 195.91 271.486 211.207 252.61 211.207C244.335 211.207 236.749 208.26 230.828 203.373L230.787 203.331H230.801Z" fill="#FF5F6B"/>
<path d="M219.164 35.1524L218.806 34.3025C218.176 32.8103 216.456 32.1111 214.964 32.7408L129.212 68.9284C127.72 69.5581 127.021 71.2783 127.65 72.7706L128.009 73.6205C128.639 75.1127 130.359 75.8119 131.851 75.1822L217.603 38.9946C219.095 38.3649 219.794 36.6447 219.164 35.1524Z" fill="#4747C7"/>
<path d="M129.632 83.9873C135.456 81.5228 138.196 74.8038 135.731 68.9797C133.267 63.1557 126.548 60.4158 120.724 62.8803C116.221 64.7804 106.446 76.3458 102.246 81.4952C101.379 82.5554 102.054 84.1388 103.417 84.2627C110.039 84.8409 125.143 85.9011 129.645 84.0011L129.632 83.9873Z" fill="#00C7C7"/>
<path d="M134.326 88.7655C134.326 82.8175 137.92 77.7094 143.042 75.4927C144.556 70.3158 148.893 66.3367 154.29 65.3454C156.053 62.9497 158.545 61.1323 161.436 60.1823L151.853 49.5117C148.081 45.3124 148.425 38.855 152.624 35.0824C156.824 31.3099 163.281 31.6541 167.054 35.8535L189.248 60.5678C190.763 62.2613 191.617 64.3265 191.823 66.4193C191.919 67.4933 191.851 68.581 191.617 69.6412L189.482 103.236L162.923 123.366L162.455 130.387L152.046 129.685C146.291 129.3 141.954 124.329 142.339 118.574L143.441 102.217C138.112 100.083 134.34 94.8787 134.34 88.7793L134.326 88.7655Z" fill="#FF5F6B"/>
<path d="M143.413 102.204C138.085 100.069 134.312 94.8649 134.312 88.7655C134.312 80.7798 140.784 74.2949 148.783 74.2949C156.783 74.2949 163.254 80.7661 163.254 88.7655" stroke="#4747C7" stroke-width="0.449973" stroke-miterlimit="10"/>
<path d="M171.376 79.5673C171.376 71.5816 164.905 65.0967 156.906 65.0967C150.338 65.0967 144.776 69.4888 143.027 75.4918" stroke="#4747C7" stroke-width="0.449973" stroke-miterlimit="10"/>
<path d="M180.381 73.9364C180.381 65.9507 173.909 59.4658 165.91 59.4658C161.132 59.4658 156.905 61.7789 154.276 65.3449" stroke="#4747C7" stroke-width="0.449973" stroke-miterlimit="10"/>
<path d="M143.647 94.9609L142.311 119.317C142.05 124.067 145.299 128.281 149.967 129.244L152.032 129.671" stroke="#4747C7" stroke-width="0.449973" stroke-miterlimit="10"/>
</svg>
