<svg width="578" height="506" viewBox="0 0 578 506" fill="none" xmlns="http://www.w3.org/2000/svg">
<path d="M31.0164 470.882C30.9882 482.294 32.7819 493.325 36.1435 503.734C36.3977 504.511 37.1745 505.033 38.0643 505.033H523.508C523.988 505.033 524.454 504.878 524.807 504.596C557.236 479.229 577.701 441.574 577.701 399.47C577.701 362.141 561.473 328.257 535.117 303.37C513.14 282.636 512.307 249.996 532.829 228.047C555.061 204.262 568.606 173.542 569.015 139.941C569.947 63.5867 501.29 0.141535 417.521 0.000294414C353.228 -0.112698 296.803 32.302 275.263 90.5495C265.024 118.247 235.236 135.93 203.259 133.698C201.183 133.557 199.092 133.444 197.002 133.374C108.303 130.506 36.9485 195.336 39.8016 276.196C40.5643 297.763 46.7506 318.088 57.1459 336.082C70.1683 358.61 68.3463 385.756 52.6545 406.829C39.053 425.106 31.0871 447.139 31.0164 470.867V470.882Z" fill="#4747C7" fill-opacity="0.22"/>
<path d="M71.7645 504.964H127.526L154.602 387.649H44.6887L71.7645 504.964Z" fill="#445BF8"/>
<path d="M126.848 344.84L115.196 387.65" stroke="#4747C7" stroke-width="0.4" stroke-miterlimit="10"/>
<path d="M80.8323 304.713L98.0212 387.649" stroke="#4747C7" stroke-width="0.4" stroke-miterlimit="10"/>
<path d="M87.6538 353.879L93.5718 387.649" stroke="#4747C7" stroke-width="0.2" stroke-miterlimit="10"/>
<path d="M130.351 243.67L109.673 387.65" stroke="#4747C7" stroke-width="0.4" stroke-miterlimit="10"/>
<path d="M105.86 254.885V387.651" stroke="#4747C7" stroke-width="0.4" stroke-miterlimit="10"/>
<path d="M112.018 338.314C113.741 335.885 116.905 334.769 120.817 334.854C121.057 330.941 122.441 327.89 125.012 326.379C131.184 322.735 141.876 329.388 148.882 341.266C154.192 350.277 155.859 359.684 153.655 365.291C153.429 365.983 153.119 366.619 152.709 367.212C152.398 367.65 152.045 368.045 151.65 368.398C151.269 368.765 150.845 369.09 150.379 369.359C149.757 369.726 149.093 369.98 148.387 370.15C142.61 371.873 133.373 369.429 124.842 363.37C113.614 355.39 107.865 344.175 112.018 338.328V338.314Z" fill="#00C7C7"/>
<path d="M95.3801 343.286C97.3998 344.868 98.2473 347.636 98.0072 350.998C101.355 351.365 103.939 352.664 105.14 354.938C108.035 360.404 101.877 369.345 91.383 374.896C83.417 379.119 75.2534 380.178 70.5077 378.059C69.9286 377.847 69.3778 377.551 68.8975 377.17C68.5303 376.887 68.2055 376.562 67.923 376.209C67.6264 375.87 67.358 375.489 67.1462 375.079C66.8496 374.528 66.6659 373.949 66.5529 373.328C65.2959 368.285 67.7676 360.433 73.3184 353.328C80.6346 343.978 90.5073 339.472 95.3801 343.286Z" fill="#00C7C7"/>
<path d="M110.719 304.728C111.707 300.322 115.478 296.889 121.015 294.728C119.066 289.121 119.207 284.037 121.919 280.407C128.43 271.678 147.3 274.743 164.051 287.257C176.763 296.748 184.616 308.951 184.813 318.09C184.912 319.177 184.842 320.265 184.602 321.338C184.418 322.129 184.15 322.892 183.811 323.612C183.486 324.347 183.09 325.053 182.596 325.702C181.946 326.578 181.155 327.327 180.265 327.976C173.189 333.781 158.825 335.759 143.345 332.27C122.95 327.68 108.346 315.35 110.733 304.728H110.719Z" fill="#00C7C7"/>
<path d="M118.459 258.91C118.36 256.339 119.927 253.91 122.639 251.918C120.747 249.122 120.083 246.311 121.043 243.924C123.345 238.19 134.136 237.116 145.167 241.523C153.528 244.87 159.616 250.421 161.071 255.421C161.283 256.014 161.41 256.607 161.424 257.229C161.438 257.695 161.41 258.147 161.325 258.599C161.254 259.051 161.141 259.489 160.972 259.913C160.746 260.492 160.421 261.014 160.026 261.494C156.989 265.703 149.39 268.895 140.393 269.249C128.529 269.715 118.713 265.082 118.473 258.896L118.459 258.91Z" fill="#00C7C7"/>
<path d="M89.7443 289.615C92.0889 292.228 92.555 296.169 91.4251 300.646C95.86 301.946 99.0097 304.333 100.083 307.68C102.668 315.745 92.2019 326.281 76.7361 331.239C64.9849 334.996 53.728 334.445 47.8524 330.448C47.118 330.01 46.4541 329.488 45.8892 328.852C45.4654 328.386 45.1123 327.878 44.8157 327.327C44.4909 326.79 44.2367 326.225 44.0389 325.618C43.7847 324.813 43.6576 323.965 43.6576 323.118C43.1773 316.027 48.4174 306.042 57.6121 297.822C69.7305 286.988 84.1088 283.316 89.7584 289.63L89.7443 289.615Z" fill="#00C7C7"/>
<path d="M106.948 242.624C108.614 245.718 108.148 249.644 106.001 253.74C109.998 256.042 112.512 259.093 112.767 262.61C113.388 271.042 100.747 278.853 84.5468 280.053C72.2448 280.957 61.4258 277.793 56.6519 272.525C56.0445 271.932 55.5219 271.268 55.1124 270.505C54.8157 269.955 54.5898 269.375 54.4203 268.768C54.2367 268.175 54.1095 267.553 54.0672 266.932C54.0107 266.085 54.0813 265.237 54.279 264.404C55.4796 257.398 62.9088 248.924 73.7702 243.076C88.0779 235.379 102.936 235.181 106.933 242.639L106.948 242.624Z" fill="#00C7C7"/>
<path d="M121.001 294.729L184.587 321.339" stroke="white" stroke-width="0.4" stroke-miterlimit="10"/>
<path d="M122.639 251.918L161.424 257.243" stroke="white" stroke-width="0.4" stroke-miterlimit="10"/>
<path d="M105.86 254.885L54.4343 268.755" stroke="white" stroke-width="0.4" stroke-miterlimit="10"/>
<path d="M91.4252 300.646L44.8018 327.313" stroke="white" stroke-width="0.4" stroke-miterlimit="10"/>
<path d="M120.817 334.854L151.636 368.384" stroke="white" stroke-width="0.4" stroke-miterlimit="10"/>
<path d="M98.007 350.998L67.9229 376.209" stroke="white" stroke-width="0.4" stroke-miterlimit="10"/>
<path d="M391.123 431.207H196.621V505.033H391.123V431.207Z" fill="#00C7C7"/>
<path d="M237.651 215.63H339.867C368.468 215.63 393.778 234.119 402.493 261.35L443.961 391.008C450.317 410.881 435.486 431.191 414.625 431.191H147.624C110.323 431.191 87.7526 389.992 107.823 358.551L178.344 248.116C191.268 227.876 213.626 215.616 237.651 215.616V215.63Z" fill="#4747C7"/>
<path d="M365.7 431.207H414.625C435.487 431.207 450.317 410.897 443.961 391.024L402.493 261.365C395.643 239.939 378.496 223.923 357.578 218.075L365.7 431.207Z" fill="#FF5F6B"/>
<path d="M402.493 261.365C395.643 239.939 378.496 223.923 357.578 218.075L362.296 342.042L424.922 331.505L402.493 261.365Z" fill="#4747C7"/>
<path d="M178.344 248.13L107.823 358.566C87.7526 390.006 110.323 431.206 147.624 431.206H196.607L228.103 216.295C207.807 219.077 189.53 230.603 178.33 248.13H178.344Z" fill="#FF5F6B"/>
<path d="M209.474 343.482L228.117 216.295C207.821 219.077 189.545 230.603 178.344 248.13L137.738 311.731L209.474 343.482Z" fill="#4747C7"/>
<path d="M328.398 215.632H246.493C249.939 235.123 266.958 249.925 287.438 249.925C307.918 249.925 324.938 235.123 328.384 215.632H328.398Z" fill="#FF5F6B"/>
<path d="M264.91 180.66L259.317 227.185L263.385 229.614C277.509 238.046 295.037 238.385 309.486 230.504L315.573 227.185L306.378 180.66H264.91Z" fill="#FF5F6B"/>
<path d="M323.043 161.883C329.55 135.69 313.59 109.181 287.396 102.674C261.203 96.1679 234.694 112.127 228.187 138.321C221.681 164.515 237.64 191.024 263.834 197.53C290.028 204.037 316.537 188.077 323.043 161.883Z" fill="#FF5F6B"/>
<path d="M274.568 90.6094C255.581 90.6094 238.697 99.6775 227.983 113.731C235.832 118.477 245.63 121.319 256.293 121.319C265.6 121.319 274.262 119.158 281.518 115.449C284.417 113.969 287.858 116.112 287.824 119.379C287.604 142.687 304.539 152.964 320.593 152.964C325.068 152.964 329.34 151.926 333.205 150.054C333.205 149.867 333.205 149.663 333.205 149.476C333.205 116.963 306.946 90.6094 274.551 90.6094H274.568Z" fill="#4747C7"/>
<path d="M334.754 163.148C337.776 156.891 334.923 149.32 328.356 146.693C322.847 144.504 316.477 146.707 313.497 151.834C311.153 155.888 311.435 160.619 313.681 164.263C312.113 165.182 310.828 166.622 310.107 168.487C308.667 172.272 310.235 176.622 313.766 178.614C317.96 180.986 323.229 179.306 325.305 175.026C325.418 174.8 325.517 174.574 325.602 174.334C326.59 171.707 328.384 169.433 330.7 167.851C332.381 166.707 333.793 165.111 334.754 163.148Z" fill="#FF5F6B"/>
<path d="M310.121 168.487C308.681 172.272 310.248 176.622 313.779 178.614C317.974 180.986 323.243 179.306 325.319 175.026C325.432 174.8 325.531 174.574 325.615 174.334C326.604 171.707 328.398 169.433 330.714 167.851C332.395 166.707 333.807 165.111 334.768 163.148C337.79 156.891 334.937 149.32 328.37 146.693C322.861 144.504 316.491 146.707 313.511 151.834C312.07 154.334 311.619 157.088 312.014 159.701" stroke="#4747C7" stroke-width="0.25" stroke-miterlimit="10"/>
<path d="M341.999 431.206H219.29L233.823 294.062H328.497L341.999 431.206Z" fill="#00C7C7"/>
<path d="M233.823 294.061L260.617 216.294" stroke="#4747C7" stroke-width="0.25" stroke-miterlimit="10"/>
<path d="M313.413 215.277L328.497 294.061" stroke="#4747C7" stroke-width="0.25" stroke-miterlimit="10"/>
<path d="M308.751 462.831H184.728L128.232 249.516H259.317L308.751 462.831Z" fill="white" stroke="#4747C7" stroke-width="0.25" stroke-miterlimit="10"/>
<path d="M128.232 249.516L184.728 462.831H295.348L245.914 249.516H128.232Z" fill="white" stroke="#4747C7" stroke-width="0.25" stroke-miterlimit="10"/>
<path d="M174.163 454.087C186.558 454.087 196.606 446.549 196.606 437.251C196.606 427.953 186.558 420.415 174.163 420.415C161.768 420.415 151.72 427.953 151.72 437.251C151.72 446.549 161.768 454.087 174.163 454.087Z" fill="#FF5F6B" stroke="#4747C7" stroke-width="0.25" stroke-miterlimit="10"/>
<path d="M162.567 444.357C177.544 444.357 189.686 435.257 189.686 424.033C189.686 412.808 177.544 403.708 162.567 403.708C147.59 403.708 135.449 412.808 135.449 424.033C135.449 435.257 147.59 444.357 162.567 444.357Z" fill="#FF5F6B" stroke="#4747C7" stroke-width="0.25" stroke-miterlimit="10"/>
<path d="M188.496 418.173C193.411 406.599 183.938 391.502 167.339 384.452C150.739 377.403 133.297 381.07 128.382 392.644C123.467 404.218 132.939 419.315 149.539 426.365C166.139 433.415 183.58 429.747 188.496 418.173Z" fill="#FF5F6B" stroke="#4747C7" stroke-width="0.25" stroke-miterlimit="10"/>
<path d="M170.731 374.187C167.454 372.789 164.135 371.885 160.971 371.447L155.83 357.479L152.751 358.962C143.74 363.283 138.331 372.704 139.136 382.662L139.305 384.766C139.842 392.266 146.974 400.557 157.624 405.076C170.901 410.712 184.601 408.367 188.217 399.836C191.832 391.306 184.022 379.823 170.745 374.187H170.731Z" fill="#FF5F6B" stroke="#4747C7" stroke-width="0.25" stroke-miterlimit="10"/>
<path d="M448.184 412.929C448.184 388.212 428.142 368.17 403.425 368.17C398.862 368.17 394.47 368.848 390.317 370.119L317.014 391.701L326.208 465.541L407.619 457.702L407.577 457.504C430.345 455.414 448.184 436.262 448.184 412.943V412.929Z" fill="#FF5F6B"/>
<path d="M324.782 454.918L322.353 433.987H322.197L320.404 418.493L320.206 418.521L318.059 400.032L317.508 394.679C315.813 380.047 302.579 369.567 287.961 371.262L294.246 399.524L253.286 404.27C246.86 405.018 242.255 410.823 243.004 417.25C243.498 421.572 246.295 425.074 250.038 426.67L245.151 427.235C239.374 427.899 235.221 433.139 235.899 438.916C236.549 444.594 241.606 448.676 247.255 448.195C246.605 449.791 246.323 451.571 246.535 453.407C247.199 459.184 252.439 463.336 258.215 462.658L266.732 461.67C266.732 461.811 266.746 461.938 266.775 462.079C267.438 467.856 272.678 472.009 278.455 471.331L326.067 465.822L324.81 454.947L324.782 454.918Z" fill="#FF5F6B"/>
<path d="M288.497 459.283L258.201 462.616C252.424 463.28 247.198 459.142 246.52 453.365C246.309 451.529 246.577 449.749 247.241 448.153" stroke="#4747C7" stroke-width="0.25" stroke-miterlimit="10"/>
<path d="M287.226 443.548L247.566 448.138C241.789 448.802 236.563 444.664 235.885 438.887C235.222 433.11 239.36 427.885 245.137 427.207L250.024 426.642" stroke="#4747C7" stroke-width="0.25" stroke-miterlimit="10"/>
<path d="M285.447 424.087L255.97 427.491C249.543 428.239 243.738 423.635 242.99 417.208C242.241 410.782 246.846 404.977 253.272 404.228L296.958 399.172" stroke="#4747C7" stroke-width="0.25" stroke-miterlimit="10"/>
<path d="M180.703 505.67C183.866 499.244 185.632 492.012 185.632 484.371C185.632 479.075 184.77 473.976 183.203 469.202C180.787 461.871 182.977 453.849 188.909 448.906C197.877 441.448 203.584 430.191 203.584 417.621C203.584 413.708 203.033 409.909 201.988 406.336C200.603 401.548 202.44 396.463 206.422 393.469C212.694 388.737 216.662 381.11 216.366 372.579C215.9 359.585 205.307 349.458 192.341 348.498C182.525 347.763 169.262 353.837 166.649 367.283C165.618 372.622 161.324 376.774 155.986 377.763C136.028 381.407 122.187 398.412 122.187 417.635C122.187 420.996 122.596 424.259 123.359 427.381C124.673 432.719 121.933 438.185 116.947 440.502C97.6674 449.456 85.2665 470.727 89.8992 494.216C90.6902 498.241 91.9896 502.083 93.7127 505.684" stroke="white" stroke-width="0.57" stroke-miterlimit="10"/>
<path d="M94.3767 505.67C98.9105 500.656 101.679 494.018 101.679 486.716C101.679 476.447 96.1987 467.45 87.9927 462.507C84.5888 460.459 82.6397 456.716 82.7527 452.747C82.7527 452.535 82.7527 452.309 82.7527 452.083C82.7527 444.132 78.4307 437.183 71.9901 433.482C68.6145 431.533 66.51 427.889 66.623 423.991C66.623 423.609 66.623 423.214 66.623 422.818C66.2699 415.22 60.1824 408.991 52.5978 408.468C43.7703 407.861 36.4399 414.838 36.4399 423.539C36.4399 427.098 37.6687 430.375 39.7308 432.96C42.2449 436.095 42.824 440.403 41.341 444.132C40.3523 446.589 39.8156 449.273 39.8156 452.083C39.8156 457.055 41.4963 461.617 44.3353 465.261C47.0895 468.806 48.0217 473.496 46.5951 477.747C45.5641 480.826 45.0556 484.145 45.1545 487.591C45.3663 494.526 48.1064 500.84 52.4848 505.67" stroke="white" stroke-width="0.57" stroke-miterlimit="10"/>
<path d="M465.218 504.679C465.881 504.679 466.545 504.665 467.209 504.636V504.679H513.324C514.27 504.679 515.231 504.679 516.205 504.608C532.406 503.577 546.12 490.3 546.12 474.072C546.12 460.866 540.004 452.716 534.651 448.112C529.821 443.945 526.544 438.268 525.174 432.039C521.276 414.313 508.141 381.531 464.342 381.531C431.165 381.531 404.103 409.059 403.637 442.236C403.157 476.642 430.91 504.693 465.218 504.693V504.679ZM507.787 471.643C507.787 464.905 513.239 459.454 519.976 459.454C526.714 459.454 532.165 464.905 532.165 471.643C532.165 478.38 526.714 483.832 519.976 483.832C513.239 483.832 507.787 478.38 507.787 471.643Z" fill="white"/>
<path d="M487.392 438.946C492.872 435.909 499.836 438.084 502.576 443.833C504.948 448.833 503.126 454.934 498.409 457.83C496.799 458.818 495.047 459.327 493.296 459.426C490.641 459.567 488.028 460.146 485.655 461.332C485.556 461.389 485.443 461.431 485.344 461.488C481.277 463.338 476.347 461.827 474.017 458.013C471.347 453.635 472.873 447.971 477.322 445.513C477.802 445.245 478.282 445.033 478.791 444.864C481.107 444.087 483.141 442.703 484.836 440.937C485.57 440.175 486.432 439.497 487.42 438.96L487.392 438.946Z" fill="#4747C7"/>
<path d="M460.726 420.95C452.704 416.6 449.935 406.332 454.907 398.479C458.89 392.208 468.028 389.482 474.794 392.547C478.099 394.044 480.613 396.502 482.195 399.411C483.55 401.911 485.782 403.79 488.353 405.004C489.087 405.357 489.822 405.781 490.514 406.29C495.288 409.807 497.081 416.247 494.793 421.713C491.771 428.916 483.31 431.784 476.616 428.154C475.881 427.758 475.189 427.292 474.568 426.77C471.898 424.566 468.664 423.224 465.26 422.561C463.706 422.264 462.181 421.727 460.726 420.936V420.95Z" fill="#4747C7"/>
<path d="M485.655 477.037C485.655 480.865 488.762 483.972 492.59 483.972C496.418 483.972 499.525 480.865 499.525 477.037C499.525 473.21 496.418 470.103 492.59 470.103C488.762 470.103 485.655 473.21 485.655 477.037Z" fill="#00C7C7"/>
<path d="M448.396 460.823C455.684 460.399 462.012 464.792 464.483 471.105C464.752 471.783 465.401 472.221 466.136 472.221C470.98 472.221 474.85 476.402 474.328 481.345C473.932 485.131 470.881 488.196 467.096 488.633C466.644 488.69 466.206 488.704 465.769 488.676C462.986 488.549 460.246 489.382 457.887 490.837C455.402 492.376 452.492 493.252 449.356 493.252C440.232 493.252 432.86 485.724 433.128 476.543C433.368 468.196 440.049 461.289 448.382 460.809L448.396 460.823Z" fill="#00C7C7"/>
<path d="M431.024 466.898H414.145V365.021L421.956 342.112L431.024 365.021V466.898Z" fill="#00C7C7"/>
<path d="M420.303 346.956L414.399 364.272C414.3 364.569 414.23 364.894 414.187 365.205H430.952C430.896 364.851 430.811 364.512 430.684 364.173L423.82 346.829C423.114 345.05 420.91 345.12 420.289 346.942L420.303 346.956Z" fill="white"/>
<path d="M422.168 355.389C423.82 355.389 425.317 354.542 426.334 353.214L423.82 346.858C423.114 345.079 420.911 345.149 420.289 346.971L418.114 353.37C419.131 354.613 420.572 355.404 422.168 355.404V355.389Z" fill="#00C7C7"/>
<path d="M438.325 466.898L422.577 464.61L434.893 380.191L445.486 358.581L450.642 382.479L438.325 466.898Z" fill="#FF5F6B"/>
<path d="M443.24 363.156L435.232 379.498C435.091 379.78 434.978 380.091 434.907 380.402L450.557 382.69C450.557 382.337 450.528 381.984 450.458 381.645L446.56 363.552C446.164 361.687 444.102 361.461 443.254 363.185L443.24 363.156Z" fill="white"/>
<path d="M443.777 371.745C445.331 371.971 446.842 371.335 447.986 370.149L446.559 363.524C446.164 361.66 444.102 361.434 443.254 363.157L440.302 369.188C441.065 370.558 442.294 371.533 443.791 371.745H443.777Z" fill="#FF5F6B"/>
<path d="M423.904 455.529L423.184 460.472C422.845 462.76 424.088 464.822 425.938 465.091L434.978 466.404C436.828 466.673 438.608 465.048 438.932 462.76L439.653 457.817L423.904 455.515V455.529Z" fill="white" stroke="#4747C7" stroke-width="0.11" stroke-miterlimit="10"/>
<path d="M425.416 470.585L409.752 473.438L394.442 389.513L397.577 365.657L410.105 386.66L425.416 470.585Z" fill="#3359F8"/>
<path d="M396.914 370.7L394.541 388.736C394.498 389.047 394.498 389.372 394.513 389.697L410.077 386.858C409.964 386.519 409.823 386.194 409.639 385.897L400.162 369.994C399.188 368.355 397.154 368.807 396.914 370.7Z" fill="white"/>
<path d="M400.162 378.666C401.702 378.383 402.93 377.296 403.637 375.813L400.162 369.994C399.188 368.355 397.154 368.807 396.914 370.7L396.038 377.352C397.21 378.412 398.679 378.934 400.162 378.666Z" fill="#3359F8"/>
<path d="M408.1 464.414L409.004 469.329C409.413 471.603 411.249 473.17 413.086 472.832L422.068 471.193C423.919 470.854 425.077 468.75 424.653 466.476L423.749 461.561L408.086 464.414H408.1Z" fill="white" stroke="#4747C7" stroke-width="0.11" stroke-miterlimit="10"/>
<path d="M395.572 434.554V497.307L403.27 504.298H439.611L447.308 497.307V434.554H395.572Z" fill="#4747C7"/>
<path d="M515.443 489.326V504.665H433.241L411.165 497.575L433.241 489.326H515.443Z" fill="#4747C7"/>
<path d="M415.84 499.071L432.535 504.439C432.831 504.537 433.128 504.594 433.439 504.636V489.396C433.1 489.439 432.761 489.524 432.45 489.637L415.741 495.879C414.018 496.515 414.089 498.521 415.854 499.086L415.84 499.071Z" fill="white"/>
<path d="M423.961 497.375C423.961 495.864 423.142 494.522 421.857 493.59L415.727 495.878C414.004 496.514 414.075 498.519 415.84 499.084L421.998 501.061C423.199 500.143 423.961 498.83 423.961 497.375Z" fill="#4747C7"/>
<path d="M0 505.033H558.267" stroke="#4747C7" stroke-width="0.5" stroke-miterlimit="10"/>
<path d="M317 391.7L374.555 374.766" stroke="#4747C7" stroke-width="0.25" stroke-miterlimit="10"/>
</svg>
