<svg width="178" height="178" viewBox="0 0 178 178" fill="none" xmlns="http://www.w3.org/2000/svg">
<rect width="177.032" height="177.032" rx="31.6129" fill="#FF5F6B"/>
<path d="M105.778 58.7011C105.78 60.4969 105.428 62.2755 104.743 63.9353C104.058 65.5951 103.052 67.1035 101.784 68.3744C100.516 69.6453 99.0104 70.6539 97.3526 71.3423C95.6949 72.0308 93.9178 72.3858 92.1229 72.387H92.1038C89.9567 72.3856 87.8402 71.8779 85.9259 70.9049C84.0117 69.9319 82.3536 68.5211 81.0864 66.787C79.8191 65.0529 78.9783 63.0443 78.6322 60.9242C78.2861 58.804 78.4445 56.6322 79.0944 54.5848C79.7443 52.5373 80.8675 50.672 82.3729 49.1403C83.8782 47.6085 85.7233 46.4533 87.7584 45.7686C89.7935 45.0838 91.9613 44.8887 94.0859 45.1991C96.2105 45.5095 98.232 46.3166 99.9864 47.555" stroke="white" stroke-width="2.37097" stroke-miterlimit="10"/>
<path d="M120.418 52.1213C118.757 54.7938 118.07 57.9581 118.473 61.079C118.956 64.4179 120.635 67.4674 123.198 69.6594C125.762 71.8515 129.034 73.0367 132.405 72.9943C135.034 73.0117 137.606 72.238 139.789 70.7734C141.972 69.3089 143.664 67.2214 144.646 64.7821C145.533 62.6929 145.889 60.4165 145.683 58.156C145.476 55.8955 144.713 53.7214 143.462 51.8279C142.211 49.9344 140.51 48.3804 138.512 47.3049C136.514 46.2293 134.281 45.6656 132.013 45.6641H113.395C111.376 45.6635 109.439 46.4654 108.01 47.8934C106.582 49.3214 105.779 51.2586 105.778 53.2789L105.77 78.3601C105.773 81.9873 104.335 85.467 101.773 88.0336C99.2117 90.6002 95.7359 92.0435 92.1105 92.046C88.4852 92.0485 85.0073 90.6101 82.442 88.047C79.8768 85.484 78.4342 82.0064 78.4316 78.3792" stroke="white" stroke-width="2.37097" stroke-miterlimit="10"/>
<path d="M51.0892 65.6353C49.2736 62.5075 48.7707 58.7873 49.6906 55.2893C50.6104 51.7913 52.8781 48.8005 55.9971 46.9716C59.1161 45.1427 62.8324 44.6248 66.3322 45.5313C69.832 46.4377 72.8303 48.6947 74.6707 51.808L74.6796 51.8248C75.9082 53.9291 76.5522 56.3236 76.5451 58.7606C76.5379 61.1975 75.8798 63.5883 74.639 65.6853C73.3981 67.7823 71.6195 69.5093 69.4874 70.6876C67.3553 71.8658 64.9472 72.4525 62.5124 72.3867H44.3502C40.9724 72.3835 37.734 71.0393 35.3459 68.6494C32.9578 66.2594 31.6152 63.019 31.6128 59.6395V30.8228" stroke="white" stroke-width="2.37097" stroke-miterlimit="10"/>
<path d="M33.7424 127.645V114.789H35.5451V126.006H41.2082V127.645H33.7424ZM50.3248 126.48C49.4143 127.402 48.2793 127.864 46.9196 127.864C45.56 127.864 44.4249 127.402 43.5144 126.48C42.604 125.545 42.1487 124.398 42.1487 123.038C42.1487 121.678 42.604 120.537 43.5144 119.615C44.4249 118.68 45.56 118.213 46.9196 118.213C48.2793 118.213 49.4143 118.68 50.3248 119.615C51.2353 120.537 51.6905 121.678 51.6905 123.038C51.6905 124.398 51.2353 125.545 50.3248 126.48ZM44.7891 120.816C44.2307 121.423 43.9515 122.164 43.9515 123.038C43.9515 123.912 44.2307 124.659 44.7891 125.278C45.3475 125.885 46.0577 126.188 46.9196 126.188C47.7815 126.188 48.4917 125.885 49.0501 125.278C49.6085 124.659 49.8878 123.912 49.8878 123.038C49.8878 122.164 49.6085 121.423 49.0501 120.816C48.4917 120.197 47.7815 119.888 46.9196 119.888C46.0577 119.888 45.3475 120.197 44.7891 120.816ZM53.1164 128.938C53.1164 128.112 53.6323 127.445 54.6642 126.935C54.2636 126.643 54.0633 126.231 54.0633 125.697C54.0633 125.175 54.3364 124.713 54.8827 124.313C54.4214 124.009 54.0511 123.621 53.7719 123.147C53.5048 122.662 53.3713 122.14 53.3713 121.581C53.3713 120.647 53.7234 119.851 54.4275 119.196C55.1437 118.54 56.0177 118.213 57.0496 118.213C57.5109 118.213 57.954 118.285 58.3789 118.431H61.7659V119.906H60.2545C60.5701 120.404 60.7279 120.962 60.7279 121.581C60.7279 122.516 60.3698 123.311 59.6536 123.967C58.9495 124.622 58.0815 124.95 57.0496 124.95C56.734 124.95 56.4184 124.914 56.1027 124.841C55.8599 125.023 55.7385 125.229 55.7385 125.46C55.7385 125.654 55.8114 125.812 55.9571 125.933C56.1027 126.055 56.2727 126.115 56.4669 126.115H58.7977C59.7203 126.115 60.4609 126.358 61.0193 126.844C61.5777 127.317 61.8569 127.93 61.8569 128.683C61.8569 129.496 61.432 130.17 60.5823 130.704C59.7446 131.238 58.6399 131.505 57.2681 131.505C55.9813 131.505 54.9677 131.275 54.2272 130.813C53.4866 130.364 53.1164 129.739 53.1164 128.938ZM58.4335 120.307C58.0572 119.942 57.5959 119.76 57.0496 119.76C56.5033 119.76 56.036 119.942 55.6475 120.307C55.2712 120.659 55.083 121.084 55.083 121.581C55.083 122.079 55.2712 122.51 55.6475 122.874C56.036 123.226 56.5033 123.402 57.0496 123.402C57.5959 123.402 58.0572 123.226 58.4335 122.874C58.822 122.51 59.0162 122.079 59.0162 121.581C59.0162 121.084 58.822 120.659 58.4335 120.307ZM54.8827 128.774C54.8827 129.126 55.1073 129.405 55.5564 129.612C56.0056 129.818 56.5883 129.921 57.3045 129.921C58.2029 129.921 58.8948 129.812 59.3804 129.593C59.8782 129.375 60.127 129.084 60.127 128.719C60.127 128.392 59.9874 128.137 59.7082 127.955C59.429 127.772 59.0769 127.681 58.652 127.681H55.9571C55.69 127.754 55.4411 127.882 55.2105 128.064C54.9919 128.246 54.8827 128.483 54.8827 128.774ZM71.1483 126.48C70.2378 127.402 69.1028 127.864 67.7431 127.864C66.3835 127.864 65.2484 127.402 64.338 126.48C63.4275 125.545 62.9722 124.398 62.9722 123.038C62.9722 121.678 63.4275 120.537 64.338 119.615C65.2484 118.68 66.3835 118.213 67.7431 118.213C69.1028 118.213 70.2378 118.68 71.1483 119.615C72.0588 120.537 72.514 121.678 72.514 123.038C72.514 124.398 72.0588 125.545 71.1483 126.48ZM65.6126 120.816C65.0542 121.423 64.775 122.164 64.775 123.038C64.775 123.912 65.0542 124.659 65.6126 125.278C66.171 125.885 66.8812 126.188 67.7431 126.188C68.605 126.188 69.3152 125.885 69.8736 125.278C70.4321 124.659 70.7113 123.912 70.7113 123.038C70.7113 122.164 70.4321 121.423 69.8736 120.816C69.3152 120.197 68.605 119.888 67.7431 119.888C66.8812 119.888 66.171 120.197 65.6126 120.816ZM83.1556 127.864C81.9052 127.864 80.8308 127.542 79.9325 126.898C79.0342 126.243 78.585 125.381 78.585 124.313C78.585 123.584 78.8157 122.941 79.277 122.382C79.7504 121.812 80.4545 121.247 81.3893 120.689C80.8673 120.118 80.4849 119.609 80.2421 119.159C79.9993 118.71 79.8779 118.219 79.8779 117.684C79.8779 116.859 80.1935 116.137 80.8248 115.518C81.4682 114.886 82.2937 114.571 83.3013 114.571C84.2967 114.571 85.1101 114.88 85.7413 115.499C86.3847 116.106 86.7064 116.816 86.7064 117.63C86.7064 118.273 86.494 118.844 86.0691 119.342C85.6442 119.827 84.934 120.373 83.9386 120.98L86.7793 124.021C87.3377 123.014 87.5501 121.909 87.4166 120.707H89.1647C89.3468 122.443 88.9705 123.991 88.0357 125.351L90.1844 127.645H87.9082L86.9067 126.571C85.8263 127.433 84.5759 127.864 83.1556 127.864ZM80.4424 124.24C80.4302 124.847 80.7034 125.32 81.2618 125.66C81.8324 125.988 82.4758 126.152 83.192 126.152C84.1389 126.152 84.9765 125.867 85.7049 125.296L82.5 121.891C81.8202 122.291 81.3103 122.668 80.9704 123.02C80.6305 123.372 80.4545 123.779 80.4424 124.24ZM83.3013 116.173C82.8035 116.173 82.3908 116.319 82.063 116.61C81.7474 116.901 81.5896 117.253 81.5896 117.666C81.5896 118.043 81.6806 118.376 81.8627 118.668C82.0569 118.959 82.3786 119.335 82.8278 119.797C83.6169 119.335 84.1753 118.953 84.5031 118.65C84.8308 118.346 84.9947 118.012 84.9947 117.648C84.9947 117.247 84.8308 116.901 84.5031 116.61C84.1874 116.319 83.7868 116.173 83.3013 116.173ZM96.2129 114.789H100.674C101.888 114.789 102.859 115.099 103.588 115.718C104.316 116.325 104.68 117.15 104.68 118.194C104.68 118.874 104.51 119.481 104.17 120.015C103.831 120.537 103.43 120.901 102.969 121.108C103.515 121.278 104 121.624 104.425 122.146C104.85 122.668 105.063 123.317 105.063 124.094C105.063 125.175 104.674 126.037 103.897 126.68C103.132 127.323 102.125 127.645 100.875 127.645H96.2129V114.789ZM100.692 121.927H98.0156V125.988H100.911C101.579 125.988 102.119 125.794 102.532 125.405C102.956 125.005 103.169 124.513 103.169 123.93C103.169 123.36 102.932 122.886 102.459 122.51C101.997 122.121 101.409 121.927 100.692 121.927ZM98.0156 120.416H100.692C101.372 120.416 101.894 120.222 102.258 119.833C102.623 119.433 102.805 118.935 102.805 118.34C102.805 117.794 102.61 117.338 102.222 116.974C101.834 116.61 101.305 116.428 100.638 116.428H98.0156V120.416ZM107.463 118.431H109.193V120.052C109.424 119.481 109.77 119.032 110.231 118.704C110.692 118.376 111.227 118.213 111.834 118.213C112.064 118.213 112.252 118.237 112.398 118.285V120.015C112.301 119.991 112.18 119.979 112.034 119.979C111.184 119.979 110.504 120.264 109.994 120.835C109.485 121.393 109.23 122.14 109.23 123.074V127.645H107.463V118.431ZM113.421 125.205C113.421 123.748 114.416 122.826 116.407 122.437L119.284 121.873V121.691C119.284 121.096 119.096 120.628 118.72 120.288C118.343 119.948 117.815 119.779 117.136 119.779C116.116 119.779 115.26 120.173 114.568 120.962L113.658 119.797C114.568 118.741 115.782 118.213 117.299 118.213C118.453 118.213 119.363 118.534 120.031 119.178C120.711 119.809 121.051 120.671 121.051 121.763V127.645H119.412V126.225C118.756 127.317 117.755 127.864 116.407 127.864C115.545 127.864 114.829 127.615 114.258 127.117C113.7 126.607 113.421 125.97 113.421 125.205ZM115.151 125.096C115.151 125.472 115.296 125.782 115.588 126.024C115.879 126.255 116.249 126.37 116.699 126.37C117.427 126.37 118.052 126.115 118.574 125.606C119.096 125.084 119.357 124.495 119.357 123.839V123.257L116.717 123.766C116.158 123.876 115.758 124.04 115.515 124.258C115.272 124.464 115.151 124.744 115.151 125.096ZM123.895 127.645V118.431H125.624V119.815C126.207 118.747 127.203 118.213 128.611 118.213C129.679 118.213 130.541 118.559 131.197 119.25C131.852 119.93 132.18 120.871 132.18 122.073V127.645H130.414V122.146C130.414 121.417 130.207 120.853 129.794 120.452C129.382 120.04 128.866 119.833 128.247 119.833C127.797 119.833 127.397 119.93 127.045 120.125C126.693 120.319 126.42 120.574 126.225 120.889C126.031 121.205 125.885 121.539 125.788 121.891C125.703 122.243 125.661 122.601 125.661 122.965V127.645H123.895ZM138.74 127.864C137.502 127.864 136.464 127.408 135.627 126.498C134.789 125.587 134.37 124.434 134.37 123.038C134.37 121.642 134.789 120.489 135.627 119.578C136.464 118.668 137.502 118.213 138.74 118.213C139.359 118.213 139.954 118.358 140.525 118.65C141.095 118.929 141.514 119.281 141.781 119.706V114.789H143.548V127.645H141.854V126.279C141.599 126.728 141.174 127.105 140.58 127.408C139.985 127.712 139.372 127.864 138.74 127.864ZM141.053 120.744C140.495 120.137 139.821 119.833 139.032 119.833C138.243 119.833 137.563 120.137 136.992 120.744C136.434 121.338 136.155 122.103 136.155 123.038C136.155 123.973 136.434 124.744 136.992 125.351C137.563 125.945 138.243 126.243 139.032 126.243C139.821 126.243 140.495 125.945 141.053 125.351C141.611 124.744 141.891 123.973 141.891 123.038C141.891 122.103 141.611 121.338 141.053 120.744ZM57.2184 141.431H58.9847V150.645H57.2184V141.431ZM57.3277 139.483C57.1092 139.252 56.9999 138.985 56.9999 138.681C56.9999 138.378 57.1092 138.117 57.3277 137.898C57.5462 137.68 57.8072 137.571 58.1107 137.571C58.4142 137.571 58.6752 137.68 58.8937 137.898C59.1122 138.117 59.2214 138.378 59.2214 138.681C59.2214 138.985 59.1122 139.252 58.8937 139.483C58.6752 139.701 58.4142 139.81 58.1107 139.81C57.8072 139.81 57.5462 139.701 57.3277 139.483ZM65.6803 150.864C64.442 150.864 63.4041 150.408 62.5664 149.498C61.7288 148.587 61.31 147.434 61.31 146.038C61.31 144.642 61.7288 143.489 62.5664 142.578C63.4041 141.668 64.442 141.213 65.6803 141.213C66.2994 141.213 66.8942 141.358 67.4648 141.65C68.0353 141.929 68.4542 142.281 68.7212 142.706V137.789H70.4876V150.645H68.7941V149.279C68.5391 149.728 68.1143 150.105 67.5194 150.408C66.9246 150.712 66.3115 150.864 65.6803 150.864ZM67.9929 143.744C67.4344 143.137 66.7607 142.833 65.9716 142.833C65.1825 142.833 64.5027 143.137 63.9321 143.744C63.3737 144.338 63.0945 145.103 63.0945 146.038C63.0945 146.973 63.3737 147.744 63.9321 148.351C64.5027 148.945 65.1825 149.243 65.9716 149.243C66.7607 149.243 67.4344 148.945 67.9929 148.351C68.5513 147.744 68.8305 146.973 68.8305 146.038C68.8305 145.103 68.5513 144.338 67.9929 143.744ZM74.1629 149.498C73.2524 148.575 72.7972 147.428 72.7972 146.056C72.7972 144.684 73.2281 143.537 74.09 142.615C74.9641 141.68 76.087 141.213 77.4588 141.213C78.7456 141.213 79.7775 141.625 80.5544 142.451C81.3313 143.264 81.7198 144.278 81.7198 145.492C81.7198 145.832 81.6894 146.165 81.6288 146.493H74.6545C74.7395 147.343 75.0733 148.017 75.656 148.515C76.2388 149 76.9429 149.243 77.7683 149.243C78.7881 149.243 79.6561 148.854 80.3723 148.077L81.4467 149.316C80.4269 150.348 79.1887 150.864 77.7319 150.864C76.2752 150.864 75.0855 150.408 74.1629 149.498ZM77.477 142.797C76.7608 142.797 76.1538 142.997 75.656 143.398C75.1583 143.798 74.8427 144.351 74.7092 145.055H79.9899V145.037C79.9292 144.357 79.6621 143.816 79.1887 143.416C78.7274 143.003 78.1568 142.797 77.477 142.797ZM84.0169 150.645V141.431H85.7468V142.815C86.3295 141.747 87.3249 141.213 88.7331 141.213C89.8014 141.213 90.6633 141.559 91.3189 142.25C91.9744 142.93 92.3022 143.871 92.3022 145.073V150.645H90.5359V145.146C90.5359 144.417 90.3295 143.853 89.9168 143.452C89.504 143.04 88.9881 142.833 88.369 142.833C87.9198 142.833 87.5192 142.93 87.1671 143.125C86.8151 143.319 86.5419 143.574 86.3477 143.889C86.1535 144.205 86.0078 144.539 85.9107 144.891C85.8257 145.243 85.7832 145.601 85.7832 145.965V150.645H84.0169ZM94.0588 141.431H95.4974V138.9H97.2091V141.431H99.5763V142.906H97.2091V147.713C97.2091 148.721 97.7068 149.225 98.7022 149.225C99.1029 149.225 99.467 149.128 99.7948 148.933V150.554C99.4428 150.76 98.9511 150.864 98.3198 150.864C97.4215 150.864 96.7174 150.609 96.2076 150.099C95.6977 149.577 95.4428 148.854 95.4428 147.932V142.906H94.0588V141.431ZM101.782 141.431H103.548V150.645H101.782V141.431ZM101.891 139.483C101.673 139.252 101.563 138.985 101.563 138.681C101.563 138.378 101.673 138.117 101.891 137.898C102.11 137.68 102.371 137.571 102.674 137.571C102.978 137.571 103.239 137.68 103.457 137.898C103.676 138.117 103.785 138.378 103.785 138.681C103.785 138.985 103.676 139.252 103.457 139.483C103.239 139.701 102.978 139.81 102.674 139.81C102.371 139.81 102.11 139.701 101.891 139.483ZM105.582 141.431H107.021V138.9H108.732V141.431H111.099V142.906H108.732V147.713C108.732 148.721 109.23 149.225 110.225 149.225C110.626 149.225 110.99 149.128 111.318 148.933V150.554C110.966 150.76 110.474 150.864 109.843 150.864C108.945 150.864 108.241 150.609 107.731 150.099C107.221 149.577 106.966 148.854 106.966 147.932V142.906H105.582V141.431ZM115.781 150.518L111.957 141.431H113.942L116.619 148.405L119.223 141.431H121.135L116.856 152.156C116.552 152.933 116.182 153.516 115.745 153.905C115.308 154.305 114.695 154.505 113.906 154.505C113.384 154.505 112.941 154.427 112.577 154.269V152.684C112.904 152.891 113.293 152.994 113.742 152.994C114.143 152.994 114.47 152.879 114.725 152.648C114.98 152.417 115.205 152.047 115.399 151.537L115.781 150.518Z" fill="white"/>
</svg>
