<svg width="178" height="178" viewBox="0 0 178 178" fill="none" xmlns="http://www.w3.org/2000/svg">
<rect width="177.032" height="177.032" rx="31.6129" fill="#13192E"/>
<path d="M33.5208 127.645V114.789H35.3236V127.645H33.5208ZM38.4915 114.789H40.2578V125.041C40.2578 125.842 40.5431 126.243 41.1136 126.243C41.32 126.243 41.5203 126.206 41.7145 126.134V127.718C41.4717 127.815 41.1986 127.864 40.8951 127.864C40.2031 127.864 39.6265 127.669 39.1652 127.281C38.716 126.892 38.4915 126.249 38.4915 125.351V114.789ZM43.6662 114.789H45.4325V125.041C45.4325 125.842 45.7178 126.243 46.2884 126.243C46.4948 126.243 46.6951 126.206 46.8893 126.134V127.718C46.6465 127.815 46.3734 127.864 46.0699 127.864C45.3779 127.864 44.8013 127.669 44.34 127.281C43.8908 126.892 43.6662 126.249 43.6662 125.351V114.789ZM52.2491 127.864C51.1808 127.864 50.3189 127.524 49.6634 126.844C49.0078 126.152 48.6801 125.205 48.6801 124.003V118.431H50.4464V123.93C50.4464 124.659 50.6528 125.229 51.0655 125.642C51.4783 126.043 51.9942 126.243 52.6133 126.243C53.0625 126.243 53.4631 126.146 53.8151 125.952C54.1672 125.757 54.4403 125.502 54.6346 125.187C54.8288 124.871 54.9684 124.537 55.0534 124.185C55.1505 123.833 55.1991 123.475 55.1991 123.111V118.431H56.9654V127.645H55.2355V126.261C54.6528 127.329 53.6573 127.864 52.2491 127.864ZM59.1374 125.824L60.4303 124.895C61.0494 125.83 61.8203 126.298 62.7429 126.298C63.2649 126.298 63.6777 126.206 63.9811 126.024C64.2846 125.83 64.4364 125.575 64.4364 125.26C64.4364 124.92 64.2968 124.647 64.0176 124.44C63.7505 124.234 63.2042 123.997 62.3787 123.73C61.3833 123.414 60.6549 123.044 60.1936 122.619C59.7323 122.182 59.5016 121.599 59.5016 120.871C59.5016 120.155 59.8172 119.536 60.4485 119.014C61.0798 118.48 61.8628 118.213 62.7975 118.213C64.2543 118.213 65.3165 118.807 65.9842 119.997L64.7095 120.944C64.1997 120.155 63.538 119.76 62.7247 119.76C62.2755 119.76 61.9113 119.864 61.6321 120.07C61.3651 120.264 61.2315 120.519 61.2315 120.835C61.2315 121.126 61.3651 121.375 61.6321 121.581C61.8992 121.776 62.3969 121.994 63.1253 122.237C64.2057 122.601 64.9827 123.002 65.4561 123.439C65.9296 123.876 66.1663 124.471 66.1663 125.223C66.1663 125.988 65.8446 126.619 65.2012 127.117C64.5578 127.615 63.7444 127.864 62.7611 127.864C61.972 127.864 61.2497 127.681 60.5942 127.317C59.9386 126.953 59.4531 126.455 59.1374 125.824ZM67.4923 118.431H68.9308V115.9H70.6425V118.431H73.0098V119.906H70.6425V124.713C70.6425 125.721 71.1403 126.225 72.1357 126.225C72.5363 126.225 72.9005 126.128 73.2283 125.933V127.554C72.8762 127.76 72.3846 127.864 71.7533 127.864C70.855 127.864 70.1509 127.609 69.641 127.099C69.1311 126.577 68.8762 125.854 68.8762 124.932V119.906H67.4923V118.431ZM75.2152 118.431H76.9451V120.052C77.1758 119.481 77.5218 119.032 77.9831 118.704C78.4444 118.376 78.9785 118.213 79.5855 118.213C79.8162 118.213 80.0043 118.237 80.15 118.285V120.015C80.0529 119.991 79.9315 119.979 79.7858 119.979C78.936 119.979 78.2562 120.264 77.7464 120.835C77.2365 121.393 76.9816 122.14 76.9816 123.074V127.645H75.2152V118.431ZM81.1727 125.205C81.1727 123.748 82.1682 122.826 84.1591 122.437L87.0362 121.873V121.691C87.0362 121.096 86.848 120.628 86.4717 120.288C86.0953 119.948 85.5673 119.779 84.8874 119.779C83.8677 119.779 83.0119 120.173 82.3199 120.962L81.4094 119.797C82.3199 118.741 83.5339 118.213 85.0513 118.213C86.2046 118.213 87.1151 118.534 87.7828 119.178C88.4626 119.809 88.8025 120.671 88.8025 121.763V127.645H87.1636V126.225C86.5081 127.317 85.5066 127.864 84.1591 127.864C83.2972 127.864 82.5809 127.615 82.0104 127.117C81.4519 126.607 81.1727 125.97 81.1727 125.205ZM82.9026 125.096C82.9026 125.472 83.0483 125.782 83.3396 126.024C83.631 126.255 84.0013 126.37 84.4504 126.37C85.1788 126.37 85.804 126.115 86.326 125.606C86.848 125.084 87.109 124.495 87.109 123.839V123.257L84.4686 123.766C83.9102 123.876 83.5096 124.04 83.2668 124.258C83.024 124.464 82.9026 124.744 82.9026 125.096ZM90.5564 118.431H91.995V115.9H93.7067V118.431H96.0739V119.906H93.7067V124.713C93.7067 125.721 94.2044 126.225 95.1998 126.225C95.6004 126.225 95.9646 126.128 96.2924 125.933V127.554C95.9404 127.76 95.4487 127.864 94.8174 127.864C93.9191 127.864 93.215 127.609 92.7051 127.099C92.1953 126.577 91.9403 125.854 91.9403 124.932V119.906H90.5564V118.431ZM98.2794 118.431H100.046V127.645H98.2794V118.431ZM98.3886 116.483C98.1701 116.252 98.0608 115.985 98.0608 115.681C98.0608 115.378 98.1701 115.117 98.3886 114.898C98.6071 114.68 98.8681 114.571 99.1716 114.571C99.4751 114.571 99.7361 114.68 99.9546 114.898C100.173 115.117 100.282 115.378 100.282 115.681C100.282 115.985 100.173 116.252 99.9546 116.483C99.7361 116.701 99.4751 116.81 99.1716 116.81C98.8681 116.81 98.6071 116.701 98.3886 116.483ZM110.529 126.48C109.618 127.402 108.483 127.864 107.124 127.864C105.764 127.864 104.629 127.402 103.718 126.48C102.808 125.545 102.353 124.398 102.353 123.038C102.353 121.678 102.808 120.537 103.718 119.615C104.629 118.68 105.764 118.213 107.124 118.213C108.483 118.213 109.618 118.68 110.529 119.615C111.439 120.537 111.894 121.678 111.894 123.038C111.894 124.398 111.439 125.545 110.529 126.48ZM104.993 120.816C104.435 121.423 104.155 122.164 104.155 123.038C104.155 123.912 104.435 124.659 104.993 125.278C105.552 125.885 106.262 126.188 107.124 126.188C107.986 126.188 108.696 125.885 109.254 125.278C109.813 124.659 110.092 123.912 110.092 123.038C110.092 122.164 109.813 121.423 109.254 120.816C108.696 120.197 107.986 119.888 107.124 119.888C106.262 119.888 105.552 120.197 104.993 120.816ZM114.213 127.645V118.431H115.943V119.815C116.525 118.747 117.521 118.213 118.929 118.213C119.997 118.213 120.859 118.559 121.515 119.25C122.17 119.93 122.498 120.871 122.498 122.073V127.645H120.732V122.146C120.732 121.417 120.525 120.853 120.112 120.452C119.7 120.04 119.184 119.833 118.565 119.833C118.116 119.833 117.715 119.93 117.363 120.125C117.011 120.319 116.738 120.574 116.543 120.889C116.349 121.205 116.204 121.539 116.106 121.891C116.021 122.243 115.979 122.601 115.979 122.965V127.645H114.213ZM133.704 127.864C132.453 127.864 131.379 127.542 130.481 126.898C129.582 126.243 129.133 125.381 129.133 124.313C129.133 123.584 129.364 122.941 129.825 122.382C130.298 121.812 131.003 121.247 131.937 120.689C131.415 120.118 131.033 119.609 130.79 119.159C130.547 118.71 130.426 118.219 130.426 117.684C130.426 116.859 130.742 116.137 131.373 115.518C132.016 114.886 132.842 114.571 133.849 114.571C134.845 114.571 135.658 114.88 136.289 115.499C136.933 116.106 137.254 116.816 137.254 117.63C137.254 118.273 137.042 118.844 136.617 119.342C136.192 119.827 135.482 120.373 134.487 120.98L137.327 124.021C137.886 123.014 138.098 121.909 137.965 120.707H139.713C139.895 122.443 139.518 123.991 138.584 125.351L140.732 127.645H138.456L137.455 126.571C136.374 127.433 135.124 127.864 133.704 127.864ZM130.99 124.24C130.978 124.847 131.251 125.32 131.81 125.66C132.38 125.988 133.024 126.152 133.74 126.152C134.687 126.152 135.525 125.867 136.253 125.296L133.048 121.891C132.368 122.291 131.858 122.668 131.518 123.02C131.179 123.372 131.003 123.779 130.99 124.24ZM133.849 116.173C133.352 116.173 132.939 116.319 132.611 116.61C132.295 116.901 132.138 117.253 132.138 117.666C132.138 118.043 132.229 118.376 132.411 118.668C132.605 118.959 132.927 119.335 133.376 119.797C134.165 119.335 134.723 118.953 135.051 118.65C135.379 118.346 135.543 118.012 135.543 117.648C135.543 117.247 135.379 116.901 135.051 116.61C134.735 116.319 134.335 116.173 133.849 116.173ZM53.0163 148.952C51.7538 147.677 51.1226 146.099 51.1226 144.217C51.1226 142.335 51.7538 140.757 53.0163 139.483C54.291 138.208 55.8388 137.571 57.6598 137.571C59.857 137.571 61.6233 138.445 62.9587 140.193L61.6294 141.413C60.6461 140.029 59.3229 139.337 57.6598 139.337C56.3244 139.337 55.2076 139.804 54.3092 140.739C53.423 141.662 52.9799 142.821 52.9799 144.217C52.9799 145.613 53.423 146.779 54.3092 147.713C55.2076 148.636 56.3244 149.097 57.6598 149.097C59.2865 149.097 60.5854 148.454 61.5566 147.167V145.51H58.3153V143.944H63.2501V147.859C62.6188 148.769 61.8237 149.498 60.8646 150.044C59.9056 150.59 58.8373 150.864 57.6598 150.864C55.8388 150.864 54.291 150.226 53.0163 148.952ZM65.7371 141.431H67.467V143.052C67.6976 142.481 68.0436 142.032 68.5049 141.704C68.9662 141.376 69.5004 141.213 70.1073 141.213C70.338 141.213 70.5262 141.237 70.6718 141.285V143.015C70.5747 142.991 70.4533 142.979 70.3076 142.979C69.4579 142.979 68.7781 143.264 68.2682 143.835C67.7583 144.393 67.5034 145.14 67.5034 146.074V150.645H65.7371V141.431ZM71.6946 148.205C71.6946 146.748 72.69 145.826 74.6809 145.437L77.558 144.873V144.691C77.558 144.096 77.3698 143.628 76.9935 143.288C76.6172 142.948 76.0891 142.779 75.4093 142.779C74.3896 142.779 73.5337 143.173 72.8417 143.962L71.9313 142.797C72.8417 141.741 74.0557 141.213 75.5732 141.213C76.7264 141.213 77.6369 141.534 78.3046 142.178C78.9844 142.809 79.3243 143.671 79.3243 144.763V150.645H77.6855V149.225C77.0299 150.317 76.0284 150.864 74.6809 150.864C73.819 150.864 73.1028 150.615 72.5322 150.117C71.9738 149.607 71.6946 148.97 71.6946 148.205ZM73.4245 148.096C73.4245 148.472 73.5701 148.782 73.8615 149.024C74.1528 149.255 74.5231 149.37 74.9723 149.37C75.7006 149.37 76.3258 149.115 76.8478 148.606C77.3698 148.084 77.6308 147.495 77.6308 146.839V146.257L74.9905 146.766C74.432 146.876 74.0314 147.04 73.7886 147.258C73.5458 147.464 73.4245 147.744 73.4245 148.096ZM82.1683 141.431H83.8617V142.779C84.1531 142.329 84.584 141.959 85.1546 141.668C85.7373 141.364 86.3443 141.213 86.9756 141.213C88.2138 141.213 89.2517 141.668 90.0894 142.578C90.927 143.489 91.3458 144.642 91.3458 146.038C91.3458 147.434 90.927 148.587 90.0894 149.498C89.2517 150.408 88.2138 150.864 86.9756 150.864C86.3686 150.864 85.7798 150.724 85.2092 150.445C84.6387 150.166 84.2138 149.813 83.9346 149.389V154.287H82.1683V141.431ZM84.663 143.744C84.1045 144.338 83.8253 145.103 83.8253 146.038C83.8253 146.973 84.1045 147.744 84.663 148.351C85.2214 148.945 85.8951 149.243 86.6842 149.243C87.4733 149.243 88.147 148.945 88.7055 148.351C89.276 147.744 89.5613 146.973 89.5613 146.038C89.5613 145.103 89.276 144.338 88.7055 143.744C88.147 143.137 87.4733 142.833 86.6842 142.833C85.8951 142.833 85.2214 143.137 84.663 143.744ZM93.6736 137.789H95.44V142.706C96.0834 141.71 97.0667 141.213 98.3899 141.213C99.4339 141.213 100.29 141.559 100.957 142.25C101.625 142.942 101.959 143.883 101.959 145.073V150.645H100.193V145.146C100.193 144.417 99.9863 143.853 99.5735 143.452C99.1608 143.04 98.6448 142.833 98.0257 142.833C97.1517 142.833 96.5022 143.131 96.0773 143.725C95.6524 144.308 95.44 144.994 95.44 145.783V150.645H93.6736V137.789ZM104.841 141.431H106.607V150.645H104.841V141.431ZM104.95 139.483C104.732 139.252 104.623 138.985 104.623 138.681C104.623 138.378 104.732 138.117 104.95 137.898C105.169 137.68 105.43 137.571 105.733 137.571C106.037 137.571 106.298 137.68 106.516 137.898C106.735 138.117 106.844 138.378 106.844 138.681C106.844 138.985 106.735 139.252 106.516 139.483C106.298 139.701 106.037 139.81 105.733 139.81C105.43 139.81 105.169 139.701 104.95 139.483ZM108.896 146.02C108.896 144.672 109.364 143.537 110.298 142.615C111.233 141.68 112.368 141.213 113.704 141.213C115.27 141.213 116.496 141.856 117.382 143.143L116.217 144.272C115.561 143.325 114.717 142.851 113.685 142.851C112.824 142.851 112.107 143.161 111.537 143.78C110.978 144.387 110.699 145.14 110.699 146.038C110.699 146.936 110.978 147.695 111.537 148.314C112.107 148.921 112.817 149.225 113.667 149.225C114.82 149.225 115.713 148.757 116.344 147.823L117.528 148.933C117.115 149.54 116.575 150.014 115.907 150.354C115.239 150.694 114.505 150.864 113.704 150.864C112.356 150.864 111.215 150.396 110.28 149.461C109.358 148.527 108.896 147.379 108.896 146.02ZM118.674 148.824L119.967 147.895C120.586 148.83 121.357 149.298 122.279 149.298C122.801 149.298 123.214 149.206 123.518 149.024C123.821 148.83 123.973 148.575 123.973 148.26C123.973 147.92 123.833 147.647 123.554 147.44C123.287 147.234 122.741 146.997 121.915 146.73C120.92 146.414 120.191 146.044 119.73 145.619C119.269 145.182 119.038 144.599 119.038 143.871C119.038 143.155 119.354 142.536 119.985 142.014C120.616 141.48 121.399 141.213 122.334 141.213C123.791 141.213 124.853 141.807 125.521 142.997L124.246 143.944C123.736 143.155 123.074 142.76 122.261 142.76C121.812 142.76 121.448 142.864 121.169 143.07C120.901 143.264 120.768 143.519 120.768 143.835C120.768 144.126 120.901 144.375 121.169 144.581C121.436 144.776 121.933 144.994 122.662 145.237C123.742 145.601 124.519 146.002 124.992 146.439C125.466 146.876 125.703 147.471 125.703 148.223C125.703 148.988 125.381 149.619 124.738 150.117C124.094 150.615 123.281 150.864 122.297 150.864C121.508 150.864 120.786 150.681 120.131 150.317C119.475 149.953 118.989 149.455 118.674 148.824Z" fill="white"/>
<path d="M79.9281 45.7895L96.0561 30.5199M80.1124 37.5587L63.8324 23.3286C62.7254 22.5561 61.3795 22.194 60.0303 22.3058C58.6811 22.4176 57.4146 22.9961 56.4524 23.9401C55.4902 24.8841 54.8936 26.1334 54.767 27.4694C54.6404 28.8054 54.992 30.1429 55.7601 31.2479L73.0207 51.4344C73.0207 51.4344 73.1774 51.6262 73.4364 51.9276C70.3204 54.8688 61.9062 62.8055 61.9062 62.8055C60.5179 64.1226 59.4822 65.7615 58.8926 67.5745C58.8926 67.5745 53.8238 85.3038 54.6164 86.0072C55.4006 86.9471 73.5092 82.7728 73.5092 82.7728C75.3669 82.2816 77.0693 81.333 78.4582 80.0152L89.6731 69.4195C89.6731 69.5639 89.6731 69.7182 89.6805 69.8507C89.8786 76.5679 94.7069 80.3604 102.384 81.6438C110.061 82.9271 120.206 81.3561 121.021 79.194C121.679 77.4585 119.721 76.5268 117.459 74.943C116.524 74.2787 115.757 73.4077 115.221 72.3989C114.684 71.39 114.391 70.2712 114.367 69.1309C114.249 66.0429 112.959 63.1129 110.754 60.9279C108.55 58.7428 105.593 57.4641 102.478 57.3478L109.63 50.5968L119.114 41.6362C119.909 40.8865 120.548 39.9887 120.993 38.9941C121.438 37.9995 121.681 36.9276 121.707 35.8399C121.734 34.7522 121.544 33.67 121.148 32.6553C120.752 31.6405 120.157 30.7131 119.399 29.9262L114.386 24.7015C113.628 23.913 112.722 23.2801 111.717 22.8391C110.713 22.3981 109.631 22.1576 108.533 22.1313C107.435 22.105 106.342 22.2935 105.318 22.6859C104.293 23.0783 103.357 23.667 102.562 24.4183L96.0921 30.5291L107.133 42.0107" stroke="white" stroke-width="2.37097" stroke-linejoin="round"/>
<path d="M63.5808 84.7569L54.8071 85.9157L56.297 77.4731L63.5808 84.7569Z" fill="white"/>
</svg>
