<svg width="178" height="178" viewBox="0 0 178 178" fill="none" xmlns="http://www.w3.org/2000/svg">
<rect width="177.032" height="177.032" rx="31.6129" fill="#00C7C7"/>
<path d="M71.8224 34.4514H105.178C105.393 34.4316 105.609 34.4567 105.813 34.5252C106.016 34.5936 106.204 34.7038 106.363 34.8488C106.522 34.9937 106.649 35.1703 106.736 35.3671C106.823 35.5639 106.867 35.7766 106.867 35.9918C106.867 36.2069 106.823 36.4197 106.736 36.6165C106.649 36.8133 106.522 36.9898 106.363 37.1348C106.204 37.2797 106.016 37.3899 105.813 37.4584C105.609 37.5268 105.393 37.5519 105.178 37.5322H71.8224C71.6082 37.5519 71.3922 37.5268 71.1882 37.4584C70.9842 37.3899 70.7968 37.2797 70.6378 37.1348C70.4789 36.9898 70.3519 36.8133 70.2651 36.6165C70.1782 36.4197 70.1333 36.2069 70.1333 35.9918C70.1333 35.7766 70.1782 35.5639 70.2651 35.3671C70.3519 35.1703 70.4789 34.9937 70.6378 34.8488C70.7968 34.7038 70.9842 34.5936 71.1882 34.5252C71.3922 34.4567 71.6082 34.4316 71.8224 34.4514Z" fill="white"/>
<path d="M116.73 36.0696V31.1692C116.73 29.8196 116.194 28.5253 115.24 27.571C114.285 26.6167 112.991 26.0806 111.641 26.0806H60.5545C59.2049 26.0806 57.9105 26.6167 56.9562 27.571C56.0019 28.5253 55.4658 29.8196 55.4658 31.1692V88.3843C55.4658 89.7339 56.0019 91.0282 56.9562 91.9825C57.9105 92.9368 59.2049 93.473 60.5545 93.473H111.644C112.993 93.473 114.287 92.9368 115.242 91.9825C116.196 91.0282 116.732 89.7339 116.732 88.3843V44.5269H65.7005C65.414 44.5029 65.1295 44.5924 64.9083 44.7761C64.6871 44.9597 64.5469 45.2229 64.5178 45.509V79.7773C64.5469 80.0634 64.6871 80.3266 64.9083 80.5104C65.1295 80.6942 65.4139 80.7839 65.7005 80.7601H106.119C106.405 80.7841 106.69 80.6945 106.911 80.5106C107.132 80.3268 107.273 80.0634 107.302 79.7773V51.318" stroke="white" stroke-width="2.37097" stroke-linejoin="round"/>
<path d="M61.23 31.4164C61.231 31.1445 61.3126 30.8789 61.4644 30.6533C61.6162 30.4277 61.8315 30.2521 62.083 30.1487C62.3345 30.0453 62.6111 30.0188 62.8777 30.0725C63.1443 30.1261 63.389 30.2576 63.5809 30.4503C63.7729 30.6429 63.9035 30.8881 63.9561 31.1549C64.0088 31.4217 63.9813 31.6982 63.877 31.9493C63.7727 32.2005 63.5963 32.4151 63.3701 32.5661C63.1439 32.7171 62.8781 32.7976 62.6061 32.7976C62.425 32.7976 62.2456 32.7619 62.0783 32.6924C61.911 32.6229 61.7591 32.5211 61.6312 32.3928C61.5034 32.2645 61.4021 32.1122 61.3333 31.9446C61.2644 31.7771 61.2293 31.5976 61.23 31.4164Z" fill="white"/>
<path d="M64.6983 31.4164C64.6993 31.1445 64.7808 30.8789 64.9326 30.6533C65.0845 30.4277 65.2997 30.2521 65.5513 30.1487C65.8028 30.0453 66.0793 30.0188 66.3459 30.0725C66.6125 30.1261 66.8573 30.2576 67.0492 30.4503C67.2412 30.6429 67.3717 30.8881 67.4244 31.1549C67.4771 31.4217 67.4495 31.6982 67.3452 31.9493C67.2409 32.2005 67.0645 32.4151 66.8384 32.5661C66.6122 32.7171 66.3463 32.7976 66.0744 32.7976C65.8932 32.7976 65.7139 32.7619 65.5466 32.6924C65.3793 32.6229 65.2274 32.5211 65.0995 32.3928C64.9716 32.2645 64.8704 32.1122 64.8015 31.9446C64.7327 31.7771 64.6976 31.5976 64.6983 31.4164Z" fill="white"/>
<path d="M68.1704 31.4164C68.1714 31.1447 68.2529 30.8793 68.4045 30.6538C68.5561 30.4283 68.771 30.2527 69.0223 30.1492C69.2735 30.0457 69.5498 30.0188 69.8162 30.0721C70.0827 30.1254 70.3274 30.2563 70.5196 30.4485C70.7117 30.6406 70.8427 30.8853 70.8959 31.1518C70.9492 31.4183 70.9224 31.6945 70.8189 31.9458C70.7153 32.197 70.5397 32.412 70.3142 32.5636C70.0887 32.7152 69.8234 32.7966 69.5516 32.7976C69.3701 32.7983 69.1901 32.763 69.0223 32.6939C68.8544 32.6247 68.7019 32.523 68.5735 32.3946C68.4451 32.2662 68.3434 32.1137 68.2742 31.9458C68.205 31.7779 68.1697 31.598 68.1704 31.4164Z" fill="white"/>
<path d="M63.8278 127.645L59.9492 114.789H61.8247L64.7929 125.041L67.9795 114.789H69.8733L73.06 125.041L76.0281 114.789H77.9037L74.0251 127.645H72.1677L68.9264 117.484L65.6851 127.645H63.8278ZM79.7158 126.498C78.8053 125.575 78.3501 124.428 78.3501 123.056C78.3501 121.684 78.7811 120.537 79.643 119.615C80.517 118.68 81.6399 118.213 83.0117 118.213C84.2985 118.213 85.3304 118.625 86.1073 119.451C86.8843 120.264 87.2727 121.278 87.2727 122.492C87.2727 122.832 87.2424 123.165 87.1817 123.493H80.2075C80.2924 124.343 80.6263 125.017 81.209 125.515C81.7917 126 82.4958 126.243 83.3213 126.243C84.341 126.243 85.209 125.854 85.9252 125.077L86.9996 126.316C85.9799 127.348 84.7416 127.864 83.2849 127.864C81.8281 127.864 80.6384 127.408 79.7158 126.498ZM83.0299 119.797C82.3137 119.797 81.7067 119.997 81.209 120.398C80.7113 120.798 80.3956 121.351 80.2621 122.055H85.5428V122.037C85.4821 121.357 85.2151 120.816 84.7416 120.416C84.2803 120.003 83.7097 119.797 83.0299 119.797ZM89.5698 114.789H91.3361V119.706C91.6032 119.281 92.022 118.929 92.5926 118.65C93.1632 118.358 93.758 118.213 94.3771 118.213C95.6154 118.213 96.6533 118.668 97.4909 119.578C98.3286 120.489 98.7474 121.642 98.7474 123.038C98.7474 124.434 98.3286 125.587 97.4909 126.498C96.6533 127.408 95.6154 127.864 94.3771 127.864C93.7459 127.864 93.1328 127.712 92.538 127.408C91.9431 127.105 91.5182 126.728 91.2633 126.279V127.645H89.5698V114.789ZM96.107 120.744C95.5486 120.137 94.8748 119.833 94.0858 119.833C93.2967 119.833 92.6229 120.137 92.0645 120.744C91.5061 121.338 91.2269 122.103 91.2269 123.038C91.2269 123.973 91.5061 124.744 92.0645 125.351C92.6229 125.945 93.2967 126.243 94.0858 126.243C94.8748 126.243 95.5486 125.945 96.107 125.351C96.6776 124.744 96.9629 123.973 96.9629 123.038C96.9629 122.103 96.6776 121.338 96.107 120.744ZM109.399 127.864C108.148 127.864 107.074 127.542 106.176 126.898C105.277 126.243 104.828 125.381 104.828 124.313C104.828 123.584 105.059 122.941 105.52 122.382C105.993 121.812 106.698 121.247 107.632 120.689C107.11 120.118 106.728 119.609 106.485 119.159C106.242 118.71 106.121 118.219 106.121 117.684C106.121 116.859 106.437 116.137 107.068 115.518C107.711 114.886 108.537 114.571 109.544 114.571C110.54 114.571 111.353 114.88 111.984 115.499C112.628 116.106 112.949 116.816 112.949 117.63C112.949 118.273 112.737 118.844 112.312 119.342C111.887 119.827 111.177 120.373 110.182 120.98L113.022 124.021C113.581 123.014 113.793 121.909 113.66 120.707H115.408C115.59 122.443 115.214 123.991 114.279 125.351L116.427 127.645H114.151L113.15 126.571C112.069 127.433 110.819 127.864 109.399 127.864ZM106.685 124.24C106.673 124.847 106.946 125.32 107.505 125.66C108.075 125.988 108.719 126.152 109.435 126.152C110.382 126.152 111.22 125.867 111.948 125.296L108.743 121.891C108.063 122.291 107.553 122.668 107.214 123.02C106.874 123.372 106.698 123.779 106.685 124.24ZM109.544 116.173C109.047 116.173 108.634 116.319 108.306 116.61C107.99 116.901 107.833 117.253 107.833 117.666C107.833 118.043 107.924 118.376 108.106 118.668C108.3 118.959 108.622 119.335 109.071 119.797C109.86 119.335 110.418 118.953 110.746 118.65C111.074 118.346 111.238 118.012 111.238 117.648C111.238 117.247 111.074 116.901 110.746 116.61C110.431 116.319 110.03 116.173 109.544 116.173ZM40.2967 150.645L45.2861 137.789H47.1799L52.1693 150.645H50.312L48.9645 147.149H43.5016L42.1541 150.645H40.2967ZM44.0843 145.455H48.3817L46.233 139.756L44.0843 145.455ZM53.7911 141.431H55.4846V142.779C55.7759 142.329 56.2069 141.959 56.7774 141.668C57.3601 141.364 57.9671 141.213 58.5984 141.213C59.8366 141.213 60.8746 141.668 61.7122 142.578C62.5498 143.489 62.9687 144.642 62.9687 146.038C62.9687 147.434 62.5498 148.587 61.7122 149.498C60.8746 150.408 59.8366 150.864 58.5984 150.864C57.9914 150.864 57.4026 150.724 56.8321 150.445C56.2615 150.166 55.8366 149.813 55.5574 149.389V154.287H53.7911V141.431ZM56.2858 143.744C55.7274 144.338 55.4482 145.103 55.4482 146.038C55.4482 146.973 55.7274 147.744 56.2858 148.351C56.8442 148.945 57.518 149.243 58.307 149.243C59.0961 149.243 59.7699 148.945 60.3283 148.351C60.8989 147.744 61.1841 146.973 61.1841 146.038C61.1841 145.103 60.8989 144.338 60.3283 143.744C59.7699 143.137 59.0961 142.833 58.307 142.833C57.518 142.833 56.8442 143.137 56.2858 143.744ZM65.2965 141.431H66.99V142.779C67.2813 142.329 67.7123 141.959 68.2828 141.668C68.8655 141.364 69.4725 141.213 70.1038 141.213C71.342 141.213 72.38 141.668 73.2176 142.578C74.0552 143.489 74.474 144.642 74.474 146.038C74.474 147.434 74.0552 148.587 73.2176 149.498C72.38 150.408 71.342 150.864 70.1038 150.864C69.4968 150.864 68.908 150.724 68.3375 150.445C67.7669 150.166 67.342 149.813 67.0628 149.389V154.287H65.2965V141.431ZM67.7912 143.744C67.2328 144.338 66.9535 145.103 66.9535 146.038C66.9535 146.973 67.2328 147.744 67.7912 148.351C68.3496 148.945 69.0233 149.243 69.8124 149.243C70.6015 149.243 71.2753 148.945 71.8337 148.351C72.4042 147.744 72.6895 146.973 72.6895 146.038C72.6895 145.103 72.4042 144.338 71.8337 143.744C71.2753 143.137 70.6015 142.833 69.8124 142.833C69.0233 142.833 68.3496 143.137 67.7912 143.744ZM84.9614 150.864C83.7232 150.864 82.6852 150.408 81.8476 149.498C81.01 148.587 80.5911 147.434 80.5911 146.038C80.5911 144.642 81.01 143.489 81.8476 142.578C82.6852 141.668 83.7232 141.213 84.9614 141.213C85.5805 141.213 86.1754 141.358 86.7459 141.65C87.3165 141.929 87.7353 142.281 88.0024 142.706V137.789H89.7687V150.645H88.0752V149.279C87.8203 149.728 87.3954 150.105 86.8006 150.408C86.2057 150.712 85.5927 150.864 84.9614 150.864ZM87.274 143.744C86.7156 143.137 86.0418 142.833 85.2528 142.833C84.4637 142.833 83.7839 143.137 83.2133 143.744C82.6549 144.338 82.3757 145.103 82.3757 146.038C82.3757 146.973 82.6549 147.744 83.2133 148.351C83.7839 148.945 84.4637 149.243 85.2528 149.243C86.0418 149.243 86.7156 148.945 87.274 148.351C87.8324 147.744 88.1116 146.973 88.1116 146.038C88.1116 145.103 87.8324 144.338 87.274 143.744ZM93.444 149.498C92.5336 148.575 92.0783 147.428 92.0783 146.056C92.0783 144.684 92.5093 143.537 93.3712 142.615C94.2452 141.68 95.3682 141.213 96.7399 141.213C98.0267 141.213 99.0586 141.625 99.8356 142.451C100.612 143.264 101.001 144.278 101.001 145.492C101.001 145.832 100.971 146.165 100.91 146.493H93.9357C94.0207 147.343 94.3545 148.017 94.9372 148.515C95.5199 149 96.224 149.243 97.0495 149.243C98.0692 149.243 98.9372 148.854 99.6535 148.077L100.728 149.316C99.7081 150.348 98.4698 150.864 97.0131 150.864C95.5563 150.864 94.3666 150.408 93.444 149.498ZM96.7582 142.797C96.0419 142.797 95.4349 142.997 94.9372 143.398C94.4395 143.798 94.1239 144.351 93.9903 145.055H99.2711V145.037C99.2104 144.357 98.9433 143.816 98.4698 143.416C98.0085 143.003 97.438 142.797 96.7582 142.797ZM102.442 148.824L103.735 147.895C104.354 148.83 105.125 149.298 106.048 149.298C106.57 149.298 106.982 149.206 107.286 149.024C107.589 148.83 107.741 148.575 107.741 148.26C107.741 147.92 107.602 147.647 107.322 147.44C107.055 147.234 106.509 146.997 105.683 146.73C104.688 146.414 103.96 146.044 103.498 145.619C103.037 145.182 102.806 144.599 102.806 143.871C102.806 143.155 103.122 142.536 103.753 142.014C104.385 141.48 105.168 141.213 106.102 141.213C107.559 141.213 108.621 141.807 109.289 142.997L108.014 143.944C107.504 143.155 106.843 142.76 106.029 142.76C105.58 142.76 105.216 142.864 104.937 143.07C104.67 143.264 104.536 143.519 104.536 143.835C104.536 144.126 104.67 144.375 104.937 144.581C105.204 144.776 105.702 144.994 106.43 145.237C107.511 145.601 108.287 146.002 108.761 146.439C109.234 146.876 109.471 147.471 109.471 148.223C109.471 148.988 109.149 149.619 108.506 150.117C107.863 150.615 107.049 150.864 106.066 150.864C105.277 150.864 104.555 150.681 103.899 150.317C103.243 149.953 102.758 149.455 102.442 148.824ZM111.78 141.431H113.547V150.645H111.78V141.431ZM111.89 139.483C111.671 139.252 111.562 138.985 111.562 138.681C111.562 138.378 111.671 138.117 111.89 137.898C112.108 137.68 112.369 137.571 112.673 137.571C112.976 137.571 113.237 137.68 113.456 137.898C113.674 138.117 113.783 138.378 113.783 138.681C113.783 138.985 113.674 139.252 113.456 139.483C113.237 139.701 112.976 139.81 112.673 139.81C112.369 139.81 112.108 139.701 111.89 139.483ZM115.672 151.938C115.672 151.112 116.188 150.445 117.219 149.935C116.819 149.643 116.619 149.231 116.619 148.697C116.619 148.175 116.892 147.713 117.438 147.313C116.977 147.009 116.606 146.621 116.327 146.147C116.06 145.662 115.927 145.14 115.927 144.581C115.927 143.647 116.279 142.851 116.983 142.196C117.699 141.54 118.573 141.213 119.605 141.213C120.066 141.213 120.509 141.285 120.934 141.431H124.321V142.906H122.81C123.125 143.404 123.283 143.962 123.283 144.581C123.283 145.516 122.925 146.311 122.209 146.967C121.505 147.622 120.637 147.95 119.605 147.95C119.289 147.95 118.974 147.914 118.658 147.841C118.415 148.023 118.294 148.229 118.294 148.46C118.294 148.654 118.367 148.812 118.512 148.933C118.658 149.055 118.828 149.115 119.022 149.115H121.353C122.276 149.115 123.016 149.358 123.575 149.844C124.133 150.317 124.412 150.93 124.412 151.683C124.412 152.496 123.987 153.17 123.138 153.704C122.3 154.238 121.195 154.505 119.823 154.505C118.537 154.505 117.523 154.275 116.782 153.813C116.042 153.364 115.672 152.739 115.672 151.938ZM120.989 143.307C120.612 142.942 120.151 142.76 119.605 142.76C119.059 142.76 118.591 142.942 118.203 143.307C117.826 143.659 117.638 144.084 117.638 144.581C117.638 145.079 117.826 145.51 118.203 145.874C118.591 146.226 119.059 146.402 119.605 146.402C120.151 146.402 120.612 146.226 120.989 145.874C121.377 145.51 121.572 145.079 121.572 144.581C121.572 144.084 121.377 143.659 120.989 143.307ZM117.438 151.774C117.438 152.126 117.663 152.405 118.112 152.612C118.561 152.818 119.144 152.921 119.86 152.921C120.758 152.921 121.45 152.812 121.936 152.593C122.433 152.375 122.682 152.084 122.682 151.719C122.682 151.392 122.543 151.137 122.263 150.955C121.984 150.772 121.632 150.681 121.207 150.681H118.512C118.245 150.754 117.996 150.882 117.766 151.064C117.547 151.246 117.438 151.483 117.438 151.774ZM126.398 150.645V141.431H128.128V142.815C128.71 141.747 129.706 141.213 131.114 141.213C132.182 141.213 133.044 141.559 133.7 142.25C134.355 142.93 134.683 143.871 134.683 145.073V150.645H132.917V145.146C132.917 144.417 132.71 143.853 132.298 143.452C131.885 143.04 131.369 142.833 130.75 142.833C130.301 142.833 129.9 142.93 129.548 143.125C129.196 143.319 128.923 143.574 128.729 143.889C128.534 144.205 128.389 144.539 128.292 144.891C128.207 145.243 128.164 145.601 128.164 145.965V150.645H126.398Z" fill="white"/>
</svg>
