<svg width="239" height="212" viewBox="0 0 239 212" fill="none" xmlns="http://www.w3.org/2000/svg">
<path d="M231.906 212H6.969C5.12088 212 3.34844 211.266 2.04153 209.959C0.734614 208.652 0.000265192 206.88 0 205.032V6.968C0.000265192 5.11988 0.734614 3.34754 2.04153 2.04082C3.34844 0.734094 5.12088 -1.90265e-08 6.969 0H231.906C233.754 0 235.526 0.734126 236.833 2.04088C238.14 3.34763 238.874 5.11997 238.874 6.968V205.032C238.874 206.88 238.14 208.652 236.833 209.959C235.526 211.266 233.754 212 231.906 212Z" fill="#4747C7"/>
<path d="M148.077 75.259V97.319L171.777 85.463V55.423C171.777 55.416 143.342 66.97 143.342 66.97L114.897 55.416L143.339 44.583L161.563 51.314" stroke="white" stroke-width="3" stroke-linecap="round" stroke-linejoin="round"/>
<path d="M92.8541 79.5571V101.873C92.8541 102.319 92.6769 102.747 92.3615 103.062C92.046 103.378 91.6182 103.555 91.1721 103.555H71.2111C70.765 103.555 70.3372 103.378 70.0218 103.062C69.7063 102.747 69.5291 102.319 69.5291 101.873V72.5671C69.5291 72.121 69.7063 71.6932 70.0218 71.3778C70.3372 71.0623 70.765 70.8851 71.2111 70.8851H102.843C102.712 67.9903 101.979 65.1546 100.691 62.5588C99.4033 59.9629 97.5888 57.6638 95.3631 55.8081C93.8882 54.5242 92.7062 52.9384 91.897 51.1582C91.0879 49.3779 90.6705 47.4446 90.6731 45.4891V44.9241C90.6549 42.9896 91.0378 41.0722 91.7977 39.2931C92.5575 37.5139 93.6779 35.9116 95.0881 34.5871C95.3709 34.3687 95.6057 34.0944 95.7777 33.7813C95.9498 33.4681 96.0554 33.1229 96.0881 32.7671C96.0573 31.7132 95.6146 30.7134 94.855 29.9822C94.0954 29.2511 93.0794 28.8468 92.0251 28.8561H70.2031C69.6774 28.859 69.1577 28.9673 68.6745 29.1744C68.1914 29.3815 67.7546 29.6834 67.3901 30.0621C67.0255 30.4409 66.7405 30.8888 66.5519 31.3795C66.3634 31.8702 66.275 32.3937 66.2921 32.9191C66.3282 33.2566 66.4344 33.5829 66.6038 33.877C66.7733 34.1711 67.0022 34.4266 67.2761 34.6271C68.684 35.9017 69.8067 37.4594 70.5708 39.198C71.3349 40.9366 71.7232 42.817 71.7101 44.7161V45.4861C71.7138 47.4423 71.2965 49.3764 70.4866 51.1571C69.6767 52.9378 68.4931 54.5233 67.0161 55.8061C64.6599 57.838 62.77 60.3546 61.4756 63.184C60.1813 66.0133 59.5129 69.0887 59.5161 72.2001V104.708C59.5175 107.582 60.6596 110.338 62.6917 112.37C64.7237 114.402 67.4794 115.544 70.3531 115.545H92.0281C94.9018 115.545 97.6578 114.403 99.6897 112.371C101.722 110.339 102.863 107.583 102.863 104.709L103.332 90.2561L140.151 108.711C141.136 109.208 142.224 109.467 143.327 109.467C144.43 109.467 145.517 109.208 146.502 108.711L177.31 93.3001C178.491 92.712 179.485 91.8061 180.18 90.6841C180.874 89.5622 181.242 88.2687 181.242 86.9491V53.6091C181.242 52.1633 180.801 50.7519 179.978 49.5632C179.155 48.3745 177.989 47.465 176.636 46.9561L145.82 35.4001C144.217 34.7819 142.442 34.7762 140.835 35.3841L105.963 48.5891" stroke="white" stroke-width="3" stroke-linejoin="round"/>
<path d="M61.1014 134.556H66.9814C68.5814 134.556 69.8614 134.964 70.8214 135.78C71.7814 136.58 72.2614 137.668 72.2614 139.044C72.2614 139.94 72.0374 140.74 71.5894 141.444C71.1414 142.132 70.6134 142.612 70.0054 142.884C70.7254 143.108 71.3654 143.564 71.9254 144.252C72.4854 144.94 72.7654 145.796 72.7654 146.82C72.7654 148.244 72.2534 149.38 71.2294 150.228C70.2214 151.076 68.8934 151.5 67.2454 151.5H61.1014V134.556ZM67.0054 143.964H63.4774V149.316H67.2934C68.1734 149.316 68.8854 149.06 69.4294 148.548C69.9894 148.02 70.2694 147.372 70.2694 146.604C70.2694 145.852 69.9574 145.228 69.3334 144.732C68.7254 144.22 67.9494 143.964 67.0054 143.964ZM63.4774 141.972H67.0054C67.9014 141.972 68.5894 141.716 69.0694 141.204C69.5494 140.676 69.7894 140.02 69.7894 139.236C69.7894 138.516 69.5334 137.916 69.0214 137.436C68.5094 136.956 67.8134 136.716 66.9334 136.716H63.4774V141.972ZM80.5587 151.788C79.1507 151.788 78.0147 151.34 77.1507 150.444C76.2867 149.532 75.8547 148.284 75.8547 146.7V139.356H78.1827V146.604C78.1827 147.564 78.4547 148.316 78.9987 148.86C79.5427 149.388 80.2227 149.652 81.0387 149.652C81.6307 149.652 82.1587 149.524 82.6227 149.268C83.0867 149.012 83.4467 148.676 83.7027 148.26C83.9587 147.844 84.1427 147.404 84.2547 146.94C84.3827 146.476 84.4467 146.004 84.4467 145.524V139.356H86.7747V151.5H84.4947V149.676C83.7267 151.084 82.4147 151.788 80.5587 151.788ZM89.6374 149.1L91.3414 147.876C92.1574 149.108 93.1734 149.724 94.3894 149.724C95.0774 149.724 95.6214 149.604 96.0214 149.364C96.4214 149.108 96.6214 148.772 96.6214 148.356C96.6214 147.908 96.4374 147.548 96.0694 147.276C95.7174 147.004 94.9974 146.692 93.9094 146.34C92.5974 145.924 91.6374 145.436 91.0294 144.876C90.4214 144.3 90.1174 143.532 90.1174 142.572C90.1174 141.628 90.5334 140.812 91.3654 140.124C92.1974 139.42 93.2294 139.068 94.4614 139.068C96.3814 139.068 97.7814 139.852 98.6614 141.42L96.9814 142.668C96.3094 141.628 95.4374 141.108 94.3654 141.108C93.7734 141.108 93.2934 141.244 92.9254 141.516C92.5734 141.772 92.3974 142.108 92.3974 142.524C92.3974 142.908 92.5734 143.236 92.9254 143.508C93.2774 143.764 93.9334 144.052 94.8934 144.372C96.3174 144.852 97.3414 145.38 97.9654 145.956C98.5894 146.532 98.9014 147.316 98.9014 148.308C98.9014 149.316 98.4774 150.148 97.6294 150.804C96.7814 151.46 95.7094 151.788 94.4134 151.788C93.3734 151.788 92.4214 151.548 91.5574 151.068C90.6934 150.588 90.0534 149.932 89.6374 149.1ZM101.945 139.356H104.273V151.5H101.945V139.356ZM102.089 136.788C101.801 136.484 101.657 136.132 101.657 135.732C101.657 135.332 101.801 134.988 102.089 134.7C102.377 134.412 102.721 134.268 103.121 134.268C103.521 134.268 103.865 134.412 104.153 134.7C104.441 134.988 104.585 135.332 104.585 135.732C104.585 136.132 104.441 136.484 104.153 136.788C103.865 137.076 103.521 137.22 103.121 137.22C102.721 137.22 102.377 137.076 102.089 136.788ZM108.25 151.5V139.356H110.53V141.18C111.298 139.772 112.61 139.068 114.466 139.068C115.874 139.068 117.01 139.524 117.874 140.436C118.738 141.332 119.17 142.572 119.17 144.156V151.5H116.842V144.252C116.842 143.292 116.57 142.548 116.026 142.02C115.482 141.476 114.802 141.204 113.986 141.204C113.394 141.204 112.866 141.332 112.402 141.588C111.938 141.844 111.578 142.18 111.322 142.596C111.066 143.012 110.874 143.452 110.746 143.916C110.634 144.38 110.578 144.852 110.578 145.332V151.5H108.25ZM123.833 149.988C122.633 148.772 122.033 147.26 122.033 145.452C122.033 143.644 122.601 142.132 123.737 140.916C124.889 139.684 126.369 139.068 128.177 139.068C129.873 139.068 131.233 139.612 132.257 140.7C133.281 141.772 133.793 143.108 133.793 144.708C133.793 145.156 133.753 145.596 133.673 146.028H124.481C124.593 147.148 125.033 148.036 125.801 148.692C126.569 149.332 127.497 149.652 128.585 149.652C129.929 149.652 131.073 149.14 132.017 148.116L133.433 149.748C132.089 151.108 130.457 151.788 128.537 151.788C126.617 151.788 125.049 151.188 123.833 149.988ZM128.201 141.156C127.257 141.156 126.457 141.42 125.801 141.948C125.145 142.476 124.729 143.204 124.553 144.132H131.513V144.108C131.433 143.212 131.081 142.5 130.457 141.972C129.849 141.428 129.097 141.156 128.201 141.156ZM135.692 149.1L137.396 147.876C138.212 149.108 139.228 149.724 140.444 149.724C141.132 149.724 141.676 149.604 142.076 149.364C142.476 149.108 142.676 148.772 142.676 148.356C142.676 147.908 142.492 147.548 142.124 147.276C141.772 147.004 141.052 146.692 139.964 146.34C138.652 145.924 137.692 145.436 137.084 144.876C136.476 144.3 136.172 143.532 136.172 142.572C136.172 141.628 136.588 140.812 137.42 140.124C138.252 139.42 139.284 139.068 140.516 139.068C142.436 139.068 143.836 139.852 144.716 141.42L143.036 142.668C142.364 141.628 141.492 141.108 140.42 141.108C139.828 141.108 139.348 141.244 138.98 141.516C138.628 141.772 138.452 142.108 138.452 142.524C138.452 142.908 138.628 143.236 138.98 143.508C139.332 143.764 139.988 144.052 140.948 144.372C142.372 144.852 143.396 145.38 144.02 145.956C144.644 146.532 144.956 147.316 144.956 148.308C144.956 149.316 144.532 150.148 143.684 150.804C142.836 151.46 141.764 151.788 140.468 151.788C139.428 151.788 138.476 151.548 137.612 151.068C136.748 150.588 136.108 149.932 135.692 149.1ZM146.872 149.1L148.576 147.876C149.392 149.108 150.408 149.724 151.624 149.724C152.312 149.724 152.856 149.604 153.256 149.364C153.656 149.108 153.856 148.772 153.856 148.356C153.856 147.908 153.672 147.548 153.304 147.276C152.952 147.004 152.232 146.692 151.144 146.34C149.832 145.924 148.872 145.436 148.264 144.876C147.656 144.3 147.352 143.532 147.352 142.572C147.352 141.628 147.768 140.812 148.6 140.124C149.432 139.42 150.464 139.068 151.696 139.068C153.616 139.068 155.016 139.852 155.896 141.42L154.216 142.668C153.544 141.628 152.672 141.108 151.6 141.108C151.008 141.108 150.528 141.244 150.16 141.516C149.808 141.772 149.632 142.108 149.632 142.524C149.632 142.908 149.808 143.236 150.16 143.508C150.512 143.764 151.168 144.052 152.128 144.372C153.552 144.852 154.576 145.38 155.2 145.956C155.824 146.532 156.136 147.316 156.136 148.308C156.136 149.316 155.712 150.148 154.864 150.804C154.016 151.46 152.944 151.788 151.648 151.788C150.608 151.788 149.656 151.548 148.792 151.068C147.928 150.588 147.288 149.932 146.872 149.1ZM172.622 146.004H164.702V143.988H172.622V146.004ZM53.2807 185.5L59.8567 168.556H62.3527L68.9287 185.5H66.4807L64.7047 180.892H57.5047L55.7287 185.5H53.2807ZM58.2727 178.66H63.9367L61.1047 171.148L58.2727 178.66ZM75.9142 185.788C74.2822 185.788 72.9142 185.188 71.8102 183.988C70.7062 182.788 70.1542 181.268 70.1542 179.428C70.1542 177.588 70.7062 176.068 71.8102 174.868C72.9142 173.668 74.2822 173.068 75.9142 173.068C76.7302 173.068 77.5142 173.26 78.2662 173.644C79.0182 174.012 79.5702 174.476 79.9222 175.036V168.556H82.2502V185.5H80.0182V183.7C79.6822 184.292 79.1222 184.788 78.3382 185.188C77.5542 185.588 76.7462 185.788 75.9142 185.788ZM78.9622 176.404C78.2262 175.604 77.3382 175.204 76.2982 175.204C75.2582 175.204 74.3622 175.604 73.6102 176.404C72.8742 177.188 72.5062 178.196 72.5062 179.428C72.5062 180.66 72.8742 181.676 73.6102 182.476C74.3622 183.26 75.2582 183.652 76.2982 183.652C77.3382 183.652 78.2262 183.26 78.9622 182.476C79.6982 181.676 80.0662 180.66 80.0662 179.428C80.0662 178.196 79.6982 177.188 78.9622 176.404ZM84.4783 173.356H86.9743L90.5023 182.38L94.0303 173.356H96.5263L91.5583 185.5H89.4463L84.4783 173.356ZM99.4458 183.988C98.2458 182.772 97.6458 181.26 97.6458 179.452C97.6458 177.644 98.2138 176.132 99.3498 174.916C100.502 173.684 101.982 173.068 103.79 173.068C105.486 173.068 106.846 173.612 107.87 174.7C108.894 175.772 109.406 177.108 109.406 178.708C109.406 179.156 109.366 179.596 109.286 180.028H100.094C100.206 181.148 100.646 182.036 101.414 182.692C102.182 183.332 103.11 183.652 104.198 183.652C105.542 183.652 106.686 183.14 107.63 182.116L109.046 183.748C107.702 185.108 106.07 185.788 104.15 185.788C102.23 185.788 100.662 185.188 99.4458 183.988ZM103.814 175.156C102.87 175.156 102.07 175.42 101.414 175.948C100.758 176.476 100.342 177.204 100.166 178.132H107.126V178.108C107.046 177.212 106.694 176.5 106.07 175.972C105.462 175.428 104.71 175.156 103.814 175.156ZM112.433 173.356H114.713V175.492C115.017 174.74 115.473 174.148 116.081 173.716C116.689 173.284 117.393 173.068 118.193 173.068C118.497 173.068 118.745 173.1 118.937 173.164V175.444C118.809 175.412 118.649 175.396 118.457 175.396C117.337 175.396 116.441 175.772 115.769 176.524C115.097 177.26 114.761 178.244 114.761 179.476V185.5H112.433V173.356ZM120.208 173.356H122.104V170.02H124.36V173.356H127.48V175.3H124.36V181.636C124.36 182.964 125.016 183.628 126.328 183.628C126.856 183.628 127.336 183.5 127.768 183.244V185.38C127.304 185.652 126.656 185.788 125.824 185.788C124.64 185.788 123.712 185.452 123.04 184.78C122.368 184.092 122.032 183.14 122.032 181.924V175.3H120.208V173.356ZM130.387 173.356H132.715V185.5H130.387V173.356ZM130.531 170.788C130.243 170.484 130.099 170.132 130.099 169.732C130.099 169.332 130.243 168.988 130.531 168.7C130.819 168.412 131.163 168.268 131.563 168.268C131.963 168.268 132.307 168.412 132.595 168.7C132.883 168.988 133.027 169.332 133.027 169.732C133.027 170.132 132.883 170.484 132.595 170.788C132.307 171.076 131.963 171.22 131.563 171.22C131.163 171.22 130.819 171.076 130.531 170.788ZM135.563 183.1L137.267 181.876C138.083 183.108 139.099 183.724 140.315 183.724C141.003 183.724 141.547 183.604 141.947 183.364C142.347 183.108 142.547 182.772 142.547 182.356C142.547 181.908 142.363 181.548 141.995 181.276C141.643 181.004 140.923 180.692 139.835 180.34C138.523 179.924 137.563 179.436 136.955 178.876C136.347 178.3 136.043 177.532 136.043 176.572C136.043 175.628 136.459 174.812 137.291 174.124C138.123 173.42 139.155 173.068 140.387 173.068C142.307 173.068 143.707 173.852 144.587 175.42L142.907 176.668C142.235 175.628 141.363 175.108 140.291 175.108C139.699 175.108 139.219 175.244 138.851 175.516C138.499 175.772 138.323 176.108 138.323 176.524C138.323 176.908 138.499 177.236 138.851 177.508C139.203 177.764 139.859 178.052 140.819 178.372C142.243 178.852 143.267 179.38 143.891 179.956C144.515 180.532 144.827 181.316 144.827 182.308C144.827 183.316 144.403 184.148 143.555 184.804C142.707 185.46 141.635 185.788 140.339 185.788C139.299 185.788 138.347 185.548 137.483 185.068C136.619 184.588 135.979 183.932 135.563 183.1ZM147.871 173.356H150.199V185.5H147.871V173.356ZM148.015 170.788C147.727 170.484 147.583 170.132 147.583 169.732C147.583 169.332 147.727 168.988 148.015 168.7C148.303 168.412 148.647 168.268 149.047 168.268C149.447 168.268 149.791 168.412 150.079 168.7C150.367 168.988 150.511 169.332 150.511 169.732C150.511 170.132 150.367 170.484 150.079 170.788C149.791 171.076 149.447 171.22 149.047 171.22C148.647 171.22 148.303 171.076 148.015 170.788ZM154.176 185.5V173.356H156.456V175.18C157.224 173.772 158.536 173.068 160.392 173.068C161.8 173.068 162.936 173.524 163.8 174.436C164.664 175.332 165.096 176.572 165.096 178.156V185.5H162.768V178.252C162.768 177.292 162.496 176.548 161.952 176.02C161.408 175.476 160.728 175.204 159.912 175.204C159.32 175.204 158.792 175.332 158.328 175.588C157.864 175.844 157.504 176.18 157.248 176.596C156.992 177.012 156.8 177.452 156.672 177.916C156.56 178.38 156.504 178.852 156.504 179.332V185.5H154.176ZM167.718 187.204C167.718 186.116 168.398 185.236 169.758 184.564C169.23 184.18 168.966 183.636 168.966 182.932C168.966 182.244 169.326 181.636 170.046 181.108C169.438 180.708 168.95 180.196 168.582 179.572C168.23 178.932 168.054 178.244 168.054 177.508C168.054 176.276 168.518 175.228 169.446 174.364C170.39 173.5 171.542 173.068 172.902 173.068C173.51 173.068 174.094 173.164 174.654 173.356H179.118V175.3H177.126C177.542 175.956 177.75 176.692 177.75 177.508C177.75 178.74 177.278 179.788 176.334 180.652C175.406 181.516 174.262 181.948 172.902 181.948C172.486 181.948 172.07 181.9 171.654 181.804C171.334 182.044 171.174 182.316 171.174 182.62C171.174 182.876 171.27 183.084 171.462 183.244C171.654 183.404 171.878 183.484 172.134 183.484H175.206C176.422 183.484 177.398 183.804 178.134 184.444C178.87 185.068 179.238 185.876 179.238 186.868C179.238 187.94 178.678 188.828 177.558 189.532C176.454 190.236 174.998 190.588 173.19 190.588C171.494 190.588 170.158 190.284 169.182 189.676C168.206 189.084 167.718 188.26 167.718 187.204ZM174.726 175.828C174.23 175.348 173.622 175.108 172.902 175.108C172.182 175.108 171.566 175.348 171.054 175.828C170.558 176.292 170.31 176.852 170.31 177.508C170.31 178.164 170.558 178.732 171.054 179.212C171.566 179.676 172.182 179.908 172.902 179.908C173.622 179.908 174.23 179.676 174.726 179.212C175.238 178.732 175.494 178.164 175.494 177.508C175.494 176.852 175.238 176.292 174.726 175.828ZM170.046 186.988C170.046 187.452 170.342 187.82 170.934 188.092C171.526 188.364 172.294 188.5 173.238 188.5C174.422 188.5 175.334 188.356 175.974 188.068C176.63 187.78 176.958 187.396 176.958 186.916C176.958 186.484 176.774 186.148 176.406 185.908C176.038 185.668 175.574 185.548 175.014 185.548H171.462C171.11 185.644 170.782 185.812 170.478 186.052C170.19 186.292 170.046 186.604 170.046 186.988Z" fill="white"/>
</svg>
