<svg width="139" height="139" viewBox="0 0 139 139" fill="none" xmlns="http://www.w3.org/2000/svg">
<rect x="0.74707" width="138.082" height="138.082" rx="24.6576" fill="#CACAD1"/>
<path d="M26.8929 99.3018V89.2744H28.299V99.3018H26.8929ZM30.7699 89.2744H32.1476V97.2707C32.1476 97.8957 32.3701 98.2081 32.8151 98.2081C32.9761 98.2081 33.1323 98.1797 33.2838 98.1229V99.3586C33.0945 99.4343 32.8814 99.4722 32.6447 99.4722C32.105 99.4722 31.6552 99.3207 31.2954 99.0177C30.9451 98.7147 30.7699 98.2129 30.7699 97.5122V89.2744ZM34.8061 89.2744H36.1838V97.2707C36.1838 97.8957 36.4063 98.2081 36.8514 98.2081C37.0123 98.2081 37.1686 98.1797 37.3201 98.1229V99.3586C37.1307 99.4343 36.9176 99.4722 36.6809 99.4722C36.1412 99.4722 35.6914 99.3207 35.3316 99.0177C34.9813 98.7147 34.8061 98.2129 34.8061 97.5122V89.2744ZM41.5007 99.4722C40.6674 99.4722 39.9951 99.2071 39.4838 98.6768C38.9725 98.1371 38.7168 97.3985 38.7168 96.4611V92.115H40.0945V96.4043C40.0945 96.9725 40.2555 97.4175 40.5774 97.7394C40.8994 98.0519 41.3018 98.2081 41.7847 98.2081C42.1351 98.2081 42.4475 98.1324 42.7221 97.9809C42.9967 97.8294 43.2098 97.6305 43.3613 97.3843C43.5128 97.1382 43.6216 96.8778 43.6879 96.6032C43.7637 96.3286 43.8016 96.0492 43.8016 95.7652V92.115H45.1793V99.3018H43.83V98.2223C43.3755 99.0556 42.599 99.4722 41.5007 99.4722ZM46.8734 97.8814L47.8818 97.1571C48.3647 97.8862 48.966 98.2507 49.6856 98.2507C50.0928 98.2507 50.4147 98.1797 50.6514 98.0377C50.8882 97.8862 51.0065 97.6873 51.0065 97.4412C51.0065 97.176 50.8976 96.963 50.6798 96.802C50.4715 96.641 50.0454 96.4564 49.4016 96.2481C48.6251 96.0019 48.057 95.7131 47.6972 95.3817C47.3374 95.0408 47.1575 94.5863 47.1575 94.0182C47.1575 93.4596 47.4037 92.9766 47.896 92.5695C48.3884 92.1529 48.9991 91.9446 49.7282 91.9446C50.8645 91.9446 51.693 92.4085 52.2138 93.3365L51.2196 94.075C50.8219 93.4596 50.3058 93.1518 49.6714 93.1518C49.3211 93.1518 49.037 93.2323 48.8192 93.3933C48.6109 93.5448 48.5068 93.7436 48.5068 93.9898C48.5068 94.2171 48.6109 94.4112 48.8192 94.5721C49.0275 94.7236 49.4158 94.8941 49.9839 95.0834C50.8266 95.3675 51.4326 95.68 51.8019 96.0208C52.1712 96.3617 52.3558 96.8257 52.3558 97.4127C52.3558 98.0093 52.1049 98.5017 51.603 98.8899C51.1012 99.2781 50.4668 99.4722 49.6998 99.4722C49.0844 99.4722 48.521 99.3302 48.0097 99.0461C47.4984 98.762 47.1196 98.3738 46.8734 97.8814ZM53.3901 92.115H54.5121V90.1408H55.8472V92.115H57.6936V93.2654H55.8472V97.0151C55.8472 97.801 56.2354 98.1939 57.0119 98.1939C57.3243 98.1939 57.6084 98.1182 57.8641 97.9667V99.2307C57.5895 99.3917 57.206 99.4722 56.7136 99.4722C56.0129 99.4722 55.4637 99.2734 55.066 98.8757C54.6684 98.4685 54.4695 97.9051 54.4695 97.1855V93.2654H53.3901V92.115ZM59.4139 92.115H60.7632V93.3791C60.9431 92.934 61.2129 92.5837 61.5727 92.328C61.9325 92.0724 62.3492 91.9446 62.8226 91.9446C63.0025 91.9446 63.1493 91.9635 63.2629 92.0014V93.3507C63.1871 93.3317 63.0925 93.3223 62.9788 93.3223C62.316 93.3223 61.7858 93.5448 61.3881 93.9898C60.9904 94.4254 60.7916 95.0077 60.7916 95.7368V99.3018H59.4139V92.115ZM64.0606 97.3985C64.0606 96.2623 64.837 95.5427 66.3899 95.2397L68.634 94.7994V94.6573C68.634 94.1934 68.4872 93.8288 68.1937 93.5637C67.9002 93.2986 67.4883 93.166 66.958 93.166C66.1627 93.166 65.4951 93.4738 64.9554 94.0892L64.2452 93.1802C64.9554 92.3564 65.9023 91.9446 67.0859 91.9446C67.9854 91.9446 68.6955 92.1955 69.2163 92.6973C69.7466 93.1897 70.0117 93.862 70.0117 94.7142V99.3018H68.7334V98.1939C68.2221 99.0461 67.4409 99.4722 66.3899 99.4722C65.7176 99.4722 65.159 99.2781 64.7139 98.8899C64.2784 98.4922 64.0606 97.9951 64.0606 97.3985ZM65.4099 97.3133C65.4099 97.6069 65.5235 97.8483 65.7508 98.0377C65.978 98.2176 66.2668 98.3075 66.6172 98.3075C67.1853 98.3075 67.6729 98.1087 68.0801 97.711C68.4872 97.3039 68.6908 96.8446 68.6908 96.3333V95.8788L66.6314 96.2765C66.1958 96.3617 65.8833 96.4895 65.694 96.66C65.5046 96.821 65.4099 97.0387 65.4099 97.3133ZM71.3797 92.115H72.5018V90.1408H73.8369V92.115H75.6833V93.2654H73.8369V97.0151C73.8369 97.801 74.2251 98.1939 75.0015 98.1939C75.314 98.1939 75.5981 98.1182 75.8537 97.9667V99.2307C75.5791 99.3917 75.1956 99.4722 74.7033 99.4722C74.0026 99.4722 73.4534 99.2734 73.0557 98.8757C72.658 98.4685 72.4592 97.9051 72.4592 97.1855V93.2654H71.3797V92.115ZM77.4035 92.115H78.7812V99.3018H77.4035V92.115ZM77.4887 90.5953C77.3183 90.4154 77.2331 90.207 77.2331 89.9703C77.2331 89.7336 77.3183 89.53 77.4887 89.3596C77.6592 89.1892 77.8628 89.1039 78.0995 89.1039C78.3362 89.1039 78.5398 89.1892 78.7102 89.3596C78.8806 89.53 78.9659 89.7336 78.9659 89.9703C78.9659 90.207 78.8806 90.4154 78.7102 90.5953C78.5398 90.7657 78.3362 90.8509 78.0995 90.8509C77.8628 90.8509 77.6592 90.7657 77.4887 90.5953ZM86.9579 98.3928C86.2477 99.1124 85.3624 99.4722 84.3019 99.4722C83.2414 99.4722 82.3561 99.1124 81.6459 98.3928C80.9358 97.6637 80.5807 96.7689 80.5807 95.7084C80.5807 94.6479 80.9358 93.7578 81.6459 93.0382C82.3561 92.3091 83.2414 91.9446 84.3019 91.9446C85.3624 91.9446 86.2477 92.3091 86.9579 93.0382C87.668 93.7578 88.0231 94.6479 88.0231 95.7084C88.0231 96.7689 87.668 97.6637 86.9579 98.3928ZM82.6401 93.9756C82.2046 94.449 81.9868 95.0266 81.9868 95.7084C81.9868 96.3901 82.2046 96.9725 82.6401 97.4554C83.0757 97.9288 83.6296 98.1655 84.3019 98.1655C84.9742 98.1655 85.5281 97.9288 85.9637 97.4554C86.3992 96.9725 86.617 96.3901 86.617 95.7084C86.617 95.0266 86.3992 94.449 85.9637 93.9756C85.5281 93.4927 84.9742 93.2512 84.3019 93.2512C83.6296 93.2512 83.0757 93.4927 82.6401 93.9756ZM89.8312 99.3018V92.115H91.1805V93.1944C91.635 92.3612 92.4115 91.9446 93.5098 91.9446C94.3431 91.9446 95.0154 92.2144 95.5267 92.7541C96.038 93.2844 96.2936 94.0182 96.2936 94.9556V99.3018H94.9159V95.0124C94.9159 94.4443 94.755 94.004 94.433 93.6915C94.1111 93.3696 93.7087 93.2086 93.2258 93.2086C92.8754 93.2086 92.563 93.2844 92.2884 93.4359C92.0138 93.5874 91.8007 93.7862 91.6492 94.0324C91.4977 94.2786 91.3841 94.539 91.3084 94.8136C91.2421 95.0882 91.2089 95.3675 91.2089 95.6516V99.3018H89.8312ZM105.034 99.4722C104.059 99.4722 103.221 99.2213 102.52 98.7194C101.819 98.2081 101.469 97.5358 101.469 96.7026C101.469 96.1345 101.649 95.6326 102.009 95.1971C102.378 94.752 102.927 94.3117 103.656 93.8762C103.249 93.4311 102.951 93.0335 102.761 92.6831C102.572 92.3328 102.477 91.9493 102.477 91.5327C102.477 90.8888 102.723 90.3254 103.216 89.8425C103.718 89.3501 104.362 89.1039 105.147 89.1039C105.924 89.1039 106.558 89.3454 107.051 89.8283C107.553 90.3017 107.803 90.8557 107.803 91.4901C107.803 91.9919 107.638 92.4369 107.306 92.8251C106.975 93.2039 106.421 93.63 105.645 94.1034L107.86 96.4753C108.296 95.6894 108.462 94.8278 108.357 93.8904H109.721C109.863 95.2444 109.569 96.4517 108.84 97.5122L110.516 99.3018H108.741L107.96 98.4638C107.117 99.1361 106.142 99.4722 105.034 99.4722ZM102.918 96.6458C102.908 97.1192 103.121 97.4885 103.557 97.7536C104.002 98.0093 104.504 98.1371 105.062 98.1371C105.801 98.1371 106.454 97.9146 107.022 97.4696L104.523 94.8136C103.992 95.126 103.595 95.4196 103.329 95.6942C103.064 95.9688 102.927 96.286 102.918 96.6458ZM105.147 90.3538C104.759 90.3538 104.437 90.4674 104.182 90.6947C103.935 90.9219 103.812 91.1965 103.812 91.5185C103.812 91.812 103.883 92.0724 104.025 92.2996C104.177 92.5269 104.428 92.8204 104.778 93.1802C105.394 92.8204 105.829 92.5221 106.085 92.2854C106.341 92.0487 106.468 91.7883 106.468 91.5043C106.468 91.1918 106.341 90.9219 106.085 90.6947C105.839 90.4674 105.526 90.3538 105.147 90.3538ZM42.0991 115.981C41.1143 114.987 40.6219 113.756 40.6219 112.288C40.6219 110.82 41.1143 109.589 42.0991 108.595C43.0933 107.601 44.3005 107.104 45.7209 107.104C47.4347 107.104 48.8124 107.786 49.854 109.149L48.8171 110.101C48.0502 109.021 47.0181 108.482 45.7209 108.482C44.6793 108.482 43.8082 108.846 43.1075 109.575C42.4163 110.295 42.0707 111.199 42.0707 112.288C42.0707 113.377 42.4163 114.286 43.1075 115.015C43.8082 115.735 44.6793 116.094 45.7209 116.094C46.9897 116.094 48.0028 115.593 48.7603 114.589V113.296H46.2322V112.075H50.0812V115.129C49.5888 115.839 48.9686 116.407 48.2206 116.833C47.4726 117.259 46.6393 117.472 45.7209 117.472C44.3005 117.472 43.0933 116.975 42.0991 115.981ZM52.021 110.115H53.3703V111.379C53.5502 110.934 53.8201 110.584 54.1799 110.328C54.5397 110.072 54.9563 109.945 55.4298 109.945C55.6097 109.945 55.7564 109.963 55.8701 110.001V111.351C55.7943 111.332 55.6996 111.322 55.586 111.322C54.9232 111.322 54.393 111.545 53.9953 111.99C53.5976 112.425 53.3987 113.008 53.3987 113.737V117.302H52.021V110.115ZM56.6678 115.399C56.6678 114.262 57.4442 113.543 58.9971 113.24L61.2412 112.799V112.657C61.2412 112.193 61.0944 111.829 60.8009 111.564C60.5073 111.299 60.0955 111.166 59.5652 111.166C58.7698 111.166 58.1023 111.474 57.5626 112.089L56.8524 111.18C57.5626 110.356 58.5094 109.945 59.693 109.945C60.5926 109.945 61.3027 110.195 61.8235 110.697C62.3537 111.19 62.6189 111.862 62.6189 112.714V117.302H61.3406V116.194C60.8293 117.046 60.0481 117.472 58.9971 117.472C58.3248 117.472 57.7661 117.278 57.3211 116.89C56.8856 116.492 56.6678 115.995 56.6678 115.399ZM58.0171 115.313C58.0171 115.607 58.1307 115.848 58.3579 116.038C58.5852 116.218 58.874 116.308 59.2243 116.308C59.7925 116.308 60.2801 116.109 60.6873 115.711C61.0944 115.304 61.298 114.845 61.298 114.333V113.879L59.2385 114.276C58.803 114.362 58.4905 114.49 58.3011 114.66C58.1118 114.821 58.0171 115.039 58.0171 115.313ZM64.8371 110.115H66.158V111.166C66.3852 110.816 66.7214 110.527 67.1664 110.3C67.6209 110.063 68.0943 109.945 68.5867 109.945C69.5525 109.945 70.3621 110.3 71.0155 111.01C71.6688 111.72 71.9955 112.619 71.9955 113.708C71.9955 114.797 71.6688 115.697 71.0155 116.407C70.3621 117.117 69.5525 117.472 68.5867 117.472C68.1133 117.472 67.6541 117.363 67.209 117.146C66.764 116.928 66.4326 116.653 66.2148 116.322V120.142H64.8371V110.115ZM66.7829 111.919C66.3474 112.383 66.1296 112.979 66.1296 113.708C66.1296 114.437 66.3474 115.039 66.7829 115.512C67.2185 115.976 67.744 116.208 68.3595 116.208C68.9749 116.208 69.5005 115.976 69.936 115.512C70.381 115.039 70.6036 114.437 70.6036 113.708C70.6036 112.979 70.381 112.383 69.936 111.919C69.5005 111.445 68.9749 111.209 68.3595 111.209C67.744 111.209 67.2185 111.445 66.7829 111.919ZM73.8111 107.274H75.1888V111.109C75.6907 110.333 76.4576 109.945 77.4897 109.945C78.304 109.945 78.9716 110.214 79.4924 110.754C80.0131 111.294 80.2735 112.028 80.2735 112.956V117.302H78.8958V113.012C78.8958 112.444 78.7349 112.004 78.4129 111.692C78.091 111.37 77.6886 111.209 77.2057 111.209C76.5239 111.209 76.0173 111.441 75.6859 111.905C75.3545 112.359 75.1888 112.894 75.1888 113.51V117.302H73.8111V107.274ZM82.5216 110.115H83.8993V117.302H82.5216V110.115ZM82.6068 108.595C82.4364 108.415 82.3512 108.207 82.3512 107.97C82.3512 107.734 82.4364 107.53 82.6068 107.36C82.7773 107.189 82.9809 107.104 83.2176 107.104C83.4543 107.104 83.6579 107.189 83.8283 107.36C83.9987 107.53 84.084 107.734 84.084 107.97C84.084 108.207 83.9987 108.415 83.8283 108.595C83.6579 108.766 83.4543 108.851 83.2176 108.851C82.9809 108.851 82.7773 108.766 82.6068 108.595ZM85.6846 113.694C85.6846 112.643 86.0491 111.758 86.7782 111.038C87.5073 110.309 88.3926 109.945 89.4342 109.945C90.6557 109.945 91.612 110.446 92.3032 111.45L91.3942 112.331C90.8829 111.592 90.2248 111.223 89.42 111.223C88.7477 111.223 88.1891 111.464 87.744 111.947C87.3085 112.421 87.0907 113.008 87.0907 113.708C87.0907 114.409 87.3085 115.001 87.744 115.484C88.1891 115.957 88.743 116.194 89.4058 116.194C90.3053 116.194 91.0013 115.829 91.4937 115.1L92.4169 115.967C92.0949 116.44 91.6736 116.809 91.1528 117.075C90.632 117.34 90.0591 117.472 89.4342 117.472C88.3832 117.472 87.4931 117.108 86.764 116.379C86.0444 115.649 85.6846 114.755 85.6846 113.694ZM93.3109 115.881L94.3193 115.157C94.8022 115.886 95.4035 116.251 96.1231 116.251C96.5302 116.251 96.8522 116.18 97.0889 116.038C97.3256 115.886 97.444 115.687 97.444 115.441C97.444 115.176 97.3351 114.963 97.1173 114.802C96.909 114.641 96.4829 114.456 95.839 114.248C95.0626 114.002 94.4945 113.713 94.1347 113.382C93.7748 113.041 93.5949 112.586 93.5949 112.018C93.5949 111.46 93.8411 110.977 94.3335 110.569C94.8259 110.153 95.4366 109.945 96.1657 109.945C97.3019 109.945 98.1305 110.409 98.6512 111.336L97.657 112.075C97.2593 111.46 96.7433 111.152 96.1089 111.152C95.7585 111.152 95.4745 111.232 95.2567 111.393C95.0484 111.545 94.9442 111.744 94.9442 111.99C94.9442 112.217 95.0484 112.411 95.2567 112.572C95.465 112.724 95.8532 112.894 96.4213 113.083C97.2641 113.368 97.8701 113.68 98.2393 114.021C98.6086 114.362 98.7933 114.826 98.7933 115.413C98.7933 116.009 98.5423 116.502 98.0405 116.89C97.5387 117.278 96.9043 117.472 96.1373 117.472C95.5218 117.472 94.9584 117.33 94.4471 117.046C93.9358 116.762 93.5571 116.374 93.3109 115.881Z" fill="#545457"/>
<path d="M63.0899 35.7147L75.6695 23.8046M63.2337 29.2948L50.5355 18.1955C49.672 17.593 48.6222 17.3106 47.5699 17.3978C46.5176 17.485 45.5297 17.9362 44.7792 18.6725C44.0287 19.4088 43.5633 20.3832 43.4646 21.4253C43.3659 22.4673 43.6401 23.5106 44.2392 24.3724L57.7022 40.1176C57.7022 40.1176 57.8244 40.2672 58.0264 40.5023C55.596 42.7964 49.0331 48.9869 49.0331 48.9869C47.9502 50.0142 47.1424 51.2925 46.6825 52.7066C46.6825 52.7066 42.7289 66.5352 43.3471 67.0838C43.9588 67.8169 58.0832 64.561 58.0832 64.561C59.5322 64.1779 60.8601 63.4381 61.9434 62.4102L70.6909 54.1457C70.6909 54.2583 70.6909 54.3787 70.6966 54.482C70.8512 59.7214 74.6171 62.6795 80.605 63.6805C86.5929 64.6814 94.5058 63.456 95.142 61.7697C95.6553 60.416 94.1277 59.6893 92.3637 58.4539C91.6341 57.9358 91.0362 57.2564 90.6175 56.4696C90.1988 55.6827 89.9707 54.81 89.9513 53.9206C89.8598 51.512 88.8535 49.2267 87.1339 47.5224C85.4143 45.818 83.1085 44.8206 80.6783 44.73L86.2572 39.4643L93.654 32.4751C94.2746 31.8904 94.7727 31.1901 95.1198 30.4143C95.4669 29.6386 95.6562 28.8025 95.6769 27.9541C95.6976 27.1058 95.5493 26.2616 95.2404 25.4702C94.9315 24.6787 94.4682 23.9553 93.8769 23.3415L89.9664 19.2663C89.3757 18.6513 88.6684 18.1577 87.8851 17.8137C87.1018 17.4698 86.2578 17.2822 85.4013 17.2617C84.5448 17.2411 83.6926 17.3881 82.8934 17.6942C82.0942 18.0003 81.3638 18.4594 80.7438 19.0455L75.6975 23.8118L84.3092 32.7672" stroke="#545457" stroke-width="1.84932" stroke-linejoin="round"/>
<path d="M50.3389 66.109L43.4956 67.0128L44.6577 60.4277L50.3389 66.109Z" fill="#545457"/>
</svg>
