<svg width="139" height="139" viewBox="0 0 139 139" fill="none" xmlns="http://www.w3.org/2000/svg">
<rect x="0.494141" width="138.082" height="138.082" rx="24.6576" fill="#CACAD1"/>
<path d="M71.7532 36.2529H58.915V50.2166H71.7532V36.2529Z" stroke="#545457" stroke-width="1.84932" stroke-linecap="round" stroke-linejoin="round"/>
<path d="M76.3259 38.3378L77.8999 35.374L81.0479 41.301H74.7542L76.3259 38.3378Z" stroke="#545457" stroke-width="1.84932" stroke-linecap="round" stroke-linejoin="round"/>
<path d="M77.8999 50.0794C77.3817 50.0753 76.8762 49.918 76.4473 49.6271C76.0183 49.3362 75.6851 48.9249 75.4896 48.4449C75.2941 47.9649 75.245 47.4378 75.3486 46.93C75.4523 46.4222 75.7039 45.9565 76.0718 45.5915C76.4397 45.2264 76.9075 44.9785 77.4161 44.879C77.9247 44.7794 78.4514 44.8326 78.9298 45.032C79.4082 45.2313 79.8169 45.5678 80.1043 45.999C80.3918 46.4303 80.5451 46.937 80.545 47.4552C80.5419 48.1539 80.2615 48.8227 79.7655 49.3147C79.2696 49.8067 78.5986 50.0818 77.8999 50.0794Z" stroke="#545457" stroke-width="1.84932" stroke-linecap="round" stroke-linejoin="round"/>
<path d="M81.4076 17.2607C79.385 20.0572 74.9091 22.0089 69.6858 22.0089C64.4625 22.0089 59.9871 20.0572 57.9646 17.2607L38.3728 26.973C37.9912 27.1652 37.7008 27.5002 37.5649 27.9053C37.429 28.3104 37.4585 28.7527 37.647 29.1362L43.4027 40.6555C43.5949 41.0371 43.9299 41.3274 44.335 41.4633C44.7402 41.5991 45.1825 41.5694 45.5659 41.3807L51.2597 38.5938C51.5057 38.4751 51.7777 38.4207 52.0503 38.4357C52.323 38.4507 52.5874 38.5346 52.8188 38.6795C53.0503 38.8245 53.2412 39.0258 53.3737 39.2645C53.5062 39.5033 53.576 39.7717 53.5765 40.0448V65.563C53.5758 65.9855 53.6584 66.4039 53.8196 66.7944C53.9808 67.185 54.2174 67.5398 54.5159 67.8388C54.8144 68.1377 55.169 68.3748 55.5593 68.5366C55.9495 68.6983 56.3679 68.7815 56.7903 68.7813H82.5552C83.4084 68.7813 84.2267 68.443 84.8309 67.8406C85.435 67.2382 85.7757 66.4207 85.7781 65.5675V40.0312C85.7782 39.6045 85.9478 39.1953 86.2495 38.8935C86.5513 38.5918 86.9605 38.4222 87.3872 38.422C87.631 38.4232 87.8714 38.4788 88.0909 38.5848L93.7842 41.3722C94.1649 41.5638 94.6061 41.5964 95.0109 41.4629C95.4157 41.3293 95.7508 41.0406 95.9428 40.66L95.9473 40.6464L101.716 29.1362C101.908 28.7552 101.941 28.3138 101.808 27.9085C101.676 27.5031 101.388 27.1668 101.008 26.973H100.999L86.6473 19.8542L86.0576 20.5709C83.2294 24.4833 76.9702 27.2106 69.666 27.2106C64.4455 27.2106 59.7649 25.8186 56.4847 23.5982" stroke="#545457" stroke-width="1.84932" stroke-miterlimit="10"/>
<path d="M36.9323 97.9809C35.9286 96.9867 35.4268 95.7557 35.4268 94.2881C35.4268 92.8204 35.9191 91.5895 36.9039 90.5953C37.8981 89.601 39.1054 89.1039 40.5257 89.1039C41.4536 89.1039 42.2679 89.298 42.9686 89.6863C43.6693 90.065 44.2327 90.5527 44.6588 91.1492L43.622 92.1008C42.855 91.0214 41.8229 90.4816 40.5257 90.4816C39.4841 90.4816 38.613 90.8462 37.9123 91.5753C37.2211 92.2949 36.8755 93.1992 36.8755 94.2881C36.8755 95.377 37.2306 96.286 37.9407 97.0151C38.6509 97.7347 39.5362 98.0945 40.5967 98.0945C41.9034 98.0945 42.9497 97.5311 43.7356 96.4043L44.7582 97.2849C44.2942 97.9477 43.7024 98.478 42.9828 98.8757C42.2727 99.2734 41.4773 99.4722 40.5967 99.4722C39.1574 99.4722 37.936 98.9751 36.9323 97.9809ZM46.2413 89.2744H47.619V97.2707C47.619 97.8957 47.8415 98.2081 48.2866 98.2081C48.4475 98.2081 48.6038 98.1797 48.7553 98.1229V99.3586C48.5659 99.4343 48.3528 99.4722 48.1161 99.4722C47.5764 99.4722 47.1266 99.3207 46.7668 99.0177C46.4165 98.7147 46.2413 98.2129 46.2413 97.5122V89.2744ZM56.0612 98.3928C55.351 99.1124 54.4657 99.4722 53.4052 99.4722C52.3447 99.4722 51.4594 99.1124 50.7492 98.3928C50.0391 97.6637 49.684 96.7689 49.684 95.7084C49.684 94.6479 50.0391 93.7578 50.7492 93.0382C51.4594 92.3091 52.3447 91.9446 53.4052 91.9446C54.4657 91.9446 55.351 92.3091 56.0612 93.0382C56.7714 93.7578 57.1264 94.6479 57.1264 95.7084C57.1264 96.7689 56.7714 97.6637 56.0612 98.3928ZM51.7435 93.9756C51.3079 94.449 51.0901 95.0266 51.0901 95.7084C51.0901 96.3901 51.3079 96.9725 51.7435 97.4554C52.179 97.9288 52.7329 98.1655 53.4052 98.1655C54.0775 98.1655 54.6314 97.9288 55.067 97.4554C55.5025 96.9725 55.7203 96.3901 55.7203 95.7084C55.7203 95.0266 55.5025 94.449 55.067 93.9756C54.6314 93.4927 54.0775 93.2512 53.4052 93.2512C52.7329 93.2512 52.179 93.4927 51.7435 93.9756ZM58.0566 92.115H59.1787V90.1408H60.5138V92.115H62.3602V93.2654H60.5138V97.0151C60.5138 97.801 60.902 98.1939 61.6784 98.1939C61.9909 98.1939 62.2749 98.1182 62.5306 97.9667V99.2307C62.256 99.3917 61.8725 99.4722 61.3801 99.4722C60.6795 99.4722 60.1303 99.2734 59.7326 98.8757C59.3349 98.4685 59.1361 97.9051 59.1361 97.1855V93.2654H58.0566V92.115ZM64.0804 89.2744H65.4581V93.1092C65.9599 92.3328 66.7269 91.9446 67.759 91.9446C68.5733 91.9446 69.2409 92.2144 69.7616 92.7541C70.2824 93.2938 70.5428 94.0277 70.5428 94.9556V99.3018H69.1651V95.0124C69.1651 94.4443 69.0041 94.004 68.6822 93.6915C68.3603 93.3696 67.9578 93.2086 67.4749 93.2086C66.7932 93.2086 66.2866 93.4406 65.9552 93.9046C65.6238 94.3591 65.4581 94.8941 65.4581 95.5095V99.3018H64.0804V89.2744ZM72.7909 92.115H74.1686V99.3018H72.7909V92.115ZM72.8761 90.5953C72.7057 90.4154 72.6205 90.207 72.6205 89.9703C72.6205 89.7336 72.7057 89.53 72.8761 89.3596C73.0465 89.1892 73.2501 89.1039 73.4868 89.1039C73.7236 89.1039 73.9271 89.1892 74.0976 89.3596C74.268 89.53 74.3532 89.7336 74.3532 89.9703C74.3532 90.207 74.268 90.4154 74.0976 90.5953C73.9271 90.7657 73.7236 90.8509 73.4868 90.8509C73.2501 90.8509 73.0465 90.7657 72.8761 90.5953ZM76.522 99.3018V92.115H77.8713V93.1944C78.3258 92.3612 79.1022 91.9446 80.2006 91.9446C81.0338 91.9446 81.7061 92.2144 82.2174 92.7541C82.7287 93.2844 82.9844 94.0182 82.9844 94.9556V99.3018H81.6067V95.0124C81.6067 94.4443 81.4457 94.004 81.1238 93.6915C80.8018 93.3696 80.3994 93.2086 79.9165 93.2086C79.5662 93.2086 79.2537 93.2844 78.9791 93.4359C78.7045 93.5874 78.4915 93.7862 78.34 94.0324C78.1885 94.2786 78.0749 94.539 77.9991 94.8136C77.9328 95.0882 77.8997 95.3675 77.8997 95.6516V99.3018H76.522ZM84.5365 100.31C84.5365 99.6663 84.9389 99.1455 85.7438 98.7478C85.4313 98.5206 85.2751 98.1987 85.2751 97.782C85.2751 97.3749 85.4881 97.0151 85.9142 96.7026C85.5544 96.4659 85.2656 96.1629 85.0478 95.7936C84.8395 95.4148 84.7354 95.0077 84.7354 94.5721C84.7354 93.843 85.01 93.2228 85.5591 92.7115C86.1178 92.2002 86.7995 91.9446 87.6044 91.9446C87.9642 91.9446 88.3098 92.0014 88.6412 92.115H91.283V93.2654H90.1041C90.3503 93.6537 90.4734 94.0892 90.4734 94.5721C90.4734 95.3012 90.1941 95.9214 89.6354 96.4327C89.0862 96.944 88.4092 97.1997 87.6044 97.1997C87.3582 97.1997 87.112 97.1713 86.8658 97.1145C86.6764 97.2565 86.5818 97.4175 86.5818 97.5974C86.5818 97.7489 86.6386 97.872 86.7522 97.9667C86.8658 98.0614 86.9984 98.1087 87.1499 98.1087H88.9679C89.6875 98.1087 90.2651 98.2981 90.7007 98.6768C91.1362 99.0461 91.354 99.5243 91.354 100.111C91.354 100.746 91.0226 101.271 90.3598 101.688C89.7064 102.105 88.8448 102.313 87.7748 102.313C86.7711 102.313 85.9805 102.133 85.4029 101.773C84.8253 101.423 84.5365 100.935 84.5365 100.31ZM88.6838 93.5779C88.3903 93.2938 88.0305 93.1518 87.6044 93.1518C87.1783 93.1518 86.8137 93.2938 86.5107 93.5779C86.2172 93.8525 86.0705 94.1839 86.0705 94.5721C86.0705 94.9603 86.2172 95.2965 86.5107 95.5805C86.8137 95.8551 87.1783 95.9924 87.6044 95.9924C88.0305 95.9924 88.3903 95.8551 88.6838 95.5805C88.9868 95.2965 89.1383 94.9603 89.1383 94.5721C89.1383 94.1839 88.9868 93.8525 88.6838 93.5779ZM85.9142 100.182C85.9142 100.457 86.0894 100.675 86.4397 100.836C86.7901 100.997 87.2446 101.077 87.8032 101.077C88.5039 101.077 89.0436 100.992 89.4224 100.821C89.8106 100.651 90.0047 100.424 90.0047 100.14C90.0047 99.8841 89.8958 99.6852 89.678 99.5432C89.4603 99.4012 89.1857 99.3302 88.8543 99.3302H86.7522C86.5439 99.387 86.3498 99.4864 86.1699 99.6284C85.9994 99.7705 85.9142 99.9551 85.9142 100.182ZM99.3948 99.4722C98.4196 99.4722 97.5816 99.2213 96.8809 98.7194C96.1802 98.2081 95.8299 97.5358 95.8299 96.7026C95.8299 96.1345 96.0098 95.6326 96.3696 95.1971C96.7389 94.752 97.288 94.3117 98.0171 93.8762C97.61 93.4311 97.3117 93.0335 97.1223 92.6831C96.933 92.3328 96.8383 91.9493 96.8383 91.5327C96.8383 90.8888 97.0845 90.3254 97.5768 89.8425C98.0787 89.3501 98.7226 89.1039 99.5085 89.1039C100.285 89.1039 100.919 89.3454 101.412 89.8283C101.914 90.3017 102.164 90.8557 102.164 91.4901C102.164 91.9919 101.999 92.4369 101.667 92.8251C101.336 93.2039 100.782 93.63 100.006 94.1034L102.221 96.4753C102.657 95.6894 102.823 94.8278 102.718 93.8904H104.082C104.224 95.2444 103.93 96.4517 103.201 97.5122L104.877 99.3018H103.102L102.321 98.4638C101.478 99.1361 100.503 99.4722 99.3948 99.4722ZM97.2786 96.6458C97.2691 97.1192 97.4822 97.4885 97.9177 97.7536C98.3627 98.0093 98.8646 98.1371 99.4232 98.1371C100.162 98.1371 100.815 97.9146 101.383 97.4696L98.8835 94.8136C98.3533 95.126 97.9556 95.4196 97.6905 95.6942C97.4253 95.9688 97.288 96.286 97.2786 96.6458ZM99.5085 90.3538C99.1202 90.3538 98.7983 90.4674 98.5427 90.6947C98.2965 90.9219 98.1734 91.1965 98.1734 91.5185C98.1734 91.812 98.2444 92.0724 98.3864 92.2996C98.5379 92.5269 98.7888 92.8204 99.1392 93.1802C99.7547 92.8204 100.19 92.5221 100.446 92.2854C100.702 92.0487 100.829 91.7883 100.829 91.5043C100.829 91.1918 100.702 90.9219 100.446 90.6947C100.2 90.4674 99.8872 90.3538 99.5085 90.3538ZM28.1057 117.302V107.274H29.3982L33.1194 113.225L36.8406 107.274H38.1331V117.302H36.727V109.945L33.5597 114.873H32.6791L29.5118 109.945V117.302H28.1057ZM41.0817 116.407C40.3716 115.687 40.0165 114.793 40.0165 113.723C40.0165 112.653 40.3526 111.758 41.0249 111.038C41.7066 110.309 42.5825 109.945 43.6525 109.945C44.6562 109.945 45.461 110.266 46.067 110.91C46.673 111.545 46.976 112.335 46.976 113.282C46.976 113.547 46.9523 113.808 46.905 114.063H41.4652C41.5315 114.726 41.7919 115.252 42.2464 115.64C42.7009 116.019 43.25 116.208 43.8939 116.208C44.6893 116.208 45.3663 115.905 45.925 115.299L46.7629 116.265C45.9676 117.07 45.0018 117.472 43.8655 117.472C42.7293 117.472 41.8013 117.117 41.0817 116.407ZM43.6667 111.18C43.108 111.18 42.6346 111.336 42.2464 111.649C41.8581 111.961 41.612 112.392 41.5078 112.941H45.6267V112.927C45.5794 112.397 45.371 111.976 45.0018 111.663C44.642 111.341 44.1969 111.18 43.6667 111.18ZM48.7677 110.115H50.117V111.379C50.2969 110.934 50.5667 110.584 50.9266 110.328C51.2864 110.072 51.703 109.945 52.1764 109.945C52.3563 109.945 52.5031 109.963 52.6167 110.001V111.351C52.541 111.332 52.4463 111.322 52.3327 111.322C51.6699 111.322 51.1396 111.545 50.7419 111.99C50.3442 112.425 50.1454 113.008 50.1454 113.737V117.302H48.7677V110.115ZM53.3177 113.694C53.3177 112.643 53.6822 111.758 54.4113 111.038C55.1404 110.309 56.0257 109.945 57.0673 109.945C58.2888 109.945 59.2451 110.446 59.9363 111.45L59.0273 112.331C58.516 111.592 57.8579 111.223 57.0531 111.223C56.3808 111.223 55.8222 111.464 55.3771 111.947C54.9416 112.421 54.7238 113.008 54.7238 113.708C54.7238 114.409 54.9416 115.001 55.3771 115.484C55.8222 115.957 56.3761 116.194 57.0389 116.194C57.9384 116.194 58.6344 115.829 59.1267 115.1L60.0499 115.967C59.728 116.44 59.3066 116.809 58.7859 117.075C58.2651 117.34 57.6922 117.472 57.0673 117.472C56.0163 117.472 55.1262 117.108 54.3971 116.379C53.6775 115.649 53.3177 114.755 53.3177 113.694ZM61.6115 107.274H62.9892V111.109C63.491 110.333 64.258 109.945 65.2901 109.945C66.1044 109.945 66.772 110.214 67.2927 110.754C67.8135 111.294 68.0739 112.028 68.0739 112.956V117.302H66.6962V113.012C66.6962 112.444 66.5352 112.004 66.2133 111.692C65.8914 111.37 65.4889 111.209 65.006 111.209C64.3243 111.209 63.8177 111.441 63.4863 111.905C63.1549 112.359 62.9892 112.894 62.9892 113.51V117.302H61.6115V107.274ZM69.7397 115.399C69.7397 114.262 70.5161 113.543 72.069 113.24L74.3131 112.799V112.657C74.3131 112.193 74.1663 111.829 73.8728 111.564C73.5792 111.299 73.1673 111.166 72.6371 111.166C71.8417 111.166 71.1742 111.474 70.6345 112.089L69.9243 111.18C70.6345 110.356 71.5813 109.945 72.7649 109.945C73.6645 109.945 74.3746 110.195 74.8954 110.697C75.4256 111.19 75.6908 111.862 75.6908 112.714V117.302H74.4125V116.194C73.9012 117.046 73.12 117.472 72.069 117.472C71.3967 117.472 70.838 117.278 70.393 116.89C69.9574 116.492 69.7397 115.995 69.7397 115.399ZM71.089 115.313C71.089 115.607 71.2026 115.848 71.4298 116.038C71.6571 116.218 71.9459 116.308 72.2962 116.308C72.8643 116.308 73.352 116.109 73.7591 115.711C74.1663 115.304 74.3699 114.845 74.3699 114.333V113.879L72.3104 114.276C71.8749 114.362 71.5624 114.49 71.373 114.66C71.1837 114.821 71.089 115.039 71.089 115.313ZM77.909 117.302V110.115H79.2583V111.194C79.7128 110.361 80.4892 109.945 81.5876 109.945C82.4208 109.945 83.0931 110.214 83.6044 110.754C84.1157 111.284 84.3714 112.018 84.3714 112.956V117.302H82.9937V113.012C82.9937 112.444 82.8327 112.004 82.5108 111.692C82.1889 111.37 81.7864 111.209 81.3035 111.209C80.9532 111.209 80.6407 111.284 80.3661 111.436C80.0915 111.587 79.8785 111.786 79.727 112.032C79.5755 112.279 79.4619 112.539 79.3861 112.814C79.3198 113.088 79.2867 113.368 79.2867 113.652V117.302H77.909ZM89.4885 117.472C88.5227 117.472 87.7131 117.117 87.0598 116.407C86.4064 115.697 86.0798 114.797 86.0798 113.708C86.0798 112.619 86.4064 111.72 87.0598 111.01C87.7131 110.3 88.5227 109.945 89.4885 109.945C89.9714 109.945 90.4354 110.058 90.8804 110.285C91.3254 110.503 91.6521 110.778 91.8604 111.109V107.274H93.2381V117.302H91.9172V116.237C91.7184 116.587 91.387 116.88 90.923 117.117C90.4591 117.354 89.9809 117.472 89.4885 117.472ZM91.2923 111.919C90.8567 111.445 90.3312 111.209 89.7158 111.209C89.1003 111.209 88.57 111.445 88.125 111.919C87.6895 112.383 87.4717 112.979 87.4717 113.708C87.4717 114.437 87.6895 115.039 88.125 115.512C88.57 115.976 89.1003 116.208 89.7158 116.208C90.3312 116.208 90.8567 115.976 91.2923 115.512C91.7279 115.039 91.9456 114.437 91.9456 113.708C91.9456 112.979 91.7279 112.383 91.2923 111.919ZM95.5935 110.115H96.9712V117.302H95.5935V110.115ZM95.6787 108.595C95.5083 108.415 95.4231 108.207 95.4231 107.97C95.4231 107.734 95.5083 107.53 95.6787 107.36C95.8492 107.189 96.0527 107.104 96.2895 107.104C96.5262 107.104 96.7298 107.189 96.9002 107.36C97.0706 107.53 97.1559 107.734 97.1559 107.97C97.1559 108.207 97.0706 108.415 96.9002 108.595C96.7298 108.766 96.5262 108.851 96.2895 108.851C96.0527 108.851 95.8492 108.766 95.6787 108.595ZM98.657 115.881L99.6655 115.157C100.148 115.886 100.75 116.251 101.469 116.251C101.876 116.251 102.198 116.18 102.435 116.038C102.672 115.886 102.79 115.687 102.79 115.441C102.79 115.176 102.681 114.963 102.463 114.802C102.255 114.641 101.829 114.456 101.185 114.248C100.409 114.002 99.8406 113.713 99.4808 113.382C99.121 113.041 98.9411 112.586 98.9411 112.018C98.9411 111.46 99.1873 110.977 99.6797 110.569C100.172 110.153 100.783 109.945 101.512 109.945C102.648 109.945 103.477 110.409 103.997 111.336L103.003 112.075C102.606 111.46 102.089 111.152 101.455 111.152C101.105 111.152 100.821 111.232 100.603 111.393C100.395 111.545 100.29 111.744 100.29 111.99C100.29 112.217 100.395 112.411 100.603 112.572C100.811 112.724 101.199 112.894 101.768 113.083C102.61 113.368 103.216 113.68 103.586 114.021C103.955 114.362 104.139 114.826 104.139 115.413C104.139 116.009 103.889 116.502 103.387 116.89C102.885 117.278 102.25 117.472 101.483 117.472C100.868 117.472 100.305 117.33 99.7933 117.046C99.282 116.762 98.9032 116.374 98.657 115.881ZM106.452 116.407C105.742 115.687 105.387 114.793 105.387 113.723C105.387 112.653 105.723 111.758 106.395 111.038C107.077 110.309 107.953 109.945 109.023 109.945C110.026 109.945 110.831 110.266 111.437 110.91C112.043 111.545 112.346 112.335 112.346 113.282C112.346 113.547 112.323 113.808 112.275 114.063H106.835C106.902 114.726 107.162 115.252 107.617 115.64C108.071 116.019 108.62 116.208 109.264 116.208C110.06 116.208 110.737 115.905 111.295 115.299L112.133 116.265C111.338 117.07 110.372 117.472 109.236 117.472C108.1 117.472 107.172 117.117 106.452 116.407ZM109.037 111.18C108.478 111.18 108.005 111.336 107.617 111.649C107.228 111.961 106.982 112.392 106.878 112.941H110.997V112.927C110.95 112.397 110.741 111.976 110.372 111.663C110.012 111.341 109.567 111.18 109.037 111.18Z" fill="#545457"/>
</svg>
