<svg width="178" height="178" viewBox="0 0 178 178" fill="none" xmlns="http://www.w3.org/2000/svg">
<rect width="177.032" height="177.032" rx="31.6129" fill="#252C47"/>
<path d="M91.3599 46.4785H74.9004V64.3811H91.3599V46.4785Z" stroke="white" stroke-width="2.37097" stroke-linecap="round" stroke-linejoin="round"/>
<path d="M97.2221 49.1503L99.2401 45.3506L103.276 52.9494H95.207L97.2221 49.1503Z" stroke="white" stroke-width="2.37097" stroke-linecap="round" stroke-linejoin="round"/>
<path d="M99.2402 64.2046C98.5758 64.1994 97.9278 63.9977 97.3778 63.6248C96.8279 63.2518 96.4007 62.7245 96.15 62.1091C95.8993 61.4937 95.8365 60.8179 95.9693 60.1669C96.1021 59.5159 96.4248 58.9187 96.8965 58.4508C97.3682 57.9828 97.9679 57.6649 98.6199 57.5373C99.272 57.4096 99.9473 57.4779 100.561 57.7335C101.174 57.989 101.698 58.4204 102.066 58.9733C102.435 59.5262 102.632 60.1758 102.631 60.8403C102.627 61.736 102.268 62.5934 101.632 63.2243C100.996 63.8551 100.136 64.2077 99.2402 64.2046Z" stroke="white" stroke-width="2.37097" stroke-linecap="round" stroke-linejoin="round"/>
<path d="M103.737 22.1289C101.144 25.7142 95.406 28.2164 88.7093 28.2164C82.0127 28.2164 76.2749 25.7142 73.6819 22.1289L48.5636 34.5808C48.0744 34.8271 47.7021 35.2567 47.5279 35.776C47.3536 36.2954 47.3915 36.8625 47.6331 37.3541L55.0124 52.1228C55.2587 52.6121 55.6883 52.9843 56.2077 53.1584C56.7271 53.3325 57.2942 53.2945 57.7857 53.0525L65.0857 49.4796C65.401 49.3274 65.7497 49.2576 66.0993 49.2769C66.4489 49.2961 66.7879 49.4036 67.0846 49.5895C67.3813 49.7753 67.626 50.0333 67.7959 50.3394C67.9658 50.6455 68.0553 50.9897 68.056 51.3398V84.0561C68.0551 84.5977 68.1609 85.1343 68.3676 85.6349C68.5742 86.1356 68.8776 86.5906 69.2603 86.9738C69.6431 87.3571 70.0976 87.6611 70.598 87.8685C71.0984 88.0758 71.6347 88.1825 72.1763 88.1823H105.209C106.303 88.1823 107.352 87.7485 108.126 86.9762C108.901 86.2038 109.338 85.1558 109.341 84.0619V51.3224C109.341 50.7753 109.558 50.2507 109.945 49.8638C110.332 49.4769 110.857 49.2595 111.404 49.2593C111.716 49.2608 112.025 49.3321 112.306 49.468L119.605 53.0416C120.093 53.2873 120.659 53.3291 121.178 53.1579C121.697 52.9867 122.127 52.6165 122.373 52.1286L122.379 52.1111L129.775 37.3541C130.02 36.8657 130.063 36.2998 129.893 35.7801C129.723 35.2604 129.354 34.8292 128.867 34.5808H128.856L110.455 25.454L109.699 26.3728C106.073 31.3888 98.0484 34.8854 88.6839 34.8854C81.9909 34.8854 75.9899 33.1007 71.7845 30.254" stroke="white" stroke-width="2.37097" stroke-miterlimit="10"/>
<path d="M46.7165 125.952C45.4297 124.677 44.7863 123.099 44.7863 121.217C44.7863 119.335 45.4176 117.757 46.6801 116.483C47.9548 115.208 49.5026 114.571 51.3235 114.571C52.5132 114.571 53.5572 114.819 54.4556 115.317C55.3539 115.803 56.0762 116.428 56.6225 117.193L55.2932 118.413C54.3099 117.029 52.9867 116.337 51.3235 116.337C49.9882 116.337 48.8713 116.804 47.973 117.739C47.0868 118.662 46.6437 119.821 46.6437 121.217C46.6437 122.613 47.0989 123.779 48.0094 124.713C48.9199 125.636 50.0549 126.097 51.4146 126.097C53.0899 126.097 54.4313 125.375 55.4389 123.93L56.75 125.059C56.1551 125.909 55.3964 126.589 54.4738 127.099C53.5633 127.609 52.5436 127.864 51.4146 127.864C49.5694 127.864 48.0033 127.226 46.7165 125.952ZM58.6514 114.789H60.4177V125.041C60.4177 125.842 60.703 126.243 61.2736 126.243C61.48 126.243 61.6803 126.206 61.8745 126.134V127.718C61.6317 127.815 61.3586 127.864 61.0551 127.864C60.3631 127.864 59.7865 127.669 59.3252 127.281C58.876 126.892 58.6514 126.249 58.6514 125.351V114.789ZM71.2413 126.48C70.3308 127.402 69.1957 127.864 67.8361 127.864C66.4765 127.864 65.3414 127.402 64.4309 126.48C63.5205 125.545 63.0652 124.398 63.0652 123.038C63.0652 121.678 63.5205 120.537 64.4309 119.615C65.3414 118.68 66.4765 118.213 67.8361 118.213C69.1957 118.213 70.3308 118.68 71.2413 119.615C72.1517 120.537 72.607 121.678 72.607 123.038C72.607 124.398 72.1517 125.545 71.2413 126.48ZM65.7056 120.816C65.1472 121.423 64.868 122.164 64.868 123.038C64.868 123.912 65.1472 124.659 65.7056 125.278C66.264 125.885 66.9742 126.188 67.8361 126.188C68.698 126.188 69.4082 125.885 69.9666 125.278C70.525 124.659 70.8042 123.912 70.8042 123.038C70.8042 122.164 70.525 121.423 69.9666 120.816C69.4082 120.197 68.698 119.888 67.8361 119.888C66.9742 119.888 66.264 120.197 65.7056 120.816ZM73.7996 118.431H75.2381V115.9H76.9498V118.431H79.317V119.906H76.9498V124.713C76.9498 125.721 77.4475 126.225 78.443 126.225C78.8436 126.225 79.2078 126.128 79.5355 125.933V127.554C79.1835 127.76 78.6918 127.864 78.0606 127.864C77.1622 127.864 76.4581 127.609 75.9483 127.099C75.4384 126.577 75.1835 125.854 75.1835 124.932V119.906H73.7996V118.431ZM81.5225 114.789H83.2888V119.706C83.9322 118.71 84.9155 118.213 86.2387 118.213C87.2828 118.213 88.1386 118.559 88.8063 119.25C89.474 119.942 89.8078 120.883 89.8078 122.073V127.645H88.0415V122.146C88.0415 121.417 87.8351 120.853 87.4224 120.452C87.0096 120.04 86.4937 119.833 85.8746 119.833C85.0005 119.833 84.351 120.131 83.9261 120.725C83.5013 121.308 83.2888 121.994 83.2888 122.783V127.645H81.5225V114.789ZM92.69 118.431H94.4563V127.645H92.69V118.431ZM92.7993 116.483C92.5808 116.252 92.4715 115.985 92.4715 115.681C92.4715 115.378 92.5808 115.117 92.7993 114.898C93.0178 114.68 93.2788 114.571 93.5823 114.571C93.8858 114.571 94.1468 114.68 94.3653 114.898C94.5838 115.117 94.6931 115.378 94.6931 115.681C94.6931 115.985 94.5838 116.252 94.3653 116.483C94.1468 116.701 93.8858 116.81 93.5823 116.81C93.2788 116.81 93.0178 116.701 92.7993 116.483ZM97.4736 127.645V118.431H99.2035V119.815C99.7862 118.747 100.782 118.213 102.19 118.213C103.258 118.213 104.12 118.559 104.776 119.25C105.431 119.93 105.759 120.871 105.759 122.073V127.645H103.993V122.146C103.993 121.417 103.786 120.853 103.373 120.452C102.961 120.04 102.445 119.833 101.826 119.833C101.376 119.833 100.976 119.93 100.624 120.125C100.272 120.319 99.9986 120.574 99.8044 120.889C99.6101 121.205 99.4645 121.539 99.3673 121.891C99.2824 122.243 99.2399 122.601 99.2399 122.965V127.645H97.4736ZM107.749 128.938C107.749 128.112 108.265 127.445 109.297 126.935C108.896 126.643 108.696 126.231 108.696 125.697C108.696 125.175 108.969 124.713 109.515 124.313C109.054 124.009 108.684 123.621 108.404 123.147C108.137 122.662 108.004 122.14 108.004 121.581C108.004 120.647 108.356 119.851 109.06 119.196C109.776 118.54 110.65 118.213 111.682 118.213C112.143 118.213 112.586 118.285 113.011 118.431H116.398V119.906H114.887C115.203 120.404 115.36 120.962 115.36 121.581C115.36 122.516 115.002 123.311 114.286 123.967C113.582 124.622 112.714 124.95 111.682 124.95C111.366 124.95 111.051 124.914 110.735 124.841C110.492 125.023 110.371 125.229 110.371 125.46C110.371 125.654 110.444 125.812 110.589 125.933C110.735 126.055 110.905 126.115 111.099 126.115H113.43C114.353 126.115 115.093 126.358 115.652 126.844C116.21 127.317 116.489 127.93 116.489 128.683C116.489 129.496 116.064 130.17 115.215 130.704C114.377 131.238 113.272 131.505 111.901 131.505C110.614 131.505 109.6 131.275 108.86 130.813C108.119 130.364 107.749 129.739 107.749 128.938ZM113.066 120.307C112.69 119.942 112.228 119.76 111.682 119.76C111.136 119.76 110.668 119.942 110.28 120.307C109.904 120.659 109.715 121.084 109.715 121.581C109.715 122.079 109.904 122.51 110.28 122.874C110.668 123.226 111.136 123.402 111.682 123.402C112.228 123.402 112.69 123.226 113.066 122.874C113.454 122.51 113.649 122.079 113.649 121.581C113.649 121.084 113.454 120.659 113.066 120.307ZM109.515 128.774C109.515 129.126 109.74 129.405 110.189 129.612C110.638 129.818 111.221 129.921 111.937 129.921C112.835 129.921 113.527 129.812 114.013 129.593C114.511 129.375 114.759 129.084 114.759 128.719C114.759 128.392 114.62 128.137 114.341 127.955C114.061 127.772 113.709 127.681 113.284 127.681H110.589C110.322 127.754 110.074 127.882 109.843 128.064C109.624 128.246 109.515 128.483 109.515 128.774ZM126.798 127.864C125.548 127.864 124.474 127.542 123.575 126.898C122.677 126.243 122.228 125.381 122.228 124.313C122.228 123.584 122.458 122.941 122.92 122.382C123.393 121.812 124.097 121.247 125.032 120.689C124.51 120.118 124.128 119.609 123.885 119.159C123.642 118.71 123.521 118.219 123.521 117.684C123.521 116.859 123.836 116.137 124.468 115.518C125.111 114.886 125.936 114.571 126.944 114.571C127.939 114.571 128.753 114.88 129.384 115.499C130.027 116.106 130.349 116.816 130.349 117.63C130.349 118.273 130.137 118.844 129.712 119.342C129.287 119.827 128.577 120.373 127.581 120.98L130.422 124.021C130.98 123.014 131.193 121.909 131.059 120.707H132.807C132.99 122.443 132.613 123.991 131.678 125.351L133.827 127.645H131.551L130.549 126.571C129.469 127.433 128.219 127.864 126.798 127.864ZM124.085 124.24C124.073 124.847 124.346 125.32 124.905 125.66C125.475 125.988 126.118 126.152 126.835 126.152C127.782 126.152 128.619 125.867 129.348 125.296L126.143 121.891C125.463 122.291 124.953 122.668 124.613 123.02C124.273 123.372 124.097 123.779 124.085 124.24ZM126.944 116.173C126.446 116.173 126.034 116.319 125.706 116.61C125.39 116.901 125.232 117.253 125.232 117.666C125.232 118.043 125.323 118.376 125.505 118.668C125.7 118.959 126.021 119.335 126.471 119.797C127.26 119.335 127.818 118.953 128.146 118.65C128.474 118.346 128.637 118.012 128.637 117.648C128.637 117.247 128.474 116.901 128.146 116.61C127.83 116.319 127.43 116.173 126.944 116.173ZM35.4002 150.645V137.789H37.0573L41.8282 145.419L46.599 137.789H48.2561V150.645H46.4534V141.213L42.3927 147.531H41.2637L37.203 141.213V150.645H35.4002ZM52.0364 149.498C51.1259 148.575 50.6707 147.428 50.6707 146.056C50.6707 144.684 51.1017 143.537 51.9636 142.615C52.8376 141.68 53.9605 141.213 55.3323 141.213C56.6191 141.213 57.651 141.625 58.4279 142.451C59.2049 143.264 59.5933 144.278 59.5933 145.492C59.5933 145.832 59.563 146.165 59.5023 146.493H52.5281C52.613 147.343 52.9469 148.017 53.5296 148.515C54.1123 149 54.8164 149.243 55.6419 149.243C56.6616 149.243 57.5296 148.854 58.2458 148.077L59.3202 149.316C58.3005 150.348 57.0622 150.864 55.6055 150.864C54.1487 150.864 52.959 150.408 52.0364 149.498ZM55.3505 142.797C54.6343 142.797 54.0273 142.997 53.5296 143.398C53.0319 143.798 52.7162 144.351 52.5827 145.055H57.8634V145.037C57.8027 144.357 57.5357 143.816 57.0622 143.416C56.6009 143.003 56.0304 142.797 55.3505 142.797ZM61.8904 141.431H63.6203V143.052C63.851 142.481 64.197 142.032 64.6583 141.704C65.1196 141.376 65.6537 141.213 66.2607 141.213C66.4913 141.213 66.6795 141.237 66.8252 141.285V143.015C66.7281 142.991 66.6067 142.979 66.461 142.979C65.6112 142.979 64.9314 143.264 64.4215 143.835C63.9117 144.393 63.6567 145.14 63.6567 146.074V150.645H61.8904V141.431ZM67.7239 146.02C67.7239 144.672 68.1912 143.537 69.126 142.615C70.0607 141.68 71.1958 141.213 72.5311 141.213C74.0972 141.213 75.3233 141.856 76.2095 143.143L75.0441 144.272C74.3885 143.325 73.5448 142.851 72.5129 142.851C71.651 142.851 70.9348 143.161 70.3642 143.78C69.8058 144.387 69.5266 145.14 69.5266 146.038C69.5266 146.936 69.8058 147.695 70.3642 148.314C70.9348 148.921 71.645 149.225 72.4947 149.225C73.648 149.225 74.5403 148.757 75.1715 147.823L76.3551 148.933C75.9424 149.54 75.4022 150.014 74.7345 150.354C74.0668 150.694 73.3324 150.864 72.5311 150.864C71.1836 150.864 70.0425 150.396 69.1078 149.461C68.1852 148.527 67.7239 147.379 67.7239 146.02ZM78.3572 137.789H80.1235V142.706C80.7669 141.71 81.7502 141.213 83.0734 141.213C84.1174 141.213 84.9733 141.559 85.641 142.25C86.3086 142.942 86.6425 143.883 86.6425 145.073V150.645H84.8762V145.146C84.8762 144.417 84.6698 143.853 84.257 143.452C83.8443 143.04 83.3284 142.833 82.7092 142.833C81.8352 142.833 81.1857 143.131 80.7608 143.725C80.3359 144.308 80.1235 144.994 80.1235 145.783V150.645H78.3572V137.789ZM88.7781 148.205C88.7781 146.748 89.7736 145.826 91.7645 145.437L94.6416 144.873V144.691C94.6416 144.096 94.4534 143.628 94.0771 143.288C93.7007 142.948 93.1727 142.779 92.4928 142.779C91.4731 142.779 90.6173 143.173 89.9253 143.962L89.0148 142.797C89.9253 141.741 91.1393 141.213 92.6567 141.213C93.81 141.213 94.7205 141.534 95.3881 142.178C96.068 142.809 96.4079 143.671 96.4079 144.763V150.645H94.769V149.225C94.1135 150.317 93.112 150.864 91.7645 150.864C90.9025 150.864 90.1863 150.615 89.6157 150.117C89.0573 149.607 88.7781 148.97 88.7781 148.205ZM90.508 148.096C90.508 148.472 90.6537 148.782 90.945 149.024C91.2364 149.255 91.6066 149.37 92.0558 149.37C92.7842 149.37 93.4094 149.115 93.9314 148.606C94.4534 148.084 94.7144 147.495 94.7144 146.839V146.257L92.074 146.766C91.5156 146.876 91.115 147.04 90.8722 147.258C90.6294 147.464 90.508 147.744 90.508 148.096ZM99.2518 150.645V141.431H100.982V142.815C101.564 141.747 102.56 141.213 103.968 141.213C105.036 141.213 105.898 141.559 106.554 142.25C107.209 142.93 107.537 143.871 107.537 145.073V150.645H105.771V145.146C105.771 144.417 105.564 143.853 105.152 143.452C104.739 143.04 104.223 142.833 103.604 142.833C103.155 142.833 102.754 142.93 102.402 143.125C102.05 143.319 101.777 143.574 101.583 143.889C101.388 144.205 101.243 144.539 101.146 144.891C101.061 145.243 101.018 145.601 101.018 145.965V150.645H99.2518ZM114.098 150.864C112.859 150.864 111.821 150.408 110.984 149.498C110.146 148.587 109.727 147.434 109.727 146.038C109.727 144.642 110.146 143.489 110.984 142.578C111.821 141.668 112.859 141.213 114.098 141.213C114.717 141.213 115.312 141.358 115.882 141.65C116.453 141.929 116.872 142.281 117.139 142.706V137.789H118.905V150.645H117.211V149.279C116.957 149.728 116.532 150.105 115.937 150.408C115.342 150.712 114.729 150.864 114.098 150.864ZM116.41 143.744C115.852 143.137 115.178 142.833 114.389 142.833C113.6 142.833 112.92 143.137 112.35 143.744C111.791 144.338 111.512 145.103 111.512 146.038C111.512 146.973 111.791 147.744 112.35 148.351C112.92 148.945 113.6 149.243 114.389 149.243C115.178 149.243 115.852 148.945 116.41 148.351C116.969 147.744 117.248 146.973 117.248 146.038C117.248 145.103 116.969 144.338 116.41 143.744ZM121.925 141.431H123.691V150.645H121.925V141.431ZM122.034 139.483C121.815 139.252 121.706 138.985 121.706 138.681C121.706 138.378 121.815 138.117 122.034 137.898C122.252 137.68 122.513 137.571 122.817 137.571C123.12 137.571 123.381 137.68 123.6 137.898C123.819 138.117 123.928 138.378 123.928 138.681C123.928 138.985 123.819 139.252 123.6 139.483C123.381 139.701 123.12 139.81 122.817 139.81C122.513 139.81 122.252 139.701 122.034 139.483ZM125.852 148.824L127.145 147.895C127.764 148.83 128.535 149.298 129.458 149.298C129.98 149.298 130.393 149.206 130.696 149.024C131 148.83 131.151 148.575 131.151 148.26C131.151 147.92 131.012 147.647 130.733 147.44C130.465 147.234 129.919 146.997 129.094 146.73C128.098 146.414 127.37 146.044 126.909 145.619C126.447 145.182 126.217 144.599 126.217 143.871C126.217 143.155 126.532 142.536 127.163 142.014C127.795 141.48 128.578 141.213 129.513 141.213C130.969 141.213 132.031 141.807 132.699 142.997L131.425 143.944C130.915 143.155 130.253 142.76 129.44 142.76C128.991 142.76 128.626 142.864 128.347 143.07C128.08 143.264 127.947 143.519 127.947 143.835C127.947 144.126 128.08 144.375 128.347 144.581C128.614 144.776 129.112 144.994 129.84 145.237C130.921 145.601 131.698 146.002 132.171 146.439C132.645 146.876 132.881 147.471 132.881 148.223C132.881 148.988 132.56 149.619 131.916 150.117C131.273 150.615 130.459 150.864 129.476 150.864C128.687 150.864 127.965 150.681 127.309 150.317C126.654 149.953 126.168 149.455 125.852 148.824ZM135.846 149.498C134.936 148.575 134.48 147.428 134.48 146.056C134.48 144.684 134.911 143.537 135.773 142.615C136.647 141.68 137.77 141.213 139.142 141.213C140.429 141.213 141.461 141.625 142.238 142.451C143.015 143.264 143.403 144.278 143.403 145.492C143.403 145.832 143.373 146.165 143.312 146.493H136.338C136.423 147.343 136.757 148.017 137.339 148.515C137.922 149 138.626 149.243 139.452 149.243C140.471 149.243 141.339 148.854 142.056 148.077L143.13 149.316C142.11 150.348 140.872 150.864 139.415 150.864C137.958 150.864 136.769 150.408 135.846 149.498ZM139.16 142.797C138.444 142.797 137.837 142.997 137.339 143.398C136.842 143.798 136.526 144.351 136.392 145.055H141.673V145.037C141.612 144.357 141.345 143.816 140.872 143.416C140.411 143.003 139.84 142.797 139.16 142.797Z" fill="white"/>
</svg>
