<svg width="239" height="212" viewBox="0 0 239 212" fill="none" xmlns="http://www.w3.org/2000/svg">
<path d="M231.906 212H6.969C5.12088 212 3.34844 211.266 2.04153 209.959C0.734614 208.652 0.000265192 206.88 0 205.032L0 6.968C0.000265192 5.11988 0.734614 3.34754 2.04153 2.04082C3.34844 0.734094 5.12088 -1.90265e-08 6.969 0L231.906 0C233.754 0 235.526 0.734126 236.833 2.04088C238.14 3.34763 238.874 5.11997 238.874 6.968V205.032C238.874 206.88 238.14 208.652 236.833 209.959C235.526 211.266 233.754 212 231.906 212Z" fill="#FF5F6B"/>
<path d="M134.18 72.611C134.182 74.2094 133.87 75.7926 133.26 77.2703C132.651 78.7479 131.756 80.091 130.627 81.2228C129.499 82.3547 128.158 83.2532 126.682 83.867C125.206 84.4807 123.624 84.7978 122.026 84.8H122.009C120.095 84.7996 118.209 84.3481 116.503 83.482C114.796 82.616 113.318 81.3598 112.189 79.8155C111.059 78.2713 110.309 76.4824 110 74.594C109.691 72.7056 109.832 70.7711 110.411 68.9473C110.989 67.1234 111.99 65.4618 113.331 64.0972C114.673 62.7326 116.317 61.7034 118.13 61.0933C119.944 60.4832 121.876 60.3093 123.769 60.5856C125.663 60.862 127.464 61.5809 129.028 62.684" stroke="white" stroke-width="3" stroke-miterlimit="10"/>
<path d="M147.219 66.751C145.74 69.1315 145.128 71.9496 145.487 74.729C145.916 77.7015 147.411 80.4168 149.693 82.3691C151.975 84.3214 154.889 85.3776 157.892 85.341C160.233 85.3564 162.524 84.6671 164.468 83.3627C166.412 82.0583 167.919 80.1991 168.792 78.027C169.582 76.1671 169.9 74.1404 169.716 72.1279C169.533 70.1154 168.854 68.1796 167.74 66.4934C166.626 64.8072 165.112 63.4231 163.333 62.4645C161.554 61.506 159.565 61.0028 157.544 61H140.966C139.167 61 137.442 61.7145 136.17 62.9864C134.898 64.2583 134.184 65.9833 134.184 67.782L134.177 90.12C134.179 93.348 132.899 96.4446 130.618 98.7287C128.337 101.013 125.242 102.297 122.014 102.299C118.787 102.302 115.69 101.022 113.406 98.7407C111.122 96.4598 109.837 93.365 109.835 90.137" stroke="white" stroke-width="3" stroke-miterlimit="10"/>
<path d="M85.485 78.7872C84.6763 77.4084 84.1472 75.8837 83.9278 74.3003C83.7085 72.717 83.8031 71.1059 84.2063 69.5591C85.0207 66.4352 87.0427 63.7628 89.8275 62.1297C92.6122 60.4967 95.9317 60.0367 99.0556 60.8511C102.179 61.6655 104.852 63.6875 106.485 66.4722L106.493 66.4872C107.588 68.3604 108.163 70.4924 108.157 72.6623C108.152 74.8322 107.566 76.9612 106.462 78.8288C105.357 80.6965 103.773 82.2349 101.874 83.2848C99.9752 84.3347 97.8301 84.8579 95.6609 84.8002H79.489C76.4807 84.796 73.597 83.5984 71.4708 81.4703C69.3446 79.3422 68.1495 76.4575 68.1479 73.4492V47.7822" stroke="white" stroke-width="3" stroke-miterlimit="10"/>
<path d="M46.8124 147V130.056H49.1884V144.84H56.6524V147H46.8124ZM68.6679 145.464C67.4679 146.68 65.9719 147.288 64.1799 147.288C62.3879 147.288 60.8919 146.68 59.6919 145.464C58.4919 144.232 57.8919 142.72 57.8919 140.928C57.8919 139.136 58.4919 137.632 59.6919 136.416C60.8919 135.184 62.3879 134.568 64.1799 134.568C65.9719 134.568 67.4679 135.184 68.6679 136.416C69.8679 137.632 70.4679 139.136 70.4679 140.928C70.4679 142.72 69.8679 144.232 68.6679 145.464ZM61.3719 138C60.6359 138.8 60.2679 139.776 60.2679 140.928C60.2679 142.08 60.6359 143.064 61.3719 143.88C62.1079 144.68 63.0439 145.08 64.1799 145.08C65.3159 145.08 66.2519 144.68 66.9879 143.88C67.7239 143.064 68.0919 142.08 68.0919 140.928C68.0919 139.776 67.7239 138.8 66.9879 138C66.2519 137.184 65.3159 136.776 64.1799 136.776C63.0439 136.776 62.1079 137.184 61.3719 138ZM72.3473 148.704C72.3473 147.616 73.0273 146.736 74.3873 146.064C73.8593 145.68 73.5953 145.136 73.5953 144.432C73.5953 143.744 73.9553 143.136 74.6753 142.608C74.0673 142.208 73.5793 141.696 73.2113 141.072C72.8593 140.432 72.6833 139.744 72.6833 139.008C72.6833 137.776 73.1473 136.728 74.0753 135.864C75.0193 135 76.1713 134.568 77.5312 134.568C78.1393 134.568 78.7233 134.664 79.2833 134.856H83.7473V136.8H81.7553C82.1713 137.456 82.3793 138.192 82.3793 139.008C82.3793 140.24 81.9073 141.288 80.9633 142.152C80.0353 143.016 78.8913 143.448 77.5312 143.448C77.1153 143.448 76.6993 143.4 76.2833 143.304C75.9633 143.544 75.8033 143.816 75.8033 144.12C75.8033 144.376 75.8993 144.584 76.0913 144.744C76.2833 144.904 76.5073 144.984 76.7633 144.984H79.8353C81.0513 144.984 82.0273 145.304 82.7633 145.944C83.4993 146.568 83.8672 147.376 83.8672 148.368C83.8672 149.44 83.3073 150.328 82.1873 151.032C81.0833 151.736 79.6273 152.088 77.8193 152.088C76.1233 152.088 74.7873 151.784 73.8113 151.176C72.8353 150.584 72.3473 149.76 72.3473 148.704ZM79.3553 137.328C78.8593 136.848 78.2513 136.608 77.5312 136.608C76.8113 136.608 76.1953 136.848 75.6833 137.328C75.1873 137.792 74.9393 138.352 74.9393 139.008C74.9393 139.664 75.1873 140.232 75.6833 140.712C76.1953 141.176 76.8113 141.408 77.5312 141.408C78.2513 141.408 78.8593 141.176 79.3553 140.712C79.8673 140.232 80.1233 139.664 80.1233 139.008C80.1233 138.352 79.8673 137.792 79.3553 137.328ZM74.6753 148.488C74.6753 148.952 74.9713 149.32 75.5633 149.592C76.1553 149.864 76.9233 150 77.8672 150C79.0513 150 79.9633 149.856 80.6033 149.568C81.2593 149.28 81.5873 148.896 81.5873 148.416C81.5873 147.984 81.4033 147.648 81.0353 147.408C80.6673 147.168 80.2033 147.048 79.6433 147.048H76.0913C75.7393 147.144 75.4113 147.312 75.1073 147.552C74.8193 147.792 74.6753 148.104 74.6753 148.488ZM96.1133 145.464C94.9133 146.68 93.4173 147.288 91.6253 147.288C89.8333 147.288 88.3373 146.68 87.1373 145.464C85.9373 144.232 85.3373 142.72 85.3373 140.928C85.3373 139.136 85.9373 137.632 87.1373 136.416C88.3373 135.184 89.8333 134.568 91.6253 134.568C93.4173 134.568 94.9133 135.184 96.1133 136.416C97.3133 137.632 97.9133 139.136 97.9133 140.928C97.9133 142.72 97.3133 144.232 96.1133 145.464ZM88.8173 138C88.0813 138.8 87.7133 139.776 87.7133 140.928C87.7133 142.08 88.0813 143.064 88.8173 143.88C89.5533 144.68 90.4893 145.08 91.6253 145.08C92.7613 145.08 93.6973 144.68 94.4333 143.88C95.1693 143.064 95.5373 142.08 95.5373 140.928C95.5373 139.776 95.1693 138.8 94.4333 138C93.6973 137.184 92.7613 136.776 91.6253 136.776C90.4893 136.776 89.5533 137.184 88.8173 138ZM111.939 147.288C110.291 147.288 108.875 146.864 107.691 146.016C106.507 145.152 105.915 144.016 105.915 142.608C105.915 141.648 106.219 140.8 106.827 140.064C107.451 139.312 108.379 138.568 109.611 137.832C108.923 137.08 108.419 136.408 108.099 135.816C107.779 135.224 107.619 134.576 107.619 133.872C107.619 132.784 108.035 131.832 108.867 131.016C109.715 130.184 110.803 129.768 112.131 129.768C113.443 129.768 114.515 130.176 115.347 130.992C116.195 131.792 116.619 132.728 116.619 133.8C116.619 134.648 116.339 135.4 115.779 136.056C115.219 136.696 114.283 137.416 112.971 138.216L116.715 142.224C117.451 140.896 117.731 139.44 117.555 137.856H119.859C120.099 140.144 119.603 142.184 118.371 143.976L121.203 147H118.203L116.883 145.584C115.459 146.72 113.811 147.288 111.939 147.288ZM108.363 142.512C108.347 143.312 108.707 143.936 109.443 144.384C110.195 144.816 111.043 145.032 111.987 145.032C113.235 145.032 114.339 144.656 115.299 143.904L111.075 139.416C110.179 139.944 109.507 140.44 109.059 140.904C108.611 141.368 108.379 141.904 108.363 142.512ZM112.131 131.88C111.475 131.88 110.931 132.072 110.499 132.456C110.083 132.84 109.875 133.304 109.875 133.848C109.875 134.344 109.995 134.784 110.235 135.168C110.491 135.552 110.915 136.048 111.507 136.656C112.547 136.048 113.283 135.544 113.715 135.144C114.147 134.744 114.363 134.304 114.363 133.824C114.363 133.296 114.147 132.84 113.715 132.456C113.299 132.072 112.771 131.88 112.131 131.88ZM128.812 130.056H131.14V136.536C131.492 135.976 132.044 135.512 132.796 135.144C133.548 134.76 134.332 134.568 135.148 134.568C136.78 134.568 138.148 135.168 139.252 136.368C140.356 137.568 140.908 139.088 140.908 140.928C140.908 142.768 140.356 144.288 139.252 145.488C138.148 146.688 136.78 147.288 135.148 147.288C134.316 147.288 133.508 147.088 132.724 146.688C131.94 146.288 131.38 145.792 131.044 145.2V147H128.812V130.056ZM137.428 137.904C136.692 137.104 135.804 136.704 134.764 136.704C133.724 136.704 132.836 137.104 132.1 137.904C131.364 138.688 130.996 139.696 130.996 140.928C130.996 142.16 131.364 143.176 132.1 143.976C132.836 144.76 133.724 145.152 134.764 145.152C135.804 145.152 136.692 144.76 137.428 143.976C138.18 143.176 138.556 142.16 138.556 140.928C138.556 139.696 138.18 138.688 137.428 137.904ZM143.976 134.856H146.256V136.992C146.56 136.24 147.016 135.648 147.624 135.216C148.232 134.784 148.936 134.568 149.736 134.568C150.04 134.568 150.288 134.6 150.48 134.664V136.944C150.352 136.912 150.192 136.896 150 136.896C148.88 136.896 147.984 137.272 147.312 138.024C146.64 138.76 146.304 139.744 146.304 140.976V147H143.976V134.856ZM151.828 143.784C151.828 141.864 153.14 140.648 155.764 140.136L159.556 139.392V139.152C159.556 138.368 159.308 137.752 158.812 137.304C158.316 136.856 157.62 136.632 156.724 136.632C155.38 136.632 154.252 137.152 153.34 138.192L152.14 136.656C153.34 135.264 154.94 134.568 156.94 134.568C158.46 134.568 159.66 134.992 160.54 135.84C161.436 136.672 161.884 137.808 161.884 139.248V147H159.724V145.128C158.86 146.568 157.54 147.288 155.764 147.288C154.628 147.288 153.684 146.96 152.932 146.304C152.196 145.632 151.828 144.792 151.828 143.784ZM154.108 143.64C154.108 144.136 154.3 144.544 154.684 144.864C155.068 145.168 155.556 145.32 156.148 145.32C157.108 145.32 157.932 144.984 158.62 144.312C159.308 143.624 159.652 142.848 159.652 141.984V141.216L156.172 141.888C155.436 142.032 154.908 142.248 154.588 142.536C154.268 142.808 154.108 143.176 154.108 143.64ZM165.633 147V134.856H167.913V136.68C168.681 135.272 169.993 134.568 171.849 134.568C173.257 134.568 174.393 135.024 175.257 135.936C176.121 136.832 176.553 138.072 176.553 139.656V147H174.225V139.752C174.225 138.792 173.953 138.048 173.409 137.52C172.865 136.976 172.185 136.704 171.369 136.704C170.777 136.704 170.249 136.832 169.785 137.088C169.321 137.344 168.961 137.68 168.705 138.096C168.449 138.512 168.257 138.952 168.129 139.416C168.017 139.88 167.961 140.352 167.961 140.832V147H165.633ZM185.199 147.288C183.567 147.288 182.199 146.688 181.095 145.488C179.991 144.288 179.439 142.768 179.439 140.928C179.439 139.088 179.991 137.568 181.095 136.368C182.199 135.168 183.567 134.568 185.199 134.568C186.015 134.568 186.799 134.76 187.551 135.144C188.303 135.512 188.855 135.976 189.207 136.536V130.056H191.535V147H189.303V145.2C188.967 145.792 188.407 146.288 187.623 146.688C186.839 147.088 186.031 147.288 185.199 147.288ZM188.247 137.904C187.511 137.104 186.623 136.704 185.583 136.704C184.543 136.704 183.647 137.104 182.895 137.904C182.159 138.688 181.791 139.696 181.791 140.928C181.791 142.16 182.159 143.176 182.895 143.976C183.647 144.76 184.543 145.152 185.583 145.152C186.623 145.152 187.511 144.76 188.247 143.976C188.983 143.176 189.351 142.16 189.351 140.928C189.351 139.696 188.983 138.688 188.247 137.904ZM77.7537 168.856H80.0817V181H77.7537V168.856ZM77.8977 166.288C77.6097 165.984 77.4657 165.632 77.4657 165.232C77.4657 164.832 77.6097 164.488 77.8977 164.2C78.1857 163.912 78.5297 163.768 78.9297 163.768C79.3297 163.768 79.6737 163.912 79.9617 164.2C80.2497 164.488 80.3937 164.832 80.3937 165.232C80.3937 165.632 80.2497 165.984 79.9617 166.288C79.6737 166.576 79.3297 166.72 78.9297 166.72C78.5297 166.72 78.1857 166.576 77.8977 166.288ZM88.9064 181.288C87.2744 181.288 85.9064 180.688 84.8024 179.488C83.6984 178.288 83.1464 176.768 83.1464 174.928C83.1464 173.088 83.6984 171.568 84.8024 170.368C85.9064 169.168 87.2744 168.568 88.9064 168.568C89.7224 168.568 90.5064 168.76 91.2584 169.144C92.0104 169.512 92.5624 169.976 92.9144 170.536V164.056H95.2424V181H93.0104V179.2C92.6744 179.792 92.1144 180.288 91.3304 180.688C90.5464 181.088 89.7384 181.288 88.9064 181.288ZM91.9544 171.904C91.2184 171.104 90.3304 170.704 89.2904 170.704C88.2504 170.704 87.3544 171.104 86.6024 171.904C85.8664 172.688 85.4984 173.696 85.4984 174.928C85.4984 176.16 85.8664 177.176 86.6024 177.976C87.3544 178.76 88.2504 179.152 89.2904 179.152C90.3304 179.152 91.2184 178.76 91.9544 177.976C92.6904 177.176 93.0584 176.16 93.0584 174.928C93.0584 173.696 92.6904 172.688 91.9544 171.904ZM100.086 179.488C98.8865 178.272 98.2865 176.76 98.2865 174.952C98.2865 173.144 98.8545 171.632 99.9905 170.416C101.142 169.184 102.622 168.568 104.43 168.568C106.126 168.568 107.486 169.112 108.51 170.2C109.534 171.272 110.046 172.608 110.046 174.208C110.046 174.656 110.006 175.096 109.926 175.528H100.734C100.846 176.648 101.286 177.536 102.054 178.192C102.822 178.832 103.75 179.152 104.838 179.152C106.182 179.152 107.326 178.64 108.27 177.616L109.686 179.248C108.342 180.608 106.71 181.288 104.79 181.288C102.87 181.288 101.302 180.688 100.086 179.488ZM104.454 170.656C103.51 170.656 102.71 170.92 102.054 171.448C101.398 171.976 100.982 172.704 100.806 173.632H107.766V173.608C107.686 172.712 107.334 172 106.71 171.472C106.102 170.928 105.35 170.656 104.454 170.656ZM113.074 181V168.856H115.354V170.68C116.122 169.272 117.434 168.568 119.29 168.568C120.698 168.568 121.834 169.024 122.698 169.936C123.562 170.832 123.994 172.072 123.994 173.656V181H121.666V173.752C121.666 172.792 121.394 172.048 120.85 171.52C120.306 170.976 119.626 170.704 118.81 170.704C118.218 170.704 117.69 170.832 117.226 171.088C116.762 171.344 116.402 171.68 116.146 172.096C115.89 172.512 115.698 172.952 115.57 173.416C115.458 173.88 115.402 174.352 115.402 174.832V181H113.074ZM126.309 168.856H128.205V165.52H130.461V168.856H133.581V170.8H130.461V177.136C130.461 178.464 131.117 179.128 132.429 179.128C132.957 179.128 133.437 179 133.869 178.744V180.88C133.405 181.152 132.757 181.288 131.925 181.288C130.741 181.288 129.813 180.952 129.141 180.28C128.469 179.592 128.133 178.64 128.133 177.424V170.8H126.309V168.856ZM136.488 168.856H138.816V181H136.488V168.856ZM136.632 166.288C136.344 165.984 136.2 165.632 136.2 165.232C136.2 164.832 136.344 164.488 136.632 164.2C136.92 163.912 137.264 163.768 137.664 163.768C138.064 163.768 138.408 163.912 138.696 164.2C138.984 164.488 139.128 164.832 139.128 165.232C139.128 165.632 138.984 165.984 138.696 166.288C138.408 166.576 138.064 166.72 137.664 166.72C137.264 166.72 136.92 166.576 136.632 166.288ZM141.497 168.856H143.393V165.52H145.649V168.856H148.769V170.8H145.649V177.136C145.649 178.464 146.305 179.128 147.617 179.128C148.145 179.128 148.625 179 149.057 178.744V180.88C148.593 181.152 147.945 181.288 147.113 181.288C145.929 181.288 145.001 180.952 144.329 180.28C143.657 179.592 143.321 178.64 143.321 177.424V170.8H141.497V168.856ZM154.94 180.832L149.9 168.856H152.516L156.044 178.048L159.476 168.856H161.996L156.356 182.992C155.956 184.016 155.468 184.784 154.892 185.296C154.316 185.824 153.508 186.088 152.468 186.088C151.78 186.088 151.196 185.984 150.716 185.776V183.688C151.148 183.96 151.66 184.096 152.252 184.096C152.78 184.096 153.212 183.944 153.548 183.64C153.884 183.336 154.18 182.848 154.436 182.176L154.94 180.832Z" fill="white"/>
</svg>
