<svg width="178" height="178" viewBox="0 0 178 178" fill="none" xmlns="http://www.w3.org/2000/svg">
<rect width="177.032" height="177.032" rx="31.6129" fill="#4747C7"/>
<path d="M108.866 56.3956V72.6859L126.368 63.9308V41.7475C126.368 41.7424 105.37 50.2745 105.37 50.2745L84.3643 41.7424L105.367 33.7427L118.825 38.7132" stroke="white" stroke-width="2.37097" stroke-linecap="round" stroke-linejoin="round"/>
<path d="M68.0859 59.5695V76.0489C68.0859 76.3783 67.9551 76.6942 67.7221 76.9271C67.4892 77.1601 67.1733 77.2909 66.8439 77.2909H52.1035C51.7741 77.2909 51.4582 77.1601 51.2253 76.9271C50.9923 76.6942 50.8615 76.3783 50.8615 76.0489V54.4077C50.8615 54.0782 50.9923 53.7623 51.2253 53.5294C51.4582 53.2964 51.7741 53.1656 52.1035 53.1656H75.4624C75.3655 51.0279 74.8243 48.9339 73.8733 47.0169C72.9222 45.1 71.5823 43.4022 69.9387 42.0319C68.8495 41.0837 67.9767 39.9127 67.3792 38.5981C66.7817 37.2834 66.4734 35.8558 66.4754 34.4118V33.9945C66.4619 32.566 66.7446 31.1501 67.3058 29.8363C67.8669 28.5224 68.6943 27.3392 69.7357 26.3611C69.9445 26.1999 70.1178 25.9973 70.2449 25.766C70.3719 25.5348 70.45 25.2799 70.4741 25.0171C70.4513 24.2389 70.1244 23.5006 69.5635 22.9606C69.0025 22.4207 68.2523 22.1221 67.4738 22.129H51.3592C50.971 22.1312 50.5872 22.2111 50.2304 22.3641C49.8736 22.517 49.5511 22.7399 49.2818 23.0196C49.0126 23.2993 48.8022 23.6301 48.6629 23.9924C48.5237 24.3548 48.4584 24.7414 48.4711 25.1294C48.4977 25.3786 48.5761 25.6195 48.7012 25.8367C48.8264 26.0539 48.9955 26.2426 49.1977 26.3907C50.2373 27.3319 51.0664 28.4821 51.6307 29.766C52.1949 31.0499 52.4816 32.4385 52.472 33.8409V34.4095C52.4748 35.8541 52.1666 37.2824 51.5685 38.5973C50.9704 39.9123 50.0964 41.0831 49.0057 42.0304C47.2657 43.5309 45.8702 45.3893 44.9143 47.4786C43.9585 49.568 43.4649 51.839 43.4673 54.1367V78.1424C43.4683 80.2645 44.3117 82.2994 45.8123 83.8C47.3129 85.3006 49.3478 86.144 51.4699 86.145H67.476C69.5981 86.1448 71.6332 85.3017 73.1337 83.8011C74.6342 82.3004 75.4771 80.2652 75.4771 78.1431L75.8235 67.4702L103.013 81.0984C103.74 81.4655 104.543 81.6567 105.358 81.6567C106.172 81.6567 106.975 81.4655 107.703 81.0984L130.453 69.7181C131.325 69.2838 132.059 68.6148 132.572 67.7863C133.085 66.9578 133.357 66.0026 133.357 65.0281V40.408C133.357 39.3404 133.031 38.2981 132.423 37.4203C131.816 36.5425 130.955 35.8709 129.955 35.4951L107.199 26.9615C106.015 26.505 104.705 26.5008 103.518 26.9497L77.7664 36.701" stroke="white" stroke-width="2.37097" stroke-linejoin="round"/>
<path d="M45.5458 114.789H50.0072C51.2211 114.789 52.1923 115.099 52.9207 115.718C53.6491 116.325 54.0132 117.15 54.0132 118.194C54.0132 118.874 53.8433 119.481 53.5034 120.015C53.1635 120.537 52.7629 120.901 52.3016 121.108C52.8478 121.278 53.3334 121.624 53.7583 122.146C54.1832 122.668 54.3956 123.317 54.3956 124.094C54.3956 125.175 54.0072 126.037 53.2302 126.68C52.4654 127.323 51.4579 127.645 50.2075 127.645H45.5458V114.789ZM50.0254 121.927H47.3486V125.988H50.2439C50.9116 125.988 51.4518 125.794 51.8645 125.405C52.2894 125.005 52.5019 124.513 52.5019 123.93C52.5019 123.36 52.2651 122.886 51.7917 122.51C51.3304 122.121 50.7416 121.927 50.0254 121.927ZM47.3486 120.416H50.0254C50.7052 120.416 51.2272 120.222 51.5914 119.833C51.9556 119.433 52.1377 118.935 52.1377 118.34C52.1377 117.794 51.9434 117.338 51.555 116.974C51.1665 116.61 50.6384 116.428 49.9707 116.428H47.3486V120.416ZM60.3086 127.864C59.2403 127.864 58.3784 127.524 57.7229 126.844C57.0673 126.152 56.7395 125.205 56.7395 124.003V118.431H58.5059V123.93C58.5059 124.659 58.7122 125.229 59.125 125.642C59.5377 126.043 60.0537 126.243 60.6728 126.243C61.122 126.243 61.5226 126.146 61.8746 125.952C62.2267 125.757 62.4998 125.502 62.694 125.187C62.8883 124.871 63.0279 124.537 63.1129 124.185C63.21 123.833 63.2585 123.475 63.2585 123.111V118.431H65.0248V127.645H63.2949V126.261C62.7122 127.329 61.7168 127.864 60.3086 127.864ZM67.1969 125.824L68.4898 124.895C69.1089 125.83 69.8798 126.298 70.8024 126.298C71.3244 126.298 71.7371 126.206 72.0406 126.024C72.3441 125.83 72.4958 125.575 72.4958 125.26C72.4958 124.92 72.3562 124.647 72.077 124.44C71.81 124.234 71.2637 123.997 70.4382 123.73C69.4427 123.414 68.7143 123.044 68.253 122.619C67.7917 122.182 67.5611 121.599 67.5611 120.871C67.5611 120.155 67.8767 119.536 68.508 119.014C69.1392 118.48 69.9222 118.213 70.857 118.213C72.3137 118.213 73.376 118.807 74.0436 119.997L72.769 120.944C72.2591 120.155 71.5975 119.76 70.7842 119.76C70.335 119.76 69.9708 119.864 69.6916 120.07C69.4245 120.264 69.291 120.519 69.291 120.835C69.291 121.126 69.4245 121.375 69.6916 121.581C69.9587 121.776 70.4564 121.994 71.1848 122.237C72.2652 122.601 73.0421 123.002 73.5156 123.439C73.989 123.876 74.2257 124.471 74.2257 125.223C74.2257 125.988 73.904 126.619 73.2606 127.117C72.6172 127.615 71.8039 127.864 70.8206 127.864C70.0315 127.864 69.3092 127.681 68.6536 127.317C67.9981 126.953 67.5125 126.455 67.1969 125.824ZM76.5351 118.431H78.3014V127.645H76.5351V118.431ZM76.6443 116.483C76.4258 116.252 76.3166 115.985 76.3166 115.681C76.3166 115.378 76.4258 115.117 76.6443 114.898C76.8628 114.68 77.1238 114.571 77.4273 114.571C77.7308 114.571 77.9918 114.68 78.2103 114.898C78.4288 115.117 78.5381 115.378 78.5381 115.681C78.5381 115.985 78.4288 116.252 78.2103 116.483C77.9918 116.701 77.7308 116.81 77.4273 116.81C77.1238 116.81 76.8628 116.701 76.6443 116.483ZM81.3186 127.645V118.431H83.0485V119.815C83.6312 118.747 84.6267 118.213 86.0349 118.213C87.1031 118.213 87.9651 118.559 88.6206 119.25C89.2761 119.93 89.6039 120.871 89.6039 122.073V127.645H87.8376V122.146C87.8376 121.417 87.6312 120.853 87.2185 120.452C86.8057 120.04 86.2898 119.833 85.6707 119.833C85.2215 119.833 84.8209 119.93 84.4688 120.125C84.1168 120.319 83.8437 120.574 83.6494 120.889C83.4552 121.205 83.3095 121.539 83.2124 121.891C83.1274 122.243 83.0849 122.601 83.0849 122.965V127.645H81.3186ZM93.1417 126.498C92.2312 125.575 91.776 124.428 91.776 123.056C91.776 121.684 92.2069 120.537 93.0688 119.615C93.9429 118.68 95.0658 118.213 96.4376 118.213C97.7244 118.213 98.7562 118.625 99.5332 119.451C100.31 120.264 100.699 121.278 100.699 122.492C100.699 122.832 100.668 123.165 100.608 123.493H93.6333C93.7183 124.343 94.0521 125.017 94.6348 125.515C95.2175 126 95.9216 126.243 96.7471 126.243C97.7669 126.243 98.6349 125.854 99.3511 125.077L100.425 126.316C99.4057 127.348 98.1675 127.864 96.7107 127.864C95.254 127.864 94.0643 127.408 93.1417 126.498ZM96.4558 119.797C95.7395 119.797 95.1326 119.997 94.6348 120.398C94.1371 120.798 93.8215 121.351 93.6879 122.055H98.9687V122.037C98.908 121.357 98.6409 120.816 98.1675 120.416C97.7062 120.003 97.1356 119.797 96.4558 119.797ZM102.14 125.824L103.433 124.895C104.052 125.83 104.823 126.298 105.745 126.298C106.267 126.298 106.68 126.206 106.984 126.024C107.287 125.83 107.439 125.575 107.439 125.26C107.439 124.92 107.299 124.647 107.02 124.44C106.753 124.234 106.207 123.997 105.381 123.73C104.386 123.414 103.657 123.044 103.196 122.619C102.735 122.182 102.504 121.599 102.504 120.871C102.504 120.155 102.82 119.536 103.451 119.014C104.082 118.48 104.865 118.213 105.8 118.213C107.257 118.213 108.319 118.807 108.987 119.997L107.712 120.944C107.202 120.155 106.54 119.76 105.727 119.76C105.278 119.76 104.914 119.864 104.635 120.07C104.367 120.264 104.234 120.519 104.234 120.835C104.234 121.126 104.367 121.375 104.635 121.581C104.902 121.776 105.399 121.994 106.128 122.237C107.208 122.601 107.985 123.002 108.459 123.439C108.932 123.876 109.169 124.471 109.169 125.223C109.169 125.988 108.847 126.619 108.204 127.117C107.56 127.615 106.747 127.864 105.764 127.864C104.974 127.864 104.252 127.681 103.597 127.317C102.941 126.953 102.455 126.455 102.14 125.824ZM110.622 125.824L111.915 124.895C112.534 125.83 113.305 126.298 114.228 126.298C114.75 126.298 115.162 126.206 115.466 126.024C115.769 125.83 115.921 125.575 115.921 125.26C115.921 124.92 115.782 124.647 115.502 124.44C115.235 124.234 114.689 123.997 113.863 123.73C112.868 123.414 112.14 123.044 111.678 122.619C111.217 122.182 110.986 121.599 110.986 120.871C110.986 120.155 111.302 119.536 111.933 119.014C112.565 118.48 113.348 118.213 114.282 118.213C115.739 118.213 116.801 118.807 117.469 119.997L116.194 120.944C115.684 120.155 115.023 119.76 114.209 119.76C113.76 119.76 113.396 119.864 113.117 120.07C112.85 120.264 112.716 120.519 112.716 120.835C112.716 121.126 112.85 121.375 113.117 121.581C113.384 121.776 113.882 121.994 114.61 122.237C115.69 122.601 116.467 123.002 116.941 123.439C117.414 123.876 117.651 124.471 117.651 125.223C117.651 125.988 117.329 126.619 116.686 127.117C116.043 127.615 115.229 127.864 114.246 127.864C113.457 127.864 112.734 127.681 112.079 127.317C111.423 126.953 110.938 126.455 110.622 125.824ZM128.284 127.864C127.033 127.864 125.959 127.542 125.061 126.898C124.162 126.243 123.713 125.381 123.713 124.313C123.713 123.584 123.944 122.941 124.405 122.382C124.879 121.812 125.583 121.247 126.517 120.689C125.995 120.118 125.613 119.609 125.37 119.159C125.127 118.71 125.006 118.219 125.006 117.684C125.006 116.859 125.322 116.137 125.953 115.518C126.596 114.886 127.422 114.571 128.429 114.571C129.425 114.571 130.238 114.88 130.87 115.499C131.513 116.106 131.835 116.816 131.835 117.63C131.835 118.273 131.622 118.844 131.197 119.342C130.772 119.827 130.062 120.373 129.067 120.98L131.907 124.021C132.466 123.014 132.678 121.909 132.545 120.707H134.293C134.475 122.443 134.099 123.991 133.164 125.351L135.313 127.645H133.036L132.035 126.571C130.955 127.433 129.704 127.864 128.284 127.864ZM125.571 124.24C125.558 124.847 125.832 125.32 126.39 125.66C126.961 125.988 127.604 126.152 128.32 126.152C129.267 126.152 130.105 125.867 130.833 125.296L127.628 121.891C126.948 122.291 126.439 122.668 126.099 123.02C125.759 123.372 125.583 123.779 125.571 124.24ZM128.429 116.173C127.932 116.173 127.519 116.319 127.191 116.61C126.876 116.901 126.718 117.253 126.718 117.666C126.718 118.043 126.809 118.376 126.991 118.668C127.185 118.959 127.507 119.335 127.956 119.797C128.745 119.335 129.304 118.953 129.631 118.65C129.959 118.346 130.123 118.012 130.123 117.648C130.123 117.247 129.959 116.901 129.631 116.61C129.316 116.319 128.915 116.173 128.429 116.173ZM43.711 150.645L48.7004 137.789H50.5941L55.5835 150.645H53.7262L52.3787 147.149H46.9158L45.5683 150.645H43.711ZM47.4985 145.455H51.796L49.6472 139.756L47.4985 145.455ZM60.8836 150.864C59.6454 150.864 58.6074 150.408 57.7698 149.498C56.9322 148.587 56.5133 147.434 56.5133 146.038C56.5133 144.642 56.9322 143.489 57.7698 142.578C58.6074 141.668 59.6454 141.213 60.8836 141.213C61.5027 141.213 62.0976 141.358 62.6681 141.65C63.2387 141.929 63.6575 142.281 63.9246 142.706V137.789H65.6909V150.645H63.9974V149.279C63.7425 149.728 63.3176 150.105 62.7228 150.408C62.1279 150.712 61.5149 150.864 60.8836 150.864ZM63.1962 143.744C62.6378 143.137 61.964 142.833 61.175 142.833C60.3859 142.833 59.7061 143.137 59.1355 143.744C58.5771 144.338 58.2979 145.103 58.2979 146.038C58.2979 146.973 58.5771 147.744 59.1355 148.351C59.7061 148.945 60.3859 149.243 61.175 149.243C61.964 149.243 62.6378 148.945 63.1962 148.351C63.7546 147.744 64.0339 146.973 64.0339 146.038C64.0339 145.103 63.7546 144.338 63.1962 143.744ZM67.3814 141.431H69.2752L71.952 148.278L74.6288 141.431H76.5226L72.7532 150.645H71.1508L67.3814 141.431ZM78.7377 149.498C77.8272 148.575 77.372 147.428 77.372 146.056C77.372 144.684 77.8029 143.537 78.6649 142.615C79.5389 141.68 80.6618 141.213 82.0336 141.213C83.3204 141.213 84.3523 141.625 85.1292 142.451C85.9062 143.264 86.2946 144.278 86.2946 145.492C86.2946 145.832 86.2643 146.165 86.2036 146.493H79.2294C79.3143 147.343 79.6482 148.017 80.2309 148.515C80.8136 149 81.5177 149.243 82.3432 149.243C83.3629 149.243 84.2309 148.854 84.9471 148.077L86.0215 149.316C85.0018 150.348 83.7635 150.864 82.3068 150.864C80.85 150.864 79.6603 150.408 78.7377 149.498ZM82.0518 142.797C81.3356 142.797 80.7286 142.997 80.2309 143.398C79.7331 143.798 79.4175 144.351 79.284 145.055H84.5647V145.037C84.504 144.357 84.237 143.816 83.7635 143.416C83.3022 143.003 82.7316 142.797 82.0518 142.797ZM88.5917 141.431H90.3216V143.052C90.5523 142.481 90.8983 142.032 91.3596 141.704C91.8209 141.376 92.355 141.213 92.962 141.213C93.1926 141.213 93.3808 141.237 93.5265 141.285V143.015C93.4294 142.991 93.308 142.979 93.1623 142.979C92.3125 142.979 91.6327 143.264 91.1228 143.835C90.613 144.393 90.358 145.14 90.358 146.074V150.645H88.5917V141.431ZM94.4903 141.431H95.9288V138.9H97.6405V141.431H100.008V142.906H97.6405V147.713C97.6405 148.721 98.1383 149.225 99.1337 149.225C99.5343 149.225 99.8985 149.128 100.226 148.933V150.554C99.8742 150.76 99.3826 150.864 98.7513 150.864C97.853 150.864 97.1489 150.609 96.639 150.099C96.1292 149.577 95.8742 148.854 95.8742 147.932V142.906H94.4903V141.431ZM102.213 141.431H103.98V150.645H102.213V141.431ZM102.323 139.483C102.104 139.252 101.995 138.985 101.995 138.681C101.995 138.378 102.104 138.117 102.323 137.898C102.541 137.68 102.802 137.571 103.106 137.571C103.409 137.571 103.67 137.68 103.889 137.898C104.107 138.117 104.216 138.378 104.216 138.681C104.216 138.985 104.107 139.252 103.889 139.483C103.67 139.701 103.409 139.81 103.106 139.81C102.802 139.81 102.541 139.701 102.323 139.483ZM106.141 148.824L107.434 147.895C108.053 148.83 108.824 149.298 109.746 149.298C110.268 149.298 110.681 149.206 110.985 149.024C111.288 148.83 111.44 148.575 111.44 148.26C111.44 147.92 111.3 147.647 111.021 147.44C110.754 147.234 110.208 146.997 109.382 146.73C108.387 146.414 107.658 146.044 107.197 145.619C106.736 145.182 106.505 144.599 106.505 143.871C106.505 143.155 106.821 142.536 107.452 142.014C108.083 141.48 108.866 141.213 109.801 141.213C111.258 141.213 112.32 141.807 112.988 142.997L111.713 143.944C111.203 143.155 110.542 142.76 109.728 142.76C109.279 142.76 108.915 142.864 108.636 143.07C108.369 143.264 108.235 143.519 108.235 143.835C108.235 144.126 108.369 144.375 108.636 144.581C108.903 144.776 109.4 144.994 110.129 145.237C111.209 145.601 111.986 146.002 112.46 146.439C112.933 146.876 113.17 147.471 113.17 148.223C113.17 148.988 112.848 149.619 112.205 150.117C111.561 150.615 110.748 150.864 109.765 150.864C108.976 150.864 108.253 150.681 107.598 150.317C106.942 149.953 106.457 149.455 106.141 148.824ZM115.479 141.431H117.245V150.645H115.479V141.431ZM115.588 139.483C115.37 139.252 115.261 138.985 115.261 138.681C115.261 138.378 115.37 138.117 115.588 137.898C115.807 137.68 116.068 137.571 116.371 137.571C116.675 137.571 116.936 137.68 117.154 137.898C117.373 138.117 117.482 138.378 117.482 138.681C117.482 138.985 117.373 139.252 117.154 139.483C116.936 139.701 116.675 139.81 116.371 139.81C116.068 139.81 115.807 139.701 115.588 139.483ZM120.263 150.645V141.431H121.993V142.815C122.575 141.747 123.571 141.213 124.979 141.213C126.047 141.213 126.909 141.559 127.565 142.25C128.22 142.93 128.548 143.871 128.548 145.073V150.645H126.782V145.146C126.782 144.417 126.575 143.853 126.163 143.452C125.75 143.04 125.234 142.833 124.615 142.833C124.166 142.833 123.765 142.93 123.413 143.125C123.061 143.319 122.788 143.574 122.593 143.889C122.399 144.205 122.254 144.539 122.156 144.891C122.071 145.243 122.029 145.601 122.029 145.965V150.645H120.263ZM130.538 151.938C130.538 151.112 131.054 150.445 132.086 149.935C131.685 149.643 131.485 149.231 131.485 148.697C131.485 148.175 131.758 147.713 132.304 147.313C131.843 147.009 131.473 146.621 131.193 146.147C130.926 145.662 130.793 145.14 130.793 144.581C130.793 143.647 131.145 142.851 131.849 142.196C132.565 141.54 133.439 141.213 134.471 141.213C134.932 141.213 135.376 141.285 135.8 141.431H139.187V142.906H137.676C137.992 143.404 138.149 143.962 138.149 144.581C138.149 145.516 137.791 146.311 137.075 146.967C136.371 147.622 135.503 147.95 134.471 147.95C134.156 147.95 133.84 147.914 133.524 147.841C133.281 148.023 133.16 148.229 133.16 148.46C133.16 148.654 133.233 148.812 133.379 148.933C133.524 149.055 133.694 149.115 133.888 149.115H136.219C137.142 149.115 137.882 149.358 138.441 149.844C138.999 150.317 139.278 150.93 139.278 151.683C139.278 152.496 138.854 153.17 138.004 153.704C137.166 154.238 136.061 154.505 134.69 154.505C133.403 154.505 132.389 154.275 131.649 153.813C130.908 153.364 130.538 152.739 130.538 151.938ZM135.855 143.307C135.479 142.942 135.017 142.76 134.471 142.76C133.925 142.76 133.457 142.942 133.069 143.307C132.693 143.659 132.505 144.084 132.505 144.581C132.505 145.079 132.693 145.51 133.069 145.874C133.457 146.226 133.925 146.402 134.471 146.402C135.017 146.402 135.479 146.226 135.855 145.874C136.244 145.51 136.438 145.079 136.438 144.581C136.438 144.084 136.244 143.659 135.855 143.307ZM132.304 151.774C132.304 152.126 132.529 152.405 132.978 152.612C133.427 152.818 134.01 152.921 134.726 152.921C135.624 152.921 136.316 152.812 136.802 152.593C137.3 152.375 137.549 152.084 137.549 151.719C137.549 151.392 137.409 151.137 137.13 150.955C136.851 150.772 136.498 150.681 136.074 150.681H133.379C133.112 150.754 132.863 150.882 132.632 151.064C132.413 151.246 132.304 151.483 132.304 151.774Z" fill="white"/>
</svg>
