<svg width="239" height="212" viewBox="0 0 239 212" fill="none" xmlns="http://www.w3.org/2000/svg">
<path d="M231.906 212H6.969C5.12088 212 3.34844 211.266 2.04153 209.959C0.734614 208.652 0.000265192 206.88 0 205.032L0 6.968C0.000265192 5.11988 0.734614 3.34754 2.04153 2.04082C3.34844 0.734094 5.12088 -1.90265e-08 6.969 0L231.906 0C233.754 0 235.526 0.734126 236.833 2.04088C238.14 3.34763 238.874 5.11997 238.874 6.968V205.032C238.874 206.88 238.14 208.652 236.833 209.959C235.526 211.266 233.754 212 231.906 212Z" fill="#9E9EA3"/>
<path d="M127.603 62.3721H104.961V86.9991H127.603V62.3721Z" stroke="white" stroke-width="3" stroke-linecap="round" stroke-linejoin="round"/>
<path d="M135.667 66.0468L138.443 60.8198L143.995 71.2728H132.895L135.667 66.0468Z" stroke="white" stroke-width="3" stroke-linecap="round" stroke-linejoin="round"/>
<path d="M138.443 86.7559C137.529 86.7488 136.638 86.4713 135.881 85.9583C135.125 85.4453 134.537 84.7198 134.192 83.8733C133.847 83.0268 133.761 82.0972 133.944 81.2016C134.126 80.306 134.57 79.4846 135.219 78.8408C135.868 78.1971 136.693 77.7599 137.59 77.5843C138.487 77.4087 139.416 77.5026 140.259 77.8541C141.103 78.2057 141.824 78.7991 142.331 79.5597C142.838 80.3203 143.108 81.2139 143.108 82.1279C143.103 83.36 142.608 84.5396 141.733 85.4073C140.859 86.2751 139.675 86.7602 138.443 86.7559Z" stroke="white" stroke-width="3" stroke-linecap="round" stroke-linejoin="round"/>
<path d="M144.629 28.876C141.062 33.808 133.168 37.25 123.956 37.25C114.744 37.25 106.851 33.808 103.284 28.876L68.731 46.005C68.058 46.3439 67.5459 46.9347 67.3062 47.6492C67.0665 48.3636 67.1186 49.1437 67.451 49.82L77.602 70.136C77.9409 70.8091 78.5318 71.3211 79.2463 71.5606C79.9608 71.8001 80.7409 71.7478 81.417 71.415L91.459 66.5C91.8927 66.2906 92.3725 66.1947 92.8533 66.2211C93.3342 66.2475 93.8005 66.3955 94.2087 66.6511C94.6169 66.9067 94.9535 67.2617 95.1872 67.6828C95.4209 68.1039 95.544 68.5774 95.545 69.059V114.064C95.5437 114.809 95.6894 115.547 95.9736 116.236C96.2579 116.925 96.6752 117.55 97.2017 118.078C97.7282 118.605 98.3535 119.023 99.0418 119.308C99.7301 119.594 100.468 119.74 101.213 119.74H146.653C148.158 119.74 149.601 119.143 150.667 118.081C151.732 117.018 152.333 115.577 152.337 114.072V69.035C152.337 68.2824 152.636 67.5607 153.169 67.0285C153.701 66.4963 154.422 66.1972 155.175 66.197C155.605 66.199 156.029 66.297 156.416 66.484L166.457 71.4C167.128 71.7379 167.907 71.7954 168.62 71.5599C169.334 71.3244 169.925 70.8151 170.264 70.144L170.272 70.12L180.446 49.82C180.784 49.1481 180.843 48.3696 180.609 47.6548C180.375 46.9399 179.867 46.3467 179.197 46.005H179.182L153.87 33.45L152.83 34.714C147.842 41.614 136.803 46.424 123.921 46.424C114.714 46.424 106.459 43.969 100.674 40.053" stroke="white" stroke-width="3" stroke-miterlimit="10"/>
<path d="M66.3835 149.997C64.6875 148.317 63.8395 146.237 63.8395 143.757C63.8395 141.277 64.6715 139.197 66.3355 137.517C68.0155 135.837 70.0555 134.997 72.4555 134.997C74.0235 134.997 75.3995 135.325 76.5835 135.981C77.7675 136.621 78.7195 137.445 79.4395 138.453L77.6875 140.061C76.3915 138.237 74.6475 137.325 72.4555 137.325C70.6955 137.325 69.2235 137.941 68.0395 139.173C66.8715 140.389 66.2875 141.917 66.2875 143.757C66.2875 145.597 66.8875 147.133 68.0875 148.365C69.2875 149.581 70.7835 150.189 72.5755 150.189C74.7835 150.189 76.5515 149.237 77.8795 147.333L79.6075 148.821C78.8235 149.941 77.8235 150.837 76.6075 151.509C75.4075 152.181 74.0635 152.517 72.5755 152.517C70.1435 152.517 68.0795 151.677 66.3835 149.997ZM82.1136 135.285H84.4416V148.797C84.4416 149.853 84.8176 150.381 85.5696 150.381C85.8416 150.381 86.1056 150.333 86.3616 150.237V152.325C86.0416 152.453 85.6816 152.517 85.2816 152.517C84.3696 152.517 83.6096 152.261 83.0016 151.749C82.4096 151.237 82.1136 150.389 82.1136 149.205V135.285ZM98.707 150.693C97.507 151.909 96.011 152.517 94.219 152.517C92.427 152.517 90.931 151.909 89.731 150.693C88.531 149.461 87.931 147.949 87.931 146.157C87.931 144.365 88.531 142.861 89.731 141.645C90.931 140.413 92.427 139.797 94.219 139.797C96.011 139.797 97.507 140.413 98.707 141.645C99.907 142.861 100.507 144.365 100.507 146.157C100.507 147.949 99.907 149.461 98.707 150.693ZM91.411 143.229C90.675 144.029 90.307 145.005 90.307 146.157C90.307 147.309 90.675 148.293 91.411 149.109C92.147 149.909 93.083 150.309 94.219 150.309C95.355 150.309 96.291 149.909 97.027 149.109C97.763 148.293 98.131 147.309 98.131 146.157C98.131 145.005 97.763 144.029 97.027 143.229C96.291 142.413 95.355 142.005 94.219 142.005C93.083 142.005 92.147 142.413 91.411 143.229ZM102.079 140.085H103.975V136.749H106.231V140.085H109.351V142.029H106.231V148.365C106.231 149.693 106.887 150.357 108.199 150.357C108.727 150.357 109.207 150.229 109.639 149.973V152.109C109.175 152.381 108.527 152.517 107.695 152.517C106.511 152.517 105.583 152.181 104.911 151.509C104.239 150.821 103.903 149.869 103.903 148.653V142.029H102.079V140.085ZM112.258 135.285H114.586V141.765C115.434 140.453 116.73 139.797 118.474 139.797C119.85 139.797 120.978 140.253 121.858 141.165C122.738 142.077 123.178 143.317 123.178 144.885V152.229H120.85V144.981C120.85 144.021 120.578 143.277 120.034 142.749C119.49 142.205 118.81 141.933 117.994 141.933C116.842 141.933 115.986 142.325 115.426 143.109C114.866 143.877 114.586 144.781 114.586 145.821V152.229H112.258V135.285ZM126.976 140.085H129.304V152.229H126.976V140.085ZM127.12 137.517C126.832 137.213 126.688 136.861 126.688 136.461C126.688 136.061 126.832 135.717 127.12 135.429C127.408 135.141 127.752 134.997 128.152 134.997C128.552 134.997 128.896 135.141 129.184 135.429C129.472 135.717 129.616 136.061 129.616 136.461C129.616 136.861 129.472 137.213 129.184 137.517C128.896 137.805 128.552 137.949 128.152 137.949C127.752 137.949 127.408 137.805 127.12 137.517ZM133.281 152.229V140.085H135.561V141.909C136.329 140.501 137.641 139.797 139.497 139.797C140.905 139.797 142.041 140.253 142.905 141.165C143.769 142.061 144.201 143.301 144.201 144.885V152.229H141.873V144.981C141.873 144.021 141.601 143.277 141.057 142.749C140.513 142.205 139.833 141.933 139.017 141.933C138.425 141.933 137.897 142.061 137.433 142.317C136.969 142.573 136.609 142.909 136.353 143.325C136.097 143.741 135.905 144.181 135.777 144.645C135.665 145.109 135.609 145.581 135.609 146.061V152.229H133.281ZM146.824 153.933C146.824 152.845 147.504 151.965 148.864 151.293C148.336 150.909 148.072 150.365 148.072 149.661C148.072 148.973 148.432 148.365 149.152 147.837C148.544 147.437 148.056 146.925 147.688 146.301C147.336 145.661 147.16 144.973 147.16 144.237C147.16 143.005 147.624 141.957 148.552 141.093C149.496 140.229 150.648 139.797 152.008 139.797C152.616 139.797 153.2 139.893 153.76 140.085H158.224V142.029H156.232C156.648 142.685 156.856 143.421 156.856 144.237C156.856 145.469 156.384 146.517 155.44 147.381C154.512 148.245 153.368 148.677 152.008 148.677C151.592 148.677 151.176 148.629 150.76 148.533C150.44 148.773 150.28 149.045 150.28 149.349C150.28 149.605 150.376 149.813 150.568 149.973C150.76 150.133 150.984 150.213 151.24 150.213H154.312C155.528 150.213 156.504 150.533 157.24 151.173C157.976 151.797 158.344 152.605 158.344 153.597C158.344 154.669 157.784 155.557 156.664 156.261C155.56 156.965 154.104 157.317 152.296 157.317C150.6 157.317 149.264 157.013 148.288 156.405C147.312 155.813 146.824 154.989 146.824 153.933ZM153.832 142.557C153.336 142.077 152.728 141.837 152.008 141.837C151.288 141.837 150.672 142.077 150.16 142.557C149.664 143.021 149.416 143.581 149.416 144.237C149.416 144.893 149.664 145.461 150.16 145.941C150.672 146.405 151.288 146.637 152.008 146.637C152.728 146.637 153.336 146.405 153.832 145.941C154.344 145.461 154.6 144.893 154.6 144.237C154.6 143.581 154.344 143.021 153.832 142.557ZM149.152 153.717C149.152 154.181 149.448 154.549 150.04 154.821C150.632 155.093 151.4 155.229 152.344 155.229C153.528 155.229 154.44 155.085 155.08 154.797C155.736 154.509 156.064 154.125 156.064 153.645C156.064 153.213 155.88 152.877 155.512 152.637C155.144 152.397 154.68 152.277 154.12 152.277H150.568C150.216 152.373 149.888 152.541 149.584 152.781C149.296 153.021 149.152 153.333 149.152 153.717ZM173.563 133.365H175.819L166.651 155.589H164.395L173.563 133.365ZM56.2807 186.229L62.8567 169.285H65.3527L71.9287 186.229H69.4807L67.7047 181.621H60.5047L58.7287 186.229H56.2807ZM61.2727 179.389H66.9367L64.1047 171.877L61.2727 179.389ZM78.9142 186.517C77.2822 186.517 75.9142 185.917 74.8102 184.717C73.7062 183.517 73.1542 181.997 73.1542 180.157C73.1542 178.317 73.7062 176.797 74.8102 175.597C75.9142 174.397 77.2822 173.797 78.9142 173.797C79.7302 173.797 80.5142 173.989 81.2662 174.373C82.0182 174.741 82.5702 175.205 82.9222 175.765V169.285H85.2502V186.229H83.0182V184.429C82.6822 185.021 82.1222 185.517 81.3382 185.917C80.5542 186.317 79.7462 186.517 78.9142 186.517ZM81.9622 177.133C81.2262 176.333 80.3382 175.933 79.2982 175.933C78.2582 175.933 77.3622 176.333 76.6102 177.133C75.8742 177.917 75.5062 178.925 75.5062 180.157C75.5062 181.389 75.8742 182.405 76.6102 183.205C77.3622 183.989 78.2582 184.381 79.2982 184.381C80.3382 184.381 81.2262 183.989 81.9622 183.205C82.6982 182.405 83.0662 181.389 83.0662 180.157C83.0662 178.925 82.6982 177.917 81.9622 177.133ZM87.4783 174.085H89.9743L93.5023 183.109L97.0303 174.085H99.5263L94.5583 186.229H92.4463L87.4783 174.085ZM102.446 184.717C101.246 183.501 100.646 181.989 100.646 180.181C100.646 178.373 101.214 176.861 102.35 175.645C103.502 174.413 104.982 173.797 106.79 173.797C108.486 173.797 109.846 174.341 110.87 175.429C111.894 176.501 112.406 177.837 112.406 179.437C112.406 179.885 112.366 180.325 112.286 180.757H103.094C103.206 181.877 103.646 182.765 104.414 183.421C105.182 184.061 106.11 184.381 107.198 184.381C108.542 184.381 109.686 183.869 110.63 182.845L112.046 184.477C110.702 185.837 109.07 186.517 107.15 186.517C105.23 186.517 103.662 185.917 102.446 184.717ZM106.814 175.885C105.87 175.885 105.07 176.149 104.414 176.677C103.758 177.205 103.342 177.933 103.166 178.861H110.126V178.837C110.046 177.941 109.694 177.229 109.07 176.701C108.462 176.157 107.71 175.885 106.814 175.885ZM115.433 174.085H117.713V176.221C118.017 175.469 118.473 174.877 119.081 174.445C119.689 174.013 120.393 173.797 121.193 173.797C121.497 173.797 121.745 173.829 121.937 173.893V176.173C121.809 176.141 121.649 176.125 121.457 176.125C120.337 176.125 119.441 176.501 118.769 177.253C118.097 177.989 117.761 178.973 117.761 180.205V186.229H115.433V174.085ZM123.208 174.085H125.104V170.749H127.36V174.085H130.48V176.029H127.36V182.365C127.36 183.693 128.016 184.357 129.328 184.357C129.856 184.357 130.336 184.229 130.768 183.973V186.109C130.304 186.381 129.656 186.517 128.824 186.517C127.64 186.517 126.712 186.181 126.04 185.509C125.368 184.821 125.032 183.869 125.032 182.653V176.029H123.208V174.085ZM133.387 174.085H135.715V186.229H133.387V174.085ZM133.531 171.517C133.243 171.213 133.099 170.861 133.099 170.461C133.099 170.061 133.243 169.717 133.531 169.429C133.819 169.141 134.163 168.997 134.563 168.997C134.963 168.997 135.307 169.141 135.595 169.429C135.883 169.717 136.027 170.061 136.027 170.461C136.027 170.861 135.883 171.213 135.595 171.517C135.307 171.805 134.963 171.949 134.563 171.949C134.163 171.949 133.819 171.805 133.531 171.517ZM138.563 183.829L140.267 182.605C141.083 183.837 142.099 184.453 143.315 184.453C144.003 184.453 144.547 184.333 144.947 184.093C145.347 183.837 145.547 183.501 145.547 183.085C145.547 182.637 145.363 182.277 144.995 182.005C144.643 181.733 143.923 181.421 142.835 181.069C141.523 180.653 140.563 180.165 139.955 179.605C139.347 179.029 139.043 178.261 139.043 177.301C139.043 176.357 139.459 175.541 140.291 174.853C141.123 174.149 142.155 173.797 143.387 173.797C145.307 173.797 146.707 174.581 147.587 176.149L145.907 177.397C145.235 176.357 144.363 175.837 143.291 175.837C142.699 175.837 142.219 175.973 141.851 176.245C141.499 176.501 141.323 176.837 141.323 177.253C141.323 177.637 141.499 177.965 141.851 178.237C142.203 178.493 142.859 178.781 143.819 179.101C145.243 179.581 146.267 180.109 146.891 180.685C147.515 181.261 147.827 182.045 147.827 183.037C147.827 184.045 147.403 184.877 146.555 185.533C145.707 186.189 144.635 186.517 143.339 186.517C142.299 186.517 141.347 186.277 140.483 185.797C139.619 185.317 138.979 184.661 138.563 183.829ZM150.871 174.085H153.199V186.229H150.871V174.085ZM151.015 171.517C150.727 171.213 150.583 170.861 150.583 170.461C150.583 170.061 150.727 169.717 151.015 169.429C151.303 169.141 151.647 168.997 152.047 168.997C152.447 168.997 152.791 169.141 153.079 169.429C153.367 169.717 153.511 170.061 153.511 170.461C153.511 170.861 153.367 171.213 153.079 171.517C152.791 171.805 152.447 171.949 152.047 171.949C151.647 171.949 151.303 171.805 151.015 171.517ZM157.176 186.229V174.085H159.456V175.909C160.224 174.501 161.536 173.797 163.392 173.797C164.8 173.797 165.936 174.253 166.8 175.165C167.664 176.061 168.096 177.301 168.096 178.885V186.229H165.768V178.981C165.768 178.021 165.496 177.277 164.952 176.749C164.408 176.205 163.728 175.933 162.912 175.933C162.32 175.933 161.792 176.061 161.328 176.317C160.864 176.573 160.504 176.909 160.248 177.325C159.992 177.741 159.8 178.181 159.672 178.645C159.56 179.109 159.504 179.581 159.504 180.061V186.229H157.176ZM170.718 187.933C170.718 186.845 171.398 185.965 172.758 185.293C172.23 184.909 171.966 184.365 171.966 183.661C171.966 182.973 172.326 182.365 173.046 181.837C172.438 181.437 171.95 180.925 171.582 180.301C171.23 179.661 171.054 178.973 171.054 178.237C171.054 177.005 171.518 175.957 172.446 175.093C173.39 174.229 174.542 173.797 175.902 173.797C176.51 173.797 177.094 173.893 177.654 174.085H182.118V176.029H180.126C180.542 176.685 180.75 177.421 180.75 178.237C180.75 179.469 180.278 180.517 179.334 181.381C178.406 182.245 177.262 182.677 175.902 182.677C175.486 182.677 175.07 182.629 174.654 182.533C174.334 182.773 174.174 183.045 174.174 183.349C174.174 183.605 174.27 183.813 174.462 183.973C174.654 184.133 174.878 184.213 175.134 184.213H178.206C179.422 184.213 180.398 184.533 181.134 185.173C181.87 185.797 182.238 186.605 182.238 187.597C182.238 188.669 181.678 189.557 180.558 190.261C179.454 190.965 177.998 191.317 176.19 191.317C174.494 191.317 173.158 191.013 172.182 190.405C171.206 189.813 170.718 188.989 170.718 187.933ZM177.726 176.557C177.23 176.077 176.622 175.837 175.902 175.837C175.182 175.837 174.566 176.077 174.054 176.557C173.558 177.021 173.31 177.581 173.31 178.237C173.31 178.893 173.558 179.461 174.054 179.941C174.566 180.405 175.182 180.637 175.902 180.637C176.622 180.637 177.23 180.405 177.726 179.941C178.238 179.461 178.494 178.893 178.494 178.237C178.494 177.581 178.238 177.021 177.726 176.557ZM173.046 187.717C173.046 188.181 173.342 188.549 173.934 188.821C174.526 189.093 175.294 189.229 176.238 189.229C177.422 189.229 178.334 189.085 178.974 188.797C179.63 188.509 179.958 188.125 179.958 187.645C179.958 187.213 179.774 186.877 179.406 186.637C179.038 186.397 178.574 186.277 178.014 186.277H174.462C174.11 186.373 173.782 186.541 173.478 186.781C173.19 187.021 173.046 187.333 173.046 187.717Z" fill="white"/>
</svg>
