<svg width="239" height="212" viewBox="0 0 239 212" fill="none" xmlns="http://www.w3.org/2000/svg">
<path d="M231.906 212H6.969C5.12088 212 3.34844 211.266 2.04153 209.959C0.734614 208.652 0.000265192 206.88 0 205.032L0 6.968C0.000265192 5.11988 0.734614 3.34754 2.04153 2.04082C3.34844 0.734094 5.12088 -1.90265e-08 6.969 0L231.906 0C233.754 0 235.526 0.734126 236.833 2.04088C238.14 3.34763 238.874 5.11997 238.874 6.968V205.032C238.874 206.88 238.14 208.652 236.833 209.959C235.526 211.266 233.754 212 231.906 212Z" fill="#00C7C7"/>
<path d="M99.8001 44.7649H145.685C145.98 44.7377 146.277 44.7722 146.557 44.8664C146.838 44.9605 147.096 45.1121 147.315 45.3115C147.533 45.5109 147.708 45.7538 147.827 46.0245C147.947 46.2952 148.009 46.5879 148.009 46.8839C148.009 47.1798 147.947 47.4725 147.827 47.7432C147.708 48.0139 147.533 48.2568 147.315 48.4562C147.096 48.6556 146.838 48.8072 146.557 48.9013C146.277 48.9955 145.98 49.03 145.685 49.0029H99.8001C99.5054 49.03 99.2083 48.9955 98.9277 48.9013C98.6471 48.8072 98.3893 48.6556 98.1706 48.4562C97.952 48.2568 97.7773 48.0139 97.6578 47.7432C97.5383 47.4725 97.4766 47.1798 97.4766 46.8839C97.4766 46.5879 97.5383 46.2952 97.6578 46.0245C97.7773 45.7538 97.952 45.5109 98.1706 45.3115C98.3893 45.1121 98.6471 44.9605 98.9277 44.8664C99.2083 44.7722 99.5054 44.7377 99.8001 44.7649Z" fill="white"/>
<path d="M161.576 46.991V40.25C161.576 38.3935 160.838 36.613 159.526 35.3003C158.213 33.9875 156.432 33.25 154.576 33.25H84.2998C82.4433 33.25 80.6628 33.9875 79.3501 35.3003C78.0373 36.613 77.2998 38.3935 77.2998 40.25V118.956C77.2998 120.813 78.0373 122.593 79.3501 123.906C80.6628 125.219 82.4433 125.956 84.2998 125.956H154.579C156.435 125.956 158.216 125.219 159.529 123.906C160.841 122.593 161.579 120.813 161.579 118.956V58.625H91.3788C90.9847 58.592 90.5933 58.7151 90.289 58.9678C89.9848 59.2205 89.7918 59.5825 89.7518 59.976V107.116C89.7918 107.51 89.9847 107.872 90.289 108.125C90.5932 108.377 90.9846 108.501 91.3788 108.468H146.979C147.373 108.501 147.765 108.378 148.069 108.125C148.373 107.872 148.566 107.51 148.606 107.116V67.967" stroke="white" stroke-width="3" stroke-linejoin="round"/>
<path d="M85.229 40.5901C85.2304 40.216 85.3426 39.8507 85.5514 39.5403C85.7603 39.2299 86.0564 38.9884 86.4024 38.8462C86.7485 38.704 87.1289 38.6675 87.4956 38.7413C87.8623 38.8152 88.199 38.996 88.463 39.261C88.7271 39.526 88.9067 39.8634 88.9791 40.2304C89.0516 40.5974 89.0137 40.9776 88.8702 41.3231C88.7268 41.6686 88.4841 41.9639 88.173 42.1716C87.8618 42.3793 87.4961 42.4901 87.122 42.4901C86.8728 42.4901 86.6261 42.4409 86.396 42.3453C86.1659 42.2498 85.9569 42.1097 85.781 41.9332C85.6051 41.7567 85.4658 41.5472 85.3711 41.3167C85.2764 41.0862 85.2281 40.8393 85.229 40.5901Z" fill="white"/>
<path d="M90 40.5901C90.0014 40.216 90.1136 39.8507 90.3224 39.5403C90.5313 39.2299 90.8274 38.9884 91.1734 38.8462C91.5194 38.704 91.8998 38.6675 92.2666 38.7413C92.6333 38.8152 92.97 38.996 93.234 39.261C93.4981 39.526 93.6777 39.8634 93.7501 40.2304C93.8226 40.5974 93.7847 40.9776 93.6412 41.3231C93.4978 41.6686 93.2551 41.9639 92.944 42.1716C92.6328 42.3793 92.2671 42.4901 91.893 42.4901C91.6438 42.4901 91.3971 42.4409 91.167 42.3453C90.9368 42.2498 90.7278 42.1097 90.552 41.9332C90.3761 41.7567 90.2368 41.5472 90.1421 41.3167C90.0474 41.0862 89.9991 40.8393 90 40.5901Z" fill="white"/>
<path d="M94.7759 40.5901C94.7775 40.2163 94.8897 39.8514 95.0984 39.5414C95.3071 39.2314 95.603 38.9901 95.9487 38.8481C96.2944 38.706 96.6744 38.6695 97.0408 38.7432C97.4072 38.8168 97.7436 38.9974 98.0075 39.262C98.2714 39.5266 98.451 39.8634 98.5237 40.23C98.5964 40.5966 98.5589 40.9765 98.416 41.3218C98.273 41.6672 98.0309 41.9624 97.7204 42.1703C97.4098 42.3782 97.0446 42.4895 96.6709 42.4901C96.4215 42.4903 96.1746 42.4413 95.9442 42.3459C95.7139 42.2504 95.5047 42.1104 95.3286 41.9338C95.1525 41.7573 95.013 41.5477 94.9182 41.3171C94.8233 41.0865 94.775 40.8394 94.7759 40.5901Z" fill="white"/>
<path d="M27.2799 164.584L22.1679 147.64H24.6399L28.5519 161.152L32.7519 147.64H35.2479L39.4479 161.152L43.3599 147.64H45.8319L40.7199 164.584H38.2719L33.9999 151.192L29.7279 164.584H27.2799ZM48.2203 163.072C47.0203 161.856 46.4203 160.344 46.4203 158.536C46.4203 156.728 46.9883 155.216 48.1243 154C49.2763 152.768 50.7563 152.152 52.5643 152.152C54.2603 152.152 55.6203 152.696 56.6443 153.784C57.6683 154.856 58.1803 156.192 58.1803 157.792C58.1803 158.24 58.1403 158.68 58.0603 159.112H48.8683C48.9803 160.232 49.4203 161.12 50.1883 161.776C50.9563 162.416 51.8843 162.736 52.9723 162.736C54.3163 162.736 55.4603 162.224 56.4043 161.2L57.8203 162.832C56.4763 164.192 54.8443 164.872 52.9243 164.872C51.0043 164.872 49.4363 164.272 48.2203 163.072ZM52.5883 154.24C51.6443 154.24 50.8443 154.504 50.1883 155.032C49.5323 155.56 49.1163 156.288 48.9403 157.216H55.9003V157.192C55.8203 156.296 55.4683 155.584 54.8443 155.056C54.2363 154.512 53.4843 154.24 52.5883 154.24ZM61.2078 147.64H63.5358V154.12C63.8878 153.56 64.4398 153.096 65.1918 152.728C65.9438 152.344 66.7278 152.152 67.5438 152.152C69.1758 152.152 70.5438 152.752 71.6478 153.952C72.7518 155.152 73.3038 156.672 73.3038 158.512C73.3038 160.352 72.7518 161.872 71.6478 163.072C70.5438 164.272 69.1758 164.872 67.5438 164.872C66.7118 164.872 65.9038 164.672 65.1198 164.272C64.3358 163.872 63.7758 163.376 63.4398 162.784V164.584H61.2078V147.64ZM69.8238 155.488C69.0878 154.688 68.1998 154.288 67.1598 154.288C66.1198 154.288 65.2318 154.688 64.4958 155.488C63.7598 156.272 63.3918 157.28 63.3918 158.512C63.3918 159.744 63.7598 160.76 64.4958 161.56C65.2318 162.344 66.1198 162.736 67.1598 162.736C68.1998 162.736 69.0878 162.344 69.8238 161.56C70.5758 160.76 70.9518 159.744 70.9518 158.512C70.9518 157.28 70.5758 156.272 69.8238 155.488ZM89.8141 159.088H81.8941V157.072H89.8141V159.088ZM91.0473 164.584L97.6233 147.64H100.119L106.695 164.584H104.247L102.471 159.976H95.2713L93.4953 164.584H91.0473ZM96.0393 157.744H101.703L98.8713 150.232L96.0393 157.744ZM108.833 152.44H111.065V154.216C111.449 153.624 112.017 153.136 112.769 152.752C113.537 152.352 114.337 152.152 115.169 152.152C116.801 152.152 118.169 152.752 119.273 153.952C120.377 155.152 120.929 156.672 120.929 158.512C120.929 160.352 120.377 161.872 119.273 163.072C118.169 164.272 116.801 164.872 115.169 164.872C114.369 164.872 113.593 164.688 112.841 164.32C112.089 163.952 111.529 163.488 111.161 162.928V169.384H108.833V152.44ZM112.121 155.488C111.385 156.272 111.017 157.28 111.017 158.512C111.017 159.744 111.385 160.76 112.121 161.56C112.857 162.344 113.745 162.736 114.785 162.736C115.825 162.736 116.713 162.344 117.449 161.56C118.201 160.76 118.577 159.744 118.577 158.512C118.577 157.28 118.201 156.272 117.449 155.488C116.713 154.688 115.825 154.288 114.785 154.288C113.745 154.288 112.857 154.688 112.121 155.488ZM123.997 152.44H126.229V154.216C126.613 153.624 127.181 153.136 127.933 152.752C128.701 152.352 129.501 152.152 130.333 152.152C131.965 152.152 133.333 152.752 134.437 153.952C135.541 155.152 136.093 156.672 136.093 158.512C136.093 160.352 135.541 161.872 134.437 163.072C133.333 164.272 131.965 164.872 130.333 164.872C129.533 164.872 128.757 164.688 128.005 164.32C127.253 163.952 126.693 163.488 126.325 162.928V169.384H123.997V152.44ZM127.285 155.488C126.549 156.272 126.181 157.28 126.181 158.512C126.181 159.744 126.549 160.76 127.285 161.56C128.021 162.344 128.909 162.736 129.949 162.736C130.989 162.736 131.877 162.344 132.613 161.56C133.365 160.76 133.741 159.744 133.741 158.512C133.741 157.28 133.365 156.272 132.613 155.488C131.877 154.688 130.989 154.288 129.949 154.288C128.909 154.288 128.021 154.688 127.285 155.488ZM149.915 164.872C148.283 164.872 146.915 164.272 145.811 163.072C144.707 161.872 144.155 160.352 144.155 158.512C144.155 156.672 144.707 155.152 145.811 153.952C146.915 152.752 148.283 152.152 149.915 152.152C150.731 152.152 151.515 152.344 152.267 152.728C153.019 153.096 153.571 153.56 153.923 154.12V147.64H156.251V164.584H154.019V162.784C153.683 163.376 153.123 163.872 152.339 164.272C151.555 164.672 150.747 164.872 149.915 164.872ZM152.963 155.488C152.227 154.688 151.339 154.288 150.299 154.288C149.259 154.288 148.363 154.688 147.611 155.488C146.875 156.272 146.507 157.28 146.507 158.512C146.507 159.744 146.875 160.76 147.611 161.56C148.363 162.344 149.259 162.736 150.299 162.736C151.339 162.736 152.227 162.344 152.963 161.56C153.699 160.76 154.067 159.744 154.067 158.512C154.067 157.28 153.699 156.272 152.963 155.488ZM161.095 163.072C159.895 161.856 159.295 160.344 159.295 158.536C159.295 156.728 159.863 155.216 160.999 154C162.151 152.768 163.631 152.152 165.439 152.152C167.135 152.152 168.495 152.696 169.519 153.784C170.543 154.856 171.055 156.192 171.055 157.792C171.055 158.24 171.015 158.68 170.935 159.112H161.743C161.855 160.232 162.295 161.12 163.063 161.776C163.831 162.416 164.759 162.736 165.847 162.736C167.191 162.736 168.335 162.224 169.279 161.2L170.695 162.832C169.351 164.192 167.719 164.872 165.799 164.872C163.879 164.872 162.311 164.272 161.095 163.072ZM165.463 154.24C164.519 154.24 163.719 154.504 163.063 155.032C162.407 155.56 161.991 156.288 161.815 157.216H168.775V157.192C168.695 156.296 168.343 155.584 167.719 155.056C167.111 154.512 166.359 154.24 165.463 154.24ZM172.955 162.184L174.659 160.96C175.475 162.192 176.491 162.808 177.707 162.808C178.395 162.808 178.939 162.688 179.339 162.448C179.739 162.192 179.939 161.856 179.939 161.44C179.939 160.992 179.755 160.632 179.387 160.36C179.035 160.088 178.315 159.776 177.227 159.424C175.915 159.008 174.955 158.52 174.347 157.96C173.739 157.384 173.435 156.616 173.435 155.656C173.435 154.712 173.851 153.896 174.683 153.208C175.515 152.504 176.547 152.152 177.779 152.152C179.699 152.152 181.099 152.936 181.979 154.504L180.299 155.752C179.627 154.712 178.755 154.192 177.683 154.192C177.091 154.192 176.611 154.328 176.243 154.6C175.891 154.856 175.715 155.192 175.715 155.608C175.715 155.992 175.891 156.32 176.243 156.592C176.595 156.848 177.251 157.136 178.211 157.456C179.635 157.936 180.659 158.464 181.283 159.04C181.907 159.616 182.219 160.4 182.219 161.392C182.219 162.4 181.795 163.232 180.947 163.888C180.099 164.544 179.027 164.872 177.731 164.872C176.691 164.872 175.739 164.632 174.875 164.152C174.011 163.672 173.371 163.016 172.955 162.184ZM185.263 152.44H187.591V164.584H185.263V152.44ZM185.407 149.872C185.119 149.568 184.975 149.216 184.975 148.816C184.975 148.416 185.119 148.072 185.407 147.784C185.695 147.496 186.039 147.352 186.439 147.352C186.839 147.352 187.183 147.496 187.471 147.784C187.759 148.072 187.903 148.416 187.903 148.816C187.903 149.216 187.759 149.568 187.471 149.872C187.183 150.16 186.839 150.304 186.439 150.304C186.039 150.304 185.695 150.16 185.407 149.872ZM190.391 166.288C190.391 165.2 191.071 164.32 192.431 163.648C191.903 163.264 191.639 162.72 191.639 162.016C191.639 161.328 191.999 160.72 192.719 160.192C192.111 159.792 191.623 159.28 191.255 158.656C190.903 158.016 190.727 157.328 190.727 156.592C190.727 155.36 191.191 154.312 192.119 153.448C193.063 152.584 194.215 152.152 195.575 152.152C196.183 152.152 196.767 152.248 197.327 152.44H201.791V154.384H199.799C200.215 155.04 200.423 155.776 200.423 156.592C200.423 157.824 199.951 158.872 199.007 159.736C198.079 160.6 196.935 161.032 195.575 161.032C195.159 161.032 194.743 160.984 194.327 160.888C194.007 161.128 193.847 161.4 193.847 161.704C193.847 161.96 193.943 162.168 194.135 162.328C194.327 162.488 194.551 162.568 194.807 162.568H197.879C199.095 162.568 200.071 162.888 200.807 163.528C201.543 164.152 201.911 164.96 201.911 165.952C201.911 167.024 201.351 167.912 200.231 168.616C199.127 169.32 197.671 169.672 195.863 169.672C194.167 169.672 192.831 169.368 191.855 168.76C190.879 168.168 190.391 167.344 190.391 166.288ZM197.399 154.912C196.903 154.432 196.295 154.192 195.575 154.192C194.855 154.192 194.239 154.432 193.727 154.912C193.231 155.376 192.983 155.936 192.983 156.592C192.983 157.248 193.231 157.816 193.727 158.296C194.239 158.76 194.855 158.992 195.575 158.992C196.295 158.992 196.903 158.76 197.399 158.296C197.911 157.816 198.167 157.248 198.167 156.592C198.167 155.936 197.911 155.376 197.399 154.912ZM192.719 166.072C192.719 166.536 193.015 166.904 193.607 167.176C194.199 167.448 194.967 167.584 195.911 167.584C197.095 167.584 198.007 167.44 198.647 167.152C199.303 166.864 199.631 166.48 199.631 166C199.631 165.568 199.447 165.232 199.079 164.992C198.711 164.752 198.247 164.632 197.687 164.632H194.135C193.783 164.728 193.455 164.896 193.151 165.136C192.863 165.376 192.719 165.688 192.719 166.072ZM204.528 164.584V152.44H206.808V154.264C207.576 152.856 208.888 152.152 210.744 152.152C212.152 152.152 213.288 152.608 214.152 153.52C215.016 154.416 215.448 155.656 215.448 157.24V164.584H213.12V157.336C213.12 156.376 212.848 155.632 212.304 155.104C211.76 154.56 211.08 154.288 210.264 154.288C209.672 154.288 209.144 154.416 208.68 154.672C208.216 154.928 207.856 155.264 207.6 155.68C207.344 156.096 207.152 156.536 207.024 157C206.912 157.464 206.856 157.936 206.856 158.416V164.584H204.528Z" fill="white"/>
</svg>
