<svg width="139" height="139" viewBox="0 0 139 139" fill="none" xmlns="http://www.w3.org/2000/svg">
<rect x="0.373535" width="138.082" height="138.082" rx="24.6576" fill="#CACAD1"/>
<path d="M85.2877 43.9892V56.6954L98.9385 49.8665V32.564C98.9385 32.5599 82.5604 39.2149 82.5604 39.2149L66.1765 32.5599L82.5587 26.3203L93.0554 30.1973" stroke="#545457" stroke-width="1.84932" stroke-linecap="round" stroke-linejoin="round"/>
<path d="M53.4798 46.4638V59.3175C53.4798 59.5744 53.3777 59.8208 53.196 60.0025C53.0143 60.1842 52.7679 60.2863 52.511 60.2863H41.0137C40.7568 60.2863 40.5104 60.1842 40.3287 60.0025C40.147 59.8208 40.0449 59.5744 40.0449 59.3175V42.4377C40.0449 42.1807 40.147 41.9343 40.3287 41.7526C40.5104 41.5709 40.7568 41.4689 41.0137 41.4689H59.2333C59.1577 39.8015 58.7356 38.1682 57.9938 36.673C57.252 35.1778 56.2068 33.8536 54.9249 32.7848C54.0754 32.0452 53.3945 31.1319 52.9285 30.1065C52.4624 29.0811 52.222 27.9675 52.2235 26.8412V26.5157C52.213 25.4015 52.4336 24.2971 52.8712 23.2724C53.3089 22.2476 53.9543 21.3247 54.7665 20.5618C54.9294 20.436 55.0646 20.278 55.1637 20.0977C55.2628 19.9173 55.3237 19.7184 55.3425 19.5135C55.3247 18.9065 55.0697 18.3306 54.6322 17.9095C54.1947 17.4883 53.6095 17.2554 53.0023 17.2608H40.4331C40.1304 17.2625 39.831 17.3249 39.5527 17.4442C39.2744 17.5635 39.0228 17.7373 38.8129 17.9555C38.6029 18.1736 38.4387 18.4316 38.3301 18.7143C38.2215 18.9969 38.1706 19.2984 38.1805 19.6011C38.2012 19.7955 38.2624 19.9834 38.36 20.1528C38.4576 20.3222 38.5895 20.4693 38.7472 20.5848C39.5581 21.319 40.2048 22.2162 40.6449 23.2176C41.085 24.219 41.3087 25.3021 41.3011 26.3959V26.8394C41.3033 27.9662 41.0629 29.0802 40.5964 30.1059C40.1299 31.1315 39.4482 32.0448 38.5975 32.7836C37.2403 33.954 36.1518 35.4035 35.4062 37.0331C34.6607 38.6628 34.2757 40.4342 34.2776 42.2263V60.9504C34.2784 62.6056 34.9362 64.1928 36.1067 65.3633C37.2771 66.5337 38.8643 67.1916 40.5195 67.1923H53.004C54.6592 67.1922 56.2466 66.5345 57.4169 65.3641C58.5873 64.1936 59.2448 62.6062 59.2448 60.951L59.5149 52.6263L80.7221 63.256C81.2893 63.5423 81.9158 63.6915 82.5511 63.6915C83.1865 63.6915 83.813 63.5423 84.3802 63.256L102.125 54.3796C102.805 54.0408 103.378 53.519 103.778 52.8728C104.178 52.2266 104.39 51.4815 104.39 50.7215V31.5182C104.39 30.6854 104.136 29.8725 103.662 29.1878C103.188 28.5031 102.516 27.9793 101.737 27.6861L83.9873 21.0301C83.0639 20.674 82.0417 20.6707 81.1161 21.0209L61.0303 28.6267" stroke="#545457" stroke-width="1.84932" stroke-linejoin="round"/>
<path d="M35.8984 89.2744H39.3782C40.3251 89.2744 41.0826 89.5158 41.6507 89.9987C42.2188 90.4722 42.5029 91.116 42.5029 91.9304C42.5029 92.4606 42.3703 92.934 42.1052 93.3507C41.8401 93.7578 41.5276 94.0419 41.1678 94.2028C41.5939 94.3354 41.9726 94.6053 42.304 95.0124C42.6354 95.4196 42.8012 95.9262 42.8012 96.5322C42.8012 97.3749 42.4982 98.0472 41.8922 98.549C41.2956 99.0508 40.5097 99.3018 39.5344 99.3018H35.8984V89.2744ZM39.3924 94.842H37.3046V98.0093H39.5628C40.0836 98.0093 40.505 97.8578 40.8269 97.5548C41.1583 97.2423 41.324 96.8588 41.324 96.4043C41.324 95.9593 41.1394 95.59 40.7701 95.2965C40.4103 94.9935 39.9511 94.842 39.3924 94.842ZM37.3046 93.6631H39.3924C39.9227 93.6631 40.3298 93.5116 40.6139 93.2086C40.8979 92.8962 41.04 92.5079 41.04 92.044C41.04 91.6179 40.8885 91.2628 40.5855 90.9787C40.2825 90.6947 39.8706 90.5527 39.3498 90.5527H37.3046V93.6631ZM47.4132 99.4722C46.5799 99.4722 45.9076 99.2071 45.3963 98.6768C44.885 98.1371 44.6294 97.3985 44.6294 96.4611V92.115H46.0071V96.4043C46.0071 96.9725 46.168 97.4175 46.49 97.7394C46.8119 98.0519 47.2143 98.2081 47.6972 98.2081C48.0476 98.2081 48.36 98.1324 48.6346 97.9809C48.9092 97.8294 49.1223 97.6305 49.2738 97.3843C49.4253 97.1382 49.5342 96.8778 49.6004 96.6032C49.6762 96.3286 49.7141 96.0492 49.7141 95.7652V92.115H51.0918V99.3018H49.7425V98.2223C49.288 99.0556 48.5115 99.4722 47.4132 99.4722ZM52.7859 97.8814L53.7943 97.1571C54.2773 97.8862 54.8785 98.2507 55.5981 98.2507C56.0053 98.2507 56.3272 98.1797 56.564 98.0377C56.8007 97.8862 56.919 97.6873 56.919 97.4412C56.919 97.176 56.8101 96.963 56.5924 96.802C56.384 96.641 55.958 96.4564 55.3141 96.2481C54.5376 96.0019 53.9695 95.7131 53.6097 95.3817C53.2499 95.0408 53.07 94.5863 53.07 94.0182C53.07 93.4596 53.3162 92.9766 53.8086 92.5695C54.3009 92.1529 54.9117 91.9446 55.6407 91.9446C56.777 91.9446 57.6055 92.4085 58.1263 93.3365L57.1321 94.075C56.7344 93.4596 56.2183 93.1518 55.5839 93.1518C55.2336 93.1518 54.9495 93.2323 54.7318 93.3933C54.5234 93.5448 54.4193 93.7436 54.4193 93.9898C54.4193 94.2171 54.5234 94.4112 54.7318 94.5721C54.9401 94.7236 55.3283 94.8941 55.8964 95.0834C56.7391 95.3675 57.3451 95.68 57.7144 96.0208C58.0837 96.3617 58.2683 96.8257 58.2683 97.4127C58.2683 98.0093 58.0174 98.5017 57.5156 98.8899C57.0137 99.2781 56.3793 99.4722 55.6123 99.4722C54.9969 99.4722 54.4335 99.3302 53.9222 99.0461C53.4109 98.762 53.0321 98.3738 52.7859 97.8814ZM60.0696 92.115H61.4473V99.3018H60.0696V92.115ZM60.1548 90.5953C59.9843 90.4154 59.8991 90.207 59.8991 89.9703C59.8991 89.7336 59.9843 89.53 60.1548 89.3596C60.3252 89.1892 60.5288 89.1039 60.7655 89.1039C61.0022 89.1039 61.2058 89.1892 61.3762 89.3596C61.5467 89.53 61.6319 89.7336 61.6319 89.9703C61.6319 90.207 61.5467 90.4154 61.3762 90.5953C61.2058 90.7657 61.0022 90.8509 60.7655 90.8509C60.5288 90.8509 60.3252 90.7657 60.1548 90.5953ZM63.8006 99.3018V92.115H65.1499V93.1944C65.6044 92.3612 66.3809 91.9446 67.4792 91.9446C68.3125 91.9446 68.9848 92.2144 69.4961 92.7541C70.0074 93.2844 70.2631 94.0182 70.2631 94.9556V99.3018H68.8854V95.0124C68.8854 94.4443 68.7244 94.004 68.4024 93.6915C68.0805 93.3696 67.6781 93.2086 67.1952 93.2086C66.8448 93.2086 66.5324 93.2844 66.2578 93.4359C65.9832 93.5874 65.7701 93.7862 65.6186 94.0324C65.4671 94.2786 65.3535 94.539 65.2778 94.8136C65.2115 95.0882 65.1783 95.3675 65.1783 95.6516V99.3018H63.8006ZM73.0225 98.407C72.3123 97.6873 71.9572 96.7925 71.9572 95.7226C71.9572 94.6526 72.2934 93.7578 72.9656 93.0382C73.6474 92.3091 74.5232 91.9446 75.5932 91.9446C76.5969 91.9446 77.4017 92.2665 78.0077 92.9104C78.6137 93.5448 78.9167 94.3354 78.9167 95.2823C78.9167 95.5474 78.8931 95.8078 78.8457 96.0635H73.4059C73.4722 96.7263 73.7326 97.2518 74.1871 97.64C74.6416 98.0187 75.1908 98.2081 75.8347 98.2081C76.63 98.2081 77.3071 97.9051 77.8657 97.2991L78.7037 98.2649C77.9083 99.0698 76.9425 99.4722 75.8063 99.4722C74.67 99.4722 73.7421 99.1171 73.0225 98.407ZM75.6074 93.1802C75.0488 93.1802 74.5753 93.3365 74.1871 93.6489C73.7989 93.9614 73.5527 94.3922 73.4485 94.9414H77.5674V94.9272C77.5201 94.397 77.3118 93.9756 76.9425 93.6631C76.5827 93.3412 76.1377 93.1802 75.6074 93.1802ZM80.0409 97.8814L81.0493 97.1571C81.5322 97.8862 82.1335 98.2507 82.8531 98.2507C83.2603 98.2507 83.5822 98.1797 83.8189 98.0377C84.0556 97.8862 84.174 97.6873 84.174 97.4412C84.174 97.176 84.0651 96.963 83.8473 96.802C83.639 96.641 83.2129 96.4564 82.569 96.2481C81.7926 96.0019 81.2245 95.7131 80.8647 95.3817C80.5049 95.0408 80.3249 94.5863 80.3249 94.0182C80.3249 93.4596 80.5711 92.9766 81.0635 92.5695C81.5559 92.1529 82.1666 91.9446 82.8957 91.9446C84.032 91.9446 84.8605 92.4085 85.3813 93.3365L84.387 94.075C83.9893 93.4596 83.4733 93.1518 82.8389 93.1518C82.4886 93.1518 82.2045 93.2323 81.9867 93.3933C81.7784 93.5448 81.6742 93.7436 81.6742 93.9898C81.6742 94.2171 81.7784 94.4112 81.9867 94.5721C82.195 94.7236 82.5832 94.8941 83.1514 95.0834C83.9941 95.3675 84.6001 95.68 84.9694 96.0208C85.3386 96.3617 85.5233 96.8257 85.5233 97.4127C85.5233 98.0093 85.2724 98.5017 84.7705 98.8899C84.2687 99.2781 83.6343 99.4722 82.8673 99.4722C82.2518 99.4722 81.6884 99.3302 81.1771 99.0461C80.6658 98.762 80.2871 98.3738 80.0409 97.8814ZM86.657 97.8814L87.6654 97.1571C88.1483 97.8862 88.7496 98.2507 89.4692 98.2507C89.8763 98.2507 90.1983 98.1797 90.435 98.0377C90.6717 97.8862 90.7901 97.6873 90.7901 97.4412C90.7901 97.176 90.6812 96.963 90.4634 96.802C90.2551 96.641 89.829 96.4564 89.1851 96.2481C88.4087 96.0019 87.8406 95.7131 87.4808 95.3817C87.1209 95.0408 86.941 94.5863 86.941 94.0182C86.941 93.4596 87.1872 92.9766 87.6796 92.5695C88.172 92.1529 88.7827 91.9446 89.5118 91.9446C90.648 91.9446 91.4766 92.4085 91.9973 93.3365L91.0031 94.075C90.6054 93.4596 90.0894 93.1518 89.455 93.1518C89.1046 93.1518 88.8206 93.2323 88.6028 93.3933C88.3945 93.5448 88.2903 93.7436 88.2903 93.9898C88.2903 94.2171 88.3945 94.4112 88.6028 94.5721C88.8111 94.7236 89.1993 94.8941 89.7674 95.0834C90.6102 95.3675 91.2162 95.68 91.5854 96.0208C91.9547 96.3617 92.1394 96.8257 92.1394 97.4127C92.1394 98.0093 91.8884 98.5017 91.3866 98.8899C90.8848 99.2781 90.2504 99.4722 89.4834 99.4722C88.8679 99.4722 88.3045 99.3302 87.7932 99.0461C87.2819 98.762 86.9032 98.3738 86.657 97.8814ZM100.433 99.4722C99.4575 99.4722 98.6195 99.2213 97.9188 98.7194C97.2181 98.2081 96.8678 97.5358 96.8678 96.7026C96.8678 96.1345 97.0477 95.6326 97.4075 95.1971C97.7768 94.752 98.326 94.3117 99.0551 93.8762C98.6479 93.4311 98.3496 93.0335 98.1603 92.6831C97.9709 92.3328 97.8762 91.9493 97.8762 91.5327C97.8762 90.8888 98.1224 90.3254 98.6148 89.8425C99.1166 89.3501 99.7605 89.1039 100.546 89.1039C101.323 89.1039 101.957 89.3454 102.45 89.8283C102.951 90.3017 103.202 90.8557 103.202 91.4901C103.202 91.9919 103.037 92.4369 102.705 92.8251C102.374 93.2039 101.82 93.63 101.043 94.1034L103.259 96.4753C103.695 95.6894 103.86 94.8278 103.756 93.8904H105.12C105.262 95.2444 104.968 96.4517 104.239 97.5122L105.915 99.3018H104.14L103.359 98.4638C102.516 99.1361 101.541 99.4722 100.433 99.4722ZM98.3165 96.6458C98.307 97.1192 98.5201 97.4885 98.9556 97.7536C99.4007 98.0093 99.9025 98.1371 100.461 98.1371C101.2 98.1371 101.853 97.9146 102.421 97.4696L99.9214 94.8136C99.3912 95.126 98.9935 95.4196 98.7284 95.6942C98.4633 95.9688 98.326 96.286 98.3165 96.6458ZM100.546 90.3538C100.158 90.3538 99.8362 90.4674 99.5806 90.6947C99.3344 90.9219 99.2113 91.1965 99.2113 91.5185C99.2113 91.812 99.2823 92.0724 99.4243 92.2996C99.5758 92.5269 99.8268 92.8204 100.177 93.1802C100.793 92.8204 101.228 92.5221 101.484 92.2854C101.739 92.0487 101.867 91.7883 101.867 91.5043C101.867 91.1918 101.739 90.9219 101.484 90.6947C101.238 90.4674 100.925 90.3538 100.546 90.3538ZM34.4673 117.302L38.3589 107.274H39.836L43.7277 117.302H42.279L41.2279 114.575H36.967L35.916 117.302H34.4673ZM37.4215 113.254H40.7734L39.0975 108.808L37.4215 113.254ZM47.8617 117.472C46.8959 117.472 46.0863 117.117 45.4329 116.407C44.7796 115.697 44.4529 114.797 44.4529 113.708C44.4529 112.619 44.7796 111.72 45.4329 111.01C46.0863 110.3 46.8959 109.945 47.8617 109.945C48.3446 109.945 48.8085 110.058 49.2536 110.285C49.6986 110.503 50.0253 110.778 50.2336 111.109V107.274H51.6113V117.302H50.2904V116.237C50.0916 116.587 49.7601 116.88 49.2962 117.117C48.8322 117.354 48.354 117.472 47.8617 117.472ZM49.6655 111.919C49.2299 111.445 48.7044 111.209 48.0889 111.209C47.4735 111.209 46.9432 111.445 46.4982 111.919C46.0626 112.383 45.8448 112.979 45.8448 113.708C45.8448 114.437 46.0626 115.039 46.4982 115.512C46.9432 115.976 47.4735 116.208 48.0889 116.208C48.7044 116.208 49.2299 115.976 49.6655 115.512C50.101 115.039 50.3188 114.437 50.3188 113.708C50.3188 112.979 50.101 112.383 49.6655 111.919ZM52.9298 110.115H54.407L56.4948 115.455L58.5827 110.115H60.0598L57.1198 117.302H55.8699L52.9298 110.115ZM61.7876 116.407C61.0774 115.687 60.7223 114.793 60.7223 113.723C60.7223 112.653 61.0585 111.758 61.7308 111.038C62.4125 110.309 63.2884 109.945 64.3583 109.945C65.362 109.945 66.1669 110.266 66.7729 110.91C67.3789 111.545 67.6819 112.335 67.6819 113.282C67.6819 113.547 67.6582 113.808 67.6108 114.063H62.1711C62.2373 114.726 62.4977 115.252 62.9522 115.64C63.4067 116.019 63.9559 116.208 64.5998 116.208C65.3952 116.208 66.0722 115.905 66.6308 115.299L67.4688 116.265C66.6734 117.07 65.7076 117.472 64.5714 117.472C63.4351 117.472 62.5072 117.117 61.7876 116.407ZM64.3725 111.18C63.8139 111.18 63.3405 111.336 62.9522 111.649C62.564 111.961 62.3178 112.392 62.2137 112.941H66.3326V112.927C66.2852 112.397 66.0769 111.976 65.7076 111.663C65.3478 111.341 64.9028 111.18 64.3725 111.18ZM69.4736 110.115H70.8229V111.379C71.0028 110.934 71.2726 110.584 71.6324 110.328C71.9922 110.072 72.4089 109.945 72.8823 109.945C73.0622 109.945 73.209 109.963 73.3226 110.001V111.351C73.2468 111.332 73.1522 111.322 73.0385 111.322C72.3757 111.322 71.8455 111.545 71.4478 111.99C71.0501 112.425 70.8513 113.008 70.8513 113.737V117.302H69.4736V110.115ZM74.0744 110.115H75.1964V108.141H76.5315V110.115H78.3779V111.265H76.5315V115.015C76.5315 115.801 76.9197 116.194 77.6962 116.194C78.0086 116.194 78.2927 116.118 78.5483 115.967V117.231C78.2737 117.392 77.8903 117.472 77.3979 117.472C76.6972 117.472 76.148 117.273 75.7503 116.876C75.3526 116.469 75.1538 115.905 75.1538 115.185V111.265H74.0744V110.115ZM80.0981 110.115H81.4758V117.302H80.0981V110.115ZM80.1834 108.595C80.0129 108.415 79.9277 108.207 79.9277 107.97C79.9277 107.734 80.0129 107.53 80.1834 107.36C80.3538 107.189 80.5574 107.104 80.7941 107.104C81.0308 107.104 81.2344 107.189 81.4048 107.36C81.5753 107.53 81.6605 107.734 81.6605 107.97C81.6605 108.207 81.5753 108.415 81.4048 108.595C81.2344 108.766 81.0308 108.851 80.7941 108.851C80.5574 108.851 80.3538 108.766 80.1834 108.595ZM83.1617 115.881L84.1701 115.157C84.653 115.886 85.2543 116.251 85.9739 116.251C86.3811 116.251 86.703 116.18 86.9397 116.038C87.1764 115.886 87.2948 115.687 87.2948 115.441C87.2948 115.176 87.1859 114.963 86.9681 114.802C86.7598 114.641 86.3337 114.456 85.6898 114.248C84.9134 114.002 84.3453 113.713 83.9855 113.382C83.6257 113.041 83.4457 112.586 83.4457 112.018C83.4457 111.46 83.6919 110.977 84.1843 110.569C84.6767 110.153 85.2874 109.945 86.0165 109.945C87.1528 109.945 87.9813 110.409 88.5021 111.336L87.5078 112.075C87.1101 111.46 86.5941 111.152 85.9597 111.152C85.6094 111.152 85.3253 111.232 85.1075 111.393C84.8992 111.545 84.795 111.744 84.795 111.99C84.795 112.217 84.8992 112.411 85.1075 112.572C85.3158 112.724 85.704 112.894 86.2722 113.083C87.1149 113.368 87.7209 113.68 88.0902 114.021C88.4594 114.362 88.6441 114.826 88.6441 115.413C88.6441 116.009 88.3932 116.502 87.8913 116.89C87.3895 117.278 86.7551 117.472 85.9881 117.472C85.3726 117.472 84.8092 117.33 84.2979 117.046C83.7866 116.762 83.4079 116.374 83.1617 115.881ZM90.4453 110.115H91.823V117.302H90.4453V110.115ZM90.5305 108.595C90.3601 108.415 90.2749 108.207 90.2749 107.97C90.2749 107.734 90.3601 107.53 90.5305 107.36C90.701 107.189 90.9046 107.104 91.1413 107.104C91.378 107.104 91.5816 107.189 91.752 107.36C91.9224 107.53 92.0077 107.734 92.0077 107.97C92.0077 108.207 91.9224 108.415 91.752 108.595C91.5816 108.766 91.378 108.851 91.1413 108.851C90.9046 108.851 90.701 108.766 90.5305 108.595ZM94.1764 117.302V110.115H95.5257V111.194C95.9802 110.361 96.7566 109.945 97.855 109.945C98.6882 109.945 99.3605 110.214 99.8718 110.754C100.383 111.284 100.639 112.018 100.639 112.956V117.302H99.2611V113.012C99.2611 112.444 99.1001 112.004 98.7782 111.692C98.4563 111.37 98.0538 111.209 97.5709 111.209C97.2206 111.209 96.9081 111.284 96.6335 111.436C96.3589 111.587 96.1459 111.786 95.9944 112.032C95.8429 112.279 95.7293 112.539 95.6535 112.814C95.5872 113.088 95.5541 113.368 95.5541 113.652V117.302H94.1764ZM102.191 118.31C102.191 117.666 102.593 117.146 103.398 116.748C103.086 116.521 102.93 116.199 102.93 115.782C102.93 115.375 103.143 115.015 103.569 114.703C103.209 114.466 102.92 114.163 102.702 113.794C102.494 113.415 102.39 113.008 102.39 112.572C102.39 111.843 102.664 111.223 103.214 110.712C103.772 110.2 104.454 109.945 105.259 109.945C105.619 109.945 105.964 110.001 106.296 110.115H108.937V111.265H107.759C108.005 111.654 108.128 112.089 108.128 112.572C108.128 113.301 107.849 113.921 107.29 114.433C106.741 114.944 106.064 115.2 105.259 115.2C105.013 115.2 104.766 115.171 104.52 115.114C104.331 115.257 104.236 115.417 104.236 115.597C104.236 115.749 104.293 115.872 104.407 115.967C104.52 116.061 104.653 116.109 104.804 116.109H106.622C107.342 116.109 107.92 116.298 108.355 116.677C108.791 117.046 109.008 117.524 109.008 118.111C109.008 118.746 108.677 119.271 108.014 119.688C107.361 120.105 106.499 120.313 105.429 120.313C104.426 120.313 103.635 120.133 103.057 119.773C102.48 119.423 102.191 118.935 102.191 118.31ZM106.338 111.578C106.045 111.294 105.685 111.152 105.259 111.152C104.833 111.152 104.468 111.294 104.165 111.578C103.872 111.853 103.725 112.184 103.725 112.572C103.725 112.96 103.872 113.296 104.165 113.581C104.468 113.855 104.833 113.992 105.259 113.992C105.685 113.992 106.045 113.855 106.338 113.581C106.641 113.296 106.793 112.96 106.793 112.572C106.793 112.184 106.641 111.853 106.338 111.578ZM103.569 118.182C103.569 118.457 103.744 118.675 104.094 118.836C104.445 118.997 104.899 119.077 105.458 119.077C106.158 119.077 106.698 118.992 107.077 118.821C107.465 118.651 107.659 118.424 107.659 118.14C107.659 117.884 107.55 117.685 107.332 117.543C107.115 117.401 106.84 117.33 106.509 117.33H104.407C104.198 117.387 104.004 117.486 103.824 117.628C103.654 117.77 103.569 117.955 103.569 118.182Z" fill="#545457"/>
</svg>
