<svg width="139" height="139" viewBox="0 0 139 139" fill="none" xmlns="http://www.w3.org/2000/svg">
<rect x="0.120605" width="138.082" height="138.082" rx="24.6576" fill="#CACAD1"/>
<path d="M56.1409 26.8723H82.1581C82.3252 26.8569 82.4936 26.8765 82.6527 26.9299C82.8118 26.9832 82.958 27.0692 83.082 27.1823C83.206 27.2953 83.305 27.433 83.3728 27.5865C83.4405 27.74 83.4755 27.906 83.4755 28.0738C83.4755 28.2416 83.4405 28.4075 83.3728 28.561C83.305 28.7145 83.206 28.8522 83.082 28.9653C82.958 29.0784 82.8118 29.1643 82.6527 29.2177C82.4936 29.2711 82.3252 29.2907 82.1581 29.2753H56.1409C55.9738 29.2907 55.8054 29.2711 55.6463 29.2177C55.4872 29.1643 55.341 29.0784 55.217 28.9653C55.093 28.8522 54.994 28.7145 54.9262 28.561C54.8585 28.4075 54.8235 28.2416 54.8235 28.0738C54.8235 27.906 54.8585 27.74 54.9262 27.5865C54.994 27.433 55.093 27.2953 55.217 27.1823C55.341 27.0692 55.4872 26.9832 55.6463 26.9299C55.8054 26.8765 55.9738 26.8569 56.1409 26.8723Z" fill="#545457"/>
<path d="M91.1682 28.134V24.3118C91.1682 23.2592 90.75 22.2496 90.0057 21.5053C89.2613 20.7609 88.2518 20.3428 87.1992 20.3428H47.3521C46.2995 20.3428 45.2899 20.7609 44.5456 21.5053C43.8012 22.2496 43.3831 23.2592 43.3831 24.3118V68.9387C43.3831 69.9914 43.8012 71.001 44.5456 71.7453C45.2899 72.4896 46.2995 72.9078 47.3521 72.9078H87.2008C88.2535 72.9078 89.2631 72.4896 90.0074 71.7453C90.7517 71.001 91.1699 69.9914 91.1699 68.9387V34.7306H51.366C51.1425 34.7119 50.9206 34.7817 50.7481 34.925C50.5755 35.0682 50.4661 35.2735 50.4434 35.4966V62.2254C50.4661 62.4485 50.5755 62.6539 50.748 62.7972C50.9205 62.9406 51.1424 63.0105 51.366 62.992H82.8916C83.1152 63.0107 83.3371 62.9408 83.5097 62.7974C83.6822 62.654 83.7916 62.4486 83.8141 62.2254V40.0276" stroke="#545457" stroke-width="1.84932" stroke-linejoin="round"/>
<path d="M47.8789 24.5039C47.8797 24.2918 47.9433 24.0847 48.0617 23.9087C48.1801 23.7327 48.3481 23.5958 48.5443 23.5151C48.7405 23.4345 48.9561 23.4138 49.1641 23.4557C49.372 23.4975 49.5629 23.6001 49.7126 23.7503C49.8623 23.9006 49.9642 24.0919 50.0053 24.3C50.0464 24.5081 50.0249 24.7237 49.9435 24.9196C49.8622 25.1155 49.7246 25.2829 49.5482 25.4006C49.3717 25.5184 49.1644 25.5813 48.9523 25.5813C48.811 25.5813 48.6711 25.5534 48.5406 25.4992C48.4101 25.445 48.2916 25.3656 48.1919 25.2655C48.0922 25.1654 48.0132 25.0466 47.9595 24.9159C47.9058 24.7852 47.8784 24.6452 47.8789 24.5039Z" fill="#545457"/>
<path d="M50.5845 24.5039C50.5853 24.2918 50.6489 24.0847 50.7673 23.9087C50.8857 23.7327 51.0536 23.5958 51.2498 23.5151C51.446 23.4345 51.6617 23.4138 51.8696 23.4557C52.0776 23.4975 52.2685 23.6001 52.4182 23.7503C52.5679 23.9006 52.6697 24.0919 52.7108 24.3C52.7519 24.5081 52.7304 24.7237 52.6491 24.9196C52.5677 25.1155 52.4302 25.2829 52.2537 25.4006C52.0773 25.5184 51.8699 25.5813 51.6578 25.5813C51.5165 25.5813 51.3766 25.5534 51.2462 25.4992C51.1157 25.445 50.9972 25.3656 50.8974 25.2655C50.7977 25.1654 50.7187 25.0466 50.665 24.9159C50.6113 24.7852 50.584 24.6452 50.5845 24.5039Z" fill="#545457"/>
<path d="M53.2925 24.5039C53.2933 24.292 53.3568 24.085 53.475 23.9091C53.5933 23.7332 53.7609 23.5963 53.9569 23.5155C54.1529 23.4348 54.3684 23.4138 54.5762 23.4554C54.784 23.4969 54.9749 23.5991 55.1248 23.7489C55.2747 23.8988 55.3768 24.0897 55.4184 24.2975C55.4599 24.5054 55.439 24.7209 55.3582 24.9168C55.2775 25.1128 55.1405 25.2805 54.9646 25.3987C54.7887 25.517 54.5818 25.5805 54.3698 25.5813C54.2282 25.5818 54.0879 25.5543 53.9569 25.5003C53.826 25.4464 53.707 25.367 53.6069 25.2669C53.5067 25.1667 53.4274 25.0478 53.3734 24.9168C53.3195 24.7859 53.292 24.6456 53.2925 24.5039Z" fill="#545457"/>
<path d="M49.9052 99.3018L46.8799 89.2744H48.3429L50.658 97.2707L53.1435 89.2744H54.6206L57.1062 97.2707L59.4213 89.2744H60.8842L57.8589 99.3018H56.4102L53.8821 91.3764L51.3539 99.3018H49.9052ZM62.2976 98.407C61.5875 97.6873 61.2324 96.7925 61.2324 95.7226C61.2324 94.6526 61.5685 93.7578 62.2408 93.0382C62.9226 92.3091 63.7984 91.9446 64.8684 91.9446C65.8721 91.9446 66.6769 92.2665 67.2829 92.9104C67.8889 93.5448 68.1919 94.3354 68.1919 95.2823C68.1919 95.5474 68.1682 95.8078 68.1209 96.0635H62.6811C62.7474 96.7263 63.0078 97.2518 63.4623 97.64C63.9168 98.0187 64.466 98.2081 65.1098 98.2081C65.9052 98.2081 66.5822 97.9051 67.1409 97.2991L67.9789 98.2649C67.1835 99.0698 66.2177 99.4722 65.0814 99.4722C63.9452 99.4722 63.0173 99.1171 62.2976 98.407ZM64.8826 93.1802C64.3239 93.1802 63.8505 93.3365 63.4623 93.6489C63.0741 93.9614 62.8279 94.3922 62.7237 94.9414H66.8426V94.9272C66.7953 94.397 66.587 93.9756 66.2177 93.6631C65.8579 93.3412 65.4128 93.1802 64.8826 93.1802ZM69.9836 89.2744H71.3613V93.1092C71.5696 92.7778 71.8963 92.5032 72.3413 92.2854C72.7864 92.0582 73.2503 91.9446 73.7332 91.9446C74.699 91.9446 75.5086 92.2996 76.162 93.0098C76.8153 93.7199 77.142 94.6195 77.142 95.7084C77.142 96.7973 76.8153 97.6968 76.162 98.407C75.5086 99.1171 74.699 99.4722 73.7332 99.4722C73.2409 99.4722 72.7627 99.3538 72.2987 99.1171C71.8347 98.8804 71.5033 98.5869 71.3045 98.2365V99.3018H69.9836V89.2744ZM75.0825 93.9188C74.647 93.4453 74.1214 93.2086 73.506 93.2086C72.8905 93.2086 72.365 93.4453 71.9294 93.9188C71.4939 94.3828 71.2761 94.9793 71.2761 95.7084C71.2761 96.4375 71.4939 97.0387 71.9294 97.5122C72.365 97.9761 72.8905 98.2081 73.506 98.2081C74.1214 98.2081 74.647 97.9761 75.0825 97.5122C75.5276 97.0387 75.7501 96.4375 75.7501 95.7084C75.7501 94.9793 75.5276 94.3828 75.0825 93.9188ZM85.4498 99.4722C84.4745 99.4722 83.6365 99.2213 82.9358 98.7194C82.2351 98.2081 81.8848 97.5358 81.8848 96.7026C81.8848 96.1345 82.0647 95.6326 82.4245 95.1971C82.7938 94.752 83.343 94.3117 84.0721 93.8762C83.6649 93.4311 83.3667 93.0335 83.1773 92.6831C82.9879 92.3328 82.8932 91.9493 82.8932 91.5327C82.8932 90.8888 83.1394 90.3254 83.6318 89.8425C84.1336 89.3501 84.7775 89.1039 85.5634 89.1039C86.3398 89.1039 86.9742 89.3454 87.4666 89.8283C87.9685 90.3017 88.2194 90.8557 88.2194 91.4901C88.2194 91.9919 88.0537 92.4369 87.7223 92.8251C87.3909 93.2039 86.8369 93.63 86.0605 94.1034L88.2762 96.4753C88.7118 95.6894 88.8775 94.8278 88.7733 93.8904H90.1368C90.2788 95.2444 89.9853 96.4517 89.2562 97.5122L90.9322 99.3018H89.1568L88.3756 98.4638C87.5329 99.1361 86.5576 99.4722 85.4498 99.4722ZM83.3335 96.6458C83.3241 97.1192 83.5371 97.4885 83.9727 97.7536C84.4177 98.0093 84.9195 98.1371 85.4782 98.1371C86.2167 98.1371 86.8701 97.9146 87.4382 97.4696L84.9385 94.8136C84.4082 95.126 84.0105 95.4196 83.7454 95.6942C83.4803 95.9688 83.343 96.286 83.3335 96.6458ZM85.5634 90.3538C85.1752 90.3538 84.8533 90.4674 84.5976 90.6947C84.3514 90.9219 84.2283 91.1965 84.2283 91.5185C84.2283 91.812 84.2993 92.0724 84.4414 92.2996C84.5929 92.5269 84.8438 92.8204 85.1941 93.1802C85.8096 92.8204 86.2452 92.5221 86.5008 92.2854C86.7565 92.0487 86.8843 91.7883 86.8843 91.5043C86.8843 91.1918 86.7565 90.9219 86.5008 90.6947C86.2546 90.4674 85.9422 90.3538 85.5634 90.3538ZM31.5514 117.302L35.443 107.274H36.9201L40.8118 117.302H39.3631L38.312 114.575H34.0511L33.0001 117.302H31.5514ZM34.5056 113.254H37.8575L36.1816 108.808L34.5056 113.254ZM42.0768 110.115H43.3976V111.166C43.6249 110.816 43.961 110.527 44.4061 110.3C44.8606 110.063 45.334 109.945 45.8264 109.945C46.7922 109.945 47.6018 110.3 48.2551 111.01C48.9084 111.72 49.2351 112.619 49.2351 113.708C49.2351 114.797 48.9084 115.697 48.2551 116.407C47.6018 117.117 46.7922 117.472 45.8264 117.472C45.3529 117.472 44.8937 117.363 44.4487 117.146C44.0036 116.928 43.6722 116.653 43.4545 116.322V120.142H42.0768V110.115ZM44.0226 111.919C43.587 112.383 43.3692 112.979 43.3692 113.708C43.3692 114.437 43.587 115.039 44.0226 115.512C44.4581 115.976 44.9837 116.208 45.5991 116.208C46.2146 116.208 46.7401 115.976 47.1757 115.512C47.6207 115.039 47.8432 114.437 47.8432 113.708C47.8432 112.979 47.6207 112.383 47.1757 111.919C46.7401 111.445 46.2146 111.209 45.5991 111.209C44.9837 111.209 44.4581 111.445 44.0226 111.919ZM51.0508 110.115H52.3717V111.166C52.5989 110.816 52.9351 110.527 53.3801 110.3C53.8346 110.063 54.308 109.945 54.8004 109.945C55.7662 109.945 56.5758 110.3 57.2291 111.01C57.8825 111.72 58.2091 112.619 58.2091 113.708C58.2091 114.797 57.8825 115.697 57.2291 116.407C56.5758 117.117 55.7662 117.472 54.8004 117.472C54.327 117.472 53.8677 117.363 53.4227 117.146C52.9777 116.928 52.6463 116.653 52.4285 116.322V120.142H51.0508V110.115ZM52.9966 111.919C52.561 112.383 52.3433 112.979 52.3433 113.708C52.3433 114.437 52.561 115.039 52.9966 115.512C53.4322 115.976 53.9577 116.208 54.5731 116.208C55.1886 116.208 55.7141 115.976 56.1497 115.512C56.5947 115.039 56.8172 114.437 56.8172 113.708C56.8172 112.979 56.5947 112.383 56.1497 111.919C55.7141 111.445 55.1886 111.209 54.5731 111.209C53.9577 111.209 53.4322 111.445 52.9966 111.919ZM66.3891 117.472C65.4233 117.472 64.6137 117.117 63.9604 116.407C63.307 115.697 62.9804 114.797 62.9804 113.708C62.9804 112.619 63.307 111.72 63.9604 111.01C64.6137 110.3 65.4233 109.945 66.3891 109.945C66.872 109.945 67.336 110.058 67.781 110.285C68.2261 110.503 68.5527 110.778 68.761 111.109V107.274H70.1387V117.302H68.8178V116.237C68.619 116.587 68.2876 116.88 67.8236 117.117C67.3597 117.354 66.8815 117.472 66.3891 117.472ZM68.1929 111.919C67.7573 111.445 67.2318 111.209 66.6164 111.209C66.0009 111.209 65.4707 111.445 65.0256 111.919C64.5901 112.383 64.3723 112.979 64.3723 113.708C64.3723 114.437 64.5901 115.039 65.0256 115.512C65.4707 115.976 66.0009 116.208 66.6164 116.208C67.2318 116.208 67.7573 115.976 68.1929 115.512C68.6285 115.039 68.8463 114.437 68.8463 113.708C68.8463 112.979 68.6285 112.383 68.1929 111.919ZM73.0054 116.407C72.2953 115.687 71.9402 114.793 71.9402 113.723C71.9402 112.653 72.2763 111.758 72.9486 111.038C73.6304 110.309 74.5062 109.945 75.5762 109.945C76.5799 109.945 77.3847 110.266 77.9907 110.91C78.5967 111.545 78.8997 112.335 78.8997 113.282C78.8997 113.547 78.876 113.808 78.8287 114.063H73.3889C73.4552 114.726 73.7156 115.252 74.1701 115.64C74.6246 116.019 75.1738 116.208 75.8176 116.208C76.613 116.208 77.29 115.905 77.8487 115.299L78.6867 116.265C77.8913 117.07 76.9255 117.472 75.7892 117.472C74.653 117.472 73.7251 117.117 73.0054 116.407ZM75.5904 111.18C75.0317 111.18 74.5583 111.336 74.1701 111.649C73.7819 111.961 73.5357 112.392 73.4315 112.941H77.5504V112.927C77.5031 112.397 77.2948 111.976 76.9255 111.663C76.5657 111.341 76.1206 111.18 75.5904 111.18ZM80.0239 115.881L81.0323 115.157C81.5152 115.886 82.1165 116.251 82.8361 116.251C83.2432 116.251 83.5652 116.18 83.8019 116.038C84.0386 115.886 84.157 115.687 84.157 115.441C84.157 115.176 84.0481 114.963 83.8303 114.802C83.622 114.641 83.1959 114.456 82.552 114.248C81.7756 114.002 81.2075 113.713 80.8476 113.382C80.4878 113.041 80.3079 112.586 80.3079 112.018C80.3079 111.46 80.5541 110.977 81.0465 110.569C81.5389 110.153 82.1496 109.945 82.8787 109.945C84.0149 109.945 84.8435 110.409 85.3642 111.336L84.37 112.075C83.9723 111.46 83.4563 111.152 82.8219 111.152C82.4715 111.152 82.1875 111.232 81.9697 111.393C81.7614 111.545 81.6572 111.744 81.6572 111.99C81.6572 112.217 81.7614 112.411 81.9697 112.572C82.178 112.724 82.5662 112.894 83.1343 113.083C83.9771 113.368 84.5831 113.68 84.9523 114.021C85.3216 114.362 85.5063 114.826 85.5063 115.413C85.5063 116.009 85.2553 116.502 84.7535 116.89C84.2517 117.278 83.6173 117.472 82.8503 117.472C82.2348 117.472 81.6714 117.33 81.1601 117.046C80.6488 116.762 80.2701 116.374 80.0239 115.881ZM87.3075 110.115H88.6852V117.302H87.3075V110.115ZM87.3927 108.595C87.2223 108.415 87.1371 108.207 87.1371 107.97C87.1371 107.734 87.2223 107.53 87.3927 107.36C87.5632 107.189 87.7667 107.104 88.0035 107.104C88.2402 107.104 88.4438 107.189 88.6142 107.36C88.7846 107.53 88.8698 107.734 88.8698 107.97C88.8698 108.207 88.7846 108.415 88.6142 108.595C88.4438 108.766 88.2402 108.851 88.0035 108.851C87.7667 108.851 87.5632 108.766 87.3927 108.595ZM90.3426 118.31C90.3426 117.666 90.7451 117.146 91.5499 116.748C91.2374 116.521 91.0812 116.199 91.0812 115.782C91.0812 115.375 91.2942 115.015 91.7203 114.703C91.3605 114.466 91.0717 114.163 90.8539 113.794C90.6456 113.415 90.5415 113.008 90.5415 112.572C90.5415 111.843 90.8161 111.223 91.3653 110.712C91.9239 110.2 92.6057 109.945 93.4105 109.945C93.7703 109.945 94.1159 110.001 94.4473 110.115H97.0891V111.265H95.9102C96.1564 111.654 96.2795 112.089 96.2795 112.572C96.2795 113.301 96.0002 113.921 95.4415 114.433C94.8924 114.944 94.2153 115.2 93.4105 115.2C93.1643 115.2 92.9181 115.171 92.6719 115.114C92.4826 115.257 92.3879 115.417 92.3879 115.597C92.3879 115.749 92.4447 115.872 92.5583 115.967C92.6719 116.061 92.8045 116.109 92.956 116.109H94.774C95.4936 116.109 96.0712 116.298 96.5068 116.677C96.9423 117.046 97.1601 117.524 97.1601 118.111C97.1601 118.746 96.8287 119.271 96.1659 119.688C95.5126 120.105 94.6509 120.313 93.5809 120.313C92.5773 120.313 91.7866 120.133 91.209 119.773C90.6314 119.423 90.3426 118.935 90.3426 118.31ZM94.4899 111.578C94.1964 111.294 93.8366 111.152 93.4105 111.152C92.9844 111.152 92.6199 111.294 92.3169 111.578C92.0233 111.853 91.8766 112.184 91.8766 112.572C91.8766 112.96 92.0233 113.296 92.3169 113.581C92.6199 113.855 92.9844 113.992 93.4105 113.992C93.8366 113.992 94.1964 113.855 94.4899 113.581C94.7929 113.296 94.9444 112.96 94.9444 112.572C94.9444 112.184 94.7929 111.853 94.4899 111.578ZM91.7203 118.182C91.7203 118.457 91.8955 118.675 92.2458 118.836C92.5962 118.997 93.0507 119.077 93.6093 119.077C94.31 119.077 94.8497 118.992 95.2285 118.821C95.6167 118.651 95.8108 118.424 95.8108 118.14C95.8108 117.884 95.7019 117.685 95.4842 117.543C95.2664 117.401 94.9918 117.33 94.6604 117.33H92.5583C92.35 117.387 92.1559 117.486 91.976 117.628C91.8055 117.77 91.7203 117.955 91.7203 118.182ZM98.7088 117.302V110.115H100.058V111.194C100.513 110.361 101.289 109.945 102.387 109.945C103.221 109.945 103.893 110.214 104.404 110.754C104.916 111.284 105.171 112.018 105.171 112.956V117.302H103.794V113.012C103.794 112.444 103.633 112.004 103.311 111.692C102.989 111.37 102.586 111.209 102.103 111.209C101.753 111.209 101.441 111.284 101.166 111.436C100.891 111.587 100.678 111.786 100.527 112.032C100.375 112.279 100.262 112.539 100.186 112.814C100.12 113.088 100.087 113.368 100.087 113.652V117.302H98.7088Z" fill="#545457"/>
</svg>
