<svg width="139" height="139" viewBox="0 0 139 139" fill="none" xmlns="http://www.w3.org/2000/svg">
<rect x="0.867432" width="138.057" height="138.057" rx="23.3995" fill="#CACAD1"/>
<path d="M52.3118 75.5374C51.0015 76.8478 49.3853 77.503 47.4635 77.503C45.5416 77.503 43.9255 76.8478 42.6151 75.5374C41.3047 74.227 40.6495 72.6047 40.6495 70.6703C40.6495 68.7359 41.3047 67.1136 42.6151 65.8032C43.9255 64.4928 45.5416 63.8376 47.4635 63.8376C49.3853 63.8376 51.0015 64.4928 52.3118 65.8032C53.6222 67.1136 54.2774 68.7359 54.2774 70.6703C54.2774 72.6047 53.6222 74.227 52.3118 75.5374ZM50.9266 67.0948C49.9781 66.1339 48.8238 65.6534 47.4635 65.6534C46.1032 65.6534 44.9426 66.1339 43.9816 67.0948C43.0331 68.0558 42.5589 69.2476 42.5589 70.6703C42.5589 72.093 43.0331 73.2848 43.9816 74.2457C44.9426 75.2067 46.1032 75.6872 47.4635 75.6872C48.8238 75.6872 49.9781 75.2067 50.9266 74.2457C51.8875 73.2848 52.368 72.093 52.368 70.6703C52.368 69.2476 51.8875 68.0558 50.9266 67.0948ZM55.7229 67.8062H57.2018V65.2042H58.9614V67.8062H61.395V69.3225H58.9614V74.2645C58.9614 75.3003 59.4731 75.8182 60.4964 75.8182C60.9083 75.8182 61.2826 75.7184 61.6196 75.5187V77.1847C61.2577 77.3969 60.7523 77.503 60.1033 77.503C59.1798 77.503 58.456 77.2409 57.9318 76.7167C57.4077 76.1801 57.1456 75.4376 57.1456 74.4891V69.3225H55.7229V67.8062ZM63.6622 64.0623H65.478V69.1166C66.1395 68.0932 67.1503 67.5816 68.5106 67.5816C69.5839 67.5816 70.4637 67.9372 71.1501 68.6486C71.8365 69.3599 72.1797 70.3271 72.1797 71.5501V77.2783H70.3639V71.625C70.3639 70.8762 70.1517 70.2959 69.7274 69.8841C69.3031 69.4598 68.7727 69.2476 68.1362 69.2476C67.2377 69.2476 66.57 69.5534 66.1332 70.1649C65.6964 70.7639 65.478 71.469 65.478 72.2802V77.2783H63.6622V64.0623ZM75.8165 76.099C74.8806 75.1505 74.4126 73.9712 74.4126 72.561C74.4126 71.1508 74.8556 69.9714 75.7417 69.023C76.6402 68.062 77.7946 67.5816 79.2048 67.5816C80.5276 67.5816 81.5884 68.0059 82.3871 68.8545C83.1858 69.6906 83.5852 70.7327 83.5852 71.9807C83.5852 72.3301 83.554 72.6733 83.4916 73.0102H76.322C76.4093 73.8838 76.7525 74.5765 77.3515 75.0881C77.9506 75.5873 78.6744 75.8369 79.523 75.8369C80.5713 75.8369 81.4636 75.4376 82.1999 74.6389L83.3044 75.9118C82.2561 76.9726 80.9832 77.503 79.4856 77.503C77.988 77.503 76.765 77.035 75.8165 76.099ZM79.2235 69.2102C78.4872 69.2102 77.8632 69.4161 77.3515 69.8279C76.8399 70.2397 76.5154 70.8076 76.3781 71.5314H81.8068V71.5127C81.7444 70.8138 81.4699 70.2585 80.9832 69.8466C80.5089 69.4223 79.9224 69.2102 79.2235 69.2102ZM85.9466 67.8062H87.725V69.4722C87.9621 68.8857 88.3178 68.4239 88.792 68.087C89.2662 67.75 89.8154 67.5816 90.4393 67.5816C90.6765 67.5816 90.8699 67.6065 91.0197 67.6564V69.4348C90.9198 69.4098 90.795 69.3974 90.6453 69.3974C89.7717 69.3974 89.0728 69.6906 88.5487 70.2772C88.0245 70.8512 87.7624 71.6188 87.7624 72.5797V77.2783H85.9466V67.8062ZM91.9953 75.4064L93.3244 74.4517C93.9608 75.4126 94.7533 75.8931 95.7018 75.8931C96.2384 75.8931 96.6627 75.7995 96.9747 75.6123C97.2867 75.4126 97.4427 75.1505 97.4427 74.826C97.4427 74.4766 97.2992 74.1958 97.0121 73.9837C96.7376 73.7715 96.176 73.5282 95.3274 73.2536C94.304 72.9291 93.5552 72.5485 93.081 72.1117C92.6068 71.6624 92.3697 71.0634 92.3697 70.3146C92.3697 69.5783 92.6941 68.9418 93.3431 68.4052C93.992 67.8561 94.797 67.5816 95.7579 67.5816C97.2555 67.5816 98.3475 68.1931 99.0338 69.4161L97.7235 70.3895C97.1993 69.5783 96.5192 69.1727 95.683 69.1727C95.2213 69.1727 94.8469 69.2788 94.5599 69.491C94.2853 69.6906 94.148 69.9527 94.148 70.2772C94.148 70.5767 94.2853 70.8325 94.5599 71.0447C94.8344 71.2444 95.3461 71.469 96.0949 71.7186C97.2056 72.093 98.0043 72.5048 98.491 72.9541C98.9777 73.4034 99.221 74.0149 99.221 74.7886C99.221 75.5748 98.8903 76.2238 98.2289 76.7355C97.5675 77.2471 96.7313 77.503 95.7205 77.503C94.9093 77.503 94.1667 77.3158 93.4928 76.9414C92.8189 76.567 92.3197 76.0553 91.9953 75.4064Z" fill="#545457"/>
</svg>
