<svg width="239" height="212" viewBox="0 0 239 212" fill="none" xmlns="http://www.w3.org/2000/svg">
<path d="M231.906 212H6.969C5.12088 212 3.34844 211.266 2.04153 209.959C0.734614 208.652 0.000265192 206.88 0 205.032L0 6.968C0.000265192 5.11988 0.734614 3.34754 2.04153 2.04082C3.34844 0.734094 5.12088 -1.90265e-08 6.969 0L231.906 0C233.754 0 235.526 0.734126 236.833 2.04088C238.14 3.34763 238.874 5.11997 238.874 6.968V205.032C238.874 206.88 238.14 208.652 236.833 209.959C235.526 211.266 233.754 212 231.906 212Z" fill="#3D3D3F"/>
<path d="M50.5614 148.271V131.327H52.9374V148.271H50.5614ZM57.1126 131.327H59.4406V144.839C59.4406 145.895 59.8166 146.423 60.5686 146.423C60.8406 146.423 61.1046 146.375 61.3606 146.279V148.367C61.0406 148.495 60.6806 148.559 60.2806 148.559C59.3686 148.559 58.6086 148.303 58.0006 147.791C57.4086 147.279 57.1126 146.431 57.1126 145.247V131.327ZM63.933 131.327H66.261V144.839C66.261 145.895 66.637 146.423 67.389 146.423C67.661 146.423 67.925 146.375 68.181 146.279V148.367C67.861 148.495 67.501 148.559 67.101 148.559C66.189 148.559 65.429 148.303 64.821 147.791C64.229 147.279 63.933 146.431 63.933 145.247V131.327ZM75.2452 148.559C73.8372 148.559 72.7012 148.111 71.8372 147.215C70.9732 146.303 70.5412 145.055 70.5412 143.471V136.127H72.8692V143.375C72.8692 144.335 73.1412 145.087 73.6852 145.631C74.2292 146.159 74.9092 146.423 75.7252 146.423C76.3172 146.423 76.8452 146.295 77.3092 146.039C77.7732 145.783 78.1332 145.447 78.3892 145.031C78.6452 144.615 78.8292 144.175 78.9412 143.711C79.0692 143.247 79.1332 142.775 79.1332 142.295V136.127H81.4612V148.271H79.1812V146.447C78.4132 147.855 77.1012 148.559 75.2452 148.559ZM84.324 145.871L86.028 144.647C86.844 145.879 87.86 146.495 89.076 146.495C89.764 146.495 90.308 146.375 90.708 146.135C91.108 145.879 91.308 145.543 91.308 145.127C91.308 144.679 91.124 144.319 90.756 144.047C90.404 143.775 89.684 143.463 88.596 143.111C87.284 142.695 86.324 142.207 85.716 141.647C85.108 141.071 84.804 140.303 84.804 139.343C84.804 138.399 85.22 137.583 86.052 136.895C86.884 136.191 87.916 135.839 89.148 135.839C91.068 135.839 92.468 136.623 93.348 138.191L91.668 139.439C90.996 138.399 90.124 137.879 89.052 137.879C88.46 137.879 87.98 138.015 87.612 138.287C87.26 138.543 87.084 138.879 87.084 139.295C87.084 139.679 87.26 140.007 87.612 140.279C87.964 140.535 88.62 140.823 89.58 141.143C91.004 141.623 92.028 142.151 92.652 142.727C93.276 143.303 93.588 144.087 93.588 145.079C93.588 146.087 93.164 146.919 92.316 147.575C91.468 148.231 90.396 148.559 89.1 148.559C88.06 148.559 87.108 148.319 86.244 147.839C85.38 147.359 84.74 146.703 84.324 145.871ZM95.3356 136.127H97.2316V132.791H99.4876V136.127H102.608V138.071H99.4876V144.407C99.4876 145.735 100.144 146.399 101.456 146.399C101.984 146.399 102.464 146.271 102.896 146.015V148.151C102.432 148.423 101.784 148.559 100.952 148.559C99.7676 148.559 98.8396 148.223 98.1676 147.551C97.4956 146.863 97.1596 145.911 97.1596 144.695V138.071H95.3356V136.127ZM105.514 136.127H107.794V138.263C108.098 137.511 108.554 136.919 109.162 136.487C109.77 136.055 110.474 135.839 111.274 135.839C111.578 135.839 111.826 135.871 112.018 135.935V138.215C111.89 138.183 111.73 138.167 111.538 138.167C110.418 138.167 109.522 138.543 108.85 139.295C108.178 140.031 107.842 141.015 107.842 142.247V148.271H105.514V136.127ZM113.366 145.055C113.366 143.135 114.678 141.919 117.302 141.407L121.094 140.663V140.423C121.094 139.639 120.846 139.023 120.35 138.575C119.854 138.127 119.158 137.903 118.262 137.903C116.918 137.903 115.79 138.423 114.878 139.463L113.678 137.927C114.878 136.535 116.478 135.839 118.478 135.839C119.998 135.839 121.198 136.263 122.078 137.111C122.974 137.943 123.422 139.079 123.422 140.519V148.271H121.262V146.399C120.398 147.839 119.078 148.559 117.302 148.559C116.166 148.559 115.222 148.231 114.47 147.575C113.734 146.903 113.366 146.063 113.366 145.055ZM115.646 144.911C115.646 145.407 115.838 145.815 116.222 146.135C116.606 146.439 117.094 146.591 117.686 146.591C118.646 146.591 119.47 146.255 120.158 145.583C120.846 144.895 121.19 144.119 121.19 143.255V142.487L117.71 143.159C116.974 143.303 116.446 143.519 116.126 143.807C115.806 144.079 115.646 144.447 115.646 144.911ZM125.734 136.127H127.63V132.791H129.886V136.127H133.006V138.071H129.886V144.407C129.886 145.735 130.542 146.399 131.854 146.399C132.382 146.399 132.862 146.271 133.294 146.015V148.151C132.83 148.423 132.182 148.559 131.35 148.559C130.166 148.559 129.238 148.223 128.566 147.551C127.894 146.863 127.558 145.911 127.558 144.695V138.071H125.734V136.127ZM135.913 136.127H138.241V148.271H135.913V136.127ZM136.057 133.559C135.769 133.255 135.625 132.903 135.625 132.503C135.625 132.103 135.769 131.759 136.057 131.471C136.345 131.183 136.689 131.039 137.089 131.039C137.489 131.039 137.833 131.183 138.121 131.471C138.409 131.759 138.553 132.103 138.553 132.503C138.553 132.903 138.409 133.255 138.121 133.559C137.833 133.847 137.489 133.991 137.089 133.991C136.689 133.991 136.345 133.847 136.057 133.559ZM152.058 146.735C150.858 147.951 149.362 148.559 147.57 148.559C145.778 148.559 144.282 147.951 143.082 146.735C141.882 145.503 141.282 143.991 141.282 142.199C141.282 140.407 141.882 138.903 143.082 137.687C144.282 136.455 145.778 135.839 147.57 135.839C149.362 135.839 150.858 136.455 152.058 137.687C153.258 138.903 153.858 140.407 153.858 142.199C153.858 143.991 153.258 145.503 152.058 146.735ZM144.762 139.271C144.026 140.071 143.658 141.047 143.658 142.199C143.658 143.351 144.026 144.335 144.762 145.151C145.498 145.951 146.434 146.351 147.57 146.351C148.706 146.351 149.642 145.951 150.378 145.151C151.114 144.335 151.482 143.351 151.482 142.199C151.482 141.047 151.114 140.071 150.378 139.271C149.642 138.455 148.706 138.047 147.57 138.047C146.434 138.047 145.498 138.455 144.762 139.271ZM156.913 148.271V136.127H159.193V137.951C159.961 136.543 161.273 135.839 163.129 135.839C164.537 135.839 165.673 136.295 166.537 137.207C167.401 138.103 167.833 139.343 167.833 140.927V148.271H165.505V141.023C165.505 140.063 165.233 139.319 164.689 138.791C164.145 138.247 163.465 137.975 162.649 137.975C162.057 137.975 161.529 138.103 161.065 138.359C160.601 138.615 160.241 138.951 159.985 139.367C159.729 139.783 159.537 140.223 159.409 140.687C159.297 141.151 159.241 141.623 159.241 142.103V148.271H156.913ZM185.074 142.775H177.154V140.759H185.074V142.775ZM70.7525 183.975C70.7525 182.887 71.4325 182.007 72.7925 181.335C72.2645 180.951 72.0005 180.407 72.0005 179.703C72.0005 179.015 72.3605 178.407 73.0805 177.879C72.4725 177.479 71.9845 176.967 71.6165 176.343C71.2645 175.703 71.0885 175.015 71.0885 174.279C71.0885 173.047 71.5525 171.999 72.4805 171.135C73.4245 170.271 74.5765 169.839 75.9365 169.839C76.5445 169.839 77.1285 169.935 77.6885 170.127H82.1525V172.071H80.1605C80.5765 172.727 80.7845 173.463 80.7845 174.279C80.7845 175.511 80.3125 176.559 79.3685 177.423C78.4405 178.287 77.2965 178.719 75.9365 178.719C75.5205 178.719 75.1045 178.671 74.6885 178.575C74.3685 178.815 74.2085 179.087 74.2085 179.391C74.2085 179.647 74.3045 179.855 74.4965 180.015C74.6885 180.175 74.9125 180.255 75.1685 180.255H78.2405C79.4565 180.255 80.4325 180.575 81.1685 181.215C81.9045 181.839 82.2725 182.647 82.2725 183.639C82.2725 184.711 81.7125 185.599 80.5925 186.303C79.4885 187.007 78.0325 187.359 76.2245 187.359C74.5285 187.359 73.1925 187.055 72.2165 186.447C71.2405 185.855 70.7525 185.031 70.7525 183.975ZM77.7605 172.599C77.2645 172.119 76.6565 171.879 75.9365 171.879C75.2165 171.879 74.6005 172.119 74.0885 172.599C73.5925 173.063 73.3445 173.623 73.3445 174.279C73.3445 174.935 73.5925 175.503 74.0885 175.983C74.6005 176.447 75.2165 176.679 75.9365 176.679C76.6565 176.679 77.2645 176.447 77.7605 175.983C78.2725 175.503 78.5285 174.935 78.5285 174.279C78.5285 173.623 78.2725 173.063 77.7605 172.599ZM73.0805 183.759C73.0805 184.223 73.3765 184.591 73.9685 184.863C74.5605 185.135 75.3285 185.271 76.2725 185.271C77.4565 185.271 78.3685 185.127 79.0085 184.839C79.6645 184.551 79.9925 184.167 79.9925 183.687C79.9925 183.255 79.8085 182.919 79.4405 182.679C79.0725 182.439 78.6085 182.319 78.0485 182.319H74.4965C74.1445 182.415 73.8165 182.583 73.5125 182.823C73.2245 183.063 73.0805 183.375 73.0805 183.759ZM84.8895 170.127H87.1695V172.263C87.4735 171.511 87.9295 170.919 88.5375 170.487C89.1455 170.055 89.8495 169.839 90.6495 169.839C90.9535 169.839 91.2015 169.871 91.3935 169.935V172.215C91.2655 172.183 91.1055 172.167 90.9135 172.167C89.7935 172.167 88.8975 172.543 88.2255 173.295C87.5535 174.031 87.2175 175.015 87.2175 176.247V182.271H84.8895V170.127ZM92.7414 179.055C92.7414 177.135 94.0534 175.919 96.6774 175.407L100.469 174.663V174.423C100.469 173.639 100.221 173.023 99.7254 172.575C99.2294 172.127 98.5334 171.903 97.6374 171.903C96.2934 171.903 95.1654 172.423 94.2534 173.463L93.0534 171.927C94.2534 170.535 95.8534 169.839 97.8534 169.839C99.3734 169.839 100.573 170.263 101.453 171.111C102.349 171.943 102.797 173.079 102.797 174.519V182.271H100.637V180.399C99.7734 181.839 98.4534 182.559 96.6774 182.559C95.5414 182.559 94.5974 182.231 93.8454 181.575C93.1094 180.903 92.7414 180.063 92.7414 179.055ZM95.0214 178.911C95.0214 179.407 95.2134 179.815 95.5974 180.135C95.9814 180.439 96.4694 180.591 97.0614 180.591C98.0214 180.591 98.8454 180.255 99.5334 179.583C100.221 178.895 100.565 178.119 100.565 177.255V176.487L97.0854 177.159C96.3494 177.303 95.8214 177.519 95.5014 177.807C95.1814 178.079 95.0214 178.447 95.0214 178.911ZM106.546 170.127H108.778V171.903C109.162 171.311 109.73 170.823 110.482 170.439C111.25 170.039 112.05 169.839 112.882 169.839C114.514 169.839 115.882 170.439 116.986 171.639C118.09 172.839 118.642 174.359 118.642 176.199C118.642 178.039 118.09 179.559 116.986 180.759C115.882 181.959 114.514 182.559 112.882 182.559C112.082 182.559 111.306 182.375 110.554 182.007C109.802 181.639 109.242 181.175 108.874 180.615V187.071H106.546V170.127ZM109.834 173.175C109.098 173.959 108.73 174.967 108.73 176.199C108.73 177.431 109.098 178.447 109.834 179.247C110.57 180.031 111.458 180.423 112.498 180.423C113.538 180.423 114.426 180.031 115.162 179.247C115.914 178.447 116.29 177.431 116.29 176.199C116.29 174.967 115.914 173.959 115.162 173.175C114.426 172.375 113.538 171.975 112.498 171.975C111.458 171.975 110.57 172.375 109.834 173.175ZM121.71 165.327H124.038V171.807C124.886 170.495 126.182 169.839 127.926 169.839C129.302 169.839 130.43 170.295 131.31 171.207C132.19 172.119 132.63 173.359 132.63 174.927V182.271H130.302V175.023C130.302 174.063 130.03 173.319 129.486 172.791C128.942 172.247 128.262 171.975 127.446 171.975C126.294 171.975 125.438 172.367 124.878 173.151C124.318 173.919 124.038 174.823 124.038 175.863V182.271H121.71V165.327ZM136.429 170.127H138.757V182.271H136.429V170.127ZM136.573 167.559C136.285 167.255 136.141 166.903 136.141 166.503C136.141 166.103 136.285 165.759 136.573 165.471C136.861 165.183 137.205 165.039 137.605 165.039C138.005 165.039 138.349 165.183 138.637 165.471C138.925 165.759 139.069 166.103 139.069 166.503C139.069 166.903 138.925 167.255 138.637 167.559C138.349 167.847 138.005 167.991 137.605 167.991C137.205 167.991 136.861 167.847 136.573 167.559ZM141.773 176.175C141.773 174.399 142.389 172.903 143.621 171.687C144.853 170.455 146.349 169.839 148.109 169.839C150.173 169.839 151.789 170.687 152.957 172.383L151.421 173.871C150.557 172.623 149.445 171.999 148.085 171.999C146.949 171.999 146.005 172.407 145.253 173.223C144.517 174.023 144.149 175.015 144.149 176.199C144.149 177.383 144.517 178.383 145.253 179.199C146.005 179.999 146.941 180.399 148.061 180.399C149.581 180.399 150.757 179.783 151.589 178.551L153.149 180.015C152.605 180.815 151.893 181.439 151.013 181.887C150.133 182.335 149.165 182.559 148.109 182.559C146.333 182.559 144.829 181.943 143.597 180.711C142.381 179.479 141.773 177.967 141.773 176.175ZM154.66 179.871L156.364 178.647C157.18 179.879 158.196 180.495 159.412 180.495C160.1 180.495 160.644 180.375 161.044 180.135C161.444 179.879 161.644 179.543 161.644 179.127C161.644 178.679 161.46 178.319 161.092 178.047C160.74 177.775 160.02 177.463 158.932 177.111C157.62 176.695 156.66 176.207 156.052 175.647C155.444 175.071 155.14 174.303 155.14 173.343C155.14 172.399 155.556 171.583 156.388 170.895C157.22 170.191 158.252 169.839 159.484 169.839C161.404 169.839 162.804 170.623 163.684 172.191L162.004 173.439C161.332 172.399 160.46 171.879 159.388 171.879C158.796 171.879 158.316 172.015 157.948 172.287C157.596 172.543 157.42 172.879 157.42 173.295C157.42 173.679 157.596 174.007 157.948 174.279C158.3 174.535 158.956 174.823 159.916 175.143C161.34 175.623 162.364 176.151 162.988 176.727C163.612 177.303 163.924 178.087 163.924 179.079C163.924 180.087 163.5 180.919 162.652 181.575C161.804 182.231 160.732 182.559 159.436 182.559C158.396 182.559 157.444 182.319 156.58 181.839C155.716 181.359 155.076 180.703 154.66 179.871Z" fill="white"/>
<path d="M110.549 61.7818L128.049 45.0648M110.749 52.7708L93.084 37.1918C91.8828 36.3461 90.4224 35.9497 88.9585 36.0721C87.4945 36.1945 86.1202 36.8278 85.0762 37.8613C84.0321 38.8948 83.3848 40.2625 83.2474 41.7251C83.1101 43.1877 83.4915 44.6521 84.325 45.8618L103.054 67.9618C103.054 67.9618 103.224 68.1718 103.505 68.5018C100.124 71.7218 90.994 80.4108 90.994 80.4108C89.4875 81.8528 88.3637 83.6471 87.724 85.6318C87.724 85.6318 82.224 105.042 83.084 105.812C83.935 106.841 103.584 102.271 103.584 102.271C105.6 101.733 107.447 100.695 108.954 99.2518L121.123 87.6518C121.123 87.8098 121.123 87.9788 121.131 88.1238C121.346 95.4778 126.585 99.6298 134.915 101.035C143.245 102.44 154.253 100.72 155.138 98.3528C155.852 96.4528 153.727 95.4328 151.273 93.6988C150.258 92.9716 149.426 92.018 148.844 90.9136C148.261 89.8091 147.944 88.5842 147.917 87.3358C147.79 83.9552 146.39 80.7474 143.998 78.3552C141.605 75.963 138.398 74.5631 135.017 74.4358L142.778 67.0448L153.068 57.2348C153.931 56.4141 154.624 55.4311 155.107 54.3423C155.59 53.2534 155.853 52.0799 155.882 50.8891C155.911 49.6983 155.705 48.5135 155.275 47.4026C154.845 46.2916 154.201 45.2763 153.378 44.4148L147.938 38.6948C147.116 37.8316 146.132 37.1388 145.043 36.656C143.953 36.1732 142.779 35.9099 141.587 35.8811C140.396 35.8523 139.21 36.0586 138.098 36.4882C136.987 36.9178 135.97 37.5623 135.108 38.3848L128.088 45.0748L140.068 57.6448" stroke="white" stroke-width="3" stroke-linejoin="round"/>
</svg>
