<svg width="139" height="139" viewBox="0 0 139 139" fill="none" xmlns="http://www.w3.org/2000/svg">
<rect width="138.082" height="138.082" rx="24.6576" fill="#CACAD1"/>
<path d="M82.5052 45.7848C82.5067 47.1855 82.2323 48.5728 81.6978 49.8674C81.1633 51.162 80.3791 52.3386 79.39 53.3299C78.4009 54.3212 77.2263 55.1078 75.9333 55.6448C74.6403 56.1818 73.2542 56.4587 71.8542 56.4596H71.8393C70.1646 56.4586 68.5137 56.0625 67.0207 55.3036C65.5276 54.5447 64.2343 53.4443 63.2459 52.0917C62.2575 50.7391 61.6017 49.1724 61.3317 47.5188C61.0618 45.8651 61.1852 44.1711 61.6922 42.5741C62.1991 40.9772 63.0752 39.5223 64.2494 38.3275C65.4235 37.1327 66.8626 36.2318 68.45 35.6976C70.0373 35.1635 71.7282 35.0114 73.3853 35.2535C75.0425 35.4956 76.6192 36.1251 77.9876 37.0911" stroke="#545457" stroke-width="1.84932" stroke-miterlimit="10"/>
<path d="M93.9238 40.6528C92.6285 42.7372 92.0926 45.2054 92.4069 47.6397C92.7835 50.2439 94.0935 52.6225 96.0927 54.3322C98.092 56.042 100.644 56.9664 103.274 56.9333C105.324 56.947 107.331 56.3434 109.033 55.2011C110.736 54.0588 112.056 52.4306 112.821 50.528C113.513 48.8985 113.791 47.1229 113.63 45.3597C113.469 43.5966 112.874 41.9008 111.898 40.4239C110.922 38.947 109.596 37.7349 108.037 36.896C106.479 36.0571 104.737 35.6174 102.968 35.6162H88.446C86.871 35.6157 85.3604 36.2412 84.2463 37.3551C83.1322 38.4689 82.5059 39.9799 82.5052 41.5557L82.4991 61.1186C82.501 63.9478 81.3796 66.6619 79.3815 68.6638C77.3834 70.6657 74.6723 71.7914 71.8446 71.7934C69.0169 71.7954 66.3042 70.6734 64.3033 68.6743C62.3025 66.6752 61.1773 63.9627 61.1753 61.1335" stroke="#545457" stroke-width="1.84932" stroke-miterlimit="10"/>
<path d="M39.849 51.1943C38.4329 48.7546 38.0406 45.853 38.7581 43.1246C39.4756 40.3962 41.2443 38.0634 43.6771 36.6369C46.1099 35.2104 49.0085 34.8064 51.7383 35.5134C54.4681 36.2204 56.8068 37.9808 58.2422 40.4092L58.2492 40.4223C59.2074 42.0636 59.7098 43.9313 59.7042 45.8321C59.6986 47.7329 59.1853 49.5976 58.2175 51.2332C57.2496 52.8689 55.8623 54.2159 54.1993 55.1349C52.5363 56.054 50.658 56.5115 48.7589 56.4603H34.5927C31.9581 56.4577 29.4322 55.4093 27.5695 53.5452C25.7068 51.6811 24.6596 49.1536 24.6577 46.5177V24.041" stroke="#545457" stroke-width="1.84932" stroke-miterlimit="10"/>
<path d="M26.3183 99.3018V89.2744H27.7244V98.0235H32.1416V99.3018H26.3183ZM39.2523 98.3928C38.5422 99.1124 37.6569 99.4722 36.5964 99.4722C35.5359 99.4722 34.6505 99.1124 33.9404 98.3928C33.2302 97.6637 32.8751 96.7689 32.8751 95.7084C32.8751 94.6479 33.2302 93.7578 33.9404 93.0382C34.6505 92.3091 35.5359 91.9446 36.5964 91.9446C37.6569 91.9446 38.5422 92.3091 39.2523 93.0382C39.9625 93.7578 40.3176 94.6479 40.3176 95.7084C40.3176 96.7689 39.9625 97.6637 39.2523 98.3928ZM34.9346 93.9756C34.499 94.449 34.2812 95.0266 34.2812 95.7084C34.2812 96.3901 34.499 96.9725 34.9346 97.4554C35.3702 97.9288 35.9241 98.1655 36.5964 98.1655C37.2686 98.1655 37.8226 97.9288 38.2581 97.4554C38.6937 96.9725 38.9115 96.3901 38.9115 95.7084C38.9115 95.0266 38.6937 94.449 38.2581 93.9756C37.8226 93.4927 37.2686 93.2512 36.5964 93.2512C35.9241 93.2512 35.3702 93.4927 34.9346 93.9756ZM41.4297 100.31C41.4297 99.6663 41.8322 99.1455 42.637 98.7478C42.3245 98.5206 42.1683 98.1987 42.1683 97.782C42.1683 97.3749 42.3813 97.0151 42.8074 96.7026C42.4476 96.4659 42.1588 96.1629 41.941 95.7936C41.7327 95.4148 41.6286 95.0077 41.6286 94.5721C41.6286 93.843 41.9032 93.2228 42.4524 92.7115C43.011 92.2002 43.6928 91.9446 44.4976 91.9446C44.8574 91.9446 45.203 92.0014 45.5344 92.115H48.1762V93.2654H46.9973C47.2435 93.6537 47.3666 94.0892 47.3666 94.5721C47.3666 95.3012 47.0873 95.9214 46.5286 96.4327C45.9795 96.944 45.3024 97.1997 44.4976 97.1997C44.2514 97.1997 44.0052 97.1713 43.759 97.1145C43.5697 97.2565 43.475 97.4175 43.475 97.5974C43.475 97.7489 43.5318 97.872 43.6454 97.9667C43.759 98.0614 43.8916 98.1087 44.0431 98.1087H45.8611C46.5807 98.1087 47.1583 98.2981 47.5939 98.6768C48.0294 99.0461 48.2472 99.5243 48.2472 100.111C48.2472 100.746 47.9158 101.271 47.253 101.688C46.5997 102.105 45.738 102.313 44.668 102.313C43.6644 102.313 42.8737 102.133 42.2961 101.773C41.7185 101.423 41.4297 100.935 41.4297 100.31ZM45.577 93.5779C45.2835 93.2938 44.9237 93.1518 44.4976 93.1518C44.0715 93.1518 43.707 93.2938 43.404 93.5779C43.1104 93.8525 42.9637 94.1839 42.9637 94.5721C42.9637 94.9603 43.1104 95.2965 43.404 95.5805C43.707 95.8551 44.0715 95.9924 44.4976 95.9924C44.9237 95.9924 45.2835 95.8551 45.577 95.5805C45.88 95.2965 46.0315 94.9603 46.0315 94.5721C46.0315 94.1839 45.88 93.8525 45.577 93.5779ZM42.8074 100.182C42.8074 100.457 42.9826 100.675 43.3329 100.836C43.6833 100.997 44.1378 101.077 44.6964 101.077C45.3971 101.077 45.9368 100.992 46.3156 100.821C46.7038 100.651 46.8979 100.424 46.8979 100.14C46.8979 99.8841 46.789 99.6852 46.5713 99.5432C46.3535 99.4012 46.0789 99.3302 45.7475 99.3302H43.6454C43.4371 99.387 43.243 99.4864 43.0631 99.6284C42.8927 99.7705 42.8074 99.9551 42.8074 100.182ZM55.4943 98.3928C54.7842 99.1124 53.8989 99.4722 52.8384 99.4722C51.7779 99.4722 50.8925 99.1124 50.1824 98.3928C49.4722 97.6637 49.1172 96.7689 49.1172 95.7084C49.1172 94.6479 49.4722 93.7578 50.1824 93.0382C50.8925 92.3091 51.7779 91.9446 52.8384 91.9446C53.8989 91.9446 54.7842 92.3091 55.4943 93.0382C56.2045 93.7578 56.5596 94.6479 56.5596 95.7084C56.5596 96.7689 56.2045 97.6637 55.4943 98.3928ZM51.1766 93.9756C50.741 94.449 50.5233 95.0266 50.5233 95.7084C50.5233 96.3901 50.741 96.9725 51.1766 97.4554C51.6122 97.9288 52.1661 98.1655 52.8384 98.1655C53.5106 98.1655 54.0646 97.9288 54.5001 97.4554C54.9357 96.9725 55.1535 96.3901 55.1535 95.7084C55.1535 95.0266 54.9357 94.449 54.5001 93.9756C54.0646 93.4927 53.5106 93.2512 52.8384 93.2512C52.1661 93.2512 51.6122 93.4927 51.1766 93.9756ZM64.8598 99.4722C63.8846 99.4722 63.0466 99.2213 62.3459 98.7194C61.6452 98.2081 61.2949 97.5358 61.2949 96.7026C61.2949 96.1345 61.4748 95.6326 61.8346 95.1971C62.2039 94.752 62.753 94.3117 63.4821 93.8762C63.075 93.4311 62.7767 93.0335 62.5873 92.6831C62.398 92.3328 62.3033 91.9493 62.3033 91.5327C62.3033 90.8888 62.5495 90.3254 63.0418 89.8425C63.5437 89.3501 64.1876 89.1039 64.9735 89.1039C65.7499 89.1039 66.3843 89.3454 66.8767 89.8283C67.3785 90.3017 67.6294 90.8557 67.6294 91.4901C67.6294 91.9919 67.4637 92.4369 67.1323 92.8251C66.8009 93.2039 66.247 93.63 65.4706 94.1034L67.6863 96.4753C68.1218 95.6894 68.2875 94.8278 68.1834 93.8904H69.5469C69.6889 95.2444 69.3954 96.4517 68.6663 97.5122L70.3422 99.3018H68.5668L67.7857 98.4638C66.943 99.1361 65.9677 99.4722 64.8598 99.4722ZM62.7436 96.6458C62.7341 97.1192 62.9472 97.4885 63.3827 97.7536C63.8277 98.0093 64.3296 98.1371 64.8882 98.1371C65.6268 98.1371 66.2802 97.9146 66.8483 97.4696L64.3485 94.8136C63.8183 95.126 63.4206 95.4196 63.1555 95.6942C62.8903 95.9688 62.753 96.286 62.7436 96.6458ZM64.9735 90.3538C64.5852 90.3538 64.2633 90.4674 64.0077 90.6947C63.7615 90.9219 63.6384 91.1965 63.6384 91.5185C63.6384 91.812 63.7094 92.0724 63.8514 92.2996C64.0029 92.5269 64.2538 92.8204 64.6042 93.1802C65.2197 92.8204 65.6552 92.5221 65.9109 92.2854C66.1665 92.0487 66.2944 91.7883 66.2944 91.5043C66.2944 91.1918 66.1665 90.9219 65.9109 90.6947C65.6647 90.4674 65.3522 90.3538 64.9735 90.3538ZM75.0443 89.2744H78.5241C79.471 89.2744 80.2285 89.5158 80.7966 89.9987C81.3647 90.4722 81.6488 91.116 81.6488 91.9304C81.6488 92.4606 81.5162 92.934 81.2511 93.3507C80.986 93.7578 80.6735 94.0419 80.3137 94.2028C80.7398 94.3354 81.1185 94.6053 81.4499 95.0124C81.7813 95.4196 81.9471 95.9262 81.9471 96.5322C81.9471 97.3749 81.6441 98.0472 81.0381 98.549C80.4415 99.0508 79.6556 99.3018 78.6803 99.3018H75.0443V89.2744ZM78.5383 94.842H76.4505V98.0093H78.7087C79.2295 98.0093 79.6509 97.8578 79.9728 97.5548C80.3042 97.2423 80.4699 96.8588 80.4699 96.4043C80.4699 95.9593 80.2853 95.59 79.916 95.2965C79.5562 94.9935 79.097 94.842 78.5383 94.842ZM76.4505 93.6631H78.5383C79.0686 93.6631 79.4757 93.5116 79.7598 93.2086C80.0438 92.8962 80.1859 92.5079 80.1859 92.044C80.1859 91.6179 80.0344 91.2628 79.7314 90.9787C79.4284 90.6947 79.0165 90.5527 78.4957 90.5527H76.4505V93.6631ZM83.8195 92.115H85.1688V93.3791C85.3487 92.934 85.6186 92.5837 85.9784 92.328C86.3382 92.0724 86.7548 91.9446 87.2283 91.9446C87.4082 91.9446 87.5549 91.9635 87.6686 92.0014V93.3507C87.5928 93.3317 87.4981 93.3223 87.3845 93.3223C86.7217 93.3223 86.1914 93.5448 85.7938 93.9898C85.3961 94.4254 85.1972 95.0077 85.1972 95.7368V99.3018H83.8195V92.115ZM88.4663 97.3985C88.4663 96.2623 89.2427 95.5427 90.7956 95.2397L93.0397 94.7994V94.6573C93.0397 94.1934 92.8929 93.8288 92.5994 93.5637C92.3058 93.2986 91.894 93.166 91.3637 93.166C90.5683 93.166 89.9008 93.4738 89.3611 94.0892L88.6509 93.1802C89.3611 92.3564 90.3079 91.9446 91.4915 91.9446C92.3911 91.9446 93.1012 92.1955 93.622 92.6973C94.1522 93.1897 94.4174 93.862 94.4174 94.7142V99.3018H93.1391V98.1939C92.6278 99.0461 91.8466 99.4722 90.7956 99.4722C90.1233 99.4722 89.5646 99.2781 89.1196 98.8899C88.6841 98.4922 88.4663 97.9951 88.4663 97.3985ZM89.8156 97.3133C89.8156 97.6069 89.9292 97.8483 90.1564 98.0377C90.3837 98.2176 90.6725 98.3075 91.0228 98.3075C91.591 98.3075 92.0786 98.1087 92.4857 97.711C92.8929 97.3039 93.0965 96.8446 93.0965 96.3333V95.8788L91.037 96.2765C90.6015 96.3617 90.289 96.4895 90.0996 96.66C89.9103 96.821 89.8156 97.0387 89.8156 97.3133ZM96.6356 99.3018V92.115H97.9849V93.1944C98.4394 92.3612 99.2158 91.9446 100.314 91.9446C101.147 91.9446 101.82 92.2144 102.331 92.7541C102.842 93.2844 103.098 94.0182 103.098 94.9556V99.3018H101.72V95.0124C101.72 94.4443 101.559 94.004 101.237 93.6915C100.915 93.3696 100.513 93.2086 100.03 93.2086C99.6798 93.2086 99.3673 93.2844 99.0927 93.4359C98.8181 93.5874 98.6051 93.7862 98.4536 94.0324C98.3021 94.2786 98.1885 94.539 98.1127 94.8136C98.0464 95.0882 98.0133 95.3675 98.0133 95.6516V99.3018H96.6356ZM108.215 99.4722C107.249 99.4722 106.44 99.1171 105.786 98.407C105.133 97.6968 104.806 96.7973 104.806 95.7084C104.806 94.6195 105.133 93.7199 105.786 93.0098C106.44 92.2996 107.249 91.9446 108.215 91.9446C108.698 91.9446 109.162 92.0582 109.607 92.2854C110.052 92.5032 110.379 92.7778 110.587 93.1092V89.2744H111.965V99.3018H110.644V98.2365C110.445 98.5869 110.114 98.8804 109.65 99.1171C109.186 99.3538 108.707 99.4722 108.215 99.4722ZM110.019 93.9188C109.583 93.4453 109.058 93.2086 108.442 93.2086C107.827 93.2086 107.297 93.4453 106.852 93.9188C106.416 94.3828 106.198 94.9793 106.198 95.7084C106.198 96.4375 106.416 97.0387 106.852 97.5122C107.297 97.9761 107.827 98.2081 108.442 98.2081C109.058 98.2081 109.583 97.9761 110.019 97.5122C110.454 97.0387 110.672 96.4375 110.672 95.7084C110.672 94.9793 110.454 94.3828 110.019 93.9188ZM44.6293 110.115H46.007V117.302H44.6293V110.115ZM44.7145 108.595C44.544 108.415 44.4588 108.207 44.4588 107.97C44.4588 107.734 44.544 107.53 44.7145 107.36C44.8849 107.189 45.0885 107.104 45.3252 107.104C45.5619 107.104 45.7655 107.189 45.9359 107.36C46.1064 107.53 46.1916 107.734 46.1916 107.97C46.1916 108.207 46.1064 108.415 45.9359 108.595C45.7655 108.766 45.5619 108.851 45.3252 108.851C45.0885 108.851 44.8849 108.766 44.7145 108.595ZM51.2294 117.472C50.2636 117.472 49.454 117.117 48.8006 116.407C48.1473 115.697 47.8206 114.797 47.8206 113.708C47.8206 112.619 48.1473 111.72 48.8006 111.01C49.454 110.3 50.2636 109.945 51.2294 109.945C51.7123 109.945 52.1762 110.058 52.6213 110.285C53.0663 110.503 53.393 110.778 53.6013 111.109V107.274H54.979V117.302H53.6581V116.237C53.4593 116.587 53.1278 116.88 52.6639 117.117C52.1999 117.354 51.7217 117.472 51.2294 117.472ZM53.0332 111.919C52.5976 111.445 52.0721 111.209 51.4566 111.209C50.8411 111.209 50.3109 111.445 49.8659 111.919C49.4303 112.383 49.2125 112.979 49.2125 113.708C49.2125 114.437 49.4303 115.039 49.8659 115.512C50.3109 115.976 50.8411 116.208 51.4566 116.208C52.0721 116.208 52.5976 115.976 53.0332 115.512C53.4687 115.039 53.6865 114.437 53.6865 113.708C53.6865 112.979 53.4687 112.383 53.0332 111.919ZM57.8457 116.407C57.1355 115.687 56.7804 114.793 56.7804 113.723C56.7804 112.653 57.1166 111.758 57.7889 111.038C58.4706 110.309 59.3465 109.945 60.4164 109.945C61.4201 109.945 62.225 110.266 62.831 110.91C63.437 111.545 63.74 112.335 63.74 113.282C63.74 113.547 63.7163 113.808 63.6689 114.063H58.2292C58.2954 114.726 58.5558 115.252 59.0103 115.64C59.4648 116.019 60.014 116.208 60.6579 116.208C61.4533 116.208 62.1303 115.905 62.6889 115.299L63.5269 116.265C62.7315 117.07 61.7657 117.472 60.6295 117.472C59.4932 117.472 58.5653 117.117 57.8457 116.407ZM60.4306 111.18C59.872 111.18 59.3985 111.336 59.0103 111.649C58.6221 111.961 58.3759 112.392 58.2718 112.941H62.3907V112.927C62.3433 112.397 62.135 111.976 61.7657 111.663C61.4059 111.341 60.9609 111.18 60.4306 111.18ZM65.5317 117.302V110.115H66.881V111.194C67.3355 110.361 68.1119 109.945 69.2103 109.945C70.0435 109.945 70.7158 110.214 71.2271 110.754C71.7384 111.284 71.9941 112.018 71.9941 112.956V117.302H70.6164V113.012C70.6164 112.444 70.4554 112.004 70.1335 111.692C69.8115 111.37 69.4091 111.209 68.9262 111.209C68.5759 111.209 68.2634 111.284 67.9888 111.436C67.7142 111.587 67.5012 111.786 67.3497 112.032C67.1982 112.279 67.0845 112.539 67.0088 112.814C66.9425 113.088 66.9094 113.368 66.9094 113.652V117.302H65.5317ZM73.3642 110.115H74.4863V108.141H75.8214V110.115H77.6678V111.265H75.8214V115.015C75.8214 115.801 76.2096 116.194 76.986 116.194C77.2985 116.194 77.5825 116.118 77.8382 115.967V117.231C77.5636 117.392 77.1801 117.472 76.6877 117.472C75.9871 117.472 75.4379 117.273 75.0402 116.876C74.6425 116.469 74.4437 115.905 74.4437 115.185V111.265H73.3642V110.115ZM79.388 110.115H80.7657V117.302H79.388V110.115ZM79.4732 108.595C79.3028 108.415 79.2176 108.207 79.2176 107.97C79.2176 107.734 79.3028 107.53 79.4732 107.36C79.6436 107.189 79.8472 107.104 80.0839 107.104C80.3207 107.104 80.5242 107.189 80.6947 107.36C80.8651 107.53 80.9503 107.734 80.9503 107.97C80.9503 108.207 80.8651 108.415 80.6947 108.595C80.5242 108.766 80.3207 108.851 80.0839 108.851C79.8472 108.851 79.6436 108.766 79.4732 108.595ZM82.3521 110.115H83.4742V108.141H84.8093V110.115H86.6557V111.265H84.8093V115.015C84.8093 115.801 85.1975 116.194 85.9739 116.194C86.2864 116.194 86.5704 116.118 86.8261 115.967V117.231C86.5515 117.392 86.168 117.472 85.6756 117.472C84.975 117.472 84.4258 117.273 84.0281 116.876C83.6304 116.469 83.4316 115.905 83.4316 115.185V111.265H82.3521V110.115ZM90.3075 117.202L87.3249 110.115H88.873L90.9609 115.555L92.9919 110.115H94.4832L91.1455 118.481C90.9088 119.087 90.62 119.541 90.2791 119.844C89.9382 120.157 89.4601 120.313 88.8446 120.313C88.4374 120.313 88.0918 120.251 87.8078 120.128V118.893C88.0634 119.053 88.3664 119.134 88.7168 119.134C89.0292 119.134 89.2849 119.044 89.4837 118.864C89.6826 118.684 89.8577 118.395 90.0092 117.998L90.3075 117.202Z" fill="#545457"/>
</svg>
