<svg width="114" height="114" viewBox="0 0 114 114" fill="none" xmlns="http://www.w3.org/2000/svg">
<path d="M57.0716 4C42.9957 4.00123 29.4967 9.59449 19.544 19.5481C9.59133 29.5016 3.99994 43.0003 3.99994 57.0762V110.148H57.0716C71.1474 110.148 84.6467 104.557 94.6002 94.6043C104.554 84.6516 110.146 71.152 110.147 57.0762C110.147 42.9995 104.556 29.4995 94.6019 19.5458C84.6482 9.59209 71.1483 4 57.0716 4Z" fill="white" stroke="#4747C7" stroke-width="7"/>
<path d="M81.7627 87.457C81.7627 80.1445 78.8583 73.1322 73.6876 67.9615C68.5169 62.7908 61.504 59.8853 54.1915 59.8853C46.8791 59.8853 39.8662 62.7908 34.6955 67.9615C29.5248 73.1322 26.6198 80.1445 26.6198 87.457" stroke="#4747C7" stroke-width="7" stroke-linecap="round"/>
<path d="M54.192 52.1536C47.1889 52.1536 41.5117 46.4764 41.5117 39.4733C41.5117 32.4701 47.1889 26.793 54.192 26.793C61.1951 26.793 66.8723 32.4701 66.8723 39.4733C66.8723 46.4764 61.1951 52.1536 54.192 52.1536Z" stroke="#4747C7" stroke-width="7" stroke-linecap="round"/>
</svg>
