<svg width="33" height="27" viewBox="0 0 33 27" fill="none" xmlns="http://www.w3.org/2000/svg">
<path d="M18.1286 21.3824H17.9389L17.7708 21.4704L10.0155 25.5304L10.7789 22.333L11.0059 21.3824H10.0286H7.71429C5.87421 21.3824 4.57175 21.3808 3.58474 21.2481C2.61993 21.1184 2.07286 20.8763 1.67521 20.4786C1.27757 20.081 1.03548 19.5339 0.905766 18.5691C0.773067 17.5821 0.771429 16.2796 0.771429 14.4396V7.71428C0.771429 5.8742 0.773067 4.57174 0.905766 3.58474C1.03548 2.61993 1.27757 2.07286 1.67521 1.67521C2.07286 1.27757 2.61993 1.03548 3.58474 0.905766C4.57175 0.773067 5.8742 0.771429 7.71429 0.771429H24.6857C26.5258 0.771429 27.8283 0.773067 28.8153 0.905766C29.7801 1.03548 30.3271 1.27757 30.7248 1.67521C31.1224 2.07286 31.3645 2.61993 31.4942 3.58474C31.6269 4.57175 31.6286 5.8742 31.6286 7.71429V14.4396C31.6286 16.2796 31.6269 17.5821 31.4942 18.5691C31.3645 19.5339 31.1224 20.081 30.7248 20.4786C30.3271 20.8763 29.7801 21.1184 28.8153 21.2481C27.8283 21.3808 26.5258 21.3824 24.6857 21.3824H18.1286Z" stroke="#9E9EA3" stroke-width="1.54286"/>
<line x1="5.3999" y1="6.94293" x2="26.2285" y2="6.94293" stroke="#9E9EA3" stroke-width="1.54286"/>
<line x1="5.3999" y1="13.1143" x2="26.2285" y2="13.1143" stroke="#9E9EA3" stroke-width="1.54286"/>
</svg>
