<svg width="48" height="47" viewBox="0 0 48 47" fill="none" xmlns="http://www.w3.org/2000/svg">
<path d="M23.9573 0.078125C28.5334 0.0779272 33.0069 1.43474 36.8119 3.97699C40.6169 6.51924 43.5826 10.1327 45.3339 14.3605C47.0852 18.5883 47.5435 23.2405 46.6508 27.7287C45.7581 32.2169 43.5544 36.3396 40.3186 39.5755C37.0828 42.8113 32.9601 45.0149 28.4718 45.9076C23.9836 46.8003 19.3315 46.342 15.1037 44.5907C10.8759 42.8394 7.26241 39.8737 4.72016 36.0687C2.17791 32.2637 0.821091 27.7903 0.821289 23.2141C0.821289 17.0781 3.25883 11.1933 7.59767 6.85449C11.9365 2.51565 17.8212 0.078125 23.9573 0.078125Z" fill="#4747C7"/>
</svg>
