<svg width="48" height="47" viewBox="0 0 48 47" fill="none" xmlns="http://www.w3.org/2000/svg">
<path d="M23.9573 0.597656C28.5334 0.597458 33.0068 1.95425 36.8118 4.49645C40.6168 7.03866 43.5825 10.6521 45.3338 14.8798C47.0851 19.1075 47.5435 23.7596 46.6508 28.2478C45.7582 32.7361 43.5547 36.8588 40.319 40.0946C37.0832 43.3305 32.9606 45.5342 28.4725 46.427C23.9843 47.3198 19.3322 46.8617 15.1044 45.1105C10.8766 43.3594 7.26302 40.3939 4.72065 36.589C2.17828 32.7841 0.821289 28.3108 0.821289 23.7346C0.821158 20.6963 1.41949 17.6877 2.58212 14.8806C3.74476 12.0735 5.44892 9.52286 7.59731 7.37438C9.7457 5.2259 12.2962 3.52163 15.1033 2.35887C17.9103 1.19612 20.9189 0.597656 23.9573 0.597656Z" fill="#CACAD1"/>
</svg>
