<svg width="22" height="28" viewBox="0 0 22 28" fill="none" xmlns="http://www.w3.org/2000/svg">
<path d="M20.0582 10.0933L21.3093 8.81841C21.9582 8.15716 21.9582 7.0833 21.3093 6.42205C20.6604 5.7608 19.6066 5.7608 18.9577 6.42205L17.8365 7.56468C16.3778 6.34799 14.6077 5.51217 12.6611 5.20535V3.38559H13.4916C14.4104 3.38559 15.1527 2.62912 15.1527 1.6928C15.1527 0.756468 14.4104 0 13.4916 0H8.50825C7.58944 0 6.84713 0.756468 6.84713 1.6928C6.84713 2.62912 7.58944 3.38559 8.50825 3.38559H9.33881V5.20535C4.16338 6.02001 0.202637 10.58 0.202637 16.0816C0.202637 22.1598 5.03547 27.0847 10.9999 27.0847C16.9644 27.0847 21.7972 22.1598 21.7972 16.0816C21.7972 13.8704 21.1587 11.8125 20.0582 10.0933ZM10.9999 24.5128C6.43029 24.5128 2.72547 20.7378 2.72547 16.0805C2.72547 11.4232 6.42977 7.64827 10.9999 7.64827C15.5701 7.64827 19.2744 11.4232 19.2744 16.0805C19.2744 20.7378 15.5701 24.5128 10.9999 24.5128Z" fill="#CACAD1"/>
<path d="M11 8.88721C10.3096 8.88721 9.75415 9.45324 9.75415 10.1568V16.928C9.75415 17.6316 10.3096 18.1976 11 18.1976C11.6904 18.1976 12.2458 17.6316 12.2458 16.928V10.1568C12.2458 9.45324 11.6904 8.88721 11 8.88721Z" fill="#CACAD1"/>
</svg>
