<svg width="27" height="33" viewBox="0 0 27 33" fill="none" xmlns="http://www.w3.org/2000/svg">
<path d="M13.7972 10.8281C12.956 10.8281 12.2793 11.5178 12.2793 12.375V20.625C12.2793 21.4822 12.956 22.1719 13.7972 22.1719C14.6384 22.1719 15.3152 21.4822 15.3152 20.625V12.375C15.3152 11.5178 14.6384 10.8281 13.7972 10.8281Z" fill="#9E9EA3"/>
<path d="M24.8339 12.2977L26.3581 10.7443C27.1487 9.93867 27.1487 8.63027 26.3581 7.82461C25.5675 7.01895 24.2836 7.01895 23.493 7.82461L22.1269 9.2168C20.3497 7.73438 18.1929 6.71602 15.8212 6.34219V4.125H16.8331C17.9526 4.125 18.857 3.20332 18.857 2.0625C18.857 0.92168 17.9526 0 16.8331 0H10.7614C9.64191 0 8.73748 0.92168 8.73748 2.0625C8.73748 3.20332 9.64191 4.125 10.7614 4.125H11.7733V6.34219C5.4676 7.33477 0.641846 12.8906 0.641846 19.5938C0.641846 26.9994 6.53015 33 13.7973 33C21.0643 33 26.9527 26.9994 26.9527 19.5938C26.9527 16.8996 26.1747 14.3924 24.8339 12.2977ZM13.7973 29.8663C8.22961 29.8663 3.71566 25.2669 3.71566 19.5925C3.71566 13.918 8.22897 9.31863 13.7973 9.31863C19.3655 9.31863 23.8788 13.918 23.8788 19.5925C23.8788 25.2669 19.3655 29.8663 13.7973 29.8663Z" fill="#9E9EA3"/>
</svg>
