<svg width="22" height="22" viewBox="0 0 22 22" fill="none" xmlns="http://www.w3.org/2000/svg">
<path d="M11 21C16.5228 21 21 16.5228 21 11C21 5.47715 16.5228 1 11 1C5.47715 1 1 5.47715 1 11C1 16.5228 5.47715 21 11 21Z" stroke="#CACAD1" stroke-width="2"/>
<path d="M11 4C11.5523 4 12 3.55228 12 3C12 2.44772 11.5523 2 11 2C10.4477 2 10 2.44772 10 3C10 3.55228 10.4477 4 11 4Z" fill="#CACAD1"/>
<path d="M11 20C11.5523 20 12 19.5523 12 19C12 18.4477 11.5523 18 11 18C10.4477 18 10 18.4477 10 19C10 19.5523 10.4477 20 11 20Z" fill="#CACAD1"/>
<path d="M4 11C4 10.4477 3.55228 10 3 10C2.44772 10 2 10.4477 2 11C2 11.5523 2.44772 12 3 12C3.55228 12 4 11.5523 4 11Z" fill="#CACAD1"/>
<path d="M20 11C20 10.4477 19.5523 10 19 10C18.4477 10 18 10.4477 18 11C18 11.5523 18.4477 12 19 12C19.5523 12 20 11.5523 20 11Z" fill="#CACAD1"/>
<path d="M5.98535 6.73828L11.1152 11.5859L15.1367 7.08594" stroke="#CACAD1"/>
</svg>
