<svg xmlns="http://www.w3.org/2000/svg" width="224" height="60.034" viewBox="0 0 224 60.034">
  <g id="Group_1178" data-name="Group 1178" transform="translate(-192 -111.416)">
    <g id="Group_1176" data-name="Group 1176" transform="translate(-0.988 1.117)">
      <path id="Path_840" data-name="Path 840" d="M62.541,45.728a11.971,11.971,0,0,1-9.2-4.087,14.77,14.77,0,0,1-3.734-10.362,14.865,14.865,0,0,1,3.708-10.338,12.03,12.03,0,0,1,9.335-4.113,10.8,10.8,0,0,1,4.843,1.137,8.764,8.764,0,0,1,3.544,3.03V6.654h7.037V45.079h-6.6V41.128a8.384,8.384,0,0,1-3.816,3.382,11.855,11.855,0,0,1-5.114,1.218M64,23.106a6.827,6.827,0,0,0-5.167,2.274A8.182,8.182,0,0,0,56.7,31.224a8.355,8.355,0,0,0,2.139,5.926,7.014,7.014,0,0,0,10.362.028,8.4,8.4,0,0,0,2.112-5.954A8.232,8.232,0,0,0,69.2,25.351,6.854,6.854,0,0,0,64,23.106" transform="translate(215.503 113.756)" fill="#3d3d3f"/>
      <path id="Path_841" data-name="Path 841" d="M74.842,38.112A13.829,13.829,0,0,1,70.648,27.82a14.354,14.354,0,0,1,4.006-10.346A13.436,13.436,0,0,1,84.773,13.3a12.7,12.7,0,0,1,9.391,3.6,12.446,12.446,0,0,1,3.6,9.181,15.987,15.987,0,0,1-.435,3.412H77.955a6.662,6.662,0,0,0,2.624,4.875,8.863,8.863,0,0,0,5.493,1.734,9.472,9.472,0,0,0,7.251-3.087l3.9,4.657a16.016,16.016,0,0,1-11.473,4.551,14.91,14.91,0,0,1-10.905-4.117m9.877-18.9A7.011,7.011,0,0,0,80.2,20.7a6.1,6.1,0,0,0-2.246,4.034H90.889v-.054A5.675,5.675,0,0,0,88.94,20.7a6.244,6.244,0,0,0-4.22-1.49" transform="translate(226.677 117.281)" fill="#3d3d3f"/>
      <path id="Path_842" data-name="Path 842" d="M89.262,36l4.762-3.519q2.6,4.059,6.6,4.061a6.078,6.078,0,0,0,3.057-.649,1.956,1.956,0,0,0,1.111-1.734,2.3,2.3,0,0,0-1.192-2A25.225,25.225,0,0,0,98.841,30.2a17.722,17.722,0,0,1-6.549-3.438,6.826,6.826,0,0,1-2.11-5.227,7.131,7.131,0,0,1,3.057-5.9,13.207,13.207,0,0,1,13.585-.839,9.965,9.965,0,0,1,4.03,3.98l-4.707,3.412a6.07,6.07,0,0,0-5.466-3.25,5.127,5.127,0,0,0-2.788.7,2.113,2.113,0,0,0-1.109,1.841A2.142,2.142,0,0,0,98,23.271a26.954,26.954,0,0,0,4.519,1.95,24,24,0,0,1,6.737,3.521,6.456,6.456,0,0,1,2.138,5.253,7.2,7.2,0,0,1-3,5.878,12.222,12.222,0,0,1-7.767,2.357,14.05,14.05,0,0,1-6.791-1.652A10.756,10.756,0,0,1,89.262,36" transform="translate(236.56 117.281)" fill="#3d3d3f"/>
      <path id="Path_843" data-name="Path 843" d="M106.861,12.7a3.855,3.855,0,0,1-1.164-2.84,3.774,3.774,0,0,1,1.164-2.815,4.224,4.224,0,0,1,5.763,0,3.735,3.735,0,0,1,1.19,2.815,3.814,3.814,0,0,1-1.19,2.84,4.147,4.147,0,0,1-5.763,0m-.569,5.167h7.036v27.6h-7.036Z" transform="translate(245.283 113.362)" fill="#3d3d3f"/>
      <path id="Path_844" data-name="Path 844" d="M112.759,45.45q0-3.679,4.439-5.628a4.638,4.638,0,0,1-2-3.951,6.944,6.944,0,0,1,2.257-5.12,9.009,9.009,0,0,1-3.825-7.544,8.967,8.967,0,0,1,3.3-7.036,11.861,11.861,0,0,1,8.064-2.869,11.469,11.469,0,0,1,3.842.65h13.744v5.411h-7.141a7.914,7.914,0,0,1,.973,3.844,8.994,8.994,0,0,1-3.328,7.089,12.044,12.044,0,0,1-8.145,2.869,13.438,13.438,0,0,1-2.11-.164q-1.354.7-1.353,1.734a1.36,1.36,0,0,0,.649,1.19,2.663,2.663,0,0,0,1.516.432h6.927a10.142,10.142,0,0,1,6.817,2.219,7.2,7.2,0,0,1,2.6,5.738q0,3.732-3.925,6.223T125.8,53.027q-5.954,0-9.5-2.058t-3.545-5.519m6.873-.92q0,1.352,1.731,2.138a11.126,11.126,0,0,0,4.548.785,13.8,13.8,0,0,0,5.33-.813q1.868-.81,1.867-2.219a2.117,2.117,0,0,0-1.028-1.867,4.523,4.523,0,0,0-2.543-.676h-7.684q-2.219.92-2.219,2.652m1.815-24.516a4.142,4.142,0,0,0-1.437,3.193,4.225,4.225,0,0,0,1.437,3.219,5.016,5.016,0,0,0,3.544,1.327,5.117,5.117,0,0,0,3.571-1.327,4.191,4.191,0,0,0,1.46-3.219,4.109,4.109,0,0,0-1.46-3.193,5.187,5.187,0,0,0-3.571-1.3,5.084,5.084,0,0,0-3.544,1.3" transform="translate(249.041 117.305)" fill="#3d3d3f"/>
      <path id="Path_845" data-name="Path 845" d="M131.839,41.579V13.954h2.976a3.791,3.791,0,0,1,3.789,3.792q2.706-4.443,8.5-4.443a10.226,10.226,0,0,1,7.793,3.089q2.922,3.087,2.923,8.449V41.579h-7.036V25.653a6.172,6.172,0,0,0-1.542-4.469,5.931,5.931,0,0,0-8.74.7,9.212,9.212,0,0,0-1.624,5.444V41.579Z" transform="translate(259.171 117.281)" fill="#3d3d3f"/>
    </g>
    <g id="Group_1177" data-name="Group 1177" transform="translate(0 1.131)">
      <path id="Path_12792" data-name="Path 12792" d="M132.707,42.591v7.543h18.647L136.06,81.095h8.415l13.657-27.656a7.518,7.518,0,0,0-6.74-10.848Z" transform="translate(59.293 77.774)" fill="#ff5f6b"/>
      <path id="Path_12793" data-name="Path 12793" d="M180.542,58.07h-7.974a3.966,3.966,0,1,1,0-7.933h20.157V42.591H172.569a11.447,11.447,0,0,0-4.286.83l-6.8,13.776a11.532,11.532,0,0,0,11.088,8.419h7.974a3.966,3.966,0,0,1,0,7.933l-27.119-.038-3.744,7.584h30.863a11.513,11.513,0,1,0,0-23.025Z" transform="translate(68.132 77.773)" fill="#ff5f6b"/>
      <path id="Path_12794" data-name="Path 12794" d="M139.243,35.963v7.543h24.9L143.888,84.547H152.3l18.625-37.719a7.53,7.53,0,0,0-6.751-10.865Z" transform="translate(62.697 74.322)" fill="#ff5f6b"/>
    </g>
  </g>
</svg>
