<svg width="51" height="37" viewBox="0 0 51 37" fill="none" xmlns="http://www.w3.org/2000/svg">
<path d="M14.5876 21.0702V29.8772C14.5876 30.0533 14.5177 30.2221 14.3932 30.3466C14.2687 30.4711 14.0999 30.541 13.9238 30.541H6.04613C5.87008 30.541 5.70124 30.4711 5.57675 30.3466C5.45227 30.2221 5.38233 30.0533 5.38233 29.8772V18.3115C5.38233 18.1355 5.45227 17.9666 5.57675 17.8421C5.70124 17.7177 5.87008 17.6477 6.04613 17.6477H18.5298C18.478 16.5053 18.1888 15.3862 17.6805 14.3617C17.1723 13.3372 16.4561 12.4299 15.5778 11.6975C14.9957 11.1908 14.5292 10.565 14.2099 9.86242C13.8906 9.15983 13.7258 8.39686 13.7269 7.62512V7.40214C13.7197 6.63866 13.8708 5.88198 14.1707 5.17983C14.4706 4.47768 14.9127 3.84531 15.4693 3.32261C15.5809 3.23643 15.6735 3.12817 15.7414 3.00459C15.8093 2.88101 15.851 2.74476 15.8639 2.60434C15.8517 2.18842 15.677 1.79385 15.3772 1.50528C15.0775 1.21672 14.6765 1.05716 14.2604 1.06085H5.64832C5.44086 1.06201 5.23574 1.10472 5.04506 1.18647C4.85438 1.26822 4.68201 1.38734 4.53814 1.53681C4.39426 1.68628 4.28179 1.86306 4.20737 2.05671C4.13295 2.25037 4.09808 2.45697 4.10484 2.66433C4.11907 2.79753 4.16097 2.92629 4.22785 3.04236C4.29472 3.15843 4.38509 3.25926 4.49317 3.3384C5.04878 3.84143 5.49187 4.45615 5.79342 5.14231C6.09498 5.82846 6.24821 6.57057 6.24307 7.32005V7.62393C6.24452 8.39596 6.07984 9.15926 5.7602 9.86201C5.44055 10.5648 4.97344 11.1905 4.39057 11.6967C3.46067 12.4987 2.71483 13.4918 2.204 14.6085C1.69316 15.7251 1.42938 16.9388 1.43067 18.1667V30.9961C1.43119 32.1302 1.88196 33.2177 2.68391 34.0197C3.48586 34.8216 4.57339 35.2724 5.70752 35.2729H14.2616C15.3957 35.2728 16.4834 34.8222 17.2853 34.0202C18.0872 33.2183 18.5377 32.1306 18.5377 30.9965L18.7228 25.2925L33.2535 32.5759C33.6421 32.772 34.0714 32.8742 34.5067 32.8742C34.9421 32.8742 35.3713 32.772 35.7599 32.5759L47.9184 26.4939C48.3846 26.2618 48.7768 25.9042 49.051 25.4615C49.3251 25.0187 49.4703 24.5082 49.4702 23.9874V10.8297C49.4702 10.2591 49.2962 9.7021 48.9714 9.23297C48.6466 8.76385 48.1865 8.40492 47.6524 8.20407L35.4908 3.64346C34.8581 3.39949 34.1577 3.39725 33.5234 3.63715L19.7611 8.84854" stroke="white" stroke-width="2" stroke-linejoin="round"/>
</svg>
