<svg width="126" height="91" viewBox="0 0 126 91" fill="none" xmlns="http://www.w3.org/2000/svg">
<path d="M90.952 48.759V70.819L114.652 58.963V28.923C114.652 28.916 86.217 40.47 86.217 40.47L57.772 28.916L86.214 18.083L104.438 24.814" stroke="white" stroke-width="3" stroke-linecap="round" stroke-linejoin="round"/>
<path d="M35.7289 53.0571V75.3731C35.7289 75.8192 35.5517 76.247 35.2362 76.5625C34.9208 76.8779 34.493 77.0551 34.0469 77.0551H14.0859C13.6398 77.0551 13.212 76.8779 12.8965 76.5625C12.5811 76.247 12.4039 75.8192 12.4039 75.3731V46.0671C12.4039 45.621 12.5811 45.1932 12.8965 44.8778C13.212 44.5623 13.6398 44.3851 14.0859 44.3851H45.7179C45.5867 41.4903 44.8538 38.6546 43.5659 36.0588C42.2781 33.4629 40.4635 31.1638 38.2379 29.3081C36.7629 28.0242 35.5809 26.4384 34.7718 24.6582C33.9627 22.8779 33.5453 20.9446 33.5479 18.9891V18.4241C33.5296 16.4896 33.9125 14.5722 34.6724 12.7931C35.4323 11.0139 36.5527 9.41157 37.9629 8.08712C38.2457 7.86874 38.4804 7.59442 38.6525 7.28129C38.8245 6.96815 38.9302 6.62291 38.9629 6.26711C38.932 5.21323 38.4893 4.21343 37.7297 3.48224C36.9701 2.75106 35.9542 2.34677 34.8999 2.35612H13.0779C12.5522 2.35904 12.0324 2.46727 11.5493 2.67441C11.0661 2.88155 10.6294 3.18339 10.2648 3.56212C9.90024 3.94086 9.61526 4.3888 9.42669 4.8795C9.23812 5.3702 9.14977 5.89371 9.16688 6.41912C9.20296 6.75663 9.30913 7.08288 9.47857 7.377C9.64801 7.67111 9.877 7.9266 10.1509 8.12712C11.5587 9.40175 12.6814 10.9594 13.4455 12.698C14.2097 14.4366 14.5979 16.317 14.5849 18.2161V18.9861C14.5886 20.9423 14.1713 22.8764 13.3614 24.6571C12.5514 26.4378 11.3678 28.0233 9.89088 29.3061C7.53464 31.338 5.64477 33.8546 4.35039 36.684C3.05601 39.5133 2.38762 42.5887 2.39088 45.7001V78.2081C2.39221 81.0819 3.53438 83.8375 5.56643 85.8696C7.59847 87.9016 10.3541 89.0438 13.2279 89.0451H34.9029C37.7766 89.0448 40.5325 87.9031 42.5644 85.871C44.5964 83.8389 45.7379 81.0828 45.7379 78.2091L46.2069 63.7561L83.0259 82.2111C84.0106 82.7082 85.0983 82.9671 86.2014 82.9671C87.3045 82.9671 88.3921 82.7082 89.3769 82.2111L120.185 66.8001C121.366 66.212 122.36 65.3061 123.055 64.1841C123.749 63.0622 124.117 61.7687 124.117 60.4491V27.1091C124.117 25.6633 123.676 24.2519 122.853 23.0632C122.03 21.8745 120.864 20.965 119.511 20.4561L88.6949 8.90012C87.0917 8.28193 85.317 8.27623 83.7099 8.88412L48.8379 22.0891" stroke="white" stroke-width="3" stroke-linejoin="round"/>
</svg>
