<svg width="50" height="37" viewBox="0 0 50 37" fill="none" xmlns="http://www.w3.org/2000/svg">
<path d="M35.9508 19.3742V28.0802L45.3041 23.4012V11.5459C45.3041 11.5431 34.0821 16.1029 34.0821 16.1029L22.8562 11.5431L34.0809 7.26782L41.2731 9.92423" stroke="white" stroke-width="1.5" stroke-linecap="round" stroke-linejoin="round"/>
<path d="M14.1569 21.0702V29.8772C14.1569 30.0533 14.087 30.2221 13.9625 30.3466C13.838 30.4711 13.6692 30.541 13.4931 30.541H5.61547C5.43942 30.541 5.27058 30.4711 5.14609 30.3466C5.0216 30.2221 4.95167 30.0533 4.95167 29.8772V18.3115C4.95167 18.1355 5.0216 17.9666 5.14609 17.8421C5.27058 17.7177 5.43942 17.6477 5.61547 17.6477H18.0991C18.0474 16.5053 17.7581 15.3862 17.2499 14.3617C16.7416 13.3372 16.0255 12.4299 15.1471 11.6975C14.565 11.1908 14.0985 10.565 13.7792 9.86242C13.4599 9.15983 13.2952 8.39686 13.2962 7.62511V7.40214C13.289 6.63866 13.4401 5.88198 13.74 5.17983C14.0399 4.47768 14.4821 3.84531 15.0386 3.32261C15.1502 3.23643 15.2428 3.12817 15.3107 3.00459C15.3786 2.88101 15.4203 2.74476 15.4332 2.60434C15.4211 2.18842 15.2464 1.79385 14.9466 1.50528C14.6468 1.21672 14.2459 1.05716 13.8298 1.06085H5.21766C5.0102 1.06201 4.80507 1.10472 4.6144 1.18647C4.42372 1.26822 4.25135 1.38734 4.10747 1.53681C3.9636 1.68628 3.85113 1.86306 3.77671 2.05671C3.70229 2.25037 3.66742 2.45697 3.67417 2.66433C3.68841 2.79753 3.73031 2.92629 3.79718 3.04236C3.86405 3.15843 3.95442 3.25926 4.06251 3.3384C4.61812 3.84143 5.0612 4.45615 5.36276 5.14231C5.66432 5.82846 5.81754 6.57057 5.8124 7.32005V7.62393C5.81386 8.39596 5.64917 9.15926 5.32953 9.86201C5.00989 10.5648 4.54278 11.1905 3.9599 11.6967C3.03001 12.4987 2.28416 13.4918 1.77333 14.6085C1.2625 15.7251 0.998717 16.9388 1 18.1667V30.9961C1.00053 32.1302 1.45129 33.2177 2.25324 34.0197C3.0552 34.8216 4.14273 35.2724 5.27686 35.2729H13.831C14.9651 35.2728 16.0527 34.8222 16.8546 34.0202C17.6565 33.2183 18.107 32.1306 18.107 30.9965L18.2921 25.2925L32.8228 32.5759C33.2115 32.772 33.6407 32.8742 34.0761 32.8742C34.5114 32.8742 34.9406 32.772 35.3293 32.5759L47.4877 26.4939C47.9539 26.2618 48.3462 25.9042 48.6203 25.4615C48.8944 25.0187 49.0396 24.5082 49.0395 23.9874V10.8297C49.0395 10.2591 48.8655 9.7021 48.5407 9.23297C48.2159 8.76385 47.7558 8.40492 47.2217 8.20407L35.0601 3.64346C34.4274 3.39949 33.727 3.39725 33.0928 3.63715L19.3304 8.84854" stroke="white" stroke-width="1.5" stroke-linejoin="round"/>
</svg>
