<svg width="57" height="47" viewBox="0 0 57 47" fill="none" xmlns="http://www.w3.org/2000/svg">
<path d="M30.3363 17.6318H19.3474V29.5841H30.3363V17.6318Z" stroke="white" stroke-width="1.5" stroke-linecap="round" stroke-linejoin="round"/>
<path d="M34.2501 19.4155L35.5974 16.8787L38.292 21.9519H32.9048L34.2501 19.4155Z" stroke="white" stroke-width="1.5" stroke-linecap="round" stroke-linejoin="round"/>
<path d="M35.5976 29.4661C35.154 29.4626 34.7213 29.3279 34.3541 29.0789C33.987 28.83 33.7018 28.4779 33.5344 28.067C33.3671 27.6562 33.3251 27.205 33.4138 26.7704C33.5025 26.3357 33.7178 25.937 34.0328 25.6246C34.3477 25.3122 34.7481 25.1 35.1834 25.0148C35.6188 24.9295 36.0696 24.9751 36.4791 25.1457C36.8886 25.3163 37.2384 25.6044 37.4844 25.9735C37.7305 26.3426 37.8617 26.7763 37.8616 27.2199C37.8589 27.8179 37.619 28.3904 37.1944 28.8115C36.7699 29.2327 36.1955 29.4681 35.5976 29.4661Z" stroke="white" stroke-width="1.5" stroke-linecap="round" stroke-linejoin="round"/>
<path d="M38.5994 1.375C36.8682 3.76867 33.037 5.43918 28.5661 5.43918C24.0952 5.43918 20.2645 3.76867 18.5333 1.375L1.76358 9.68828C1.43692 9.85274 1.1884 10.1395 1.07207 10.4863C0.955736 10.833 0.980998 11.2116 1.14236 11.5398L6.06898 21.3999C6.23343 21.7265 6.52024 21.975 6.867 22.0913C7.21376 22.2075 7.5924 22.1821 7.92052 22.0206L12.7942 19.6352C13.0047 19.5336 13.2376 19.487 13.471 19.4998C13.7043 19.5127 13.9307 19.5845 14.1287 19.7085C14.3268 19.8326 14.4902 20.0049 14.6037 20.2093C14.7171 20.4136 14.7768 20.6434 14.7773 20.8772V42.7196C14.7767 43.0812 14.8474 43.4394 14.9853 43.7736C15.1233 44.1079 15.3258 44.4117 15.5814 44.6675C15.8369 44.9234 16.1404 45.1264 16.4744 45.2648C16.8085 45.4033 17.1666 45.4745 17.5282 45.4743H39.5817C40.312 45.4743 41.0125 45.1848 41.5297 44.6691C42.0468 44.1534 42.3383 43.4538 42.3404 42.7235V20.8655C42.3405 20.5002 42.4857 20.15 42.7439 19.8917C43.0022 19.6334 43.3525 19.4883 43.7178 19.4881C43.9264 19.4891 44.1322 19.5367 44.3201 19.6274L49.1933 22.0133C49.5192 22.1773 49.8968 22.2052 50.2433 22.0909C50.5897 21.9766 50.8766 21.7295 51.041 21.4037L51.0448 21.3921L55.9826 11.5398C56.1468 11.2137 56.1752 10.8359 56.0616 10.489C55.948 10.142 55.7017 9.85415 55.3764 9.68828H55.3692L43.0844 3.59492L42.5796 4.20838C40.1588 7.55718 34.8012 9.89163 28.5491 9.89163C24.0807 9.89163 20.0742 8.70014 17.2666 6.79957" stroke="white" stroke-width="1.5" stroke-miterlimit="10"/>
</svg>
