<svg width="60" height="49" viewBox="0 0 60 49" fill="none" xmlns="http://www.w3.org/2000/svg">
<path d="M31.809 19.1318H20.8201V31.0841H31.809V19.1318Z" stroke="white" stroke-width="2" stroke-linecap="round" stroke-linejoin="round"/>
<path d="M35.7228 20.9155L37.0701 18.3787L39.7646 23.4519H34.3774L35.7228 20.9155Z" stroke="white" stroke-width="2" stroke-linecap="round" stroke-linejoin="round"/>
<path d="M37.0702 30.9663C36.6266 30.9628 36.194 30.8281 35.8268 30.5792C35.4596 30.3302 35.1744 29.9781 35.0071 29.5673C34.8397 29.1564 34.7977 28.7053 34.8864 28.2706C34.9751 27.8359 35.1905 27.4373 35.5054 27.1248C35.8203 26.8124 36.2207 26.6002 36.6561 26.515C37.0914 26.4298 37.5423 26.4753 37.9517 26.646C38.3612 26.8166 38.711 27.1046 38.9571 27.4737C39.2031 27.8429 39.3344 28.2766 39.3343 28.7202C39.3316 29.3182 39.0916 29.8906 38.6671 30.3118C38.2426 30.733 37.6682 30.9684 37.0702 30.9663Z" stroke="white" stroke-width="2" stroke-linecap="round" stroke-linejoin="round"/>
<path d="M40.0721 2.875C38.3409 5.26867 34.5097 6.93918 30.0388 6.93918C25.5679 6.93918 21.7372 5.26867 20.006 2.875L3.23624 11.1883C2.90958 11.3527 2.66106 11.6395 2.54473 11.9863C2.42839 12.333 2.45365 12.7116 2.61501 13.0398L7.54163 22.8999C7.70609 23.2265 7.9929 23.475 8.33966 23.5913C8.68642 23.7075 9.06505 23.6821 9.39318 23.5206L14.2669 21.1352C14.4774 21.0336 14.7102 20.987 14.9436 20.9998C15.177 21.0127 15.4033 21.0845 15.6014 21.2085C15.7995 21.3326 15.9629 21.5049 16.0763 21.7093C16.1897 21.9136 16.2495 22.1434 16.25 22.3772V44.2196C16.2493 44.5812 16.32 44.9394 16.458 45.2736C16.596 45.6079 16.7985 45.9117 17.054 46.1675C17.3095 46.4234 17.613 46.6264 17.9471 46.7648C18.2811 46.9033 18.6392 46.9745 19.0008 46.9743H41.0544C41.7847 46.9743 42.4852 46.6848 43.0023 46.1691C43.5194 45.6534 43.811 44.9538 43.813 44.2235V22.3655C43.8132 22.0002 43.9583 21.65 44.2166 21.3917C44.4749 21.1334 44.8251 20.9883 45.1904 20.9881C45.399 20.9891 45.6048 21.0367 45.7927 21.1274L50.6659 23.5133C50.9918 23.6773 51.3695 23.7052 51.7159 23.5909C52.0624 23.4766 52.3493 23.2295 52.5136 22.9037L52.5175 22.8921L57.4553 13.0398C57.6194 12.7137 57.6478 12.3359 57.5342 11.989C57.4206 11.642 57.1743 11.3541 56.8491 11.1883H56.8418L44.557 5.09492L44.0523 5.70838C41.6315 9.05718 36.2739 11.3916 30.0218 11.3916C25.5533 11.3916 21.5469 10.2001 18.7392 8.29957" stroke="white" stroke-width="3" stroke-miterlimit="10"/>
</svg>
