<svg width="43" height="41" viewBox="0 0 43 41" fill="none" xmlns="http://www.w3.org/2000/svg">
<path d="M16.9391 15.7702L26.2751 6.85197M17.0458 10.963L7.62182 2.65186C6.98101 2.20066 6.20193 1.98921 5.42094 2.0545C4.63994 2.11979 3.90679 2.45767 3.34979 3.00901C2.7928 3.56034 2.44745 4.29001 2.37418 5.0703C2.30092 5.85058 2.5044 6.63178 2.94903 7.27716L12.9407 19.0672C12.9407 19.0672 13.0313 19.1792 13.1813 19.3552C11.3775 21.0731 6.50684 25.7085 6.50684 25.7085C5.70319 26.4778 5.10366 27.435 4.76234 28.4938C4.76234 28.4938 1.82818 38.8487 2.28698 39.2595C2.74097 39.8085 13.2234 37.3705 13.2234 37.3705C14.2988 37.0836 15.2842 36.5296 16.0882 35.7599L22.5802 29.5715C22.5802 29.6557 22.5802 29.7459 22.5844 29.8233C22.6991 33.7465 25.4941 35.9615 29.938 36.7111C34.3819 37.4606 40.2545 36.543 40.7266 35.2803C41.1075 34.2666 39.9739 33.7225 38.6647 32.7974C38.1232 32.4095 37.6795 31.9007 37.3687 31.3115C37.058 30.7223 36.8887 30.0688 36.8743 29.4029C36.8065 27.5993 36.0596 25.8881 34.7834 24.6119C33.5072 23.3357 31.7959 22.5888 29.9924 22.5209L34.1328 18.5779L39.6223 13.3445C40.0829 12.9066 40.4525 12.3822 40.7101 11.8013C40.9678 11.2204 41.1083 10.5944 41.1236 9.95915C41.139 9.32387 41.0289 8.6918 40.7997 8.09912C40.5704 7.50645 40.2265 6.96481 39.7877 6.50521L36.8855 3.45368C36.4471 2.99316 35.9222 2.62355 35.3409 2.36599C34.7596 2.10842 34.1332 1.96794 33.4975 1.95258C32.8619 1.93723 32.2294 2.04729 31.6363 2.27648C31.0432 2.50567 30.5011 2.84949 30.0409 3.2883L26.2959 6.85731L32.687 13.5632" stroke="white" stroke-width="3" stroke-linejoin="round"/>
</svg>
