<svg width="41" height="40" viewBox="0 0 41 40" fill="none" xmlns="http://www.w3.org/2000/svg">
<path d="M15.7008 15.2702L25.0368 6.35197M15.8075 10.463L6.38354 2.15186C5.74273 1.70066 4.96365 1.48921 4.18265 1.5545C3.40166 1.61979 2.66851 1.95767 2.11151 2.50901C1.55452 3.06034 1.20917 3.79001 1.1359 4.5703C1.06263 5.35058 1.26612 6.13178 1.71075 6.77716L11.7024 18.5672C11.7024 18.5672 11.7931 18.6792 11.943 18.8552C10.1393 20.5731 5.26856 25.2085 5.26856 25.2085C4.4649 25.9778 3.86538 26.935 3.52406 27.9938C3.52406 27.9938 0.5899 38.3487 1.0487 38.7595C1.50269 39.3085 11.9851 36.8705 11.9851 36.8705C13.0605 36.5836 14.046 36.0296 14.8499 35.2599L21.3419 29.0715C21.3419 29.1557 21.3419 29.2459 21.3462 29.3233C21.4609 33.2465 24.2558 35.4615 28.6997 36.2111C33.1436 36.9606 39.0162 36.043 39.4883 34.7803C39.8693 33.7666 38.7356 33.2225 37.4264 32.2974C36.8849 31.9095 36.4412 31.4007 36.1305 30.8115C35.8197 30.2223 35.6504 29.5688 35.6361 28.9029C35.5682 27.0993 34.8213 25.3881 33.5451 24.1119C32.2689 22.8357 30.5577 22.0888 28.7541 22.0209L32.8945 18.0779L38.384 12.8445C38.8446 12.4066 39.2142 11.8822 39.4719 11.3013C39.7295 10.7204 39.87 10.0944 39.8853 9.45915C39.9007 8.82387 39.7906 8.1918 39.5614 7.59912C39.3321 7.00645 38.9883 6.46481 38.5494 6.00521L35.6473 2.95368C35.2088 2.49316 34.684 2.12355 34.1026 1.86599C33.5213 1.60842 32.8949 1.46794 32.2592 1.45258C31.6236 1.43723 30.9911 1.54729 30.398 1.77648C29.8049 2.00567 29.2628 2.34949 28.8027 2.7883L25.0576 6.35731L31.4487 13.0632" stroke="white" stroke-width="1.5" stroke-linejoin="round"/>
</svg>
