<svg width="58" height="32" viewBox="0 0 58 32" fill="none" xmlns="http://www.w3.org/2000/svg">
<path d="M36.985 13.9351C36.9859 14.7885 36.8187 15.6337 36.4931 16.4224C36.1674 17.2111 35.6897 17.9279 35.0871 18.5318C34.4845 19.1358 33.7689 19.615 32.9812 19.9422C32.1934 20.2693 31.349 20.438 30.496 20.4386H30.487C29.4667 20.4379 28.4609 20.1967 27.5513 19.7343C26.6416 19.2719 25.8538 18.6015 25.2516 17.7775C24.6494 16.9535 24.2498 15.999 24.0854 14.9915C23.9209 13.9841 23.9961 12.952 24.305 11.9791C24.6138 11.0062 25.1476 10.1198 25.8629 9.3919C26.5782 8.664 27.455 8.11508 28.4221 7.78969C29.3891 7.46429 30.4192 7.37158 31.4288 7.51907C32.4384 7.66657 33.399 8.05012 34.2327 8.63861" stroke="white" stroke-width="3" stroke-miterlimit="10"/>
<path d="M43.9417 10.8082C43.1526 12.0781 42.8261 13.5818 43.0176 15.0648C43.247 16.6514 44.0451 18.1005 45.2631 19.1422C46.4811 20.1838 48.036 20.747 49.6382 20.7269C50.8871 20.7352 52.1096 20.3675 53.1469 19.6715C54.1842 18.9756 54.9883 17.9836 55.4547 16.8245C55.8763 15.8318 56.0456 14.75 55.9475 13.6758C55.8493 12.6017 55.4868 11.5685 54.8922 10.6688C54.2976 9.76898 53.4896 9.03055 52.5402 8.51944C51.5908 8.00833 50.5297 7.74046 49.4516 7.73975H40.6045C39.645 7.73946 38.7246 8.12052 38.0458 8.79911C37.3671 9.4777 36.9856 10.3982 36.9851 11.3583L36.9814 23.2767C36.9826 25.0003 36.2994 26.6538 35.0821 27.8734C33.8648 29.0931 32.2131 29.7789 30.4904 29.7801C28.7676 29.7813 27.115 29.0978 25.896 27.8798C24.6769 26.6619 23.9914 25.0094 23.9902 23.2858" stroke="white" stroke-width="3" stroke-miterlimit="10"/>
<path d="M10.9977 17.2302C10.135 15.7439 9.89599 13.9761 10.3331 12.3138C10.7702 10.6516 11.8478 9.2304 13.3299 8.36133C14.8121 7.49226 16.578 7.24615 18.2411 7.67688C19.9042 8.10762 21.329 9.1801 22.2035 10.6595L22.2077 10.6675C22.7915 11.6675 23.0976 12.8053 23.0942 13.9634C23.0908 15.1214 22.7781 16.2574 22.1884 17.2539C21.5987 18.2504 20.7536 19.0711 19.7404 19.631C18.7273 20.1909 17.5829 20.4696 16.4259 20.4384H7.79538C6.1903 20.4369 4.65143 19.7981 3.51662 18.6624C2.38181 17.5267 1.74381 15.9869 1.74268 14.381V0.6875" stroke="white" stroke-width="3" stroke-miterlimit="10"/>
</svg>
