<svg width="56" height="31" viewBox="0 0 56 31" fill="none" xmlns="http://www.w3.org/2000/svg">
<path d="M36.2423 13.9351C36.2432 14.7885 36.076 15.6337 35.7504 16.4224C35.4248 17.2111 34.947 17.9279 34.3444 18.5318C33.7418 19.1358 33.0262 19.615 32.2385 19.9422C31.4507 20.2693 30.6063 20.438 29.7534 20.4386H29.7443C28.724 20.4379 27.7182 20.1967 26.8086 19.7343C25.899 19.2719 25.1111 18.6015 24.5089 17.7775C23.9067 16.9535 23.5072 15.999 23.3427 14.9915C23.1782 13.9841 23.2535 12.952 23.5623 11.9791C23.8711 11.0062 24.4049 10.1198 25.1202 9.3919C25.8356 8.664 26.7123 8.11508 27.6794 7.78969C28.6465 7.46429 29.6766 7.37158 30.6862 7.51907C31.6957 7.66657 32.6563 8.05012 33.49 8.63861" stroke="white" stroke-width="1.5" stroke-miterlimit="10"/>
<path d="M43.1991 10.8082C42.4099 12.0781 42.0835 13.5818 42.2749 15.0648C42.5044 16.6514 43.3024 18.1005 44.5204 19.1422C45.7384 20.1838 47.2933 20.747 48.8955 20.7269C50.1444 20.7352 51.3669 20.3675 52.4042 19.6715C53.4415 18.9756 54.2456 17.9836 54.712 16.8245C55.1336 15.8318 55.3029 14.75 55.2048 13.6758C55.1066 12.6017 54.7441 11.5685 54.1495 10.6688C53.5549 9.76898 52.7469 9.03055 51.7975 8.51944C50.8481 8.00833 49.787 7.74046 48.7089 7.73975H39.8618C38.9023 7.73946 37.9819 8.12052 37.3032 8.79911C36.6244 9.4777 36.2429 10.3982 36.2425 11.3583L36.2387 23.2767C36.2399 25.0003 35.5567 26.6538 34.3394 27.8734C33.1221 29.0931 31.4704 29.7789 29.7477 29.7801C28.0249 29.7813 26.3723 29.0978 25.1533 27.8798C23.9343 26.6619 23.2488 25.0094 23.2476 23.2858" stroke="white" stroke-width="1.5" stroke-miterlimit="10"/>
<path d="M10.255 17.2302C9.39229 15.7439 9.15331 13.9761 9.59043 12.3138C10.0275 10.6516 11.1051 9.2304 12.5873 8.36133C14.0694 7.49226 15.8353 7.24615 17.4984 7.67688C19.1615 8.10762 20.5863 9.1801 21.4608 10.6595L21.4651 10.6675C22.0489 11.6675 22.3549 12.8053 22.3515 13.9634C22.3481 15.1214 22.0354 16.2574 21.4457 17.2539C20.8561 18.2504 20.0109 19.0711 18.9978 19.631C17.9846 20.1909 16.8403 20.4696 15.6833 20.4384H7.0527C5.44763 20.4369 3.90876 19.7981 2.77395 18.6624C1.63914 17.5267 1.00113 15.9869 1 14.381V0.6875" stroke="white" stroke-width="1.5" stroke-miterlimit="10"/>
</svg>
