<svg width="41" height="45" viewBox="0 0 41 45" fill="none" xmlns="http://www.w3.org/2000/svg">
<path d="M39.7628 7.17101V4.07048C39.7628 3.21658 39.4236 2.39765 38.8198 1.79384C38.216 1.19004 37.397 0.85083 36.5431 0.85083H4.21965C3.36575 0.85083 2.54681 1.19004 1.94301 1.79384C1.33921 2.39765 1 3.21658 1 4.07048V40.2713C1 41.1253 1.33921 41.9442 1.94301 42.548C2.54681 43.1518 3.36575 43.491 4.21965 43.491H36.5445C37.3984 43.491 38.2173 43.1518 38.8211 42.548C39.425 41.9442 39.7642 41.1253 39.7642 40.2713V12.5221H7.47564C7.29436 12.5069 7.11436 12.5635 6.97441 12.6798C6.83445 12.796 6.74572 12.9625 6.7273 13.1435V34.8255C6.74572 35.0066 6.83444 35.1731 6.97438 35.2894C7.11432 35.4057 7.29431 35.4624 7.47564 35.4474H33.0489C33.2302 35.4625 33.4103 35.4059 33.5503 35.2895C33.6902 35.1732 33.7789 35.0066 33.7972 34.8255V16.8189" stroke="white" stroke-width="1.5" stroke-linejoin="round"/>
<path d="M11.3492 6.14721H32.454C32.5896 6.1347 32.7262 6.1506 32.8553 6.1939C32.9843 6.23719 33.1029 6.30693 33.2035 6.39865C33.3041 6.49037 33.3844 6.60206 33.4394 6.72658C33.4944 6.85111 33.5227 6.98572 33.5227 7.12184C33.5227 7.25796 33.4944 7.39258 33.4394 7.5171C33.3844 7.64162 33.3041 7.75331 33.2035 7.84503C33.1029 7.93675 32.9843 8.00649 32.8553 8.04978C32.7262 8.09308 32.5896 8.10898 32.454 8.09648H11.3492C11.2137 8.10898 11.077 8.09308 10.948 8.04978C10.8189 8.00649 10.7003 7.93675 10.5998 7.84503C10.4992 7.75331 10.4188 7.64162 10.3639 7.5171C10.3089 7.39258 10.2805 7.25796 10.2805 7.12184C10.2805 6.98572 10.3089 6.85111 10.3639 6.72658C10.4188 6.60206 10.4992 6.49037 10.5998 6.39865C10.7003 6.30693 10.8189 6.23719 10.948 6.1939C11.077 6.1506 11.2137 6.1347 11.3492 6.14721Z" fill="white"/>
<path d="M4.64698 4.2266C4.64761 4.05453 4.69922 3.88651 4.79528 3.74375C4.89134 3.60099 5.02754 3.4899 5.1867 3.42449C5.34585 3.35908 5.52081 3.3423 5.68949 3.37626C5.85818 3.41021 6.01302 3.49339 6.13446 3.61529C6.25591 3.73718 6.33852 3.89233 6.37185 4.06114C6.40519 4.22994 6.38776 4.40485 6.32176 4.56375C6.25577 4.72266 6.14417 4.85846 6.00106 4.95399C5.85795 5.04952 5.68974 5.1005 5.51767 5.1005C5.40306 5.10051 5.28957 5.07788 5.18372 5.03392C5.07788 4.98996 4.98175 4.92554 4.90086 4.84435C4.81997 4.76316 4.7559 4.66679 4.71233 4.56078C4.66876 4.45478 4.64655 4.34121 4.64698 4.2266Z" fill="white"/>
<path d="M6.84156 4.2266C6.84219 4.05453 6.8938 3.88651 6.98986 3.74375C7.08592 3.60099 7.22212 3.4899 7.38127 3.42449C7.54042 3.35908 7.71539 3.3423 7.88407 3.37626C8.05276 3.41021 8.2076 3.49339 8.32904 3.61529C8.45049 3.73718 8.53309 3.89233 8.56643 4.06114C8.59976 4.22994 8.58234 4.40485 8.51634 4.56375C8.45035 4.72266 8.33875 4.85846 8.19564 4.95399C8.05252 5.04952 7.88431 5.1005 7.71224 5.1005C7.59763 5.10051 7.48415 5.07788 7.3783 5.03392C7.27246 4.98996 7.17633 4.92554 7.09543 4.84435C7.01454 4.76316 6.95048 4.66679 6.90691 4.56078C6.86334 4.45478 6.84113 4.34121 6.84156 4.2266Z" fill="white"/>
<path d="M9.03809 4.22659C9.03873 4.05466 9.09025 3.88677 9.18617 3.74408C9.28209 3.60139 9.4181 3.49029 9.57706 3.42479C9.73603 3.35929 9.91083 3.34232 10.0794 3.37602C10.248 3.40972 10.4029 3.49258 10.5244 3.61415C10.646 3.73572 10.7289 3.89057 10.7626 4.05916C10.7963 4.22776 10.7793 4.40256 10.7138 4.56152C10.6483 4.72049 10.5372 4.8565 10.3945 4.95242C10.2518 5.04834 10.0839 5.09986 9.912 5.1005C9.79712 5.10092 9.68328 5.07861 9.57706 5.03484C9.47085 4.99107 9.37434 4.92672 9.2931 4.84549C9.21187 4.76425 9.14752 4.66774 9.10375 4.56152C9.05998 4.4553 9.03767 4.34147 9.03809 4.22659Z" fill="white"/>
</svg>
