<svg width="43" height="46" viewBox="0 0 43 46" fill="none" xmlns="http://www.w3.org/2000/svg">
<path d="M40.9986 8.17101V5.07048C40.9986 4.21658 40.6594 3.39765 40.0556 2.79384C39.4518 2.19004 38.6329 1.85083 37.779 1.85083H5.45549C4.60159 1.85083 3.78265 2.19004 3.17885 2.79384C2.57505 3.39765 2.23584 4.21658 2.23584 5.07048V41.2713C2.23584 42.1253 2.57505 42.9442 3.17885 43.548C3.78265 44.1518 4.60159 44.491 5.45549 44.491H37.7803C38.6343 44.491 39.4532 44.1518 40.057 43.548C40.6608 42.9442 41 42.1253 41 41.2713V13.5221H8.71148C8.53019 13.5069 8.3502 13.5635 8.21025 13.6798C8.07029 13.796 7.98156 13.9625 7.96314 14.1435V35.8255C7.98156 36.0066 8.07028 36.1731 8.21022 36.2894C8.35016 36.4057 8.53015 36.4624 8.71148 36.4474H34.2847C34.4661 36.4625 34.6461 36.4059 34.7861 36.2895C34.9261 36.1732 35.0148 36.0066 35.0331 35.8255V17.8189" stroke="white" stroke-width="3" stroke-linejoin="round"/>
<path d="M12.5851 7.14721H33.6899C33.8254 7.1347 33.9621 7.1506 34.0911 7.1939C34.2202 7.23719 34.3388 7.30693 34.4393 7.39865C34.5399 7.49037 34.6203 7.60206 34.6752 7.72658C34.7302 7.85111 34.7586 7.98572 34.7586 8.12184C34.7586 8.25796 34.7302 8.39258 34.6752 8.5171C34.6203 8.64162 34.5399 8.75331 34.4393 8.84503C34.3388 8.93675 34.2202 9.00649 34.0911 9.04978C33.9621 9.09308 33.8254 9.10898 33.6899 9.09648H12.5851C12.4495 9.10898 12.3129 9.09308 12.1838 9.04978C12.0548 9.00649 11.9362 8.93675 11.8356 8.84503C11.735 8.75331 11.6547 8.64162 11.5997 8.5171C11.5447 8.39258 11.5164 8.25796 11.5164 8.12184C11.5164 7.98572 11.5447 7.85111 11.5997 7.72658C11.6547 7.60206 11.735 7.49037 11.8356 7.39865C11.9362 7.30693 12.0548 7.23719 12.1838 7.1939C12.3129 7.1506 12.4495 7.1347 12.5851 7.14721Z" fill="white"/>
<path d="M5.88282 5.2266C5.88345 5.05453 5.93506 4.88651 6.03112 4.74375C6.12718 4.60099 6.26338 4.4899 6.42254 4.42449C6.58169 4.35908 6.75665 4.3423 6.92533 4.37626C7.09402 4.41021 7.24886 4.49339 7.3703 4.61529C7.49175 4.73718 7.57436 4.89233 7.60769 5.06114C7.64103 5.22994 7.6236 5.40485 7.5576 5.56375C7.49161 5.72266 7.38001 5.85846 7.2369 5.95399C7.09379 6.04952 6.92558 6.1005 6.75351 6.1005C6.6389 6.10051 6.52541 6.07788 6.41956 6.03392C6.31372 5.98996 6.21759 5.92554 6.1367 5.84435C6.05581 5.76316 5.99174 5.66679 5.94817 5.56078C5.9046 5.45478 5.88239 5.34121 5.88282 5.2266Z" fill="white"/>
<path d="M8.0774 5.2266C8.07803 5.05453 8.12964 4.88651 8.2257 4.74375C8.32176 4.60099 8.45796 4.4899 8.61711 4.42449C8.77626 4.35908 8.95123 4.3423 9.11991 4.37626C9.2886 4.41021 9.44344 4.49339 9.56488 4.61529C9.68633 4.73718 9.76893 4.89233 9.80227 5.06114C9.8356 5.22994 9.81818 5.40485 9.75218 5.56375C9.68619 5.72266 9.57459 5.85846 9.43148 5.95399C9.28836 6.04952 9.12015 6.1005 8.94808 6.1005C8.83347 6.10051 8.71999 6.07788 8.61414 6.03392C8.5083 5.98996 8.41217 5.92554 8.33127 5.84435C8.25038 5.76316 8.18632 5.66679 8.14275 5.56078C8.09918 5.45478 8.07697 5.34121 8.0774 5.2266Z" fill="white"/>
<path d="M10.2739 5.22659C10.2746 5.05466 10.3261 4.88677 10.422 4.74408C10.5179 4.60139 10.6539 4.49029 10.8129 4.42479C10.9719 4.35929 11.1467 4.34232 11.3153 4.37602C11.4839 4.40972 11.6387 4.49258 11.7603 4.61415C11.8819 4.73572 11.9647 4.89057 11.9984 5.05916C12.0321 5.22776 12.0151 5.40256 11.9496 5.56152C11.8841 5.72049 11.773 5.8565 11.6303 5.95242C11.4877 6.04834 11.3198 6.09986 11.1478 6.1005C11.033 6.10092 10.9191 6.07861 10.8129 6.03484C10.7067 5.99107 10.6102 5.92672 10.5289 5.84549C10.4477 5.76425 10.3834 5.66774 10.3396 5.56152C10.2958 5.4553 10.2735 5.34147 10.2739 5.22659Z" fill="white"/>
</svg>
