<svg width="31" height="32" viewBox="0 0 31 32" fill="none" xmlns="http://www.w3.org/2000/svg">
<path d="M19.2 2.1683C19.6774 2.64571 20.2441 3.0244 20.8678 3.28272C21.4916 3.54104 22.1601 3.67394 22.8352 3.67383C24.1989 3.67383 25.5068 4.21558 26.4711 5.17989C27.4354 6.1442 27.9772 7.45208 27.9772 8.81581C27.9771 9.49093 28.11 10.1595 28.3683 10.7832C28.6266 11.4069 29.0053 11.9737 29.4827 12.451C30.4465 13.415 30.9879 14.7224 30.9879 16.0856C30.9879 17.4488 30.4465 18.7561 29.4827 19.7201C29.0053 20.1977 28.6266 20.7647 28.3683 21.3886C28.1099 22.0126 27.977 22.6813 27.9772 23.3566C27.9772 24.0318 27.8442 24.7004 27.5857 25.3242C27.3273 25.9479 26.9485 26.5147 26.471 26.9921C25.9936 27.4695 25.4267 27.8481 24.8029 28.1064C24.179 28.3646 23.5104 28.4975 22.8352 28.4973C22.1601 28.4973 21.4916 28.6302 20.8679 28.8885C20.2441 29.1469 19.6774 29.5255 19.2 30.0028C18.236 30.9666 16.9286 31.5081 15.5654 31.5081C14.2023 31.5081 12.8949 30.9666 11.9309 30.0028C11.4533 29.5254 10.8863 29.1467 10.2624 28.8884C9.63842 28.6301 8.9697 28.4972 8.29439 28.4973C7.61888 28.4978 6.9499 28.3652 6.32568 28.107C5.70146 27.8488 5.13424 27.4701 4.65647 26.9925C4.17869 26.515 3.79971 25.948 3.5412 25.3239C3.2827 24.6998 3.14974 24.0309 3.1499 23.3554C3.15004 22.68 3.01715 22.0113 2.75883 21.3874C2.50051 20.7634 2.12182 20.1965 1.64438 19.7189C0.680593 18.7549 0.13916 17.4475 0.13916 16.0843C0.13916 14.7211 0.680593 13.4138 1.64438 12.4498C2.60824 11.486 3.14979 10.1788 3.1499 8.81581C3.14974 8.14062 3.28259 7.47199 3.54086 6.84815C3.79913 6.2243 4.17778 5.65744 4.65516 5.17995C5.13253 4.70245 5.69928 4.32369 6.32307 4.06526C6.94685 3.80684 7.61542 3.67383 8.29062 3.67383C8.96593 3.67397 9.63465 3.54108 10.2586 3.28276C10.8825 3.02444 11.4495 2.64575 11.9271 2.1683C12.8911 1.20452 14.1985 0.663086 15.5617 0.663086C16.9248 0.663086 18.2322 1.20452 19.1962 2.1683" fill="#9E9EA3"/>
<path d="M10.8997 21.2552L12.9171 19.7181C13.2009 20.3051 13.6473 20.7982 14.2032 21.1388C14.7591 21.4795 15.4012 21.6533 16.053 21.6397C16.6481 21.6672 17.2364 21.5042 17.7325 21.1745C17.9247 21.0575 18.0846 20.8944 18.1977 20.7C18.3109 20.5055 18.3738 20.286 18.3806 20.0611C18.3822 19.9005 18.3614 19.7405 18.3188 19.5857C18.2735 19.4348 18.1942 19.2964 18.0868 19.181C17.9854 19.0666 17.8772 18.9584 17.7628 18.8569C17.6126 18.7381 17.4498 18.6362 17.2773 18.553C17.0542 18.4383 16.8688 18.3475 16.72 18.2794L16.0076 17.9604C15.6773 17.8116 15.4183 17.6965 15.2309 17.6149C14.6769 17.372 14.2789 17.1896 14.0368 17.0677C13.7947 16.9458 13.4585 16.747 13.0281 16.4713C12.6737 16.2612 12.3559 15.9945 12.0875 15.682C11.8633 15.3785 11.6833 15.0448 11.5528 14.6909C11.2985 14.0177 11.2415 13.286 11.3885 12.5816C11.5354 11.8772 11.8803 11.2293 12.3825 10.714C13.1286 9.95615 14.1034 9.46516 15.1565 9.3169V6.88965H17.0996V9.29799C17.8696 9.3903 18.6067 9.66406 19.2502 10.0968C19.8938 10.5295 20.4255 11.1088 20.8016 11.787L18.8182 13.2648C18.5538 12.7813 18.1643 12.3778 17.6905 12.0965C17.2167 11.8152 16.6759 11.6665 16.1249 11.666C15.5798 11.6436 15.0417 11.7946 14.5878 12.0972C14.3974 12.2247 14.2421 12.3982 14.1365 12.6016C14.031 12.8051 13.9785 13.0319 13.9839 13.261C13.9818 13.4116 14.0022 13.5616 14.0444 13.7061C14.093 13.8548 14.1759 13.99 14.2865 14.1008C14.389 14.2106 14.4972 14.3149 14.6105 14.4135C14.7615 14.5312 14.9241 14.633 15.096 14.7174C15.3263 14.8392 15.502 14.9254 15.623 14.9758C15.7491 15.0275 15.9635 15.1209 16.28 15.2596C16.5964 15.3983 16.8234 15.4953 16.9584 15.5634C17.4312 15.779 17.8044 15.9518 18.0805 16.0817C18.3567 16.2115 18.6807 16.3843 19.0514 16.5999C19.3641 16.7733 19.6538 16.9851 19.9139 17.2304C20.1316 17.4504 20.3314 17.6873 20.5116 17.939C20.7078 18.2155 20.8502 18.5265 20.9315 18.8557C21.021 19.2272 21.0633 19.6084 21.0575 19.9905C21.0607 20.4841 20.9658 20.9735 20.7783 21.4302C20.5909 21.8869 20.3146 22.3019 19.9656 22.651C19.1597 23.4499 18.0991 23.9408 16.9684 24.038V26.5258H15.0279V24.0128C14.1657 23.8881 13.341 23.5774 12.6107 23.1024C11.8977 22.6387 11.3103 22.0058 10.9009 21.2602" fill="white"/>
</svg>
