<svg width="22" height="23" viewBox="0 0 22 23" fill="none" xmlns="http://www.w3.org/2000/svg">
<path d="M13.1385 1.92191C13.4677 2.25125 13.8585 2.51252 14.2887 2.6908C14.7188 2.86907 15.1799 2.96085 15.6455 2.9609C16.1111 2.96077 16.5721 3.05238 17.0023 3.23048C17.4325 3.40859 17.8233 3.66971 18.1525 3.99892C18.4817 4.32813 18.7428 4.71897 18.921 5.14913C19.0991 5.57929 19.1907 6.04033 19.1905 6.50591C19.1902 6.97204 19.2819 7.43365 19.4601 7.86434C19.6384 8.29503 19.8999 8.68635 20.2295 9.0159C20.5588 9.34501 20.82 9.73577 20.9981 10.1658C21.1763 10.5959 21.2681 11.0569 21.2681 11.5224C21.2681 11.9879 21.1763 12.4489 20.9981 12.879C20.82 13.309 20.5588 13.6998 20.2295 14.0289C19.565 14.694 19.1917 15.5957 19.1915 16.5359C19.1915 17.4761 18.818 18.3778 18.1532 19.0426C17.4884 19.7074 16.5867 20.0809 15.6465 20.0809C15.1809 20.0808 14.7198 20.1726 14.2896 20.3509C13.8594 20.5291 13.4686 20.7905 13.1395 21.1199C12.4747 21.7846 11.5731 22.158 10.633 22.158C9.69293 22.158 8.79133 21.7846 8.12653 21.1199C7.46093 20.4566 6.55921 20.0847 5.61953 20.0859C5.15396 20.086 4.69292 19.9944 4.26276 19.8163C3.83261 19.6382 3.44175 19.3771 3.11254 19.0479C2.78333 18.7187 2.52221 18.3278 2.34411 17.8977C2.166 17.4675 2.0744 17.0065 2.07453 16.5409C2.07582 16.0741 1.98496 15.6117 1.80718 15.1802C1.6294 14.7486 1.3682 14.3563 1.03853 14.0259C0.709284 13.6968 0.448106 13.306 0.269913 12.876C0.0917192 12.4459 0 11.9849 0 11.5194C0 11.0539 0.0917192 10.5929 0.269913 10.1628C0.448106 9.73276 0.709284 9.34201 1.03853 9.0129C1.70343 8.34837 2.07716 7.44696 2.07753 6.5069C2.0774 6.04128 2.169 5.5802 2.34709 5.14999C2.52519 4.71977 2.78628 4.32885 3.11548 3.99957C3.44468 3.67028 3.83552 3.40906 4.26569 3.23084C4.69585 3.05263 5.15691 2.9609 5.62253 2.9609C6.08869 2.96141 6.55037 2.86989 6.98109 2.6916C7.41182 2.5133 7.80311 2.25174 8.13253 1.92191C8.79733 1.25721 9.69893 0.883789 10.639 0.883789C11.5791 0.883789 12.4807 1.25721 13.1455 1.92191" fill="#545457"/>
<path d="M10.6291 20.7967C10.3417 20.7976 10.057 20.7415 9.79147 20.6317C9.52593 20.5218 9.28482 20.3604 9.08208 20.1567C8.62798 19.7 8.08785 19.3379 7.49294 19.0912C6.89802 18.8446 6.2601 18.7183 5.61608 18.7197C5.03595 18.7189 4.47984 18.488 4.06981 18.0776C3.65978 17.6672 3.42935 17.1108 3.42908 16.5307C3.43048 15.8867 3.3042 15.2488 3.05755 14.6539C2.8109 14.0589 2.44876 13.5188 1.99208 13.0647C1.58251 12.6538 1.35254 12.0974 1.35254 11.5172C1.35254 10.9371 1.58251 10.3806 1.99208 9.96971C2.44876 9.51561 2.8109 8.97548 3.05755 8.38056C3.3042 7.78564 3.43048 7.14773 3.42908 6.50371C3.42961 5.92358 3.6603 5.36736 4.07052 4.95715C4.48073 4.54693 5.03695 4.31624 5.61708 4.31571C6.26183 4.31717 6.90045 4.19063 7.49593 3.94344C8.09141 3.69626 8.6319 3.33333 9.08608 2.87571C9.28943 2.6718 9.53101 2.51001 9.79699 2.39963C10.063 2.28924 10.3481 2.23242 10.6361 2.23242C10.9241 2.23242 11.2092 2.28924 11.4752 2.39963C11.7412 2.51001 11.9827 2.6718 12.1861 2.87571C12.64 3.33231 13.18 3.69433 13.7747 3.94083C14.3695 4.18732 15.0073 4.31338 15.6511 4.31171C16.2313 4.31224 16.7876 4.5429 17.198 4.95309C17.6084 5.36327 17.8393 5.91949 17.8401 6.49971C17.8382 7.14386 17.9642 7.78199 18.2107 8.37711C18.4572 8.97224 18.8193 9.51254 19.2761 9.96671C19.6861 10.3773 19.9165 10.9339 19.9165 11.5142C19.9165 12.0945 19.6861 12.6511 19.2761 13.0617C18.8194 13.5157 18.4573 14.0559 18.2108 14.6508C17.9643 15.2458 17.8383 15.8837 17.8401 16.5277C17.8393 17.1079 17.6084 17.6641 17.198 18.0743C16.7876 18.4845 16.2313 18.7152 15.6511 18.7157C15.0071 18.7139 14.3691 18.8399 13.7742 19.0864C13.1792 19.3329 12.6391 19.695 12.1851 20.1517C11.9817 20.3574 11.7393 20.5203 11.4721 20.6311C11.2049 20.7419 10.9183 20.7982 10.6291 20.7967Z" stroke="white" stroke-width="0.7" stroke-miterlimit="10"/>
<path d="M7.41511 15.0846L8.81511 14.0246C9.01065 14.4299 9.31863 14.7704 9.70232 15.0055C10.086 15.2406 10.5292 15.3604 10.9791 15.3506C11.3897 15.3695 11.7957 15.257 12.1381 15.0296C12.2702 14.9492 12.3802 14.8371 12.4582 14.7036C12.5362 14.57 12.5798 14.4192 12.5851 14.2646C12.5862 14.1539 12.572 14.0435 12.5431 13.9366C12.5111 13.833 12.4561 13.738 12.3821 13.6586C12.3128 13.5794 12.2383 13.5049 12.1591 13.4356C12.0556 13.3537 11.9432 13.2835 11.8241 13.2266C11.6701 13.1476 11.5431 13.0846 11.4401 13.0376L10.9401 12.8156C10.7131 12.7156 10.5331 12.6336 10.4031 12.5786C10.0218 12.4106 9.74744 12.285 9.58011 12.2016C9.33983 12.0768 9.10618 11.9396 8.8801 11.7906C8.6356 11.6458 8.41639 11.4621 8.23111 11.2466C8.07612 11.0374 7.95186 10.8071 7.86211 10.5626C7.68725 10.0984 7.64819 9.59406 7.74948 9.10848C7.85078 8.6229 8.08824 8.17621 8.4341 7.82064C8.94865 7.29656 9.62182 6.95699 10.3491 6.85464V5.18164H11.6891V6.84264C12.2191 6.90571 12.7266 7.09347 13.17 7.39053C13.6134 7.68759 13.9801 8.0855 14.2401 8.55164L12.8721 9.57064C12.69 9.23753 12.4216 8.9596 12.095 8.76604C11.7684 8.57249 11.3957 8.47044 11.0161 8.47063C10.6396 8.45595 10.2682 8.56099 9.95511 8.77064C9.82416 8.85839 9.71735 8.97763 9.64449 9.11741C9.57162 9.25719 9.53505 9.41304 9.53811 9.57064C9.53707 9.67447 9.55122 9.7779 9.58011 9.87764C9.61387 9.98058 9.67142 10.0741 9.74811 10.1506C9.81851 10.2263 9.89295 10.298 9.97111 10.3656C10.0751 10.4468 10.1874 10.5169 10.3061 10.5746C10.4641 10.6593 10.5851 10.72 10.6691 10.7566L11.1231 10.9566C11.3418 11.0493 11.4978 11.119 11.5911 11.1656L12.3651 11.5206C12.5564 11.6093 12.7794 11.728 13.0341 11.8766C13.2497 11.9951 13.4494 12.1406 13.6281 12.3096C13.7781 12.4608 13.9159 12.6236 14.0401 12.7966C14.1764 12.985 14.2758 13.1974 14.3331 13.4226C14.3966 13.678 14.4271 13.9405 14.4241 14.2036C14.4261 14.5443 14.3605 14.882 14.2311 15.1972C14.1017 15.5124 13.911 15.7987 13.6701 16.0396C13.1152 16.5907 12.3843 16.9291 11.6051 16.9956V18.7126H10.2621V16.9776C9.66715 16.8929 9.09789 16.6793 8.59411 16.3516C8.10122 16.0325 7.69511 15.5961 7.41211 15.0816" fill="#F5F7FA"/>
</svg>
