<svg width="51" height="50" viewBox="0 0 51 50" fill="none" xmlns="http://www.w3.org/2000/svg">
<path d="M0.848145 0H44.119C45.9039 0.00037043 47.6157 0.709638 48.8778 1.97177C50.14 3.23389 50.8491 4.94557 50.8495 6.73049V43.2695C50.8491 45.0544 50.14 46.7661 48.8778 48.0282C47.6157 49.2904 45.9039 49.9996 44.119 50H0.848145V0Z" fill="white"/>
<path d="M1.32837 0.480469H44.1172C45.7748 0.480469 47.3644 1.13894 48.5365 2.31101C49.7085 3.48308 50.3671 5.07276 50.3671 6.73032V43.2693C50.3671 44.9269 49.7085 46.5166 48.5365 47.6886C47.3644 48.8607 45.7748 49.5192 44.1172 49.5192H1.32837V0.480469Z" stroke="#707070" stroke-width="0.7"/>
<path d="M18.1561 9.61523H7.5791V18.2697H18.1561V9.61523Z" fill="#5A5A64"/>
<path d="M20.5593 14.9043H43.6374" stroke="#5A5A64" stroke-width="2.1"/>
<path d="M20.5593 25.4814H43.6374" stroke="#5A5A64" stroke-width="2.1"/>
<path d="M20.5593 36.0576H43.6374" stroke="#5A5A64" stroke-width="2.1"/>
<path d="M18.1561 21.1562H7.5791V29.8107H18.1561V21.1562Z" fill="#5A5A64"/>
<path d="M18.1561 31.7314H7.5791V40.3859H18.1561V31.7314Z" fill="#5A5A64"/>
<path d="M0.848145 0H44.119C45.9039 0.00037043 47.6157 0.709638 48.8778 1.97177C50.14 3.23389 50.8491 4.94557 50.8495 6.73049V43.2695C50.8491 45.0544 50.14 46.7661 48.8778 48.0282C47.6157 49.2904 45.9039 49.9996 44.119 50H0.848145V0Z" fill="white"/>
<path d="M1.32837 0.480469H44.1172C45.7748 0.480469 47.3644 1.13894 48.5365 2.31101C49.7085 3.48308 50.3671 5.07276 50.3671 6.73032V43.2693C50.3671 44.9269 49.7085 46.5166 48.5365 47.6886C47.3644 48.8607 45.7748 49.5192 44.1172 49.5192H1.32837V0.480469Z" stroke="#707070" stroke-width="0.7"/>
<path d="M18.1561 9.61523H7.5791V18.2697H18.1561V9.61523Z" fill="#5A5A64"/>
<path d="M20.5593 14.9043H43.6374" stroke="#5A5A64" stroke-width="2.1"/>
<path d="M20.5593 25.4814H43.6374" stroke="#5A5A64" stroke-width="2.1"/>
<path d="M20.5593 36.0576H43.6374" stroke="#5A5A64" stroke-width="2.1"/>
<path d="M18.1561 21.1562H7.5791V29.8107H18.1561V21.1562Z" fill="#5A5A64"/>
<path d="M18.1561 31.7314H7.5791V40.3859H18.1561V31.7314Z" fill="#5A5A64"/>
<path d="M0.848145 0H44.119C45.9039 0.00037043 47.6157 0.709638 48.8778 1.97177C50.14 3.23389 50.8491 4.94557 50.8495 6.73049V43.2695C50.8491 45.0544 50.14 46.7661 48.8778 48.0282C47.6157 49.2904 45.9039 49.9996 44.119 50H0.848145V0Z" fill="white"/>
<path d="M0.848145 0H44.119C45.9039 0.00037043 47.6157 0.709638 48.8778 1.97177C50.14 3.23389 50.8491 4.94557 50.8495 6.73049V43.2695C50.8491 45.0544 50.14 46.7661 48.8778 48.0282C47.6157 49.2904 45.9039 49.9996 44.119 50H0.848145V0Z" fill="white"/>
<path d="M1.32837 0.480469H44.1172C45.7748 0.480469 47.3644 1.13894 48.5365 2.31101C49.7085 3.48308 50.3671 5.07276 50.3671 6.73032V43.2693C50.3671 44.9269 49.7085 46.5166 48.5365 47.6886C47.3644 48.8607 45.7748 49.5192 44.1172 49.5192H1.32837V0.480469Z" stroke="#5A5A64" stroke-width="0.7" stroke-miterlimit="10"/>
<path d="M12.811 10.1973H12.924C13.416 10.1973 13.9031 10.2942 14.3576 10.4824C14.8121 10.6707 15.225 10.9466 15.5729 11.2945C15.9207 11.6423 16.1966 12.0552 16.3849 12.5097C16.5731 12.9642 16.6701 13.4514 16.6701 13.9433C16.6701 14.4352 16.5731 14.9223 16.3849 15.3768C16.1966 15.8312 15.9207 16.2442 15.5729 16.5921C15.225 16.9399 14.8121 17.2158 14.3576 17.404C13.9031 17.5923 13.416 17.6892 12.924 17.6892H12.811C12.319 17.6892 11.8319 17.5923 11.3774 17.404C10.9229 17.2158 10.51 16.9399 10.1622 16.5921C9.81431 16.2442 9.53837 15.8312 9.35012 15.3768C9.16187 14.9223 9.06494 14.4352 9.06494 13.9433C9.06494 13.4514 9.16187 12.9642 9.35012 12.5097C9.53837 12.0552 9.81431 11.6423 10.1622 11.2945C10.51 10.9466 10.9229 10.6707 11.3774 10.4824C11.8319 10.2942 12.319 10.1973 12.811 10.1973Z" fill="#5A5A64"/>
<path d="M20.5593 13.9434H43.6374" stroke="#5A5A64" stroke-dasharray="3.5 1.4"/>
<path d="M20.5593 25.002H43.6374" stroke="#5A5A64" stroke-dasharray="3.5 1.4"/>
<path d="M20.5593 36.0576H43.6374" stroke="#5A5A64" stroke-dasharray="3.5 1.4"/>
<path d="M12.811 21.1563H12.924C13.416 21.1562 13.9031 21.2531 14.3576 21.4413C14.8121 21.6296 15.225 21.9055 15.5729 22.2534C15.9207 22.6012 16.1966 23.0142 16.3849 23.4687C16.5731 23.9232 16.6701 24.4103 16.6701 24.9022C16.6701 25.3941 16.5731 25.8813 16.3849 26.3357C16.1966 26.7902 15.9207 27.2031 15.5729 27.551C15.225 27.8988 14.8121 28.1748 14.3576 28.363C13.9031 28.5513 13.416 28.6482 12.924 28.6482H12.811C12.319 28.6482 11.8319 28.5513 11.3774 28.363C10.9229 28.1748 10.51 27.8988 10.1622 27.551C9.81431 27.2031 9.53837 26.7902 9.35012 26.3357C9.16187 25.8813 9.06494 25.3941 9.06494 24.9022C9.06494 24.4103 9.16187 23.9232 9.35012 23.4687C9.53837 23.0142 9.81431 22.6012 10.1622 22.2534C10.51 21.9055 10.9229 21.6296 11.3774 21.4413C11.8319 21.2531 12.319 21.1562 12.811 21.1563Z" fill="#5A5A64"/>
<path d="M12.811 32.3135H12.924C13.9175 32.3135 14.8703 32.7082 15.5729 33.4107C16.2754 34.1132 16.6701 35.066 16.6701 36.0595C16.6701 37.053 16.2754 38.0058 15.5729 38.7083C14.8703 39.4108 13.9175 39.8055 12.924 39.8055H12.811C11.8175 39.8055 10.8647 39.4108 10.1622 38.7083C9.45965 38.0058 9.06494 37.053 9.06494 36.0595C9.06494 35.066 9.45965 34.1132 10.1622 33.4107C10.8647 32.7082 11.8175 32.3135 12.811 32.3135Z" fill="#5A5A64"/>
</svg>
