<svg width="51" height="50" viewBox="0 0 51 50" fill="none" xmlns="http://www.w3.org/2000/svg">
<path d="M6.73049 0H50.0014V49.9944H6.73049C4.94557 49.994 3.23381 49.2848 1.97168 48.0227C0.709553 46.7606 0.00037043 45.0488 0 43.2639V6.73049C0.00037043 4.94557 0.709553 3.23389 1.97168 1.97177C3.23381 0.709638 4.94557 0.00037043 6.73049 0Z" fill="white"/>
<path d="M6.73032 0.480469H49.5192V49.5234H6.73032C5.07276 49.5234 3.48299 48.8649 2.31092 47.6928C1.13886 46.5208 0.480469 44.9311 0.480469 43.2735V6.73032C0.480469 5.07276 1.13886 3.48308 2.31092 2.31101C3.48299 1.13894 5.07276 0.480469 6.73032 0.480469Z" stroke="#707070" stroke-width="0.7"/>
<path d="M24.0391 9.61523H9.61548V24.0389H24.0391V9.61523Z" fill="#5A5A64"/>
<path d="M24.0391 25.9639H9.61548V40.3875H24.0391V25.9639Z" fill="#5A5A64"/>
<path d="M40.3855 9.61523H25.9619V24.0389H40.3855V9.61523Z" fill="#5A5A64"/>
<path d="M40.3855 25.9639H25.9619V40.3875H40.3855V25.9639Z" fill="#5A5A64"/>
<path d="M6.73049 0H50.0014V49.9944H6.73049C4.94557 49.994 3.23381 49.2848 1.97168 48.0227C0.709553 46.7606 0.00037043 45.0488 0 43.2639V6.73049C0.00037043 4.94557 0.709553 3.23389 1.97168 1.97177C3.23381 0.709638 4.94557 0.00037043 6.73049 0Z" fill="white"/>
<path d="M6.73032 0.480469H49.5192V49.5234H6.73032C5.07276 49.5234 3.48299 48.8649 2.31092 47.6928C1.13886 46.5208 0.480469 44.9311 0.480469 43.2735V6.73032C0.480469 5.07276 1.13886 3.48308 2.31092 2.31101C3.48299 1.13894 5.07276 0.480469 6.73032 0.480469Z" stroke="#707070" stroke-width="0.7"/>
<path d="M24.0391 9.61523H9.61548V24.0389H24.0391V9.61523Z" fill="#5A5A64"/>
<path d="M24.0391 25.9639H9.61548V40.3875H24.0391V25.9639Z" fill="#5A5A64"/>
<path d="M40.3855 9.61523H25.9619V24.0389H40.3855V9.61523Z" fill="#5A5A64"/>
<path d="M40.3855 25.9639H25.9619V40.3875H40.3855V25.9639Z" fill="#5A5A64"/>
<path d="M6.73049 0H50.0014V49.9944H6.73049C4.94557 49.994 3.23381 49.2848 1.97168 48.0227C0.709553 46.7606 0.00037043 45.0488 0 43.2639V6.73049C0.00037043 4.94557 0.709553 3.23389 1.97168 1.97177C3.23381 0.709638 4.94557 0.00037043 6.73049 0Z" fill="#5A5A64"/>
<path d="M21.9749 11.3867H11.3853V21.859H21.9749V11.3867Z" fill="white"/>
<path d="M21.9749 28.4014H11.3853V38.6151H21.9749V28.4014Z" fill="white"/>
<path d="M38.6156 11.3867H27.9924V21.859H38.6156V11.3867Z" fill="white"/>
<path d="M38.6156 28.4014H27.9924V38.6151H38.6156V28.4014Z" fill="white"/>
</svg>
