<svg width="23" height="18" viewBox="0 0 23 18" fill="none" xmlns="http://www.w3.org/2000/svg">
<path d="M11.8281 11.5799C12.8091 11.5969 14.2221 10.3239 14.9281 9.79887C20.5401 5.65587 20.9671 5.29887 22.2611 4.26187C22.3832 4.16456 22.4816 4.04084 22.549 3.90003C22.6163 3.75922 22.6509 3.60497 22.6501 3.44887V2.63187C22.6523 2.36305 22.6016 2.09642 22.5008 1.84721C22.4 1.598 22.2511 1.37108 22.0626 1.17942C21.8741 0.98776 21.6497 0.835106 21.4022 0.730175C21.1547 0.625244 20.8889 0.570094 20.6201 0.567871H3.02808C2.48526 0.572625 1.96652 0.792693 1.58588 1.17971C1.20523 1.56674 0.993848 2.08905 0.99811 2.63187V3.44887C0.998082 3.60494 1.03309 3.75902 1.10059 3.89974C1.16809 4.04046 1.26638 4.16422 1.38812 4.26187C2.68212 5.28987 3.10913 5.65587 8.72113 9.79887C9.43213 10.3229 10.8441 11.5989 11.8211 11.5799M22.2381 6.02187C22.2756 5.99269 22.3205 5.97461 22.3678 5.96968C22.4151 5.96476 22.4627 5.9732 22.5054 5.99403C22.5481 6.01486 22.5842 6.04726 22.6094 6.08754C22.6346 6.12781 22.648 6.17435 22.6481 6.22187V15.0219C22.6523 15.5647 22.441 16.087 22.0603 16.474C21.6797 16.861 21.1609 17.0811 20.6181 17.0859H3.02808C2.48534 17.0809 1.96677 16.8607 1.58618 16.4737C1.20559 16.0868 0.994114 15.5646 0.99811 15.0219V6.22887C0.997654 6.18102 1.01077 6.13401 1.03595 6.09332C1.06114 6.05262 1.09735 6.01991 1.14038 5.99896C1.18342 5.97802 1.23149 5.96972 1.27905 5.97501C1.32662 5.98031 1.37174 5.99898 1.40912 6.02887C2.35612 6.77687 3.60909 7.72887 7.92609 10.9139C8.81809 11.5769 10.3261 12.9699 11.8261 12.9619C13.3361 12.9749 14.8711 11.5509 15.7261 10.9139C20.0401 7.72787 21.2921 6.77187 22.2391 6.02387" fill="#545457"/>
</svg>
