<svg width="60" height="66" viewBox="0 0 60 66" fill="none" xmlns="http://www.w3.org/2000/svg">
<path d="M16.8162 9.66151H47.3222C47.5181 9.64342 47.7157 9.66642 47.9022 9.72905C48.0887 9.79168 48.2602 9.89256 48.4055 10.0252C48.5509 10.1579 48.667 10.3195 48.7465 10.4996C48.8259 10.6798 48.867 10.8745 48.867 11.0714C48.867 11.2683 48.8259 11.463 48.7465 11.6432C48.667 11.8233 48.5509 11.9849 48.4055 12.1176C48.2602 12.2502 48.0887 12.3511 47.9022 12.4137C47.7157 12.4764 47.5181 12.4994 47.3222 12.4813H16.8162C16.6203 12.4994 16.4228 12.4764 16.2363 12.4137C16.0497 12.3511 15.8783 12.2502 15.7329 12.1176C15.5875 11.9849 15.4714 11.8233 15.392 11.6432C15.3125 11.463 15.2715 11.2683 15.2715 11.0714C15.2715 10.8745 15.3125 10.6798 15.392 10.4996C15.4714 10.3195 15.5875 10.1579 15.7329 10.0252C15.8783 9.89256 16.0497 9.79168 16.2363 9.72905C16.4228 9.66642 16.6203 9.64342 16.8162 9.66151Z" fill="white"/>
<path d="M57.8885 11.1426V6.65749C57.8885 5.42225 57.3981 4.23759 56.5254 3.36415C55.6526 2.4907 54.4689 2 53.2346 2H6.51256C5.27828 2 4.09455 2.4907 3.22178 3.36415C2.34902 4.23759 1.8587 5.42225 1.8587 6.65749V59.025C1.8587 60.2602 2.34902 61.4448 3.22178 62.3183C4.09455 63.1917 5.27828 63.6824 6.51256 63.6824H53.2366C54.4709 63.6824 55.6546 63.1917 56.5274 62.3183C57.4001 61.4448 57.8905 60.2602 57.8905 59.025V18.8834H11.2189C10.9569 18.8615 10.6967 18.9434 10.4944 19.1115C10.2921 19.2796 10.1639 19.5205 10.1372 19.7823V51.1471C10.1639 51.409 10.2921 51.6499 10.4944 51.8182C10.6967 51.9864 10.9568 52.0685 11.2189 52.0467H48.1838C48.446 52.0686 48.7062 51.9866 48.9086 51.8184C49.1109 51.6501 49.2391 51.4091 49.2655 51.1471V25.0991" stroke="white" stroke-width="3" stroke-linejoin="round"/>
<path d="M7.12959 6.88371C7.13051 6.6348 7.2051 6.39174 7.34395 6.18523C7.48279 5.97872 7.67967 5.81801 7.90972 5.72339C8.13977 5.62877 8.39267 5.60449 8.63649 5.65362C8.88031 5.70274 9.10413 5.82306 9.27967 5.99939C9.45522 6.17573 9.57462 6.40016 9.62281 6.64435C9.67099 6.88855 9.6458 7.14156 9.55041 7.37143C9.45502 7.60131 9.29371 7.79774 9.08684 7.93593C8.87998 8.07413 8.63684 8.14788 8.38813 8.14788C8.22246 8.14789 8.05842 8.11515 7.90542 8.05156C7.75243 7.98798 7.61348 7.89478 7.49656 7.77733C7.37963 7.65988 7.28702 7.52048 7.22405 7.36713C7.16107 7.21378 7.12897 7.0495 7.12959 6.88371Z" fill="white"/>
<path d="M10.3012 6.88371C10.3021 6.6348 10.3767 6.39174 10.5156 6.18523C10.6544 5.97872 10.8513 5.81801 11.0813 5.72339C11.3114 5.62877 11.5643 5.60449 11.8081 5.65362C12.0519 5.70274 12.2758 5.82306 12.4513 5.99939C12.6268 6.17573 12.7462 6.40016 12.7944 6.64435C12.8426 6.88855 12.8174 7.14156 12.722 7.37143C12.6266 7.60131 12.4653 7.79774 12.2585 7.93593C12.0516 8.07413 11.8085 8.14788 11.5598 8.14788C11.3941 8.14789 11.2301 8.11515 11.0771 8.05156C10.9241 7.98798 10.7851 7.89478 10.6682 7.77733C10.5513 7.65988 10.4587 7.52048 10.3957 7.36713C10.3327 7.21378 10.3006 7.0495 10.3012 6.88371Z" fill="white"/>
<path d="M13.4778 6.8839C13.4788 6.63524 13.5535 6.39246 13.6922 6.18618C13.831 5.97991 14.0277 5.81939 14.2575 5.72487C14.4873 5.63034 14.74 5.60605 14.9836 5.65506C15.2272 5.70408 15.4508 5.82419 15.6263 6.00026C15.8017 6.17632 15.9212 6.40045 15.9695 6.64436C16.0178 6.88828 15.9929 7.14105 15.8978 7.3708C15.8028 7.60055 15.6419 7.79698 15.4354 7.93532C15.2289 8.07365 14.9861 8.14768 14.7377 8.14808C14.5719 8.14825 14.4077 8.11565 14.2545 8.05214C14.1014 7.98863 13.9623 7.89547 13.8452 7.778C13.7282 7.66053 13.6354 7.52107 13.5724 7.36763C13.5093 7.2142 13.4772 7.04981 13.4778 6.8839Z" fill="white"/>
</svg>
