<svg width="71" height="39" viewBox="0 0 71 39" fill="none" xmlns="http://www.w3.org/2000/svg">
<path d="M45.764 16.9725C45.7656 18.036 45.5578 19.0894 45.1526 20.0726C44.7474 21.0557 44.1526 21.9493 43.4023 22.7024C42.6519 23.4555 41.7607 24.0533 40.7795 24.4617C39.7983 24.8701 38.7463 25.081 37.6836 25.0825H37.6723C36.4002 25.0822 35.1461 24.7818 34.0117 24.2056C32.8773 23.6294 31.8947 22.7936 31.1435 21.7661C30.3924 20.7386 29.8939 19.5483 29.6885 18.2919C29.4831 17.0355 29.5766 15.7483 29.9614 14.5348C30.3463 13.3213 31.0116 12.2158 31.9033 11.3078C32.7951 10.3999 33.8882 9.71513 35.0939 9.30918C36.2996 8.90323 37.584 8.78751 38.8428 8.9714C40.1016 9.15529 41.2993 9.63361 42.3388 10.3676" stroke="white" stroke-width="3" stroke-miterlimit="10"/>
<path d="M54.434 13.0743C53.4508 14.6582 53.0441 16.5331 53.2825 18.3825C53.5677 20.3602 54.5614 22.1669 56.0787 23.4658C57.5959 24.7648 59.5333 25.4676 61.5298 25.4432C63.0862 25.4535 64.6096 24.9948 65.902 24.1269C67.1945 23.259 68.196 22.022 68.7765 20.5768C69.302 19.3393 69.5131 17.9908 69.391 16.6518C69.269 15.3128 68.8175 14.0248 68.0769 12.9029C67.3364 11.781 66.3298 10.86 65.147 10.2222C63.9642 9.58445 62.642 9.24968 61.2985 9.2478H50.2768C49.081 9.2478 47.9341 9.72322 47.0885 10.5695C46.2429 11.4157 45.7679 12.5635 45.7679 13.7602L45.7632 28.6229C45.7647 30.7707 44.9136 32.831 43.3972 34.3508C41.8808 35.8705 39.8232 36.7251 37.6771 36.7266C35.5311 36.7281 33.4723 35.8764 31.9538 34.3588C30.4352 32.8412 29.5813 30.782 29.5798 28.6342" stroke="white" stroke-width="3" stroke-miterlimit="10"/>
<path d="M13.3897 21.0824C12.8521 20.165 12.5003 19.1505 12.3544 18.097C12.2086 17.0435 12.2715 15.9716 12.5396 14.9424C13.081 12.8639 14.4253 11.0858 16.2767 9.99925C18.1281 8.91267 20.335 8.60665 22.4119 9.1485C24.4888 9.69035 26.2655 11.0357 27.3512 12.8885L27.3565 12.8985C28.0847 14.1449 28.4667 15.5634 28.4631 17.0071C28.4595 18.4509 28.0703 19.8674 27.3358 21.1101C26.6014 22.3527 25.5484 23.3763 24.2858 24.0749C23.0233 24.7734 21.5972 25.1215 20.155 25.0832H9.40331C7.40331 25.0804 5.48614 24.2835 4.07255 22.8676C2.65897 21.4517 1.86446 19.5323 1.8634 17.5307V0.453064" stroke="white" stroke-width="3" stroke-miterlimit="10"/>
</svg>
