<svg width="85" height="62" viewBox="0 0 85 62" fill="none" xmlns="http://www.w3.org/2000/svg">
<path d="M60.7486 33.3585V48.0363L76.5052 40.1478V20.1606C76.5052 20.1559 57.6006 27.8434 57.6006 27.8434L38.6894 20.1559L57.5986 12.9481L69.7146 17.4266" stroke="white" stroke-width="3" stroke-linecap="round" stroke-linejoin="round"/>
<path d="M24.0331 36.2189V51.067C24.0331 51.3638 23.9153 51.6485 23.7056 51.8583C23.4959 52.0682 23.2114 52.1861 22.9149 52.1861H9.64409C9.34751 52.1861 9.06308 52.0682 8.85337 51.8583C8.64365 51.6485 8.52584 51.3638 8.52584 51.067V31.5681C8.52584 31.2713 8.64365 30.9866 8.85337 30.7767C9.06308 30.5669 9.34751 30.449 9.64409 30.449H30.6742C30.5869 28.5229 30.0997 26.6361 29.2435 24.909C28.3872 23.1818 27.1809 21.6521 25.7012 20.4174C24.7206 19.5631 23.9347 18.508 23.3968 17.3235C22.8589 16.139 22.5814 14.8527 22.5831 13.5516V13.1757C22.571 11.8885 22.8255 10.6128 23.3307 9.42901C23.8359 8.24524 24.5808 7.17911 25.5184 6.29788C25.7064 6.15258 25.8624 5.97006 25.9768 5.76171C26.0912 5.55337 26.1615 5.32366 26.1832 5.08693C26.1627 4.38572 25.8684 3.7205 25.3633 3.234C24.8583 2.7475 24.1829 2.4785 23.482 2.48472H8.97394C8.62445 2.48667 8.27889 2.55868 7.95767 2.6965C7.63645 2.83432 7.34608 3.03516 7.10371 3.28715C6.86133 3.53914 6.67187 3.83718 6.5465 4.16367C6.42113 4.49016 6.36239 4.83848 6.37376 5.18806C6.39775 5.41263 6.46834 5.62971 6.58099 5.8254C6.69364 6.02109 6.84588 6.19108 7.02796 6.32449C7.96394 7.17257 8.71037 8.20895 9.21837 9.36575C9.72638 10.5226 9.9845 11.7737 9.97584 13.0373V13.5496C9.9783 14.8512 9.70087 16.138 9.1624 17.3228C8.62392 18.5076 7.83702 19.5626 6.85511 20.4161C5.2886 21.768 4.03214 23.4424 3.17159 25.325C2.31104 27.2075 1.86667 29.2537 1.86884 31.3239V52.9533C1.86972 54.8653 2.62908 56.6988 3.98006 58.0509C5.33103 59.4029 7.1631 60.1628 9.07366 60.1637H23.484C25.3945 60.1636 27.2267 59.4039 28.5776 58.0518C29.9285 56.6997 30.6874 54.866 30.6874 52.9539L30.9993 43.3376L55.4778 55.6167C56.1325 55.9474 56.8556 56.1197 57.589 56.1197C58.3224 56.1197 59.0455 55.9474 59.7002 55.6167L80.1824 45.3629C80.9678 44.9716 81.6285 44.3688 82.0903 43.6223C82.5521 42.8758 82.7967 42.0152 82.7966 41.1372V18.9543C82.7965 17.9923 82.5034 17.0532 81.9563 16.2623C81.4091 15.4714 80.634 14.8663 79.7343 14.5277L59.2468 6.83881C58.1809 6.4275 57.001 6.42371 55.9326 6.82817L32.7484 15.6142" stroke="white" stroke-width="3" stroke-linejoin="round"/>
</svg>
