<svg width="79" height="64" viewBox="0 0 79 64" fill="none" xmlns="http://www.w3.org/2000/svg">
<path d="M42.0519 24.5003H26.9987V40.886H42.0519V24.5003Z" stroke="white" stroke-width="2" stroke-linecap="round" stroke-linejoin="round"/>
<path d="M47.4127 26.9456L49.2583 23.4678L52.9495 30.4227H45.5698L47.4127 26.9456Z" stroke="white" stroke-width="2" stroke-linecap="round" stroke-linejoin="round"/>
<path d="M49.2602 40.7244C48.6525 40.7197 48.0599 40.535 47.5569 40.1937C47.054 39.8524 46.6632 39.3697 46.434 38.8064C46.2047 38.2432 46.1472 37.6247 46.2687 37.0288C46.3902 36.4329 46.6853 35.8864 47.1167 35.4581C47.5481 35.0297 48.0965 34.7388 48.6929 34.622C49.2893 34.5052 49.9068 34.5676 50.4678 34.8015C51.0287 35.0354 51.5079 35.4303 51.8449 35.9363C52.182 36.4424 52.3618 37.037 52.3617 37.6451C52.358 38.4649 52.0292 39.2497 51.4477 39.8271C50.8661 40.4045 50.0794 40.7272 49.2602 40.7244Z" stroke="white" stroke-width="2" stroke-linecap="round" stroke-linejoin="round"/>
<path d="M53.3723 2.21375C51.0008 5.49527 45.7526 7.78542 39.6281 7.78542C33.5036 7.78542 28.2561 5.49527 25.8846 2.21375L2.91251 13.6106C2.46504 13.8361 2.1246 14.2292 1.96524 14.7046C1.80588 15.1799 1.84049 15.699 2.06152 16.1489L8.81028 29.6663C9.03556 30.1141 9.42845 30.4548 9.90345 30.6141C10.3785 30.7735 10.8971 30.7387 11.3466 30.5173L18.0229 27.247C18.3113 27.1077 18.6302 27.0439 18.9499 27.0615C19.2696 27.0791 19.5796 27.1775 19.851 27.3476C20.1224 27.5177 20.3462 27.7539 20.5016 28.034C20.6569 28.3142 20.7388 28.6292 20.7394 28.9497V58.894C20.7386 59.3897 20.8354 59.8807 21.0244 60.339C21.2134 60.7972 21.4908 61.2137 21.8409 61.5645C22.1909 61.9152 22.6066 62.1935 23.0642 62.3833C23.5218 62.5731 24.0124 62.6707 24.5077 62.6705H54.7179C55.7183 62.6705 56.6779 62.2735 57.3862 61.5666C58.0946 60.8597 58.494 59.9005 58.4968 58.8993V28.9337C58.497 28.433 58.6958 27.9528 59.0496 27.5987C59.4034 27.2446 59.8833 27.0456 60.3836 27.0454C60.6694 27.0468 60.9513 27.112 61.2087 27.2364L67.8843 30.5073C68.3307 30.7321 68.8481 30.7704 69.3226 30.6137C69.7972 30.457 70.1903 30.1181 70.4153 29.6716L70.4207 29.6556L77.1847 16.1489C77.4096 15.7019 77.4485 15.1839 77.2929 14.7083C77.1372 14.2326 76.7998 13.838 76.3543 13.6106H76.3444L59.516 5.25708L58.8246 6.09809C55.5084 10.689 48.1693 13.8894 39.6048 13.8894C33.4837 13.8894 27.9955 12.2559 24.1494 9.65041" stroke="white" stroke-width="2" stroke-miterlimit="10"/>
</svg>
