<svg width="59" height="64" viewBox="0 0 59 64" fill="none" xmlns="http://www.w3.org/2000/svg">
<path d="M16.8162 8.66151H47.3222C47.5181 8.64342 47.7157 8.66642 47.9022 8.72905C48.0887 8.79168 48.2602 8.89256 48.4055 9.02524C48.5509 9.15792 48.667 9.31949 48.7465 9.49962C48.8259 9.67976 48.867 9.87449 48.867 10.0714C48.867 10.2683 48.8259 10.463 48.7465 10.6432C48.667 10.8233 48.5509 10.9849 48.4055 11.1176C48.2602 11.2502 48.0887 11.3511 47.9022 11.4137C47.7157 11.4764 47.5181 11.4994 47.3222 11.4813H16.8162C16.6203 11.4994 16.4228 11.4764 16.2363 11.4137C16.0497 11.3511 15.8783 11.2502 15.7329 11.1176C15.5875 10.9849 15.4714 10.8233 15.392 10.6432C15.3125 10.463 15.2715 10.2683 15.2715 10.0714C15.2715 9.87449 15.3125 9.67976 15.392 9.49962C15.4714 9.31949 15.5875 9.15792 15.7329 9.02524C15.8783 8.89256 16.0497 8.79168 16.2363 8.72905C16.4228 8.66642 16.6203 8.64342 16.8162 8.66151Z" fill="white"/>
<path d="M57.8885 10.1426V5.65749C57.8885 4.42225 57.3981 3.23759 56.5254 2.36415C55.6526 1.4907 54.4689 1 53.2346 1H6.51256C5.27828 1 4.09455 1.4907 3.22178 2.36415C2.34902 3.23759 1.8587 4.42225 1.8587 5.65749V58.025C1.8587 59.2602 2.34902 60.4448 3.22178 61.3183C4.09455 62.1917 5.27828 62.6824 6.51256 62.6824H53.2366C54.4709 62.6824 55.6546 62.1917 56.5274 61.3183C57.4001 60.4448 57.8905 59.2602 57.8905 58.025V17.8834H11.2189C10.9569 17.8615 10.6967 17.9434 10.4944 18.1115C10.2921 18.2796 10.1639 18.5205 10.1372 18.7823V50.1471C10.1639 50.409 10.2921 50.6499 10.4944 50.8182C10.6967 50.9864 10.9568 51.0685 11.2189 51.0467H48.1838C48.446 51.0686 48.7062 50.9866 48.9086 50.8184C49.1109 50.6501 49.2391 50.4091 49.2655 50.1471V24.0991" stroke="white" stroke-width="2" stroke-linejoin="round"/>
<path d="M7.12959 5.88371C7.13051 5.6348 7.2051 5.39174 7.34395 5.18523C7.48279 4.97872 7.67967 4.81801 7.90972 4.72339C8.13977 4.62877 8.39267 4.60449 8.63649 4.65362C8.88031 4.70274 9.10413 4.82306 9.27967 4.99939C9.45522 5.17573 9.57462 5.40016 9.62281 5.64435C9.67099 5.88855 9.6458 6.14156 9.55041 6.37143C9.45502 6.60131 9.29371 6.79774 9.08684 6.93593C8.87998 7.07413 8.63684 7.14788 8.38813 7.14788C8.22246 7.14789 8.05842 7.11515 7.90542 7.05156C7.75243 6.98798 7.61348 6.89478 7.49656 6.77733C7.37963 6.65988 7.28702 6.52048 7.22405 6.36713C7.16107 6.21378 7.12897 6.0495 7.12959 5.88371Z" fill="white"/>
<path d="M10.3012 5.88371C10.3021 5.6348 10.3767 5.39174 10.5156 5.18523C10.6544 4.97872 10.8513 4.81801 11.0813 4.72339C11.3114 4.62877 11.5643 4.60449 11.8081 4.65362C12.0519 4.70274 12.2758 4.82306 12.4513 4.99939C12.6268 5.17573 12.7462 5.40016 12.7944 5.64435C12.8426 5.88855 12.8174 6.14156 12.722 6.37143C12.6266 6.60131 12.4653 6.79774 12.2585 6.93593C12.0516 7.07413 11.8085 7.14788 11.5598 7.14788C11.3941 7.14789 11.2301 7.11515 11.0771 7.05156C10.9241 6.98798 10.7851 6.89478 10.6682 6.77733C10.5513 6.65988 10.4587 6.52048 10.3957 6.36713C10.3327 6.21378 10.3006 6.0495 10.3012 5.88371Z" fill="white"/>
<path d="M13.4778 5.8839C13.4788 5.63524 13.5535 5.39246 13.6922 5.18618C13.831 4.97991 14.0277 4.81939 14.2575 4.72487C14.4873 4.63034 14.74 4.60605 14.9836 4.65506C15.2272 4.70408 15.4508 4.82419 15.6263 5.00026C15.8017 5.17632 15.9212 5.40045 15.9695 5.64436C16.0178 5.88828 15.9929 6.14105 15.8978 6.3708C15.8028 6.60055 15.6419 6.79698 15.4354 6.93532C15.2289 7.07365 14.9861 7.14768 14.7377 7.14808C14.5719 7.14825 14.4077 7.11565 14.2545 7.05214C14.1014 6.98863 13.9623 6.89547 13.8452 6.778C13.7282 6.66053 13.6354 6.52107 13.5724 6.36763C13.5093 6.2142 13.4772 6.04981 13.4778 5.8839Z" fill="white"/>
</svg>
