<svg width="52" height="50" viewBox="0 0 52 50" fill="none" xmlns="http://www.w3.org/2000/svg">
<path d="M20.176 19.108L31.8106 7.98527M20.309 13.1125L8.56464 2.74693C7.76605 2.18421 6.79515 1.92048 5.82186 2.00191C4.84858 2.08335 3.93491 2.50475 3.24078 3.19237C2.54664 3.87999 2.11626 4.79002 2.02495 5.76318C1.93365 6.73634 2.18724 7.71065 2.74134 8.51556L15.1931 23.2199C15.1931 23.2199 15.3061 23.3596 15.4929 23.5792C13.2451 25.7216 7.17513 31.5029 7.17513 31.5029C6.17361 32.4623 5.42647 33.6562 5.00112 34.9767C5.00112 34.9767 1.34452 47.8913 1.91628 48.4036C2.48205 49.0882 15.5454 46.0476 15.5454 46.0476C16.8856 45.6898 18.1137 44.9988 19.1156 44.0389L27.206 36.3207C27.206 36.4259 27.206 36.5383 27.2113 36.6348C27.3542 41.5278 30.8373 44.2904 36.3754 45.2252C41.9135 46.16 49.232 45.0156 49.8204 43.4407C50.2951 42.1765 48.8823 41.4979 47.2508 40.3441C46.5759 39.8603 46.023 39.2258 45.6357 38.491C45.2484 37.7561 45.0375 36.9411 45.0196 36.1105C44.935 33.8611 44.0043 31.7268 42.4138 30.1352C40.8234 28.5435 38.6908 27.6121 36.4432 27.5274L41.603 22.6098L48.4441 16.0826C49.0181 15.5366 49.4788 14.8826 49.7998 14.1581C50.1209 13.4336 50.296 12.6528 50.3151 11.8605C50.3342 11.0682 50.1971 10.2799 49.9114 9.5407C49.6257 8.80153 49.1971 8.126 48.6503 7.55279L45.0335 3.74696C44.4872 3.1726 43.8331 2.71164 43.1086 2.3904C42.3841 2.06917 41.6035 1.89396 40.8113 1.87481C40.0192 1.85565 39.231 1.99292 38.4919 2.27876C37.7527 2.56461 37.0772 2.99342 36.5037 3.5407L31.8366 7.99193L39.8013 16.3554" stroke="white" stroke-width="2" stroke-linejoin="round"/>
</svg>
