<svg width="84" height="61" viewBox="0 0 84 61" fill="none" xmlns="http://www.w3.org/2000/svg">
<path d="M60.7486 32.3585V47.0363L76.5052 39.1478V19.1606C76.5052 19.1559 57.6006 26.8434 57.6006 26.8434L38.6894 19.1559L57.5986 11.9481L69.7146 16.4266" stroke="white" stroke-width="2" stroke-linecap="round" stroke-linejoin="round"/>
<path d="M24.0331 35.2189V50.067C24.0331 50.3638 23.9153 50.6485 23.7056 50.8583C23.4959 51.0682 23.2114 51.1861 22.9149 51.1861H9.64409C9.34751 51.1861 9.06308 51.0682 8.85337 50.8583C8.64365 50.6485 8.52584 50.3638 8.52584 50.067V30.5681C8.52584 30.2713 8.64365 29.9866 8.85337 29.7767C9.06308 29.5669 9.34751 29.449 9.64409 29.449H30.6742C30.5869 27.5229 30.0997 25.6361 29.2435 23.909C28.3872 22.1818 27.1809 20.6521 25.7012 19.4174C24.7206 18.5631 23.9347 17.508 23.3968 16.3235C22.8589 15.139 22.5814 13.8527 22.5831 12.5516V12.1757C22.571 10.8885 22.8255 9.61278 23.3307 8.42901C23.8359 7.24524 24.5808 6.17911 25.5184 5.29788C25.7064 5.15258 25.8624 4.97006 25.9768 4.76171C26.0912 4.55337 26.1615 4.32366 26.1832 4.08693C26.1627 3.38572 25.8684 2.7205 25.3633 2.234C24.8583 1.7475 24.1829 1.4785 23.482 1.48472H8.97394C8.62445 1.48667 8.27889 1.55868 7.95767 1.6965C7.63645 1.83432 7.34608 2.03516 7.10371 2.28715C6.86133 2.53914 6.67187 2.83718 6.5465 3.16367C6.42113 3.49016 6.36239 3.83848 6.37376 4.18806C6.39775 4.41263 6.46834 4.62971 6.58099 4.8254C6.69364 5.02109 6.84588 5.19108 7.02796 5.32449C7.96394 6.17257 8.71037 7.20895 9.21837 8.36575C9.72638 9.52255 9.9845 10.7737 9.97584 12.0373V12.5496C9.9783 13.8512 9.70087 15.138 9.1624 16.3228C8.62392 17.5076 7.83702 18.5626 6.85511 19.4161C5.2886 20.768 4.03214 22.4424 3.17159 24.325C2.31104 26.2075 1.86667 28.2537 1.86884 30.3239V51.9533C1.86972 53.8653 2.62908 55.6988 3.98006 57.0509C5.33103 58.4029 7.1631 59.1628 9.07366 59.1637H23.484C25.3945 59.1636 27.2267 58.4039 28.5776 57.0518C29.9285 55.6997 30.6874 53.866 30.6874 51.9539L30.9993 42.3376L55.4778 54.6167C56.1325 54.9474 56.8556 55.1197 57.589 55.1197C58.3224 55.1197 59.0455 54.9474 59.7002 54.6167L80.1824 44.3629C80.9678 43.9716 81.6285 43.3688 82.0903 42.6223C82.5521 41.8758 82.7967 41.0152 82.7966 40.1372V17.9543C82.7965 16.9923 82.5034 16.0532 81.9563 15.2623C81.4091 14.4714 80.634 13.8663 79.7343 13.5277L59.2468 5.83881C58.1809 5.4275 57.001 5.42371 55.9326 5.82817L32.7484 14.6142" stroke="white" stroke-width="2" stroke-linejoin="round"/>
</svg>
