<svg width="18" height="23" viewBox="0 0 18 23" fill="none" xmlns="http://www.w3.org/2000/svg">
<path d="M16.8762 20.8689C16.876 21.0261 16.832 21.18 16.749 21.3135C16.6659 21.4469 16.5473 21.5544 16.4064 21.624C16.2655 21.6936 16.1079 21.7225 15.9515 21.7073C15.7951 21.692 15.646 21.6333 15.5212 21.5378L11.1541 18.196C10.6129 17.7629 9.94034 17.5269 9.24713 17.5269C8.55392 17.5269 7.88138 17.7629 7.34015 18.196L2.96417 21.4529C2.83881 21.5464 2.6899 21.6032 2.53412 21.6169C2.37834 21.6307 2.2218 21.6009 2.08203 21.5308C1.94226 21.4606 1.82477 21.3528 1.74268 21.2197C1.66058 21.0866 1.61714 20.9332 1.61719 20.7769V5.41699C1.61719 4.31237 2.05601 3.25301 2.8371 2.47192C3.61819 1.69083 4.67754 1.25195 5.78217 1.25195H12.7122C13.2591 1.25195 13.8006 1.35977 14.3058 1.56909C14.8111 1.77841 15.2702 2.08515 15.6569 2.47192C16.0436 2.85869 16.3503 3.31793 16.5595 3.82324C16.7687 4.32856 16.8763 4.87008 16.8762 5.41699V20.8689Z" stroke="white" stroke-width="1.5"/>
</svg>
