<svg width="26" height="25" viewBox="0 0 26 25" fill="none" xmlns="http://www.w3.org/2000/svg">
<path d="M13.2469 24.136C19.6871 24.136 24.9079 18.9152 24.9079 12.475C24.9079 6.03477 19.6871 0.813965 13.2469 0.813965C6.80675 0.813965 1.58594 6.03477 1.58594 12.475C1.58594 18.9152 6.80675 24.136 13.2469 24.136Z" stroke="white" stroke-width="1.5"/>
<path d="M14.2861 20.7C14.1522 20.8409 13.991 20.9531 13.8124 21.0298C13.6338 21.1065 13.4414 21.146 13.247 21.146C13.0526 21.146 12.8603 21.1065 12.6817 21.0298C12.5031 20.9531 12.3419 20.8409 12.2081 20.7C12.0689 20.5628 11.9586 20.399 11.8838 20.2185C11.8091 20.038 11.7714 19.8443 11.773 19.6489C11.783 19.2648 11.9427 18.8998 12.2179 18.6316C12.4932 18.3634 12.8622 18.2134 13.2465 18.2134C13.6308 18.2134 13.9999 18.3634 14.2752 18.6316C14.5504 18.8998 14.71 19.2648 14.72 19.6489C14.7215 19.8442 14.684 20.0377 14.6094 20.2183C14.5349 20.3988 14.4249 20.5626 14.2861 20.7ZM11.9421 3.80005H14.527L14.2861 16.167H12.1861L11.9421 3.80005Z" fill="white"/>
</svg>
