<svg width="26" height="25" viewBox="0 0 26 25" fill="none" xmlns="http://www.w3.org/2000/svg">
<path d="M13.2469 24.2112C19.6871 24.2112 24.9079 18.9904 24.9079 12.5502C24.9079 6.10997 19.6871 0.88916 13.2469 0.88916C6.80675 0.88916 1.58594 6.10997 1.58594 12.5502C1.58594 18.9904 6.80675 24.2112 13.2469 24.2112Z" stroke="white" stroke-width="1.5"/>
<path d="M9.88184 7.8733L8.21191 6.53712C8.72946 5.73511 9.43884 5.07495 10.2759 4.61622C11.148 4.10606 12.1405 3.83804 13.1509 3.8401C14.4972 3.78285 15.8164 4.22979 16.8508 5.09327C17.5557 5.75011 18.0311 6.61576 18.2072 7.563C18.3832 8.51023 18.2506 9.489 17.8289 10.3552C17.5557 10.8904 17.1823 11.368 16.7289 11.7622C16.2989 12.1289 15.8692 12.4829 15.4398 12.8242C15.0135 13.1628 14.6424 13.5657 14.3398 14.0183C14.0372 14.4736 13.8793 15.0095 13.8868 15.5562V16.6062H11.5488V15.4612C11.5339 14.7483 11.6849 14.0417 11.9899 13.3972C12.2487 12.8466 12.6184 12.3553 13.0758 11.9541C13.5051 11.5881 13.9346 11.2423 14.3639 10.9163C14.7825 10.6015 15.1489 10.2228 15.4498 9.7942C15.7403 9.38549 15.8947 8.89572 15.8909 8.39429C15.906 8.06774 15.8462 7.74201 15.7161 7.44215C15.5859 7.14228 15.3888 6.87625 15.1399 6.66431C14.565 6.21877 13.8493 5.99441 13.1229 6.03223C12.4708 6.03874 11.8311 6.21113 11.264 6.53321C10.697 6.8553 10.2214 7.31655 9.88184 7.8733ZM13.7479 20.8181C13.616 20.9577 13.4568 21.069 13.2804 21.145C13.104 21.221 12.914 21.26 12.7219 21.26C12.5298 21.26 12.3397 21.221 12.1633 21.145C11.9869 21.069 11.8279 20.9577 11.6959 20.8181C11.5582 20.6829 11.449 20.5214 11.3751 20.343C11.3012 20.1647 11.2641 19.9733 11.2659 19.7803C11.2758 19.4009 11.4336 19.0402 11.7054 18.7754C11.9773 18.5106 12.3418 18.3623 12.7213 18.3623C13.1009 18.3623 13.4654 18.5106 13.7373 18.7754C14.0092 19.0402 14.1669 19.4009 14.1769 19.7803C14.1786 19.9732 14.1414 20.1645 14.0677 20.3428C13.9941 20.5211 13.8853 20.6827 13.7479 20.8181Z" fill="white"/>
</svg>
