<svg width="25" height="25" viewBox="0 0 25 25" fill="none" xmlns="http://www.w3.org/2000/svg">
<path d="M6.9314 19.2019C6.9314 17.6276 7.55671 16.1179 8.66992 15.0046C9.78314 13.8914 11.293 13.2659 12.8673 13.2659C14.4416 13.2659 15.9515 13.8914 17.0647 15.0046C18.1779 16.1179 18.8033 17.6276 18.8033 19.2019" stroke="white" stroke-linecap="round"/>
<path d="M12.8672 11.6009C14.3749 11.6009 15.5972 10.3786 15.5972 8.87087C15.5972 7.36313 14.3749 6.14087 12.8672 6.14087C11.3595 6.14087 10.1372 7.36313 10.1372 8.87087C10.1372 10.3786 11.3595 11.6009 12.8672 11.6009Z" stroke="white" stroke-linecap="round"/>
<path d="M12.2473 1.23389C15.2777 1.23415 18.184 2.43835 20.3267 4.5813C22.4695 6.72425 23.6733 9.63043 23.6733 12.6609V24.0869H12.2473C9.2168 24.0869 6.31049 22.8832 4.16754 20.7405C2.02459 18.5977 0.820578 15.6913 0.820312 12.6609C0.820312 9.63026 2.0242 6.72379 4.16718 4.58081C6.31015 2.43783 9.21662 1.23389 12.2473 1.23389Z" stroke="white" stroke-width="1.5"/>
</svg>
