<svg width="25" height="22" viewBox="0 0 25 22" fill="none" xmlns="http://www.w3.org/2000/svg">
<path d="M4.8609 21.4802C3.57352 21.4763 2.34003 20.9629 1.42981 20.0525C0.519586 19.1421 0.00662222 17.9085 0.00292969 16.6211V5.02124C0.00688452 3.73394 0.519947 2.50044 1.43011 1.59009C2.34028 0.679733 3.5736 0.166329 4.8609 0.162109H12.166L12.259 0.199219L12.3399 0.162109H19.64C20.9274 0.166331 22.1609 0.679762 23.0711 1.59033C23.9813 2.5009 24.4943 3.73475 24.498 5.02222V16.6221C24.494 17.9094 23.9808 19.143 23.0704 20.0532C22.16 20.9634 20.9264 21.4765 19.639 21.4802H4.8609ZM1.28192 16.6221C1.28298 17.5717 1.66072 18.4822 2.33228 19.1536C3.00383 19.8249 3.91436 20.2023 4.86395 20.2031H19.6319C20.5815 20.2023 21.492 19.8249 22.1635 19.1536C22.8351 18.4822 23.2129 17.5717 23.2139 16.6221V5.14111L16.5789 11.7703L16.5289 11.8523L15.6769 12.6741C14.887 13.4575 13.8512 13.9447 12.744 14.0532C12.6513 14.0632 12.5581 14.0684 12.4649 14.0691L12.2459 14.0791L12.0269 14.0691C11.9439 14.0691 11.8609 14.0691 11.7779 14.0571C10.6601 13.9522 9.61316 13.4635 8.81488 12.6741L7.91498 11.7981L7.92389 11.8042C7.92989 11.8042 7.91193 11.7782 7.89093 11.7542L1.27295 5.14111V11.3943V11.4043L1.28192 16.6221ZM4.85992 1.43408C4.21026 1.43508 3.57324 1.61363 3.0177 1.95044C2.46216 2.28725 2.00926 2.76965 1.70795 3.34521L1.56494 3.61719L9.54987 11.6023L9.72089 11.7693C10.4016 12.4177 11.3058 12.7793 12.2459 12.7793C13.1861 12.7793 14.0902 12.4177 14.7709 11.7693L22.9299 3.61328L22.7879 3.34131C22.4866 2.76575 22.0337 2.28335 21.4782 1.94653C20.9227 1.60972 20.2856 1.43118 19.6359 1.43018L4.85992 1.43408Z" fill="white"/>
</svg>
