<svg width="16" height="14" viewBox="0 0 16 14" fill="none" xmlns="http://www.w3.org/2000/svg">
<path d="M1.4875 8.25738L7.13438 13.6515C7.36875 13.8753 7.67812 14 8 14C8.32187 14 8.63125 13.8753 8.86563 13.6515L14.5125 8.25738C15.4625 7.3525 16 6.08312 16 4.75618V4.57072C16 2.33571 14.4219 0.430028 12.2688 0.0623216C10.8438 -0.180684 9.39375 0.295735 8.375 1.3381L8 1.7218L7.625 1.3381C6.60625 0.295735 5.15625 -0.180684 3.73125 0.0623216C1.57812 0.430028 0 2.33571 0 4.57072V4.75618C0 6.08312 0.5375 7.3525 1.4875 8.25738Z" fill="#9E9EA3"/>
</svg>
