<svg id="Group_336" data-name="Group 336" xmlns="http://www.w3.org/2000/svg" width="235.536" height="180.751" viewBox="0 0 235.536 180.751">
  <g id="Group_337" data-name="Group 337" transform="translate(0 0)">
    <path id="Path_941" data-name="Path 941" d="M148.414,166.436A30.636,30.636,0,1,1,117.777,135.8a30.641,30.641,0,0,1,30.637,30.633" transform="translate(-10.474 -16.322)" fill="#00c7c7"/>
    <path id="Path_942" data-name="Path 942" d="M106.048,167.324l11.364,11.362,21.378-21.379" transform="translate(-12.746 -18.907)" fill="none" stroke="#fff" stroke-linecap="round" stroke-linejoin="round" stroke-width="4.299"/>
    <path id="Path_943" data-name="Path 943" d="M54.7,43.272a22.678,22.678,0,1,0-18.911,0A45.261,45.261,0,0,0,0,87.525H90.5A45.259,45.259,0,0,0,54.7,43.272" transform="translate(0 0)" fill="#cacad1"/>
    <rect id="Rectangle_168" data-name="Rectangle 168" width="87.464" height="9.592" transform="translate(94.359 0.838)" fill="#cacad1"/>
    <rect id="Rectangle_169" data-name="Rectangle 169" width="87.464" height="9.592" transform="translate(94.359 18.877)" fill="#cacad1"/>
    <rect id="Rectangle_170" data-name="Rectangle 170" width="141.178" height="9.592" transform="translate(94.359 47.342)" fill="#cacad1"/>
    <rect id="Rectangle_171" data-name="Rectangle 171" width="141.178" height="10.884" transform="translate(94.359 75.807)" fill="#cacad1"/>
  </g>
</svg>
