<svg width="129" height="197" viewBox="0 0 129 197" fill="none" xmlns="http://www.w3.org/2000/svg">
<path d="M90.3999 165.959C90.3999 172.018 88.6032 177.942 85.2369 182.98C81.8706 188.018 77.086 191.944 71.4881 194.263C65.8901 196.582 59.7303 197.189 53.7875 196.007C47.8448 194.825 42.3859 191.907 38.1014 187.623C33.8168 183.338 30.8989 177.879 29.7167 171.937C28.5345 165.994 29.1411 159.834 31.4597 154.236C33.7783 148.638 37.7048 143.853 42.7428 140.487C47.7807 137.12 53.7038 135.323 59.7629 135.323C67.8874 135.324 75.6788 138.552 81.424 144.296C87.1692 150.041 90.3978 157.832 90.3999 165.956" fill="#00C7C7"/>
<path d="M45.7622 164.263L57.1262 175.625L78.5042 154.246" stroke="white" stroke-width="4.299" stroke-linecap="round" stroke-linejoin="round"/>
<path d="M77.525 61.3414C84.1625 58.2966 89.5594 53.0737 92.8199 46.5395C96.0804 40.0052 97.0085 32.5525 95.4503 25.4182C93.892 18.2838 89.941 11.8968 84.253 7.31704C78.565 2.7373 71.482 0.240234 64.1795 0.240234C56.8769 0.240234 49.7939 2.7373 44.1059 7.31704C38.4179 11.8968 34.467 18.2838 32.9087 25.4182C31.3504 32.5525 32.2786 40.0052 35.5391 46.5395C38.7996 53.0737 44.1965 58.2966 50.834 61.3414C36.5368 64.3994 23.7212 72.2692 14.5267 83.6367C5.33212 95.0043 0.315037 109.182 0.312988 123.802H128.047C128.045 109.182 123.028 95.0036 113.834 83.6359C104.639 72.2682 91.8226 64.3987 77.525 61.3414Z" fill="#CACAD1"/>
</svg>
