<svg width="24" height="23" viewBox="0 0 24 23" fill="none" xmlns="http://www.w3.org/2000/svg">
<path d="M1.29785 8.85714C1.29785 7.30315 1.75865 5.78406 2.622 4.49196C3.48535 3.19986 4.71245 2.19278 6.14816 1.5981C7.58386 1.00341 9.16367 0.847806 10.6878 1.15098C12.2119 1.45414 13.612 2.20247 14.7108 3.30131C15.8096 4.40015 16.558 5.80017 16.8612 7.3243C17.1643 8.84844 17.0087 10.4282 16.414 11.864C15.8193 13.2997 14.8122 14.5268 13.5201 15.3901C12.228 16.2535 10.709 16.7143 9.15497 16.7143C7.07113 16.7143 5.07263 15.8865 3.59913 14.413C2.12563 12.9395 1.29785 10.941 1.29785 8.85714Z" stroke="#545457" stroke-width="2" stroke-miterlimit="10"/>
<path d="M15.0469 14.7754L22.2709 21.9994" stroke="#545457" stroke-width="2" stroke-miterlimit="10" stroke-linecap="round"/>
</svg>
