<svg width="20" height="21" viewBox="0 0 20 21" fill="none" xmlns="http://www.w3.org/2000/svg">
<path d="M15.4062 4.33911C15.184 4.33931 14.9667 4.4054 14.782 4.52903C14.5973 4.65265 14.4534 4.82827 14.3685 5.03367C14.2836 5.23907 14.2614 5.46504 14.3049 5.68301C14.3484 5.90097 14.4555 6.10116 14.6128 6.25826C14.77 6.41535 14.9703 6.5223 15.1883 6.56559C15.4063 6.60888 15.6323 6.58656 15.8376 6.50146C16.043 6.41635 16.2184 6.27229 16.3419 6.08747C16.4654 5.90265 16.5312 5.68538 16.5312 5.46311C16.531 5.16492 16.4123 4.87902 16.2014 4.66826C15.9904 4.4575 15.7044 4.33911 15.4062 4.33911Z" fill="#F5F7FA"/>
<path d="M10.4011 5.77905C9.46763 5.78004 8.55527 6.05776 7.77956 6.57711C7.00385 7.09646 6.39954 7.83413 6.04299 8.69687C5.68643 9.5596 5.59366 10.5087 5.77639 11.4241C5.95911 12.3396 6.40916 13.1803 7.0696 13.8401C7.73004 14.4998 8.57131 14.9489 9.48696 15.1307C10.4026 15.3125 11.3515 15.2187 12.2139 14.8612C13.0762 14.5037 13.8133 13.8986 14.3318 13.1224C14.8503 12.3461 15.1271 11.4336 15.1271 10.5001C15.1247 9.24783 14.6259 8.04765 13.74 7.16267C12.8541 6.27768 11.6534 5.78011 10.4011 5.77905ZM10.4011 13.5241C9.80318 13.5235 9.21872 13.3456 8.72182 13.013C8.22492 12.6803 7.83781 12.2078 7.60939 11.6552C7.38097 11.1026 7.3216 10.4947 7.43862 9.90826C7.55564 9.32186 7.84383 8.78332 8.26686 8.3607C8.6899 7.93809 9.22869 7.65038 9.8152 7.53394C10.4017 7.4175 11.0096 7.47756 11.562 7.70653C12.1144 7.93549 12.5866 8.32309 12.9187 8.82032C13.2509 9.31755 13.4281 9.90209 13.4281 10.5001C13.4268 11.3022 13.1073 12.071 12.5398 12.6379C11.9723 13.2049 11.2033 13.5235 10.4011 13.5241Z" fill="#F5F7FA"/>
<path d="M14.1531 20.085H6.49109C4.96366 20.0842 3.49895 19.4775 2.41833 18.398C1.33772 17.3186 0.729434 15.8545 0.727051 14.327V6.67404C0.729434 5.14652 1.33763 3.68233 2.41821 2.60268C3.4988 1.52303 4.96357 0.916097 6.49109 0.915039H14.1531C15.6808 0.915832 17.1458 1.52264 18.2266 2.60232C19.3074 3.682 19.9157 5.14635 19.9181 6.67404V14.327C19.9154 15.8546 19.307 17.3186 18.2262 18.3981C17.1454 19.4776 15.6806 20.0842 14.1531 20.085ZM6.49109 2.71804C5.44203 2.71883 4.43614 3.13564 3.69397 3.87706C2.9518 4.61848 2.53396 5.62398 2.5321 6.67304V14.327C2.53396 15.3761 2.9518 16.3816 3.69397 17.123C4.43614 17.8644 5.44203 18.2812 6.49109 18.282H14.1531C15.2024 18.2818 16.2087 17.8652 16.9512 17.1237C17.6936 16.3822 18.1114 15.3763 18.113 14.327V6.67404C18.1114 5.62473 17.6936 4.61892 16.9512 3.87742C16.2087 3.13591 15.2024 2.7193 14.1531 2.71904L6.49109 2.71804Z" fill="#F5F7FA"/>
</svg>
