<?xml version="1.0" encoding="iso-8859-1"?>
<!DOCTYPE svg PUBLIC "-//W3C//DTD SVG 1.1//EN" "http://www.w3.org/Graphics/SVG/1.1/DTD/svg11.dtd" [
    <!ENTITY ns_flows "http://ns.adobe.com/Flows/1.0/">
    <!ENTITY ns_extend "http://ns.adobe.com/Extensibility/1.0/">
    <!ENTITY ns_ai "http://ns.adobe.com/AdobeIllustrator/10.0/">
    <!ENTITY ns_graphs "http://ns.adobe.com/Graphs/1.0/">
]>
<!-- Generator: Adobe Illustrator 19.0.0, SVG Export Plug-In . SVG Version: 6.00 Build 0)  -->
<svg version="1.1" id="Layer_1" xmlns:x="&ns_extend;" xmlns:i="&ns_ai;" xmlns:graph="&ns_graphs;"
	 xmlns="http://www.w3.org/2000/svg" xmlns:xlink="http://www.w3.org/1999/xlink" xmlns:a="http://ns.adobe.com/AdobeSVGViewerExtensions/3.0/"
	 x="0px" y="0px" viewBox="0 0 1500 1500" style="enable-background:new 0 0 1500 1500;" xml:space="preserve">
<g id="XMLID_5_">
	<path id="XMLID_5516_" style="fill:#27262E;" d="M211.317,675.999c58.025-37.726,110.917-57.62,163.996-76.969
		c5.459-1.99,16.164-2.475,17.987,0.413c21.154,33.504,47.411,14.001,71.601,7.231c214.216-59.958,427.944-57.647,641.294,4.14
		c19.538,5.658,38.57,17.008,53.973-8.474c6.6-10.919,18.651-4.993,28.328-1.596c42.675,14.982,84.158,32.741,123.917,54.343
		c7.566,4.111,18.734,6.579,17.932,17.777c-0.752,10.513-11.626,12.557-19.338,16.7c-6.816,3.662-13.58,7.682-20.827,10.239
		c-44.106,15.56-62.54,46.474-66.141,93.153c-3.396,44.021-7.235,43.494-47.665,24.328c-21.113-10.009-41.686-28.462-64.163,0.482
		c-7.898,10.171-21.869,1.123-32.564-2.623c-201.067-70.423-402.031-69.914-602.914,0.681c-8.463,2.974-19.855,10.713-25.45,4.578
		c-31.319-34.34-58.073-7.511-85.899,4.569c-13.947,6.055-29.325,7.088-28.393-11.246
		C341.177,731.444,285.345,700.666,211.317,675.999z M794.331,579.377c-141.357-0.032-266.376,21.277-388.544,62.631
		c-34.074,11.534-35.595,25.197-17.567,52.049c17.218,25.645,32.678,52.699,46.46,80.354c12.623,25.328,26.518,30.622,54.898,20.901
		c163.806-56.107,330.348-63.238,499.436-24.325c39.428,9.074,83.546,45.199,115.648,24.852
		c31.958-20.255,44.359-70.41,67.267-106.218c16.59-25.932,10.108-37.289-18.09-46.815
		C1033.058,602.006,909.54,578.96,794.331,579.377z M366.666,617.153c-33.585,14.368-55.138,22.888-76.027,32.807
		c-11.25,5.342-29.035,7.118-30.283,20.823c-1.401,15.384,17.032,17.758,27.962,22.207c37.434,15.237,58.063,40.156,57.877,82.157
		c-0.147,33.244,16.365,33.573,43.111,21.696c25.303-11.235,31.029-22.33,14.372-45.366c-11.29-15.615-19.934-33.209-29.129-50.259
		C361.992,677.931,342.118,656.058,366.666,617.153z M1298.181,670.538c-2.164-2.62-3.935-6.712-6.955-8.112
		c-24.511-11.365-49.015-22.821-74.059-32.914c-8.714-3.512-16.175,1.18-12.215,11.737c5.486,14.627-2.952,24.973-8.968,35.955
		c-14.858,27.124-30.468,53.835-45.552,80.836c-4.881,8.738-13.437,19.009-1.418,27.159c14.728,9.986,30.43,21.501,49.161,19.499
		c12.561-1.342,13.09-14.954,12.878-25.024c-0.972-46.21,22.208-74.238,64.204-89.877
		C1284.137,686.49,1295.435,683.595,1298.181,670.538z"/>
	<path id="XMLID_10400_" style="fill:#27262E;" d="M498.158,540.917c-70.625-144.75-109.314-103.506-144.424-155.572
		c-8.209-12.185-2.491-33.66,14.593-34.113c65.871-1.7,138.779,116.796,143.943,186.043
		C512.909,545.812,501.797,548.362,498.158,540.917z"/>
	<path id="XMLID_10389_" style="fill:#27262E;" d="M366.482,452.341c29.191,11.068,34.465,33.953,28.072,34.685
		c-5.565,0.62-67.798-3.557-76.76-11.947C304.114,462.298,324.622,436.483,366.482,452.341z"/>
	<path id="XMLID_6640_" style="fill:#27262E;" d="M459.445,532.504c-6.338-7.832-16.706-14.972-30.098-21.588
		c-12.479-6.15-24.069-9.552-35.584-11.299c-11.884-1.479-23.865-2.318-33.154,2.817c-0.369,0.272-0.737,0.544-0.737,0.544
		c-3.219,1.794-14.079,8.658-11.797,19.473c3.503,17.872,26.631,20.734,45.417,17.701c5.31-0.502,11.091-1.914,16.222-3.424
		c14.217-3.076,29.162-6.694,42.848-1.997c1.18,0.835,2.366,1.673,3.273,2.135c0.913,0.465,1.922,0.29,2.928,0.12
		c0.737-0.544,1.202-1.457,1.299-2.097C460.161,534.256,459.989,533.241,459.445,532.504z"/>
	<path id="XMLID_10448_" style="fill:#27262E;" d="M1034.348,542.918c70.625-144.75,109.314-103.506,144.424-155.572
		c8.209-12.185,2.491-33.66-14.593-34.113c-65.871-1.7-138.78,116.796-143.943,186.043
		C1019.597,547.813,1030.709,550.364,1034.348,542.918z"/>
	<path id="XMLID_10446_" style="fill:#27262E;" d="M1166.025,454.342c-29.191,11.068-34.465,33.953-28.072,34.685
		c5.565,0.62,67.798-3.557,76.76-11.947C1228.392,464.3,1207.884,438.484,1166.025,454.342z"/>
	<path id="XMLID_10409_" style="fill:#27262E;" d="M1073.061,534.506c6.338-7.832,16.706-14.972,30.098-21.588
		c12.479-6.15,24.069-9.552,35.584-11.299c11.884-1.479,23.865-2.318,33.154,2.817c0.369,0.272,0.737,0.544,0.737,0.544
		c3.219,1.794,14.079,8.658,11.797,19.473c-3.503,17.872-26.631,20.734-45.417,17.701c-5.311-0.502-11.091-1.914-16.222-3.424
		c-14.217-3.076-29.162-6.694-42.849-1.997c-1.18,0.835-2.366,1.673-3.273,2.135c-0.913,0.465-1.922,0.29-2.928,0.12
		c-0.737-0.544-1.203-1.457-1.299-2.097C1072.345,536.258,1072.517,535.243,1073.061,534.506z"/>
	<path id="XMLID_10682_" style="fill:#27262E;" d="M1057.509,992.14c70.625,144.75,109.314,103.506,144.424,155.572
		c8.209,12.185,2.491,33.66-14.593,34.113c-65.871,1.7-138.779-116.796-143.943-186.043
		C1042.758,987.245,1053.87,984.694,1057.509,992.14z"/>
	<path id="XMLID_10681_" style="fill:#27262E;" d="M1189.185,1080.716c-29.191-11.068-34.465-33.953-28.072-34.685
		c5.565-0.62,67.798,3.557,76.76,11.947C1251.553,1070.758,1231.045,1096.574,1189.185,1080.716z"/>
	<path id="XMLID_10666_" style="fill:#27262E;" d="M1096.221,1000.552c6.338,7.832,16.706,14.972,30.098,21.588
		c12.479,6.15,24.069,9.552,35.584,11.299c11.884,1.479,23.865,2.318,33.154-2.817c0.369-0.272,0.737-0.544,0.737-0.544
		c3.219-1.794,14.079-8.658,11.797-19.473c-3.503-17.872-26.631-20.734-45.417-17.701c-5.31,0.502-11.091,1.914-16.222,3.424
		c-14.217,3.076-29.162,6.694-42.848,1.997c-1.18-0.835-2.366-1.673-3.273-2.135c-0.913-0.465-1.922-0.29-2.928-0.12
		c-0.737,0.544-1.202,1.457-1.299,2.097C1095.505,998.801,1095.677,999.815,1096.221,1000.552z"/>
	<path id="XMLID_10556_" style="fill:#27262E;" d="M489.29,987.469c-70.625,144.75-109.314,103.506-144.424,155.572
		c-8.209,12.185-2.491,33.66,14.593,34.113c65.871,1.7,138.779-116.796,143.943-186.043
		C504.041,982.574,492.93,980.023,489.29,987.469z"/>
	<path id="XMLID_10555_" style="fill:#27262E;" d="M357.614,1076.045c29.191-11.068,34.465-33.953,28.072-34.685
		c-5.565-0.62-67.798,3.557-76.76,11.947C295.246,1066.087,315.754,1091.903,357.614,1076.045z"/>
	<path id="XMLID_10449_" style="fill:#27262E;" d="M450.578,995.881c-6.338,7.832-16.706,14.972-30.098,21.588
		c-12.479,6.15-24.069,9.552-35.584,11.299c-11.884,1.479-23.865,2.318-33.154-2.817c-0.369-0.272-0.737-0.544-0.737-0.544
		c-3.219-1.794-14.079-8.658-11.797-19.473c3.503-17.872,26.631-20.734,45.417-17.701c5.31,0.502,11.091,1.914,16.222,3.424
		c14.217,3.076,29.162,6.694,42.848,1.997c1.18-0.835,2.366-1.673,3.273-2.135c0.913-0.465,1.922-0.29,2.928-0.12
		c0.737,0.544,1.202,1.457,1.299,2.097C451.294,994.13,451.122,995.144,450.578,995.881z"/>
	<g id="XMLID_1_">
		<g id="XMLID_199_">
			<path id="XMLID_212_" style="fill:#27262E;" d="M692.858,542.223c28.79,0,33.588-20.633,33.588-20.633
				c8.877,0,20.873,45.584-31.668,45.584c-35.508,0-63.338-16.554-88.289-27.591c-8.397,7.677-20.153,11.996-35.748,11.996
				c-28.55,0-31.909-29.99,1.919-29.99c5.038,0,11.516,0.72,18.713,1.679c18.234-63.338-40.066-266.787,65.497-266.787
				c58.54,0,57.34,77.013,10.316,77.013c-32.389,0-25.911-33.828-17.514-33.828c0,0-0.959,12.236,11.516,12.236
				c26.871,0,24.712-46.304-4.318-46.304c-83.971,0-1.44,194.092-41.026,262.468C643.675,534.066,674.864,542.223,692.858,542.223z
				 M587.535,532.626c-5.278-1.44-10.316-2.399-15.355-2.399c-13.435,0-14.395,11.996-0.48,11.996
				C578.658,542.223,583.936,538.624,587.535,532.626z"/>
			<path id="XMLID_209_" style="fill:#27262E;" d="M692.373,401.392v91.888c0,3.599,2.399,7.917,6.958,8.637
				c1.199,0.24,1.919,1.439,1.919,2.399v0.48c0,1.44-1.2,2.399-2.399,2.399h-40.546c-1.439,0-2.399-0.96-2.399-2.399v-0.48
				c0-0.96,0.72-2.159,1.919-2.399c4.318-0.72,6.718-5.038,6.718-8.637v-91.888c0-3.599-2.399-7.917-6.718-8.637
				c-1.2-0.24-1.919-1.439-1.919-2.399v-0.48c0-1.439,0.96-2.399,2.399-2.399h40.546c1.2,0,2.399,0.96,2.399,2.399v0.48
				c0,0.96-0.72,2.159-1.919,2.399C694.772,393.475,692.373,397.793,692.373,401.392z M664.543,363.725
				c0-7.677,6.238-13.915,13.915-13.915s13.915,6.238,13.915,13.915s-6.238,13.915-13.915,13.915S664.543,371.403,664.543,363.725z"
				/>
			<path id="XMLID_207_" style="fill:#27262E;" d="M723.08,396.354h-12.716v-8.637h12.716v-0.24
				c0-21.593,7.677-50.383,39.346-50.383c28.069,0,28.069,28.79,28.069,29.51c0,6.718-5.517,12.476-12.475,12.476
				c-6.958,0-12.476-5.758-12.476-12.476c0-6.957,5.518-12.475,12.476-12.475c0.959,0,2.159,0,3.119,0.24
				c-2.399-2.639-6.238-5.038-11.757-5.038c-10.076,0-18.473,9.837-18.473,26.871v11.516h22.552v8.637h-22.552v97.166
				c0,3.359,2.398,7.677,6.957,8.637c1.2,0.24,1.919,1.2,1.919,2.159v0.48c0,1.44-1.199,2.399-2.398,2.399h-40.546
				c-1.439,0-2.399-0.96-2.399-2.399v-0.48c0-0.96,0.72-1.919,1.919-2.159c4.318-0.96,6.718-5.278,6.718-8.637V396.354z"/>
			<path id="XMLID_204_" style="fill:#27262E;" d="M775.383,447.456c0-33.108,18.473-59.979,46.303-59.979
				c43.664,0,44.864,57.58,43.184,65.497h-61.419c1.2,24.951,11.996,40.546,28.79,40.546c15.355,0,19.193-9.837,19.193-9.837
				c-0.24,0-13.435,0.48-13.435-12.475c0-6.958,5.758-12.476,12.476-12.476c5.278,0,12.475,3.599,12.475,12.956
				c0,15.355-12.236,35.508-38.146,35.508C794.816,507.195,775.383,480.564,775.383,447.456z M803.213,444.097h33.828
				c0-21.593-3.119-47.743-15.355-47.743C811.61,396.354,803.932,417.467,803.213,444.097z"/>
			<path id="XMLID_202_" style="fill:#27262E;" d="M882.14,346.691c-0.24-5.758,3.359-10.316,8.157-10.316h5.758
				c4.558,0,8.157,4.558,8.157,10.316l-3.119,17.514c0,5.278-3.599,9.597-7.918,9.597c-4.318,0-7.917-4.318-8.156-9.597
				L882.14,346.691z"/>
			<path id="XMLID_200_" style="fill:#27262E;" d="M999.935,468.089c0,23.271-20.393,39.106-42.945,39.106
				c-41.506,0-45.104-33.109-35.987-42.225c2.399-2.879,5.998-4.798,9.836-4.798c6.958,0,12.476,5.518,12.476,12.476
				c0,6.958-5.518,12.476-12.476,12.476c-1.919,0-3.839-0.48-5.517-1.2c3.119,6.718,9.597,12.716,23.271,12.716
				c17.274,0,25.911-10.316,25.911-19.193c0-24.232-56.141-12.236-56.141-54.941c0-19.673,15.114-35.027,40.306-35.027
				c23.032,0,33.348,12.955,33.348,29.51c0,6.718-5.518,12.476-12.476,12.476c-6.958,0-12.475-5.758-12.475-12.476
				c0-6.958,5.517-12.716,12.475-12.716c0.96,0,1.919,0.24,2.879,0.48c-3.359-5.278-8.877-8.397-18.474-8.397
				c-13.915,0-21.593,7.917-21.593,17.034C942.356,439.538,999.935,424.904,999.935,468.089z"/>
		</g>
	</g>
	<g id="XMLID_6477_">
		<g id="XMLID_23_">
			<path id="XMLID_91_" style="fill:#27262E;" d="M502.626,648.718c0.824,3.171-1.526,6.681-5.089,7.63
				c-6.038,1.608-9.053,2.434-15.074,4.127c-1.353,0.38-1.986,1.372-1.645,2.572c8.722,30.773,17.443,61.546,26.165,92.319
				c0.893,3.152-1.147,6.486-4.366,7.419c-1.533,0.445-2.3,0.669-3.832,1.119c-3.369,0.991-6.733-0.764-7.677-3.901
				c-9.213-30.629-18.427-61.259-27.641-91.888c-0.359-1.195-1.595-1.639-2.774-1.281c-5.995,1.817-8.987,2.746-14.963,4.648
				c-3.524,1.121-7.408-0.568-8.421-3.684c-0.482-1.484-0.723-2.226-1.206-3.71c-1.012-3.116,1.179-6.782,4.753-7.92
				c17.43-5.446,34.924-10.556,52.544-15.348c3.613-0.962,7.42,0.951,8.244,4.122C502.037,646.452,502.233,647.208,502.626,648.718z
				"/>
			<path id="XMLID_88_" style="fill:#27262E;" d="M560.03,625.346c11.289-2.261,23.567,3.616,26.073,15.465
				c4.794,26.246,9.588,52.492,14.381,78.737c1.795,11.071-5.634,21.332-16.483,23.679c-7.966,1.62-11.942,2.469-19.883,4.249
				c-10.865,2.292-21.869-4.013-24.764-14.863c-6.353-25.912-12.707-51.825-19.06-77.737c-2.554-11.854,6.291-22.231,17.521-24.783
				C546.687,628.105,551.13,627.156,560.03,625.346z M538.972,655.905c5.152,22.563,10.303,45.125,15.455,67.688
				c1.146,5.02,6.333,8.152,11.535,7.015c3.783-0.827,5.677-1.232,9.466-2.023c5.209-1.088,8.656-6.065,7.651-11.115
				c-4.52-22.698-9.041-45.395-13.562-68.093c-1.006-5.05-6.46-8.264-12.11-7.084c-4.11,0.858-6.164,1.297-10.268,2.194
				C541.497,645.721,537.826,650.886,538.972,655.905z"/>
			<path id="XMLID_85_" style="fill:#27262E;" d="M645.288,611.33c11.418-1.4,23.171,5.411,24.771,17.392
				c2.806,26.532,5.611,53.065,8.415,79.597c0.958,11.153-7.177,20.839-18.163,22.365c-8.041,1.012-12.058,1.558-20.083,2.73
				c-10.997,1.462-21.441-5.69-23.499-16.701c-4.379-26.318-8.758-52.637-13.138-78.955c-1.654-11.983,7.88-21.679,19.259-23.378
				C631.816,613.071,636.304,612.461,645.288,611.33z M622.074,640.204c3.436,22.887,6.871,45.775,10.305,68.662
				c0.764,5.092,5.685,8.609,10.941,7.869c3.823-0.538,5.734-0.797,9.56-1.3c5.261-0.69,9.061-5.393,8.439-10.504
				c-2.798-22.974-5.596-45.948-8.395-68.922c-0.623-5.111-5.805-8.728-11.512-7.98c-4.15,0.545-6.223,0.826-10.369,1.41
				C625.343,630.242,621.31,635.112,622.074,640.204z"/>
			<path id="XMLID_80_" style="fill:#27262E;" d="M761.679,602.512c8.967-0.209,13.451-0.27,22.419-0.304
				c11.498-0.004,22.314,8.191,22.449,20.265c-0.099,6.116-0.148,9.173-0.246,15.288c-0.017,1.061-0.026,1.591-0.043,2.652
				c-0.053,3.276-2.981,5.879-6.716,5.841c-1.698-0.017-2.546-0.024-4.243-0.035c-3.735-0.023-6.62-2.674-6.62-5.95
				c0.001-5.055,0.002-7.583,0.003-12.638c0.001-5.149-4.698-9.368-10.441-9.316c-4.108,0.037-6.162,0.065-10.27,0.139
				c-5.744,0.104-10.5,4.453-10.358,9.6c0.369,13.413-0.242,21.539,3.897,25.027c12.917,7.93,31.308-3.462,41.702,10.38
				c5.477,10.678,2.389,27.796,2.046,39.042c-0.339,11.113-9.577,19.946-20.704,20.156c-8.026,0.03-12.038,0.085-20.063,0.272
				c-11.171,0.117-20.693-8.344-21.409-19.581c-0.303-6.983-0.455-10.475-0.758-17.459c-0.016-0.374-0.024-0.562-0.041-0.936
				c-0.149-3.429,2.703-6.21,6.163-6.339c1.714-0.064,2.571-0.094,4.285-0.152c3.461-0.115,6.34,2.617,6.43,5.893
				c0.12,4.367,0.24,8.735,0.361,13.102c0.142,5.147,4.753,9.387,10.048,9.291c3.787-0.069,5.68-0.094,9.467-0.128
				c5.294-0.048,8.979-4.412,9.628-9.56c1.457-11.543,1.992-18.569-1.152-22.156c-11.272-8.416-27.824-1.948-40.391-9.355
				c-10.123-9.63-7.325-29.509-7.511-42.168C739.432,611.25,750.145,602.799,761.679,602.512z"/>
			<path id="XMLID_37_" style="fill:#27262E;" d="M833.687,603.406c3.705,0.146,6.751,3.098,6.602,6.372
				c-0.637,13.976-1.274,27.952-1.912,41.927c-0.099,2.182,1.674,3.98,4.031,4.096c8.686,0.429,13.028,0.687,21.706,1.289
				c2.354,0.163,4.497-1.399,4.657-3.578c1.025-13.953,2.049-27.905,3.074-41.858c0.24-3.269,3.44-5.852,7.138-5.558
				c1.831,0.145,2.746,0.22,4.576,0.372c3.697,0.308,6.439,3.374,6.148,6.638c-3.209,35.951-6.419,71.902-9.623,107.854
				c-0.291,3.263-3.203,5.665-6.513,5.389c-1.638-0.136-2.458-0.203-4.096-0.333c-3.31-0.262-5.796-3.102-5.557-6.37
				c1.03-14.057,2.061-28.114,3.093-42.171c0.16-2.178-1.691-4.192-4.01-4.352c-8.551-0.593-12.829-0.847-21.387-1.27
				c-2.322-0.115-4.231,1.673-4.331,3.855c-0.642,14.08-1.283,28.161-1.923,42.241c-0.149,3.273-3.11,5.792-6.426,5.661
				c-1.641-0.065-2.462-0.096-4.104-0.154c-3.316-0.118-5.922-2.847-5.825-6.122c1.068-36.079,2.14-72.157,3.211-108.235
				c0.097-3.276,3.18-5.996,6.885-5.864C830.935,603.299,831.853,603.333,833.687,603.406z"/>
			<path id="XMLID_34_" style="fill:#27262E;" d="M954.525,614.455c11.379,1.705,20.908,11.405,19.248,23.387
				c-4.393,26.316-8.787,52.633-13.178,78.95c-2.062,11.01-12.509,18.157-23.505,16.69c-8.024-1.175-12.041-1.723-20.082-2.739
				c-10.985-1.531-19.117-11.221-18.155-22.373c2.815-26.531,5.634-53.062,8.452-79.593c1.607-11.981,13.365-18.786,24.783-17.381
				C941.072,612.53,945.56,613.142,954.525,614.455z M924.437,636.072c-2.81,22.973-5.621,45.945-8.429,68.918
				c-0.625,5.111,3.173,9.815,8.434,10.508c3.826,0.504,5.739,0.765,9.561,1.304c5.255,0.742,10.178-2.773,10.944-7.865
				c3.446-22.886,6.893-45.772,10.34-68.658c0.767-5.092-3.264-9.964-8.964-10.768c-4.146-0.585-6.22-0.868-10.37-1.414
				C930.247,627.346,925.062,630.961,924.437,636.072z"/>
			<path id="XMLID_31_" style="fill:#27262E;" d="M1049.112,632.237c7.266,1.697,11.868,8.301,10.266,14.815
				c-2.882,11.717-5.765,23.434-8.647,35.15c-1.156,4.697-5.084,7.903-9.819,8.858c-1.821,0.368-3.197,1.807-3.301,3.706
				c-0.565,17.168-1.261,34.333-2.142,51.488c-0.168,2.69-2.432,4.539-5.173,4.357c-2.703-0.205-4.054-0.304-6.754-0.491
				c-2.703-0.315-4.793-2.558-4.823-5.286c0.651-18.004,1.167-36.007,1.552-54.019c0.073-1.9-1.435-3.668-3.408-4.093
				c-4.472-0.962-6.71-1.432-11.19-2.346c-2.306-0.471-4.62,0.817-5.079,3.113c-3.295,16.473-6.589,32.945-9.882,49.418
				c-0.642,3.213-3.807,5.283-7.078,4.649c-1.621-0.314-2.43-0.469-4.052-0.777c-3.428-0.65-5.602-3.743-5.012-6.966
				c6.539-35.656,13.083-71.311,19.625-106.966c0.591-3.223,4.034-5.29,7.865-4.563c1.812,0.344,2.717,0.517,4.528,0.868
				c0.174,0.034,0.349,0.068,0.522,0.101c0.349,0.068,0.522,0.102,0.696,0.136c0.349,0.068,0.522,0.102,0.696,0.136
				C1022.09,626.183,1035.63,629.088,1049.112,632.237z M1005.336,663.774c-0.428,2.142,1.212,4.379,3.551,4.857
				c8.022,1.638,12.029,2.495,20.027,4.283c3.333,0.745,6.554-1.075,7.217-3.965c1.536-6.691,2.303-10.037,3.839-16.729
				c0.663-2.889-1.509-5.951-4.927-6.715c-8.202-1.834-12.31-2.713-20.537-4.393c-2.399-0.49-4.794,0.782-5.254,3.077
				C1007.686,652.024,1006.903,655.941,1005.336,663.774z"/>
			<path id="XMLID_29_" style="fill:#27262E;" d="M1139.541,667.798c-1.012,3.116-4.896,4.805-8.421,3.684
				c-5.975-1.901-8.969-2.831-14.964-4.648c-1.347-0.408-2.415,0.086-2.774,1.281c-9.213,30.63-18.428,61.259-27.64,91.889
				c-0.944,3.137-4.46,4.848-7.677,3.901c-1.532-0.451-2.299-0.675-3.832-1.119c-3.372-0.978-5.259-4.267-4.366-7.419
				c8.72-30.774,17.443-61.547,26.164-92.32c0.34-1.201-0.462-2.239-1.645-2.572c-6.021-1.693-9.037-2.519-15.075-4.128
				c-3.562-0.949-5.912-4.459-5.088-7.63c0.392-1.51,0.589-2.266,0.981-3.776c0.824-3.171,4.63-5.085,8.242-4.123
				c17.621,4.793,35.115,9.904,52.545,15.349c3.575,1.138,5.766,4.804,4.754,7.92
				C1140.264,665.572,1140.023,666.314,1139.541,667.798z"/>
		</g>
	</g>
	<g id="XMLID_6633_">
		<g id="XMLID_25_">
			<path id="XMLID_98_" style="fill:#27262E;" d="M417.069,966.533c-3.696,1.112-8.337,0.967-13.865-0.352
				c-2.257-19.668-7.702-39.053-13.362-57.741c-4.35-14.36-9.112-28.907-15.654-42.625c-8.475,3.117-17.63,9.809-23.149,16.961
				c-1.922-3.021-3.423-6.178-4.494-9.475c-1.088-3.347-1.654-6.553-1.689-9.616c12.815-5.517,25.593-10.641,38.656-14.464
				c13.067-3.825,26.59-6.403,40.362-8.663c1.727,3.02,3.024,6.208,3.899,9.561c0.862,3.301,1.241,6.533,1.146,9.693
				c-9.415-3.019-18.71-3.672-27.771-1.963c2.725,17.069,5.967,33.99,10.521,50.465c4.743,17.157,11.142,34.407,19.155,50.552
				C425.35,962.821,420.764,965.421,417.069,966.533z"/>
			<path id="XMLID_95_" style="fill:#27262E;" d="M488.534,947.051c-8.12,1.921-20.578-0.503-27.082-6.115
				c-11.323-9.772-19.38-25.053-23.294-39.708c-1.81-6.776-2.806-15.172-3.352-24.692c-0.52-9.066,2.512-20.642,6.396-28.513
				c3.968-8.041,14.694-15.811,23.203-17.796c8.38-1.955,21.197,0.483,27.948,6.24c8.347,7.119,14.32,16.99,18.521,26.81
				c2.141,5.003,3.58,10.63,4.674,16.044c1.255,6.211,1.932,13.946,2.08,23.202c0.148,9.255-2.544,18.517-6.824,27.439
				C507.026,937.84,496.682,945.123,488.534,947.051z M485.568,931.394c3.382-0.788,5.591-3.472,6.655-8.072
				c1.063-4.599,1.334-9.862,0.797-15.79c-0.536-5.928-1.421-11.696-2.667-17.3c-1.916-8.616-4.455-16.846-7.652-24.677
				c-2.533-6.203-5.167-11.175-7.904-14.914c-2.737-3.738-5.281-5.336-7.604-4.797c-3.372,0.782-5.603,3.495-6.669,8.118
				c-1.067,4.625-1.274,10.078-0.634,16.358c0.64,6.28,1.727,12.551,3.246,18.814c1.965,8.105,4.379,15.635,7.229,22.572
				c2.539,6.18,5.16,11.138,7.84,14.87C480.884,930.308,483.331,931.915,485.568,931.394z"/>
			<path id="XMLID_93_" style="fill:#27262E;" d="M601.282,926.635c-3.981,0.573-8.301,0.433-12.982-0.408
				c-4.683-0.841-9.048-3.531-13.105-8.082c-3.796-4.258-6.197-9.271-7.156-15.041c-0.969-5.822-0.252-11.229,2.198-16.209
				c2.448-4.979,7.089-8.018,13.878-9.046c7.353-1.114,11.455,1.297,12.291,7.139c0.215,1.502-0.021,3.464-0.701,5.887
				c-0.68,2.425-2.411,4.247-5.193,5.482c-1.124,0.496-2.271,0.832-3.441,1.009c-1.73,0.262-3.526,0.265-5.393,0.007
				c0.03,0.928,0.107,1.791,0.232,2.594c0.583,3.747,2.273,6.18,5.043,7.278c2.1,0.832,4.376,1.062,6.811,0.702
				c1.493-0.22,3.72-0.93,6.686-2.118c2.967-1.188,5.876-3.837,8.625-7.922c2.316-3.442,3.22-7.178,2.702-11.097
				c-1.219-9.234-4.625-15.345-10.24-18.292c-4.688-2.46-9.819-4.226-15.326-5.194c-6.631-1.165-12.07-3.149-16.243-6.048
				c-6.021-4.14-9.6-9.388-10.66-15.8c-1.696-10.26,1.065-18.445,8.419-24.476c7.353-6.029,15.823-9.723,25.288-11.026
				c3.571-0.492,8.094-0.582,13.552-0.244c5.458,0.337,10.575,2.36,15.261,6.062c4.306,3.402,6.728,7.672,7.304,12.729
				c0.484,4.252-0.924,7.815-4.183,10.707c-2.407,2.136-4.767,3.351-7.091,3.637c-1.396,0.172-3.407-0.221-6.04-1.168
				c-2.633-0.947-4.239-3.591-4.804-7.941c-0.405-3.114,1.029-6.281,4.336-9.482c-4.622-1.055-9.009-1.3-13.135-0.741
				c-4.776,0.646-8.741,2.286-11.874,4.899c-3.134,2.614-4.423,5.723-3.892,9.312c0.729,4.929,5.535,8.415,14.339,10.583
				c18.951,4.471,38.399,15.902,40.706,37.049c0.574,5.259-0.03,11.285-1.815,18.031c-1.786,6.747-6.652,13.001-14.477,18.865
				C615.147,922.805,608.534,925.59,601.282,926.635z"/>
			<path id="XMLID_76_" style="fill:#27262E;" d="M714.257,918.21c-0.165,0.009-1.849,0.09-5.054,0.259
				c-3.206,0.169-7.806-0.258-13.827-1.237c2.043-3.785,2.781-9.994,2.183-18.639c-0.179-2.593-0.432-5.426-0.757-8.498
				c-4.792-0.209-9.543-0.128-14.242,0.247c-4.644,0.371-9.207,1.032-13.684,1.978c-0.544,5.216-0.709,8.902-0.512,11.059
				c0.571,6.257,1.781,11.284,3.613,15.089c-2.886,1.074-6.761,1.838-11.628,2.318c-6.729,0.663-12.428-0.494-17.151-3.51
				c8.122-17.364,10.482-38.659,14.594-57.169c4.366-19.652,11.137-40.755,11.251-61.086c3.984-1.259,7.778-2.023,11.366-2.297
				c7.596-0.578,14.305,1.062,20.048,4.882c1.71,14.087,5.657,28.077,8.973,41.82c3.931,16.292,7.814,32.655,11.946,48.895
				c2.538,9.974,6.215,17.24,10.983,21.802C726.411,916.496,720.39,917.857,714.257,918.21z M681.629,879.741
				c4.763-0.407,9.25-1.419,13.399-2.959c-1.704-11.354-3.969-22.632-6.294-33.838c-1.052-5.069-2.37-12.072-3.919-20.972
				c-5.376,18.714-10.762,37.516-14.095,56.726C673.712,879.741,677.37,880.105,681.629,879.741z"/>
			<path id="XMLID_74_" style="fill:#27262E;" d="M771.655,856.363c-1.646,1.954-1.165,11.356-0.956,17.236
				c0.431,12.169,2.29,23.594,4.893,35.765c-6.038,2.341-10.926,3.627-14.636,3.736c-3.709,0.109-7.972-1.244-12.747-3.964
				c2.208-13.359,2.957-26.948,2.559-40.469c-0.121-4.111-0.427-7.871-0.927-11.27c-4.781-0.781-8.791-2.292-12.042-4.555
				c-5.553-3.8-9.739-9.602-12.551-17.441c-2.812-7.839-5.053-15.035-6.686-21.596c-1.633-6.558-3.712-12.162-6.241-16.798
				c5.523-2.088,10.669-3.228,15.404-3.433c0.298-0.013,1.755-0.036,4.364-0.059c2.61-0.024,6.944,0.606,12.975,1.933
				c-1.731,5.961-2.488,11.623-2.31,16.981c0.13,3.898,0.868,7.449,2.206,10.657c3.235,9.325,8.06,14.596,14.533,15.862
				c1.691,0.342,3.376,0.498,5.06,0.467c4.699-0.086,9.568-2.671,14.691-7.747c5.123-5.077,8.295-12.443,9.471-22.139
				c-7.764-1.02-11.683-4.354-11.736-10.094c-0.039-4.278,2.083-7.579,6.398-9.874c1.497-0.766,3.21-1.151,5.135-1.153
				c1.863-0.002,3.908,0.352,6.129,1.062c6.661,2.837,10.468,8.421,10.648,15.914c0.182,7.58-2.163,16.141-6.13,24.889
				c-3.967,8.748-9.187,15.419-15.668,20.053C779.76,853.052,772.891,854.896,771.655,856.363z"/>
			<path id="XMLID_72_" style="fill:#27262E;" d="M908.176,918.033c-3.648-0.299-7.705-2.169-12.144-5.51
				c0.693-2.443,1.157-5.095,1.387-7.957c0.49-6.099,0.031-13.2-1.43-21.299c-4.414-21.664-10.025-43.164-20.001-63.025
				c-1.67,11.941-3.101,23.889-3.802,35.742c-1.082,18.298-0.984,37.204,1.087,55.734c-6.204,1.999-11.179,2.976-14.887,2.812
				c-3.708-0.164-7.858-1.881-12.417-5.052c4.296-19.484,5.498-39.695,6.386-59.405c0.753-16.721,3.229-37.132-2.274-53.601
				c4.861-1.641,10.09-2.322,15.66-2.031c4.673,0.244,9.579,1.174,14.699,2.796c11.324,18.471,18.106,39.16,23.907,59.887
				c1.394-18.43,5.299-40.676,0.181-58.993c4.927-1.456,10.187-1.939,15.752-1.437c4.668,0.421,9.514,1.533,14.521,3.342
				c-5.03,19.849-8.683,39.926-10.624,60.012c-1.764,18.252-2.382,37.141-1.007,55.736
				C916.944,917.553,911.933,918.341,908.176,918.033z"/>
			<path id="XMLID_69_" style="fill:#27262E;" d="M972.651,924.892c-8.241-1.119-18.942-7.862-22.955-15.42
				c-7.008-13.196-9.006-30.347-7.393-45.418c0.747-6.974,2.828-15.169,5.726-24.25c2.758-8.641,9.708-18.357,16.135-24.32
				c6.549-6.076,19.297-9.49,27.92-8.289c8.504,1.184,19.551,8.067,23.763,15.849c5.219,9.643,7.242,20.999,7.633,31.669
				c0.199,5.438-0.479,11.206-1.403,16.652c-1.059,6.247-3.205,13.71-6.388,22.402c-3.183,8.691-9.017,16.371-16.199,23.163
				C993.16,922.916,980.928,926.015,972.651,924.892z M975.503,909.213c3.425,0.477,6.441-1.235,9.079-5.148
				c2.637-3.912,4.776-8.727,6.401-14.453c1.626-5.726,2.871-11.426,3.721-17.104c1.307-8.729,1.896-17.322,1.729-25.778
				c-0.132-6.698-0.799-12.284-2.005-16.755c-1.205-4.47-2.997-6.875-5.35-7.205c-3.414-0.479-6.459,1.253-9.105,5.186
				c-2.647,3.934-4.794,8.95-6.448,15.041c-1.656,6.092-2.891,12.335-3.725,18.726c-1.079,8.27-1.533,16.164-1.371,23.662
				c0.145,6.679,0.803,12.247,1.956,16.692C971.539,906.52,973.237,908.898,975.503,909.213z"/>
			<path id="XMLID_67_" style="fill:#27262E;" d="M1089.987,947.269c-3.752-0.843-7.705-3.245-11.848-7.104
				c7.677-18.248,12.453-37.806,16.702-56.866c3.265-14.646,6.263-29.655,7.313-44.816c-8.864-1.437-20.073-0.09-28.334,3.437
				c-0.183-3.574,0.063-7.06,0.75-10.458c0.697-3.45,1.775-6.521,3.242-9.207c13.801,1.472,27.372,3.272,40.558,6.34
				c13.236,3.08,26.259,7.471,39.343,12.259c0.022,3.479-0.414,6.893-1.298,10.244c-0.87,3.299-2.128,6.301-3.762,9.006
				c-6.719-7.254-14.487-12.385-23.198-15.341c-6.004,16.208-11.487,32.542-15.611,49.131c-4.295,17.275-7.196,35.443-8.152,53.443
				C1098.993,948.096,1093.738,948.112,1089.987,947.269z"/>
			<path id="XMLID_64_" style="fill:#27262E;" d="M1161.801,965.395c-8.03-2.316-17.723-10.545-20.643-18.643
				c-5.074-14.072-4.585-31.344-0.797-46.033c1.751-6.792,5.008-14.595,9.207-23.156c4-8.154,12.33-16.75,19.585-21.694
				c7.427-5.062,20.616-6.544,29.018-4.088c8.288,2.423,18.311,10.849,21.403,19.201c3.815,10.305,4.194,21.847,3.043,32.477
				c-0.586,5.41-2.095,11.021-3.802,16.274c-1.958,6.026-5.176,13.094-9.605,21.225c-4.429,8.13-11.35,14.865-19.501,20.524
				C1182.505,966.485,1169.874,967.724,1161.801,965.395z M1166.908,950.3c3.345,0.978,6.599-0.271,9.793-3.754
				c3.193-3.482,6.021-7.931,8.468-13.358c2.448-5.426,4.513-10.884,6.18-16.378c2.563-8.446,4.391-16.863,5.446-25.257
				c0.835-6.649,0.977-12.276,0.421-16.879c-0.556-4.602-1.995-7.247-4.292-7.921c-3.333-0.978-6.618,0.287-9.823,3.789
				c-3.206,3.503-6.07,8.15-8.598,13.935c-2.53,5.785-4.663,11.781-6.417,17.982c-2.27,8.026-3.863,15.771-4.785,23.215
				c-0.821,6.631-0.969,12.239-0.462,16.807C1163.347,947.05,1164.696,949.653,1166.908,950.3z"/>
		</g>
	</g>
	<g id="XMLID_6_">
		<g id="XMLID_152_">
			<path id="XMLID_161_" style="fill:#27262E;" d="M516,1047.531c0-43.62,30.028-79.021,68.906-79.021
				c28.448,0,43.303,16.12,43.303,35.718c0,9.167-7.27,18.332-16.436,18.332c-9.166,0-16.437-7.269-16.437-16.436
				c0-7.902,5.69-14.54,13.276-16.12c-0.316-1.265-1.896-9.799-17.385-9.799c-18.332,0-38.562,19.281-38.562,67.326
				c0,35.085,18.649,55.946,41.407,55.946c22.126,0,30.66-24.654,30.66-24.654h7.27c0,14.224-15.172,47.412-49.309,47.412
				C546.029,1126.235,516,1091.151,516,1047.531z"/>
			<path id="XMLID_158_" style="fill:#27262E;" d="M639.585,1073.133c0-29.711,25.919-53.418,57.843-53.418
				c9.798,0,18.649,2.213,26.867,6.005v-24.97c0,0-0.949-24.97-24.971-24.97c-11.695,0-18.965,3.476-21.81,7.27
				c6.638,2.212,11.063,8.217,11.063,15.487c0,8.851-7.27,16.437-16.436,16.437c-9.166,0-16.437-7.586-16.437-16.437
				c0-0.632-1.896-30.028,47.412-30.028c24.971,0,57.843,8.218,57.843,48.36c0,40.459,0,83.762,0,91.348
				c0,4.425,3.161,10.115,8.85,11.379c1.58,0.315,2.528,1.58,2.528,2.845v0.632c0,1.896-1.264,3.161-3.16,3.161h-44.884v-6.005
				c-8.218,3.793-17.069,6.005-26.867,6.005C665.504,1126.235,639.585,1102.529,639.585,1073.133z M676.25,1073.133
				c0,24.971,9.483,45.201,21.178,45.201c6.321,0,21.493,0,26.867-24.971v-40.774c-5.374-24.97-20.546-24.97-26.867-24.97
				C685.733,1027.618,676.25,1047.847,676.25,1073.133z"/>
			<path id="XMLID_156_" style="fill:#27262E;" d="M782.45,1123.075v-0.632c0-1.581,0.948-2.845,2.529-3.161
				c5.689-1.265,8.85-6.954,8.85-11.379V920.15c0-4.742-3.161-10.115-8.85-11.379c-1.581-0.316-2.529-1.58-2.529-3.161v-0.632
				c0-1.896,1.265-3.161,3.161-3.161h53.418c1.58,0,3.161,1.265,3.161,3.161v0.632c0,1.581-0.948,2.845-2.529,3.161
				c-6.005,1.265-9.166,6.637-9.166,11.379v105.571l39.51-46.148c1.581-2.213,1.897-3.477-1.58-4.109
				c-1.58-0.316-2.528-1.896-2.528-3.161v-0.632c0-1.896,1.58-3.161,3.16-3.161h31.925c1.896,0,3.161,1.265,3.161,3.161v0.632
				c0,1.265-0.948,2.845-2.213,3.161c-6.006,0.948-10.115,2.213-18.333,11.379l-23.707,26.867l43.304,95.457
				c2.845,5.689,7.269,8.85,12.959,10.115c1.265,0.316,2.213,1.58,2.213,3.161v0.632c0,1.581-1.265,3.161-3.161,3.161H865.58
				c-1.581,0-2.845-1.58-2.845-3.161v-0.632c0-1.581,0.948-2.845,2.212-3.161c5.057-0.948,3.794-4.741,1.897-9.167l-30.977-69.538
				l-5.374,6.005v61.32c0,4.426,3.161,10.115,9.166,11.379c1.581,0.316,2.529,1.58,2.529,3.161v0.632
				c0,1.581-1.581,3.161-3.161,3.161h-53.418C783.715,1126.235,782.45,1124.656,782.45,1123.075z"/>
			<path id="XMLID_153_" style="fill:#27262E;" d="M909.511,1047.531c0-43.62,24.338-79.021,61.004-79.021
				c57.527,0,59.107,75.86,56.894,86.291h-80.917c1.581,32.872,15.805,53.418,37.93,53.418c20.229,0,25.287-12.959,25.287-12.959
				c-0.316,0-17.701,0.632-17.701-16.437c0-9.167,7.586-16.437,16.437-16.437c6.954,0,16.437,4.741,16.437,17.068
				c0,20.229-16.12,46.781-50.257,46.781C935.114,1126.235,909.511,1091.151,909.511,1047.531z M946.177,1043.105h44.568
				c0-28.448-4.109-62.901-20.229-62.901C957.24,980.205,947.125,1008.021,946.177,1043.105z"/>
		</g>
	</g>
</g>
<g id="XMLID_15_">
</g>
<g id="XMLID_17_">
</g>
<g id="XMLID_19_">
</g>
<g id="XMLID_22_">
</g>
<g id="XMLID_24_">
</g>
<g id="XMLID_43_">
</g>
</svg>
