<?xml version="1.0" standalone="no"?>
<!DOCTYPE svg PUBLIC "-//W3C//DTD SVG 20010904//EN"
 "http://www.w3.org/TR/2001/REC-SVG-20010904/DTD/svg10.dtd">
<svg version="1.0" xmlns="http://www.w3.org/2000/svg"
 width="252.000000pt" height="681.000000pt" viewBox="0 0 252.000000 681.000000"
 preserveAspectRatio="xMidYMid meet">

<g transform="translate(0.000000,681.000000) scale(0.100000,-0.100000)"
fill="#000000" stroke="none">
<path d="M18 6803 c-17 -4 -18 -174 -18 -3398 l0 -3393 22 -6 c30 -8 2426 -8
2456 0 l22 6 0 860 c0 751 -2 861 -15 874 -19 20 -19 34 0 34 20 0 20 36 0 44
-8 3 -15 10 -15 17 0 6 7 8 16 5 14 -5 15 -4 4 9 -7 8 -15 13 -19 11 -4 -3 -7
3 -8 12 -2 26 -8 45 -21 70 -7 12 -10 27 -7 32 3 6 2 10 -4 10 -6 0 -13 11
-16 23 -4 13 -13 24 -21 24 -8 0 -13 -6 -10 -13 3 -9 -1 -11 -11 -7 -14 6 -13
9 5 23 l21 17 -21 34 c-11 19 -24 36 -29 37 -5 2 -9 8 -9 13 0 6 4 8 10 4 5
-3 3 6 -5 21 -7 15 -11 33 -8 42 4 9 2 13 -3 9 -6 -3 -16 14 -23 38 -11 39
-41 71 -41 44 0 -15 -18 -1 -31 24 -7 12 -8 19 -4 15 11 -11 31 14 31 39 0 12
-3 20 -7 17 -8 -4 -39 74 -39 99 0 9 -6 16 -12 14 -7 -1 -12 4 -10 12 2 7 -4
21 -13 31 -8 9 -12 19 -9 22 3 4 -3 21 -12 40 -10 18 -17 36 -16 41 1 4 -3 7
-9 7 -6 0 -9 7 -5 15 3 8 1 15 -3 15 -5 0 -14 14 -20 30 -5 17 -7 30 -4 30 3
0 0 6 -6 13 -6 8 -7 18 -3 22 4 5 1 5 -6 1 -8 -5 -12 0 -12 13 0 11 -4 22 -9
25 -5 4 -8 17 -7 30 2 17 -1 23 -10 19 -8 -3 -12 -9 -9 -13 7 -12 -23 -6 -36
7 -8 8 -7 13 2 18 8 6 10 4 4 -4 -5 -9 -2 -12 11 -9 11 2 18 11 16 19 -2 8 -4
19 -5 24 -1 6 -10 17 -20 27 -13 12 -15 17 -5 21 8 3 5 6 -6 6 -16 1 -17 4 -8
13 9 9 8 16 -6 32 -9 11 -11 16 -4 12 12 -7 12 -4 1 15 -7 13 -12 27 -11 31 1
5 -4 7 -11 5 -6 -1 -12 7 -11 18 1 19 -4 20 -78 17 -72 -2 -80 -1 -103 22 -19
19 -25 36 -25 69 0 47 29 97 56 97 8 0 14 4 14 10 0 6 9 6 25 0 25 -9 36 2 15
15 -6 4 -8 10 -5 15 3 5 1 11 -4 15 -5 3 -14 -3 -20 -12 -6 -10 -11 -14 -11
-9 0 5 8 18 18 29 9 11 11 17 5 13 -9 -5 -13 1 -13 18 0 14 -5 28 -10 31 -6 4
-8 10 -6 14 6 9 -31 51 -44 51 -6 0 -10 18 -10 39 0 22 -5 52 -12 68 -6 15
-10 32 -9 37 1 5 -5 6 -14 2 -10 -3 -13 -2 -10 5 4 5 1 16 -5 24 -10 12 -10
19 1 32 12 15 12 16 -3 11 -22 -9 -29 1 -17 23 7 14 7 19 -3 17 -7 -2 -14 7
-16 20 -2 14 -10 22 -23 22 -13 0 -18 -5 -14 -12 4 -7 -1 -4 -9 6 -9 11 -17
26 -17 33 -2 22 -4 28 -13 42 -6 9 -5 12 1 8 6 -4 10 6 11 24 1 24 -3 29 -15
25 -13 -5 -14 -4 -3 9 10 12 10 15 -1 15 -11 0 -11 2 1 10 10 6 11 10 3 10 -7
0 -13 12 -13 26 0 19 -4 25 -14 21 -10 -4 -13 -1 -9 8 3 8 10 12 17 8 6 -3 3
3 -7 14 -9 11 -14 23 -10 26 3 4 1 7 -6 7 -7 0 -9 5 -5 12 4 6 3 8 -2 5 -6 -3
-16 3 -23 15 -7 11 -8 17 -2 14 20 -13 19 12 -2 35 -12 13 -21 25 -19 26 1 2
1 5 1 8 -1 3 -2 11 -3 18 -1 6 -9 11 -19 11 -14 -2 -15 1 -6 12 9 11 6 21 -11
46 l-22 33 5 -28 c7 -43 -48 -97 -97 -97 -55 0 -93 24 -105 66 -18 64 17 120
82 131 34 5 38 9 34 30 -4 23 -3 23 14 7 13 -12 16 -21 9 -29 -7 -8 1 -16 26
-28 34 -17 35 -17 24 3 -7 12 -16 18 -23 13 -8 -4 -8 -1 1 9 11 14 10 18 -4
26 -10 5 -15 16 -11 25 4 11 0 14 -16 10 -21 -4 -21 -4 -3 7 15 10 16 14 5 21
-8 4 -14 14 -14 21 -1 7 -7 12 -15 10 -11 -1 -9 2 3 12 18 14 17 15 -3 21 -15
5 -20 13 -17 25 9 34 -34 71 -45 39 -2 -6 -35 42 -73 107 -57 96 -72 131 -82
188 -7 39 -15 78 -17 86 -2 8 -5 20 -5 27 -1 6 -8 19 -17 27 -8 9 -13 16 -9
16 11 0 -17 42 -71 106 -31 36 -66 86 -79 112 -26 53 -48 163 -39 199 8 32 -4
76 -18 67 -7 -4 -8 -3 -4 5 4 6 2 18 -4 26 -7 8 -9 15 -4 15 5 0 0 7 -10 15
-11 8 -15 15 -9 15 11 0 55 -35 54 -44 -3 -27 2 -37 8 -16 4 14 4 27 -1 28 -4
2 -8 11 -8 21 0 9 -8 27 -17 40 -15 22 -17 23 -23 7 -6 -17 -7 -17 -20 1 -8
10 -11 15 -6 11 5 -4 14 -2 20 5 16 16 15 56 0 50 -8 -3 -11 2 -7 16 3 12 1
21 -6 21 -6 0 -11 11 -11 24 0 13 -7 29 -15 36 -8 7 -13 16 -10 20 3 4 -2 11
-10 14 -8 3 -14 9 -13 13 0 4 -4 21 -10 36 -7 16 -10 32 -7 37 3 5 0 12 -6 15
-5 4 -8 14 -5 22 3 8 2 12 -2 9 -4 -2 -14 -1 -21 4 -16 9 -5 33 12 24 7 -3 2
3 -10 14 -12 11 -19 22 -16 26 4 3 1 6 -7 6 -10 0 -10 4 1 17 10 11 10 14 2 9
-7 -4 -13 -4 -14 1 -2 29 -9 47 -19 53 -7 4 -12 11 -12 16 0 5 -5 8 -11 6 -6
-2 -6 3 2 12 9 11 9 16 0 22 -8 5 -10 3 -4 -7 7 -12 5 -12 -6 -1 -12 11 -12
14 0 21 7 5 9 10 4 12 -5 2 -16 22 -25 44 -11 26 -22 39 -32 37 -9 -2 -16 2
-16 8 0 6 5 8 11 5 19 -13 -3 69 -23 84 -11 7 -17 19 -14 27 3 8 -1 14 -10 14
-9 0 -12 -5 -8 -12 5 -7 3 -8 -6 -3 -10 6 -10 10 3 20 10 7 13 16 7 25 -5 8
-6 19 -2 25 3 5 -2 4 -11 -4 -9 -7 -17 -21 -17 -29 0 -12 -3 -13 -11 -5 -8 8
-5 17 11 33 16 16 19 24 10 30 -6 4 -11 9 -9 11 4 8 -14 54 -28 67 -8 8 -12
21 -9 29 3 7 -1 16 -8 19 -14 5 -26 36 -31 81 -4 31 -14 45 -27 37 -7 -4 -8
-2 -4 4 4 6 1 20 -6 32 -14 21 -34 29 -22 8 6 -10 4 -10 -7 0 -9 9 -58 12
-174 11 -88 -1 -168 -3 -177 -6z m367 -53 c3 -5 1 -10 -4 -10 -6 0 -11 5 -11
10 0 6 2 10 4 10 3 0 8 -4 11 -10z m30 -29 c-3 -11 -1 -22 5 -26 6 -3 8 -11 5
-16 -12 -18 -21 -9 -19 19 2 37 3 42 10 42 3 0 3 -9 -1 -19z m10 -71 c-3 -5
-1 -10 6 -10 7 0 10 -3 6 -6 -9 -9 -28 6 -22 17 4 5 8 9 11 9 3 0 2 -4 -1 -10z
m53 -97 c-12 -15 -22 -18 -14 -4 4 5 0 11 -6 14 -7 3 -3 4 9 4 17 -1 19 -4 11
-14z m62 -163 c0 -5 -5 -10 -11 -10 -5 0 -7 5 -4 10 3 6 8 10 11 10 2 0 4 -4
4 -10z m34 -65 c-4 -8 -11 -12 -16 -9 -6 4 -5 10 3 15 19 12 19 11 13 -6z m51
-85 c3 -5 1 -10 -4 -10 -6 0 -11 5 -11 10 0 6 2 10 4 10 3 0 8 -4 11 -10z m48
-141 c4 -16 3 -18 -9 -8 -7 6 -11 15 -8 20 8 13 11 11 17 -12z m7 -49 c0 -5
-2 -10 -4 -10 -3 0 -8 5 -11 10 -3 6 -1 10 4 10 6 0 11 -4 11 -10z m30 -76 c0
-8 4 -13 9 -9 5 3 12 1 16 -5 3 -5 1 -10 -5 -10 -7 0 -7 -7 1 -22 7 -14 7 -19
1 -13 -15 14 -45 88 -33 80 6 -3 11 -13 11 -21z m50 -107 c0 -4 -6 -2 -14 5
-8 7 -12 17 -9 22 5 8 23 -12 23 -27z m15 -27 c3 -6 -1 -7 -9 -4 -18 7 -21 14
-7 14 6 0 13 -4 16 -10z m10 -30 c-3 -5 -12 -10 -18 -10 -7 0 -6 4 3 10 19 12
23 12 15 0z m25 -55 c0 -8 -7 -15 -15 -15 -13 0 -14 3 -3 15 16 18 18 18 18 0z
m15 -35 c3 -5 1 -10 -4 -10 -6 0 -11 5 -11 10 0 6 2 10 4 10 3 0 8 -4 11 -10z
m492 -1165 c0 -8 -4 -15 -9 -15 -10 0 -11 14 -1 23 9 10 10 9 10 -8z m-621
-130 c56 -37 77 -110 48 -170 -23 -48 -78 -74 -156 -75 l-58 0 0 136 0 137 71
-6 c39 -3 82 -13 95 -22z m149 -5 c0 -29 -34 -40 -54 -17 -18 23 -2 49 28 45
20 -2 26 -8 26 -28z m171 -61 c19 -16 18 -26 -7 -39 -15 -8 -24 -8 -34 0 -8 7
-19 8 -26 4 -7 -4 5 -15 32 -28 35 -17 45 -27 47 -49 2 -17 -4 -37 -14 -48
-23 -25 -84 -25 -115 0 -23 19 -23 21 -7 37 14 14 21 16 30 6 13 -13 48 -16
48 -4 0 4 -18 15 -40 24 -22 9 -43 24 -46 32 -10 26 4 62 28 74 26 13 83 8
104 -9z m189 -2 l27 -22 -21 -19 c-17 -15 -24 -17 -33 -8 -30 30 -75 0 -64
-42 8 -31 27 -38 59 -21 23 12 28 11 44 -7 17 -19 17 -20 -6 -39 -34 -28 -92
-25 -130 7 -26 21 -31 33 -31 68 0 23 7 52 16 64 32 46 98 55 139 19z m-355
-82 l0 -95 -30 0 -30 0 0 95 0 95 30 0 30 0 0 -95z m670 -179 c0 -3 -4 -8 -10
-11 -5 -3 -10 -1 -10 4 0 6 5 11 10 11 6 0 10 -2 10 -4z m7 -41 c0 -8 -4 -15
-9 -15 -10 0 -11 14 -1 23 9 10 10 9 10 -8z m10 -40 c0 -8 -4 -12 -9 -9 -5 3
-6 10 -3 15 9 13 12 11 12 -6z m-92 -44 c-3 -12 -11 -21 -16 -21 -10 0 -12 43
-2 54 12 12 25 -11 18 -33z m-875 -5 c0 -20 4 -22 27 -18 35 7 53 -19 53 -75
0 -32 -4 -43 -15 -43 -11 0 -15 12 -15 46 0 41 -2 45 -22 42 -19 -2 -24 -10
-26 -45 -2 -29 -8 -43 -18 -43 -11 0 -14 17 -14 80 0 64 3 80 15 80 9 0 15 -9
15 -24z m692 -53 c3 -43 3 -80 2 -82 -2 -2 -10 -1 -19 2 -21 9 -22 157 -1 157
10 0 15 -20 18 -77z m138 -2 l0 -79 -42 0 c-26 -1 -50 6 -60 15 -41 37 -6 111
47 101 21 -4 25 -1 25 18 0 15 6 24 15 24 12 0 15 -15 15 -79z m162 61 c3 -11
0 -19 -7 -19 -7 0 -10 8 -7 19 2 10 6 18 7 18 1 0 5 -8 7 -18z m-1062 -7 c0
-8 5 -15 10 -15 6 0 10 -7 10 -15 0 -8 -4 -15 -10 -15 -17 0 -11 -57 7 -64 24
-10 0 -30 -26 -21 -16 5 -21 15 -21 44 0 20 -6 43 -12 50 -10 11 -10 14 0 18
6 3 12 11 12 19 0 8 7 14 15 14 8 0 15 -7 15 -15z m262 -32 c10 -9 18 -24 18
-35 0 -14 -8 -18 -41 -18 -27 0 -38 -4 -33 -11 3 -6 19 -9 35 -5 32 6 42 -17
13 -28 -48 -18 -84 7 -84 59 0 51 53 73 92 38z m108 -15 l13 -33 10 33 c13 43
33 41 48 -5 l13 -38 9 38 c5 21 15 37 23 37 18 0 18 -16 -2 -73 -19 -55 -37
-60 -54 -14 l-11 32 -14 -33 c-23 -52 -36 -40 -69 66 -12 36 20 27 34 -10z
m242 15 c24 -21 23 -58 -2 -83 -55 -55 -136 24 -83 82 20 22 61 23 85 1z m98
3 c0 -8 -7 -16 -15 -20 -10 -3 -15 -19 -15 -46 0 -29 -4 -40 -15 -40 -12 0
-15 13 -15 60 l0 60 30 0 c19 0 30 -5 30 -14z m319 1 c15 -19 3 -28 -28 -21
-24 5 -23 4 7 -15 35 -23 39 -46 11 -64 -21 -13 -69 0 -69 19 0 12 7 14 30 9
36 -8 40 2 5 15 -14 5 -28 17 -31 25 -14 35 49 62 75 32z m131 -207 c6 -11 7
-20 2 -20 -6 0 -12 9 -15 20 -3 11 -3 20 -1 20 2 0 8 -9 14 -20z m40 -71 c0
-4 -5 -11 -10 -14 -6 -4 -9 -1 -8 7 2 7 -2 12 -9 11 -9 -2 -10 6 -3 37 1 7 30
-32 30 -41z m-205 -39 c0 -7 -6 -15 -12 -17 -8 -3 -13 4 -13 17 0 13 5 20 13
18 6 -3 12 -11 12 -18z m244 -44 c0 -6 -3 -5 -6 2 -2 6 -10 9 -15 6 -7 -4 -8
-2 -4 4 4 7 3 12 -2 12 -6 0 -13 8 -16 17 -5 13 0 11 18 -6 15 -14 26 -29 25
-35z m-179 29 c0 -10 10 -15 30 -15 24 0 33 -6 44 -32 l14 -33 12 33 c7 17 18
32 26 32 19 0 18 -7 -14 -86 -24 -59 -32 -69 -55 -72 -19 -2 -27 1 -27 12 0 9
9 16 20 16 25 0 25 13 3 67 -23 55 -53 60 -53 8 0 -24 5 -35 15 -35 8 0 15 -7
15 -15 0 -18 -31 -20 -48 -3 -7 7 -12 29 -12 49 0 21 -6 40 -12 43 -10 5 -10
7 0 12 6 3 12 12 12 20 0 8 7 14 15 14 8 0 15 -7 15 -15z m-931 -24 c7 -5 11
-14 7 -20 -5 -7 -13 -7 -26 2 -27 16 -55 -11 -45 -43 6 -19 12 -21 41 -15 40
7 46 -10 9 -27 -36 -16 -75 12 -75 55 0 18 5 38 12 45 14 14 57 16 77 3z m123
-8 c10 -9 18 -27 18 -40 0 -28 -33 -63 -60 -63 -26 0 -60 34 -60 62 0 50 63
76 102 41z m210 3 c4 -6 8 -33 8 -59 0 -62 -23 -59 -30 4 -3 30 -10 44 -20 44
-10 0 -17 -14 -20 -44 -7 -58 -30 -68 -30 -13 0 41 -23 73 -40 56 -5 -5 -10
-27 -12 -49 -4 -58 -22 -45 -26 20 l-3 54 83 0 c49 -1 86 -6 90 -13z m208 -1
c13 -16 9 -94 -5 -98 -5 -1 -11 16 -13 38 -2 22 -7 44 -12 49 -17 17 -40 -15
-40 -56 0 -55 -23 -45 -30 13 -3 30 -10 44 -20 44 -10 0 -17 -14 -20 -44 -8
-71 -30 -65 -30 8 l0 60 79 0 c54 0 83 -5 91 -14z m62 -27 c2 -35 7 -43 23
-43 16 0 21 8 23 43 2 28 8 42 18 42 10 0 14 -14 14 -58 l0 -58 -41 0 c-49 1
-69 23 -69 78 0 56 28 52 32 -4z m206 -22 c2 -44 0 -57 -10 -54 -7 3 -15 24
-18 49 -3 24 -8 43 -12 42 -5 -2 -12 -3 -17 -3 -6 0 -11 -19 -13 -42 -2 -23
-9 -43 -15 -46 -10 -3 -13 13 -13 58 l0 61 48 -3 47 -3 3 -59z m62 4 c0 -47
-3 -60 -15 -60 -12 0 -15 13 -15 60 0 47 3 60 15 60 12 0 15 -13 15 -60z m250
-14 c0 -5 -7 -3 -15 4 -8 7 -12 17 -9 22 7 10 24 -9 24 -26z m17 -42 c-3 -3
-12 -4 -19 -1 -8 3 -5 6 6 6 11 1 17 -2 13 -5z m7 -26 c-5 -7 0 -9 14 -6 18 5
19 4 9 -13 -6 -10 -15 -19 -20 -19 -4 0 -6 4 -3 9 4 5 1 11 -6 13 -10 4 -4 28
8 28 3 0 2 -5 -2 -12z m30 -56 c3 -5 -1 -9 -9 -9 -8 0 -12 4 -9 9 3 4 7 8 9 8
2 0 6 -4 9 -8z m-1094 -47 c0 -22 -4 -25 -35 -25 l-35 0 0 -105 0 -105 -30 0
-30 0 0 105 0 105 -35 0 c-31 0 -35 3 -35 25 l0 25 100 0 100 0 0 -25z m250
-80 c0 -63 4 -105 10 -105 6 0 10 -11 10 -25 0 -21 -5 -25 -29 -25 -50 0 -61
29 -61 152 l0 108 35 0 35 0 0 -105z m540 60 c0 -18 5 -25 20 -25 15 0 20 -7
20 -25 0 -18 -5 -25 -20 -25 -17 0 -20 -7 -20 -46 0 -41 2 -45 20 -39 17 5 20
2 20 -24 0 -29 -2 -31 -39 -31 -51 0 -71 26 -71 92 0 27 -4 48 -10 48 -5 0
-10 11 -10 25 0 14 5 25 10 25 6 0 10 11 10 25 0 22 4 25 35 25 31 0 35 -3 35
-25z m-691 -26 c40 -14 51 -41 51 -124 l0 -64 -67 0 c-75 0 -103 15 -103 55 0
27 29 49 78 59 18 4 30 11 26 16 -7 12 -48 11 -60 -1 -7 -7 -16 -4 -28 9 -18
19 -17 21 15 40 39 24 45 25 88 10z m344 -18 c10 -9 20 -34 24 -54 l6 -37 -62
0 c-33 0 -61 -4 -61 -10 0 -15 46 -23 68 -11 13 7 22 7 30 -1 31 -31 -2 -58
-68 -58 -104 0 -139 138 -46 184 36 18 82 13 109 -13z m220 2 c13 -13 17 -33
17 -95 l0 -78 -30 0 c-29 0 -29 0 -32 67 -3 57 -6 68 -22 71 -27 5 -36 -15
-36 -80 0 -58 0 -58 -30 -58 l-30 0 0 95 0 96 40 -3 c22 -1 43 1 47 6 10 10
54 -2 76 -21z m316 12 c30 -15 54 -65 45 -90 -5 -11 -23 -15 -66 -15 -54 0
-59 -2 -47 -16 12 -15 34 -15 71 0 11 5 20 1 28 -15 17 -31 -9 -49 -72 -49
-66 0 -98 30 -98 92 0 86 67 131 139 93z m251 -226 c0 -6 -4 -7 -10 -4 -5 3
-10 11 -10 16 0 6 5 7 10 4 6 -3 10 -11 10 -16z m27 -35 c-3 -3 -12 -4 -19 -1
-8 3 -5 6 6 6 11 1 17 -2 13 -5z m28 -37 c5 5 3 0 -4 -9 -11 -15 -11 -22 4
-45 14 -22 14 -25 2 -13 -9 8 -24 33 -33 55 -16 39 -16 40 3 22 11 -9 24 -14
28 -10z m-575 -156 l0 -78 -45 -1 c-35 -1 -48 3 -60 21 -21 29 -19 53 6 78 14
14 29 19 45 16 20 -3 24 0 24 19 0 15 6 24 15 24 12 0 15 -15 15 -79z m-282
27 c7 -7 12 -33 12 -59 l0 -47 -42 2 c-39 1 -43 4 -46 29 -3 23 1 28 27 33 17
4 31 11 31 16 0 6 -11 8 -25 6 -29 -6 -45 10 -24 23 20 12 53 11 67 -3z m130
0 c14 -12 17 -108 3 -108 -6 0 -11 19 -13 43 -2 34 -7 42 -23 42 -16 0 -21 -8
-23 -42 -2 -29 -8 -43 -18 -43 -11 0 -14 14 -14 59 l0 59 38 0 c20 0 43 -5 50
-10z m826 -164 c3 -8 2 -12 -4 -9 -6 3 -10 10 -10 16 0 14 7 11 14 -7z m36
-79 c7 -9 8 -15 2 -15 -5 0 -12 7 -16 15 -3 8 -4 15 -2 15 2 0 9 -7 16 -15z
m20 -58 c0 -4 -6 -2 -14 5 -8 7 -12 17 -9 22 5 8 23 -12 23 -27z m-1700 -30
c0 -20 4 -23 29 -19 21 3 33 -2 45 -19 35 -51 3 -100 -61 -95 l-38 4 -3 76
c-2 63 0 76 13 76 9 0 15 -9 15 -23z m368 12 c-2 -6 -8 -10 -13 -10 -5 0 -11
4 -13 10 -2 6 4 11 13 11 9 0 15 -5 13 -11z m-236 -71 c2 -36 7 -44 26 -46 20
-3 22 1 22 42 0 34 4 46 15 46 12 0 15 -13 15 -59 l0 -59 -38 2 c-54 3 -62 11
-62 67 0 60 18 66 22 7z m176 23 c3 -10 0 -12 -13 -8 -32 13 -37 -5 -6 -24 37
-22 40 -45 7 -60 -17 -8 -29 -8 -45 0 -28 15 -17 33 15 25 14 -4 24 -2 24 5 0
6 -6 11 -14 11 -8 0 -22 7 -30 16 -23 23 -3 56 31 52 15 -2 29 -9 31 -17z m60
-38 c-4 -81 -28 -85 -28 -4 0 48 3 61 15 61 13 0 15 -11 13 -57z m121 43 c14
-17 11 -101 -4 -101 -5 0 -11 18 -13 40 -2 22 -7 44 -12 49 -17 17 -40 -15
-40 -55 0 -22 -4 -39 -10 -39 -6 0 -10 26 -10 58 l0 59 39 1 c23 1 44 -4 50
-12z m125 -2 c9 -8 16 -24 16 -35 0 -16 -7 -19 -41 -19 -25 0 -38 -4 -34 -11
4 -5 19 -9 33 -7 36 4 42 -15 10 -26 -36 -13 -78 15 -78 51 0 53 59 83 94 47z
m110 0 c5 -13 1 -15 -19 -12 -37 7 -40 -8 -5 -21 33 -11 40 -40 14 -61 -11
-10 -23 -11 -42 -4 -33 11 -27 30 8 26 24 -2 24 -2 6 13 -11 8 -23 15 -28 15
-10 0 -11 44 -1 53 13 14 61 7 67 -9z m100 0 c5 -13 1 -15 -19 -12 -37 7 -40
-8 -5 -21 32 -11 40 -37 18 -59 -16 -16 -53 -15 -67 1 -15 19 -3 28 28 21 25
-5 25 -5 6 10 -44 34 -46 36 -35 56 13 25 65 27 74 4z m174 4 c22 -22 15 -76
-13 -94 -61 -40 -119 34 -72 94 12 15 69 16 85 0z m59 -20 l10 -33 13 33 c6
17 18 32 25 32 7 0 19 -15 25 -32 l13 -33 10 33 c12 40 43 45 32 5 -11 -46
-33 -93 -44 -93 -5 0 -15 17 -22 38 l-12 37 -12 -35 c-20 -60 -36 -47 -69 58
-5 16 -3 22 7 22 8 0 19 -15 24 -32z m240 21 c19 -17 18 -109 -2 -109 -11 0
-15 12 -15 44 0 28 -5 46 -14 49 -22 9 -36 -14 -36 -56 0 -26 -4 -37 -12 -35
-13 5 -23 80 -15 102 6 16 76 19 94 5z m131 -1 c7 -7 12 -22 12 -35 0 -20 -5
-23 -41 -23 -27 0 -38 -4 -33 -11 3 -6 19 -9 34 -5 15 3 30 2 34 -1 11 -11
-16 -33 -42 -33 -51 0 -78 52 -52 101 12 22 68 27 88 7z m102 2 c0 -5 -9 -14
-20 -20 -15 -8 -20 -21 -20 -50 0 -29 -4 -40 -15 -40 -12 0 -15 13 -15 60 l0
60 35 0 c19 0 35 -4 35 -10z m79 -4 c16 -19 -4 -32 -24 -16 -8 7 -16 7 -19 1
-3 -5 8 -14 24 -20 32 -11 40 -37 18 -59 -23 -23 -78 -8 -78 21 0 5 14 6 30 2
36 -8 40 2 5 15 -14 5 -28 17 -31 25 -14 36 50 62 75 31z m178 -112 c-3 -3
-12 -4 -19 -1 -8 3 -5 6 6 6 11 1 17 -2 13 -5z m50 -136 c2 -27 -11 -29 -23
-3 -10 20 -9 23 5 22 10 0 18 -9 18 -19z m58 -147 c-6 -5 -25 10 -25 20 0 5 6
4 14 -3 8 -7 12 -15 11 -17z m22 -33 c-3 -8 -6 -5 -6 6 -1 11 2 17 5 13 3 -3
4 -12 1 -19z m28 -88 c3 -5 1 -10 -4 -10 -6 0 -11 5 -11 10 0 6 2 10 4 10 3 0
8 -4 11 -10z m6 -43 c-10 -9 -11 -8 -5 6 3 10 9 15 12 12 3 -3 0 -11 -7 -18z
m70 -134 c13 -16 12 -17 -3 -4 -10 7 -18 15 -18 17 0 8 8 3 21 -13z"/>
<path d="M590 4315 l0 -75 30 0 c67 0 96 88 44 129 -15 12 -37 21 -50 21 -23
0 -24 -3 -24 -75z"/>
<path d="M1314 3905 c-9 -23 3 -45 25 -45 21 0 33 22 25 45 -4 8 -15 15 -25
15 -11 0 -22 -7 -25 -15z"/>
<path d="M708 3913 c6 -2 18 -2 25 0 6 3 1 5 -13 5 -14 0 -19 -2 -12 -5z"/>
<path d="M1044 3906 c-10 -26 4 -48 28 -44 17 2 23 10 23 28 0 18 -6 26 -23
28 -13 2 -25 -3 -28 -12z"/>
<path d="M690 3555 c-19 -23 -8 -50 20 -50 16 0 26 6 28 18 4 18 -14 47 -28
47 -4 0 -13 -7 -20 -15z"/>
<path d="M761 3181 c-7 -5 -10 -14 -7 -20 8 -13 46 3 46 19 0 12 -20 13 -39 1z"/>
<path d="M1060 3240 c0 -5 14 -10 31 -10 17 0 28 4 24 10 -3 6 -17 10 -31 10
-13 0 -24 -4 -24 -10z"/>
<path d="M1615 3240 c-4 -6 7 -10 25 -10 18 0 29 4 25 10 -3 6 -15 10 -25 10
-10 0 -22 -4 -25 -10z"/>
<path d="M1335 2830 c-8 -26 6 -43 31 -38 13 2 19 12 19 28 0 34 -40 41 -50
10z"/>
<path d="M1085 2801 c-10 -18 17 -23 33 -7 15 15 15 16 -5 16 -12 0 -24 -4
-28 -9z"/>
<path d="M460 2485 c-19 -23 -8 -50 20 -50 16 0 26 6 28 18 4 18 -14 47 -28
47 -4 0 -13 -7 -20 -15z"/>
<path d="M1010 2490 c-12 -8 -9 -10 13 -10 16 0 26 4 22 10 -8 12 -16 12 -35
0z"/>
<path d="M1376 2473 c-8 -21 17 -48 38 -40 9 4 16 18 16 32 0 20 -5 25 -24 25
-13 0 -27 -8 -30 -17z"/>
<path d="M1819 2489 c-10 -6 -7 -9 14 -9 29 0 35 5 14 13 -8 3 -20 1 -28 -4z"/>
<path d="M934 5433 c3 -90 6 -105 36 -162 18 -34 48 -74 65 -90 18 -15 34 -32
36 -37 15 -33 53 -84 62 -84 8 0 8 3 2 8 -17 12 -36 52 -30 62 4 6 1 10 -5 10
-6 0 -8 5 -5 10 4 6 1 9 -7 8 -8 -2 -12 5 -10 20 2 12 -2 22 -7 22 -6 0 -11 5
-11 12 0 24 -42 98 -52 92 -7 -5 -4 -12 7 -21 11 -7 13 -13 6 -13 -7 0 -10 -4
-6 -9 3 -5 1 -13 -5 -16 -6 -4 -10 -3 -9 2 1 4 0 10 -1 13 -9 24 -6 46 8 56
14 10 14 16 5 35 -7 13 -14 31 -15 39 -2 8 -13 30 -26 48 -13 18 -25 44 -26
57 -2 14 -6 28 -9 32 -4 3 -5 -39 -3 -94z m48 -28 c2 3 5 -2 5 -10 0 -13 -2
-13 -17 0 -9 8 -20 12 -25 8 -4 -5 -5 -2 -1 5 6 9 11 10 20 3 7 -6 15 -9 18
-6z m-2 -54 c7 -15 7 -22 -2 -27 -7 -4 -10 -4 -6 1 4 4 3 16 -3 26 -5 11 -7
19 -5 19 3 0 10 -9 16 -19z m70 -162 c0 -6 -4 -7 -10 -4 -5 3 -10 11 -10 16 0
6 5 7 10 4 6 -3 10 -11 10 -16z"/>
<path d="M1130 5042 c0 -6 5 -14 10 -17 6 -4 7 -11 4 -17 -4 -7 -2 -8 5 -4 9
6 9 12 -1 24 -7 10 -14 19 -15 21 -2 2 -3 -1 -3 -7z"/>
<path d="M1150 4975 c0 -9 6 -12 15 -9 8 4 15 7 15 9 0 2 -7 5 -15 9 -9 3 -15
0 -15 -9z"/>
<path d="M1160 4920 c0 -5 6 -10 14 -10 8 0 18 5 21 10 3 6 -3 10 -14 10 -12
0 -21 -4 -21 -10z"/>
<path d="M1185 4871 c-3 -6 4 -9 15 -8 11 1 20 5 20 9 0 11 -28 10 -35 -1z"/>
<path d="M1196 4815 c-3 -8 0 -17 6 -21 7 -5 8 -2 3 6 -5 9 -4 11 4 6 6 -4 9
-11 6 -16 -9 -14 25 -60 44 -59 13 1 12 2 -2 6 -18 5 -18 5 0 25 18 21 18 21
-7 8 -23 -12 -24 -12 -12 3 8 9 11 24 8 34 -7 22 -42 27 -50 8z"/>
<path d="M1312 4308 c-18 -18 -15 -56 6 -66 22 -12 39 -5 52 19 22 39 -27 78
-58 47z"/>
<path d="M1620 3814 c0 -9 7 -14 17 -12 25 5 28 28 4 28 -12 0 -21 -6 -21 -16z"/>
<path d="M1819 3234 c-14 -17 -4 -60 16 -68 24 -9 47 5 42 25 -3 11 -1 17 4
13 12 -7 11 7 -1 26 -12 19 -46 21 -61 4z"/>
<path d="M2257 2333 c-13 -12 -7 -22 11 -20 10 0 19 7 19 14 0 14 -19 18 -30
6z"/>
<path d="M2485 1760 c3 -5 8 -10 11 -10 2 0 4 5 4 10 0 6 -5 10 -11 10 -5 0
-7 -4 -4 -10z"/>
</g>
</svg>
