<svg width="123" height="193" viewBox="0 0 123 193" fill="none" xmlns="http://www.w3.org/2000/svg">
<path d="M118.679 42.8306C118.642 42.7314 118.617 42.6199 118.58 42.5207C118.307 41.776 118.035 41.0437 117.761 40.3114C117.748 40.2866 117.736 40.2494 117.724 40.2246" stroke="white" stroke-width="3.37996" stroke-miterlimit="10" stroke-linecap="round"/>
<path d="M99.978 15.6795C99.6351 15.373 99.2743 15.0871 98.8975 14.8233C86.9285 5.40334 71.8192 0.8994 56.646 2.22851C41.4727 3.55762 27.3765 10.6199 17.2275 21.9772C7.07841 33.3346 1.63964 48.1332 2.01855 63.3598C2.39745 78.5864 8.56553 93.0961 19.2669 103.935C32.5276 117.098 40.0583 134.963 40.2227 153.647V154.548C40.2226 155.489 40.4726 156.412 40.9471 157.224L60.3367 190.369C60.4478 190.559 60.6064 190.717 60.7969 190.828C60.9874 190.939 61.2033 190.998 61.4236 191C61.6438 191.002 61.8608 190.947 62.0535 190.84C62.2461 190.733 62.4076 190.578 62.5224 190.391L82.7582 157.255C83.2659 156.423 83.5346 155.467 83.5345 154.492C83.419 137.41 89.5137 120.868 100.684 107.944" stroke="white" stroke-width="3.37996" stroke-miterlimit="10" stroke-linecap="round"/>
<path d="M81.3319 37.5999C84.3943 37.6671 87.3086 38.9308 89.4507 41.1203C91.5928 43.3099 92.7922 46.2512 92.7922 49.3143C92.7922 52.3774 91.5928 55.3187 89.4507 57.5083C87.3086 59.6978 84.3943 60.9615 81.3319 61.0287H41.0541C38.7316 61.0287 36.4611 60.34 34.53 59.0496C32.5989 57.7593 31.0937 55.9252 30.2049 53.7795C29.3161 51.6337 29.0836 49.2726 29.5367 46.9946C29.9898 44.7167 31.1082 42.6243 32.7505 40.9819C34.3928 39.3396 36.4853 38.2212 38.7632 37.7681C41.0411 37.315 43.4022 37.5476 45.548 38.4364C47.6938 39.3252 49.5278 40.8303 50.8182 42.7615C52.1085 44.6926 52.7973 46.963 52.7973 49.2856V139.192" stroke="white" stroke-width="3.37996" stroke-miterlimit="10" stroke-linecap="round"/>
<path d="M70.9614 40.6963V139.188" stroke="white" stroke-width="3.37996" stroke-miterlimit="10" stroke-linecap="round"/>
<path d="M86.2304 70.7505C91.9514 71.2663 97.2525 73.9702 101.029 78.2985C104.805 82.6268 106.766 88.2456 106.501 93.9837C106.236 99.7217 103.768 105.136 99.609 109.099C95.4504 113.061 89.9229 115.266 84.1787 115.253" stroke="white" stroke-width="3.37996" stroke-miterlimit="10" stroke-linecap="round"/>
<path d="M111.74 48.4707C114.975 51.6671 117.444 55.5554 118.961 59.8433C120.477 64.1311 121.001 68.707 120.495 73.2268C119.988 77.7466 118.463 82.0927 116.035 85.9383C113.607 89.7839 110.338 93.029 106.475 95.4295" stroke="white" stroke-width="3.37996" stroke-miterlimit="10" stroke-linecap="round"/>
<path d="M92.8491 23.7954C97.0849 23.7991 101.261 24.7971 105.04 26.7091C108.82 28.6212 112.098 31.3938 114.611 34.8039C117.123 38.214 118.8 42.1664 119.507 46.3429C120.213 50.5193 119.929 54.8034 118.678 58.8501" stroke="white" stroke-width="3.37996" stroke-miterlimit="10" stroke-linecap="round"/>
<path d="M107.065 27.8317C106.395 24.3004 104.834 20.9988 102.531 18.2401C100.227 15.4814 97.2564 13.3571 93.901 12.0688C90.5457 10.7804 86.9168 10.3708 83.3588 10.8787C79.8007 11.3866 76.4314 12.7952 73.5706 14.9709L72.792 15.5534" stroke="white" stroke-width="3.37996" stroke-miterlimit="10" stroke-linecap="round"/>
<path d="M83.7093 103.636C83.3671 101.843 83.474 99.993 84.0204 98.2512C84.5669 96.5093 85.5359 94.9298 86.841 93.6534C88.1462 92.3771 89.7469 91.4435 91.5005 90.936C93.2541 90.4286 95.106 90.3629 96.8911 90.745" stroke="white" stroke-width="3.37996" stroke-miterlimit="10" stroke-linecap="round"/>
<path d="M78.3066 83.7373C80.6529 84.0341 82.8424 85.0747 84.5542 86.7064C86.266 88.3382 87.4101 90.4753 87.819 92.8046" stroke="white" stroke-width="3.37996" stroke-miterlimit="10" stroke-linecap="round"/>
<path d="M100.083 77.0684C99.8213 75.6608 99.8901 74.2117 100.284 72.8352C100.678 71.4587 101.386 70.1925 102.352 69.1362C103.318 68.0799 104.517 67.2624 105.853 66.7481C107.189 66.2338 108.626 66.0368 110.052 66.1725" stroke="white" stroke-width="3.37996" stroke-miterlimit="10" stroke-linecap="round"/>
<path d="M92.7627 46.7381C93.899 45.3973 95.3941 44.4086 97.0726 43.8877C98.7511 43.3669 100.543 43.3356 102.239 43.7975" stroke="white" stroke-width="3.37996" stroke-miterlimit="10" stroke-linecap="round"/>
<path d="M99.9731 26.0117C100.227 27.2447 100.227 28.5165 99.973 29.7494C99.719 30.9823 99.2165 32.1506 98.4961 33.1829" stroke="white" stroke-width="3.37996" stroke-miterlimit="10" stroke-linecap="round"/>
<path d="M52.5947 174.952H70.9941L63.6585 188.052C63.4335 188.454 63.1036 188.787 62.7041 189.015C62.3045 189.244 61.8504 189.359 61.3902 189.35C60.9301 189.34 60.4812 189.205 60.0917 188.96C59.7021 188.715 59.3866 188.368 59.1789 187.958L52.5947 174.952Z" fill="white" stroke="white" stroke-width="1.12665" stroke-miterlimit="10"/>
<path d="M84.1801 139.456H39.4092" stroke="white" stroke-width="3.37996" stroke-miterlimit="10" stroke-linecap="round"/>
<path d="M83.5121 147.455H40.3433" stroke="white" stroke-width="3.37996" stroke-miterlimit="10" stroke-linecap="round"/>
<path d="M82.8317 155.428H41.0239" stroke="white" stroke-width="3.37996" stroke-miterlimit="10" stroke-linecap="round"/>
</svg>
