<svg width="109" height="172" viewBox="0 0 109 172" fill="none" xmlns="http://www.w3.org/2000/svg">
<path d="M105.605 38.4868C105.572 38.3988 105.55 38.2998 105.517 38.2118C105.275 37.5508 105.033 36.9008 104.79 36.2508C104.779 36.2288 104.768 36.1958 104.757 36.1738" stroke="white" stroke-width="3" stroke-miterlimit="10" stroke-linecap="round"/>
<path d="M89.0058 14.3879C88.7015 14.1158 88.3813 13.862 88.0469 13.6278C77.4233 5.26685 64.0125 1.26922 50.545 2.44892C37.0774 3.62862 24.5658 9.89696 15.5577 19.9776C6.54952 30.0583 1.72214 43.1932 2.05845 56.7082C2.39476 70.2231 7.86946 83.1017 17.3678 92.7218C29.1379 104.406 35.822 120.262 35.9679 136.846V137.646C35.9678 138.481 36.1898 139.3 36.6109 140.021L53.8208 169.44C53.9195 169.609 54.0602 169.749 54.2293 169.847C54.3984 169.945 54.59 169.998 54.7855 170C54.981 170.002 55.1736 169.953 55.3446 169.858C55.5155 169.763 55.6589 169.626 55.7608 169.459L73.7218 140.048C74.1725 139.309 74.4109 138.461 74.4109 137.596C74.3083 122.434 79.7179 107.752 89.6329 96.2808" stroke="white" stroke-width="3" stroke-miterlimit="10" stroke-linecap="round"/>
<path d="M72.4557 33.844C75.1738 33.9036 77.7606 35.0252 79.6618 36.9686C81.5631 38.912 82.6277 41.5227 82.6277 44.2415C82.6277 46.9602 81.5631 49.5709 79.6618 51.5143C77.7606 53.4577 75.1738 54.5794 72.4557 54.639H36.7057C34.6442 54.639 32.6291 54.0277 30.915 52.8824C29.2009 51.7371 27.865 50.1092 27.0761 48.2047C26.2872 46.3001 26.0808 44.2044 26.483 42.1826C26.8852 40.1607 27.8778 38.3035 29.3355 36.8458C30.7932 35.3881 32.6505 34.3954 34.6723 33.9933C36.6942 33.5911 38.7899 33.7975 40.6944 34.5864C42.599 35.3753 44.2269 36.7112 45.3722 38.4253C46.5174 40.1393 47.1287 42.1545 47.1287 44.216V124.016" stroke="white" stroke-width="3" stroke-miterlimit="10" stroke-linecap="round"/>
<path d="M63.251 36.5928V124.013" stroke="white" stroke-width="3" stroke-miterlimit="10" stroke-linecap="round"/>
<path d="M76.804 63.2681C81.8818 63.7259 86.587 66.1258 89.9389 69.9676C93.2908 73.8093 95.0306 78.7965 94.7958 83.8895C94.561 88.9825 92.3697 93.7885 88.6786 97.3055C84.9875 100.823 80.0813 102.779 74.9829 102.768" stroke="white" stroke-width="3" stroke-miterlimit="10" stroke-linecap="round"/>
<path d="M99.4459 43.4927C102.318 46.3297 104.509 49.7809 105.855 53.5868C107.201 57.3927 107.666 61.4541 107.217 65.4659C106.767 69.4776 105.413 73.3351 103.258 76.7484C101.103 80.1617 98.2017 83.042 94.7729 85.1727" stroke="white" stroke-width="3" stroke-miterlimit="10" stroke-linecap="round"/>
<path d="M82.6787 21.5918C86.4383 21.5951 90.1447 22.4809 93.4995 24.178C96.8543 25.8751 99.7639 28.336 101.994 31.3628C104.224 34.3896 105.713 37.8976 106.34 41.6046C106.966 45.3116 106.714 49.114 105.604 52.7058" stroke="white" stroke-width="3" stroke-miterlimit="10" stroke-linecap="round"/>
<path d="M95.296 25.1741C94.7017 22.0398 93.3164 19.1093 91.2716 16.6607C89.2268 14.2122 86.5902 12.3267 83.6121 11.1832C80.6339 10.0397 77.413 9.67605 74.2549 10.1269C71.0968 10.5777 68.1063 11.828 65.567 13.7591L64.876 14.2761" stroke="white" stroke-width="3" stroke-miterlimit="10" stroke-linecap="round"/>
<path d="M74.5661 92.4568C74.2624 90.8652 74.3573 89.2232 74.8423 87.6772C75.3273 86.1312 76.1874 84.7292 77.3458 83.5963C78.5043 82.4634 79.9251 81.6348 81.4815 81.1844C83.038 80.734 84.6817 80.6757 86.2661 81.0148" stroke="white" stroke-width="3" stroke-miterlimit="10" stroke-linecap="round"/>
<path d="M69.771 74.7949C71.8535 75.0584 73.7968 75.982 75.3162 77.4303C76.8356 78.8786 77.8511 80.7755 78.214 82.8429" stroke="white" stroke-width="3" stroke-miterlimit="10" stroke-linecap="round"/>
<path d="M89.0996 68.8759C88.8674 67.6266 88.9285 66.3404 89.2779 65.1186C89.6274 63.8969 90.2558 62.773 91.1136 61.8354C91.9713 60.8979 93.0351 60.1723 94.221 59.7158C95.4069 59.2593 96.6826 59.0845 97.9477 59.2049" stroke="white" stroke-width="3" stroke-miterlimit="10" stroke-linecap="round"/>
<path d="M82.6021 41.955C83.6106 40.765 84.9376 39.8873 86.4274 39.425C87.9172 38.9627 89.508 38.935 91.0131 39.345" stroke="white" stroke-width="3" stroke-miterlimit="10" stroke-linecap="round"/>
<path d="M89.0019 23.5586C89.2272 24.653 89.2272 25.7818 89.0018 26.8761C88.7764 27.9704 88.3304 29.0074 87.6909 29.9236" stroke="white" stroke-width="3" stroke-miterlimit="10" stroke-linecap="round"/>
</svg>
