<svg width="184" height="33" viewBox="0 0 184 33" fill="none" xmlns="http://www.w3.org/2000/svg">
<path d="M69.7742 26.9498C68.3481 26.965 66.9342 26.773 65.6307 26.387C64.3272 26.001 63.1654 25.4304 62.2262 24.7148C60.1474 23.1597 59.0501 21.1294 59.1632 19.0478C59.0577 16.9737 60.146 14.9512 62.2052 13.3948C63.1565 12.6688 64.3355 12.0911 65.6587 11.7025C66.982 11.3138 68.4172 11.1238 69.8627 11.1458C71.2413 11.1443 72.6013 11.3573 73.8347 11.7678C75.0107 12.1356 76.0153 12.7089 76.7417 13.4268V5.58081H82.5137V26.5948H77.0987V24.4338C76.3685 25.2519 75.2744 25.8981 73.9682 26.2828C72.6608 26.7118 71.2254 26.9394 69.7682 26.9488M70.9682 14.5778C70.1696 14.5715 69.3781 14.6792 68.647 14.8936C67.9159 15.108 67.262 15.4241 66.7292 15.8208C65.534 16.6914 64.9032 17.8416 64.9742 19.0208C64.9023 20.2124 65.5322 21.3756 66.7292 22.2618C67.2669 22.6567 67.9221 22.9724 68.653 23.189C69.384 23.4056 70.1746 23.5181 70.9745 23.5196C71.7744 23.521 72.5659 23.4112 73.2986 23.1972C74.0313 22.9832 74.689 22.6698 75.2297 22.2768C76.4208 21.3832 77.0423 20.2151 76.9622 19.0208C77.0399 17.84 76.4176 16.6862 75.2297 15.8088C74.6915 15.4136 74.0329 15.0996 73.298 14.8879C72.5631 14.6761 71.7688 14.5714 70.9682 14.5808" fill="white"/>
<path d="M89.0299 24.713C87.9035 23.9844 87.0161 23.108 86.4238 22.1391C85.8315 21.1702 85.5472 20.1299 85.5889 19.084C85.5462 18.0427 85.8148 17.0061 86.379 16.0347C86.9432 15.0633 87.7918 14.1765 88.8754 13.426C89.941 12.6782 91.2309 12.0883 92.6611 11.6948C94.0913 11.3013 95.6298 11.1129 97.1764 11.142C98.5939 11.1035 100.008 11.2585 101.333 11.5975C102.657 11.9364 103.864 12.4521 104.879 13.113C105.858 13.7717 106.625 14.5568 107.133 15.4202C107.64 16.2836 107.878 17.2071 107.831 18.134C107.813 18.7627 107.693 19.3883 107.474 20H91.5829C91.6339 20.5213 91.8526 21.0291 92.224 21.4891C92.5954 21.9491 93.1108 22.3505 93.7354 22.666C95.0355 23.3068 96.619 23.6403 98.2354 23.614C99.3506 23.6338 100.459 23.4933 101.486 23.2021C102.512 22.9108 103.433 22.4756 104.184 21.926L107.381 24.473C106.137 25.2822 104.665 25.9188 103.049 26.3461C101.434 26.7733 99.7075 26.9827 97.9699 26.962C96.3284 27.0065 94.6902 26.8302 93.1532 26.4434C91.6162 26.0567 90.2118 25.4675 89.0239 24.711M97.1239 14.373C95.7836 14.3483 94.4726 14.6366 93.4174 15.188C92.3934 15.734 91.732 16.5261 91.5754 17.394H102.186V17.365C102.153 16.9491 101.994 16.542 101.719 16.168C101.445 15.7939 101.06 15.4606 100.587 15.188C99.6241 14.6405 98.3893 14.3501 97.1239 14.373Z" fill="white"/>
<path d="M108.966 23.5569L112.866 21.6319C113.392 22.2897 114.17 22.8422 115.122 23.2325C116.074 23.6229 117.165 23.8371 118.283 23.8529C119.151 23.8824 120.016 23.76 120.791 23.4979C121.06 23.4121 121.288 23.2779 121.449 23.1104C121.61 22.9429 121.698 22.7489 121.703 22.5499C121.702 22.325 121.612 22.1042 121.439 21.9108C121.267 21.7173 121.021 21.5581 120.725 21.4499C119.483 21.0067 118.176 20.6492 116.825 20.3829C114.855 20.0152 113.025 19.3746 111.452 18.5029C110.875 18.1362 110.422 17.6915 110.123 17.1986C109.825 16.7057 109.687 16.176 109.721 15.6449C109.714 15.0114 109.939 14.3863 110.376 13.8236C110.813 13.261 111.449 12.7779 112.229 12.4159C113.849 11.6723 115.742 11.2367 117.705 11.1558C119.668 11.075 121.627 11.3519 123.372 11.9569C124.765 12.4547 125.911 13.2109 126.672 14.1339L122.823 16.0039C122.395 15.4604 121.75 15.0065 120.958 14.6928C120.167 14.3791 119.261 14.2178 118.34 14.2269C117.538 14.2069 116.744 14.3405 116.052 14.6119C115.779 14.7101 115.551 14.8553 115.39 15.0324C115.23 15.2096 115.144 15.4121 115.142 15.6189C115.163 15.8264 115.267 16.0264 115.442 16.1982C115.618 16.3701 115.859 16.5077 116.141 16.5969C117.325 17.0269 118.566 17.3837 119.847 17.6629C121.831 18.1048 123.696 18.7546 125.373 19.5879C125.974 19.9462 126.445 20.3913 126.749 20.8892C127.053 21.3871 127.182 21.9247 127.127 22.4609C127.131 23.0888 126.909 23.7082 126.481 24.2673C126.052 24.8264 125.429 25.3091 124.664 25.6749C122.822 26.576 120.574 27.0308 118.292 26.9639C116.351 26.9815 114.434 26.6719 112.721 26.0639C111.116 25.5067 109.807 24.6339 108.971 23.5639" fill="white"/>
<path d="M130.559 8.67386C130.249 8.47242 130.004 8.23064 129.839 7.96349C129.675 7.69635 129.595 7.40954 129.603 7.12086C129.593 6.83399 129.673 6.54887 129.838 6.28371C130.002 6.01855 130.248 5.77917 130.559 5.58086C131.2 5.18201 132.045 4.96021 132.922 4.96021C133.799 4.96021 134.644 5.18201 135.285 5.58086C135.602 5.77712 135.852 6.0158 136.021 6.28121C136.189 6.54663 136.271 6.83277 136.262 7.12086C136.27 7.41074 136.187 7.69857 136.019 7.96597C135.851 8.23336 135.601 8.47445 135.285 8.67386C134.651 9.08219 133.804 9.31041 132.922 9.31041C132.04 9.31041 131.193 9.08219 130.559 8.67386ZM130.092 11.4999H135.864V26.5939H130.092V11.4999Z" fill="white"/>
<path d="M138.479 28.738C138.479 27.3966 139.693 26.3706 142.121 25.66C141.597 25.4203 141.171 25.0969 140.883 24.7194C140.595 24.342 140.453 23.9224 140.471 23.499C140.471 22.9722 140.636 22.4513 140.955 21.9693C141.273 21.4872 141.739 21.0547 142.322 20.699C141.387 20.2478 140.62 19.6605 140.077 18.9819C139.534 18.3033 139.23 17.5511 139.189 16.7825C139.147 16.0139 139.369 15.2491 139.837 14.5462C140.305 13.8433 141.008 13.2208 141.891 12.726C143.726 11.6724 146.085 11.1129 148.506 11.157C149.579 11.155 150.644 11.2754 151.656 11.513H162.93V14.472H157.08C157.609 15.1155 157.883 15.8382 157.878 16.572C157.891 17.3136 157.652 18.0476 157.179 18.7189C156.706 19.3903 156.012 19.9817 155.148 20.449C153.288 21.5045 150.908 22.0634 148.467 22.018C147.887 22.0183 147.309 21.9883 146.736 21.928C145.995 22.1846 145.625 22.5006 145.626 22.876C145.622 23.006 145.669 23.1346 145.762 23.2488C145.855 23.3631 145.992 23.459 146.159 23.527C146.528 23.6874 146.961 23.7697 147.402 23.763H153.09C155.113 23.7 157.102 24.1313 158.682 24.976C159.435 25.3928 160.02 25.9276 160.387 26.5325C160.753 27.1373 160.888 27.7934 160.78 28.4417C160.673 29.09 160.325 29.7104 159.769 30.2471C159.213 30.7838 158.466 31.2202 157.595 31.517C155.096 32.3698 152.341 32.8341 149.535 32.875C146.729 32.9158 143.946 32.5322 141.395 31.753C140.535 31.4815 139.807 31.0548 139.293 30.5213C138.779 29.9879 138.499 29.369 138.486 28.735M144.125 28.235C144.125 28.7276 144.598 29.1173 145.544 29.404C146.728 29.7192 147.999 29.8653 149.274 29.833C150.761 29.8781 152.247 29.7272 153.647 29.389C154.669 29.0936 155.179 28.6893 155.178 28.176C155.185 27.9713 155.111 27.769 154.963 27.5896C154.815 27.4102 154.598 27.2603 154.335 27.155C153.71 26.8964 152.984 26.7676 152.249 26.785H145.949C144.735 27.1183 144.128 27.6016 144.129 28.235M145.617 14.828C145.241 15.0439 144.941 15.3122 144.737 15.6138C144.533 15.9155 144.431 16.2432 144.438 16.574C144.433 16.9068 144.535 17.2364 144.739 17.5404C144.942 17.8443 145.242 18.1153 145.617 18.335C146.407 18.8207 147.45 19.0813 148.524 19.061C149.604 19.0792 150.653 18.8192 151.454 18.335C151.834 18.1175 152.139 17.8472 152.346 17.543C152.553 17.2388 152.658 16.9081 152.654 16.574C152.659 16.2419 152.555 15.9131 152.347 15.6112C152.14 15.3093 151.835 15.0418 151.454 14.828C150.647 14.3528 149.6 14.0991 148.524 14.118C147.454 14.0972 146.413 14.3514 145.617 14.828Z" fill="white"/>
<path d="M162.441 26.6078V11.5008H164.883C165.292 11.5009 165.696 11.5547 166.073 11.659C166.45 11.7633 166.793 11.9161 167.082 12.1087C167.37 12.3013 167.599 12.5299 167.755 12.7814C167.911 13.033 167.992 13.3026 167.991 13.5748C168.708 12.7828 169.737 12.1373 170.966 11.7087C172.195 11.2802 173.578 11.0851 174.962 11.1448C176.146 11.1093 177.328 11.2414 178.43 11.5326C179.532 11.8237 180.529 12.2672 181.355 12.8338C183.034 14.1044 183.896 15.7642 183.755 17.4548V26.6078H177.983V17.8988C178.023 17.456 177.933 17.0122 177.716 16.5929C177.499 16.1735 177.16 15.7868 176.718 15.4548C176.224 15.1467 175.638 14.9108 174.999 14.7622C174.359 14.6136 173.681 14.5555 173.006 14.5918C172.331 14.628 171.675 14.7577 171.08 14.9726C170.484 15.1875 169.963 15.4829 169.548 15.8398C168.645 16.7138 168.179 17.7557 168.216 18.8168V26.6078H162.441Z" fill="white"/>
<path d="M0 5.56396V9.68896H15.3L2.754 26.621H9.65401L20.8575 11.497C21.322 10.8702 21.5391 10.1748 21.4882 9.47647C21.4373 8.77817 21.1201 8.10007 20.5667 7.50625C20.0132 6.91243 19.2417 6.42252 18.3251 6.08284C17.4086 5.74315 16.3772 5.56491 15.3285 5.56496L0 5.56396Z" fill="#FF5F6B"/>
<path d="M46.4908 14.028H39.9553C39.0924 14.028 38.2649 13.7995 37.6548 13.3927C37.0446 12.9859 36.7018 12.4342 36.7018 11.859C36.7018 11.2837 37.0446 10.732 37.6548 10.3253C38.2649 9.91851 39.0924 9.68999 39.9553 9.68999H56.4853V5.56299H39.9553C38.7505 5.56254 37.5568 5.71668 36.4393 6.01699L30.8593 13.55C31.4169 14.8726 32.6071 16.0377 34.2489 16.868C35.8908 17.6984 37.8945 18.1485 39.9553 18.15H46.4968C47.3597 18.15 48.1872 18.3785 48.7974 18.7853C49.4075 19.192 49.7503 19.7437 49.7503 20.319C49.7503 20.8942 49.4075 21.4459 48.7974 21.8527C48.1872 22.2595 47.3597 22.488 46.4968 22.488L24.2458 22.472L21.1738 26.62H46.4908C47.7594 26.6501 49.024 26.5096 50.2093 26.2068C51.3945 25.904 52.4762 25.445 53.3896 24.8574C54.303 24.2698 55.0294 23.5655 55.5256 22.7867C56.0218 22.0078 56.2775 21.1702 56.2775 20.324C56.2775 19.4778 56.0218 18.6402 55.5256 17.8613C55.0294 17.0824 54.303 16.3782 53.3896 15.7906C52.4762 15.2029 51.3945 14.744 50.2093 14.4412C49.024 14.1384 47.7594 13.9978 46.4908 14.028Z" fill="#FF5F6B"/>
<path d="M8.15381 0.0508995V4.1759H28.5778L11.9638 26.6199H18.8638L34.1458 5.9879C34.6111 5.36007 34.8285 4.66351 34.7775 3.96406C34.7266 3.26461 34.4089 2.58538 33.8545 1.99058C33.3001 1.39577 32.5274 0.905036 31.6093 0.564758C30.6913 0.22448 29.6582 0.0459004 28.6078 0.0458984L8.15381 0.0508995Z" fill="#FF5F6B"/>
</svg>
