<svg width="123" height="33" viewBox="0 0 123 33" fill="none" xmlns="http://www.w3.org/2000/svg">
<path d="M46.5158 26.9498C45.5651 26.965 44.6225 26.773 43.7535 26.387C42.8845 26.001 42.11 25.4304 41.4838 24.7148C40.098 23.1597 39.3664 21.1294 39.4418 19.0478C39.3714 16.9737 40.097 14.9512 41.4698 13.3948C42.104 12.6688 42.89 12.0911 43.7722 11.7025C44.6543 11.3138 45.6111 11.1238 46.5748 11.1458C47.4939 11.1443 48.4006 11.3573 49.2228 11.7678C50.0068 12.1356 50.6766 12.7089 51.1608 13.4268V5.58081H55.0088V26.5948H51.3988V24.4338C50.912 25.2519 50.1826 25.8981 49.3118 26.2828C48.4402 26.7118 47.4833 26.9394 46.5118 26.9488M47.3118 14.5778C46.7794 14.5715 46.2518 14.6792 45.7643 14.8936C45.2769 15.108 44.841 15.4241 44.4858 15.8208C43.689 16.6914 43.2685 17.8416 43.3158 19.0208C43.2679 20.2124 43.6878 21.3756 44.4858 22.2618C44.8442 22.6567 45.281 22.9724 45.7684 23.189C46.2557 23.4056 46.7828 23.5181 47.316 23.5196C47.8493 23.521 48.377 23.4112 48.8654 23.1972C49.3539 22.9832 49.7923 22.6698 50.1528 22.2768C50.9469 21.3832 51.3612 20.2151 51.3078 19.0208C51.3596 17.84 50.9447 16.6862 50.1528 15.8088C49.794 15.4136 49.355 15.0996 48.865 14.8879C48.3751 14.6761 47.8455 14.5714 47.3118 14.5808" fill="white"/>
<path d="M59.3526 24.713C58.6017 23.9844 58.0101 23.108 57.6152 22.1391C57.2203 21.1702 57.0308 20.1299 57.0586 19.084C57.0301 18.0427 57.2092 17.0061 57.5854 16.0347C57.9615 15.0633 58.5272 14.1765 59.2496 13.426C59.96 12.6782 60.82 12.0883 61.7734 11.6948C62.7269 11.3013 63.7525 11.1129 64.7836 11.142C65.7286 11.1035 66.6715 11.2585 67.5545 11.5975C68.4375 11.9364 69.242 12.4521 69.9186 13.113C70.5714 13.7717 71.0827 14.5568 71.4211 15.4202C71.7595 16.2836 71.9179 17.2071 71.8866 18.134C71.8746 18.7627 71.7948 19.3883 71.6486 20H61.0546C61.0886 20.5213 61.2344 21.0291 61.482 21.4891C61.7296 21.9491 62.0732 22.3505 62.4896 22.666C63.3564 23.3068 64.412 23.6403 65.4896 23.614C66.2331 23.6338 66.9721 23.4933 67.6565 23.2021C68.3409 22.9108 68.9545 22.4756 69.4556 21.926L71.5866 24.473C70.7574 25.2822 69.7759 25.9188 68.699 26.3461C67.622 26.7733 66.471 26.9827 65.3126 26.962C64.2183 27.0065 63.1262 26.8302 62.1015 26.4434C61.0768 26.0567 60.1406 25.4675 59.3486 24.711M64.7486 14.373C63.8551 14.3483 62.9811 14.6366 62.2776 15.188C61.595 15.734 61.154 16.5261 61.0496 17.394H68.1236V17.365C68.1013 16.9491 67.9953 16.542 67.8122 16.168C67.629 15.7939 67.3724 15.4606 67.0576 15.188C66.4154 14.6405 65.5922 14.3501 64.7486 14.373Z" fill="white"/>
<path d="M72.644 23.5569L75.244 21.6319C75.5942 22.2897 76.1134 22.8422 76.7481 23.2325C77.3828 23.6229 78.1101 23.8371 78.855 23.8529C79.4338 23.8824 80.0102 23.76 80.527 23.4979C80.7065 23.4121 80.8585 23.2779 80.9659 23.1104C81.0733 22.9429 81.1318 22.7488 81.135 22.5499C81.1348 22.325 81.0742 22.1042 80.9595 21.9108C80.8448 21.7173 80.6803 21.5581 80.483 21.4499C79.6549 21.0067 78.7838 20.6492 77.883 20.3829C76.5701 20.0152 75.3495 19.3746 74.301 18.5029C73.9163 18.1362 73.6143 17.6915 73.4153 17.1986C73.2163 16.7057 73.1248 16.176 73.147 15.6449C73.1425 15.0114 73.2924 14.3863 73.5837 13.8236C73.875 13.261 74.299 12.7779 74.819 12.4159C75.899 11.6723 77.1611 11.2367 78.4699 11.1558C79.7786 11.075 81.0847 11.3519 82.248 11.9569C83.1764 12.4547 83.9405 13.2109 84.448 14.1339L81.882 16.0039C81.5968 15.4604 81.1665 15.0065 80.6388 14.6928C80.1111 14.3791 79.5068 14.2178 78.893 14.2269C78.3584 14.2069 77.8291 14.3405 77.368 14.6119C77.186 14.7101 77.0336 14.8553 76.9268 15.0324C76.82 15.2096 76.7628 15.4121 76.761 15.6189C76.7752 15.8264 76.8444 16.0264 76.9614 16.1982C77.0785 16.3701 77.2392 16.5077 77.427 16.5969C78.2165 17.0269 79.0436 17.3837 79.898 17.6629C81.2205 18.1048 82.4641 18.7546 83.582 19.5879C83.9828 19.9462 84.2964 20.3913 84.499 20.8892C84.7016 21.3871 84.7878 21.9247 84.751 22.4609C84.7536 23.0888 84.6059 23.7082 84.3203 24.2673C84.0346 24.8264 83.6193 25.3091 83.109 25.6749C81.8812 26.576 80.3825 27.0308 78.861 26.9639C77.567 26.9815 76.2895 26.6719 75.147 26.0639C74.0771 25.5067 73.2043 24.6339 72.647 23.5639" fill="white"/>
<path d="M87.0389 8.67386C86.8321 8.47242 86.6688 8.23064 86.5592 7.96349C86.4496 7.69635 86.3961 7.40954 86.4019 7.12086C86.3952 6.83399 86.4484 6.54887 86.5581 6.28371C86.6678 6.01855 86.8315 5.77917 87.0389 5.58086C87.4666 5.18201 88.0296 4.96021 88.6144 4.96021C89.1992 4.96021 89.7623 5.18201 90.1899 5.58086C90.4009 5.77712 90.568 6.0158 90.6802 6.28121C90.7924 6.54663 90.8472 6.83277 90.8409 7.12086C90.8463 7.41074 90.7912 7.69857 90.6791 7.96597C90.567 8.23336 90.4004 8.47445 90.1899 8.67386C89.7671 9.08219 89.2022 9.31041 88.6144 9.31041C88.0266 9.31041 87.4618 9.08219 87.0389 8.67386ZM86.7279 11.4999H90.5759V26.5939H86.7279V11.4999Z" fill="white"/>
<path d="M92.3188 28.738C92.3188 27.3966 93.1282 26.3706 94.7468 25.66C94.3976 25.4203 94.114 25.0969 93.9218 24.7194C93.7297 24.342 93.6351 23.9224 93.6468 23.499C93.6472 22.9722 93.7571 22.4513 93.9696 21.9693C94.182 21.4872 94.4923 21.0547 94.8808 20.699C94.258 20.2478 93.7462 19.6605 93.3843 18.9819C93.0224 18.3033 92.8199 17.5511 92.7922 16.7825C92.7646 16.0139 92.9124 15.2491 93.2246 14.5462C93.5368 13.8433 94.0051 13.2208 94.5938 12.726C95.8173 11.6724 97.3898 11.1129 99.0038 11.157C99.719 11.155 100.429 11.2754 101.104 11.513H108.62V14.472H104.72C105.072 15.1155 105.255 15.8382 105.252 16.572C105.26 17.3136 105.101 18.0476 104.786 18.7189C104.471 19.3903 104.008 19.9817 103.432 20.449C102.192 21.5045 100.605 22.0634 98.9778 22.018C98.5914 22.0183 98.2055 21.9883 97.8238 21.928C97.3298 22.1846 97.0832 22.5006 97.0838 22.876C97.0809 23.006 97.1122 23.1346 97.1745 23.2488C97.2368 23.3631 97.3279 23.459 97.4388 23.527C97.6851 23.6874 97.974 23.7697 98.2678 23.763H102.06C103.409 23.7 104.734 24.1313 105.788 24.976C106.29 25.3928 106.68 25.9276 106.924 26.5325C107.168 27.1373 107.259 27.7934 107.187 28.4417C107.115 29.09 106.883 29.7104 106.513 30.2471C106.142 30.7838 105.644 31.2202 105.063 31.517C103.397 32.3698 101.561 32.8341 99.6899 32.875C97.8194 32.9158 95.9639 32.5322 94.2628 31.753C93.6898 31.4815 93.2043 31.0548 92.8616 30.5213C92.5188 29.9879 92.3326 29.369 92.3238 28.735M96.0828 28.235C96.0828 28.7276 96.3982 29.1173 97.0288 29.404C97.8188 29.7192 98.666 29.8653 99.5158 29.833C100.507 29.8781 101.498 29.7272 102.431 29.389C103.112 29.0936 103.453 28.6893 103.452 28.176C103.457 27.9713 103.407 27.769 103.309 27.5896C103.21 27.4102 103.065 27.2603 102.89 27.155C102.473 26.8964 101.989 26.7676 101.499 26.785H97.2988C96.4895 27.1183 96.0852 27.6016 96.0858 28.235M97.0778 14.828C96.8273 15.0439 96.6271 15.3122 96.4913 15.6138C96.3555 15.9155 96.2874 16.2432 96.2918 16.574C96.2883 16.9068 96.3567 17.2364 96.4924 17.5404C96.628 17.8443 96.8277 18.1153 97.0778 18.335C97.6043 18.8207 98.2998 19.0813 99.0158 19.061C99.736 19.0792 100.435 18.8192 100.969 18.335C101.222 18.1175 101.426 17.8472 101.564 17.543C101.702 17.2388 101.772 16.9081 101.769 16.574C101.773 16.2419 101.703 15.9131 101.565 15.6112C101.426 15.3093 101.223 15.0418 100.969 14.828C100.431 14.3528 99.7332 14.0991 99.0158 14.118C98.3027 14.0972 97.6088 14.3514 97.0778 14.828Z" fill="white"/>
<path d="M108.294 26.6078V11.5008H109.922C110.194 11.5009 110.464 11.5547 110.715 11.659C110.967 11.7633 111.195 11.9161 111.387 12.1087C111.58 12.3013 111.732 12.5299 111.837 12.7814C111.941 13.033 111.994 13.3026 111.994 13.5748C112.471 12.7828 113.157 12.1373 113.977 11.7087C114.797 11.2802 115.718 11.0851 116.641 11.1448C117.43 11.1093 118.218 11.2414 118.953 11.5326C119.688 11.8237 120.352 12.2672 120.903 12.8338C122.022 14.1044 122.597 15.7642 122.503 17.4548V26.6078H118.655V17.8988C118.682 17.456 118.621 17.0122 118.477 16.5929C118.332 16.1735 118.106 15.7868 117.812 15.4548C117.482 15.1467 117.092 14.9108 116.665 14.7622C116.239 14.6136 115.787 14.5555 115.337 14.5918C114.887 14.628 114.45 14.7577 114.053 14.9726C113.656 15.1875 113.308 15.4829 113.032 15.8398C112.43 16.7138 112.119 17.7557 112.144 18.8168V26.6078H108.294Z" fill="white"/>
<path d="M0 5.56396V9.68896H10.2L1.836 26.621H6.436L13.905 11.497C14.2147 10.8702 14.3594 10.1748 14.3255 9.47647C14.2915 8.77817 14.0801 8.10007 13.7111 7.50625C13.3421 6.91243 12.8278 6.42252 12.2168 6.08284C11.6057 5.74315 10.9181 5.56491 10.219 5.56496L0 5.56396Z" fill="#FF5F6B"/>
<path d="M30.9942 14.028H26.6372C26.062 14.028 25.5103 13.7995 25.1035 13.3927C24.6967 12.9859 24.4682 12.4342 24.4682 11.859C24.4682 11.2837 24.6967 10.732 25.1035 10.3253C25.5103 9.91851 26.062 9.68999 26.6372 9.68999H37.6572V5.56299H26.6372C25.834 5.56254 25.0382 5.71668 24.2932 6.01699L20.5732 13.55C20.9449 14.8726 21.7384 16.0377 22.8329 16.868C23.9275 17.6984 25.2633 18.1485 26.6372 18.15H30.9982C31.5735 18.15 32.1252 18.3785 32.5319 18.7853C32.9387 19.192 33.1672 19.7437 33.1672 20.319C33.1672 20.8942 32.9387 21.4459 32.5319 21.8527C32.1252 22.2595 31.5735 22.488 30.9982 22.488L16.1642 22.472L14.1162 26.62H30.9942C31.8399 26.6501 32.683 26.5096 33.4732 26.2068C34.2634 25.904 34.9844 25.445 35.5934 24.8574C36.2023 24.2698 36.6866 23.5655 37.0174 22.7867C37.3482 22.0078 37.5187 21.1702 37.5187 20.324C37.5187 19.4778 37.3482 18.6402 37.0174 17.8613C36.6866 17.0824 36.2023 16.3782 35.5934 15.7906C34.9844 15.2029 34.2634 14.744 33.4732 14.4412C32.683 14.1384 31.8399 13.9978 30.9942 14.028Z" fill="#FF5F6B"/>
<path d="M5.43604 0.0508995V4.1759H19.052L7.97604 26.6199H12.576L22.764 5.9879C23.0742 5.36007 23.2192 4.66351 23.1852 3.96406C23.1512 3.26461 22.9394 2.58538 22.5698 1.99058C22.2002 1.39577 21.6851 0.905036 21.0731 0.564758C20.461 0.22448 19.7723 0.0459004 19.072 0.0458984L5.43604 0.0508995Z" fill="#FF5F6B"/>
</svg>
