<svg xmlns="http://www.w3.org/2000/svg" width="148.745" height="39.653" viewBox="0 0 148.745 39.653">
  <g id="Component_16_3" data-name="Component 16 – 3" transform="translate(0 0)">
    <path id="Path_840" data-name="Path 840" d="M58.144,32.444a7.9,7.9,0,0,1-6.073-2.7,9.749,9.749,0,0,1-2.464-6.839,9.811,9.811,0,0,1,2.447-6.823,7.94,7.94,0,0,1,6.162-2.715,7.129,7.129,0,0,1,3.2.75,5.785,5.785,0,0,1,2.339,2V6.654H68.4V32.016H64.038V29.408a5.534,5.534,0,0,1-2.519,2.232,7.825,7.825,0,0,1-3.375.8m.965-14.931a4.506,4.506,0,0,0-3.411,1.5,5.4,5.4,0,0,0-1.412,3.857A5.515,5.515,0,0,0,55.7,26.782a4.63,4.63,0,0,0,6.839.018,5.544,5.544,0,0,0,1.394-3.93,5.433,5.433,0,0,0-1.394-3.876,4.524,4.524,0,0,0-3.429-1.482" transform="translate(-1.059 0.065)" fill="#3d3d3f"/>
    <path id="Path_841" data-name="Path 841" d="M73.416,29.664a9.116,9.116,0,0,1-2.768-6.788,9.462,9.462,0,0,1,2.644-6.823,8.872,8.872,0,0,1,6.679-2.75,8.386,8.386,0,0,1,6.2,2.376,8.2,8.2,0,0,1,2.375,6.055,10.535,10.535,0,0,1-.287,2.25H75.471A4.392,4.392,0,0,0,77.2,27.2a5.853,5.853,0,0,0,3.626,1.143,6.254,6.254,0,0,0,4.786-2.036l2.572,3.071a10.576,10.576,0,0,1-7.573,3,9.846,9.846,0,0,1-7.2-2.715M79.936,17.2a4.63,4.63,0,0,0-2.982.983,4.021,4.021,0,0,0-1.483,2.66h8.537V20.8a3.741,3.741,0,0,0-1.287-2.625,4.124,4.124,0,0,0-2.785-.983" transform="translate(-0.85 0.131)" fill="#3d3d3f"/>
    <path id="Path_842" data-name="Path 842" d="M89.262,28.271,92.4,25.95a5.06,5.06,0,0,0,4.358,2.678,4.014,4.014,0,0,0,2.018-.428,1.29,1.29,0,0,0,.733-1.143,1.514,1.514,0,0,0-.787-1.322,16.656,16.656,0,0,0-3.143-1.287,11.7,11.7,0,0,1-4.323-2.267,4.5,4.5,0,0,1-1.393-3.447,4.7,4.7,0,0,1,2.018-3.893,8.723,8.723,0,0,1,8.966-.553,6.574,6.574,0,0,1,2.66,2.625l-3.107,2.25A4.007,4.007,0,0,0,96.8,17.019a3.386,3.386,0,0,0-1.84.465,1.393,1.393,0,0,0-.732,1.214,1.412,1.412,0,0,0,.8,1.18,17.8,17.8,0,0,0,2.982,1.286,15.843,15.843,0,0,1,4.447,2.322,4.256,4.256,0,0,1,1.411,3.464,4.744,4.744,0,0,1-1.982,3.876,8.072,8.072,0,0,1-5.127,1.554,9.279,9.279,0,0,1-4.482-1.09,7.1,7.1,0,0,1-3.019-3.019" transform="translate(-0.664 0.131)" fill="#3d3d3f"/>
    <path id="Path_843" data-name="Path 843" d="M106.466,10.394A2.544,2.544,0,0,1,105.7,8.52a2.491,2.491,0,0,1,.769-1.858,2.788,2.788,0,0,1,3.8,0,2.465,2.465,0,0,1,.786,1.858,2.518,2.518,0,0,1-.786,1.874,2.737,2.737,0,0,1-3.8,0M106.09,13.8h4.644V32.022H106.09Z" transform="translate(-0.501 0.057)" fill="#3d3d3f"/>
    <path id="Path_844" data-name="Path 844" d="M112.759,34.521q0-2.428,2.93-3.715a3.061,3.061,0,0,1-1.322-2.608,4.583,4.583,0,0,1,1.49-3.379,6.108,6.108,0,0,1-.346-9.623,7.829,7.829,0,0,1,5.322-1.894,7.57,7.57,0,0,1,2.536.429h9.071V17.3h-4.713a5.224,5.224,0,0,1,.642,2.537,5.936,5.936,0,0,1-2.2,4.679,7.949,7.949,0,0,1-5.376,1.894,8.869,8.869,0,0,1-1.393-.108q-.894.465-.893,1.144a.9.9,0,0,0,.428.786,1.758,1.758,0,0,0,1,.285h4.572a6.694,6.694,0,0,1,4.5,1.464,4.757,4.757,0,0,1-.875,7.895,14.943,14.943,0,0,1-13.037.285,4.093,4.093,0,0,1-2.34-3.643m4.537-.607q0,.892,1.142,1.411a7.344,7.344,0,0,0,3,.518,9.109,9.109,0,0,0,3.518-.536q1.233-.535,1.232-1.464a1.4,1.4,0,0,0-.679-1.232,2.985,2.985,0,0,0-1.679-.446H118.76q-1.465.607-1.464,1.75m1.2-16.181a2.734,2.734,0,0,0-.948,2.108,2.789,2.789,0,0,0,.948,2.125,3.31,3.31,0,0,0,2.339.876,3.377,3.377,0,0,0,2.357-.876,2.766,2.766,0,0,0,.964-2.125,2.712,2.712,0,0,0-.964-2.108,3.424,3.424,0,0,0-2.357-.857,3.355,3.355,0,0,0-2.339.857" transform="translate(-0.43 0.131)" fill="#3d3d3f"/>
    <path id="Path_845" data-name="Path 845" d="M131.839,31.95V13.732H133.8a2.5,2.5,0,0,1,2.5,2.5,6.092,6.092,0,0,1,5.608-2.93,6.753,6.753,0,0,1,5.144,2.037,7.774,7.774,0,0,1,1.929,5.572V31.95h-4.644v-10.5a4.068,4.068,0,0,0-1.018-2.947,3.917,3.917,0,0,0-5.769.465,6.072,6.072,0,0,0-1.072,3.59V31.95Z" transform="translate(-0.24 0.131)" fill="#3d3d3f"/>
    <g id="Group_1163" data-name="Group 1163" transform="translate(-132.707 -35.963)">
      <g id="Group_1161" data-name="Group 1161" transform="translate(132.707 42.656)">
        <path id="Path_12792" data-name="Path 12792" d="M132.707,42.591V47.6h12.382L134.934,68.159h5.588l9.069-18.365a4.992,4.992,0,0,0-4.476-7.2Z" transform="translate(-132.707 -42.591)" fill="#ff5f6b"/>
      </g>
      <path id="Path_12793" data-name="Path 12793" d="M170.173,52.87h-5.295a2.634,2.634,0,1,1,0-5.268h13.385V42.591H164.879a7.6,7.6,0,0,0-2.846.551l-4.517,9.147a7.657,7.657,0,0,0,7.363,5.591h5.295a2.634,2.634,0,0,1,0,5.268l-18.008-.025-2.486,5.036h20.494a7.645,7.645,0,0,0,0-15.29Z" transform="translate(0.168 0.065)" fill="#ff5f6b"/>
      <g id="Group_1162" data-name="Group 1162" transform="translate(139.308 35.963)">
        <path id="Path_12794" data-name="Path 12794" d="M139.243,35.963v5.009h16.533L142.327,68.225h5.588l12.368-25.047a5,5,0,0,0-4.483-7.215Z" transform="translate(-139.243 -35.963)" fill="#ff5f6b"/>
      </g>
    </g>
  </g>
</svg>
