<svg width="46" height="35" viewBox="0 0 46 35" fill="none" xmlns="http://www.w3.org/2000/svg">
<path d="M37.9732 29.4069C37.9658 29.5756 37.9089 29.7383 37.8098 29.875C37.7106 30.0117 37.5735 30.1164 37.4154 30.1758C37.2573 30.2352 37.0853 30.2469 36.9206 30.2094C36.7559 30.1718 36.6059 30.0868 36.4892 29.9647C36.3725 29.8427 36.2941 29.6891 36.2639 29.5229C36.2337 29.3568 36.253 29.1854 36.3194 29.0302C36.3858 28.8749 36.4963 28.7424 36.6372 28.6494C36.7782 28.5564 36.9434 28.5068 37.1122 28.5068C37.2288 28.5064 37.3441 28.5297 37.4513 28.5753C37.5585 28.6209 37.6554 28.6879 37.7359 28.7721C37.8164 28.8563 37.879 28.9559 37.9198 29.0651C37.9606 29.1742 37.9788 29.2905 37.9732 29.4069ZM14.0642 28.5068C13.8841 28.4946 13.7045 28.5368 13.5487 28.6279C13.3929 28.7191 13.2681 28.8551 13.1906 29.0181C13.113 29.1811 13.0862 29.3636 13.1138 29.542C13.1413 29.7204 13.2218 29.8864 13.3449 30.0184C13.468 30.1505 13.628 30.2425 13.804 30.2825C13.9801 30.3224 14.164 30.3085 14.332 30.2426C14.5001 30.1766 14.6444 30.0616 14.7463 29.9126C14.8481 29.7636 14.9028 29.5874 14.9032 29.4069C14.9098 29.2921 14.8932 29.1771 14.8541 29.069C14.8151 28.9608 14.7545 28.8616 14.6761 28.7775C14.5977 28.6934 14.5031 28.626 14.3979 28.5795C14.2927 28.5329 14.1792 28.5083 14.0642 28.5068ZM23.1032 28.4839C22.9185 28.4791 22.7391 28.5461 22.6028 28.6709C22.4665 28.7957 22.3838 28.9684 22.3722 29.1528H23.8422C23.8321 28.9664 23.7488 28.7916 23.6104 28.6663C23.472 28.541 23.2897 28.4754 23.1032 28.4839ZM31.3962 28.5068C31.2168 28.4993 31.0392 28.5456 30.8863 28.6398C30.7334 28.7339 30.6121 28.8716 30.5381 29.0353C30.4642 29.1989 30.4408 29.381 30.4711 29.558C30.5014 29.735 30.584 29.8989 30.7083 30.0286C30.8325 30.1583 30.9927 30.2478 31.1682 30.2858C31.3438 30.3237 31.5266 30.3082 31.6933 30.2413C31.86 30.1745 32.0028 30.0594 32.1035 29.9106C32.2042 29.7619 32.2581 29.5864 32.2582 29.4069C32.265 29.2901 32.2476 29.1732 32.2072 29.0635C32.1667 28.9538 32.1041 28.8536 32.0232 28.7692C31.9423 28.6847 31.8449 28.6178 31.7371 28.5726C31.6292 28.5275 31.5132 28.5051 31.3962 28.5068ZM39.5432 30.5149C39.5432 30.5379 39.5662 30.5529 39.5662 30.5999C39.5662 30.6229 39.5432 30.6378 39.5432 30.6838C39.5202 30.7068 39.5202 30.7228 39.5042 30.7458C39.4943 30.7585 39.4815 30.7685 39.4669 30.7751C39.4522 30.7818 39.4362 30.7847 39.4202 30.7838C39.3972 30.8068 39.3812 30.8069 39.3352 30.8069C39.3052 30.8076 39.2758 30.7995 39.2502 30.7838C39.2272 30.7838 39.2122 30.7608 39.1892 30.7458C39.1662 30.7309 39.1502 30.7068 39.1502 30.6838C39.1337 30.6591 39.1256 30.6296 39.1272 30.5999C39.1272 30.5609 39.1272 30.5379 39.1502 30.5149C39.1534 30.483 39.1671 30.453 39.1892 30.4298C39.2077 30.4143 39.2282 30.4016 39.2502 30.3918C39.2754 30.3754 39.3051 30.3674 39.3352 30.3689C39.3732 30.3689 39.3972 30.3688 39.4202 30.3918C39.4582 30.4148 39.4812 30.4148 39.5042 30.4298C39.5272 30.4448 39.5202 30.4769 39.5432 30.5149ZM39.3732 30.6228C39.4122 30.6228 39.4122 30.5999 39.4352 30.5999C39.4438 30.5922 39.4504 30.5825 39.4544 30.5717C39.4584 30.5609 39.4597 30.5493 39.4583 30.5378C39.4597 30.5266 39.4583 30.5151 39.4543 30.5045C39.4503 30.4939 39.4437 30.4843 39.4352 30.4768C39.4122 30.4768 39.3972 30.4529 39.3502 30.4529H39.2272V30.7229H39.2892V30.6149H39.3122L39.3972 30.7229H39.4583L39.3732 30.6228ZM45.1352 4.07483V31.1528C45.1352 32.1321 44.7463 33.0713 44.0539 33.7638C43.3615 34.4563 42.4225 34.8456 41.4432 34.8458H4.51721C3.53802 34.8453 2.5991 34.456 1.9068 33.7635C1.2145 33.0711 0.82546 32.132 0.825195 31.1528V4.0719C0.82546 3.09271 1.2145 2.15367 1.9068 1.46118C2.5991 0.768696 3.53802 0.379436 4.51721 0.378906H41.4432C42.4224 0.379436 43.3614 0.768696 44.0536 1.46118C44.7459 2.15367 45.1349 3.09271 45.1352 4.0719M5.74823 14.8108C5.74717 16.7371 6.26867 18.6277 7.25714 20.2811C8.24561 21.9345 9.664 23.2888 11.3613 24.1997C13.0587 25.1107 14.9713 25.5441 16.8956 25.454C18.8198 25.3638 20.6835 24.7535 22.2882 23.6879C20.9777 22.6118 19.922 21.2586 19.1972 19.7256C18.4724 18.1926 18.0964 16.5181 18.0964 14.8224C18.0964 13.1267 18.4724 11.452 19.1972 9.91907C19.922 8.38609 20.9777 7.03295 22.2882 5.95691C20.685 4.8927 18.8235 4.28269 16.9014 4.19177C14.9793 4.10086 13.0685 4.53242 11.372 5.44055C9.67554 6.34869 8.25682 7.69946 7.2666 9.34937C6.27638 10.9993 5.75166 12.8865 5.74823 14.8108ZM22.9802 23.1809C24.2455 22.1842 25.2682 20.9134 25.9714 19.4644C26.6746 18.0153 27.0399 16.4255 27.0399 14.8148C27.0399 13.2041 26.6746 11.6145 25.9714 10.1654C25.2682 8.71632 24.2455 7.44556 22.9802 6.44885C21.7153 7.44579 20.6929 8.71659 19.9899 10.1656C19.287 11.6147 18.9218 13.2043 18.9218 14.8148C18.9218 16.4254 19.287 18.0151 19.9899 19.4641C20.6929 20.9132 21.7153 22.184 22.9802 23.1809ZM12.0332 29.0498C12.0408 28.8993 12.0168 28.7489 11.9626 28.6083C11.9085 28.4677 11.8254 28.34 11.7188 28.2335C11.6122 28.127 11.4845 28.0441 11.3438 27.9901C11.2031 27.9361 11.0527 27.9121 10.9022 27.9198C10.7087 27.9091 10.5158 27.9497 10.343 28.0375C10.1702 28.1253 10.0236 28.2572 9.91821 28.4198C9.82294 28.2581 9.68486 28.1258 9.51917 28.0376C9.35347 27.9494 9.16663 27.9086 8.97925 27.9198C8.81982 27.9171 8.66211 27.9535 8.52002 28.0259C8.37793 28.0982 8.2558 28.2043 8.16425 28.3348V27.9958H7.5332V30.8198H8.16425C8.16425 29.3658 7.9722 28.4958 8.8562 28.4958C9.6412 28.4958 9.48724 29.2808 9.48724 30.8198H10.0952C10.0952 29.4118 9.90223 28.4958 10.7872 28.4958C11.5722 28.4958 11.4182 29.2658 11.4182 30.8198H12.0492V29.0498H12.0332ZM15.4872 27.9958H14.8782V28.3348C14.7707 28.2005 14.6334 28.0931 14.4772 28.0211C14.321 27.9491 14.1501 27.9144 13.9782 27.9198C13.5994 27.9418 13.2433 28.1078 12.9829 28.3838C12.7225 28.6598 12.5774 29.0248 12.5774 29.4043C12.5774 29.7838 12.7225 30.1489 12.9829 30.4249C13.2433 30.7009 13.5994 30.8668 13.9782 30.8888C14.1506 30.8976 14.3226 30.8645 14.4793 30.7922C14.6361 30.72 14.773 30.6107 14.8782 30.4739V30.8269H15.4852L15.4872 27.9958ZM18.6032 29.9658C18.6032 28.8118 16.8412 29.3349 16.8412 28.7959C16.8412 28.3579 17.7572 28.4268 18.2642 28.7118L18.5182 28.2118C17.7952 27.7428 16.1953 27.7499 16.1953 28.8429C16.1953 29.9359 17.9572 29.4808 17.9572 29.9968C17.9572 30.4808 16.9182 30.4429 16.3642 30.0579L16.0952 30.5428C16.9572 31.1298 18.6032 31.0068 18.6032 29.9718V29.9658ZM21.3262 30.6809L21.1572 30.1578C20.8652 30.3198 20.2182 30.4969 20.2182 29.8429V28.5719H21.2262V28.0018H20.2182V27.1409H19.5882V28.0018H19.0032V28.5638H19.5882V29.8489C19.5882 31.2029 20.9182 30.9559 21.3262 30.6869M22.3492 29.6559H24.4652C24.4652 28.4099 23.8962 27.9178 23.1262 27.9178C22.9344 27.9154 22.7442 27.9528 22.5676 28.0277C22.391 28.1026 22.2318 28.2134 22.1002 28.353C21.9686 28.4926 21.8674 28.6579 21.803 28.8386C21.7387 29.0193 21.7125 29.2115 21.7262 29.4028C21.7288 29.7028 21.8193 29.9955 21.9865 30.2446C22.1536 30.4938 22.3901 30.6885 22.6667 30.8047C22.9434 30.9209 23.248 30.9535 23.5429 30.8984C23.8378 30.8434 24.1102 30.703 24.3262 30.4949L24.0342 30.0328C23.4342 30.5258 22.5262 30.4799 22.3492 29.6559ZM26.8962 28.0018C26.6942 27.9014 26.4619 27.8806 26.2452 27.9434C26.0285 28.0061 25.8432 28.148 25.7262 28.3408V28.0018H25.0963V30.8258H25.7262V29.2329C25.7049 29.1096 25.7201 28.9826 25.77 28.8678C25.8198 28.753 25.9021 28.6553 26.0068 28.5867C26.1114 28.518 26.2338 28.4814 26.359 28.4814C26.4842 28.4815 26.6066 28.5181 26.7112 28.5868L26.8962 28.0018ZM27.7112 29.4098C27.7112 28.5328 28.6042 28.2488 29.3042 28.7638L29.5963 28.2638C29.3753 28.0735 29.1044 27.9508 28.8157 27.9099C28.527 27.8691 28.2326 27.9119 27.9676 28.0334C27.7025 28.155 27.4779 28.3501 27.3205 28.5955C27.163 28.8409 27.0793 29.1263 27.0793 29.4178C27.0793 29.7094 27.163 29.9948 27.3205 30.2402C27.4779 30.4856 27.7025 30.6807 27.9676 30.8022C28.2326 30.9238 28.527 30.9666 28.8157 30.9258C29.1044 30.8849 29.3753 30.7622 29.5963 30.5719L29.3042 30.0719C28.5962 30.5719 27.7112 30.2718 27.7112 29.4098ZM32.8422 28.0018H32.2122V28.3408C32.0083 28.1686 31.7595 28.0583 31.4949 28.0228C31.2304 27.9873 30.9613 28.0281 30.7192 28.1405C30.4772 28.2529 30.2722 28.4321 30.1287 28.6571C29.9851 28.8821 29.9088 29.1435 29.9088 29.4104C29.9088 29.6773 29.9851 29.9386 30.1287 30.1636C30.2722 30.3885 30.4772 30.5678 30.7192 30.6802C30.9613 30.7926 31.2304 30.8335 31.4949 30.798C31.7595 30.7625 32.0083 30.6521 32.2122 30.4799V30.8329H32.8422V28.0018ZM35.4352 28.0018C35.2322 27.9073 35.0017 27.8896 34.7866 27.9519C34.5715 28.0142 34.3862 28.1524 34.2652 28.3408V28.0018H33.6582V30.8258H34.2652V29.2329C34.2457 29.11 34.2622 28.9841 34.3125 28.8704C34.3628 28.7566 34.445 28.6598 34.549 28.5916C34.653 28.5233 34.7745 28.4867 34.8989 28.4858C35.0233 28.485 35.1453 28.52 35.2502 28.5868L35.4352 28.0018ZM38.5352 26.8558H37.9272V28.3408C37.7234 28.1686 37.4745 28.0583 37.21 28.0228C36.9454 27.9873 36.6763 28.0281 36.4342 28.1405C36.1921 28.2529 35.9873 28.4321 35.8437 28.6571C35.7001 28.8821 35.6238 29.1435 35.6238 29.4104C35.6238 29.6773 35.7001 29.9386 35.8437 30.1636C35.9873 30.3885 36.1921 30.5678 36.4342 30.6802C36.6763 30.7926 36.9454 30.8335 37.21 30.798C37.4745 30.7625 37.7234 30.6521 37.9272 30.4799V30.8329H38.5352V26.8558ZM39.1202 21.0789V21.4329H39.1782V21.0789H39.3242V21.0168H38.9702V21.0789H39.1202ZM39.6272 30.6029C39.6308 30.5606 39.6229 30.518 39.6042 30.4799C39.5812 30.4559 39.5662 30.4179 39.5432 30.3949C39.5202 30.3719 39.4813 30.3559 39.4583 30.3329C39.4203 30.3329 39.3732 30.3098 39.3352 30.3098C39.2998 30.3199 39.2637 30.3276 39.2272 30.3329C39.1967 30.3499 39.1685 30.3707 39.1432 30.3949C39.127 30.4033 39.113 30.4153 39.1022 30.4301C39.0915 30.4448 39.0843 30.4619 39.0812 30.4799C39.0625 30.518 39.0545 30.5606 39.0582 30.6029C39.0568 30.6399 39.0648 30.6767 39.0812 30.7098C39.0844 30.7278 39.0917 30.7448 39.1024 30.7595C39.1132 30.7743 39.1271 30.7863 39.1432 30.7948C39.167 30.8205 39.1955 30.8412 39.2272 30.8558C39.2603 30.8738 39.2977 30.8822 39.3352 30.8799C39.3776 30.8836 39.4203 30.8752 39.4583 30.8558C39.4813 30.8328 39.5202 30.8178 39.5432 30.7948C39.5662 30.7718 39.5812 30.7328 39.6042 30.7098C39.6207 30.6766 39.6285 30.6399 39.6272 30.6029ZM39.8732 21.0099H39.7662L39.6432 21.2788L39.5202 21.0099H39.4122V21.4248H39.4732V21.1099L39.5972 21.3789H39.6812L39.7892 21.1099V21.4248H39.8732V21.0099ZM40.2122 14.8169C40.2104 12.892 39.687 11.0035 38.6974 9.35242C37.7079 7.70133 36.2894 6.34931 34.5927 5.44019C32.896 4.53106 30.9847 4.09883 29.0619 4.18945C27.1391 4.28007 25.2769 4.89016 23.6732 5.95483C24.9836 7.03108 26.0391 8.38444 26.7639 9.91748C27.4886 11.4505 27.8645 13.1251 27.8645 14.8208C27.8645 16.5165 27.4886 18.1912 26.7639 19.7242C26.0391 21.2573 24.9836 22.6106 23.6732 23.6869C25.2774 24.7519 27.1404 25.362 29.0639 25.4523C30.9874 25.5426 32.8993 25.1097 34.5963 24.1996C36.2932 23.2895 37.7116 21.9363 38.7005 20.2841C39.6894 18.6318 40.2119 16.7425 40.2122 14.8169Z" fill="#3D3D3F"/>
</svg>
