<svg width="22" height="22" viewBox="0 0 22 22" fill="none" xmlns="http://www.w3.org/2000/svg">
<path d="M15 0H7C3.13401 0 0 3.13401 0 7V15C0 18.866 3.13401 22 7 22H15C18.866 22 22 18.866 22 15V7C22 3.13401 18.866 0 15 0Z" fill="#3D3D3F"/>
<path d="M12.1657 7.19189H3.72266V16.3749H12.1657V7.19189Z" fill="white"/>
<path d="M15.1727 8.56326L16.2067 6.61426L18.2767 10.5143H14.1367L15.1727 8.56326Z" fill="white"/>
<path d="M16.2079 16.284C15.8674 16.281 15.5353 16.1774 15.2536 15.9861C14.9718 15.7948 14.7529 15.5245 14.6244 15.2091C14.496 14.8937 14.4637 14.5473 14.5317 14.2136C14.5996 13.8799 14.7648 13.5738 15.0064 13.3337C15.2479 13.0937 15.5551 12.9304 15.8893 12.8646C16.2234 12.7988 16.5695 12.8332 16.8841 12.9637C17.1987 13.0941 17.4677 13.3147 17.6571 13.5977C17.8466 13.8807 17.9481 14.2134 17.9489 14.554C17.9484 14.7819 17.903 15.0076 17.8151 15.2179C17.7273 15.4283 17.5989 15.6193 17.4372 15.78C17.2755 15.9407 17.0837 16.0679 16.8727 16.1544C16.6618 16.2408 16.4359 16.2849 16.2079 16.284Z" fill="white"/>
</svg>
