<svg width="48" height="35" viewBox="0 0 48 35" fill="none" xmlns="http://www.w3.org/2000/svg">
<path d="M16.1355 17.7722C16.1359 17.9929 16.0922 18.2114 16.0068 18.4149C15.9214 18.6184 15.7961 18.8028 15.6383 18.957C15.4805 19.1113 15.2933 19.2324 15.088 19.3131C14.8826 19.3939 14.6631 19.4327 14.4425 19.4272C14.283 19.4447 14.1216 19.4275 13.9695 19.3767C13.8173 19.3259 13.6779 19.2428 13.5608 19.1331C13.4438 19.0233 13.3519 18.8896 13.2914 18.741C13.2309 18.5924 13.2033 18.4325 13.2105 18.2722C13.2073 18.0509 13.2481 17.8312 13.3307 17.6259C13.4132 17.4205 13.5357 17.2337 13.6911 17.0762C13.8465 16.9186 14.0317 16.7936 14.2359 16.7083C14.4401 16.6229 14.6592 16.5791 14.8805 16.5792C15.0435 16.5651 15.2078 16.5858 15.3623 16.6399C15.5168 16.694 15.658 16.7803 15.7767 16.8931C15.8953 17.0058 15.9887 17.1425 16.0505 17.2941C16.1124 17.4456 16.1413 17.6086 16.1355 17.7722ZM7.99149 14.0392H7.62946C7.57007 14.0376 7.51219 14.058 7.46683 14.0963C7.42146 14.1347 7.39181 14.1884 7.38348 14.2472L7.05246 16.3022L7.68347 16.2792C8.53047 16.2792 9.18347 16.1632 9.33847 15.1862C9.51547 14.1542 8.86149 14.0392 7.99149 14.0392ZM29.8525 14.0392H29.5055C29.4756 14.0366 29.4456 14.0399 29.4171 14.0489C29.3885 14.058 29.362 14.0727 29.3392 14.092C29.3163 14.1114 29.2975 14.135 29.2838 14.1616C29.2701 14.1883 29.2619 14.2173 29.2595 14.2472L28.9365 16.3022L29.5525 16.2792C30.5525 16.2792 31.2455 16.0482 31.2455 14.8932C31.2375 14.0772 30.5065 14.0392 29.8525 14.0392ZM47.6135 4.05517V31.1503C47.5795 32.1624 47.1456 33.1197 46.4068 33.8124C45.668 34.505 44.6847 34.8765 43.6725 34.8452H4.25546C3.24313 34.8765 2.2597 34.5051 1.52075 33.8125C0.781809 33.1199 0.347671 32.1625 0.313477 31.1503V4.05517C0.34793 3.04311 0.782204 2.08598 1.52112 1.39355C2.26003 0.701125 3.2433 0.329915 4.25546 0.361204H43.6725C44.6846 0.329919 45.6677 0.70122 46.4065 1.39367C47.1452 2.08613 47.5793 3.0432 47.6135 4.05517ZM11.6715 14.4783C11.6715 12.8613 10.4245 12.3223 9.00046 12.3223H5.92148C5.82211 12.3234 5.72655 12.3607 5.65286 12.4274C5.57918 12.4941 5.53247 12.5854 5.52148 12.6842L4.25946 20.5432C4.25337 20.5799 4.25507 20.6175 4.26443 20.6534C4.2738 20.6894 4.29061 20.723 4.31381 20.7521C4.33701 20.7811 4.36609 20.8049 4.39911 20.822C4.43213 20.8391 4.46835 20.849 4.50546 20.8512H5.96347C6.0732 20.8366 6.17475 20.7853 6.25156 20.7056C6.32837 20.6258 6.37592 20.5224 6.38647 20.4122L6.73346 18.3652C6.81046 17.8112 7.74947 18.0032 8.11847 18.0032C8.59361 18.0479 9.07279 17.9878 9.52206 17.8268C9.97134 17.6658 10.3797 17.408 10.7184 17.0717C11.057 16.7353 11.3175 16.3288 11.4815 15.8806C11.6455 15.4324 11.709 14.9537 11.6675 14.4783M18.1485 15.1553H16.6855C16.3935 15.1553 16.3775 15.5783 16.3625 15.7863C16.1538 15.5079 15.875 15.2899 15.5545 15.1547C15.2341 15.0194 14.8835 14.9717 14.5385 15.0162C13.6386 15.0447 12.7859 15.4253 12.1639 16.0762C11.5419 16.727 11.2002 17.596 11.2125 18.4962C11.1863 18.825 11.2311 19.1556 11.3439 19.4656C11.4567 19.7755 11.6349 20.0577 11.8663 20.2927C12.0978 20.5278 12.3771 20.7102 12.6852 20.8278C12.9934 20.9454 13.3233 20.9954 13.6525 20.9742C14.4251 20.9432 15.1559 20.6151 15.6925 20.0582C15.6485 20.2137 15.6226 20.3737 15.6155 20.5352C15.6155 20.7132 15.6925 20.8433 15.8625 20.8433H17.1865C17.3935 20.8433 17.5705 20.6203 17.6095 20.4053L18.3945 15.4552C18.3998 15.4191 18.3975 15.3823 18.3878 15.347C18.378 15.3118 18.3611 15.279 18.3379 15.2507C18.3147 15.2225 18.2859 15.1994 18.2533 15.183C18.2206 15.1665 18.185 15.1571 18.1485 15.1553ZM21.2655 22.6912L26.1655 15.5632C26.1814 15.5457 26.1932 15.5249 26.2 15.5022C26.2067 15.4795 26.2083 15.4556 26.2045 15.4322C26.2034 15.3651 26.1778 15.3006 26.1324 15.2511C26.0871 15.2015 26.0252 15.1703 25.9585 15.1632H24.4805C24.4116 15.1656 24.3442 15.1842 24.2839 15.2175C24.2236 15.2509 24.1721 15.2981 24.1335 15.3552L22.0945 18.3552L21.2475 15.4692C21.2157 15.3814 21.1583 15.305 21.0827 15.2501C21.0071 15.1952 20.9168 15.1643 20.8235 15.1613H19.3845C19.3176 15.1681 19.2556 15.1993 19.2102 15.2489C19.1649 15.2985 19.1393 15.363 19.1385 15.4302C19.1385 15.5222 20.6385 19.8022 20.7705 20.2102C20.186 20.9817 19.6586 21.7949 19.1925 22.6432C19.193 22.7083 19.2191 22.7705 19.2651 22.8165C19.3111 22.8625 19.3734 22.8886 19.4385 22.8892H20.9165C20.9856 22.8844 21.0526 22.8639 21.1126 22.8292C21.1726 22.7946 21.2238 22.7467 21.2625 22.6892M33.5245 14.4762C33.5245 12.8592 32.2775 12.3202 30.8535 12.3202H27.7975C27.6951 12.3191 27.5958 12.3552 27.518 12.4218C27.4402 12.4883 27.3892 12.5809 27.3745 12.6822L26.1275 20.5332C26.1229 20.5697 26.1257 20.6067 26.1356 20.6421C26.1456 20.6775 26.1625 20.7104 26.1855 20.7391C26.2084 20.7678 26.2368 20.7917 26.2691 20.8092C26.3014 20.8267 26.3369 20.8376 26.3735 20.8412H27.9515C28.0225 20.8389 28.0909 20.8138 28.1464 20.7694C28.2019 20.7251 28.2416 20.664 28.2595 20.5952L28.6065 18.3632C28.6835 17.8092 29.6225 18.0012 29.9915 18.0012C30.4656 18.0444 30.9433 17.9829 31.391 17.8212C31.8387 17.6594 32.2454 17.4013 32.5824 17.0651C32.9194 16.7288 33.1784 16.3227 33.3412 15.8754C33.504 15.428 33.5666 14.9504 33.5245 14.4762ZM40.0055 15.1532H38.5435C38.2505 15.1532 38.2355 15.5762 38.2125 15.7842C38.0062 15.5032 37.7278 15.2833 37.4067 15.1477C37.0855 15.0121 36.7337 14.9659 36.3885 15.0142C35.4886 15.0426 34.6359 15.4233 34.0139 16.0741C33.3919 16.7249 33.0502 17.5941 33.0625 18.4943C33.0363 18.8231 33.0811 19.1537 33.1939 19.4636C33.3067 19.7736 33.4849 20.0556 33.7163 20.2906C33.9478 20.5257 34.2271 20.7082 34.5352 20.8258C34.8434 20.9434 35.1733 20.9933 35.5025 20.9722C35.8861 20.9616 36.2639 20.8752 36.614 20.718C36.9641 20.5608 37.2797 20.336 37.5425 20.0563C37.5057 20.2133 37.48 20.3726 37.4655 20.5332C37.4655 20.7112 37.5425 20.8412 37.7125 20.8412H39.0435C39.2515 20.8412 39.4285 20.6182 39.4675 20.4032L40.2525 15.4532C40.2578 15.417 40.2555 15.38 40.2457 15.3447C40.2359 15.3094 40.2188 15.2767 40.1956 15.2484C40.1723 15.2201 40.1433 15.1971 40.1106 15.1807C40.0779 15.1643 40.042 15.1549 40.0055 15.1532ZM43.6625 12.5902C43.6652 12.5217 43.6408 12.455 43.5945 12.4044C43.5483 12.3539 43.4839 12.3236 43.4155 12.3202H41.9915C41.9329 12.3214 41.8764 12.3428 41.8317 12.3806C41.7869 12.4185 41.7565 12.4706 41.7455 12.5282L40.4985 20.5332L40.4755 20.5723C40.4762 20.6434 40.5048 20.7113 40.5551 20.7616C40.6054 20.8119 40.6734 20.8404 40.7445 20.8412H42.0145C42.1208 20.8241 42.2182 20.7714 42.2908 20.6919C42.3635 20.6124 42.407 20.5106 42.4145 20.4032L43.6615 12.6132L43.6625 12.5902ZM36.7345 16.5773C36.513 16.5764 36.2935 16.6198 36.0891 16.7048C35.8846 16.7899 35.6991 16.9149 35.5436 17.0726C35.388 17.2303 35.2655 17.4175 35.1833 17.6232C35.101 17.8288 35.0606 18.0488 35.0645 18.2703C35.0597 18.4312 35.0895 18.5912 35.1517 18.7397C35.214 18.8882 35.3073 19.0217 35.4255 19.1311C35.5436 19.2405 35.6838 19.3234 35.8366 19.3741C35.9894 19.4249 36.1513 19.4422 36.3115 19.4252C36.5306 19.4291 36.7482 19.3891 36.9516 19.3075C37.155 19.2259 37.34 19.1043 37.4956 18.9501C37.6513 18.7958 37.7745 18.6119 37.8579 18.4093C37.9414 18.2067 37.9834 17.9894 37.9815 17.7703C37.9888 17.607 37.9612 17.444 37.9004 17.2922C37.8395 17.1405 37.747 17.0036 37.6288 16.8906C37.5107 16.7776 37.3698 16.6911 37.2156 16.6371C37.0613 16.583 36.8973 16.5627 36.7345 16.5773Z" fill="#3D3D3F"/>
</svg>
