<svg width="31" height="31" viewBox="0 0 31 31" fill="none" xmlns="http://www.w3.org/2000/svg">
<path d="M15.7791 27.5507C14.1093 27.5468 12.461 27.1743 10.9519 26.4596C9.4428 25.745 8.1101 24.706 7.04901 23.4167C7.60085 22.3323 8.44043 21.4206 9.47577 20.7814C10.5111 20.1423 11.7023 19.8002 12.919 19.7927C13.0626 19.7939 13.2052 19.8165 13.342 19.8597C14.9189 20.4172 16.6392 20.4172 18.216 19.8597C18.3529 19.8164 18.4955 19.7938 18.639 19.7927C19.8558 19.8002 21.047 20.1423 22.0823 20.7814C23.1177 21.4206 23.9572 22.3323 24.509 23.4167C23.4479 24.706 22.1152 25.745 20.6061 26.4596C19.097 27.1743 17.4488 27.5468 15.7791 27.5507ZM15.7791 6.70374C16.8377 6.68588 17.8777 6.98349 18.7667 7.55867C19.6556 8.13386 20.3533 8.9606 20.7708 9.93361C21.1883 10.9066 21.3068 11.9819 21.1112 13.0225C20.9156 14.063 20.4147 15.0219 19.6724 15.7768C18.93 16.5318 17.9797 17.0487 16.9426 17.2618C15.9054 17.4749 14.8283 17.3745 13.8484 16.9735C12.8685 16.5724 12.0302 15.8887 11.4401 15.0096C10.8501 14.1304 10.535 13.0956 10.535 12.0367C10.5291 11.3422 10.6601 10.6533 10.9204 10.0094C11.1807 9.36552 11.5653 8.77921 12.0523 8.28397C12.5393 7.78874 13.119 7.39429 13.7585 7.12315C14.3979 6.85201 15.0845 6.7095 15.7791 6.70374ZM15.7791 0.885742C13.8216 0.901564 11.8864 1.30295 10.0841 2.06697C8.28181 2.83098 6.64769 3.94265 5.27521 5.33845C3.90272 6.73425 2.81876 8.38681 2.0852 10.2017C1.35164 12.0166 0.982916 13.9583 1.00006 15.9157C0.963939 17.8794 1.31949 19.8305 2.04596 21.6551C2.77243 23.4798 3.85525 25.1413 5.23114 26.5428C6.60703 27.9442 8.24841 29.0574 10.0594 29.8173C11.8704 30.5772 13.8146 30.9686 15.7785 30.9686C17.7424 30.9686 19.6867 30.5772 21.4977 29.8173C23.3087 29.0574 24.95 27.9442 26.3259 26.5428C27.7018 25.1413 28.7846 23.4798 29.5111 21.6551C30.2376 19.8305 30.5931 17.8794 30.557 15.9157C30.5741 13.9583 30.2054 12.0166 29.4719 10.2017C28.7383 8.38681 27.6543 6.73425 26.2819 5.33845C24.9094 3.94265 23.2752 2.83098 21.473 2.06697C19.6707 1.30295 17.7355 0.901564 15.778 0.885742" fill="#545457"/>
</svg>
