<svg width="35" height="25" viewBox="0 0 35 25" fill="none" xmlns="http://www.w3.org/2000/svg">
<path d="M33.5579 0.822083C34.0109 1.29586 34.2637 1.92608 34.2637 2.58157C34.2637 3.23707 34.0109 3.86729 33.5579 4.34106L14.2879 24.2701C14.0685 24.5001 13.8048 24.6833 13.5126 24.8084C13.2204 24.9335 12.9058 24.998 12.588 24.998C12.2701 24.998 11.9555 24.9335 11.6633 24.8084C11.3711 24.6833 11.1073 24.5001 10.8879 24.2701L1.25092 14.3051C0.798372 13.8311 0.545898 13.2009 0.545898 12.5456C0.545898 11.8902 0.798372 11.2601 1.25092 10.7861C1.47068 10.5553 1.73504 10.3715 2.02795 10.246C2.32087 10.1205 2.63627 10.0557 2.95496 10.0557C3.27364 10.0557 3.58898 10.1205 3.8819 10.246C4.17481 10.3715 4.43917 10.5553 4.65894 10.7861L12.5229 18.9861L30.153 0.822083C30.3721 0.591649 30.6358 0.408147 30.928 0.282776C31.2203 0.157405 31.5349 0.0927734 31.8529 0.0927734C32.1709 0.0927734 32.4856 0.157405 32.7778 0.282776C33.0701 0.408147 33.3338 0.591649 33.5529 0.822083" fill="white"/>
</svg>
