<svg width="35" height="26" viewBox="0 0 35 26" fill="none" xmlns="http://www.w3.org/2000/svg">
<path d="M33.3109 1.69019C33.7639 2.16396 34.0167 2.79422 34.0167 3.44971C34.0167 4.1052 33.7639 4.73543 33.3109 5.2092L14.0409 25.1382C13.8215 25.3682 13.5578 25.5514 13.2656 25.6765C12.9734 25.8016 12.6588 25.8661 12.3409 25.8661C12.023 25.8661 11.7085 25.8016 11.4163 25.6765C11.124 25.5514 10.8603 25.3682 10.6409 25.1382L1.00391 15.1732C0.551363 14.6992 0.298828 14.069 0.298828 13.4137C0.298828 12.7584 0.551363 12.1282 1.00391 11.6542C1.22367 11.4234 1.48803 11.2397 1.78094 11.1141C2.07386 10.9886 2.3892 10.9239 2.70789 10.9239C3.02657 10.9239 3.34197 10.9886 3.63489 11.1141C3.9278 11.2397 4.19216 11.4234 4.41193 11.6542L12.2759 19.8542L29.9119 1.6922C30.1311 1.46177 30.3948 1.27829 30.687 1.15292C30.9793 1.02755 31.2939 0.962891 31.6119 0.962891C31.9299 0.962891 32.2446 1.02755 32.5368 1.15292C32.829 1.27829 33.0927 1.46177 33.3119 1.6922" fill="#545457"/>
</svg>
