<svg width="37" height="36" viewBox="0 0 37 36" fill="none" xmlns="http://www.w3.org/2000/svg">
<path d="M2.93311 14.0246C2.93311 11.7076 3.62015 9.44261 4.90741 7.51609C6.19467 5.58957 8.02428 4.08801 10.1649 3.20133C12.3056 2.31465 14.661 2.08265 16.9335 2.53467C19.206 2.9867 21.2935 4.10245 22.9318 5.74082C24.5702 7.37919 25.686 9.46662 26.138 11.7391C26.59 14.0116 26.358 16.3671 25.4713 18.5077C24.5846 20.6484 23.0831 22.478 21.1566 23.7652C19.23 25.0525 16.9651 25.7396 14.6481 25.7396C11.5411 25.7396 8.56131 24.5053 6.36432 22.3083C4.16733 20.1113 2.93311 17.1316 2.93311 14.0246Z" stroke="white" stroke-width="4" stroke-miterlimit="10"/>
<path d="M23.4331 22.8496L34.2041 33.6206" stroke="white" stroke-width="4" stroke-miterlimit="10" stroke-linecap="round"/>
</svg>
