<svg width="23" height="26" viewBox="0 0 23 26" fill="none" xmlns="http://www.w3.org/2000/svg">
<path d="M6.82259 0.954938C6.95263 0.693833 7.15292 0.474176 7.40094 0.320661C7.64897 0.167146 7.9349 0.0858585 8.22659 0.0859376H14.1396C14.4306 0.0866015 14.7157 0.168239 14.9629 0.321712C15.2102 0.475186 15.4099 0.694441 15.5396 0.954938L15.8936 1.65494H20.6076C20.8139 1.65494 21.0182 1.69557 21.2088 1.77452C21.3994 1.85347 21.5726 1.96919 21.7185 2.11507C21.8643 2.26095 21.9801 2.43414 22.059 2.62474C22.138 2.81534 22.1786 3.01963 22.1786 3.22594C22.1786 3.43224 22.138 3.63653 22.059 3.82713C21.9801 4.01774 21.8643 4.19092 21.7185 4.3368C21.5726 4.48268 21.3994 4.5984 21.2088 4.67735C21.0182 4.7563 20.8139 4.79694 20.6076 4.79694H1.75459C1.33794 4.79694 0.938349 4.63142 0.643729 4.3368C0.349109 4.04218 0.183594 3.64259 0.183594 3.22594C0.183594 2.80928 0.349109 2.40969 0.643729 2.11507C0.938349 1.82045 1.33794 1.65494 1.75459 1.65494H6.46959L6.82259 0.954938ZM1.71059 6.37194H20.6106V22.0859C20.6098 22.9193 20.2784 23.7182 19.6892 24.3075C19.0999 24.8968 18.3009 25.2281 17.4676 25.2289H4.85359C4.02244 25.2211 3.22754 24.8875 2.6398 24.2997C2.05206 23.712 1.71842 22.9171 1.71059 22.0859V6.37194ZM5.63959 10.2999V21.2999C5.64726 21.5058 5.73239 21.7011 5.87795 21.8469C6.02352 21.9926 6.21876 22.078 6.42459 22.0859C6.5287 22.0896 6.63245 22.0717 6.72938 22.0336C6.82632 21.9954 6.91437 21.9378 6.98808 21.8641C7.06179 21.7905 7.11958 21.7025 7.15785 21.6057C7.19613 21.5088 7.21408 21.4051 7.21059 21.3009V10.3009C7.21408 10.1968 7.19613 10.093 7.15786 9.99608C7.11959 9.89914 7.06182 9.8111 6.98813 9.7374C6.91443 9.66371 6.82639 9.60594 6.72945 9.56767C6.63252 9.5294 6.52875 9.51146 6.42459 9.51494C6.21884 9.52309 6.02373 9.60855 5.87821 9.75425C5.7327 9.89995 5.64749 10.0952 5.63959 10.3009M10.3536 10.3009V21.3009C10.3615 21.5066 10.4467 21.7017 10.5923 21.8472C10.7378 21.9928 10.9329 22.078 11.1386 22.0859C11.2449 22.0899 11.3509 22.0727 11.4505 22.0352C11.5501 21.9978 11.6411 21.9408 11.7184 21.8677C11.7957 21.7946 11.8577 21.7069 11.9006 21.6095C11.9436 21.5122 11.9667 21.4073 11.9686 21.3009V10.3009C11.9668 10.1945 11.9438 10.0895 11.9009 9.99203C11.858 9.8946 11.7961 9.8067 11.7188 9.7335C11.6415 9.66029 11.5504 9.60326 11.4507 9.56573C11.3511 9.5282 11.245 9.51093 11.1386 9.51494C10.9328 9.52309 10.7377 9.60855 10.5922 9.75425C10.4467 9.89995 10.3615 10.0952 10.3536 10.3009ZM15.1116 10.3009V21.3009C15.1189 21.5044 15.2048 21.6971 15.3513 21.8385C15.4978 21.9799 15.6935 22.0589 15.8971 22.0589C16.1007 22.0589 16.2964 21.9799 16.4429 21.8385C16.5894 21.6971 16.6753 21.5044 16.6826 21.3009V10.3009C16.6864 10.1954 16.6688 10.0902 16.6311 9.99165C16.5933 9.89306 16.536 9.80309 16.4627 9.72712C16.3894 9.65115 16.3015 9.59072 16.2043 9.54945C16.1072 9.50818 16.0027 9.48691 15.8971 9.48691C15.7915 9.48691 15.687 9.50818 15.5898 9.54945C15.4927 9.59072 15.4048 9.65115 15.3315 9.72712C15.2582 9.80309 15.2009 9.89306 15.1631 9.99165C15.1254 10.0902 15.1078 10.1954 15.1116 10.3009Z" fill="#9E9EA3"/>
</svg>
