<svg width="21" height="17" viewBox="0 0 21 17" fill="none" xmlns="http://www.w3.org/2000/svg">
<path d="M20.5157 2.142C19.8575 2.42409 19.1659 2.62101 18.4578 2.728C18.7887 2.672 19.2748 2.074 19.4698 1.828C19.7744 1.46042 20.0061 1.03824 20.1528 0.583995C20.1708 0.548995 20.1838 0.503996 20.1528 0.476996C20.1351 0.469666 20.1158 0.466658 20.0967 0.468222C20.0775 0.469787 20.0591 0.47588 20.0428 0.485995C19.2718 0.897274 18.4524 1.2107 17.6037 1.419C17.5742 1.42833 17.5427 1.42905 17.5128 1.42108C17.4829 1.41311 17.4558 1.39678 17.4348 1.374C17.3694 1.29606 17.2982 1.22318 17.2218 1.156C16.8692 0.853097 16.47 0.608971 16.0398 0.432998C15.4654 0.200623 14.846 0.100812 14.2278 0.140998C13.627 0.181422 13.0412 0.3466 12.5078 0.625998C11.9731 0.90472 11.5011 1.28996 11.1208 1.758C10.726 2.24262 10.4428 2.80841 10.2917 3.415C10.1622 3.98977 10.1473 4.58444 10.2478 5.165C10.2608 5.265 10.2528 5.277 10.1638 5.265C6.93632 4.9375 3.94705 3.41775 1.78075 1.003C1.68075 0.891997 1.62979 0.891996 1.54979 1.012C1.11462 1.81491 0.950057 2.73679 1.08067 3.64066C1.21129 4.54453 1.63009 5.38214 2.27477 6.029C2.43877 6.184 2.60778 6.34 2.78978 6.481C2.22584 6.43893 1.67583 6.2853 1.17174 6.029C1.07174 5.967 1.02583 6.002 1.01683 6.113C1.01045 6.27313 1.01916 6.4335 1.04283 6.592C1.1424 7.34593 1.44009 8.05996 1.90563 8.66129C2.37116 9.26262 2.98779 9.72974 3.69273 10.015C3.865 10.0899 4.04524 10.1452 4.22984 10.18C3.70759 10.2845 3.17149 10.301 2.64378 10.229C2.52778 10.207 2.48382 10.264 2.52782 10.375C2.79968 11.0855 3.24873 11.7148 3.83226 12.2029C4.41579 12.6911 5.11441 13.0219 5.8618 13.164C6.0128 13.19 6.16178 13.19 6.31578 13.226C6.30578 13.24 6.2968 13.24 6.2888 13.253C5.63994 13.834 4.8579 14.2462 4.01183 14.453C2.90449 14.8478 1.72487 14.9986 0.553819 14.895C0.368819 14.868 0.328794 14.87 0.278794 14.895C0.228794 14.92 0.271773 14.971 0.331773 15.019C0.567773 15.175 0.807744 15.313 1.05174 15.445C1.78659 15.836 2.56184 16.1458 3.36376 16.369C5.42575 16.9885 7.61411 17.0567 9.71068 16.5668C11.8072 16.0769 13.7389 15.0461 15.3129 13.577C17.7619 11.147 18.6197 7.795 18.6197 4.439C18.6197 4.307 18.7748 4.239 18.8668 4.165C19.4885 3.68421 20.0366 3.11521 20.4938 2.476C20.5656 2.38346 20.6038 2.26915 20.6018 2.152V2.134C20.6018 2.08 20.6018 2.096 20.5178 2.134" fill="#F5F7FA"/>
</svg>
