<svg width="26" height="31" viewBox="0 0 26 31" fill="none" xmlns="http://www.w3.org/2000/svg">
<path d="M23.1252 15.4835H9.29182V9.43552C9.28519 8.31495 9.70202 7.2375 10.4506 6.44021C11.1991 5.64291 12.218 5.19107 13.2833 5.18409C14.3485 5.17711 15.3727 5.61557 16.1306 6.403C16.8885 7.19043 17.318 8.26233 17.3247 9.3829V15.4142C17.3247 15.5996 17.3594 15.7831 17.4268 15.9544C17.4943 16.1256 17.593 16.2812 17.7176 16.4123C17.8423 16.5434 17.9902 16.6474 18.153 16.7183C18.3158 16.7893 18.4903 16.8258 18.6665 16.8258H20.4512C20.8071 16.8258 21.1484 16.677 21.4 16.4123C21.6517 16.1476 21.793 15.7886 21.793 15.4142V9.3829C21.7876 8.21169 21.5629 7.05308 21.1318 5.97322C20.7007 4.89336 20.0716 3.91339 19.2805 3.08927C18.4894 2.26515 17.5518 1.61301 16.5211 1.17011C15.4904 0.727197 14.3869 0.50219 13.2735 0.507919C12.1602 0.513649 11.0587 0.749996 10.0322 1.20349C9.00567 1.65699 8.07411 2.31875 7.29069 3.15097C6.50728 3.98319 5.88736 4.96959 5.46633 6.05384C5.0453 7.13808 4.83144 8.29895 4.83689 9.47015V15.4835H3.49499C2.7847 15.4859 2.10431 15.7844 1.60287 16.3135C1.10142 16.8427 0.819821 17.5594 0.819824 18.3066V27.6975C0.82305 28.444 1.10722 29.1588 1.61016 29.6855C2.11311 30.2121 2.79389 30.5078 3.50355 30.5078H23.1435C23.8524 30.5078 24.5324 30.2119 25.0342 29.685C25.536 29.1581 25.8185 28.4433 25.8198 27.6975V18.3066C25.8198 17.5592 25.5381 16.8423 25.0364 16.3131C24.5347 15.7839 23.854 15.4855 23.1435 15.4835M15.557 24.4047C15.557 25.0271 15.322 25.6241 14.9036 26.0643C14.4851 26.5045 13.9177 26.7517 13.3259 26.7517C12.7342 26.7517 12.1667 26.5045 11.7483 26.0643C11.3299 25.6241 11.0948 25.0271 11.0948 24.4047V21.5892C11.0948 20.9667 11.3299 20.3697 11.7483 19.9296C12.1667 19.4894 12.7342 19.2421 13.3259 19.2421C13.9177 19.2421 14.4851 19.4894 14.9036 19.9296C15.322 20.3697 15.557 20.9667 15.557 21.5892V24.4047Z" fill="#9E9EA3"/>
</svg>
