<svg width="19" height="21" viewBox="0 0 19 21" fill="none" xmlns="http://www.w3.org/2000/svg">
<path d="M16.9931 10.7327H7.04715V6.59869C7.0315 5.83288 7.3207 5.09222 7.85115 4.53964C8.3816 3.98707 9.10983 3.66785 9.87564 3.6522C10.6415 3.63655 11.3821 3.92576 11.9347 4.45621C12.4873 4.98666 12.8065 5.71489 12.8221 6.4807V10.6807C12.8219 10.935 12.9225 11.1789 13.1019 11.3591C13.2813 11.5393 13.5249 11.6409 13.7791 11.6417H15.0681C15.1942 11.6426 15.3191 11.6187 15.4359 11.5713C15.5527 11.5239 15.659 11.4539 15.7487 11.3654C15.8384 11.2769 15.9098 11.1716 15.9588 11.0555C16.0077 10.9394 16.0334 10.8147 16.0341 10.6887V6.5607C15.9845 4.9816 15.3241 3.48336 14.1921 2.38135C13.06 1.27934 11.5445 0.659533 9.96468 0.652406C8.38482 0.645279 6.86382 1.25138 5.72185 2.34313C4.57988 3.43488 3.90603 4.92712 3.84215 6.5057C3.84215 6.5447 3.84215 6.5837 3.84215 6.6207V10.7317H2.87715C2.62427 10.7317 2.37386 10.7815 2.14024 10.8783C1.90663 10.9751 1.69438 11.117 1.51561 11.2959C1.33684 11.4747 1.19507 11.6871 1.09839 11.9207C1.00171 12.1544 0.952017 12.4048 0.952149 12.6577V19.0697C0.952149 19.3225 1.00194 19.5728 1.09868 19.8064C1.19542 20.0399 1.33721 20.2521 1.51596 20.4309C1.69471 20.6096 1.90692 20.7514 2.14047 20.8482C2.37402 20.9449 2.62436 20.9947 2.87715 20.9947H16.9931C17.5037 20.9947 17.9933 20.7919 18.3543 20.4309C18.7153 20.0699 18.9182 19.5802 18.9182 19.0697V12.6587C18.9183 12.4058 18.8686 12.1554 18.7719 11.9217C18.6752 11.6881 18.5334 11.4757 18.3547 11.2969C18.1759 11.118 17.9637 10.9761 17.73 10.8793C17.4964 10.7825 17.246 10.7327 16.9931 10.7327ZM11.5391 16.8327C11.5391 17.2581 11.3702 17.6661 11.0694 17.9669C10.7685 18.2677 10.3606 18.4367 9.93515 18.4367C9.50974 18.4367 9.10176 18.2677 8.80095 17.9669C8.50014 17.6661 8.33115 17.2581 8.33115 16.8327V14.9027C8.33115 14.4773 8.50014 14.0693 8.80095 13.7685C9.10176 13.4677 9.50974 13.2987 9.93515 13.2987C10.3606 13.2987 10.7685 13.4677 11.0694 13.7685C11.3702 14.0693 11.5391 14.4773 11.5391 14.9027V16.8327Z" fill="#545457"/>
</svg>
