<svg width="45" height="35" viewBox="0 0 45 35" fill="none" xmlns="http://www.w3.org/2000/svg">
<path d="M36.5712 15.7158C36.5712 15.7158 37.1561 18.5769 37.2861 19.1769H34.7172C34.9712 18.4929 35.9481 15.8308 35.9481 15.8308C35.9321 15.8538 36.2021 15.1308 36.3561 14.6848L36.5712 15.7158ZM44.7181 4.07581V31.1548C44.7179 32.1341 44.3287 33.0731 43.6361 33.7655C42.9436 34.4579 42.0044 34.8468 41.0251 34.8468H4.10315C3.12388 34.8468 2.18467 34.4579 1.49213 33.7655C0.799583 33.0731 0.410421 32.1341 0.410156 31.1548V4.07288C0.410686 3.09369 0.799946 2.1547 1.49243 1.4624C2.18492 0.770104 3.12396 0.381124 4.10315 0.380859H41.0281C42.0073 0.381124 42.9464 0.770104 43.6389 1.4624C44.3313 2.1547 44.7206 3.09369 44.7211 4.07288M12.1422 23.3978L17.0031 11.4579H13.7341L10.7111 19.6128L10.3801 17.9589L9.30316 12.4658C9.23602 12.1543 9.05569 11.8787 8.79706 11.6925C8.53843 11.5063 8.21988 11.4228 7.90314 11.4579H2.92615L2.87213 11.6968C4.01158 11.9772 5.1048 12.4202 6.11816 13.0118L8.87213 23.3978H12.1422ZM19.4041 23.4128L21.3422 11.4579H18.2501L16.3192 23.4128H19.4041ZM30.1661 19.5049C30.1811 18.1429 29.3501 17.1049 27.5731 16.2509C26.4891 15.7049 25.8271 15.3358 25.8271 14.7738C25.8421 14.2658 26.3891 13.7428 27.6041 13.7428C28.3951 13.7207 29.1809 13.8758 29.9041 14.1968L30.1812 14.3279L30.6041 11.7428C29.7203 11.4044 28.7815 11.2323 27.8351 11.2349C24.7811 11.2349 22.6351 12.8658 22.6191 15.1888C22.5961 16.9048 24.1581 17.8588 25.3271 18.4358C26.5191 19.0198 26.9271 19.4048 26.9271 19.9198C26.9121 20.7198 25.9581 21.0898 25.0731 21.0898C24.0688 21.1163 23.0733 20.8969 22.1732 20.4508L21.7651 20.2588L21.3351 22.9438C22.4338 23.3701 23.6027 23.5865 24.7811 23.5818C28.0271 23.5898 30.1431 21.9819 30.1661 19.5049ZM41.0281 23.4128L38.5361 11.4579H36.1431C35.8013 11.4163 35.4555 11.4918 35.1622 11.6721C34.8688 11.8525 34.6453 12.127 34.5281 12.4508L29.9351 23.4128H33.1812C33.1812 23.4128 33.7121 21.9359 33.8281 21.6208H37.7971C37.8891 22.0438 38.1661 23.4128 38.1661 23.4128H41.0281Z" fill="#3D3D3F"/>
</svg>
